<svg xmlns="http://www.w3.org/2000/svg" xmlns:xlink="http://www.w3.org/1999/xlink" width="20.67" height="24.67" viewBox="0 0 62 74"><defs><path id="a" d="M332 1173c16.57 0 30 13.23 30 29.56 0 8.01-3.24 15.28-8.5 20.6a655.16 655.16 0 0 1-15.88 18c-2.34 2.59-3.73 3.84-5.62 3.84-1.9 0-2.8-.71-5.52-3.67a581.2 581.2 0 0 1-16.76-18.98c-1.04-1.14-2-2.35-2.85-3.64a9.72 9.72 0 0 1-.94-1.52 29.09 29.09 0 0 1-3.93-14.63c0-16.33 13.43-29.56 30-29.56zm-13.85 29.56c0 7.53 6.2 13.64 13.85 13.64 7.65 0 13.85-6.1 13.85-13.64 0-7.54-6.2-13.64-13.85-13.64-7.65 0-13.85 6.1-13.85 13.64z"/></defs><g transform="translate(-301 -1172)"><use fill="#fff" xlink:href="#a"/></g></svg>