<svg xmlns="http://www.w3.org/2000/svg" xmlns:xlink="http://www.w3.org/1999/xlink" width="30.67" height="18.67" viewBox="0 0 92 56"><defs><path id="a" d="M558.24 1836.33h.13a8.83 8.83 0 1 1 0 17.67h-.13a8.83 8.83 0 1 1 0-17.67zm26.76-8.82a8.83 8.83 0 0 1-8.84 8.83h-.13a8.83 8.83 0 0 1-8.83-8.83v-17.67a8.83 8.83 0 0 1 8.83-8.84h.13a8.83 8.83 0 0 1 8.84 8.84zm-35.6 0a8.83 8.83 0 0 1-8.84 8.83h-.13a8.83 8.83 0 0 1-8.83-8.83v-17.67a8.83 8.83 0 0 1 8.83-8.84h.13a8.83 8.83 0 0 1 8.84 8.84zm-26.76 8.82h.13a8.83 8.83 0 1 1 0 17.67h-.13a8.83 8.83 0 1 1 0-17.67zm-8.84-8.82a8.83 8.83 0 0 1-8.84 8.83h-.13a8.83 8.83 0 0 1-8.83-8.83v-17.67a8.83 8.83 0 0 1 8.84-8.84h.13a8.83 8.83 0 0 1 8.83 8.84z"/><linearGradient id="b" x1="496" x2="585" y1="1828" y2="1827" gradientUnits="userSpaceOnUse"><stop offset="0" stop-color="#fc6076"/><stop offset="1" stop-color="#fe7d5d"/></linearGradient></defs><g transform="translate(-495 -1799)"><use fill="gray" xlink:href="#a"/><use fill="url(#b)" xlink:href="#a"/></g></svg>