<?xml version="1.0" standalone="no"?>
<!DOCTYPE svg PUBLIC "-//W3C//DTD SVG 20010904//EN"
 "http://www.w3.org/TR/2001/REC-SVG-20010904/DTD/svg10.dtd">
<svg version="1.0" xmlns="http://www.w3.org/2000/svg"
 width="500.000000pt" height="500.000000pt" viewBox="0 0 500.000000 500.000000"
 preserveAspectRatio="xMidYMid meet">
<metadata>
Created by potrace 1.11, written by Peter Selinger 2001-2013
</metadata>
<g transform="translate(0.000000,500.000000) scale(0.100000,-0.100000)"
fill="#000000" stroke="none">
<path d="M0 2500 l0 -2500 2500 0 2500 0 0 2500 0 2500 -2500 0 -2500 0 0
-2500z m1160 1064 c119 -35 209 -125 244 -244 24 -80 24 -841 0 -920 -79 -268
-416 -348 -605 -144 -99 107 -100 119 -97 625 l3 424 28 60 c78 166 257 250
427 199z m2893 -4 c71 -22 150 -84 192 -150 52 -82 55 -112 55 -551 0 -385 -1
-410 -21 -475 -18 -59 -30 -77 -88 -135 -58 -58 -76 -70 -135 -88 -145 -45
-278 -11 -377 95 -97 105 -99 119 -99 604 0 485 2 499 99 604 98 105 232 140
374 96z m-1453 -26 c119 -35 209 -125 244 -244 24 -80 24 -811 0 -890 -79
-268 -416 -348 -605 -144 -96 105 -99 120 -99 589 0 469 3 484 99 589 94 101
230 139 361 100z m-720 -1410 c191 -57 300 -255 244 -444 -19 -65 -50 -114
-100 -161 -52 -48 -81 -64 -144 -83 -189 -56 -387 53 -444 244 -80 269 175
524 444 444z m1456 -5 c59 -18 77 -30 135 -88 58 -58 70 -76 88 -135 12 -37
21 -90 21 -116 0 -26 -9 -79 -21 -116 -18 -59 -30 -77 -88 -135 -58 -58 -76
-70 -135 -88 -81 -25 -144 -27 -216 -5 -191 57 -300 255 -244 444 21 71 51
117 114 173 92 82 216 106 346 66z"/>
</g>
</svg>
