<svg xmlns="http://www.w3.org/2000/svg" xmlns:xlink="http://www.w3.org/1999/xlink" width="225" height="225" viewBox="0 0 75 75"><defs><path id="a" d="M1014 101c0 1.03-.05 1.78-.14 2.25 0 .66-.26 1.24-.77 1.76-.52.51-1.06.82-1.62.91l-4.92.7c-1.5.2-2.49.99-2.95 2.4l-1.83 4.5a3.5 3.5 0 0 0 .28 3.8l3.1 3.93c.83 1.22.79 2.4-.15 3.52l-3.23 3.23c-1.13.94-2.3.98-3.52.14l-3.94-2.95c-1.22-.94-2.48-1.08-3.8-.42l-4.5 1.82c-.56.2-1.1.6-1.61 1.2-.52.61-.78 1.2-.78 1.76l-.7 4.92c-.1.56-.4 1.1-.91 1.62-.52.51-1.1.77-1.76.77L978 137a12.7 12.7 0 0 1-2.25-.14c-.66 0-1.24-.26-1.76-.78a3 3 0 0 1-.91-1.61l-.7-4.92c0-.57-.26-1.15-.78-1.76-.51-.6-1.05-1-1.62-1.2l-4.5-1.82a3.35 3.35 0 0 0-3.8.42l-3.93 2.95a3.3 3.3 0 0 1-2.18.14 3.75 3.75 0 0 1-1.9-.84c-.19-.1-.37-.24-.56-.43a60.96 60.96 0 0 1-1.69-1.75l-.49-.64a4.5 4.5 0 0 0-.35-.42c-.66-.75-.56-1.73.28-2.95l2.95-3.94a3.35 3.35 0 0 0 .42-3.8l-1.82-4.5a3.74 3.74 0 0 0-1.2-1.61 2.78 2.78 0 0 0-1.76-.77l-4.92-.7c-.56-.1-1.1-.4-1.62-.92a2.41 2.41 0 0 1-.77-1.76L942 101c0-1.03.05-1.78.14-2.25 0-.65.26-1.24.77-1.76a3.02 3.02 0 0 1 1.62-.91l4.92-.7c.57 0 1.15-.26 1.76-.78.6-.51 1-1.05 1.2-1.61l1.82-4.5c.66-1.32.52-2.58-.42-3.8l-2.95-3.94c-.84-1.22-.8-2.39.14-3.52l3.24-3.23c1.12-.94 2.3-.98 3.51-.14l3.94 2.95a3.35 3.35 0 0 0 3.8.42l4.5-1.82a3.31 3.31 0 0 0 2.39-2.96l.7-4.92a3 3 0 0 1 .91-1.62c.52-.51 1.1-.77 1.76-.77L978 65c1.03 0 1.78.05 2.25.14.65 0 1.24.26 1.76.77.51.52.82 1.06.91 1.62l.7 4.92c0 .56.26 1.15.78 1.76.51.61 1.05 1 1.62 1.2l4.5 1.82c1.3.66 2.57.52 3.8-.42l3.93-2.95c1.22-.84 2.34-.8 3.37.14l3.38 3.23c.94 1.13.98 2.3.14 3.52l-3.1 3.94a3.5 3.5 0 0 0-.27 3.8l1.82 4.5a3.31 3.31 0 0 0 2.96 2.39l4.92.7c.56.1 1.1.4 1.62.91.51.52.77 1.1.77 1.76zm-20.53 0a15.47 15.47 0 1 0-30.94 0 15.47 15.47 0 0 0 30.94 0z"/><mask id="c" width="2" height="2" x="-1" y="-1"><path fill="#fff" d="M940 63h75v75h-75z"/><use xlink:href="#a"/></mask><filter id="b" width="95.7" height="95.7" x="930" y="53" filterUnits="userSpaceOnUse"><feOffset dx=".7" dy=".7" in="SourceGraphic" result="FeOffset1023Out"/><feGaussianBlur in="FeOffset1023Out" result="FeGaussianBlur1024Out" stdDeviation="0 0"/></filter></defs><g transform="translate(-940 -63)"><g filter="url(#b)"><use fill="none" stroke-opacity=".3" stroke-width="0" mask="url(&quot;#c&quot;)" xlink:href="#a"/><use fill-opacity=".3" xlink:href="#a"/></g><use fill="#fff" xlink:href="#a"/></g></svg>