<?xml version="1.0" encoding="UTF-8" standalone="no"?>
<svg width="180px" height="180px" viewBox="0 0 180 180" version="1.1" xmlns="http://www.w3.org/2000/svg" xmlns:xlink="http://www.w3.org/1999/xlink">
    <!-- Generator: Sketch 3.8.3 (29802) - http://www.bohemiancoding.com/sketch -->
    <title>albania</title>
    <desc>Created with Sketch.</desc>
    <defs></defs>
    <g id="Page-1" stroke="none" stroke-width="1" fill="none" fill-rule="evenodd">
        <g id="flags" transform="translate(-720.000000, -180.000000)">
            <g id="albania" transform="translate(720.000000, 180.000000)">
                <circle id="red" fill="#E94B35" cx="90" cy="90" r="90"></circle>
                <path d="M72.5189231,35.0010657 C70.767229,34.9712981 67.859981,35.5640544 67.9251296,36.9193202 C63.0460194,36.0763081 62.5379698,38.1080299 62.8246711,39.9159227 C63.2888927,39.1984406 63.8541237,38.8089055 64.288383,38.7354508 C64.9389938,38.6265928 65.6198262,38.8384246 66.3150562,39.2689204 C67.0103185,39.6994489 67.7762713,40.3941787 68.1165578,40.8239553 C66.3945342,41.2389887 65.0642259,40.9710607 63.714173,40.7330769 C63.048646,40.6157195 62.1173167,40.2382797 61.5636621,39.8477312 C61.0100074,39.4571173 60.8356811,39.0894845 59.9648278,38.1905397 C58.9380989,37.1306616 57.8453492,37.4290894 58.1858627,39.0758854 C58.9733144,40.6053894 60.2887712,41.2874028 61.9464666,41.5617053 C62.7441651,41.6937733 63.9324117,41.9803673 65.2792187,41.9816749 C66.6260321,41.9831263 68.1382546,41.7855344 68.9610093,41.9589749 C68.466728,42.2718191 67.9073987,42.8111729 66.7992138,43.0259468 C65.6722862,43.2443166 63.9589854,42.3503734 62.9147591,42.106538 C63.0473846,42.992276 64.1556343,43.8202833 66.337583,44.2518252 C69.9230888,45.0389045 72.9024832,45.6370677 74.8721273,46.7149254 C76.8417618,47.7927831 78.0836098,49.14223 78.9705111,50.1995975 C80.7354678,52.3037933 80.8283056,53.9190858 80.9408914,54.2745056 C81.3040064,57.6363904 80.1411824,59.5275024 77.9797112,60.108778 C76.8989593,60.3993929 74.9791973,59.8521607 74.2754034,59.0191192 C73.5715804,58.1862737 72.8867918,56.7547093 73.0819037,54.5128817 C73.2716003,53.6334202 74.2691775,51.3426294 73.4196934,50.8692998 C69.5062978,48.6887792 64.7540898,46.4836005 61.3159248,45.1713124 C60.3762165,44.8126465 59.6020792,46.1002013 59.3005102,46.6015039 C53.4596902,45.8844369 48.1936151,41.8998287 45.8231372,37.6571355 C44.2086407,34.767495 41.5476676,37.6630982 41.9949754,40.3926423 C42.7171196,43.439228 45.0196796,45.6419157 47.7822524,47.2030767 C50.6176167,48.7769738 54.1616422,50.3256996 57.7467297,50.2450858 C59.6781654,50.6134377 59.6590984,53.1325034 57.341395,53.6048981 C52.808512,53.6338125 49.1923759,53.5199039 45.7780996,50.1996825 C43.1883681,47.8159211 41.7304313,50.6562323 42.4791265,52.2655001 C43.7478563,57.226509 50.7682423,58.6157431 57.8705805,57.0101039 C60.6208894,56.5509389 58.9739986,59.5219451 58.1970856,59.5526737 C55.2294525,61.6977321 49.9164851,63.7965961 45.2376362,59.5299705 C43.0965938,57.8772249 41.6490174,59.2664883 42.4453346,61.6525707 C44.5214261,67.8736323 52.4629334,66.5670486 57.915605,63.5027318 C59.3190681,62.714018 60.5927916,64.5489781 58.8839008,65.9431451 C52.1030546,70.7196512 48.712758,70.773969 45.6542456,68.9397313 C41.8251986,67.4173538 41.4883687,71.698909 43.7626851,73.1054459 C46.290514,74.6687514 52.7233269,73.4966482 57.4427287,70.506126 C59.4659322,68.9897308 59.5574729,71.3608085 58.2759021,72.2995371 C52.6753644,77.1788404 50.4679056,78.4637963 44.6296375,77.6684301 C41.7346079,77.440907 41.7780922,81.0391053 44.0554242,82.4470838 C47.1647299,84.3694246 53.2367626,81.1785449 57.9493937,77.2371007 C59.9329068,76.1686251 60.2586662,77.9209447 59.2779834,79.9953271 C56.3984538,83.6577875 53.6958122,85.8170955 51.0924776,86.8171115 C48.4891268,87.8171341 45.9850862,87.6578026 44.2130475,87.0439807 C42.0511872,86.2952142 41.7800994,88.5601798 42.9745395,90.6194594 C43.6945435,91.8607675 46.678283,92.258802 49.8990038,91.1075551 C53.1197279,89.9564717 56.5774203,87.2564402 58.951475,84.0928076 C61.0170278,82.269812 60.7601429,84.7188882 59.8184371,86.4424079 C55.0645267,94.0187744 50.7165994,96.8292559 44.9899443,96.3515916 C42.4507336,95.9169114 41.874056,97.9075091 43.4924761,99.7454571 C46.3342933,102.12134 49.8875085,102.04684 52.9953194,99.7000179 C55.758145,97.0146251 61.043621,91.2320553 63.8155002,88.1336297 C65.7687916,86.5638189 66.3927799,88.1114004 65.8196692,91.3004822 C65.2984413,93.1267795 63.993588,95.0501794 60.4377268,96.4537121 C58.0085077,97.8514096 59.832773,99.777719 61.6537307,99.8135245 C62.6558476,99.8332268 64.6907571,98.6522417 66.2475209,96.8850481 C68.2955309,94.5602269 68.4173258,92.9994255 69.5464941,89.3822212 C70.6133024,87.6189831 72.5187642,88.4419888 72.5189588,90.2902865 C71.6050751,93.9135058 70.8198609,94.5631625 68.9722808,96.0451056 C67.2050867,97.7177268 70.2027795,98.2751582 71.2128733,97.5887971 C74.1350441,95.6031356 75.2018427,93.0346098 76.1782225,90.6989061 C76.8829859,89.0129474 78.9274289,89.830265 77.9797241,92.5831302 C75.7148764,99.1621025 71.9933241,101.752606 65.4819087,103.08255 C64.8219915,103.200888 64.419478,103.593463 64.6487353,104.365178 C65.5226691,105.279814 66.3981919,106.10975 67.2721582,107.021248 C63.2457846,108.203093 59.9746725,108.867042 55.945241,110.052058 C53.968343,108.745467 52.3713083,107.636956 50.3944103,106.329019 C49.8731175,105.100493 49.6300432,103.225262 46.7126197,104.546955 C44.7357217,103.6265 43.823816,103.964025 42.7268314,104.887487 C44.31049,104.946983 44.9995264,105.374537 45.6204666,106.102022 C46.4311683,108.254534 48.3006365,108.462476 50.2142569,107.850027 C51.4591854,108.90729 52.1221832,109.718266 53.3668523,110.778503 C51.0432148,110.698413 49.4243894,110.656896 47.106686,110.585632 C44.8942075,108.190756 43.1282845,108.321941 41.5445935,110.199725 C40.3375718,110.386713 39.8259098,110.412865 39,111.89098 C40.2989191,111.353555 41.1161062,111.192458 41.6797158,111.777545 C44.0319862,113.152327 45.5686843,112.845465 46.7351401,111.777545 C49.00456,111.917459 51.0495543,112.035797 53.3218278,112.186171 C52.4871627,112.901398 51.341687,113.280799 50.5069896,114.002302 C47.0984691,113.019246 45.3194781,114.342508 44.7197126,117.146468 C44.2629167,118.278166 44.0490297,119.443306 44.246833,120.653843 C44.5767429,119.546597 45.10718,118.594596 46.0820909,117.997773 C49.1201225,118.775732 50.2624787,117.525401 50.4281795,115.693579 C51.8926049,114.489015 54.1008874,114.223375 55.562417,113.003446 C57.2713078,113.554961 58.0973798,113.896572 59.8184306,114.444981 C60.4303238,116.319497 61.8149468,117.061725 64.0631824,116.578925 C66.739461,116.663592 66.2670029,117.770642 66.483938,118.656119 C67.1951868,117.384442 67.175374,116.147743 65.5268943,115.023887 C64.9271288,113.381243 63.5983122,112.634176 61.8563656,113.582352 C60.2166735,113.113053 59.785592,112.438526 58.1520578,111.970534 C62.2839839,110.642859 65.214965,110.344104 69.3437943,109.019338 C70.3773003,110.002166 71.1964005,110.707749 72.2374296,111.584595 C72.7860905,111.914732 73.3113069,111.997896 73.6335966,111.584595 C76.2208313,107.809534 77.3763365,104.482559 79.7811706,101.993231 C80.6999183,100.963297 81.860667,99.573674 83.1476985,99.2350047 C83.7912077,99.06567 84.580378,99.1689707 85.08429,99.7231004 C85.588202,100.277165 85.9840356,101.298338 85.8161622,102.821859 C85.5752313,105.008761 85.0511174,105.699241 84.4425318,107.010277 C83.8339462,108.321346 83.0902058,109.127778 82.3257771,110.131723 C80.7968873,112.139581 78.7795855,113.308252 77.5856157,114.093128 C75.1976759,115.662906 74.1877474,114.975859 72.3387827,114.876317 C69.949027,115.146664 69.3131705,116.32001 71.2691532,117.941013 C73.097634,118.900108 74.7411686,119.018511 76.0768726,118.769609 C77.2237426,118.555816 78.5659191,117.063513 79.5222169,116.261102 C80.598656,115.007437 82.3833282,116.494183 81.1660596,117.952357 C78.9540675,120.601987 76.7438232,122.348955 74.0164076,122.311034 C71.1503675,122.699883 71.6864793,124.323306 73.5885688,125.114667 C77.0118142,126.538942 80.1026205,123.871169 81.6727409,122.118065 C82.8841402,120.781988 83.7445521,120.72988 83.5305354,122.799097 C82.3279238,126.545241 80.6845026,127.992353 78.0022218,128.17934 C75.8265477,127.975681 75.8030383,129.668766 77.3942199,130.812723 C81.0189329,133.341923 83.6439156,129.03484 84.8703901,126.431346 C85.7443564,124.082857 87.0848466,125.199681 87.2236008,127.135098 C87.2416819,129.721015 86.0826324,131.832331 82.9788458,134.479015 C85.3536203,138.293386 88.1222114,142.173144 90.5000535,146 C92.8778599,142.172945 95.6464478,138.293187 98.0212223,134.478816 C94.9174389,131.832131 93.7583862,129.720812 93.7764706,127.134899 C93.9152571,125.199482 95.2556825,124.082657 96.1296488,126.431146 C97.3561266,129.03465 99.981106,133.341724 103.605819,130.812524 C105.197001,129.6686 105.173491,127.975482 102.997817,128.179141 C100.31554,127.992154 98.6721151,126.545029 97.4695068,122.798898 C97.2554901,120.729681 98.115902,120.781789 99.3273013,122.117865 C100.897438,123.87097 103.988228,126.538733 107.411473,125.114468 C109.313563,124.323106 109.849675,122.699684 106.983635,122.310835 C104.256219,122.348755 102.045975,120.601797 99.8339825,117.952157 C98.616714,116.493983 100.401386,115.007238 101.477825,116.260903 C102.434123,117.063314 103.7763,118.555616 104.923166,118.76941 C106.25889,119.018181 107.902408,118.899843 109.730886,117.940814 C111.686868,116.31981 111.051012,115.146465 108.661256,114.876118 C106.812282,114.975823 105.80235,115.662707 103.414426,114.092929 C102.22044,113.30804 100.203139,112.139369 98.6742618,110.131524 C97.9098331,109.127579 97.1660927,108.321147 96.5575071,107.010078 C95.9489215,105.699042 95.4248076,105.008562 95.1838767,102.82166 C95.015906,101.298138 95.4118369,100.276965 95.9157489,99.722901 C96.4196609,99.1687713 97.2088312,99.0654706 97.8523405,99.2348052 C99.139359,99.5734746 100.300108,100.963098 101.218868,101.993032 C103.623702,104.482349 104.779201,107.809334 107.366446,111.584396 C107.688768,111.997697 108.213952,111.914533 108.762613,111.584396 C109.803642,110.707549 110.622742,110.001967 111.656248,109.019139 C115.78508,110.343905 118.716058,110.64266 122.847988,111.970335 C121.214457,112.438326 120.783375,113.112854 119.14368,113.582153 C117.401746,112.633976 116.07293,113.381108 115.473148,115.023687 C113.824668,116.147573 113.804855,117.384239 114.516104,118.655919 C114.733039,117.770443 114.260581,116.663393 116.93686,116.578726 C119.185105,117.061526 120.569722,116.319166 121.181615,114.444782 C122.902666,113.896373 123.728738,113.554762 125.437628,113.003247 C126.899168,114.223176 129.10744,114.488815 130.571866,115.69338 C130.737567,117.525202 131.879929,118.775532 134.917951,117.997574 C135.892862,118.594397 136.423299,119.546397 136.753209,120.653644 C136.951012,119.443097 136.737113,118.277957 136.28033,117.146268 C135.680532,114.342308 133.901534,113.019046 130.493014,114.002103 C129.658316,113.2806 128.512873,112.901198 127.678175,112.185972 C129.950449,112.035597 131.995443,111.917259 134.264863,111.777346 C135.431319,112.845266 136.968024,113.152127 139.320284,111.777346 C139.883894,111.192324 140.701081,111.353421 142,111.89078 C141.174119,110.412685 140.662457,110.386533 139.455436,110.199545 C137.871745,108.321761 136.105822,108.190609 133.893343,110.585452 C131.57564,110.656716 129.956814,110.698233 127.633177,110.778323 C128.877846,109.718086 129.540844,108.90711 130.785772,107.849847 C132.699406,108.462296 134.568864,108.254354 135.379566,106.101843 C136.000506,105.374357 136.689542,104.946804 138.273201,104.887308 C137.176203,103.963845 136.264298,103.62632 134.287409,104.546775 C131.370005,103.225082 131.126902,105.100316 130.605619,106.328843 C128.628721,107.636773 127.031686,108.745294 125.054788,110.051881 C121.02536,108.866865 117.754245,108.202929 113.727939,107.021248 C114.601905,106.10975 115.477428,105.279814 116.351362,104.365178 C116.580619,103.593463 116.178203,103.200888 115.518156,103.08255 C109.006754,101.752766 105.285198,99.1622627 103.02035,92.5832904 C102.072646,89.8304252 104.117056,89.0131108 104.82182,90.6990663 C105.79819,93.0347733 106.864998,95.6032958 109.787169,97.5889573 C110.797263,98.2753184 113.794962,97.7177562 112.027761,96.0452658 C110.180181,94.5633259 109.394967,93.9136758 108.481087,90.2904467 C108.481281,88.442149 110.386743,87.6191433 111.453551,89.3823814 C112.582716,92.9995856 112.704511,94.5603871 114.752524,96.8852083 C116.309301,98.6524019 118.344201,99.8333968 119.346318,99.8136846 C121.167276,99.7777255 122.991541,97.85156 120.562322,96.4538723 C117.006467,95.050356 115.701617,93.126956 115.180389,91.3006588 C114.607278,88.111577 115.231299,86.5639954 117.184526,88.1338062 C119.956398,91.2322384 125.241881,97.0148016 128.004707,99.7001945 C131.112521,102.046983 134.665736,102.121484 137.507553,99.7456337 C139.125973,97.9076987 138.549263,95.917088 136.010052,96.3517681 C130.283401,96.8294357 125.93547,94.0189379 121.181563,86.4425844 C120.239857,84.7190648 119.982972,82.2699886 122.048525,84.0929841 C124.422586,87.256633 127.880272,89.9566482 131.100996,91.1077316 C134.32172,92.2589786 137.30546,91.860944 138.025464,90.6196359 C139.219904,88.5603563 138.948784,86.2953907 136.786923,87.0441573 C135.014898,87.6578156 132.510847,87.8171471 129.907496,86.817288 C127.304207,85.8171053 124.601566,83.6577973 121.722036,79.9953369 C120.741353,77.9209545 121.067113,76.1686349 123.050626,77.2371105 C127.763254,81.1785547 133.83529,84.3694344 136.944592,82.4470937 C139.221924,81.0391315 139.265408,77.4409168 136.370379,77.6684399 C130.532114,78.4638225 128.324652,77.1788404 122.724114,72.2995469 C121.442543,71.3608183 121.534116,68.9897373 123.55732,70.5061358 C128.276722,73.496658 134.709531,74.6687547 137.23736,73.1054557 C139.511677,71.6989319 139.17486,67.4173636 135.34581,68.9397411 C132.287284,70.7739821 128.897,70.7196512 122.116138,65.9431386 C120.407247,64.5489716 121.680971,62.7140114 123.084434,63.5027253 C128.537109,66.567029 136.478613,67.8736192 138.554704,61.6525642 C139.351009,59.2664818 137.903445,57.8772314 135.762403,59.5299639 C131.083557,63.7965896 125.77059,61.6977092 122.802957,59.5526672 C122.026044,59.5219385 120.379153,56.5509323 123.129462,57.0100973 C130.2318,58.6157365 137.252189,57.2265057 138.520916,52.2654936 C139.269585,50.6562585 137.811677,47.8159244 135.22193,50.199676 C131.807657,53.5198941 128.19152,53.633806 123.658637,53.6048916 C121.340934,53.1324871 121.321867,50.6134214 123.253303,50.2450793 C126.838387,50.3258238 130.382412,48.7769673 133.217777,47.2030702 C135.980343,45.6419222 138.28291,43.4392214 139.005054,40.3926357 C139.452349,37.6630786 136.791375,34.7674721 135.176895,37.6570963 C132.806401,41.8997895 127.540339,45.8844075 121.699519,46.6014646 C121.39795,46.1001621 120.623793,44.8125975 119.684098,45.1712732 C116.245936,46.4835515 111.493725,48.6887465 107.580358,50.869339 C106.730874,51.3426588 107.728549,53.6334496 107.918148,54.5129209 C108.113357,56.754742 107.428504,58.186313 106.724681,59.0191584 C106.020864,59.8522392 104.101102,60.3994811 103.02035,60.1088662 C100.858847,59.5275906 99.6960423,57.6364787 100.059157,54.2745938 C100.171678,53.9191872 100.264419,52.3038717 102.029538,50.1996858 C102.916442,49.1423248 104.15829,47.7928779 106.127921,46.7150137 C108.097556,45.637156 111.07696,45.0389927 114.662466,44.2519134 C116.844431,43.8203715 117.952667,42.9923642 118.085293,42.1066262 C117.041053,42.3504943 115.327753,43.2444048 114.200835,43.026035 C113.09265,42.8112611 112.533321,42.2719073 112.039039,41.9590632 C112.861804,41.7854788 114.374026,41.9832146 115.720827,41.9817632 C117.06764,41.9804556 118.255887,41.6937635 119.053579,41.5617936 C120.711268,41.2875237 122.026725,40.6054777 122.814183,39.0759737 C123.154696,37.4291777 122.061946,37.1307499 121.035218,38.190628 C120.164364,39.0895728 119.990038,39.4572055 119.436383,39.8478194 C118.882729,40.2383679 117.951399,40.6158077 117.285872,40.7331652 C115.935816,40.971149 114.605508,41.2390116 112.883488,40.8240436 C113.223742,40.394267 113.989727,39.6995372 114.684989,39.2690087 C115.380219,38.8384802 116.061052,38.6266811 116.711662,38.7355391 C117.145922,38.8090918 117.711153,39.1985289 118.175374,39.916011 C118.462027,38.1081182 117.953899,36.0764062 113.074913,36.9194084 C113.14009,35.56411 110.232803,34.9713732 108.481122,35.0011539 C107.48909,35.0179893 105.453954,35.6044168 103.988662,36.2951258 C101.670991,37.0030951 99.3675105,37.5211022 96.670122,37.7139738 C98.2278392,39.0329535 98.5338506,39.1083696 100.104205,40.233824 C97.7263495,41.1057341 95.8846224,42.9132019 95.0600421,44.093069 C97.1370091,44.1934276 97.8228353,44.017228 98.5279036,44.3199382 C95.6347547,45.1646829 94.3250991,45.6596108 92.7969227,47.2030081 C93.3379309,47.302386 94.1422121,47.4478569 94.4858062,47.5775711 C94.8410414,47.7119274 94.693986,47.8959726 94.4520823,48.1564473 C93.7888576,48.5748804 91.2505873,51.58959 90.5000697,52.2881118 C89.7495521,51.58959 87.2113013,48.5748935 86.5480571,48.1564473 C86.3061534,47.8959072 86.1590332,47.7118293 86.5143333,47.5775711 C86.8579273,47.4477915 87.6622085,47.3023206 88.2032167,47.2030081 C86.6749431,45.6597089 85.3652907,45.1647482 82.4721386,44.3200036 C83.1771938,44.0172934 83.86302,44.193493 85.9400001,44.0931344 C85.115423,42.9131398 83.2736992,41.1056916 80.8958376,40.2337488 C82.4662012,39.1082944 82.7722127,39.0328686 84.3299234,37.7138888 C81.6325349,37.5210172 79.3290507,37.0030166 77.0113797,36.2950473 C75.5460788,35.6043384 73.5109488,35.0179011 72.5189231,35.0010657 C72.5189231,35.0010657 73.5109488,35.0179011 72.5189231,35.0010657 L72.5189231,35.0010657 Z M73.360424,38 C74.811038,38 75.709397,38.497244 75.709397,39.099989 C75.709397,39.713195 74.811038,40.211462 73.360424,40.211462 C71.915849,40.211462 71,39.667721 71,39.054185 C71.0002607,38.45144 71.915849,38 73.360424,38 C73.360424,38 71.915849,38 73.360424,38 L73.360424,38 Z M108.34894,38 C109.793515,38 110.7091,38.45144 110.709364,39.054185 C110.709364,39.667721 109.793515,40.211462 108.34894,40.211462 C106.898326,40.211462 106,39.713195 106,39.099989 C106,38.497244 106.898326,38 108.34894,38 C108.34894,38 106.898326,38 108.34894,38 L108.34894,38 Z" id="emblem" fill="#000000"></path>
            </g>
        </g>
    </g>
</svg>