<?xml version="1.0" encoding="UTF-8" standalone="no"?>
<svg width="180px" height="180px" viewBox="0 0 180 180" version="1.1" xmlns="http://www.w3.org/2000/svg" xmlns:xlink="http://www.w3.org/1999/xlink">
    <!-- Generator: Sketch 3.8.3 (29802) - http://www.bohemiancoding.com/sketch -->
    <title>american_samoa</title>
    <desc>Created with Sketch.</desc>
    <defs></defs>
    <g id="Page-1" stroke="none" stroke-width="1" fill="none" fill-rule="evenodd">
        <g id="flags" transform="translate(-1260.000000, -180.000000)">
            <g id="american_samoa" transform="translate(1260.000000, 180.000000)">
                <circle id="blue" fill="#227FBB" cx="90" cy="90" r="90"></circle>
                <path d="M151.47215,155.736075 C149.099802,157.955465 146.60723,160.04793 144.005261,162.002641 L144.005269,162.002635 L0,90 L144.005261,17.9973592 C146.60723,19.95207 149.099802,22.0445346 151.47215,24.263925 L20,90 L151.47215,155.736075 L151.47215,155.736075 Z" id="red-stripe" fill="#E94B35"></path>
                <path d="M151.47215,155.736075 C169.027993,139.312149 180,115.9374 180,90 C180,64.0626001 169.027993,40.6878512 151.47215,24.263925 L20,90 L151.47215,155.736075 L151.47215,155.736075 Z" id="white" fill="#FFFFFF"></path>
                <g id="emblem-" transform="translate(106.000000, 63.000000)">
                    <path d="M28.8723213,34.6705539 C28.8723213,34.6705539 27.7199649,34.2424008 28.9202692,32.4827779 C28.0560569,31.9121361 28.4400967,30.6278442 28.4400967,30.6278442 C28.4400967,30.6278442 25.6075512,29.5815697 28.2962564,28.5830261 C26.0876763,29.5340903 24.0230751,27.298818 24.0230751,27.298818 L20.8064729,27.3940384 C20.2623474,24.7465513 16.0213287,27.0452076 19.1741132,19.4517445 C18.3579165,19.3090514 17.4456886,19.0713054 16.5335961,19.7371073 C15.6214021,20.402926 13.0288667,21.8296898 11.4924705,20.402926 C9.95614192,18.9761789 12.5007125,16.93121 12.5487281,16.8836132 C12.5967216,16.83605 15.9575279,15.1238731 16.4376834,13.9825559 C16.3896662,13.1264842 15.3334103,12.4606991 16.2936334,10.6058659 C17.3978727,8.84612574 24.1673045,7.18157915 27.2402662,6.61092055 C28.7284776,5.94510191 28.7283523,4.33879995 28.7283523,4.33879995 L29.7367197,5.89747161 C31.1771831,5.89747134 36.5543193,3.90008273 36.8903267,2.94881748 C37.2264186,1.99763602 37.0344004,3.80485565 37.0344004,3.80485565 C39.7229669,3.5670561 43.1315976,1.28423736 43.6117531,2.33054534 C45.8682134,1.90252626 50.189275,0.000146588773 50.189275,0.000146588773 C50.189275,0.000146588773 51.6774864,-0.0473898588 50.6212627,1.56960018 C51.2934466,2.61587464 50.4292343,3.51955987 50.3812864,3.51955987 C50.3331068,3.51955987 50.6691936,4.56583433 49.8049983,5.13654321 C50.0933792,6.04014464 49.2768779,6.75352654 49.2768779,6.75352654 C49.2768779,6.75352654 49.6611546,7.84736427 48.1247584,8.41807314 C48.2688338,9.36925459 47.2605461,9.55949089 47.2605461,9.55949089 C47.2605461,9.55949089 47.4046198,10.5582356 46.7324257,10.9862379 C46.7324257,11.7471831 45.9643461,12.1276557 45.9643461,12.1276557 C45.9643461,12.1276557 46.4442817,12.4130017 45.7720977,12.8886008 C45.1001507,13.3641832 38.1385044,17.5968275 38.1385044,17.5493984 C38.1385044,17.5018586 43.2276794,18.4530165 43.5636868,18.6432528 C43.8997787,18.8334891 47.7406001,21.3540907 47.7406001,21.3540907 C47.7406001,21.3540907 45.1615038,25.4054466 43.8514756,26.1099141 C42.9868068,26.5748897 41.381168,26.2189472 40.3342214,25.9915439 C39.7949772,25.8744168 38.0208092,26.2321968 38.0208092,26.2321968 C38.0208092,26.2321968 40.0942615,25.977526 40.3342209,26.3579483 C40.5744171,26.7383706 41.1150796,27.8697716 41.8831593,27.7745445 C42.5312977,27.6942183 40.2812017,29.1763226 38.9014416,29.6200428 C38.7935494,29.6547401 37.728577,29.653551 37.0344009,29.5249405 C36.082535,29.3485875 35.4462147,29.0206585 35.4462147,29.0206585 C35.4462147,29.0206585 36.0342834,29.4408372 36.7469959,29.6200428 C37.621964,29.8400462 38.6624457,29.8299314 38.75984,29.8620796 C39.3316162,30.0508132 40.9402871,29.7660733 41.3070742,29.4391833 C41.5719354,29.2030157 40.5134783,30.7781074 39.0293713,31.2736626 C37.8229092,31.6765098 36.153019,31.0012016 36.153019,31.0012016 C36.153019,31.0012016 37.5502421,31.5775703 38.2170982,31.5305748 C39.5403656,31.4373198 40.8739491,30.8203869 42.1233893,30.5804502 C42.1233893,30.5804502 41.7954359,31.9198409 40.118019,32.4988701 C40.0378607,32.52654 39.0023834,32.8528006 38.0208092,32.757061 C37.308384,32.6875734 36.5541439,32.1902809 36.5541439,32.1902809 C36.5541439,32.1902809 37.2831425,32.724195 38.138504,32.9003334 C38.9065559,33.0584928 39.8089922,32.8581455 39.8310605,32.900333 C40.4448935,34.0737876 40.15145,34.8132119 40.1068883,34.8132119 C40.0655804,34.8132119 39.0975737,33.8247353 38.0320568,33.703029 C37.8608261,33.6834706 36.0336533,32.9953423 36.0336533,32.9953423 C36.0336533,32.9953423 36.6878325,33.246586 37.1140327,33.5054855 C37.1140327,33.5054855 37.5741519,33.9261347 37.5856826,33.961339 C37.9749226,35.1497162 38.876848,36.2042613 39.1467803,36.3826152 C39.4346875,36.5728347 36.5903803,36.0457173 36.153019,35.9245796 C35.7156576,35.8034419 34.3755264,33.961338 34.3755264,33.961338 C34.3755264,33.961338 35.0308478,35.0926094 35.4462147,35.4894829 C35.7026726,35.7345225 36.153019,36.0407906 36.153019,36.0407906 C36.153019,36.0407906 36.2033648,37.7520536 36.8420675,38.2849446 C36.2941354,38.3095891 34.5934533,38.3835616 33.8547173,37.4098549 C33.1697219,36.5069822 33.4241295,34.5519066 33.4241295,34.5519066 C33.4241295,34.5519066 33.1723088,36.3256916 33.5376358,37.2156715 C33.8567318,37.9930274 34.8013917,37.8957848 34.7755642,37.9690712 C34.6193734,38.4122685 34.3628315,39.3276258 34.6817059,39.8544317 C35.1139305,40.5677801 33.1934945,38.4275003 33.1934945,38.4275003 L29.5446169,39.9494241 L28.7283524,38.5702236 C28.8241959,37.4525815 27.672017,37.7141 28.9202692,36.3349665 C28.2480852,35.7643246 28.8723213,34.6705539 28.8723213,34.6705539 L28.8723213,34.6705539 Z" id="Shape" stroke="#000000" stroke-width="0.3" fill="#9C3900"></path>
                    <path d="M10.5285386,38.1179354 L11.2989321,35.4214057 C11.2989321,35.4214057 13.1820182,35.5056018 13.3532695,35.9270259 C13.0964773,36.4324293 13.0108856,37.1066784 13.0108856,37.1066784 C13.0108856,37.1066784 14.2948465,37.1911047 14.3804382,37.3594885 C14.4660299,37.5281008 14.0380543,38.9605634 14.0380543,38.9605634 L19.5164003,40.2246305 C19.5164003,40.2246305 19.944376,38.1179354 20.3723517,38.3707455 C20.8003612,38.6235556 22.6834813,41.2358709 25.3371134,41.4044665 C27.9905761,41.5730788 28.1618273,39.2133902 28.1618273,39.2133902 L28.7609357,39.5506315 C28.7609357,39.5506315 29.8736453,37.1911263 30.0449135,37.1911263 C30.2161817,37.1911263 31.1263565,36.8750807 31.9279997,37.5281342 C32.7296429,38.1811877 32.5273452,39.2134236 32.5273452,39.2134236 C32.5273452,39.2134236 30.900814,40.814732 31.4143984,42.0788824 C31.9279828,43.3429495 32.0137439,43.0057082 32.0137439,43.0057082 L43.8261841,45.7866191 C43.8261841,45.7866191 44.4255296,46.7136784 43.3983439,47.2193152 C43.3983439,47.3035113 31.5001934,44.5226187 31.5001934,44.5226187 C31.5001934,44.5226187 30.3872466,45.7866858 29.5313969,45.5338757 C28.6754795,45.2810657 29.2746047,46.0394959 29.2746047,46.0394959 L42.1142136,47.0507529 C42.1142136,47.0507529 43.0558753,48.2306222 42.3710058,48.5676468 C41.5150884,48.6518412 28.5042282,47.7250021 28.5042282,47.7250021 C28.5042282,47.7250021 27.7338347,49.326077 26.8779342,47.9778122 C26.2788259,48.9046379 25.5939564,47.7250021 25.5939564,47.7250021 C25.5939564,47.7250021 24.4812467,48.5676468 24.3099785,47.6405775 C23.3683169,48.3148267 22.7692085,47.2193719 22.7692085,47.2193719 L17.2910319,46.8821306 L16.9486479,47.3877508 C16.9486479,47.3877508 17.8902249,47.6405608 16.4350636,48.2306122 C14.9799023,48.8204302 25.1659976,48.5676201 25.4227898,48.6518179 C25.679582,48.7362407 24.7381575,49.4946793 24.7381575,49.4946793 C24.7381575,49.4946793 29.959542,49.8316872 30.9010004,48.7362324 C31.842662,47.6405608 30.5586842,50.168695 30.5586842,50.168695 C30.5586842,50.168695 34.6673591,50.0002995 34.6673591,49.8316872 C34.6673591,49.6630749 34.5816047,51.0957543 31.7571042,50.9271419 C33.4689391,52.0228302 35.6088174,52.6968125 35.6088174,52.6968125 C35.6088174,52.6968125 33.4689391,53.2024327 30.9867276,52.6126181 C31.4145678,53.7080729 33.2978572,54.7193132 33.2978572,54.7193132 C33.2978572,54.7193132 31.9281183,55.8991825 28.8465105,53.0338571 C29.7026482,54.5507509 29.0177787,55.1407189 28.9322632,54.9721233 C28.8465105,54.803511 27.3914932,52.6968325 23.9676708,51.9384023 C26.1075492,53.2866671 25.1659045,53.8766685 25.1659045,53.8766685 C25.1659045,53.8766685 24.0531948,51.9384023 22.2556496,53.8766685 C21.5707801,52.1069979 18.9173513,51.0957576 15.6645939,50.927162 C14.6374252,49.7475094 14.0382321,50.0845339 11.64146,49.4102848 C10.2719073,47.8936244 8.30316165,46.2081349 8.30316165,46.2081349 C8.30316165,46.2081349 8.3887534,43.9328442 10.6998322,44.1856542 C10.9566244,44.9441012 10.9566244,44.6912744 10.9566244,44.6912744 C10.9566244,44.6912744 13.5245461,43.7642152 14.2949227,45.0282823 C15.4076662,43.090016 16.9483854,44.7385346 17.2051776,45.4125503 C17.942642,45.5189973 21.6563549,45.6181002 21.6563549,45.6181002 C21.6563549,45.6181002 21.2282776,44.8596533 21.4850698,44.9440845 C21.741862,45.0282789 23.7961994,44.1856376 23.7106585,43.9328275 C23.6800699,43.8426484 23.689619,42.9197039 23.5391056,42.912093 C22.6330163,42.6249978 20.5198091,42.8389485 19.1739063,43.8486297 C18.5747302,43.2585783 19.0027228,41.6575534 19.0027228,41.6575534 L13.695628,40.5620986 L13.4388358,41.9103635 C13.4388358,41.9103635 11.8980828,42.1631736 11.9836745,41.8261707 C12.0692646,41.4889294 11.6412906,43.0058233 11.6412906,43.0058233 C11.6412906,43.0058233 9.58695315,42.5001864 9.58695315,42.4160053 C9.58695315,42.3318093 10.1861462,39.3822844 10.1861462,39.4664988 C10.1861462,39.5509234 8.47414188,39.6351278 6.07747135,41.404765 C5.3927035,39.2980699 0,36.517159 0,36.4329446 C0.0856730527,36.4326961 5.3071541,36.3482699 7.70382463,35 C8.90219377,36.853885 10.5285386,38.1179354 10.5285386,38.1179354 L10.5285386,38.1179354 Z" id="Shape" stroke="#000000" stroke-width="0.3" fill="#F1C40F"></path>
                    <path d="M14.504953,47.1531874 C14.504953,47.1531874 11.1395348,45.5711201 11.1468644,45.3534263 C11.1499853,45.2607342 14.0008366,45.7495178 14.0008366,45.7495178" id="Path-64" stroke="#000000" stroke-width="0.3"></path>
                    <path d="M14.504953,49.1531874 C14.504953,49.1531874 11.1395348,47.5711201 11.1468644,47.3534263 C11.1499853,47.2607342 14.0008366,47.7495178 14.0008366,47.7495178" id="Path-66" stroke="#000000" stroke-width="0.3"></path>
                    <path d="M19.2306534,50.8704485 C19.2306534,50.8704485 16.0927136,49.3433044 16.1000433,49.1256107 C16.1031642,49.0329186 19.0502987,49.2458471 19.0502987,49.2458471" id="Path-67" stroke="#000000" stroke-width="0.3"></path>
                    <path d="M24.3518188,51.1023108 C24.3518188,51.1023108 21.2436251,49.9314142 21.2509548,49.7137204 C21.2540757,49.6210283 24.2306533,49.4312117 24.2306533,49.4312117" id="Path-68" stroke="#000000" stroke-width="0.3"></path>
                    <path d="M30.1864186,52.6673417 C30.1864186,52.6673417 29.2814721,51.8781142 28.2122236,51.4449377 C27.1924582,51.0318079 26.0059541,50.9764822 26.0095321,50.8702137 C26.012653,50.7775216 29.2306533,50.4312117 29.2306533,50.4312117" id="Path-69" stroke="#000000" stroke-width="0.3"></path>
                    <path d="M7.07947164,33.5965004 C7.10695624,33.6051093 8.81341106,32.0174807 8.81341106,32.0174807 L7.18026335,33.5965004 C7.18026335,33.5965004 10.4232241,34.3412744 12,32.0174808 C11.2091927,30.8771482 9.90187905,30.8540607 9.90187905,30.8540607 C9.90187905,30.8540607 7.44385991,30.9028371 7.18026328,29.5871582 C7.18026328,29.5871582 2.94976794,33.1578308 6.64012074,35 C6.81584023,33.7717946 7.07947164,33.5965004 7.07947164,33.5965004 L7.07947164,33.5965004 Z" id="Shape" stroke="#000000" stroke-width="0.3" fill="#FFC221"></path>
                    <path d="M7.63294906,28.7746506 C7.77837756,28.1718753 7.43903643,27.5186992 8.02077433,26.9660947 C8.60247806,26.4134902 16.2619332,23.0476749 16.8921364,22.394605 C17.5223567,21.7415704 18.685713,20.3350181 18.8312627,20.0335331 C18.9766912,19.7321012 19.4130006,21.5406217 18.1040946,22.344505 C19.5099313,21.9425191 20.4310121,21.4904509 21.0126987,21.6913996 C20.4308754,22.545436 18.8796768,23.9520945 18.1524404,23.9520945 C19.8491546,23.2989183 21.400319,22.7463139 21.8367975,23.0979873 C22.2729856,23.4496608 19.7522922,25.2080282 18.734127,25.3084052 C20.4308412,24.8563902 22.7094129,24.1530432 23,24.9065609 C22.0789705,25.2080636 22.3696943,25.4589176 20.479187,26.5643566 C20.236809,26.7655178 19.0248679,26.8154584 19.0248679,26.8154584 C20.479187,26.6647053 22.466642,26.0619407 22.6605376,27.1671319 C21.4972155,27.6191469 21.0608737,28.2221523 20.0913788,28.4732541 C19.1218157,28.724586 16.891846,29.1766011 15.5344063,29.7292055 C14.177052,30.28181 12.1894945,31.8893464 12.1894945,31.8893464 C12.1894945,31.8893464 7.87493412,32.0400977 7.87493412,31.9896844 C7.87493412,31.9395154 7.04414692,30.4350995 7.0023529,29.8798206 C6.96055887,29.3245417 7.48750177,29.3774081 7.63294906,28.7746506 L7.63294906,28.7746506 L7.63294906,28.7746506 L7.63294906,28.7746506 Z" id="Shape" stroke="#000000" stroke-width="0.3" fill="#FFFFFF"></path>
                    <path d="M51.8521081,28 C51.8521081,28 52.802513,26.9622615 52.3023379,26.3962752 C53.6025887,26.1134067 53.2524961,24.5094326 53.2524961,24.5094326 C53.2524961,24.5094326 54.7527571,23.8963375 53.5024515,22.4811307 C54.3529659,21.6792683 53.3024238,21.0660736 53.3024238,21.0660736 C53.3024238,21.0660736 53.6525164,19.6509665 52.5522933,19.5094575 C52.8524407,18.3773851 50.6519417,18 50.6519417,18 C50.6519417,18 46.1010022,19.1792808 42.9002059,19.273598 C43.9504837,20.2641945 42.500168,20.8773893 42.500168,20.8773893 C42.500168,20.8773893 43.3504357,21.4434421 43.1002336,21.9151278 C42.8502783,22.3869133 43.2503108,22.9057908 42.1500754,23.2360008 C43.6003911,23.8493119 42,24.8868343 42,24.8868343 C42,24.8868343 43.6003981,25.9245728 43.2003603,26.4434504 L51.8521081,28 L51.8521081,28 L51.8521081,28 Z" id="Shape" stroke="#000000" stroke-width="0.3" fill="#FFFFFF"></path>
                    <path d="M9.12671624,28.807227 C9.06943837,28.9470953 9.04467928,29.0602856 9.05277604,29.1208124 C9.0561068,29.1457113 9.06033776,29.1492228 9.1189279,29.1466563 L9.12945067,29.4686887 C8.93708371,29.4771155 8.80401525,29.3666746 8.77772431,29.1701381 C8.75916507,29.0313992 8.79618111,28.8621743 8.875223,28.6691598 C9.01257965,28.3337451 9.27228899,27.9482762 9.49794651,27.745047 C9.60186597,27.6514607 9.77919572,27.5385267 10.1012828,27.352806 C10.1598614,27.3190286 10.2213481,27.2838851 10.3091704,27.2339058 C10.3634062,27.2030524 10.3634062,27.2030524 10.4187214,27.1715924 C10.4745259,27.1398388 10.4974356,27.1267905 10.5312071,27.1075168 C10.7163993,27.0018253 10.8591449,26.9190148 10.9981973,26.8359736 C11.4780561,26.5494055 11.8336642,26.3056579 12.0882639,26.0761237 C12.2354369,25.9434398 12.3424849,25.8202037 12.4064188,25.7091293 C12.4874839,25.5683439 12.5132261,25.5264767 12.5412421,25.5006434 C12.5606453,25.4771875 12.5606453,25.4771875 12.6653724,25.4691383 C12.7775651,25.5790291 12.7775651,25.5790291 12.7704228,25.6369452 C12.7691753,25.6620489 12.7650533,25.6780845 12.7572789,25.7016277 C12.7506517,25.721697 12.7402913,25.7484294 12.724247,25.7876458 C12.7077874,25.8278773 12.6221525,26.0313438 12.6042379,26.074344 C12.5434007,26.2203708 12.4912207,26.3495246 12.4413782,26.479134 C12.3948926,26.6000142 12.3529563,26.7149789 12.3157701,26.8244145 C12.1686151,27.2574784 12.1069452,27.5802569 12.1478725,27.710554 L11.8863027,27.8206982 C11.8127052,27.5863917 11.8832929,27.2169374 12.0567636,26.7064286 C12.0955509,26.5922811 12.155632,26.4202911 12.155632,26.4202911 C11.8962405,26.6372268 11.5595377,26.8633493 11.1257843,27.1223836 C11.0430732,27.1717781 10.844493,27.2863807 10.6665491,27.3886107 C11.0014677,27.5224493 11.2420409,27.8906537 11.2420409,28.3239157 C11.2420409,28.8702329 10.8196432,29.170138 10.4187215,29.170138 C10.0177997,29.170138 9.53334969,28.8702329 9.53334969,28.3239157 C9.53334969,28.2542344 9.53957237,28.186236 9.55140941,28.1206248 C9.39047584,28.306079 9.22221593,28.5740239 9.12671624,28.807227 L9.12671624,28.807227 Z" id="Shape-2-path" fill="#000000"></path>
                    <path d="M25.9862432,24.0499321 C25.9862432,24.0499321 27.982337,26.9049762 30.8796704,24.0499321" id="Path-38" stroke="#000000" stroke-width="0.3"></path>
                    <path d="M29.2606997,25.1731488 C29.2606997,25.1731488 30.9213654,26.2258831 33.8186988,23.3708389" id="Path-39" stroke="#000000" stroke-width="0.3"></path>
                    <path d="M31.0680197,25.2851563 C31.0680197,25.2851563 32.6323879,26.6378227 34.8676119,25.1731488" id="Path-40" stroke="#000000" stroke-width="0.3"></path>
                    <path d="M24.4179883,27.5138139 C24.4179883,27.5138139 25.024839,27.7054013 26.1237765,27.5138139 C26.3200357,27.4795983 26.4060227,27.2184028 26.6428001,27.1731488 C26.8882691,27.1262336 28.5413114,26.8729293 29.5181765,27.5138139 C30.6261469,28.2407117 31.0558117,29.8762301 31.0558117,29.8762301 C31.0558117,29.8762301 30.2588364,30.7560738 30.1959109,31.1780596 C30.1357854,31.5812689 30.6866586,32.3518155 30.6866586,32.3518155 C30.6866586,32.3518155 30.0402126,32.7114435 29.9066157,33.0547128 C29.7801982,33.3795352 29.9066157,34.3560904 29.9066157,34.3560904 C29.9066157,34.3560904 29.3247694,34.9767865 29.3349557,35.675097 C29.3446493,36.3396304 30.113404,37.0545242 30.1959109,37.054524" id="Path-56" stroke="#000000" stroke-width="0.3"></path>
                    <path d="M26.3011999,41.4457311 C26.3011999,41.4457311 26.4288109,42.2881804 25.8235212,42.7208426 C25.329211,43.0741764 24.04469,42.9083426 23.6778739,42.9083426 L23.6778739,43.9709821 L24.7505494,44.0615234 L24.8770926,42.9083426 L24.8770927,44.1251395 C24.8770927,44.1251395 25.5869922,44.5625702 26.1301618,44.4411273 C26.8292602,44.2848216 27.4218543,43.5087284 27.6579241,42.9083426 C27.8871657,42.3253228 27.7173355,41.1116588 27.4013671,40.8408203" id="Path-57" stroke="#000000" stroke-width="0.3"></path>
                    <path d="M26.2049386,44.4242466 C26.2049386,44.4242466 26.7580303,45.2124027 27.3011999,45.0909598 C27.6523747,45.0124435 28.4251796,44.4966314 28.8157087,43.7208426 C29.2026224,42.9522358 29.2094751,41.9246 29.0884486,41.6330915 C28.904896,41.1909808 27.9594289,41.4737784 27.8235212,41.3572824" id="Path-58" stroke="#000000" stroke-width="0.3"></path>
                    <path d="M27.7134487,44.9467075 C27.7134487,44.9467075 28.2104576,45.748675 28.7536272,45.6272321 C29.1048019,45.5487158 29.7957154,45.0934507 30.1862445,44.3176619 C30.5731581,43.5490551 30.5279741,42.2361234 30.4069476,41.9446149 C30.223395,41.5025043 29.1707589,41.9446149 29.1707589,41.9446149" id="Path-59" stroke="#000000" stroke-width="0.3"></path>
                    <path d="M24.329956,47.6362305 C24.7168697,46.8676237 24.7536273,45.0194092 24.4738159,45.0194092 C24.0213079,45.0194092 22.7476807,47.2340698 22.7476807,47.2340698" id="Path-61" stroke="#000000" stroke-width="0.3"></path>
                    <path d="M25.7086792,47.8070068 C26.0955929,47.0384 26.0698504,45.1205444 25.7900391,45.1205444 C25.5790031,45.1205444 25.1205946,45.5802373 24.691448,46.0708495" id="Path-62" stroke="#000000" stroke-width="0.3"></path>
                    <path d="M26.9157104,48.0116577 C27.3026241,47.2430509 27.3476214,45.4259033 27.06781,45.4259033 C26.856774,45.4259033 26.3861168,45.7382696 25.9569702,46.2288818" id="Path-63" stroke="#000000" stroke-width="0.3"></path>
                    <path d="M28.4714966,47.7058716 C28.4714966,47.7058716 28.4203753,45.8868408 28.140564,45.8868408 C27.9413459,45.8868408 27.2563929,46.2020181 27.2323608,46.2294922" id="Path-65" stroke="#000000" stroke-width="0.3"></path>
                    <path d="M31.6356026,44.423828 C32.0225163,43.6552212 31.7566292,42.783696 31.6356026,42.4921875 C31.45205,42.0500768 30.5552456,42.1837332 30.5552456,42.1837332" id="Path-60" stroke="#000000" stroke-width="0.3"></path>
                    <path d="M36.0680197,20.2851563 C36.0680197,20.2851563 39.0920161,20.7277696 42.6112431,20.6693274 C44.742164,20.6339401 46.9999181,20.3112351 48.9037025,20.0530151 C50.5238942,19.8332603 51.9021563,19.6968118 52.5728605,19.4313859" id="Path-41" stroke="#000000" stroke-width="0.3"></path>
                    <path d="M18.0680197,13.2851563 C18.0680197,13.2851563 18.935931,13.9290574 19.6807065,13.6603259 C20.7417935,13.2774622 21.9097344,12.4888867 23.3716033,11.6971806 C25.0369773,10.795262 26.978661,9.88249154 27.7229956,9.44106654 C29.579314,8.34018338 35.2170523,7.09680712 35.2170523,7.09680712 L36.0684443,6.06793478 C36.0684443,6.06793478 37.9348237,5.93325893 38.7732676,5.74235727 C39.7170927,5.52746183 41.4152514,4.85054348 41.4152514,4.85054348 C41.4152514,4.85054348 46.4794656,3.38372376 48.814369,2.54364814 C49.5464946,2.28023645 50.6163383,1.54008152 50.6163383,1.54008152" id="Path-46" stroke="#000000" stroke-width="0.3"></path>
                    <path d="M21.696183,15.2032984 C22.4885099,14.7917907 23.3596309,14.2452358 24.3716033,13.6971806 C25.3333506,13.176326 26.3537707,12.6911541 27.0557067,12.1778197 C27.5692522,11.8022577 27.8397276,11.3503965 28.1542118,11.1638928 C30.0105302,10.0630096 35.607846,8.82218077 35.607846,8.82218077 L35.9544837,8.15183403 C35.9544837,8.15183403 38.9390703,7.23285142 39.7775142,7.04194977 C40.7213393,6.82705432 42.3228595,6.09391977 42.3228595,6.09391977 C42.3228595,6.09391977 46.749683,4.8981469 48.8778865,4.21229621 C49.391214,4.04686748 50.2474525,3.54008152 50.2474525,3.54008152" id="Path-47" stroke="#000000" stroke-width="0.3"></path>
                    <path d="M23.8238791,15.815557 C24.7856264,15.2947024 27.5132475,13.9273964 28.2151835,13.414062 C28.728729,13.0385 28.8366706,12.6433652 29.1511548,12.4568615 C30.2369284,11.8129473 32.6749161,11.4720189 34.4526156,10.9254418 C35.714202,10.5375504 36.607846,9.82218077 36.607846,9.82218077 C36.607846,9.82218077 40.1571405,8.54501168 40.9955844,8.35411002 C41.9394095,8.13921458 43.1851214,7.26834228 43.1851214,7.26834228 C43.1851214,7.26834228 47.749683,5.8981469 49.8778865,5.21229621" id="Path-48" stroke="#000000" stroke-width="0.3"></path>
                    <path d="M24.8238791,16.815557 C25.7856264,16.2947024 28.5132475,14.9273964 29.2151835,14.414062 C29.728729,14.0385 30.0861615,14.0757699 30.4006456,13.8892662 C30.9006056,13.5927667 31.6401099,13.5869867 32.4599184,13.2703802 C33.0519965,13.0417222 34.7621551,12.7593338 35.8462971,12.2038042 C36.5210657,11.8580433 36.8408631,11.1090352 36.8408631,11.1090352 C36.8408631,11.1090352 41.1571405,9.54501168 41.9955844,9.35411002 C42.4435315,9.25211889 43.0421199,8.49422546 43.0421199,8.49422546 C43.0421199,8.49422546 44.2738415,8.65256926 44.8386554,8.49422549 C46.401984,8.05595129 49.4265473,6.70437156 49.4265473,6.70437156" id="Path-49" stroke="#000000" stroke-width="0.3"></path>
                    <path d="M25.8238791,17.815557 C26.7856264,17.2947024 29.5132475,15.9273964 30.2151835,15.414062 C30.728729,15.0385 31.9063038,15.1747848 32.2207879,14.9882811 C32.7207479,14.6917815 35.7621551,13.7593338 36.8462971,13.2038042 C37.5210657,12.8580433 37.7009171,12.5081523 37.7009171,12.5081523 C37.7009171,12.5081523 39.2357126,12.0341946 40.5922211,11.4665421 C41.6952011,11.0049826 42.6195766,10.4397216 42.9955844,10.35411 C43.4435315,10.2521189 43.4249324,9.7768343 43.4249324,9.7768343 C43.4249324,9.7768343 45.2086235,9.39713451 45.7734374,9.23879074 C46.4665996,9.04446491 48.1562499,8.38434105 48.1562499,8.38434105" id="Path-50" stroke="#000000" stroke-width="0.3"></path>
                    <path d="M31.3953804,19.4521913 C31.9089259,19.0766293 33.8522958,17.6005657 34.1667799,17.414062 C34.6667399,17.1175625 37.8169275,15.4267931 38.9010695,14.8712635 C39.5758381,14.5255026 39.7009171,14.5081523 39.7009171,14.5081523 C39.7009171,14.5081523 41.1696468,13.9446057 42.5261554,13.3769531 C43.6291353,12.9153936 43.1531192,12.4906727 43.529127,12.4050611 C43.9770741,12.30307 46.7990836,10.9726562 46.7990836,10.9726562" id="Path-52" stroke="#000000" stroke-width="0.3"></path>
                    <path d="M29.4368206,5.60478941 C29.4368206,5.60478941 28.8505436,9.49609381 26.4682406,10.2944973 C26.4682406,10.2944973 27.4777869,10.403106 27.6379076,10.5988452 C27.8676759,10.8797251 27.6379076,11.7243546 27.6379076,11.7243546 C27.6379076,11.7243546 28.3490884,11.5934768 28.4748641,11.7243544 C28.7063687,11.9652499 28.7097486,12.8396739 28.7097486,12.8396739 C28.7097486,12.8396739 29.6718717,12.9125352 29.8474863,13.0360056 C30.1632101,13.2579836 30.1837636,13.876019 30.1837636,13.876019 C30.1837636,13.876019 30.7042537,14.1406138 30.7955163,14.3228604 C30.9081712,14.5478262 30.7955163,15.0976562 30.7955163,15.0976562 C30.7955163,15.0976562 31.7177039,14.9618977 31.8843411,15.0976559 C32.0806455,15.2575839 31.884341,15.9847147 31.884341,15.9847147 C31.884341,15.9847147 32.5799082,15.7140805 33.0650476,15.9847151 C33.5501869,16.2553498 32.9120243,16.9573714 32.9120243,16.9573714 C32.9120243,16.9573714 33.4571523,16.8643697 33.6565898,16.9573714 C33.8168671,17.0321119 33.9911685,17.4605978 33.9911685,17.4605978 C33.9911685,17.4605978 34.7141996,17.3792013 35.0352409,17.4605977 C35.3541453,17.5414522 35.9110054,17.9473505 35.9110054,17.9473505 C35.9110054,17.9473505 37.884001,17.2466881 37.2949219,18.1180367 C36.7058428,18.9893853 34.7043139,19.8170007 34.7043139,19.8170007" id="Path-53" stroke="#000000" stroke-width="0.3"></path>
                    <path d="M37.0806726,3.48250678 C37.0806726,3.48250678 36.8505436,6.49609381 34.4682406,7.29449734 C34.4682406,7.29449734 35.4777869,7.40310596 35.6379076,7.59884516 C35.8676759,7.87972505 35.6379076,8.72435462 35.6379076,8.72435462 C35.6379076,8.72435462 36.1264323,9.03471315 36.2522079,9.1655908 C36.4837126,9.40648625 36.2522079,10.0360055 36.2522079,10.0360055 C36.2522079,10.0360055 36.5369111,10.2925412 36.6569129,10.47894 C36.813066,10.7214928 36.8729621,11.1920858 36.8729621,11.1920858 C36.8729621,11.1920858 37.5873119,11.5282546 37.6948031,11.7905913 C37.7920221,12.0278584 37.6948031,12.7664738 37.6948031,12.7664738 C37.6948031,12.7664738 38.1495107,12.9161596 38.2618886,13.0557061 C38.4260618,13.25957 38.5244565,13.7967052 38.5244565,13.7967052 C38.5244565,13.7967052 38.7368897,14.1006626 38.7376021,14.2525473 C38.7387013,14.4869285 38.5298913,14.9555027 38.5298913,14.9555027 C38.5298913,14.9555027 39.4044784,15.2965346 39.4889606,15.7627373 C39.5734428,16.22894 38.7376021,17.1445313 38.7376021,17.1445313" id="Path-54" stroke="#000000" stroke-width="0.3"></path>
                    <path d="M43.6569129,2.21373979 C43.6569129,2.21373979 43.0415251,4.04619566 41.5548573,4.78507141 C41.5548573,4.78507141 42.0925118,5.06606458 42.2526325,5.26180378 C42.4824008,5.54268367 42.1173573,6.16907278 42.1173573,6.16907278 C42.1173573,6.16907278 42.5615658,6.30078116 42.7629076,6.72647754 C42.9642493,7.15217391 42.4603431,7.81530229 42.4603431,7.81530229 L42.9872622,8.43911353 C42.9872622,8.43911353 43.531335,8.99040452 43.531335,9.31411353 C43.531335,9.63782254 43.1738281,10.2633318 43.1738281,10.2633318 L43.6569129,11.1598162 L43.4102412,12.5563006 C43.4102412,12.5563006 43.9032844,13.0210069 43.9465013,13.2899965 C43.9855083,13.5327826 43.531335,14.2494902 43.531335,14.2494902" id="Path-55" stroke="#000000" stroke-width="0.3"></path>
                    <path d="M28.7557744,17.9605978 C29.7175217,17.4397431 31.2162023,16.4756306 31.9181384,15.9622963 M29.7557744,18.9605978 C30.7175217,18.4397431 32.2162023,17.4756306 32.9181384,16.9622963 M32.7557744,19.9605978 C32.9178657,19.8728138 33.7348244,19.6190391 34.6671196,19.006284 C35.8091705,18.2556661 37.1954568,17.0642202 38.6411346,16.1868208 C40.8867716,14.8239164 42.9414061,13.8038383 42.9414061,13.8038383 C42.9414061,13.8038383 45.7755289,12.2161622 45.9891309,12.0599525 M33.0168138,16.9358867 C33.6915824,16.5901257 38.7117871,13.7092393 38.7117871,13.7092393 C38.7117871,13.7092393 39.2966848,13.3427884 40.6531934,12.7751358 C41.7561733,12.3135763 42.6491272,11.8281389 43.0251349,11.7425273 C43.473082,11.6405362 43.6919154,11.1326427 43.6919154,11.1326427 C43.6919154,11.1326427 45.2086235,10.3971345 45.7734374,10.2387907 C46.4665996,10.0444649 47.270805,9.53693953 47.270805,9.53693953" id="Path-51" stroke="#000000" stroke-width="0.3"></path>
                    <path d="M38.2549253,21.669837 C38.2549253,21.669837 39.0608939,21.6798606 41.0188518,21.669837 C41.6220283,21.6667491 43.1747621,21.669837 43.1747621,21.669837 C43.1747621,21.669837 52.5874476,21.3184411 53.2581518,21.0530151" id="Path-42" stroke="#000000" stroke-width="0.3"></path>
                    <path d="M39.7338655,23.0842588 L42.101053,23.0842588 C42.101053,23.0842588 52.8235209,22.7596515 53.4942251,22.4942255" id="Path-43" stroke="#000000" stroke-width="0.3"></path>
                    <path id="Path-44" stroke="#000000" stroke-width="0.3"></path>
                    <path d="M38.3038383,23.9947351 C38.3038383,23.9947351 39.8235504,24.5932999 42.169837,24.80214 C44.5769121,25.0163908 48.476319,25.4341705 50.5298915,25.7513587 C51.9486648,25.9704979 52.0970563,26.3792006 52.2708903,26.3104071" id="Path-45" stroke="#000000" stroke-width="0.3"></path>
                    <path d="M16.2848166,14.6669497 C16.2848166,14.6669497 18.0811094,17.0200845 18.959324,18.400136 C19.247776,18.8534178 20.225034,19.6697521 20.225034,19.6697521 C20.225034,19.6697521 24.0123984,20.2953461 24.0123981,21.2078804 C24.0123978,22.1204147 23.3855298,22.2088999 23.3855299,22.5961277 C23.38553,22.9833555 24.1137908,23.7229101 25.0575751,23.9022584 C25.2061252,23.9304875 26.2290489,24.0481304 27.0117186,23.9022584 C27.6145106,23.7899115 28.0704823,23.5098505 28.0704823,23.5098505" id="Line" stroke="#000000" stroke-width="0.3"></path>
                </g>
            </g>
        </g>
    </g>
</svg>