<?xml version="1.0" encoding="UTF-8" standalone="no"?>
<svg width="180px" height="180px" viewBox="0 0 180 180" version="1.1" xmlns="http://www.w3.org/2000/svg" xmlns:xlink="http://www.w3.org/1999/xlink">
    <!-- Generator: Sketch 3.8.3 (29802) - http://www.bohemiancoding.com/sketch -->
    <title>angola</title>
    <desc>Created with Sketch.</desc>
    <defs></defs>
    <g id="Page-1" stroke="none" stroke-width="1" fill="none" fill-rule="evenodd">
        <g id="flags" transform="translate(-1800.000000, -180.000000)">
            <g id="angola" transform="translate(1800.000000, 180.000000)">
                <path d="M180,90 C180,40.2943725 139.705627,0 90,0 C40.2943725,0 0,40.2943725 0,90 L180,90 Z" id="Oval-180" fill="#E94B35"></path>
                <path d="M180,180 C180,130.294373 139.705627,90 90,90 C40.2943725,90 0,130.294373 0,180 L180,180 Z" id="Oval-180" fill="#000000" transform="translate(90.000000, 135.000000) scale(1, -1) translate(-90.000000, -135.000000) "></path>
                <path d="M108.714636,123.380375 L109.683094,122.242174 C98.0208184,113.907463 70.4209339,94.7387192 70.0778875,87.7552307 C64.6286548,98.3927009 71.5368043,104.750617 75.9852401,107.279938 C87.3092663,113.718625 94.8230187,117.961739 106.639099,125.819691 L108.417893,123.729127 C106.388156,122.298929 92.6753046,112.623715 85.7229579,107.384746 C82.9729757,105.312486 77.862258,100.691316 77.862258,100.691316 L78.1353915,100.328856 C78.1353915,100.328856 83.3231719,104.80641 86.0930285,106.893646 C93.0531468,112.138471 106.775597,121.989649 108.714636,123.380375 L108.714636,123.380375 L108.714636,123.380375 L108.714636,123.380375 L108.714636,123.380375 L108.714636,123.380375 Z M106.440223,117.822426 C107.414385,116.880286 108.334214,115.882431 109.194965,114.83361 L107.093889,113.109304 C108.447422,111.461185 109.642942,109.678436 110.657219,107.784286 L113.050433,109.063493 C114.143515,107.018489 115.033011,104.871032 115.706128,102.652081 L113.110801,101.864798 L113.110801,101.864799 C113.722395,99.8450909 114.143595,97.7429167 114.353485,95.57919 L114.353485,95.57919 L117.059983,95.8457576 C117.287275,93.5381198 117.287275,91.2137396 117.059983,88.9061019 L114.349974,89.1730115 C114.136921,87.0083756 113.711058,84.9080247 113.093663,82.8922599 L113.093663,82.8922599 L115.706128,82.099778 C115.033011,79.8808224 114.143515,77.7333663 113.050433,75.6883667 L110.617847,76.9886098 C109.596003,75.1035834 108.39232,73.3314339 107.030385,71.6946697 L109.194965,69.9182444 C107.723926,68.1257846 106.080342,66.4822002 104.287879,65.011162 L102.485872,67.2069154 L102.485879,67.2069207 C100.837813,65.8697482 99.0562891,64.6891351 97.1645908,63.6872979 L97.1645908,63.6872979 L98.5177607,61.1556939 C96.4727565,60.0626214 94.3253139,59.1731167 92.1063493,58.5 L91.2673535,61.2658002 C89.3255491,60.6817632 87.308206,60.2715638 85.2340948,60.0531123 C85.2340948,60.0531123 101.648436,61.7819188 85.2340948,60.0531123 L84.5873596,66.1120007 C97.9296128,67.5113126 108.38041,78.679025 108.38041,92.3898765 C108.380416,100.509447 104.729516,107.781501 98.9808462,112.6529 L106.440222,117.822425 L106.440223,117.822426 L106.440223,117.822426 L106.440223,117.822426 L106.440223,117.822426 L106.440223,117.822426 Z M95.3423026,125.095962 C94.2836374,125.53315 93.2037398,125.918962 92.1063493,126.251847 L91.3217466,123.665421 C89.3016734,124.278306 87.19901,124.7007 85.0346958,124.911663 L85.3000391,127.605715 C82.9923969,127.832995 80.6680075,127.832995 78.3603698,127.605715 L78.6263186,124.905495 C76.4625213,124.686216 74.3658448,124.247945 72.3533711,123.616858 L72.3533711,123.616858 L71.5540551,126.251847 C69.335104,125.578743 67.1876479,124.689234 65.1426483,123.596152 L66.4718744,121.109348 C64.6024561,120.086356 62.8399466,118.888654 61.2027732,117.544475 L65.0831849,112.813096 C69.6663187,116.578366 75.4402715,118.940053 81.8302248,118.940062 C84.8579791,118.940062 87.7678839,118.4324 90.479407,117.497609 L93.9062068,119.523894 L95.3423026,125.095962 L95.3423026,125.095962 L95.3423026,125.095962 L95.3423026,125.095962 L95.3423026,125.095962 Z M70.1773894,76.3350385 L79.0801476,76.3350385 L81.8302157,67.8680926 L84.5802795,76.3350385 L93.4830376,76.3350385 L86.2815926,81.5671496 L89.0316608,90.0340944 L81.8302157,84.8019787 L74.6287707,90.0340944 L77.3788344,81.5671496 L70.1773894,76.3350385 L70.1773894,76.3350385 L70.1773894,76.3350385 L70.1773894,76.3350385 L70.1773894,76.3350385 Z M107.058188,126.353772 L110.367676,122.472643 C112.109663,124.15838 114.455315,125.820136 116.156574,127.329993 C117.857832,128.839841 119.161302,130.095034 120.216383,131.810248 C121.762721,134.32407 120.026288,137.171098 117.61845,135.499988 C116.316334,134.596279 115.498161,132.156671 113.503406,130.137864 C112.025964,128.88012 110.861894,127.561588 107.148441,126.925405 C106.970155,126.894865 106.918003,126.518174 107.058188,126.353772 C107.058188,126.353772 106.918003,126.518174 107.058188,126.353772 C107.058188,126.353772 106.918003,126.518174 107.058188,126.353772 L107.058188,126.353772 L107.058188,126.353772 L107.058188,126.353772 Z M115.107645,128.518443 C114.966154,128.600231 114.791749,128.600231 114.650252,128.518443 C114.50876,128.436654 114.421712,128.285527 114.421957,128.122101 C114.421712,127.958669 114.50876,127.807542 114.650252,127.725754 C114.791749,127.64397 114.966154,127.64397 115.107645,127.725754 C115.249142,127.807542 115.336191,127.958669 115.335946,128.122101 C115.336191,128.285527 115.249142,128.436654 115.107645,128.518443 C115.107645,128.518443 115.249142,128.436654 115.107645,128.518443 L115.107645,128.518443 L115.107645,128.518443 L115.107645,128.518443 Z M111.968579,125.187693 C111.968825,125.351119 111.881776,125.502247 111.740279,125.584035 C111.598787,125.665823 111.424382,125.665823 111.282885,125.584035 C111.141394,125.502247 111.054345,125.351119 111.05459,125.187693 C111.054345,125.024261 111.141394,124.873134 111.282885,124.791346 C111.424382,124.709562 111.598787,124.709562 111.740279,124.791346 C111.881776,124.873134 111.968825,125.024261 111.968579,125.187693 C111.968579,125.187693 111.968825,125.024261 111.968579,125.187693 L111.968579,125.187693 L111.968579,125.187693 L111.968579,125.187693 Z M118.294385,131.128724 C118.294631,131.292151 118.207582,131.443278 118.066086,131.525066 C117.924594,131.606854 117.750188,131.606854 117.608692,131.525066 C117.4672,131.443278 117.380151,131.292151 117.380397,131.128724 C117.380151,130.965293 117.4672,130.814165 117.608692,130.732377 C117.750188,130.650594 117.924594,130.650594 118.066086,130.732377 C118.207582,130.814165 118.294631,130.965293 118.294385,131.128724 C118.294385,131.128724 118.294631,130.965293 118.294385,131.128724 L118.294385,131.128724 L118.294385,131.128724 L118.294385,131.128724 Z" id="emblem" fill="#F2C500"></path>
            </g>
        </g>
    </g>
</svg>