<?xml version="1.0" encoding="UTF-8" standalone="no"?>
<svg width="180px" height="180px" viewBox="0 0 180 180" version="1.1" xmlns="http://www.w3.org/2000/svg" xmlns:xlink="http://www.w3.org/1999/xlink">
    <!-- Generator: Sketch 3.8.3 (29802) - http://www.bohemiancoding.com/sketch -->
    <title>anguilla</title>
    <desc>Created with Sketch.</desc>
    <defs></defs>
    <g id="Page-1" stroke="none" stroke-width="1" fill="none" fill-rule="evenodd">
        <g id="flags" transform="translate(-2070.000000, -180.000000)">
            <g id="anguilla" transform="translate(2070.000000, 180.000000)">
                <circle id="blue" fill="#227FBB" cx="90" cy="90" r="90"></circle>
                <g id="UK-corner">
                    <path d="M58.6665316,5.60442783 L41.3956444,14.2398718 C16.4947453,30.2482972 0,58.1978704 0,90 L18,90 L18,64.0623044 L69.8753928,90 L90,90 L90,79.937694 L47.124612,58.5 L90,58.5 L90,31.5 L47.1246106,31.5 L90,10.062306 L90,0 C78.9808284,0 68.424181,1.98030051 58.6665316,5.60442783 L58.6665316,5.60442783 Z" id="white" fill="#FFFFFF"></path>
                    <path d="M17.9934072,35.9999997 L90,36 L90,54 L12,53.9999997 L12,89.9999997 L0,89.9999998 C4.3896494e-08,69.7390927 6.69500614,51.041889 17.9934072,35.9999997 L17.9934072,35.9999997 L17.9934072,35.9999997 Z M75.9120161,1.09619155 L24.8567236,27.9002201 C23.7407294,29.0705605 22.6559518,30.2709324 21.6037269,31.5 L30,31.5 L90,0 L89.9925529,0 C85.2024043,0.000387862029 80.4996778,0.374999182 75.9120161,1.09619155 L75.9120161,1.09619155 L75.9120161,1.09619155 Z M28,58.5 L40,58.5 L90,84 L90,90 L28,58.5 L28,58.5 Z" id="red" fill="#E94B35"></path>
                </g>
                <g id="emblem" transform="translate(106.408840, 77.000000)">
                    <path d="M0.122691823,1.06786755 C0.122691823,32.6073642 2.62139602,43.8069404 11.1936611,52.4541457 C19.7659262,61.1013934 23.013724,62.4634278 25.4038365,63.7882278 C28.1610353,62.2599672 31.3378906,60.5810013 39.1072714,52.7573192 C46.7913992,45.0190411 50.5079303,33.864604 50.5079303,0.529080795 C44.9186127,2.93887152 42.1350236,3.7327894 37.2471329,3.71876026 C33.6269876,4.07594808 28.0421105,1.73986967 24.7025569,0.21181457 C22.5199894,1.61101139 19.3539511,3.27963974 13.6642072,3.46699868 C7.09289214,3.74451285 5.01072983,2.67542887 0.122839137,1.06769801 L0.122691823,1.06786755 L0.122691823,1.06786755 Z" id="shield" fill="#CCCC33"></path>
                    <path d="M1.63624172,3.05970861 C1.63624172,12.8172503 1.06343295,26.1153907 3.11073016,33.8093775 C5.16681993,41.5364662 5.6388341,42.6683762 7.18494047,45.3650225 L43.2150883,45.0956609 C45.440798,41.2136795 45.5531357,38.809102 47.2036459,32.6061669 C48.8482635,26.4255258 49.2636479,12.6481272 49.3116513,2.38629934 C45.6885597,4.2351894 40.9439217,5.54550464 36.3388114,4.97062781 C32.6470503,4.70034437 29.2358809,3.89140556 25.263549,1.73593642 C21.8176555,3.71794649 20.61637,4.6226543 14.9266261,4.85409272 C10.4965253,5.06384106 6.90813677,5.40827126 1.63630275,3.05957298 L1.63624172,3.05970861 L1.63624172,3.05970861 Z" id="white" fill="#FFFFFF"></path>
                    <path d="M7.26259829,45.1509404 C9.82689948,50.3319099 21.9166949,60.2615523 25.452345,62.3171179 C29.4862332,59.971857 40.1517092,50.1596609 43.1243237,45.1509404 L7.26253516,45.1509404 L7.26259829,45.1509404 L7.26259829,45.1509404 Z" id="blue" fill="#99CCFF"></path>
                    <path d="M26.1421971,17.5059073 C27.2814738,20.0785377 30.934102,22.9193748 31.9382598,24.3116291 C30.660173,25.7038072 30.4047046,25.5521844 30.5723105,28.1386384 C32.7947371,25.9062675 32.8346172,25.6735364 34.2640717,26.0121007 C37.395428,29.0119417 34.8244808,35.4546649 32.2365588,36.8553536 C29.6493818,38.3496074 30.1189779,36.803609 26.2411587,38.6763846 C28.0191084,40.1359046 30.0791188,38.4623131 31.7625433,38.9095968 C32.6773592,39.9516037 31.3276544,41.8506087 32.0386861,43.6390273 C33.5264623,43.5015121 33.3477826,40.6179094 33.6940682,39.5723571 C34.780922,35.7417452 41.3153349,33.0700842 41.6475919,29.5563359 C43.0253537,28.9353833 44.4023706,29.3621107 46.0776927,30.2651825 C45.2433567,26.9732938 42.4833905,27.0087269 41.7435777,25.9806156 C39.9826092,23.397156 38.421744,20.4498925 34.6605767,19.6853256 C31.8053717,19.1049219 32.0187671,19.8599163 30.1891227,18.6617494 C29.049846,17.8101404 25.5884529,16.1996355 26.1422287,17.5059009 L26.1421971,17.5059073 L26.1421971,17.5059073 Z M33.7598571,21.0030115 C34.0885278,21.0030115 34.3549681,20.7472176 34.3549681,20.4316798 C34.3549681,20.116142 34.0885278,19.8603481 33.7598571,19.8603481 C33.4311864,19.8603481 33.1647461,20.116142 33.1647461,20.4316798 C33.1647461,20.7472176 33.4311864,21.0030115 33.7598571,21.0030115 L33.7598571,21.0030115 Z M17.0124944,28.4198146 C18.8495783,26.2509351 19.7595707,21.8233219 20.5726828,20.320551 C22.4519007,20.755075 22.431605,21.0427592 24.7353449,19.692213 C21.641175,18.8485913 21.4082289,18.9234607 21.0522332,17.5519428 C22.3521667,13.4925415 29.4867383,12.6650766 31.9856951,14.2074766 C34.5704729,15.7055301 32.9272864,16.0291454 36.4636099,18.4459083 C36.9771983,16.2548832 34.4735317,15.2881017 34.0990249,13.6501891 C34.631318,12.3868758 37.0107565,12.6454273 38.3256845,11.2064064 C37.5040092,10.0077626 34.9317719,11.5065261 33.8070899,11.7010204 C29.7714759,12.5679555 24.2583831,8.26937007 20.8671011,9.62881695 C19.6515934,8.74939762 19.4013084,7.38118781 19.4503725,5.5372249 C16.8084156,7.78326464 18.1303832,10.1094739 17.5291386,11.2177547 C15.9724929,13.9194236 13.9873434,16.6211772 15.0402623,20.1709732 C15.8395543,22.8657123 16.4351989,22.3318845 16.1864502,24.4446898 C15.9343637,25.8095873 16.0681546,29.5001176 17.0124902,28.4198315 L17.0124944,28.4198146 L17.0124944,28.4198146 Z M16.667219,20.2993724 C16.5136782,20.0223208 16.1568792,19.9264821 15.8702862,20.0853108 C15.5836931,20.2441394 15.475833,20.5974902 15.6293738,20.8745418 C15.7829146,21.1515934 16.1397136,21.2474321 16.4263067,21.0886034 C16.7128997,20.9297748 16.8207598,20.576424 16.667219,20.2993724 L16.667219,20.2993724 Z M31.9383861,29.9447947 C29.0546653,29.5573298 24.637002,31.0999883 22.8767637,31.2092673 C22.2920288,29.4404895 22.5589814,29.3083507 20.1633593,28.1141679 C21.0118838,31.0927958 21.1991267,31.2454633 20.1606446,32.2474236 C15.8695033,33.2792307 11.4412966,27.8453256 11.5235822,24.9942951 C11.5218986,22.0956673 12.6604177,23.278347 12.9855405,19.1226766 C10.7667125,19.8340747 11.1999914,22.3912328 9.93360769,23.5461997 C8.53209668,23.762346 7.53173112,21.6735958 5.56874613,21.3376064 C4.92526645,22.6327481 7.59188799,23.9708673 8.347053,24.7943269 C11.207414,27.6616117 10.2273252,34.4148832 13.1934431,36.4980196 C13.038258,37.9516143 11.9480412,38.8650024 10.2788915,39.7785494 C13.6477396,40.7874034 15.0375665,38.497937 16.3365635,38.4186363 C19.5501633,38.3000879 22.9854922,38.5335608 25.6052468,35.832231 C27.5939907,33.7815693 26.8099984,33.5683264 28.8221085,32.679786 C30.1692289,32.1808678 33.3898851,30.1618946 31.9383966,29.9448244 L31.9383861,29.9447947 L31.9383861,29.9447947 Z M24.9019145,34.391064 C24.7326372,34.6596543 24.819636,35.0187061 25.0962316,35.1930287 C25.3728273,35.3673513 25.7342787,35.2909322 25.903556,35.0223419 C26.0728332,34.7537516 25.9858345,34.3946997 25.7092388,34.2203771 C25.4326431,34.0460546 25.0711917,34.1224737 24.9019145,34.391064 L24.9019145,34.391064 Z" id="dolphins" fill="#F09B2C"></path>
                </g>
            </g>
        </g>
    </g>
</svg>