<?xml version="1.0" encoding="UTF-8" standalone="no"?>
<svg width="180px" height="180px" viewBox="0 0 180 180" version="1.1" xmlns="http://www.w3.org/2000/svg" xmlns:xlink="http://www.w3.org/1999/xlink">
    <!-- Generator: Sketch 3.8.3 (29802) - http://www.bohemiancoding.com/sketch -->
    <title>antigua_and_barbuda</title>
    <desc>Created with Sketch.</desc>
    <defs></defs>
    <g id="Page-1" stroke="none" stroke-width="1" fill="none" fill-rule="evenodd">
        <g id="flags" transform="translate(-2340.000000, -180.000000)">
            <g id="antigua_and_barbuda" transform="translate(2340.000000, 180.000000)">
                <path d="M162.002641,35.9947389 C145.582685,14.1376902 119.442361,0 90,0 C60.5576394,0 34.4173152,14.1376902 17.9973592,35.9947389 L90,180 L162.002635,35.9947307 L162.002641,35.9947389 Z" id="black" fill="#000000"></path>
                <polygon id="sun" fill="#F2C500" points="91 28 96.5407002 48.5005908 110.507516 32.5036649 106.588064 52.9031171 125.582996 44.4952426 113.13792 61.7026151 134.359468 62.4896781 115.630693 72.5 134.359468 82.5103219 113.13792 83.2973849 125.582996 100.504757 106.588064 92.0968829 110.507516 112.496335 96.5407002 96.4994092 91 117 85.4592999 96.4994092 71.492484 112.496335 75.4119355 92.0968829 56.4170048 100.504757 68.8620804 83.2973849 47.6405321 82.5103219 66.3693077 72.5 47.6405321 62.4896781 68.8620804 61.7026151 56.4170048 44.4952426 75.4119355 52.9031171 71.492484 32.5036649 85.4592999 48.5005908 91 28"></polygon>
                <polygon id="blue" fill="#2C97DE" points="9 82 90 180 173 82 9 82"></polygon>
                <polygon id="white" fill="#FFFFFF" points="31.2734375 113 90 180 145.767578 113 31.2734375 113"></polygon>
                <path d="M162.002641,35.9947389 C173.303433,51.0375294 180,69.7367307 180,90 C180,139.70563 139.70563,180 90,180 C40.2943701,180 0,139.70563 0,90 C0,69.7367307 6.69656732,51.0375294 17.9973592,35.9947389 L90,180 L162.002635,35.9947307 L162.002641,35.9947389 L162.002641,35.9947389 Z" id="red" fill="#E94B35"></path>
            </g>
        </g>
    </g>
</svg>