<?xml version="1.0" encoding="UTF-8" standalone="no"?>
<svg width="180px" height="180px" viewBox="0 0 180 180" version="1.1" xmlns="http://www.w3.org/2000/svg" xmlns:xlink="http://www.w3.org/1999/xlink">
    <!-- Generator: Sketch 3.8.3 (29802) - http://www.bohemiancoding.com/sketch -->
    <title>argentina</title>
    <desc>Created with Sketch.</desc>
    <defs></defs>
    <g id="Page-1" stroke="none" stroke-width="1" fill="none" fill-rule="evenodd">
        <g id="flags" transform="translate(-2610.000000, -180.000000)">
            <g id="argentina" transform="translate(2610.000000, 180.000000)">
                <path d="M174.873463,120.000001 C162.51875,154.955773 129.182603,180 89.9972382,180 C50.8118738,180 17.475726,154.955772 5.12101363,120 L174.873467,120 L174.873467,120 L174.873463,120.000001 L174.873463,120.000001 L174.873463,120.000001 Z M174.873463,59.9999995 C162.51875,25.0442275 129.182603,0 89.9972382,0 C50.8118738,0 17.475726,25.0442275 5.12101363,59.9999996 L174.873467,60 L174.873467,60 L174.873463,59.9999995 L174.873463,59.9999995 L174.873463,59.9999995 Z" id="blue" fill="#2C97DE"></path>
                <path d="M174.880131,119.996318 C178.18791,110.636446 179.991355,100.566011 179.999969,90.07551 L179.999969,89.92449 C179.991354,79.4319256 178.1872,69.359592 174.878178,59.9981583 L5.1218178,59.9981587 C1.9105976,69.0829152 0.116604104,78.8371719 0.00549254921,88.9952769 L0.00549283143,91.0047489 C0.116581589,101.160769 1.90987047,110.913131 5.11986928,119.996318 L174.880135,119.996317 L174.880135,119.996317 L174.880131,119.996318 L174.880131,119.996318 L174.880131,119.996318 Z" id="white" fill="#FFFFFF"></path>
                <g id="sun" transform="translate(66.000000, 66.000000)">
                    <path d="M29.3306201,31.0854748 C34.1982556,35.6151751 40.8839586,41.8363227 40.9878412,41.9307963 C41.1514536,42.0795895 41.2898867,42.2339072 41.484328,42.0325672 C41.6786699,41.8311602 41.3760975,41.5283093 41.3760975,41.5283093 L33.5415826,32.5051412 L33.5415826,32.5051412 C34.6757354,32.9032324 35.7420778,33.3714401 36.5505519,34.4004756 C38.4347716,36.7975858 41.2116584,36.4410233 42.4073321,36.9100853 C43.6034462,37.3789102 43.3445503,38.6333424 43.7889338,38.4258557 C44.2338543,38.2179846 44.2899224,36.8465517 42.8738197,35.8957705 C41.4577,34.9450063 39.9091361,35.7909134 37.5761946,32.8951409 C35.4172814,30.2157918 33.2737403,30.9553801 31.4053292,28.8621166 C31.4147887,28.8471733 31.4242011,28.8321971 31.4335661,28.8171884 C37.6443537,31.1938881 46.1817112,34.4605886 46.3134821,34.5092909 C46.5209198,34.5859593 46.7070812,34.6771823 46.8119407,34.4176641 C46.916683,34.158121 46.5226928,33.9906682 46.5226928,33.9906682 L35.5455811,28.3895092 C36.8874686,28.2889952 38.1837997,28.2286416 39.4576113,28.930218 C42.1286704,30.4005463 44.545488,28.9873127 45.8293885,28.9518996 C47.1136018,28.9160962 47.3654327,30.1719659 47.6934183,29.8073389 C48.0217482,29.4421481 47.5374975,28.1578301 45.8624683,27.8359467 C44.1874301,27.5140856 43.0924917,28.8978193 39.8135393,27.1437995 C36.7791395,25.520891 35.0949572,27.039548 32.5568862,25.8422882 C32.5597565,25.8249301 32.5625721,25.8075536 32.5653328,25.7901587 C39.2110856,25.5511728 48.3466247,25.2223588 48.4869535,25.2157023 C48.7078576,25.2052236 48.9148637,25.2164557 48.9099855,24.9365961 C48.9049899,24.6567593 48.4768909,24.6565624 48.4768909,24.6565624 L36.556709,23.8160576 L36.556709,23.8160576 C37.6401691,23.2955835 38.7252598,22.8726384 40.0245753,23.0285989 C43.0519327,23.3912671 44.7633604,21.175584 45.9405063,20.6617919 C47.117796,20.1475207 47.8217464,21.2176054 47.9892578,20.7566635 C48.1568771,20.2950701 47.2267737,19.2856745 45.553134,19.6147066 C43.8794943,19.9437624 43.3826409,21.6369091 39.6853819,21.2389275 C36.2678096,20.8713107 35.2735589,22.9053212 32.4789695,22.7511036 C32.4748987,22.7324455 32.4707641,22.7138112 32.466566,22.695201 C38.5381456,19.9843997 46.8773973,16.2608206 47.0049535,16.2021087 C47.2058468,16.1096409 47.4019872,16.0425093 47.2926269,15.7848554 C47.1831663,15.5272666 46.7861662,15.6874528 46.7861662,15.6874528 L35.0635585,19.4888254 C35.9413421,18.4688936 36.8153102,17.5095725 38.2121206,17.1049412 C41.1405235,16.2558963 41.8501646,13.5476412 42.7329785,12.6147456 C43.6157377,11.6813527 44.6818428,12.3913154 44.6559336,11.9015643 C44.6298689,11.4111712 43.379302,10.845438 41.9672716,11.8022567 C40.5552506,12.7590974 40.7594597,14.5117832 37.2006109,15.5900735 C33.91773,16.5850168 33.7911184,18.8386979 31.1738636,19.7920311 C31.1613266,19.7742914 31.1487205,19.7566039 31.136046,19.7389689 C35.6648026,14.8723468 41.8758739,8.19747063 41.9702703,8.09367283 C42.1190635,7.93006049 42.2733813,7.79162738 42.0720412,7.5971861 C41.8706343,7.4028441 41.5677833,7.70541656 41.5677833,7.70541656 L32.5446153,15.5399314 C32.9427065,14.4057785 33.4109142,13.3394362 34.4399497,12.5309622 C36.8370598,10.6467424 36.4804973,7.86985568 36.9495594,6.67418203 C37.4183842,5.47806788 38.6728165,5.7369638 38.4653298,5.29258028 C38.2574587,4.8476597 36.8860258,4.79159172 35.9352445,6.20769442 C34.9844803,7.62381405 35.8303874,9.17237792 32.934615,11.5053195 C30.270953,13.6515927 30.9863111,15.7826731 28.9380677,17.6433391 C28.9168241,17.6295606 28.8955125,17.6158782 28.8741335,17.6022925 C31.2493372,11.3954103 34.5001819,2.89948028 34.5487649,2.76803197 C34.6254334,2.56059431 34.7166563,2.37443294 34.4571381,2.2695734 C34.197595,2.16483103 34.0301422,2.55882127 34.0301422,2.55882127 L28.4289832,13.535933 C28.3284693,12.1940455 28.2681156,10.8977144 28.9696921,9.62390273 C30.4400203,6.95284375 29.0267867,4.53602608 28.9913737,3.25212557 C28.9555702,1.96791221 30.2114399,1.71608144 29.8468129,1.38809574 C29.4816222,1.05976593 28.1973041,1.54401659 27.8754207,3.21904581 C27.5535596,4.89408401 28.9372933,5.98902232 27.1832736,9.26797476 C25.5751904,12.2746551 27.0515381,13.9556739 25.913898,16.4552836 C25.8849555,16.4502319 25.8559607,16.4453327 25.8269143,16.4405867 C25.5881615,9.80137792 25.2618076,0.734358047 25.2551763,0.594560594 C25.2446976,0.373656466 25.2559297,0.166650398 24.9760701,0.171528504 C24.6962333,0.17652423 24.6960365,0.604623166 24.6960365,0.604623166 L23.8555317,12.5248053 L23.8555317,12.5248053 C23.3350575,11.441345 22.9121124,10.3562543 23.0680729,9.05693874 C23.4307412,6.02958134 21.215058,4.31815363 20.7012659,3.14100777 C20.1869948,1.96371809 21.2570794,1.25976761 20.7961376,1.09225622 C20.3345442,0.92463698 19.3251485,1.85474041 19.6541806,3.52838008 C19.9832365,5.20201975 21.6763832,5.6988731 21.2784016,9.39613221 C20.9148001,12.7763759 22.9006487,13.7859466 22.7948538,16.5116114 C22.7624978,16.5184842 22.7302127,16.5255485 22.6979996,16.5328032 C19.9904189,10.4684436 16.3000304,2.20354245 16.2415827,2.0765606 C16.149115,1.87566723 16.0819834,1.67952693 15.8243294,1.78888709 C15.5667407,1.89834776 15.7269268,2.29534792 15.7269268,2.29534792 L19.5282994,14.0179555 C18.5083676,13.1401719 17.5490466,12.2662038 17.1444153,10.8693936 C16.2953704,7.94099058 13.5871152,7.23134946 12.6542196,6.34853551 C11.7208267,5.4657764 12.4307894,4.3996712 11.9410383,4.42558049 C11.4506453,4.4516451 10.8849122,5.70221207 11.8417308,7.11424248 C12.7985714,8.52626352 14.5512573,8.32205434 15.6295475,11.8809031 C16.6134072,15.1272127 18.8281159,15.2871831 19.7991641,17.821101 C19.7699235,17.8417193 19.7408244,17.8625247 19.7118685,17.8835156 C14.8511851,13.3602891 8.23647215,7.20521047 8.13314687,7.11124378 C7.96953454,6.96245051 7.83110143,6.80813282 7.63666014,7.0094728 C7.44231813,7.21087983 7.7448906,7.51373068 7.7448906,7.51373068 L15.5794055,16.5368988 L15.5794055,16.5368988 C14.4452526,16.1388076 13.3789103,15.6706 12.5704362,14.6415644 C10.6862164,12.2444542 7.90932972,12.6010167 6.71365607,12.1319547 C5.51754193,11.6631299 5.77643785,10.4086976 5.33205432,10.6161843 C4.88713374,10.8240554 4.83106576,12.1954883 6.24716846,13.1462695 C7.66328809,14.0970337 9.21185196,13.2511266 11.5447935,16.1468992 C13.6702677,18.7847482 15.7808422,18.1087504 17.6286434,20.0846724 C17.608412,20.1160926 17.5883902,20.1476604 17.56858,20.1793741 C11.3683243,17.8067087 2.93843842,14.5811415 2.807506,14.5327491 C2.60006834,14.4560807 2.41390698,14.3648578 2.30904744,14.6243759 C2.20430508,14.8839191 2.59829531,15.0513718 2.59829531,15.0513718 L13.575407,20.6525308 C12.2335195,20.7530448 10.9371884,20.8133984 9.66337678,20.111822 C6.99231778,18.6414938 4.57550013,20.0547273 3.29159961,20.0901405 C2.00738625,20.1259439 1.75555548,18.8700742 1.42756978,19.2347012 C1.09923997,19.5998919 1.58349064,20.88421 3.25851986,21.2060933 C4.93355806,21.5279544 6.02849637,20.1442207 9.3074488,21.8982405 C12.2942036,23.4956667 13.9728091,22.0494084 16.4451692,23.145341 C16.4389978,23.1823083 16.4330747,23.2193597 16.4274017,23.2564934 C9.79301685,23.4950743 0.773462842,23.8197239 0.634034636,23.8263378 C0.413130507,23.8368164 0.206124439,23.8255843 0.211002547,24.1054439 C0.215998272,24.3852808 0.644097208,24.3854777 0.644097208,24.3854777 L12.5642791,25.2259824 C11.480819,25.7464566 10.3957283,26.1694016 9.09641279,26.0134411 C6.06905537,25.6507729 4.35762767,27.866456 3.18048181,28.3802481 C2.00319213,28.8945193 1.29924164,27.8244346 1.13173027,28.2853765 C0.964111022,28.74697 1.89421446,29.7563655 3.56785412,29.4273335 C5.24149379,29.0982776 5.73834714,27.4051309 9.43560625,27.8031125 C12.8067809,28.1657385 13.8199863,26.1915043 16.5291842,26.2858538 C16.5370861,26.3212775 16.5452181,26.3566145 16.5535786,26.391863 C10.4909434,29.0986745 2.24288603,32.7815438 2.11603464,32.8399313 C1.91514127,32.9323991 1.71900097,32.9995308 1.82836113,33.2571846 C1.9378218,33.5147734 2.33482197,33.3545873 2.33482197,33.3545873 L14.0574296,29.5532146 C13.179646,30.5731464 12.3056779,31.5324675 10.9088676,31.9370989 C7.98046462,32.7861437 7.27082349,35.494399 6.38800955,36.4272945 C5.50525045,37.3606873 4.43914524,36.6507246 4.46505452,37.1404757 C4.49111913,37.6308688 5.74168611,38.196602 7.15371651,37.2397833 C8.56573756,36.2829426 8.36152837,34.5302568 11.9203771,33.4519665 C15.1729524,32.466208 15.3272631,30.2448445 17.8752735,29.2767414 C17.8947981,29.3037721 17.914484,29.3306785 17.9343299,29.3574593 C13.4100581,34.2192652 7.24476306,40.8449556 7.15071783,40.9483672 C7.00192455,41.1119795 6.84760687,41.2504127 7.04894685,41.4448539 C7.25035386,41.6391959 7.55320472,41.3366235 7.55320472,41.3366235 L16.5763728,33.5021086 L16.5763728,33.5021086 C16.1782816,34.6362615 15.7100739,35.7026038 14.6810384,36.5110779 C12.2839283,38.3952976 12.6404908,41.1721843 12.1714287,42.3678579 C11.7026039,43.5639722 10.4481716,43.3050763 10.6556583,43.7494597 C10.8635294,44.1943803 12.2349623,44.2504483 13.1857436,42.8343456 C14.1365079,41.418226 13.2906007,39.8696621 16.1863732,37.5367206 C18.8401506,35.3984118 18.1399396,33.2751834 20.1602322,31.419426 C20.1855644,31.4353475 20.2109902,31.4511338 20.2365086,31.4667838 C17.8622226,37.6712703 14.6207357,46.1427505 14.5722232,46.2740081 C14.4955547,46.4814458 14.4043318,46.6676071 14.66385,46.7724666 C14.9233931,46.877209 15.0908459,46.4832187 15.0908459,46.4832187 L20.6920049,35.506107 C20.7925188,36.8479945 20.8528725,38.1443257 20.151296,39.4181373 C18.6809678,42.0891963 20.0942014,44.5060139 20.1296145,45.7899144 C20.1654179,47.0741278 18.9095483,47.3259586 19.2741752,47.6539443 C19.6393659,47.9822741 20.9236841,47.4980234 21.2455674,45.8229942 C21.5674285,44.147956 20.1836947,43.0530177 21.9377145,39.7740652 C23.5501649,36.7592196 22.0614085,35.0772455 23.2164166,32.5663736 C23.2419834,32.5704098 23.2675897,32.5743274 23.2932349,32.5781257 C23.5320614,39.219402 23.8591727,48.3075182 23.8658118,48.4474795 C23.8762904,48.6683835 23.8650583,48.8753896 24.144918,48.8705115 C24.4247548,48.8655158 24.4249517,48.4374169 24.4249517,48.4374169 L25.2654564,36.5172349 C25.7859306,37.6006951 26.2088757,38.6857858 26.0529152,39.9851013 C25.6902469,43.0124587 27.9059301,44.7238864 28.4197221,45.9010323 C28.9339933,47.078322 27.8639086,47.7822724 28.3248505,47.9497838 C28.786444,48.1174031 29.7958395,47.1872996 29.4668076,45.5136599 C29.1377516,43.8400203 27.444605,43.3431669 27.8425865,39.6459078 C28.2092585,36.2371192 26.1866323,35.2392115 26.3292647,32.4610072 C26.3510926,32.4560122 26.3728871,32.4509298 26.3946479,32.4457603 C29.1047402,38.5157503 32.8207536,46.838054 32.8794054,46.9654795 C32.9718731,47.1663728 33.0390048,47.3625131 33.2966587,47.2531529 C33.5542475,47.1436922 33.3940613,46.7466921 33.3940613,46.7466921 L29.5926886,35.0240844 C30.6126205,35.9018681 31.5719415,36.7758362 31.9765729,38.1726464 C32.8256177,41.1010494 35.533873,41.8106906 36.4667686,42.6935045 C37.4001614,43.5762636 36.6901987,44.6423688 37.1799498,44.6164596 C37.6703429,44.5903949 38.236076,43.3398279 37.2792573,41.9277976 C36.3224166,40.5157765 34.5697308,40.7199857 33.4914406,37.1611369 C32.4946056,33.8720143 30.2342421,33.7511743 29.2840595,31.1194344 C29.2996211,31.1081679 29.3151414,31.096848 29.3306201,31.0854748 L29.3306201,31.0854748 L29.3306201,31.0854748 Z" id="ray1" fill="#F2C500"></path>
                    <path d="M27.6387557,32.2114775 L30.5584295,40.0586038 L27.0558149,32.4057675 C26.5708123,32.5498374 26.0694152,32.6558039 25.5550935,32.7201967 C25.4735317,35.6074041 27.792243,37.1428623 26.8158996,39.1175019 C27.2551135,36.6510435 25.0792023,35.4237517 24.7913831,32.7844464 C24.6913949,32.7887957 24.5910013,32.7915821 24.490226,32.792782 L24.2556518,41.2365135 L23.8726853,32.7802063 C23.3555402,32.7529045 22.849482,32.6837842 22.3578299,32.5761646 C21.2155859,35.2149818 22.7794167,37.5001736 21.1381814,38.9619626 C22.4605126,36.8537483 20.9322372,34.912582 21.6193868,32.3825508 C21.4732805,32.3377754 21.3286896,32.2895339 21.18571,32.2379222 L17.7004612,39.8534146 L20.6178716,32.011658 C20.1291869,31.7981379 19.6621764,31.5442489 19.2210555,31.2542061 C17.2747596,33.2255294 17.7617776,35.8507168 15.7195524,36.5415867 C17.7109999,35.1521834 17.1420699,32.848741 18.6192473,30.8237263 C18.5290741,30.7537166 18.4402102,30.6821005 18.3526986,30.6089211 L12.4108165,36.2295856 L17.9071679,30.2117848 C17.4982954,29.8234745 17.1243408,29.3987482 16.7905008,28.9428026 C14.4610935,30.0988641 13.8942392,32.5371046 11.8147823,32.4168507 C14.0873949,31.8962316 14.4871317,29.7100899 16.3991956,28.3645688 C16.2998194,28.2052924 16.2050811,28.042824 16.1151695,27.8773524 L8.7535954,30.6163673 L15.8569042,27.3652651 C15.6034268,26.8218654 15.4004102,26.2501939 15.25388,25.6562763 C12.8890236,25.9676548 11.4691928,27.7512212 9.69469729,26.8738373 C11.86095,27.2595922 13.0713293,25.6280814 15.121996,25.0302108 C15.0925375,24.8620219 15.0675523,24.6922938 15.0471674,24.5211538 L7.57568575,24.3135895 L14.9983115,23.977436 C14.9866563,23.7858295 14.9807438,23.5926721 14.9807438,23.3981337 C14.9807438,22.9454254 15.0127623,22.5001954 15.0746582,22.0645847 C12.9305499,21.6703767 11.0928802,22.591307 9.85023665,21.1961191 C11.5962309,22.2912557 13.2276481,21.4311824 15.1738823,21.4936425 C15.2296044,21.2229923 15.2969665,20.9565923 15.3754223,20.6949889 L8.95878469,17.758399 L15.5370188,20.2057344 C15.7649616,19.5747254 16.0585521,18.9751155 16.4095442,18.4151506 C14.6789804,17.4263515 12.8332795,17.440745 12.2706125,15.7774901 C13.371075,17.3547955 15.0449387,17.3259074 16.6997054,17.9796395 C16.8550096,17.7600215 17.0195011,17.5473618 17.1926203,17.3422199 L12.5826136,12.4687542 L17.5179197,16.9764104 C17.9827718,16.4801688 18.5008616,16.0344075 19.063078,15.6482372 C17.8492603,14.2357792 16.2988686,13.5410715 16.3953485,11.87272 C16.8020667,13.648131 18.2252617,14.2805163 19.470048,15.3838822 C19.7839273,15.1913267 20.1099874,15.0166935 20.4468037,14.8614073 L18.195832,8.8115331 L20.8794765,14.6750079 C21.5119256,14.4212627 22.1783697,14.2343046 22.8700819,14.1228602 C22.2902701,12.4261435 21.2183712,11.2088053 21.938362,9.752635 C21.628048,11.49524 22.6231317,12.6192876 23.3354378,14.0597845 C23.6595019,14.0240763 23.9885295,14.0048495 24.321664,14.0029605 L24.4986097,7.63362346 L24.7874558,14.011651 C25.4953194,14.0421485 26.1828812,14.1509701 26.8416933,14.3296677 C26.9449708,12.5304952 26.3984063,10.9927125 27.6160801,9.9081743 C26.6673659,11.4207249 27.185981,12.8472887 27.3010135,14.4670284 C27.6664018,14.5866184 28.0219222,14.7280066 28.3660378,14.889656 L31.0538003,9.01672239 L28.7898572,15.1020132 C29.404762,15.4298439 29.9789278,15.824039 30.5027942,16.2750381 C31.3870784,14.6021278 31.4329784,12.8704041 33.0347091,12.3285502 C31.5004017,13.3990137 31.4859104,15.0120421 30.8845473,16.6222837 C31.0910127,16.8206517 31.2884318,17.0283658 31.4761239,17.2447455 L36.343445,12.6405514 L31.7898623,17.6261411 C32.2077341,18.1621066 32.568759,18.7445643 32.8638761,19.3644532 C34.4860402,18.1267294 35.1571465,16.3502149 36.9394792,16.4532862 C34.9917509,16.8994796 34.4196947,18.569039 33.0922606,19.8842997 C33.2016909,20.1554863 33.2988324,20.4329502 33.382995,20.7160011 L40.0006661,18.2537697 L33.5178382,21.220885 C33.6668965,21.849094 33.7528781,22.5017214 33.7687239,23.1717081 C35.9748113,22.7694192 37.3532139,21.1526095 39.0595642,21.9962996 C36.9397316,21.618811 35.7352449,23.1730595 33.7629552,23.8000974 C33.7551875,23.9846408 33.7420966,24.1678076 33.7238319,24.3494482 L41.1785758,24.5565474 L33.6524272,24.8973893 C33.553053,25.5170559 33.3930822,26.1164761 33.1787843,26.6893804 C35.5370615,27.3553864 37.5656578,26.1713556 38.9040249,27.6740178 C36.9634773,26.4568519 35.1644636,27.6549042 32.9174612,27.3172702 C32.8353618,27.4959045 32.7478233,27.671521 32.655058,27.8439078 L39.7954768,31.111738 L32.363921,28.3469368 C32.0606184,28.8354593 31.7137498,29.2941069 31.3287438,29.7174509 C33.2834093,31.5170271 35.8081448,31.0958431 36.483649,33.0926468 C35.1071058,31.1196318 32.8333656,31.6598168 30.8220889,30.2334472 C30.7366602,30.3140398 30.6497211,30.3930484 30.5613184,30.4704263 L36.1716479,36.4013827 L30.0960173,30.8522124 C29.6729607,31.1773342 29.2214382,31.4672494 28.7458319,31.7175758 C29.8308853,34.3060168 32.4842344,34.8303305 32.358913,36.9974169 C31.806132,34.5844108 29.3756927,34.2828265 28.0674823,32.0405305 C27.9263183,32.1009038 27.7833759,32.1579196 27.6387557,32.2114775 L27.6387557,32.2114775 L27.6387557,32.2114775 Z" id="ray2" fill="#85340A"></path>
                    <path d="M24.3760713,32.1129057 C19.5630354,32.1129057 15.6612993,28.2111696 15.6612993,23.3981337 C15.6612993,18.5850978 19.5630354,14.6833618 24.3760713,14.6833618 C29.1891072,14.6833618 33.0908432,18.5850978 33.0908432,23.3981337 C33.0908432,28.2111696 29.1891072,32.1129057 24.3760713,32.1129057 L24.3760713,32.1129057 L24.3760713,32.1129057 Z" id="Path" fill="#F2C500"></path>
                    <path d="M27.393745,22.8205237 C26.8668097,22.7876058 26.3888801,22.6192038 26.0783347,22.3397608 C26.426513,21.7825418 27.0186215,21.5146522 27.6369063,21.5146424 L27.6367759,21.514626 C27.6411612,21.514626 27.645548,21.5146394 27.6499365,21.5146662 C27.6422101,21.5147207 27.6344762,21.5148307 27.6267358,21.514997 L27.6267358,21.5149584 C27.1586623,21.5250307 27.6267358,21.5149584 27.6267358,21.5149584 C27.1586623,21.5250307 26.6682917,21.7457714 26.3635664,22.3229774 C26.647549,22.5918435 27.0007519,22.7641816 27.3667306,22.8125339 C27.1142127,22.7315852 26.9314221,22.49488 26.9314221,22.2154817 C26.9314221,21.8692776 27.2120759,21.5886237 27.55828,21.5886237 C27.9044842,21.5886237 28.185138,21.8692776 28.185138,22.2154817 C28.185138,22.5031259 27.9913987,22.7455198 27.7272924,22.8192911 C28.142083,22.7792777 28.5497054,22.5706353 28.8695314,22.1541416 C28.7995868,21.8646927 28.3453656,21.5733377 27.821445,21.5224398 C28.3821695,21.5696273 28.9506582,21.8293237 29.3583372,22.268453 C28.8708617,22.6259122 28.2759536,22.801776 27.7092254,22.8240464 C27.6608784,22.8359984 27.6103198,22.8423397 27.55828,22.8423397 C27.5013431,22.8423397 27.4461791,22.8347487 27.393745,22.8205237 L27.393745,22.8205237 L27.393745,22.8205237 Z M27.5713192,21.1038925 C26.6661728,21.1038925 26.4569267,21.3130733 26.0389888,21.6613169 C25.6206597,22.0095604 25.4120331,21.9397357 25.3424691,22.0095604 C25.2732311,22.0793852 25.3424691,22.2879793 25.4815318,22.2181545 C25.6205945,22.1483298 25.8998609,22.0095604 26.3171143,21.6611865 C26.7354434,21.3125192 27.1526967,21.3129429 27.570928,21.3129429 C28.8247417,21.3129429 29.5212614,22.3575758 29.660259,22.2878489 C29.7993217,22.2180241 28.9637392,21.1037295 27.570928,21.1037295 L27.570928,21.1037295 L27.5713192,21.1038925 L27.5713192,21.1038925 Z M29.2435932,22.6359946 C28.0594086,23.5416626 26.8753544,23.4719356 26.1788347,23.0538999 C25.482315,22.6359946 25.482315,22.4969319 25.6214103,22.4969319 C25.760473,22.4969319 25.8995357,22.6359946 26.4569927,22.9145112 C27.0144171,23.1935168 27.8499018,23.1935168 29.2428108,22.6360924 C29.2428108,22.6360924 27.8499018,23.1935168 29.2428108,22.6360924 L29.2435932,22.6359946 L29.2435932,22.6359946 Z" id="right-eye" fill="#843511"></path>
                    <path d="M30.0780997,21.521146 C28.4760424,20.1282696 26.456471,19.9190562 25.3416221,20.964178 C25.0687776,21.3295029 24.8939549,21.7201237 24.8222069,22.1277933 C24.6819707,22.9209006 24.9298779,23.7778021 25.5513246,24.6560552 C25.4812064,24.6557293 25.341557,24.7252932 25.2720256,24.795118 C24.7189367,23.7376415 24.5233492,22.6514463 24.7048218,21.6183204 C24.7523496,21.3484097 24.826575,21.0827366 24.9230975,20.8243329 C26.4554278,19.5708778 28.5447262,19.4314565 30.0771543,21.5211786 C30.0771543,21.5211786 28.5447262,19.4314565 30.0771543,21.5211786 L30.0780997,21.521146 L30.0780997,21.521146 Z M23.0019061,24.7744179 C22.7041534,24.8287521 22.4925636,25.0929876 22.4925636,25.3957995 C22.4925636,25.7417938 22.7786038,26.017181 23.1241483,26.017181 C23.3284297,26.017181 23.5161382,25.9204303 23.6334907,25.7523228 C23.8745589,25.9336129 24.2087136,25.9528359 24.3873176,25.9560598 C24.4147977,25.9567118 24.4502707,25.9560598 24.4688124,25.9560598 C24.6474197,25.9528 24.9815776,25.9335999 25.2226393,25.7523228 C25.3399918,25.9204303 25.5277004,26.017181 25.7319817,26.017181 C26.0775196,26.017181 26.3635664,25.7417676 26.3635664,25.3957995 C26.3635664,25.0929713 26.1519473,24.828726 25.8542239,24.7744179 C26.0214512,24.8333876 26.1292688,24.9949428 26.1292688,25.1717213 C26.1292688,25.402319 25.9430566,25.5893659 25.7116244,25.5893659 C25.4898281,25.5893659 25.3069864,25.4132882 25.2939798,25.1920624 C25.225974,25.3277904 24.9568847,25.7315906 24.4281139,25.7523555 C23.8993105,25.7316232 23.6302472,25.3278001 23.562248,25.1920624 C23.5492089,25.4132718 23.3663834,25.5893659 23.1446035,25.5893659 C22.913155,25.5893659 22.7269589,25.4023027 22.7269589,25.1717213 C22.7269589,24.9949591 22.8347766,24.8334201 23.0020039,24.7744179 C23.0020039,24.7744179 22.8347766,24.8334201 23.0020039,24.7744179 L23.0019061,24.7744179 L23.0019061,24.7744179 Z M18.9067926,21.4956077 C20.5088499,20.1027312 22.5284213,19.8935178 23.6432701,20.9386397 C23.9161147,21.3039646 24.0909374,21.6945854 24.1626853,22.1022549 C24.3029216,22.8953623 24.0550144,23.7522638 23.4335678,24.6305169 C23.5036858,24.6301909 23.6433353,24.6997549 23.7128667,24.7695797 C24.2659555,23.7121031 24.4615431,22.6259079 24.2800705,21.5927821 C24.2325427,21.3228714 24.1583173,21.0571983 24.0617948,20.7987946 C22.5294645,19.5453394 20.440166,19.4059181 18.907738,21.4956403 C18.907738,21.4956403 20.440166,19.4059181 18.907738,21.4956403 L18.9067926,21.4956077 L18.9067926,21.4956077 Z" id="nose" fill="#85340A"></path>
                    <path d="M22.306965,27.714794 C22.594466,27.5648574 22.8562231,27.3273962 23.2769347,27.086849 C23.7645996,26.8083258 24.1804512,27.1479702 24.4586093,27.1479702 L24.4687798,27.1479702 C24.7469052,27.1479702 25.1627895,26.8084302 25.6504543,27.086849 C25.9103523,27.2354738 26.1124742,27.3828868 26.2972844,27.5092106 L26.2972844,27.5092106 C25.229747,27.2477132 24.9675782,27.4712213 24.591022,27.4712213 L24.5808515,27.4712213 C24.3196606,27.4712213 24.1123542,27.3693854 23.6538318,27.3897265 C23.6538318,27.3897265 24.1123542,27.3693854 23.6538318,27.3897265 L23.6538645,27.3897265 C23.3787706,27.4019181 23.0150756,27.4571228 22.4925636,27.6138372 C23.7467033,27.3353401 24.0234271,27.7564531 24.5808515,27.7564531 L24.591022,27.7564531 C25.0985478,27.7564531 25.3733512,27.4073154 26.3650987,27.5550499 C26.4532111,27.6138113 26.5384111,27.6670018 26.6253553,27.7123339 C25.2688391,27.6425135 25.6816012,28.4868172 24.4687798,28.4868172 L24.4586093,28.4868172 C23.2826393,28.4868172 23.6449978,27.6974587 22.4314099,27.7126167 C22.4314099,27.7126167 23.6449978,27.6974587 22.4314099,27.7126167 L22.4314426,27.7126167 C22.3917171,27.7130969 22.3502366,27.7134985 22.306965,27.714794 L22.306965,27.714794 Z M22.2688191,27.734085 C22.2352884,27.7505038 22.2013052,27.7657038 22.1665844,27.7795547 C22.1907668,27.7634356 22.2144263,27.746999 22.2376071,27.7302932 C22.2145153,27.7276036 22.1908478,27.7250993 22.1665844,27.7227872 C22.1972397,27.7200534 22.2271177,27.7181279 22.2562286,27.7167412 C22.8215178,27.3013443 23.1030801,26.730293 23.7659035,26.730293 C23.9049988,26.730293 24.1804382,26.8052128 24.4586093,26.9442168 L24.4687798,26.9442168 C24.7469704,26.8054475 25.0224229,26.730293 25.1614856,26.730293 C25.7426729,26.730293 26.0378449,27.1693818 26.4834724,27.5575839 C26.546199,27.5747645 26.6114297,27.5934783 26.6793098,27.6138372 C26.6201593,27.6007 26.5631831,27.5891192 26.5082492,27.5789772 C26.5628192,27.6256691 26.6197063,27.671485 26.6796822,27.715559 C26.7093055,27.7175454 26.7397367,27.7199493 26.7710078,27.7227872 C26.7467331,27.7251 26.723052,27.7276053 26.6999445,27.7302961 C26.7231534,27.7470008 26.7468267,27.7634365 26.7710078,27.7795547 C26.7363027,27.765711 26.7022337,27.7505199 26.668536,27.7341114 C25.3402509,27.9022644 25.9640337,28.7007248 24.4687798,28.7007248 L24.4586093,28.7007248 C22.9633048,28.7007248 23.5969249,27.9021949 22.2688191,27.734085 L22.2688191,27.734085 Z" id="mouth" fill="#85340A"></path>
                    <path d="M25.6521495,29.940047 C25.6521495,29.2478628 25.0903896,28.6861681 24.3983357,28.6861681 C23.7061841,28.6861681 23.1445219,29.2478302 23.1445219,29.940047 C23.2824112,29.3594781 23.8018916,28.9492985 24.3983357,28.9492985 C24.9959534,28.9492985 25.5144885,29.3595759 25.6521495,29.940047 L25.6521495,29.940047 L25.6521495,29.940047 L25.6521495,29.940047 L25.6521495,29.940047 L25.6521495,29.940047 Z" id="chin" fill="#85340A"></path>
                    <path d="M21.3334854,21.5342017 C20.7182314,21.5366195 20.1298919,21.8046001 19.7832852,22.3593037 C20.479805,22.9860639 22.0183615,23.0542261 23.0632878,22.2879958 C22.7105412,21.9080367 22.2374016,21.6624131 21.7530694,21.5725514 C21.6729507,21.5353759 21.5836614,21.5146261 21.4895257,21.5146261 C21.435655,21.5146261 21.3833714,21.5214214 21.3334854,21.5342017 L21.3334854,21.5342017 L21.3334854,21.5342017 Z M22.0030625,21.7819037 C22.3043442,21.8854148 22.5272029,22.0514191 22.574482,22.2166878 C22.3122357,22.5051624 21.99096,22.675592 21.6551051,22.7462418 C21.9209638,22.6736194 22.1163836,22.4303731 22.1163836,22.141484 C22.1163836,22.0076972 22.0744721,21.8836992 22.0030625,21.7819037 L22.0030625,21.7819037 L22.0030625,21.7819037 Z M21.5426844,22.7661198 C21.0196739,22.8413611 20.4736545,22.6833075 20.068517,22.3593037 C20.3097994,21.9732467 20.6674724,21.7759692 21.0383089,21.7063345 C20.9295575,21.8190759 20.8626677,21.9724685 20.8626677,22.141484 C20.8626677,22.4876881 21.1433216,22.768342 21.4895257,22.768342 C21.5074305,22.768342 21.52516,22.7675913 21.5426844,22.7661198 L21.5426844,22.7661198 L21.5426844,22.7661198 Z M21.3367479,21.1888099 C22.2418942,21.1888099 22.4511403,21.3979907 22.8690782,21.7462343 C23.2874073,22.0944779 23.496034,22.0246531 23.5655979,22.0944779 C23.6348359,22.1643026 23.5655979,22.3728966 23.4265352,22.3030719 C23.2874725,22.2332471 23.0082061,22.0944779 22.5909528,21.7461039 C22.1726236,21.3974366 21.7553703,21.3978603 21.3371391,21.3978603 C20.0833253,21.3978603 19.3868056,22.4424932 19.2478081,22.3727663 C19.1087453,22.3029415 19.9443278,21.1886469 21.3371391,21.1886469 C21.3371391,21.1886469 19.9443278,21.1886469 21.3371391,21.1886469 L21.3367479,21.1888099 L21.3367479,21.1888099 Z M19.558751,22.6316264 C20.7429355,23.5372943 21.9269898,23.4675674 22.6235095,23.0495317 C23.3200291,22.6316264 23.3200291,22.4925636 23.1809338,22.4925636 C23.0418711,22.4925636 22.9028085,22.6316264 22.3453514,22.9101429 C21.787927,23.1891485 20.9524423,23.1891485 19.5595333,22.6317242 C19.5595333,22.6317242 20.9524423,23.1891485 19.5595333,22.6317242 L19.558751,22.6316264 L19.558751,22.6316264 Z" id="left-eye" fill="#85340A"></path>
                </g>
            </g>
        </g>
    </g>
</svg>