<?xml version="1.0" encoding="UTF-8" standalone="no"?>
<svg width="180px" height="180px" viewBox="0 0 180 180" version="1.1" xmlns="http://www.w3.org/2000/svg" xmlns:xlink="http://www.w3.org/1999/xlink">
    <!-- Generator: Sketch 3.8.3 (29802) - http://www.bohemiancoding.com/sketch -->
    <title>aruba</title>
    <desc>Created with Sketch.</desc>
    <defs></defs>
    <g id="Page-1" stroke="none" stroke-width="1" fill="none" fill-rule="evenodd">
        <g id="flags" transform="translate(-450.000000, -450.000000)">
            <g id="aruba" transform="translate(450.000000, 450.000000)">
                <circle id="blue" fill="#2C97DE" cx="90" cy="90" r="90"></circle>
                <path d="M9.60562164,130.5 L170.394378,130.5 C171.864617,127.587245 173.181219,124.583693 174.333531,121.500001 L5.66646333,121.5 C6.81878063,124.583693 8.13538294,127.587245 9.60562585,130.500008 L9.60562164,130.5 L9.60562164,130.5 Z" id="yellow" fill="#F2C500"></path>
                <path d="M21.6037271,148.5 L158.396273,148.5 C160.83718,145.648861 163.102913,142.643302 165.176795,139.5 L14.8232049,139.5 C16.8970873,142.643302 19.1628199,145.648861 21.6037271,148.5 L21.6037271,148.5 L21.6037271,148.5 Z" id="yellow" fill="#F2C500"></path>
                <polygon id="star" fill="#E94B35" points="69.8400286 51.8388437 63 31.5 56.2049877 51.7049877 36 58.5 56.3388437 65.3400286 63 85.5 69.7055801 65.2055801 90 58.5 69.8400286 51.8388437 69.8400286 51.8388437 69.8400286 51.8388437"></polygon>
            </g>
        </g>
    </g>
</svg>