<?xml version="1.0" encoding="UTF-8" standalone="no"?>
<svg width="180px" height="180px" viewBox="0 0 180 180" version="1.1" xmlns="http://www.w3.org/2000/svg" xmlns:xlink="http://www.w3.org/1999/xlink">
    <!-- Generator: Sketch 3.8.3 (29802) - http://www.bohemiancoding.com/sketch -->
    <title>azerbaijan</title>
    <desc>Created with Sketch.</desc>
    <defs></defs>
    <g id="Page-1" stroke="none" stroke-width="1" fill="none" fill-rule="evenodd">
        <g id="flags" transform="translate(-1260.000000, -450.000000)">
            <g id="azerbaijan" transform="translate(1260.000000, 450.000000)">
                <path d="M174.873467,120 L5.12100983,120 C17.475726,154.955772 50.8118738,180 89.9972382,180 C129.182603,180 162.51875,154.955772 174.873463,120 L174.873467,120 L174.873467,120 Z" id="green" fill="#1AAF5D"></path>
                <path d="M5.12100983,120 L174.873467,120 C178.189905,110.616633 179.994476,100.519063 179.994476,90 C179.994476,79.480937 178.189905,69.3833673 174.873463,59.9999996 L5.12100983,60 C1.80457108,69.3833673 0,79.480937 0,90 C0,100.519063 1.80457108,110.616633 5.12101363,120 L5.12100983,120 L5.12100983,120 Z" id="red" fill="#E94B35"></path>
                <path d="M5.12100983,60 L174.873467,60 C162.51875,25.0442275 129.182603,0 89.9972382,0 C50.8118738,0 17.475726,25.0442275 5.12101363,59.9999996 L5.12100983,60 L5.12100983,60 Z" id="blue" fill="#2C97DE"></path>
                <path d="M92.8665124,116.984086 C90.5220034,117.646175 88.051584,118 85.5,118 C70.3121686,118 58,105.463974 58,90 C58,74.5360262 70.3121686,62 85.5,62 C88.051584,62 90.5220034,62.3538247 92.8665124,63.0159145 C92.5788814,63.0053334 92.2900174,63 92,63 C78.1928806,63 67,75.088311 67,90 C67,104.911689 78.1928806,117 92,117 C92.2900174,117 92.5788814,116.994667 92.8665124,116.984086 C92.8665124,116.984086 92.5788814,116.994667 92.8665124,116.984086 L92.8665124,116.984086 Z M114.73685,103.718998 L105.449984,99.3125008 L102.012629,109 L98.561683,99.317332 L89.2810092,103.73685 L93.6875028,94.4499844 L84,91.0126288 L93.6826716,87.5616832 L89.2631496,78.2810092 L98.550019,82.6875028 L101.987375,73 L105.43832,82.682668 L114.718994,78.2631496 L110.312501,87.5500192 L120.000004,90.9873712 L110.317336,94.4383168 L114.73685,103.718998 L114.73685,103.718998 Z" id="emblem" fill="#FFFFFF"></path>
            </g>
        </g>
    </g>
</svg>