<?xml version="1.0" encoding="UTF-8" standalone="no"?>
<svg width="180px" height="180px" viewBox="0 0 180 180" version="1.1" xmlns="http://www.w3.org/2000/svg" xmlns:xlink="http://www.w3.org/1999/xlink">
    <!-- Generator: Sketch 3.8.3 (29802) - http://www.bohemiancoding.com/sketch -->
    <title>bahamas</title>
    <desc>Created with Sketch.</desc>
    <defs></defs>
    <g id="Page-1" stroke="none" stroke-width="1" fill="none" fill-rule="evenodd">
        <g id="flags" transform="translate(-1530.000000, -450.000000)">
            <g id="bahamas" transform="translate(1530.000000, 450.000000)">
                <path d="M19.7048246,146.206623 C36.1978255,166.806888 61.5582036,180 90,180 C129.186567,180 162.523738,154.955772 174.878829,120.000001 L174.878833,120 L57.1428567,120 L19.7048246,146.206623 L19.7048246,146.206623 L19.7048246,146.206623 L19.7048246,146.206623 L19.7048246,146.206623 Z M19.7048246,33.7933772 C36.1978255,13.1931121 61.5582036,0 90,0 C129.186567,0 162.523738,25.0442276 174.878829,59.9999996 L174.878833,60 L57.1428567,59.9999997 L19.7048246,33.7933772 L19.7048246,33.7933772 L19.7048246,33.7933772 L19.7048246,33.7933772 L19.7048246,33.7933772 Z" id="aqua" fill="#4BB7C0"></path>
                <path d="M57.1411034,59.9981586 L174.878178,59.9981583 C178.089104,69.0820714 179.883063,78.8353599 179.994476,88.9924213 L179.994476,91.0075534 C179.883085,101.162581 178.089831,110.913975 174.880131,119.996318 L174.880135,119.996317 L57.1411031,119.996318 L99.9969312,89.9972381 L57.1411034,59.9981586 L57.1411034,59.9981586 L57.1411034,59.9981586 L57.1411034,59.9981586 L57.1411034,59.9981586 Z" id="yellow" fill="#F2C500"></path>
                <path d="M19.7048246,33.7933772 C7.37422416,49.1946762 0,68.7361664 0,90 C0,111.263834 7.37422416,130.805324 19.7048246,146.206623 L100,90 L19.7048246,33.7933772 L19.7048246,33.7933772 L19.7048246,33.7933772 L19.7048246,33.7933772 L19.7048246,33.7933772 Z" id="black" fill="#000000"></path>
            </g>
        </g>
    </g>
</svg>