<?xml version="1.0" encoding="UTF-8" standalone="no"?>
<svg width="180px" height="180px" viewBox="0 0 180 180" version="1.1" xmlns="http://www.w3.org/2000/svg" xmlns:xlink="http://www.w3.org/1999/xlink">
    <!-- Generator: Sketch 3.8.3 (29802) - http://www.bohemiancoding.com/sketch -->
    <title>bahrain</title>
    <desc>Created with Sketch.</desc>
    <defs></defs>
    <g id="Page-1" stroke="none" stroke-width="1" fill="none" fill-rule="evenodd">
        <g id="flags" transform="translate(-1800.000000, -450.000000)">
            <g id="bahrain" transform="translate(1800.000000, 450.000000)">
                <circle id="white" fill="#FFFFFF" cx="90" cy="90" r="90"></circle>
                <path d="M90,0 C139.705627,0 180,40.2943725 180,90 C180,139.705627 139.705627,180 90,180 C80.0878972,180 70.5500497,178.397622 61.631365,175.437774 L90,162 L52,144 L90,126 L90,54 L90,90 L52,108 L90,126 L90,90 L52,72 L90,54 L52,36 L90,18 L61.631365,4.56222551 C70.5500497,1.60237763 80.0878972,0 90,0 Z" id="red" fill="#E94B35"></path>
            </g>
        </g>
    </g>
</svg>