<?xml version="1.0" encoding="UTF-8" standalone="no"?>
<svg width="180px" height="180px" viewBox="0 0 180 180" version="1.1" xmlns="http://www.w3.org/2000/svg" xmlns:xlink="http://www.w3.org/1999/xlink">
    <!-- Generator: Sketch 3.8.3 (29802) - http://www.bohemiancoding.com/sketch -->
    <title>barbados</title>
    <desc>Created with Sketch.</desc>
    <defs></defs>
    <g id="Page-1" stroke="none" stroke-width="1" fill="none" fill-rule="evenodd">
        <g id="flags" transform="translate(-2340.000000, -450.000000)">
            <g id="barbados" transform="translate(2340.000000, 450.000000)">
                <path d="M120,174.877528 C154.952776,162.521396 179.994476,129.185191 179.994476,90 C179.994476,50.8148092 154.952776,17.4786037 120,5.12247245 L120,174.877531 L120,174.877528 L120,174.877528 Z" id="blue" fill="#227FBB"></path>
                <path d="M60,5.12051622 L60,174.879484 C69.3825591,178.19561 79.479186,180 89.9972382,180 C100.517354,180 110.61588,178.194901 120,174.877528 L120,5.12246865 C110.61588,1.80509864 100.517354,0 89.9972382,0 C79.479186,0 69.3825591,1.80439039 59.9999996,5.12052001 L60,5.12051622 L60,5.12051622 Z" id="yellow" fill="#F2C500"></path>
                <path d="M0.00276191524,89.2874328 L0.00276191524,90.7125672 C0.304247676,129.592015 25.2577277,162.60161 60.0027615,174.880456 L60.0027619,5.11954011 C25.2577277,17.3983904 0.304247676,50.4079855 0.00276191524,89.2874328 L0.00276191524,89.2874328 L0.00276191524,89.2874328 Z" id="blue" fill="#227FBB"></path>
                <path d="M89.5945729,59.1425746 C89.6357716,59.030195 89.6769368,58.9178931 89.7180865,58.8056811 L89.7601009,59.5938711 C91.772763,65.0767371 93.9222464,70.7048842 98.2932301,75.06045 C96.8713417,74.5918732 94.3830371,74.1717698 92.7834128,74.2121643 L92.7834128,98.303477 L99.5858558,99.3133408 C99.8282232,99.2891041 99.9090123,98.9093953 99.9090123,98.392345 C100.563404,90.9112734 102.332686,84.6258806 104.368571,78.1223573 C104.513992,77.2336771 107.091164,73.8405344 105.103752,74.4383739 C104.861385,74.4706895 102.203423,75.5532636 102.623526,75.0362133 C106.242879,71.2875986 111.534565,68.5892423 116.672753,67.7894301 C117.125172,67.6763253 117.391776,67.9025348 116.98783,68.4276641 C110.169229,78.9221695 104.465518,91.30714 104.513992,106.002679 C101.864109,106.002679 95.4413745,104.43537 92.7834128,104.43537 L92.7834128,121.433399 L89.5945729,121.433399 L86.405733,121.433399 L86.405733,104.43537 C83.7477713,104.43537 77.325037,106.002679 74.6751542,106.002679 C74.7236277,91.30714 69.0199165,78.9221695 62.2013156,68.4276641 C61.7973701,67.9025348 62.0639741,67.6763253 62.5163932,67.7894301 C67.6545806,68.5892423 72.9462673,71.2875986 76.5656194,75.0362133 C76.9857228,75.5532636 74.327761,74.4706895 74.0853937,74.4383739 C72.0979816,73.8405344 74.6751542,77.2336771 74.8205746,78.1223573 C76.8564602,84.6258806 78.6257417,90.9112734 79.2801335,98.392345 C79.2801335,98.9093953 79.3609226,99.2891041 79.6032899,99.3133408 L86.405733,98.303477 L86.405733,74.2121643 C84.8061086,74.1717698 82.317804,74.5918732 80.8959157,75.06045 C85.2668994,70.7048842 87.4163828,65.0767371 89.4290449,59.5938711 L89.4710593,58.8056811 C89.5122089,58.9178931 89.5533742,59.030195 89.5945729,59.1425746 C89.5945729,59.1425746 89.5533742,59.030195 89.5945729,59.1425746 L89.5945729,59.1425746 L89.5945729,59.1425746 L89.5945729,59.1425746 Z" id="emblem" fill="#000000"></path>
            </g>
        </g>
    </g>
</svg>