<?xml version="1.0" encoding="UTF-8" standalone="no"?>
<svg width="180px" height="180px" viewBox="0 0 180 180" version="1.1" xmlns="http://www.w3.org/2000/svg" xmlns:xlink="http://www.w3.org/1999/xlink">
    <!-- Generator: Sketch 3.8.3 (29802) - http://www.bohemiancoding.com/sketch -->
    <title>belarus</title>
    <desc>Created with Sketch.</desc>
    <defs></defs>
    <g id="Page-1" stroke="none" stroke-width="1" fill="none" fill-rule="evenodd">
        <g id="flags" transform="translate(-2610.000000, -450.000000)">
            <g id="belarus" transform="translate(2610.000000, 450.000000)">
                <circle id="white" fill="#FFFFFF" cx="90" cy="90" r="90"></circle>
                <path d="M40,164.844511 C54.3009801,174.417284 71.4985331,180 90,180 C129.186567,180 162.523738,154.955772 174.878829,120.000001 L174.878833,120 L40,120 L40,164.844511 L40,164.844511 L40,164.844511 L40,164.844511 L40,164.844511 Z" id="green" fill="#1AAF5D"></path>
                <path d="M40,15.155489 C54.3009801,5.58271597 71.4985331,0 90,0 C139.70563,0 180,40.2943701 180,90 C180,100.519063 178.195374,110.616633 174.878829,120.000001 L174.878833,120 L40,120 L40,15.155489 L40,15.155489 L40,15.155489 L40,15.155489 L40,15.155489 Z" id="red" fill="#E94B35"></path>
                <path d="M4.98339844,56.5583977 L6.4074716,56.5583977 L6.4074716,53.866285 L7.83154476,53.866285 L7.83154476,51.1741723 L9.25561791,51.1741723 L9.25561791,48.4820596 L10.6796911,48.4820596 L10.6796911,45.789947 L12.1037642,45.789947 L12.1037642,43.0978343 L13.5278374,43.0978343 L13.5278374,45.789947 L14.9519105,45.789947 L14.9519105,48.4820596 L16.3759837,48.4820596 L16.3759837,51.1741723 L17.8000569,51.1741723 L17.8000569,53.866285 L19.22413,53.866285 L19.22413,56.5583977 L20.6482032,56.5583977 L20.6482032,59.2505104 L21.5026471,59.2505104 L21.5026471,70.0189612 L20.6482032,70.0189612 L20.6482032,72.7110739 L19.22413,72.7110739 L19.22413,75.4031866 L17.8000569,75.4031866 L17.8000569,78.0952993 L16.3759837,78.0952993 L16.3759837,80.787412 L14.9519105,80.787412 L14.9519105,83.4795247 L13.5278374,83.4795247 L13.5278374,90.4790177 L10.6796911,90.4790177 L10.6796911,88.8637501 L9.25561791,88.8637501 L9.25561791,86.1716374 L7.83154476,86.1716374 L7.83154476,83.4795247 L6.4074716,83.4795247 L6.4074716,80.787412 L4.98339844,80.787412 L4.98339844,72.7110739 L6.4074716,72.7110739 L6.4074716,75.4031866 L7.83154476,75.4031866 L7.83154476,78.0952993 L9.25561791,78.0952993 L9.25561791,80.787412 L10.6796911,80.787412 L10.6796911,78.0952993 L12.1037642,78.0952993 L12.1037642,75.4031866 L13.5278374,75.4031866 L13.5278374,72.7110739 L14.9519105,72.7110739 L14.9519105,70.0189612 L16.3759837,70.0189612 L16.3759837,67.3268485 L17.8000569,67.3268485 L17.8000569,64.6347358 L16.3759837,64.6347358 L16.3759837,61.9426231 L14.9519105,61.9426231 L14.9519105,59.2505104 L10.6796911,59.2505104 L10.6796911,61.9426231 L13.5278374,61.9426231 L13.5278374,64.6347358 L12.1037642,64.6347358 L12.1037642,67.3268485 L10.6796911,67.3268485 L10.6796911,70.0189612 L9.25561791,70.0189612 L9.25561791,67.3268485 L7.83154476,67.3268485 L7.83154476,64.6347358 L6.4074716,64.6347358 L6.4074716,61.9426231 L4.98339844,61.9426231 L4.98339844,56.5583977 L4.98339844,56.5583977 L4.98339844,56.5583977 L4.98339844,56.5583977 L4.98339844,56.5583977 Z M4.98339844,67.5526386 L6.59503245,67.5526386 L6.59503245,70.6094892 L4.98339844,70.6094892 L4.98339844,67.5526386 L4.98339844,67.5526386 L4.98339844,67.5526386 L4.98339844,67.5526386 L4.98339844,67.5526386 Z M20.6968301,75.194765 L21.6638105,75.194765 L21.6638105,78.2516155 L20.6968301,78.2516155 L20.6968301,75.194765 L20.6968301,75.194765 L20.6968301,75.194765 L20.6968301,75.194765 L20.6968301,75.194765 Z M17.8764705,80.5442534 L19.2711538,80.5442534 L19.2711538,83.3039102 L20.6658371,83.3039102 L20.6658371,86.0635669 L21.5026471,86.0635669 L21.5026471,90.4790177 L20.6658371,90.4790177 L20.6658371,88.8232237 L19.2711538,88.8232237 L19.2711538,86.0635669 L17.8764705,86.0635669 L17.8764705,80.5442534 L17.8764705,80.5442534 L17.8764705,80.5442534 L17.8764705,80.5442534 L17.8764705,80.5442534 Z M15.056111,88.9505924 L16.667745,88.9505924 L16.667745,90.7847028 L15.056111,90.7847028 L15.056111,88.9505924 L15.056111,88.9505924 L15.056111,88.9505924 L15.056111,88.9505924 L15.056111,88.9505924 Z" id="ornament" fill="#E94B35"></path>
                <path d="M37.2322413,26.2851562 L37.9574766,26.2851562 L37.9574766,31.6346447 L37.2322413,31.6346447 L37.2322413,26.2851562 L37.2322413,26.2851562 L37.2322413,26.2851562 L37.2322413,26.2851562 L37.2322413,26.2851562 Z M24.661496,32.3988573 L26.0313849,32.3988573 L26.0313849,35.1500228 L27.4012738,35.1500228 L27.4012738,37.9011883 L28.7711627,37.9011883 L28.7711627,40.6523538 L27.4012738,40.6523538 L27.4012738,43.4035193 L26.0313849,43.4035193 L26.0313849,46.1546848 L24.661496,46.1546848 L24.661496,43.4035193 L23.2916071,43.4035193 L23.2916071,40.6523538 L21.9217182,40.6523538 L21.9217182,37.9011883 L23.2916071,37.9011883 L23.2916071,35.1500228 L24.661496,35.1500228 L24.661496,32.3988573 L24.661496,32.3988573 L24.661496,32.3988573 L24.661496,32.3988573 L24.661496,32.3988573 Z M24.7420777,37.7483458 L25.9508032,37.7483458 L25.9508032,40.8051963 L24.7420777,40.8051963 L24.7420777,37.7483458 L24.7420777,37.7483458 L24.7420777,37.7483458 L24.7420777,37.7483458 L24.7420777,37.7483458 Z M33.1225746,32.3988573 L34.4924635,32.3988573 L34.4924635,35.1500228 L35.8623524,35.1500228 L35.8623524,37.9011883 L37.2322413,37.9011883 L37.2322413,40.6523538 L35.8623524,40.6523538 L35.8623524,43.4035193 L34.4924635,43.4035193 L34.4924635,46.1546848 L33.1225746,46.1546848 L33.1225746,43.4035193 L31.7526856,43.4035193 L31.7526856,40.6523538 L30.3827967,40.6523538 L30.3827967,37.9011883 L31.7526856,37.9011883 L31.7526856,35.1500228 L33.1225746,35.1500228 L33.1225746,32.3988573 L33.1225746,32.3988573 L33.1225746,32.3988573 L33.1225746,32.3988573 L33.1225746,32.3988573 Z M32.8002477,37.7483458 L34.0089733,37.7483458 L34.0089733,40.8051963 L32.8002477,40.8051963 L32.8002477,37.7483458 L32.8002477,37.7483458 L32.8002477,37.7483458 L32.8002477,37.7483458 L32.8002477,37.7483458 Z M21.9217182,48.4473227 L23.1304437,48.4473227 L23.1304437,51.5041733 L21.9217182,51.5041733 L21.9217182,48.4473227 L21.9217182,48.4473227 L21.9217182,48.4473227 L21.9217182,48.4473227 L21.9217182,48.4473227 Z M37.2322413,46.1546848 L37.9574766,46.1546848 L37.9574766,51.5041733 L37.2322413,51.5041733 L37.2322413,46.1546848 L37.2322413,46.1546848 L37.2322413,46.1546848 L37.2322413,46.1546848 L37.2322413,46.1546848 Z" id="ornament" fill="#E94B35"></path>
                <path d="M21.7605542,56.5583977 L23.1846273,56.5583977 L23.1846273,53.866285 L24.6087005,53.866285 L24.6087005,51.1741723 L26.0327736,51.1741723 L26.0327736,48.4820596 L27.4568468,48.4820596 L27.4568468,45.789947 L28.8809199,45.789947 L28.8809199,43.0978343 L30.3049931,43.0978343 L30.3049931,45.789947 L31.7290663,45.789947 L31.7290663,48.4820596 L33.1531394,48.4820596 L33.1531394,51.1741723 L34.5772126,51.1741723 L34.5772126,53.866285 L36.0012857,53.866285 L36.0012857,56.5583977 L37.4253589,56.5583977 L37.4253589,59.2505104 L38.2798028,59.2505104 L38.2798028,70.0189612 L37.4253589,70.0189612 L37.4253589,72.7110739 L36.0012857,72.7110739 L36.0012857,75.4031866 L34.5772126,75.4031866 L34.5772126,78.0952993 L33.1531394,78.0952993 L33.1531394,80.787412 L31.7290663,80.787412 L31.7290663,83.4795247 L30.3049931,83.4795247 L30.3049931,90.4790177 L27.4568468,90.4790177 L27.4568468,88.8637501 L26.0327736,88.8637501 L26.0327736,86.1716374 L24.6087005,86.1716374 L24.6087005,83.4795247 L23.1846273,83.4795247 L23.1846273,80.787412 L21.7605542,80.787412 L21.7605542,72.7110739 L23.1846273,72.7110739 L23.1846273,75.4031866 L24.6087005,75.4031866 L24.6087005,78.0952993 L26.0327736,78.0952993 L26.0327736,80.787412 L27.4568468,80.787412 L27.4568468,78.0952993 L28.8809199,78.0952993 L28.8809199,75.4031866 L30.3049931,75.4031866 L30.3049931,72.7110739 L31.7290663,72.7110739 L31.7290663,70.0189612 L33.1531394,70.0189612 L33.1531394,67.3268485 L34.5772126,67.3268485 L34.5772126,64.6347358 L33.1531394,64.6347358 L33.1531394,61.9426231 L31.7290663,61.9426231 L31.7290663,59.2505104 L27.4568468,59.2505104 L27.4568468,61.9426231 L30.3049931,61.9426231 L30.3049931,64.6347358 L28.8809199,64.6347358 L28.8809199,67.3268485 L27.4568468,67.3268485 L27.4568468,70.0189612 L26.0327736,70.0189612 L26.0327736,67.3268485 L24.6087005,67.3268485 L24.6087005,64.6347358 L23.1846273,64.6347358 L23.1846273,61.9426231 L21.7605542,61.9426231 L21.7605542,56.5583977 L21.7605542,56.5583977 L21.7605542,56.5583977 L21.7605542,56.5583977 L21.7605542,56.5583977 Z M21.7605542,67.5526386 L23.3721882,67.5526386 L23.3721882,70.6094892 L21.7605542,70.6094892 L21.7605542,67.5526386 L21.7605542,67.5526386 L21.7605542,67.5526386 L21.7605542,67.5526386 L21.7605542,67.5526386 Z M37.4739858,75.194765 L38.4409662,75.194765 L38.4409662,78.2516155 L37.4739858,78.2516155 L37.4739858,75.194765 L37.4739858,75.194765 L37.4739858,75.194765 L37.4739858,75.194765 L37.4739858,75.194765 Z M34.6536263,80.5442534 L36.0483095,80.5442534 L36.0483095,83.3039102 L37.4429928,83.3039102 L37.4429928,86.0635669 L38.2798028,86.0635669 L38.2798028,90.4790177 L37.4429928,90.4790177 L37.4429928,88.8232237 L36.0483095,88.8232237 L36.0483095,86.0635669 L34.6536263,86.0635669 L34.6536263,80.5442534 L34.6536263,80.5442534 L34.6536263,80.5442534 L34.6536263,80.5442534 L34.6536263,80.5442534 Z M31.8332667,88.9505924 L33.4449008,88.9505924 L33.4449008,90.7847028 L31.8332667,90.7847028 L31.8332667,88.9505924 L31.8332667,88.9505924 L31.8332667,88.9505924 L31.8332667,88.9505924 L31.8332667,88.9505924 Z" id="ornament" fill="#E94B35" transform="translate(30.100760, 66.941269) scale(-1, 1) translate(-30.100760, -66.941269) "></path>
                <path d="M21.7605538,102.869683 L23.1846269,102.869683 L23.1846269,100.17757 L24.6087001,100.17757 L24.6087001,97.4854571 L26.0327732,97.4854571 L26.0327732,94.7933444 L27.4568464,94.7933444 L27.4568464,92.1012317 L28.8809195,92.1012317 L28.8809195,89.409119 L30.3049927,89.409119 L30.3049927,92.1012317 L31.7290659,92.1012317 L31.7290659,94.7933444 L33.153139,94.7933444 L33.153139,97.4854571 L34.5772122,97.4854571 L34.5772122,100.17757 L36.0012853,100.17757 L36.0012853,102.869683 L37.4253585,102.869683 L37.4253585,105.561795 L38.2798024,105.561795 L38.2798024,116.330246 L37.4253585,116.330246 L37.4253585,119.022359 L36.0012853,119.022359 L36.0012853,121.714471 L34.5772122,121.714471 L34.5772122,124.406584 L33.153139,124.406584 L33.153139,127.098697 L31.7290659,127.098697 L31.7290659,129.79081 L30.3049927,129.79081 L30.3049927,136.790303 L27.4568464,136.790303 L27.4568464,135.175035 L26.0327732,135.175035 L26.0327732,132.482922 L24.6087001,132.482922 L24.6087001,129.79081 L23.1846269,129.79081 L23.1846269,127.098697 L21.7605538,127.098697 L21.7605538,119.022359 L23.1846269,119.022359 L23.1846269,121.714471 L24.6087001,121.714471 L24.6087001,124.406584 L26.0327732,124.406584 L26.0327732,127.098697 L27.4568464,127.098697 L27.4568464,124.406584 L28.8809195,124.406584 L28.8809195,121.714471 L30.3049927,121.714471 L30.3049927,119.022359 L31.7290659,119.022359 L31.7290659,116.330246 L33.153139,116.330246 L33.153139,113.638133 L34.5772122,113.638133 L34.5772122,110.946021 L33.153139,110.946021 L33.153139,108.253908 L31.7290659,108.253908 L31.7290659,105.561795 L27.4568464,105.561795 L27.4568464,108.253908 L30.3049927,108.253908 L30.3049927,110.946021 L28.8809195,110.946021 L28.8809195,113.638133 L27.4568464,113.638133 L27.4568464,116.330246 L26.0327732,116.330246 L26.0327732,113.638133 L24.6087001,113.638133 L24.6087001,110.946021 L23.1846269,110.946021 L23.1846269,108.253908 L21.7605538,108.253908 L21.7605538,102.869683 L21.7605538,102.869683 L21.7605538,102.869683 L21.7605538,102.869683 L21.7605538,102.869683 Z M21.7605538,113.863923 L23.3721878,113.863923 L23.3721878,116.920774 L21.7605538,116.920774 L21.7605538,113.863923 L21.7605538,113.863923 L21.7605538,113.863923 L21.7605538,113.863923 L21.7605538,113.863923 Z M37.4739854,121.50605 L38.4409658,121.50605 L38.4409658,124.5629 L37.4739854,124.5629 L37.4739854,121.50605 L37.4739854,121.50605 L37.4739854,121.50605 L37.4739854,121.50605 L37.4739854,121.50605 Z M34.6536259,126.855538 L36.0483091,126.855538 L36.0483091,129.615195 L37.4429924,129.615195 L37.4429924,132.374852 L38.2798024,132.374852 L38.2798024,136.790303 L37.4429924,136.790303 L37.4429924,135.134508 L36.0483091,135.134508 L36.0483091,132.374852 L34.6536259,132.374852 L34.6536259,126.855538 L34.6536259,126.855538 L34.6536259,126.855538 L34.6536259,126.855538 L34.6536259,126.855538 Z M31.8332663,135.261877 L33.4449004,135.261877 L33.4449004,137.095988 L31.8332663,137.095988 L31.8332663,135.261877 L31.8332663,135.261877 L31.8332663,135.261877 L31.8332663,135.261877 L31.8332663,135.261877 Z" id="ornament" fill="#E94B35" transform="translate(30.100760, 113.252554) scale(-1, -1) translate(-30.100760, -113.252554) "></path>
                <path d="M37.2322413,132.510712 L37.9574766,132.510712 L37.9574766,137.8602 L37.2322413,137.8602 L37.2322413,132.510712 L37.2322413,132.510712 L37.2322413,132.510712 L37.2322413,132.510712 L37.2322413,132.510712 Z M24.661496,138.624413 L26.0313849,138.624413 L26.0313849,141.375578 L27.4012738,141.375578 L27.4012738,144.126744 L28.7711627,144.126744 L28.7711627,146.877909 L27.4012738,146.877909 L27.4012738,149.629075 L26.0313849,149.629075 L26.0313849,152.38024 L24.661496,152.38024 L24.661496,149.629075 L23.2916071,149.629075 L23.2916071,146.877909 L21.9217182,146.877909 L21.9217182,144.126744 L23.2916071,144.126744 L23.2916071,141.375578 L24.661496,141.375578 L24.661496,138.624413 L24.661496,138.624413 L24.661496,138.624413 L24.661496,138.624413 L24.661496,138.624413 Z M24.7420777,143.973901 L25.9508032,143.973901 L25.9508032,147.030752 L24.7420777,147.030752 L24.7420777,143.973901 L24.7420777,143.973901 L24.7420777,143.973901 L24.7420777,143.973901 L24.7420777,143.973901 Z M33.1225746,138.624413 L34.4924635,138.624413 L34.4924635,141.375578 L35.8623524,141.375578 L35.8623524,144.126744 L37.2322413,144.126744 L37.2322413,146.877909 L35.8623524,146.877909 L35.8623524,149.629075 L34.4924635,149.629075 L34.4924635,152.38024 L33.1225746,152.38024 L33.1225746,149.629075 L31.7526856,149.629075 L31.7526856,146.877909 L30.3827967,146.877909 L30.3827967,144.126744 L31.7526856,144.126744 L31.7526856,141.375578 L33.1225746,141.375578 L33.1225746,138.624413 L33.1225746,138.624413 L33.1225746,138.624413 L33.1225746,138.624413 L33.1225746,138.624413 Z M32.8002477,143.973901 L34.0089733,143.973901 L34.0089733,147.030752 L32.8002477,147.030752 L32.8002477,143.973901 L32.8002477,143.973901 L32.8002477,143.973901 L32.8002477,143.973901 L32.8002477,143.973901 Z M21.9217182,154.672878 L23.1304437,154.672878 L23.1304437,157.729729 L21.9217182,157.729729 L21.9217182,154.672878 L21.9217182,154.672878 L21.9217182,154.672878 L21.9217182,154.672878 L21.9217182,154.672878 Z M37.2322413,152.38024 L37.9574766,152.38024 L37.9574766,157.729729 L37.2322413,157.729729 L37.2322413,152.38024 L37.2322413,152.38024 L37.2322413,152.38024 L37.2322413,152.38024 L37.2322413,152.38024 Z" id="ornament" fill="#E94B35" transform="translate(29.939597, 145.120221) scale(1, -1) translate(-29.939597, -145.120221) "></path>
                <path d="M4.98339844,102.869683 L6.4074716,102.869683 L6.4074716,100.17757 L7.83154476,100.17757 L7.83154476,97.4854571 L9.25561791,97.4854571 L9.25561791,94.7933444 L10.6796911,94.7933444 L10.6796911,92.1012317 L12.1037642,92.1012317 L12.1037642,89.409119 L13.5278374,89.409119 L13.5278374,92.1012317 L14.9519105,92.1012317 L14.9519105,94.7933444 L16.3759837,94.7933444 L16.3759837,97.4854571 L17.8000569,97.4854571 L17.8000569,100.17757 L19.22413,100.17757 L19.22413,102.869683 L20.6482032,102.869683 L20.6482032,105.561795 L21.5026471,105.561795 L21.5026471,116.330246 L20.6482032,116.330246 L20.6482032,119.022359 L19.22413,119.022359 L19.22413,121.714471 L17.8000569,121.714471 L17.8000569,124.406584 L16.3759837,124.406584 L16.3759837,127.098697 L14.9519105,127.098697 L14.9519105,129.79081 L13.5278374,129.79081 L13.5278374,136.790303 L10.6796911,136.790303 L10.6796911,135.175035 L9.25561791,135.175035 L9.25561791,132.482922 L7.83154476,132.482922 L7.83154476,129.79081 L6.4074716,129.79081 L6.4074716,127.098697 L4.98339844,127.098697 L4.98339844,119.022359 L6.4074716,119.022359 L6.4074716,121.714471 L7.83154476,121.714471 L7.83154476,124.406584 L9.25561791,124.406584 L9.25561791,127.098697 L10.6796911,127.098697 L10.6796911,124.406584 L12.1037642,124.406584 L12.1037642,121.714471 L13.5278374,121.714471 L13.5278374,119.022359 L14.9519105,119.022359 L14.9519105,116.330246 L16.3759837,116.330246 L16.3759837,113.638133 L17.8000569,113.638133 L17.8000569,110.946021 L16.3759837,110.946021 L16.3759837,108.253908 L14.9519105,108.253908 L14.9519105,105.561795 L10.6796911,105.561795 L10.6796911,108.253908 L13.5278374,108.253908 L13.5278374,110.946021 L12.1037642,110.946021 L12.1037642,113.638133 L10.6796911,113.638133 L10.6796911,116.330246 L9.25561791,116.330246 L9.25561791,113.638133 L7.83154476,113.638133 L7.83154476,110.946021 L6.4074716,110.946021 L6.4074716,108.253908 L4.98339844,108.253908 L4.98339844,102.869683 L4.98339844,102.869683 L4.98339844,102.869683 L4.98339844,102.869683 L4.98339844,102.869683 Z M4.98339844,113.863923 L6.59503245,113.863923 L6.59503245,116.920774 L4.98339844,116.920774 L4.98339844,113.863923 L4.98339844,113.863923 L4.98339844,113.863923 L4.98339844,113.863923 L4.98339844,113.863923 Z M20.6968301,121.50605 L21.6638105,121.50605 L21.6638105,124.5629 L20.6968301,124.5629 L20.6968301,121.50605 L20.6968301,121.50605 L20.6968301,121.50605 L20.6968301,121.50605 L20.6968301,121.50605 Z M17.8764705,126.855538 L19.2711538,126.855538 L19.2711538,129.615195 L20.6658371,129.615195 L20.6658371,132.374852 L21.5026471,132.374852 L21.5026471,136.790303 L20.6658371,136.790303 L20.6658371,135.134508 L19.2711538,135.134508 L19.2711538,132.374852 L17.8764705,132.374852 L17.8764705,126.855538 L17.8764705,126.855538 L17.8764705,126.855538 L17.8764705,126.855538 L17.8764705,126.855538 Z M15.056111,135.261877 L16.667745,135.261877 L16.667745,137.095988 L15.056111,137.095988 L15.056111,135.261877 L15.056111,135.261877 L15.056111,135.261877 L15.056111,135.261877 L15.056111,135.261877 Z" id="ornament" fill="#E94B35" transform="translate(13.323604, 113.252554) scale(1, -1) translate(-13.323604, -113.252554) "></path>
            </g>
        </g>
    </g>
</svg>