<?xml version="1.0" encoding="UTF-8" standalone="no"?>
<svg width="180px" height="180px" viewBox="0 0 180 180" version="1.1" xmlns="http://www.w3.org/2000/svg" xmlns:xlink="http://www.w3.org/1999/xlink">
    <!-- Generator: Sketch 3.8.3 (29802) - http://www.bohemiancoding.com/sketch -->
    <title>belize</title>
    <desc>Created with Sketch.</desc>
    <defs></defs>
    <g id="Page-1" stroke="none" stroke-width="1" fill="none" fill-rule="evenodd">
        <g id="flags" transform="translate(-450.000000, -720.000000)">
            <g id="belize" transform="translate(450.000000, 720.000000)">
                <path d="M146.573345,160 C166.963332,143.500445 180,118.272662 180,90 C180,61.727338 166.963332,36.4995547 146.573345,20 L33.4266546,20 C13.0366681,36.4995547 0,61.727338 0,90 C0,118.272662 13.0366681,143.500445 33.4266546,160 L146.573345,160 L146.573345,160 Z" id="blue" fill="#227FBB"></path>
                <path d="M33.4266546,20 L146.573345,20 C131.116084,7.49200111 111.432968,0 90,0 C68.5670321,0 48.8839158,7.49200111 33.4266546,20 L33.4266546,20 Z M146.573345,160 L33.4266546,160 C48.8839158,172.507999 68.5670321,180 90,180 C111.432968,180 131.116084,172.507999 146.573345,160 L146.573345,160 Z" id="red" fill="#E94B35"></path>
                <g id="emblem" transform="translate(31.500000, 31.500000)">
                    <path d="M60.75,121.5 C94.3013002,121.5 121.5,94.3013002 121.5,60.75 C121.5,27.1986998 94.3013002,0 60.75,0 C27.1986998,0 0,27.1986998 0,60.75 C0,94.3013002 27.1986998,121.5 60.75,121.5 L60.75,121.5 Z" id="Oval-22" fill="#FFFFFF"></path>
                    <path d="M15.0500632,60.8759043 C15.0500632,35.3124517 35.5358237,14.5917979 60.8036211,14.5917979 C86.0714185,14.5917979 106.557179,35.3124517 106.557179,60.8759043 C106.557179,86.439225 86.0712647,107.160298 60.8036211,107.160298 C35.5359774,107.160298 15.0500632,86.4392251 15.0500632,60.8759043 Z M107.557179,60.8759043 C107.557179,34.7627029 86.6262714,13.5917979 60.8036211,13.5917979 C34.9809708,13.5917979 14.0500632,34.7627029 14.0500632,60.8759043 C14.0500632,86.988971 34.9811216,108.160298 60.8036211,108.160298 C86.6261205,108.160298 107.557179,86.988971 107.557179,60.8759043 Z" id="path558" fill="#552300"></path>
                    <path d="M58.0887217,11.1199454 C62.3072012,6.67280522 66.1214467,11.8097927 66.019864,14.2168267 C65.9180482,16.6238606 61.6632226,21.9342572 57.813097,17.660526 C61.8016174,18.6639668 62.9935837,14.2818186 65.0110262,14.2383935 C62.9938167,14.2821101 62.1692724,9.94309553 58.0887217,11.1199454 C58.0887217,11.1199454 62.1692724,9.94309553 58.0887217,11.1199454 C58.0887217,11.1199454 62.1692724,9.94309553 58.0887217,11.1199454 L58.0887217,11.1199454 L58.0887217,11.1199454 L58.0887217,11.1199454 Z M70.0530667,12.0433008 C75.2221,8.74880221 77.6802963,14.6559488 76.9994168,16.9669084 C76.3183112,19.2778117 70.9051709,23.4011313 68.2033196,18.3229185 C71.8306096,20.2614633 74.047307,16.2978464 76.0153283,16.7437747 C74.0474625,16.2981855 74.2971134,11.8885829 70.0530667,12.0433008 C70.0530667,12.0433008 74.2971134,11.8885829 70.0530667,12.0433008 C70.0530667,12.0433008 74.2971134,11.8885829 70.0530667,12.0433008 L70.0530667,12.0433008 L70.0530667,12.0433008 L70.0530667,12.0433008 Z M82.2164629,16.2407686 C88.0620446,14.3963717 88.9075978,20.7384651 87.6517984,22.7944561 C86.3957951,24.8503342 80.0999094,27.4321312 78.8044597,21.8276638 C81.8064205,24.638966 84.9734453,21.3841296 86.7589932,22.3242246 C84.9735078,21.3844974 86.3559411,17.1897628 82.2164629,16.2407686 C82.2164629,16.2407686 86.3559411,17.1897628 82.2164629,16.2407686 C82.2164629,16.2407686 86.3559411,17.1897628 82.2164629,16.2407686 L82.2164629,16.2407686 L82.2164629,16.2407686 L82.2164629,16.2407686 Z M92.2420172,22.9059104 C98.3601602,22.530474 97.6463056,28.888738 95.9304195,30.579852 C94.214363,32.270807 87.4808988,33.252801 87.5797728,27.5014126 C89.812447,30.9554472 93.6728138,28.5634659 95.1778937,29.9075992 C93.6727855,28.5638379 96.0289527,24.8281457 92.2420172,22.9059104 C92.2420172,22.9059104 96.0289527,24.8281457 92.2420172,22.9059104 C92.2420172,22.9059104 96.0289527,24.8281457 92.2420172,22.9059104 L92.2420172,22.9059104 L92.2420172,22.9059104 L92.2420172,22.9059104 Z M100.869994,32.5308653 C106.876837,33.7517135 104.541666,39.7085658 102.446555,40.8979524 C100.351321,42.0871414 93.5931349,41.2929261 95.1772087,35.7631019 C96.4398365,39.6773017 100.787755,38.3659617 101.893663,40.0538381 C100.787631,38.3663137 104.030382,35.3677331 100.869994,32.5308653 C100.869994,32.5308653 104.030382,35.3677331 100.869994,32.5308653 C100.869994,32.5308653 104.030382,35.3677331 100.869994,32.5308653 L100.869994,32.5308653 L100.869994,32.5308653 L100.869994,32.5308653 Z M106.442744,43.2664385 C111.975808,45.9042091 108.268909,51.1191885 105.948293,51.766392 C103.627605,52.4133738 97.2623042,50.007797 100.13711,45.0254544 C100.415301,49.128843 104.95131,48.908312 105.616034,50.8135948 C104.951105,48.9086237 108.822955,46.7836062 106.442744,43.2664385 C106.442744,43.2664385 108.822955,46.7836062 106.442744,43.2664385 C106.442744,43.2664385 108.822955,46.7836062 106.442744,43.2664385 L106.442744,43.2664385 L106.442744,43.2664385 L106.442744,43.2664385 Z M109.279332,55.0426067 C114.009906,58.9405934 109.1515,63.1038857 106.743243,63.1704566 C104.33497,63.2367951 98.7407082,59.3627685 102.735457,55.2239012 C102.012686,59.2727023 106.467307,60.1560818 106.651356,62.1655807 C106.467033,60.1563345 110.73796,59.0311244 109.279332,55.0426067 C109.279332,55.0426067 110.73796,59.0311244 109.279332,55.0426067 C109.279332,55.0426067 110.73796,59.0311244 109.279332,55.0426067 L109.279332,55.0426067 L109.279332,55.0426067 L109.279332,55.0426067 Z M109.094265,68.0192672 C112.654775,73.0087958 106.884376,75.7727793 104.540949,75.2137792 C102.197567,74.6545504 97.796596,69.4646265 102.726445,66.5007049 C100.980395,70.2244794 105.054593,72.2306992 104.712274,74.2193615 C105.054262,72.2308723 109.470887,72.2494002 109.094265,68.0192672 C109.094265,68.0192672 109.470887,72.2494002 109.094265,68.0192672 C109.094265,68.0192672 109.470887,72.2494002 109.094265,68.0192672 L109.094265,68.0192672 L109.094265,68.0192672 L109.094265,68.0192672 Z M105.9231,79.7032787 C108.170771,85.4059622 101.903109,86.6918578 99.7645265,85.5825361 C97.6260421,84.4730032 94.6113554,78.372551 100.111805,76.689309 C97.5167568,79.8800638 100.984585,82.8123279 100.171334,84.659104 C100.984223,82.8124159 105.265173,83.8988718 105.9231,79.7032787 C105.9231,79.7032787 105.265173,83.8988718 105.9231,79.7032787 C105.9231,79.7032787 105.265173,83.8988718 105.9231,79.7032787 L105.9231,79.7032787 L105.9231,79.7032787 L105.9231,79.7032787 Z M99.5316834,90.9573627 C100.226804,97.0474721 93.8398936,96.6673617 92.0612947,95.0423332 C90.2828456,93.4171263 88.9497951,86.7442836 94.6984761,86.5420177 C91.3660243,88.9524023 93.9567635,92.682292 92.693242,94.2556558 C93.9563904,92.6822832 97.8102753,94.8397104 99.5316834,90.9573627 C99.5316834,90.9573627 97.8102753,94.8397104 99.5316834,90.9573627 C99.5316834,90.9573627 97.8102753,94.8397104 99.5316834,90.9573627 L99.5316834,90.9573627 L99.5316834,90.9573627 L99.5316834,90.9573627 Z M91.1479675,99.6193279 C90.3491093,105.6967 84.2438744,103.782747 82.9112375,101.775707 C81.5787891,99.7685296 81.8996426,92.9714048 87.5264958,94.1658789 C83.7099072,95.6984717 85.3213484,99.9443242 83.7147277,101.165279 C85.3209886,99.9442254 88.5384677,102.969907 91.1479675,99.6193279 C91.1479675,99.6193279 88.5384677,102.969907 91.1479675,99.6193279 C91.1479675,99.6193279 88.5384677,102.969907 91.1479675,99.6193279 L91.1479675,99.6193279 L91.1479675,99.6193279 L91.1479675,99.6193279 Z M80.9367303,105.974045 C78.6913522,111.677632 73.230496,108.343541 72.4229911,106.073725 C71.6157022,103.803821 73.5713983,97.286221 78.7421404,99.8064731 C74.6681531,100.370225 75.2045629,104.879801 73.3502901,105.675811 C75.2042377,104.879618 77.5941653,108.593802 80.9367303,105.974045 C80.9367303,105.974045 77.5941653,108.593802 80.9367303,105.974045 C80.9367303,105.974045 77.5941653,108.593802 80.9367303,105.974045 L80.9367303,105.974045 L80.9367303,105.974045 L80.9367303,105.974045 Z M68.6589565,109.796594 C65.0138909,114.724689 60.602035,110.090832 60.4095169,107.68936 C60.21723,105.287859 63.7931663,99.4985127 68.1354305,103.271176 C64.0543512,102.761293 63.4053192,107.256041 61.4082066,107.545007 C63.4050524,107.25578 64.7522435,111.461966 68.6589565,109.796594 C68.6589565,109.796594 64.7522435,111.461966 68.6589565,109.796594 C68.6589565,109.796594 64.7522435,111.461966 68.6589565,109.796594 L68.6589565,109.796594 L68.6589565,109.796594 L68.6589565,109.796594 Z M56.673514,110.352569 C51.9445083,114.252457 48.784735,108.68892 49.1789042,106.312208 C49.5733046,103.935524 54.44359,99.183243 57.7441805,103.894331 C53.9076786,102.412291 52.1905475,106.616511 50.1828505,106.413748 C52.1903518,106.616194 52.4799572,111.023352 56.673514,110.352569 C56.673514,110.352569 52.4799572,111.023352 56.673514,110.352569 C56.673514,110.352569 52.4799572,111.023352 56.673514,110.352569 L56.673514,110.352569 L56.673514,110.352569 L56.673514,110.352569 Z M44.0954242,107.68302 C38.51819,110.226066 36.9060326,104.034293 37.9019093,101.840584 C38.8980019,99.6469615 44.8323172,96.3171333 46.8011236,101.72195 C43.4789274,99.29745 40.7321739,102.913989 38.8453664,102.198504 C40.732067,102.913631 39.8711477,107.245575 44.0954242,107.68302 C44.0954242,107.68302 39.8711477,107.245575 44.0954242,107.68302 C44.0954242,107.68302 39.8711477,107.245575 44.0954242,107.68302 L44.0954242,107.68302 L44.0954242,107.68302 L44.0954242,107.68302 Z M33.341253,102.300836 C27.314468,103.419088 27.2481241,97.0212203 28.7451253,95.1335978 C30.242315,93.2461122 36.805914,91.4508349 37.4086949,97.1714031 C34.7717218,94.0152089 31.2316388,96.8598211 29.5739689,95.7091298 C31.2316216,96.8594483 29.3482832,100.85444 33.341253,102.300836 C33.341253,102.300836 29.3482832,100.85444 33.341253,102.300836 C33.341253,102.300836 29.3482832,100.85444 33.341253,102.300836 L33.341253,102.300836 L33.341253,102.300836 L33.341253,102.300836 Z M24.1937734,94.4520986 C18.07548,94.0791224 19.5588911,87.8552489 21.4680821,86.3858542 C23.377423,84.916638 30.180372,84.7625664 29.381317,90.4590352 C27.5862258,86.758652 23.4631243,88.6623434 22.1330717,87.1448059 C23.4631978,88.6619776 20.6693267,92.0826799 24.1937734,94.4520986 C24.1937734,94.4520986 20.6693267,92.0826799 24.1937734,94.4520986 C24.1937734,94.4520986 20.6693267,92.0826799 24.1937734,94.4520986 L24.1937734,94.4520986 L24.1937734,94.4520986 L24.1937734,94.4520986 Z M16.7907588,83.8379035 C10.9774745,81.8941053 14.0211965,76.2662402 16.2456409,75.3410489 C18.4701836,74.4160688 25.0812044,76.0279799 22.835022,81.3235355 C22.0588266,77.284636 17.5835049,78.0563235 16.6915403,76.2462519 C17.5836706,78.0559892 13.9996554,80.6370269 16.7907588,83.8379035 C16.7907588,83.8379035 13.9996554,80.6370269 16.7907588,83.8379035 C16.7907588,83.8379035 13.9996554,80.6370269 16.7907588,83.8379035 L16.7907588,83.8379035 L16.7907588,83.8379035 L16.7907588,83.8379035 Z M12.5545136,72.4975032 C7.38415607,69.2050833 11.6989703,64.4807329 14.0811632,64.1211655 C16.4634005,63.7618269 22.4880891,66.925208 19.027517,71.5200623 C19.2514762,67.4133567 14.7224025,67.0794435 14.2948291,65.107353 C14.7226442,67.0791591 10.62068,68.7164772 12.5545136,72.4975032 C12.5545136,72.4975032 10.62068,68.7164772 12.5545136,72.4975032 C12.5545136,72.4975032 10.62068,68.7164772 12.5545136,72.4975032 L12.5545136,72.4975032 L12.5545136,72.4975032 L12.5545136,72.4975032 Z M11.1722429,59.5935475 C7.03020198,55.0751271 12.4207444,51.6285111 14.8148288,51.8977526 C17.2088971,52.1672265 22.2095561,56.7821222 17.6776644,60.3247486 C18.956886,56.4159405 14.6685598,54.9211946 14.7659702,52.9056373 C14.6688668,54.9209825 10.2829046,55.4408439 11.1722429,59.5935475 C11.1722429,59.5935475 10.2829046,55.4408439 11.1722429,59.5935475 C11.1722429,59.5935475 10.2829046,55.4408439 11.1722429,59.5935475 L11.1722429,59.5935475 L11.1722429,59.5935475 L11.1722429,59.5935475 Z M12.9095155,47.6052094 C9.98361569,42.2189551 16.0478478,40.1788085 18.3056823,41.0192339 C20.5634448,41.8598808 24.2991187,47.5474632 19.0448046,49.8884947 C21.2316541,46.4052666 17.4323213,43.917481 18.0144456,41.9853601 C17.4326705,43.9173495 13.0512242,43.3607085 12.9095155,47.6052094 C12.9095155,47.6052094 13.0512242,43.3607085 12.9095155,47.6052094 C12.9095155,47.6052094 13.0512242,43.3607085 12.9095155,47.6052094 L12.9095155,47.6052094 L12.9095155,47.6052094 L12.9095155,47.6052094 Z M17.4672994,36.3997062 C15.9313642,30.4656075 22.3090189,29.9531325 24.2964688,31.3148132 C26.2837952,32.6766915 28.5325528,39.0990697 22.8679675,40.0994289 C25.8325274,37.2487144 22.7479009,33.9156849 23.7801559,32.1817848 C22.7482715,33.9156418 18.6316366,32.3155676 17.4672994,36.3997062 C17.4672994,36.3997062 18.6316366,32.3155676 17.4672994,36.3997062 C17.4672994,36.3997062 18.6316366,32.3155676 17.4672994,36.3997062 L17.4672994,36.3997062 L17.4672994,36.3997062 L17.4672994,36.3997062 Z M25.1697585,26.0172235 C25.2220168,19.887795 31.5149965,21.0434407 33.0822967,22.8731131 C34.6494266,24.7029444 35.1593259,31.4885067 29.4288446,30.988677 C33.0302088,29.0023827 30.9133399,24.9845634 32.3591881,23.5769118 C30.913709,24.9846176 27.3514747,22.3736011 25.1697585,26.0172235 C25.1697585,26.0172235 27.3514747,22.3736011 25.1697585,26.0172235 C25.1697585,26.0172235 27.3514747,22.3736011 25.1697585,26.0172235 L25.1697585,26.0172235 L25.1697585,26.0172235 L25.1697585,26.0172235 Z M34.5370575,18.4524962 C36.0706065,12.5177803 41.8970817,15.1615079 42.9751887,17.3159955 C44.0530918,19.4705961 42.9062688,26.177954 37.4669271,24.3066424 C41.4418435,23.2505984 40.359853,18.8400085 42.1032951,17.8239525 C40.3601981,18.8401505 37.5354394,15.4449099 34.5370575,18.4524962 C34.5370575,18.4524962 37.5354394,15.4449099 34.5370575,18.4524962 C34.5370575,18.4524962 37.5354394,15.4449099 34.5370575,18.4524962 L34.5370575,18.4524962 L34.5370575,18.4524962 L34.5370575,18.4524962 Z M46.2608571,13.1469614 C49.2781692,7.81137777 54.221865,11.8730253 54.7056139,14.2331352 C55.1891367,16.5933013 52.3453988,22.7752919 47.5757293,19.5599385 C51.6885279,19.5686625 51.7849501,15.02832 53.7319604,14.4981213 C51.7852466,15.0285464 49.9354922,11.0178945 46.2608571,13.1469614 C46.2608571,13.1469614 49.9354922,11.0178945 46.2608571,13.1469614 C46.2608571,13.1469614 49.9354922,11.0178945 46.2608571,13.1469614 L46.2608571,13.1469614 L46.2608571,13.1469614 L46.2608571,13.1469614 Z" id="path-3" fill="#479951"></path>
                    <path d="M30.5803895,80.523 C31.0140947,80.7272234 30.5803895,79.0905638 30.7250526,78.4770319 C30.8981368,77.8342021 32.1415579,80.0550957 32.7492,80.3469255 C33.3849789,80.6683404 37.2596211,78.7984468 37.2596211,78.7984468 L38.1852947,77.0451702 L38.6766947,78.4770319 C38.6766947,78.4770319 39.7467474,77.220383 40.0644947,76.7519043 C40.3828105,76.2851489 40.0644947,77.6877128 39.7467474,78.1559043 C39.429,78.623234 40.6721368,78.7978723 40.5271895,79.7331064 C40.3828105,80.6689149 41.7706105,79.0911383 41.7706105,79.0911383 L45.3559263,79.4125532 C45.3559263,79.4125532 45.9632842,77.220383 46.9176632,75.963734 L47.2069895,77.3665851 L48.6814737,75.8468298 C50.3293263,80.2305957 53.7998211,84.9955213 60.9119053,87.5955638 C67.5911368,85.1405745 71.0320737,80.7855319 72.8245895,76.6361489 L74.8200316,78.7108404 C74.8200316,78.7108404 76.3812,78.2437979 76.6708105,78.0682979 C76.9888421,77.9218085 80.3430947,79.2666383 80.3430947,79.2666383 C80.3430947,79.2666383 80.9507368,79.5001596 81.2687684,79.735117 C81.5868,79.9680638 81.3554526,78.7114149 81.3554526,78.7114149 C81.3554526,78.7114149 83.061,79.0328298 82.9166211,79.9680638 C82.9166211,79.9680638 83.2920632,79.0917128 83.6098105,78.9449362 C83.9281263,78.7990213 84.6801474,79.7342553 84.8532316,80.0556702 C84.9976105,80.3477872 88.6701789,80.8156915 89.1902842,81.1371064 C89.1902842,81.1371064 89.5952842,81.6044362 89.5952842,81.9264255 C89.5952842,81.9264255 90.3762947,81.8385319 90.9836526,81.8385319 C90.9836526,81.8385319 90.5209579,82.0720532 90.5209579,82.5689681 C90.5209579,83.0368723 90.2896105,83.4160213 89.8269158,83.6504043 C89.3642211,83.8847872 89.8269158,84.06 90.4342737,84.1183085 C91.0703368,84.2062021 90.4342737,84.9955213 89.1908526,85.4628511 C89.1908526,85.4628511 88.9015263,86.1634149 89.4222,86.3980851 C89.4222,86.3980851 88.3521474,86.486266 88.1787789,86.1648511 C88.1787789,86.1648511 87.8030526,86.8955745 87.8030526,87.2755851 C87.8030526,87.2755851 86.6471684,86.8955745 86.3285684,86.7189255 C86.3285684,86.7189255 85.8658737,87.1874043 86.1839053,87.4203511 C86.1839053,87.4203511 84.0727895,87.187117 83.6683579,86.3972234 C83.6683579,86.3972234 82.9169053,86.6304574 83.0612842,86.8938511 C83.0612842,86.8938511 81.5868,85.8707234 81.1241053,85.8707234 L80.8060737,86.3969362 C80.8060737,86.3969362 79.794,85.7828298 79.4759684,85.7828298 C79.1863579,85.7828298 79.4179895,86.2510213 79.4179895,86.2510213 L78.0014842,85.3735213 L77.4521053,86.2510213 C77.4521053,86.2510213 76.2956526,85.6955106 75.9776211,85.4617021 C75.6880105,85.2273191 75.6024632,85.9290319 75.3702632,86.0160638 C75.3702632,86.0160638 74.9078526,85.3740957 74.2720737,85.4617021 C74.2720737,85.4617021 74.0410105,86.2510213 74.1276947,86.4839681 C74.1276947,86.4839681 72.3343263,86.1056809 72.0165789,86.0166383 C71.6982632,85.9296064 71.8719158,86.3969362 72.0165789,86.7183511 C72.0165789,86.7183511 70.6867579,86.3392021 70.3977158,86.1051064 L70.3110316,86.7183511 C70.3110316,86.7183511 69.2119895,86.6301702 68.9806421,86.3969362 L68.2866,87.3614681 L67.2750947,87.3614681 L67.0437474,88.208234 C67.0437474,88.208234 65.1068526,87.6532979 64.9329158,87.975 C64.7882526,88.2958404 65.0198842,88.7640319 65.0198842,88.7640319 C65.0198842,88.7640319 63.4587158,88.7640319 63.3137684,88.5307979 L63.1693895,89.2319362 C63.1693895,89.2319362 61.2029368,88.6175426 60.7408105,88.9099468 C60.7408105,88.9099468 60.1334526,89.5530638 59.7287368,89.699266 C59.3530105,89.8741915 59.7287368,89.4660319 59.7287368,89.4660319 L59.1210947,88.6186915 C59.1210947,88.6186915 58.4273368,88.9984149 58.0226211,88.8516383 C57.6471789,88.6772872 56.4040421,89.4654574 55.9990421,89.2319362 C55.9990421,89.2319362 55.9990421,88.6767128 55.6810105,88.5307979 C55.3911158,88.3843085 54.8423053,88.3843085 54.6106737,88.7646064 C54.6106737,88.7646064 54.3796105,88.442617 53.9748947,87.8293723 C53.5991684,87.1859681 53.0492211,87.8873936 53.0492211,87.8873936 L52.9622526,87.1276596 C52.9622526,87.1276596 52.5001263,87.1276596 51.8922,87.039766 C51.2567053,86.9521596 51.1117579,86.3977979 51.1117579,86.3977979 C51.1117579,86.3977979 49.4641895,86.5724362 49.2328421,86.4848298 L49.6375579,86.1056809 C49.6375579,86.1056809 47.3823474,86.5730106 46.9199368,86.3980851 C46.4282526,86.2521702 47.4406105,85.608766 47.4406105,85.608766 C47.4406105,85.608766 45.3587684,85.0825532 44.9540526,84.9955213 C44.5783263,84.9079149 42.3222632,85.3740957 42.0045158,85.3740957 C41.6867684,85.3740957 41.5418211,84.8484574 41.5418211,84.8484574 C41.5418211,84.8484574 40.9921579,85.3163617 40.5294632,85.4628511 C40.5294632,85.4628511 40.1540211,84.5270426 40.3850842,84.4394362 C40.3850842,84.4394362 38.9106,84.8490319 38.8233474,85.2284681 C38.8233474,85.2284681 38.4484737,84.6152234 38.5056,84.352117 C38.5056,84.352117 37.8124105,85.4628511 37.4940947,85.6960851 C37.1757789,85.9296064 37.4361158,85.1402872 37.4361158,85.1402872 C37.4361158,85.1402872 36.5684211,86.2510213 36.2506737,86.3392021 L36.2506737,85.549883 C36.2506737,85.549883 33.7641158,86.8947128 33.0700737,86.7189255 C33.0700737,86.7189255 33.0700737,86.1625532 33.3014211,86.0166383 C33.3014211,86.0166383 32.1446842,86.0166383 31.7402526,85.9296064 C31.3645263,85.8718723 30.9018316,85.6963723 30.4968316,85.608766 C30.1211053,85.549883 31.0464947,85.1402872 31.6822737,85.3157872 C31.6822737,85.3157872 29.9474526,84.6735319 29.4270632,84.9943723 C29.4270632,84.9943723 29.1957158,84.3509681 30.1205368,84.1174468 C30.1205368,84.1174468 28.9353789,82.9484043 28.2416211,83.0362979 C28.2416211,83.0362979 29.0226316,82.5689681 29.6578421,82.8019149 C29.6578421,82.8019149 28.9348105,80.8142553 28.4724,80.5815957 C28.4724,80.5815957 30.1205368,80.2891915 30.5838,80.5232872" id="path18" fill="#479951"></path>
                    <path d="M50.1556737,78.9443617 C49.4036526,77.6584149 48.8252842,76.3434574 48.3915789,75.0577979 L60.9116211,63.921734 L73.4325158,75.0279255 C72.9988105,76.3132979 72.4201579,77.6877128 71.6110105,79.0032447 L71.5109684,79.1649574 C71.2801895,79.0779255 70.5696632,78.7984468 70.5696632,78.7984468 C70.5696632,78.7984468 70.1646632,79.1787447 69.8474842,79.2074681 C69.4137789,79.2663511 69.0377684,78.8283191 69.0377684,78.8283191 C69.0377684,78.8283191 68.4881053,79.2956489 67.9390105,79.2074681 C67.3893474,79.149734 67.158,78.7984468 67.158,78.7984468 C67.158,78.7984468 66.5799158,79.2663511 66.1749158,79.1787447 C65.7991895,79.0899894 65.5388526,78.826883 65.5388526,78.826883 C65.5388526,78.826883 65.1921158,79.2660638 64.7004316,79.1787447 C64.2380211,79.0899894 63.8043158,78.826883 63.8043158,78.826883 C63.8043158,78.826883 63.0821368,79.1477234 62.6188737,79.2066064 C62.1567474,79.2950745 61.7514632,78.7975851 61.7514632,78.7975851 C61.7514632,78.7975851 61.1443895,79.2066064 60.9133263,79.2066064 C60.6819789,79.2066064 59.8145684,78.7975851 59.8145684,78.7975851 C59.8145684,78.7975851 58.9181684,79.0899894 58.6004211,79.0899894 C58.3108105,79.0899894 57.4149789,78.7105532 57.4149789,78.7105532 C57.4149789,78.7105532 56.5765579,78.9437872 56.2011158,78.9437872 C55.7958316,78.9437872 55.2180316,78.7105532 55.2180316,78.7105532 C55.2180316,78.7105532 54.5251263,79.0319681 54.1482632,78.9437872 C53.7435474,78.8567553 53.4252316,78.7105532 53.4252316,78.7105532 C53.4252316,78.7105532 52.6734947,79.0319681 52.1818105,78.9437872 C51.7191158,78.8567553 51.1697368,78.5359149 51.1697368,78.5359149 C51.1697368,78.5359149 51.0830526,78.7691489 50.1869368,78.9437872 L50.1573789,78.9437872" id="path22" fill="#9DD7FF"></path>
                    <path d="M55.4084526,77.337 C56.9988947,77.8922234 58.8488225,78.1544901 61.5383053,78.1544681 C65.8330075,78.154433 66.9161368,77.2198085 66.9161368,77.2198085 L64.9792421,79.2068936 C64.9792421,79.2068936 57.0753474,79.7276489 55.7838947,78.7096915 C55.2348,78.4175745 54.0490737,77.4530426 52.8346421,76.2842872 C52.8346421,76.2845745 53.5286842,76.6642979 55.4084526,77.337 Z" id="path26" fill="#730000"></path>
                    <path d="M53.6150842,75.9631596 L56.6518737,72.9819574 L56.5072105,74.7648191 C56.5072105,74.7648191 54.9463263,75.7879468 54.9463263,76.5180957 L53.6156526,75.9617234" id="path50" fill="#FFFFFF"></path>
                    <path d="M55.2348,76.576117 C55.2348,76.576117 55.5525474,75.6420319 56.4202421,75.1735532 L56.3335579,77.0445957 L55.2348,76.577266" id="path54" fill="#FFFFFF"></path>
                    <polygon id="path32" fill="#000000" points="58.05 70.2940213 57.95 70.2940213 57.95 78.0091277 58.05 78.0091277"></polygon>
                    <polygon id="path34" fill="#000000" points="64.05 69.826117 63.95 69.826117 63.95 78.0091277 64.05 78.0091277"></polygon>
                    <polygon id="path36" fill="#000000" points="61.05 69.3585 60.95 69.3585 60.95 78.1550426 61.05 78.1550426"></polygon>
                    <path d="M59.6011263,71.4044681 C59.6011263,71.4044681 60.8445474,71.2292553 61.7699368,71.4044681 C61.7699368,71.4044681 61.6255579,72.661117 61.7699368,72.8946383 C61.7699368,72.8946383 60.0638211,72.4853298 59.3700632,73.1278723 C59.3697789,73.1278723 59.1384316,71.959117 59.6011263,71.4044681" id="path58" fill="#FFFFFF"></path>
                    <path d="M56.9696211,71.725883 C56.9696211,71.725883 58.2130421,71.5506702 59.1384316,71.725883 C59.1384316,71.725883 58.9073684,73.1284468 59.0511789,73.3616809 C59.0511789,73.3616809 57.6633789,72.5723617 56.9696211,73.215766 C56.9696211,73.215766 56.5066421,72.2520957 56.9696211,71.725883" id="path62" fill="#FFFFFF"></path>
                    <path d="M56.8832211,73.3616809 C56.8832211,73.3616809 58.1263579,73.2149043 59.0520316,73.3616809 C59.0520316,73.3616809 58.9073684,74.6183298 59.0520316,74.8518511 C59.0520316,74.8518511 57.4331684,74.4727021 56.7385579,75.0859468 C56.7388421,75.086234 56.4208105,73.916617 56.8832211,73.3616809" id="path66" fill="#FFFFFF"></path>
                    <path d="M59.3697789,73.1278723 C59.3697789,73.1278723 61.1631474,72.8940638 62.0874,73.040266 C62.0874,73.040266 61.7116737,74.0633936 62.1746526,74.7648191 C62.1746526,74.7648191 60.2371895,74.2386064 59.5141579,74.8518511 C59.5138737,74.8518511 58.9070842,73.6830957 59.3697789,73.1278723" id="path70" fill="#FFFFFF"></path>
                    <path d="M56.7385579,75.0868085 C56.7385579,75.0868085 58.2130421,75.0868085 59.1384316,75.261734 C59.1384316,75.261734 58.9073684,77.0445957 59.0511789,77.278117 C59.0511789,77.278117 57.1142842,76.8107872 56.7379895,77.453617 C56.7385579,77.453617 56.1019263,75.8172447 56.7385579,75.0868085" id="path74" fill="#FFFFFF"></path>
                    <path d="M59.4558947,75.0868085 C59.4558947,75.0868085 61.5377368,74.9403191 62.4926842,75.0868085 C62.4926842,75.0868085 61.9433053,76.4304894 62.5506632,77.6001064 C62.5506632,77.6001064 59.8327579,76.8107872 59.4567474,77.453617 C59.4567474,77.453617 58.8206842,75.8172447 59.4567474,75.0868085" id="path78" fill="#FFFFFF"></path>
                    <path d="M62.6370632,71.4044681 C62.6370632,71.4044681 63.8804842,71.2292553 64.8058737,71.4044681 C64.8058737,71.4044681 64.6614947,72.661117 64.8058737,72.8946383 C64.8058737,72.8946383 63.0997579,72.4853298 62.4062842,73.1278723 C62.4057158,73.1278723 62.1743684,71.959117 62.6370632,71.4044681" id="path82" fill="#FFFFFF"></path>
                    <path d="M62.6370632,73.1278723 C62.6370632,73.1278723 63.8804842,72.9819574 64.8058737,73.1278723 C64.8058737,73.1278723 64.6614947,74.3845213 64.8058737,74.6183298 C64.8058737,74.6183298 63.0997579,74.2386064 62.4062842,74.8512766 C62.4057158,74.8518511 62.1743684,73.6830957 62.6370632,73.1278723" id="path86" fill="#FFFFFF"></path>
                    <path d="M62.7811579,74.9397447 C62.7811579,74.9397447 64.0242947,74.7648191 64.9781053,74.9397447 C64.9781053,74.9397447 64.6600737,76.8975319 64.8050211,77.1322021 C64.8050211,77.1322021 63.3885158,76.4592128 62.7231789,77.0445957 C62.7231789,77.0445957 62.3184632,75.4964043 62.7811579,74.9397447" id="path90" fill="#FFFFFF"></path>
                    <path d="M71.5527474,79.1198617 C69.5578737,82.4813617 66.2903053,85.6369149 60.9124737,87.5949894 C55.4473895,85.6084787 52.1224105,82.3058617 50.1559579,78.9733723 L50.1852316,78.9440745 C51.0813474,78.768 51.1683158,78.5350532 51.1683158,78.5350532 C51.1683158,78.5350532 51.7176947,78.8564681 52.1803895,78.9440745 C52.6717895,79.0311064 53.4235263,78.710266 53.4235263,78.710266 C53.4235263,78.710266 53.7415579,78.8567553 54.1462737,78.9440745 C54.522,79.0311064 55.2163263,78.710266 55.2163263,78.710266 C55.2163263,78.710266 55.7944105,78.9440745 56.1991263,78.9440745 C56.5748526,78.9440745 57.4135579,78.710266 57.4135579,78.710266 C57.4135579,78.710266 58.3096737,79.0894149 58.5987158,79.0894149 C58.9170316,79.0894149 59.8128632,78.7970106 59.8128632,78.7970106 C59.8128632,78.7970106 60.6805579,79.2066064 60.9116211,79.2066064 C61.1424,79.2066064 61.7500421,78.7970106 61.7500421,78.7970106 C61.7500421,78.7970106 62.1544737,79.2936383 62.6171684,79.2066064 C63.0798632,79.1482979 63.8026105,78.8271702 63.8026105,78.8271702 C63.8026105,78.8271702 64.2360316,79.0902766 64.6990105,79.1775957 C65.1904105,79.2657766 65.5374316,78.8271702 65.5374316,78.8271702 C65.5374316,78.8271702 65.7977684,79.0902766 66.1734947,79.1775957 C66.5782105,79.2657766 67.1562947,78.7978723 67.1562947,78.7978723 C67.1562947,78.7978723 67.3873579,79.1488723 67.9373053,79.2068936 C68.4866842,79.2947872 69.0360632,78.8277447 69.0360632,78.8277447 C69.0360632,78.8277447 69.4112211,79.2657766 69.8454947,79.2068936 C70.1638105,79.1775957 70.5679579,78.7978723 70.5679579,78.7978723 C70.5679579,78.7978723 71.2909895,79.0311064 71.5510421,79.1198617" id="path102" fill="#006AC8"></path>
                    <path d="M60.9119053,63.9208723 L48.3918632,75.1158191 C47.178,71.5500957 47.0904632,68.3640957 47.0904632,66.9902553 L47.0904632,51.1194255 L60.9119053,51.1194255 L60.9119053,63.9208723 L60.9119053,63.9208723 L60.9119053,63.9208723 L60.9119053,63.9208723 L60.9119053,63.9208723 Z" id="path114" fill="#FFFFFF"></path>
                    <path d="M60.9119053,51.1194255 L60.9119053,63.9208723 L73.4032421,75.1158191 C74.6173895,71.5500957 74.7043579,68.3640957 74.7043579,66.9902553 L74.7043579,51.1194255 L60.9119053,51.1194255" id="path118" fill="#FFD83C"></path>
                    <path d="M54.7962632,55.5887872 C54.8576526,55.4695851 54.9918,55.1656915 55.1336211,54.8342234 C55.1893263,54.7032447 56.2565368,52.9832872 56.7885789,52.932734 C56.7885789,52.932734 60.1073053,55.3727872 60.1098632,55.4049574 C60.1209474,55.5365106 58.6703368,57.7295426 58.5441474,57.5629468 C58.5435789,57.5626596 54.6561474,55.9133617 54.7962632,55.5887872 C54.7962632,55.5887872 54.6561474,55.9133617 54.7962632,55.5887872 L54.7962632,55.5887872 L54.7962632,55.5887872 L54.7962632,55.5887872 L54.7962632,55.5887872 L54.7962632,55.5887872 Z" id="path134" fill="#ECF0F1"></path>
                    <path d="M72.9985263,65.7922021 C72.5071263,65.2076809 72.1021263,64.5932872 71.4083684,63.8344149 L63.8611579,54.4524894 L64.6418842,53.6927553 L71.4367895,61.7298511 C71.6391474,61.9340745 72.8245895,63.1907234 73.9529053,64.6808936 C73.9529053,64.6808936 74.0944421,65.183266 73.6959789,65.514734 C73.3935789,65.7669255 72.9985263,65.7922021 72.9985263,65.7922021 L72.9985263,65.7922021 L72.9985263,65.7922021 L72.9985263,65.7922021 L72.9985263,65.7922021 L72.9985263,65.7922021 Z" id="path138" fill="#730000"></path>
                    <path d="M66.4346842,55.6505426 L65.2205368,54.1890957 C65.2205368,54.1890957 64.2948632,54.3054255 64.1217789,54.8023404 C64.1217789,54.8023404 63.4564421,55.9127872 61.6929158,56.0299787 C61.6929158,56.0299787 62.1846,58.1046702 64.2374526,59.215117 C64.2374526,59.215117 64.9894737,57.0824043 65.7119368,56.7021064 C65.7119368,56.7021064 66.4636737,56.1465957 66.4352526,55.6496809" id="path142" fill="#FFFFFF"></path>
                    <path d="M63.2253789,62.3143723 L71.7840947,53.7209043 L73.8949263,56.0006809 C73.8949263,56.0006809 73.4612211,55.8257553 73.2872842,55.9415106 C73.1429053,56.0587021 73.4606526,56.4970213 73.4606526,56.4970213 C73.4606526,56.4970213 73.0559368,56.3511064 72.8825684,56.4677234 C72.6802105,56.5840532 72.8825684,57.0812553 72.8825684,57.0812553 C72.8825684,57.0812553 72.5355474,56.8181489 72.3618947,56.934766 C72.2175158,57.0519574 72.3618947,57.6074681 72.3618947,57.6074681 C72.3618947,57.6074681 71.8992,57.4609787 71.7840947,57.5773085 C71.6681368,57.6945 71.7840947,58.1914149 71.7840947,58.1914149 C71.7840947,58.1914149 71.3211158,57.9576064 71.0900526,58.1914149 C70.8589895,58.4246489 71.2054421,58.7469255 71.2054421,58.7469255 C71.2054421,58.7469255 70.6273579,58.5125426 70.3954421,58.8632553 C70.1646632,59.2142553 70.425,59.535383 70.425,59.535383 C70.425,59.535383 69.9623053,59.3021489 69.8469158,59.4181915 C69.7309579,59.535383 69.8469158,60.0903191 69.8469158,60.0903191 C69.8469158,60.0903191 69.4419158,59.8565106 69.1815789,60.1494894 C68.9212421,60.470617 69.2108526,60.7337234 69.2108526,60.7337234 C69.2108526,60.7337234 68.8351263,60.4999149 68.6324842,60.6165319 C68.4301263,60.7337234 68.6904632,61.2880851 68.6904632,61.2880851 C68.6904632,61.2880851 68.3150211,61.0249787 68.0546842,61.2880851 C67.7943474,61.5807766 68.0546842,61.8723191 68.0546842,61.8723191 C68.0546842,61.8723191 67.7363684,61.5802021 67.4191895,61.8723191 C67.1292947,62.1940213 67.4191895,62.5154362 67.4191895,62.5154362 C67.4191895,62.5154362 66.9564947,62.2819149 66.7831263,62.5154362 C66.5807684,62.7495319 66.8411053,63.071234 66.8411053,63.071234 C66.8411053,63.071234 66.4940842,62.8664362 66.2627368,62.982766 C66.0319579,63.0996702 66.2627368,63.625883 66.2627368,63.625883 C66.2627368,63.625883 65.916,63.2458723 65.7713368,63.4506702 C65.5979684,63.6548936 65.8003263,64.1520957 65.8003263,64.1520957 C65.8003263,64.1520957 65.4825789,63.7720851 65.3089263,63.976883 C65.1062842,64.1520957 65.4240316,64.5909894 65.4240316,64.5909894 C65.4240316,64.5909894 64.8459474,64.327883 64.9906105,64.327883 C65.0196,64.327883 63.2265158,62.3109255 63.2265158,62.3109255" id="path164" fill="#FFFFFF"></path>
                    <path d="M63.3984632,62.1382979 C63.2253789,62.0805638 63.0514421,62.1382979 62.7911053,62.2842128 C62.5603263,62.4321383 62.271,62.3729681 62.2997053,62.0805638 C62.3286947,61.8174574 62.2997053,61.8467553 62.6177368,61.6428191 C63.0807158,61.3797128 63.6877895,61.3501277 64.0635158,61.4963298 L63.3984632,62.1382979" id="path174" fill="#730000"></path>
                    <path d="M71.6391474,53.8375213 C71.5814526,53.6335851 71.5237579,53.4285 71.7261158,53.1653936 C71.9284737,52.9324468 71.9284737,52.5231383 71.4365053,52.7276489 C70.9451053,52.932734 70.7711684,53.4876702 71.1761684,54.3352979 L71.6391474,53.8375213" id="path178" stroke="#000000" stroke-width="0.1" fill="#730000"></path>
                    <path d="M60.3335368,37.6748617 C60.0439263,37.9092447 60.0152211,38.318266 59.8418526,38.5526489 C59.6974737,38.7855957 59.2637684,39.1067234 59.2347789,39.4577234 C59.1768,39.8084362 59.1478105,40.0422447 59.2927579,40.5101489 C59.4655579,40.9774787 60.1888737,43.0527447 59.8998316,44.6310957 C59.5820842,46.2088723 59.6974737,46.881 59.8134316,47.115383 C59.9285368,47.3491915 60.2761263,47.991734 60.4784842,47.991734 C60.9411789,47.9337128 60.7388211,47.7877979 60.9119053,47.4951064 C61.3456105,46.7350851 60.9119053,40.8605745 60.7095474,39.2239149 C60.5648842,37.967266 59.9868,36.8280957 59.9288211,36.7109043 C59.8711263,36.5641277 59.7557368,36.1846915 59.6684842,35.9503085 C59.2350632,34.897883 58.7149579,33.9928085 58.7149579,31.7994894 C58.7149579,31.7994894 57.2984526,32.121766 56.0834526,29.3456489 C55.4479579,27.9422234 54.5222842,28.0881383 53.4235263,27.6210957 L53.9149263,27.2999681 C53.9149263,27.2999681 54.8403158,27.7670106 55.3032947,27.7670106 C55.7659895,27.7670106 55.6213263,26.8317766 55.6213263,26.8317766 L56.0843053,26.364734 L56.0843053,28.4107021 C56.0843053,29.3462234 57.3567158,30.631883 58.1081684,31.0116064 C58.5702947,31.2457021 59.1779368,30.2814574 59.0335579,29.3459362 C58.8891789,28.4104149 59.0335579,27.1540532 59.0335579,27.1540532 L59.6687684,27.5334894 C59.6687684,27.5334894 59.4379895,27.9425106 59.4956842,28.1763191 C59.5823684,28.4095532 59.9006842,27.9427979 60.1317474,27.7081277 C60.1317474,27.7081277 60.1894421,27.7672979 60.4213579,27.7672979 C60.4213579,27.7672979 59.9586632,28.5557553 59.7273158,28.9656383 C59.4962526,29.3450745 59.4962526,30.8358191 59.4962526,31.3907553 C59.4962526,31.946266 59.6988947,33.2325 59.6988947,33.6415213 C59.6988947,33.9339255 60.2479895,35.132266 60.6816947,35.8627021 C60.8263579,36.1548191 61.1730947,36.9151277 61.1730947,36.9151277 C61.5204,37.4703511 61.5488211,37.8503617 61.7511789,38.3176915 C61.8665684,38.5517872 62.0692105,39.2242021 62.2141579,40.3929574 C62.2715684,40.6850745 62.3289789,41.7955213 62.4159474,42.5268191 C62.5029158,43.2282447 63.0815684,42.672734 63.7747579,42.1766809 C64.4688,41.6504681 64.4688,40.3938191 64.4688,40.3938191 C64.4688,40.3938191 65.0178947,39.9259149 64.9314947,40.1890213 C64.8735158,40.482 65.2208211,40.7729681 65.2208211,40.7729681 C64.7874,41.7673723 65.0477368,41.6507553 65.4811579,41.6203085 C65.9148632,41.5622872 67.4186211,40.4228298 67.4186211,40.4228298 C67.6209789,40.3636596 68.5173789,40.3636596 68.3721474,40.4228298 C68.1990632,40.5098617 67.9671474,40.9490426 67.9671474,40.9490426 L68.9502316,40.8318511 C68.6032105,41.0949574 67.3020947,41.855266 67.0133368,42.0301915 C66.6953053,42.2347021 65.1338526,42.9947234 64.4688,43.2578298 C63.8034632,43.5499468 62.5023474,44.1930638 62.4449368,44.8654787 C62.4153789,45.5381809 62.5313368,47.3494787 62.4449368,47.934 C62.3869579,48.518234 62.1550421,51.12 62.1550421,51.12 L59.0611263,51.12 C59.0611263,51.12 59.6684842,48.8402234 59.0321368,48.2266915 C58.4250632,47.5838617 57.0082737,45.7128191 56.0828842,45.0702766 C55.1569263,44.4561702 56.6899579,44.9243617 56.6899579,44.9243617 L56.6899579,44.2815319 L58.1067474,46.0060851 C58.1067474,46.0060851 60.5640316,43.8139149 58.1067474,40.8327128 C57.3260211,39.8974787 56.5455789,38.4647553 55.9376526,38.3197021 C55.3018737,38.1436277 54.9841263,37.9974255 53.9132211,38.3197021 C52.8153158,38.6408298 50.1832421,38.6408298 49.0853368,36.8869787 L50.0107263,36.7410638 L50.7914526,36.4196489 C50.7914526,36.4196489 50.4731368,37.530383 52.6700842,37.530383 C54.8391789,37.530383 55.1566421,37.530383 54.9835579,35.4844149 L55.6196211,35.163 L56.0823158,35.6300426 C56.0823158,35.6300426 55.7645684,36.7407766 55.9376526,37.2086809 C56.0823158,37.6760106 56.8633263,37.998 57.4706842,38.4653298 C57.7310211,38.669266 57.9333789,38.6994255 58.1067474,38.6994255 C58.3670842,38.669266 58.4242105,38.669266 58.7718,38.3191277 C59.2924737,37.7346064 59.1765158,37.7639043 59.6971895,37.296 C59.6971895,37.296 59.9575263,36.8864043 60.0146526,36.8286702 L60.3329684,37.6757234" id="path210" fill="#730000"></path>
                    <path d="M60.7962316,36.126383 C60.9113368,36.0103404 61.1432526,35.5708723 61.3456105,35.1911489 C61.6926316,34.6066277 62.0976316,34.2559149 62.5597579,33.5249043 C62.9931789,32.8527766 63.1665474,31.8583723 62.9931789,31.1575213 L63.3978947,31.3913298 L63.4268842,32.5017766 C63.4268842,32.5017766 63.9762632,32.034734 64.2078947,31.9175426 L64.4389579,32.0338723 C64.4389579,32.0338723 62.7041368,33.8463191 61.0847053,36.7689255 L60.7953789,36.1255213" id="path214" stroke="#000000" stroke-width="0.1" fill="#730000"></path>
                    <path d="M63.0230211,31.158383 L63.3984632,31.3913298 L63.8031789,31.4505 C63.8031789,31.4505 64.2366,31.8595213 64.7285684,32.2389574 C65.1040105,32.561234 65.1040105,32.1809362 65.1040105,32.1809362 L65.3347895,33.1161702 L65.6531053,33.1161702 C65.6531053,33.1161702 65.5661368,33.7297021 65.5661368,34.0514043 L66.1158,33.5835 L66.7518632,34.1390106 C66.7518632,34.1390106 67.2145579,33.7299894 67.4456211,33.7299894 C67.6764,33.7299894 67.7633684,33.4967553 67.7633684,33.4967553 L67.7929263,33.4967553 C66.2601789,32.7654574 65.5956947,32.0060106 66.0581053,31.2166915 C66.8101263,29.901734 68.0532632,30.7487872 68.4576947,30.9248617 L74.0671579,33.9640851 C74.0671579,33.9640851 74.4428842,33.7302766 74.1825474,33.4958936 C73.8929368,33.2629468 73.7775474,32.6778511 73.8642316,32.4443298 C73.9512,32.2105213 74.5872632,33.1744787 74.9050105,33.2620851 C75.2233263,33.3499787 75.9455053,33.4671702 75.9455053,33.4671702 L75.9165158,33.174766 C75.9165158,33.174766 76.8419053,33.8173085 76.8419053,34.1392979 C76.8419053,34.1392979 77.5072421,33.7885851 77.2753263,33.5837872 C77.0442632,33.3798511 78.2876842,34.0809894 78.3740842,34.4612872 L78.6341368,34.1680213 C78.6048632,34.1680213 78.7211053,33.2327872 79.0388526,32.7944681 C79.3284632,32.3567234 79.6462105,32.2392447 79.6462105,32.2392447 C79.6462105,32.2392447 79.9358211,31.7420426 80.2242947,31.7420426 C80.2242947,31.7420426 79.9346842,31.5381064 79.8192947,31.3042979 C79.6749158,31.0699149 79.3278947,30.9532979 79.3278947,30.9532979 C79.3278947,30.9532979 79.7613158,30.6321702 79.8775579,30.4856809 C79.9929474,30.3110426 80.1089053,30.2805957 80.1089053,30.2805957 C80.1089053,30.2805957 79.4432842,29.7256596 78.9805895,29.6386277 C78.9805895,29.6386277 78.9516,28.8780319 78.3735158,28.8200106 L78.6338526,28.8200106 C78.6338526,28.8200106 78.2001474,28.0016809 77.7951474,27.9726702 C77.7951474,27.9726702 78.0554842,27.6805532 78.2868316,27.6512553 C78.2868316,27.6512553 77.7951474,27.0084255 77.1306632,27.242234 L77.5640842,27.0675957 C77.5640842,27.0675957 77.2460526,26.7171702 76.2635368,26.892383 C76.2635368,26.892383 76.3496526,26.4833617 75.9165158,26.1613723 C75.9165158,26.1613723 75.5407895,26.1900957 75.5407895,26.4825 C75.5407895,26.4825 75.1937684,26.1613723 74.7603474,26.1613723 C74.3266421,26.1613723 74.9047263,26.6292766 74.9047263,26.6292766 C74.9047263,26.6292766 74.3266421,26.2489787 73.9793368,26.3661702 C73.9793368,26.3661702 74.1237158,25.6940426 73.7479895,25.3427553 C73.7479895,25.3427553 73.3151368,25.5768511 73.1986105,25.8689681 L73.0832211,25.5768511 C73.0832211,25.5768511 72.5045684,26.2782766 72.3894632,26.073766 C72.3027789,25.9571489 72.2163789,25.4605213 72.2163789,25.4605213 L71.8699263,25.986734 L71.9273368,25.2554362 C71.9273368,25.2554362 71.5226211,25.4895319 71.2045895,26.2486915 C71.2045895,26.2486915 70.7995895,26.6289894 70.7995895,26.9788404 C70.7995895,26.9788404 70.4815579,26.5996915 70.1922316,26.9788404 C69.9318947,27.3878617 70.1922316,27.301117 70.1922316,27.301117 C70.1922316,27.301117 70.0765579,27.4461702 69.7875158,27.5050532 L69.8454947,27.7382872 C69.8454947,27.7382872 69.4700526,27.5343511 69.1807263,27.6222447 L69.3248211,27.972383 C69.3248211,27.972383 68.5730842,28.031266 68.5446632,27.4180213 C68.5446632,27.4180213 67.9086,27.0960319 67.8216316,27.4470319 C67.8216316,27.4470319 67.3009579,27.4470319 67.3589368,27.7394362 C67.3589368,27.7394362 67.2142737,27.4470319 66.9539368,27.3890106 C66.6643263,27.301117 66.8959579,27.7681596 66.8959579,27.7681596 C66.8959579,27.7681596 66.8095579,27.4180213 66.4625368,27.2419468 C66.1160842,27.0968936 66.4048421,27.5642234 66.4048421,27.5642234 C66.4048421,27.5642234 65.9421474,27.1839255 66.1740632,26.8920957 C66.1740632,26.8920957 65.7403579,27.301117 65.9427158,27.6814149 L65.6533895,27.8856383 C65.6533895,27.8856383 65.5087263,27.7397234 65.5374316,27.6225319 C65.5669895,27.5053404 65.0460316,27.9726702 65.0460316,27.9726702 C65.0460316,27.9726702 64.728,27.2135106 65.0460316,27.2135106 C65.0750211,27.2135106 64.4966526,27.1842128 64.4102526,27.8569149 C64.3238526,28.498883 64.4102526,27.8569149 64.4102526,27.8569149 C64.4102526,27.8569149 64.0345263,27.8859255 63.6872211,28.0019681 C63.3114947,28.1191596 63.9475579,28.382266 63.9475579,28.382266 C63.9475579,28.382266 63.3978947,28.2650745 63.0798632,28.4408617 L63.2825053,28.7039681 C63.2825053,28.7039681 63.0798632,28.4991702 62.5884632,28.6740957 C62.0677895,28.8200106 62.7038526,28.9079043 62.7038526,28.9079043 C62.7038526,28.9079043 62.1831789,28.7912872 61.9231263,28.9079043 C61.6627895,29.0250957 62.0098105,29.2293191 62.0098105,29.2293191 C62.0098105,29.2293191 61.0557158,28.9372021 60.9110526,29.025383 C60.7669579,29.1127021 61.2293684,29.5808936 61.2293684,29.5808936 C61.2293684,29.5808936 60.651,29.7268085 60.5358947,30.1654149 L61.0562842,30.3693511 C61.0562842,30.3693511 60.8255053,30.4859681 60.7089789,30.7203511 C60.5944421,30.9541596 61.0562842,30.8366809 61.0562842,30.8366809 C61.0562842,30.8366809 60.4205053,31.3048723 60.4205053,31.6550106 C60.4205053,31.6550106 60.8829158,31.8009255 61.2299368,31.4507872 C61.5769579,31.1006489 61.3453263,31.2169787 61.3453263,31.2169787 L61.3743158,31.4507872 C61.3743158,31.4507872 62.0396526,31.1589574 62.0396526,30.9837447 C62.0396526,30.8378298 61.9242632,31.2169787 61.9242632,31.2169787 L62.5896,30.8665532 L63.0227368,31.1589574 L63.0227368,31.158383 L63.0230211,31.158383 L63.0230211,31.158383 L63.0230211,31.158383 L63.0230211,31.158383 L63.0230211,31.158383 Z" id="path240" fill="#479951"></path>
                    <path d="M62.4730737,22.0392766 L62.3284105,21.3964468 C62.3284105,21.3964468 63.1091368,21.3964468 63.8028947,21.5710851 L64.0629474,20.9578404 C64.0629474,20.9578404 64.7567053,21.2789681 64.9883368,21.5119149 C64.9883368,21.5119149 66.3471474,21.1617766 66.7524316,21.3079787 L66.5790632,21.951383 C66.5790632,21.951383 67.8219158,22.0384149 68.2272,22.184617 C68.6029263,22.3305319 68.0541158,22.6528085 68.0541158,22.6528085 C68.0541158,22.6528085 69.4706211,22.8274468 70.0782632,23.2077447 C70.7143263,23.5871809 70.7143263,23.9091702 70.3965789,23.9962021 L71.1764526,25.2528511 C71.1764526,25.2528511 69.9336,25.398766 69.7022526,25.7198936 C69.4709053,26.0413085 69.2395579,25.398766 69.2395579,25.398766 L69.0082105,26.2754043 C69.0082105,26.2754043 68.2277684,25.8658085 67.9097368,25.5739787 C67.9097368,25.5739787 67.5342947,26.041883 67.7653579,26.2754043 C67.7653579,26.2754043 66.7532842,26.2754043 66.3482842,25.3401702 C66.3482842,25.3401702 65.7409263,25.2528511 65.7409263,25.8083617 C65.7409263,25.8083617 65.0477368,25.0190426 64.8738,24.7849468 L64.0927895,25.0190426 C64.0927895,25.0190426 63.8620105,24.6979149 63.5726842,24.6094468 C63.2543684,24.5517128 63.4857158,25.0190426 63.4857158,25.0190426 L63.0230211,24.4635319 L62.5606105,23.9094574 C62.5606105,23.9094574 62.1556105,24.4635319 61.8375789,24.4635319 C61.5476842,24.4635319 61.5476842,24.0840957 61.6062316,23.8209894 C61.6929158,23.5871809 60.6808421,23.5291596 60.5941579,23.8209894 C60.5941579,23.8209894 60.3045474,22.6519468 61.3746,22.3308191 L62.4733579,22.0384149 L62.4730737,22.0392766 L62.4730737,22.0392766 L62.4730737,22.0392766 L62.4730737,22.0392766 L62.4730737,22.0392766 Z" id="path244" fill="#479951"></path>
                    <path d="M56.8638947,26.0430319 L56.3724947,26.5109362 L56.0828842,26.3650213 L55.5048,27.0075638 L55.3891263,26.6562766 L55.0710947,27.1824894 L54.5796947,27.0075638 L54.3483474,27.3872872 L53.9149263,27.2993936 C53.9149263,27.2993936 53.5392,27.6503936 53.3075684,27.7377128 C53.0765053,27.796883 53.3075684,27.2123617 53.3075684,27.2123617 C53.3075684,27.2123617 52.9605474,27.7965957 52.7002105,27.7965957 C52.4694316,27.7965957 52.5561158,27.5334894 52.5561158,27.5334894 C52.5561158,27.5334894 52.4117368,27.9123511 52.1226947,27.9715213 C51.8623579,28.0008191 51.9777474,27.6794043 51.9777474,27.6794043 L51.5147684,28.0295426 L51.5147684,27.7374255 L51.3124105,27.6501064 C51.3124105,27.6501064 51.4278,27.1238936 51.6307263,27.0072766 C51.8330842,26.8900851 51.4283684,26.540234 51.4283684,26.540234 L51.6307263,26.3061383 C51.6307263,26.3061383 51.0520737,26.1602234 51.0520737,26.2771277 C51.0520737,26.2771277 51.3416842,25.4886702 51.7458316,25.3413191 L51.7751053,24.4649681 C51.7751053,24.4649681 52.1801053,24.1148298 52.5558316,24.0846702 C52.9602632,24.0263617 52.4404421,23.4125426 52.4404421,23.4125426 L53.3655474,22.8584681 L53.4809368,22.1863404 L54.8974421,22.3020957 L55.1867684,21.6888511 L56.3148,21.9806809 L57.2686105,21.483766 L57.9623684,22.3020957 L59.0031474,22.3902766 C59.0031474,22.3902766 58.9741579,23.1204255 58.9741579,23.3255106 C58.9741579,23.3255106 60.2170105,23.7049468 60.3619579,23.8224255 C60.3619579,23.8224255 60.1306105,24.5821596 60.1306105,24.7280745 C60.1306105,24.7280745 60.9985895,24.494266 61.2589263,24.5528617 C61.2589263,24.5528617 61.3458947,25.3714787 61.3740316,25.5757021 C61.3740316,25.5757021 62.8485158,26.0438936 62.9354842,26.307 C62.9354842,26.307 62.6171684,26.5109362 62.4440842,26.7740426 C62.4440842,26.7740426 62.6168842,27.6805532 62.6168842,27.972383 L62.5014947,28.1475957 C62.5014947,28.1475957 62.0677895,27.7385745 61.7207684,27.680266 L61.4311579,28.3228085 L60.9110526,27.972383 L60.5930211,28.0016809 C60.5930211,28.0016809 60.3326842,27.680266 60.1300421,27.680266 L60.1007684,27.3878617 L59.6960526,27.6509681 C59.6960526,27.6509681 59.0602737,27.329266 59.0602737,27.1247553 C59.0602737,26.9498298 59.0892632,26.6565638 59.0892632,26.6565638 L58.4242105,27.1247553 C58.4242105,27.1247553 58.2798316,26.774617 58.3091053,26.6278404 C58.3383789,26.4819255 58.0490526,26.9788404 58.0490526,26.9788404 C58.0490526,26.9788404 57.7017474,26.364734 57.7307368,26.2475426 L57.6437684,26.7450319 C57.6437684,26.7450319 56.9500105,26.5117979 56.8636105,26.0436064 L56.8636105,26.0430319 L56.8638947,26.0430319 L56.8638947,26.0430319 L56.8638947,26.0430319 L56.8638947,26.0430319 L56.8638947,26.0430319 Z" id="path248" fill="#479951"></path>
                    <path d="M47.6105684,28.9070426 C47.6105684,28.9070426 48.8252842,29.5217234 48.8252842,29.8135532 C48.8252842,29.8135532 49.1436,29.1701489 48.9696632,28.9363404 L49.4326421,29.258617 C49.4326421,29.258617 49.5764526,28.674383 49.4033684,28.4983085 C49.2587053,28.3523936 50.4435789,27.8563404 50.7039158,28.6447979 C50.7039158,28.6447979 51.4272316,27.8850638 50.0391474,27.2416596 C50.0391474,27.2416596 49.9240421,26.774617 50.7621789,26.8915213 C50.7621789,26.8915213 50.7044842,26.599117 50.5018421,26.4825 L51.3115579,26.4825 C51.3115579,26.4825 50.8201579,26.0729043 50.0971263,25.9562872 C49.4036526,25.8390957 49.8367895,25.7520638 49.8078,25.6047128 C49.7498211,25.4587979 49.8078,24.9325851 49.8078,24.9325851 C49.8078,24.9325851 49.4030842,24.7866702 49.0847684,24.961883 L49.2001579,24.8153936 C49.2001579,24.8153936 48.4481368,24.6114574 48.1596632,24.786383 C48.1596632,24.786383 47.7259579,24.6111702 47.7839368,24.1429787 C47.7839368,24.1429787 47.3502316,24.1142553 47.1484421,24.5812979 C47.1484421,24.5812979 46.7434421,25.0492021 46.1943474,25.0492021 C46.0789579,25.0492021 45.6736737,24.8151064 45.6736737,24.8151064 L45.3263684,25.6337234 L44.7772737,25.6044255 L44.9503579,25.9255532 C44.9503579,25.9255532 44.1119368,25.6926064 43.8516,25.9255532 C43.8516,25.9255532 44.1699158,26.4230426 44.0826632,26.7731809 C44.0826632,26.7731809 43.4173263,26.8903723 43.2729474,27.0072766 C43.0995789,27.1230319 43.5040105,27.2112128 43.5040105,27.2112128 C43.5040105,27.2112128 42.7522737,27.4450213 42.5783368,27.6794043 L42.8682316,27.9123511 L42.5209263,28.3808298 L42.8105368,28.4385638 C42.8105368,28.4385638 42.3191368,28.5850532 42.0590842,28.6726596 C41.7987474,28.7596915 42.5214947,28.8185745 42.5214947,28.8185745 L42.1750421,29.1397021 L42.7244211,29.226734 C42.7244211,29.226734 42.291,30.3963511 42.2617263,30.9518617 C42.2617263,30.9518617 42.9270632,30.1332447 43.0998632,30.0752234 L42.5797579,30.9518617 C42.5797579,30.9518617 43.5631263,30.630734 43.6500947,30.483383 C43.7364947,30.3087447 43.8231789,30.1625426 43.8231789,30.1625426 L43.8524526,30.6594574 C43.8524526,30.6594574 44.2281789,30.1332447 44.2858737,29.9284468 C44.3151474,29.7245106 44.8929474,30.1332447 44.8929474,30.1332447 L44.8929474,29.840266 C44.8929474,29.840266 45.4136211,30.0151915 45.5867053,30.0453511 C45.7890632,30.0743617 45.8177684,29.9574574 45.8177684,29.9574574 L46.3091684,29.8991489 L46.2222,30.3073085 C46.2222,30.3073085 46.5689368,30.0740745 46.6556211,29.8399787 C46.7136,29.605883 46.8866842,29.8399787 46.8866842,29.8399787 L47.1174632,28.9047447 L47.6088632,28.9047447 L47.6105684,28.9070426 L47.6105684,28.9070426 L47.6105684,28.9070426 L47.6105684,28.9070426 L47.6105684,28.9070426 Z" id="path252" fill="#479951"></path>
                    <path d="M43.6495263,33.0575745 L44.1122211,34.0221064 C43.7364947,34.0508298 43.1868316,34.4891489 43.1868316,34.4891489 C43.2732316,36.0967979 42.8690842,36.0089043 42.8690842,36.0089043 C42.9836211,36.3013085 42.7954737,36.8433191 42.7954737,36.8433191 L45.0953053,35.4539681 L45.1242947,35.3080532 L47.8424842,34.0212447 L47.9286,34.1671596 L48.7096105,33.7294149 L49.2589895,35.19 L48.7096105,35.5114149 C48.7388842,36.0083298 49.3169684,36.8855426 49.3169684,36.8855426 L50.04,36.7109043 L50.8207263,36.4176383 C50.8207263,36.4176383 50.85,36.8559574 50.85,36.7109043 C50.85,36.5928511 51.6881368,36.301883 51.6881368,36.301883 C51.6881368,36.301883 51.7461158,36.7109043 52.0638632,36.6816064 C52.3537579,36.6525957 52.8732947,35.9503085 52.8732947,35.9503085 L53.4806526,36.1846915 C53.4806526,36.1846915 53.6830105,35.834266 53.6830105,35.5711596 C53.6830105,35.3373511 54.4347474,35.3373511 54.4347474,35.3373511 L54.9554211,35.7167872 L55.6204737,35.1621383 C55.6204737,35.1621383 55.8228316,35.5711596 56.0831684,35.6291809 C56.3727789,35.6584787 57.0952421,36.2134149 57.0952421,36.0973723 C57.0952421,35.9807553 57.4135579,35.3373511 57.4135579,35.3373511 L58.6274211,35.834266 C58.4546211,35.2790426 58.0499053,34.6069149 58.0499053,34.6069149 C58.0499053,34.6069149 58.6274211,34.1398723 58.5123158,34.0226809 C58.3972105,33.9054894 58.0499053,34.0226809 58.0499053,34.0226809 L58.3963579,33.3212553 L57.9339474,33.3212553 L58.0780421,33.146617 L57.3263053,32.8254894 L57.7307368,32.0068723 C57.5573684,31.8017872 55.5624947,31.392766 55.5624947,31.392766 L56.0251895,30.9544468 C56.0251895,30.9544468 55.7938421,30.6043085 55.5624947,30.6043085 C55.3311474,30.6043085 54.1167158,30.6336064 54.0587368,30.5172766 C54.0294632,30.4000851 53.5380632,29.9609043 53.5380632,29.9609043 L52.7860421,30.5172766 L52.4103158,30.4000851 L51.7452632,30.6631915 C51.7452632,30.6631915 51.7452632,31.0426277 51.6580105,30.7795213 C51.5718947,30.5451383 50.9645368,29.9318936 50.9645368,29.9318936 C50.8491474,30.1358298 50.0684211,31.0713511 50.0684211,31.0713511 C50.0684211,31.0713511 49.9530316,31.5688404 49.6926947,31.217266 C49.4030842,30.8671277 48.7962947,30.487117 48.7093263,30.7795213 C48.6226421,31.1015106 48.0738316,31.392766 47.9573053,31.305734 C47.8422,31.217266 47.2055684,31.2764362 47.1475895,31.4516489 C47.1186,31.6555851 46.4245579,32.1817979 46.4245579,32.1817979 C45.9908526,31.9778617 45.2965263,32.0950532 45.2965263,32.0950532 C45.2965263,32.0950532 45.0941684,32.4161809 45.0657474,32.6792872 L43.6492421,33.0581489 L43.6503789,33.0581489 L43.6503789,33.0575745 L43.6495263,33.0575745 L43.6495263,33.0575745 L43.6495263,33.0575745 L43.6495263,33.0575745 L43.6495263,33.0575745 Z" id="path256" fill="#479951"></path>
                    <path d="M56.7192316,44.8950638 L56.7192316,44.2809574 L57.4127053,44.7488617 L57.8177053,44.2809574 L58.3383789,44.8065957 L58.6564105,44.2809574 L58.6564105,45.1288723 L59.4371368,44.4280213 L59.8992632,44.6319574 L59.8992632,43.9598298 C59.8992632,43.9598298 60.4492105,43.0240213 60.2175789,42.849383 L60.6802737,42.7034681 C60.6802737,42.7034681 59.8992632,41.9141489 59.6679158,41.7676596 C59.4371368,41.5930213 59.1188211,41.5930213 59.1188211,41.5930213 C59.1188211,41.5930213 58.5114632,40.9783404 58.1067474,40.8037021 C57.7310211,40.6577872 57.4991053,40.9783404 57.4991053,40.9783404 C57.4991053,40.9783404 57.2680421,40.5112979 56.8633263,40.423117 C56.4881684,40.3360851 56.4881684,40.7445319 56.4881684,40.7445319 C56.4881684,40.7445319 56.1982737,40.4521277 55.8228316,40.3062128 C55.4471053,40.1315745 55.7071579,40.6566383 55.7071579,40.6566383 L54.3767684,40.2481915 L54.5498526,40.6566383 L53.307,40.3363723 L53.4508105,40.8037021 L52.5836842,40.6566383 L52.5259895,41.0375106 L51.2825684,41.2707447 L51.5139158,41.679766 L50.7331895,41.3583511 L50.7331895,41.9138617 L49.8657789,42.2349894 L50.1838105,42.5279681 C50.1838105,42.5279681 49.0276421,43.0831915 48.7957263,43.2584043 C48.5649474,43.4043191 49.2587053,43.7254468 49.2587053,43.7254468 L48.0152842,43.550234 L48.4782632,43.9598298 L47.3795053,44.9829574 L48.1599474,45.5384681 L47.6972526,46.2393191 L48.8537053,46.4725532 L49.3164,47.2618723 L50.2704947,47.0866596 L50.2704947,47.9630106 L51.6585789,46.8528511 C51.6585789,46.8528511 52.6709368,47.7587872 52.7573368,47.4956809 C52.8150316,47.2618723 52.8150316,46.4725532 52.8150316,46.4725532 L53.3064316,46.4725532 L53.3064316,45.6840957 L53.6821579,46.0052234 L54.3182211,45.0694149 L55.1563579,46.2390319 L55.7921368,44.7488617 L56.7175263,44.8947766 L56.7192316,44.8950638 L56.7192316,44.8950638 L56.7192316,44.8950638 L56.7192316,44.8950638 L56.7192316,44.8950638 Z" id="path260" fill="#479951"></path>
                    <path d="M62.2425789,40.0140957 L61.8381474,40.423117 L62.0106632,39.1664681 L61.3754526,39.0492766 L61.6062316,37.8222128 L61.1438211,37.5878298 L61.2586421,37.0035957 L61.7216211,36.6534574 L62.5600421,35.8348404 L64.4966526,35.865 L64.7277158,35.2215957 C64.7277158,35.2215957 65.8841684,35.2215957 66.1160842,35.4556915 C66.3468632,35.7187979 67.0696105,34.9294787 67.0696105,34.9294787 L67.3592211,34.9294787 L67.6775368,35.5424362 C67.6775368,35.5424362 68.6896105,35.3965213 69.1520211,35.7176489 L68.6023579,36.4776702 L69.6144316,36.5649894 L70.3079053,36.7120532 L71.0309368,36.4776702 L71.9566105,36.4185 L72.1876737,36.7987979 L73.0553684,36.7987979 L72.7657579,37.1489362 L73.8935053,37.6751489 L73.6627263,37.9092447 C73.6627263,37.9092447 74.2985053,38.1430532 74.7612,38.1430532 L74.9922632,38.1430532 C74.9922632,38.1430532 75.2233263,38.6977021 74.9050105,38.9315106 C74.9050105,38.9315106 75.2233263,39.7208298 75.9173684,39.8673191 C76.6111263,40.013234 76.6111263,40.013234 76.6978105,40.1881596 C76.7850632,40.3346489 76.6978105,41.1239681 75.9173684,41.1239681 L75.9173684,41.9132872 C75.9173684,41.9132872 75.3100105,42.4685106 75.2236105,42.7017447 L74.7606316,42.3803298 C74.7606316,42.3803298 74.3564842,42.8485213 74.3564842,43.1696489 C74.3564842,43.1696489 73.3441263,41.8248191 72.9681158,41.7659362 C72.5634,41.6789043 72.6498,42.5262447 72.6498,42.5262447 L71.5516105,41.5910106 L71.4069474,42.2335532 L70.4815579,41.4450957 L69.9318947,41.8239574 L68.9485263,40.8016915 L67.9944316,40.918883 L68.3698737,40.4216809 L67.2134211,40.4216809 L66.9826421,39.3994149 L66.8092737,40.2464681 L66.1158,39.7794255 L65.2194,40.7726809 C65.2194,40.7726809 65.1040105,40.6552021 64.9590632,40.1878723 C64.8149684,39.7202553 64.4096842,40.7428085 64.4096842,40.7428085 L64.0913684,40.0126596 L63.7156421,40.7428085 C63.7156421,40.7428085 63.3973263,40.1878723 63.0795789,40.0126596 C62.7902526,39.8667447 62.4727895,40.8890106 62.3863895,41.3572021 L62.2425789,40.0140957 L62.2425789,40.0140957 Z" id="path264" fill="#479951"></path>
                    <path d="M62.5603263,44.4268723 L62.6180211,43.9598298 L64.2658737,43.3164255 L65.6542421,42.7902128 L66.3474316,42.4690851 L66.6657474,43.0240213 L67.0704632,42.2355638 L67.7065263,43.0533191 L68.0535474,42.615 L68.6026421,43.0240213 L69.0653368,43.0240213 L69.1520211,43.6387021 C69.1520211,43.6387021 70.3087579,43.725734 70.3951579,43.4927872 C70.4818421,43.2586915 70.6259368,44.2812447 70.6259368,44.2812447 L71.7244105,44.4271596 L71.9557579,45.6838085 C71.9557579,45.6838085 72.5045684,46.8534255 72.3314842,47.3207553 C72.1865368,47.8176702 71.7238421,46.7072234 71.7238421,46.7072234 C71.7238421,46.7072234 71.6374421,47.5838617 71.5507579,47.8176702 C71.4930632,48.0509043 70.0762737,47.5838617 70.0762737,47.5838617 L69.4692,48.7529043 C69.4692,48.7529043 68.8334211,47.8176702 68.5440947,47.8176702 C68.2257789,47.8176702 68.2257789,48.7529043 68.2257789,48.7529043 C68.2257789,48.7529043 67.3003895,47.6421702 66.8953895,47.174266 C66.5196632,46.7072234 66.4326947,47.6421702 66.4326947,47.6421702 C66.4326947,47.6421702 65.8256211,46.6190426 65.8256211,46.3272128 C65.8256211,46.0057979 65.2759579,45.6838085 65.2759579,45.6838085 C65.2759579,45.6838085 64.3215789,46.7945426 63.6272526,47.087234 C63.6272526,47.087234 63.7142211,46.3858085 63.4831579,46.152 C63.2520947,45.9179043 62.5574842,46.6190426 62.5574842,46.6190426 C62.5574842,46.6190426 62.0660842,45.5378936 62.5574842,44.4271596 L62.5603263,44.4268723 L62.5603263,44.4268723 L62.5603263,44.4268723 L62.5603263,44.4268723 L62.5603263,44.4268723 Z" id="path268" fill="#479951"></path>
                    <path d="M60.9119053,98.0296277 C67.4180526,98.0885106 71.2639895,95.6912553 73.3748211,94.2591064 C78.3189474,90.8987553 79.3600105,90.7815638 80.1697263,90.8392979 C81.0954,90.9280532 82.4533579,91.2491809 82.5116211,92.0677979 C82.5985895,93.3244468 80.5747263,93.879383 79.4177053,93.879383 C78.2325474,93.879383 75.1380632,93.0900638 75.1380632,93.0900638 L74.3280632,93.6461489 C74.8777263,93.9092553 81.2102211,96.0422553 82.4246526,94.0261596 C83.6672211,91.9804787 84.9112105,88.6772872 84.9112105,88.6772872 C84.9112105,88.6772872 83.5234105,86.1637021 80.4289263,86.1637021 C77.3063053,86.1637021 74.2698,88.1519362 72.2462211,89.6409574 C70.2217895,91.1317021 67.6778211,93.177383 60.9110526,93.177383 C54.1448526,93.177383 51.5718947,91.1317021 49.5480316,89.6409574 C47.5241684,88.1507872 44.4876632,86.1637021 41.3943158,86.1637021 C38.2716947,86.1637021 36.8833263,88.6772872 36.8833263,88.6772872 C36.8833263,88.6772872 38.1264632,91.9804787 39.3698842,94.0261596 C40.5840316,96.0422553 46.9170947,93.9092553 47.4656211,93.6461489 L46.6851789,93.0900638 C46.6851789,93.0900638 43.5625579,93.879383 42.4055368,93.879383 C41.2200947,93.879383 39.1959474,93.3244468 39.2829158,92.0677979 C39.3408947,91.2491809 40.6994211,90.9274787 41.6250947,90.8392979 C42.4345263,90.7815638 43.4755895,90.8987553 48.4197158,94.2591064 C50.5316842,95.6912553 54.3773368,98.0003298 60.9119053,98.0296277" id="path300" fill="#ECF0F1"></path>
                    <path d="M46.6567579,93.0900638 C46.6567579,93.0900638 43.5625579,93.879383 42.4061053,93.879383 C41.2209474,93.879383 39.1965158,93.3250213 39.2834842,92.0675106 C39.3414632,91.2488936 40.7002737,90.9280532 41.6256632,90.8404468 C42.3194211,90.7809894 43.2158211,90.8694574 46.6567579,93.0900638" id="path304" fill="#6699FF"></path>
                    <path d="M75.1383474,93.0900638 C75.1383474,93.0900638 78.2319789,93.879383 79.4179895,93.879383 C80.5747263,93.879383 82.5985895,93.3250213 82.5116211,92.0675106 C82.4542105,91.2488936 81.0954,90.9280532 80.1700105,90.8404468 C79.4754,90.7809894 78.579,90.8694574 75.1383474,93.0900638" id="path308" fill="#6699FF"></path>
                    <path d="M50.4447158,90.314234 C50.1266842,90.0804255 49.8086526,89.8457553 49.5187579,89.6130957 C49.0853368,89.2911064 48.6513474,88.9987021 48.1883684,88.6778617 C48.1883684,88.6778617 48.8244316,87.8592447 49.1424632,87.7713511 C49.6338632,87.5964255 50.2409368,87.858383 50.3563263,88.9108085 C50.4432947,89.7294255 50.4432947,90.3145213 50.4432947,90.3145213" id="path312" fill="#6699FF"></path>
                    <path d="M50.4447158,90.2855106 C50.4447158,90.2855106 50.4447158,89.7288511 50.3571789,88.9116702 C50.2417895,87.8592447 49.6347158,87.5961383 49.1433158,87.7423404 C48.8255684,87.8580957 48.1895053,88.6485638 48.1895053,88.6485638 L48.1895053,88.6781489 C47.9001789,88.4727766 47.6114211,88.2981383 47.2931053,88.1223511 C47.5244526,87.8592447 48.8545579,87.0412021 49.1725895,87.0412021 C49.4622,87.0412021 53.4522316,88.6775745 54.7237895,89.787734 C55.0421053,90.081 55.2737368,91.8925851 55.0995158,92.4765319 C52.9599789,91.9213085 51.5721789,91.103266 50.4438632,90.3139468 L50.4438632,90.2846489" id="path316" fill="#ECF0F1"></path>
                    <path d="M48.5359579,94.3768723 C48.5359579,94.3768723 47.6682632,95.2532234 47.6398421,96.8608723 C47.6102842,98.7603511 48.9699474,98.8485319 49.8660632,98.8186596 C50.9361158,98.7887872 51.8029579,98.1758298 51.7745368,96.1591596 C51.7745368,96.1591596 50.0104421,95.3988511 48.5356737,94.3762979" id="path320" fill="#ECF0F1"></path>
                    <path d="M48.3336,98.5558404 C48.8838316,98.8778298 49.4903368,98.8488191 49.8666316,98.8189468 C50.9366842,98.7896489 51.8038105,98.176117 51.7751053,96.159734 C51.7751053,96.159734 53.1046421,96.8318617 55.2734526,97.3580745 C55.2734526,97.3580745 55.6207579,97.7961064 55.6781684,98.6724574 C55.7657053,99.4040426 55.2734526,100.192213 54.6956526,100.134479 C54.6956526,100.134479 51.6594316,99.5789681 49.8095053,99.2581277 C48.7391684,99.0539043 48.3347368,98.5564149 48.3347368,98.5564149" id="path328" fill="#6699FF"></path>
                    <path d="M71.3503895,90.314234 C71.6681368,90.0804255 71.9864526,89.8457553 72.3039158,89.6130957 C72.7092,89.2911064 73.1423368,88.9987021 73.6053158,88.6778617 C73.6053158,88.6778617 72.9695368,87.8592447 72.6515053,87.7713511 C72.1601053,87.5964255 71.5814526,87.858383 71.4663474,88.9108085 C71.3790947,89.7285638 71.3503895,90.314234 71.3503895,90.314234" id="path340" fill="#6699FF"></path>
                    <path d="M71.3503895,90.2855106 C71.3503895,90.2855106 71.3796632,89.7288511 71.4663474,88.9116702 C71.5808842,87.8592447 72.1598211,87.5961383 72.6515053,87.7423404 C72.9695368,87.8580957 73.6053158,88.6485638 73.6053158,88.6485638 L73.6053158,88.6781489 C73.8943579,88.4727766 74.1828316,88.2981383 74.5011474,88.1223511 C74.2703684,87.8592447 72.9405474,87.0412021 72.6509368,87.0412021 C72.3331895,87.0412021 68.3431579,88.6775745 67.0707474,89.787734 C66.7808526,90.081 66.5500737,91.8925851 66.6950211,92.4765319 C68.8638316,91.9213085 70.2223579,91.103266 71.3503895,90.3139468 L71.3503895,90.2846489" id="path344" fill="#ECF0F1"></path>
                    <path d="M73.2588632,94.3768723 C73.2588632,94.3768723 74.1265579,95.2532234 74.1552632,96.8608723 C74.2132421,98.7592021 72.8245895,98.8479574 71.9284737,98.8186596 C70.8587053,98.7887872 70.0205684,98.1758298 70.0205684,96.1580106 C70.0205684,96.1580106 71.7840947,95.3979894 73.2588632,94.3751489 L73.2588632,94.3768723 L73.2588632,94.3768723 L73.2588632,94.3768723 L73.2588632,94.3768723 L73.2588632,94.3768723 Z" id="path350"></path>
                    <path d="M73.4609368,98.5558404 C72.9115579,98.8778298 72.3042,98.8488191 71.9281895,98.8189468 C70.8581368,98.7896489 70.0197158,98.176117 70.0197158,96.159734 C70.0197158,96.159734 68.6893263,96.8318617 66.5497895,97.3580745 C66.5497895,97.3580745 66.1740632,97.7961064 66.1160842,98.6724574 C66.0581053,99.4040426 66.5497895,100.192213 67.0991684,100.134479 C67.0991684,100.134479 70.1638105,99.5789681 71.9856,99.2581277 C73.0556526,99.0539043 73.4600842,98.5564149 73.4600842,98.5564149" id="path356" fill="#6699FF"></path>
                    <path d="M28.1799474,46.2393191 L49.2297158,35.220734 C49.3306105,34.6514362 49.0105895,34.2039255 48.6806211,33.7592872 C42.6610421,36.7427872 37.1826,40.3633723 30.4934211,42.5566915 C30.1176947,42.7031809 26.7924316,44.1057447 25.0863158,46.1812979 C24.5454632,46.7293404 24.5056737,47.5381915 24.5056737,47.5381915 C24.5056737,47.5381915 24.5471684,48.4662447 24.7401474,48.717 C24.7401474,48.717 24.7901684,48.9717766 25.1045053,49.1754255 C25.1010947,49.1754255 25.2989053,49.2733723 25.4358947,49.2239681 C25.5888,49.2529787 25.8374842,49.2509681 26.1847895,48.6365745 C26.5320947,48.0514787 27.6595579,46.7075106 28.1799474,46.2393191 L28.1799474,46.2393191 L28.1799474,46.2393191 L28.1799474,46.2393191 L28.1799474,46.2393191 L28.1799474,46.2393191 Z" id="path416" fill="#730000"></path>
                    <path d="M45.1242947,35.3370638 L47.8419158,34.0223936 C47.8419158,34.0223936 48.7670211,34.7238191 48.6806211,35.5122766 C48.6806211,35.5122766 48.8824105,37.3238617 51.1092,38.5813723 C51.1092,38.5813723 49.2297158,40.9484681 45.9334421,41.1535532 C45.9334421,41.1535532 46.1937789,37.9092447 45.5000211,37.002734 C45.9050211,36.8749149 45.4016842,35.7630319 45.1242947,35.3370638" id="path418" fill="#ECF0F1"></path>
                    <path d="M37.6060737,33.8764787 C37.4037158,34.8108511 37.4037158,35.6297553 37.4329895,36.5354043 C37.4619789,37.1486489 37.7507368,37.8500745 38.0110737,38.4641809 C38.1841579,38.8737766 38.4160737,39.3408191 38.7915158,39.5749149 C39.8038737,40.2470426 40.7579684,39.5166064 41.3073474,39.2827979 C41.5676842,39.1943298 41.9726842,38.8157553 42.0880737,38.5813723 C42.2324526,38.231234 42.1741895,37.9681277 42.3188526,37.296 C42.2895789,37.3247234 42.5499158,37.1788085 42.5212105,37.1788085 C42.7815474,36.7404894 42.7235684,36.5945745 42.8682316,36.3015957 C43.0128947,36.0091915 42.6951474,35.6880638 42.3475579,35.7469468 C42.5206421,35.1917234 42.6371684,34.5773298 42.4626632,34.051117 C42.4052526,33.8764787 42.6076105,33.4091489 42.2898632,33.5249043 C40.9884632,34.051117 39.4562842,33.9345 38.0682,33.9345 C37.9528105,33.9345 37.8658421,33.7004043 37.6927579,33.7305638 C37.6634842,33.7305638 37.6347789,33.8175957 37.6055053,33.875617" id="path440" fill="#F2C87D"></path>
                    <path d="M37.4909684,34.3725319 C37.3460211,34.2559149 37.3176,33.9936702 37.4909684,33.4372979 C37.6933263,32.8832234 37.4909684,32.8530638 37.8084316,32.5316489 C38.1267474,32.2099468 38.0392105,32.0637447 38.2421368,31.9767128 C38.4439263,31.9175426 39.0518526,31.9175426 39.2539263,31.8299362 C39.4270105,31.7423298 39.6873474,31.6257128 40.0920632,31.5668298 C40.5257684,31.4792234 41.3934632,31.5085213 41.7981789,31.7414681 C42.2318842,31.9755638 42.5212105,32.5600851 42.7812632,32.764883 C43.0708737,32.9688191 43.2439579,33.8173085 43.1862632,35.0449468 C43.0990105,36.2720106 42.8679474,36.0382021 42.8679474,36.0382021 C42.8679474,36.0382021 42.5209263,35.4539681 42.2318842,35.949734 C42.2318842,35.949734 42.2318842,35.4826915 42.2898632,35.1325532 C42.3191368,34.7815532 42.1164947,34.1384362 42.3191368,33.6998298 C42.3191368,33.6998298 40.671,34.2260426 39.8322947,34.1970319 C38.9648842,34.1381489 37.7510211,33.9339255 37.6930421,33.7291277 L37.4909684,34.3719574" id="path444" stroke="#000000" stroke-width="0.1" fill="#000000"></path>
                    <path d="M42.3194211,37.296 C42.2043158,37.9092447 42.2327368,38.2303723 42.0883579,38.5813723 C41.886,38.9903936 41.1629684,39.3706915 41.1919579,39.3411064 C40.6138737,39.5160319 39.9201158,40.2183191 38.7926526,39.5749149 C38.7346737,39.5459043 38.6772632,39.4870213 38.6192842,39.429 C38.6192842,39.429 38.9367474,40.6264787 37.7808632,41.211 C37.3761474,41.4157979 33.2988632,43.5789574 33.2988632,43.5789574 C33.2988632,43.5789574 32.8651579,44.3682766 33.1542,45.4494255 C33.1834737,45.6246383 33.2408842,45.7705532 33.0675158,45.8877447 C32.8071789,46.0916809 32.3154947,46.6770638 32.0267368,47.6122979 C32.0267368,47.6122979 31.1590421,47.232 31.1590421,46.6770638 C31.1590421,46.1215532 31.5060632,45.8294362 31.5927474,45.4195532 C31.6791474,45.040117 31.9102105,44.0755851 31.7951053,43.7828936 C31.6797158,43.4614787 31.1590421,43.3445745 30.9566842,43.2276702 C30.7833158,43.1104787 30.5516842,43.3442872 30.5809579,43.6073936 C30.6102316,43.8997979 30.8120211,43.8406277 31.0436526,43.8997979 C31.0436526,43.8997979 30.7833158,44.454734 30.8125895,44.8637553 L28.1813684,46.2375957 C28.1813684,46.2375957 28.5281053,46.7046383 28.6437789,46.9097234 C28.7588842,47.114234 29.0192211,49.8323298 29.8002316,51.1185638 C30.5809579,52.4045106 30.8412947,52.0537979 31.0146632,52.2290106 C31.1590421,52.3749255 31.3901053,52.6084468 31.5927474,52.7845213 C31.7951053,52.9304362 32.6912211,53.0174681 32.8651579,52.5214149 C33.0675158,52.0529362 33.2118947,51.7611064 33.7615579,51.3225 C34.3109368,50.8847553 35.4381158,49.7740213 35.4381158,49.2765319 C35.4381158,49.2765319 36.1031684,51.2055957 36.0162,52.8132447 C36.0162,52.8132447 38.4450632,53.3104468 40.6138737,53.3681809 C42.7829684,53.3983404 43.8814421,52.9304362 43.8814421,52.9304362 C43.8814421,52.9304362 44.1707684,51.0895532 44.0542421,50.7385532 C44.0542421,50.7385532 44.4012632,51.9368936 44.6616,52.3459149 C44.9512105,52.8419681 45.2686737,53.8648085 45.9047368,53.9236915 C46.5120947,53.9527021 47.0327684,53.3104468 47.0901789,53.0473404 L47.0901789,51.1182766 L49.5477474,51.1182766 C49.5477474,51.089266 50.6465053,51.5272979 50.9932421,51.4687021 C51.3402632,51.4394043 51.5426211,51.1182766 51.2243053,51.0010851 L51.1092,50.9140532 C51.4266632,50.9140532 51.8319474,51.1179894 51.8319474,51.1179894 L53.0458105,51.1179894 C53.0750842,51.0889787 53.0458105,51.0007979 53.0165368,50.9720745 C52.9298526,50.6210745 52.2935053,50.3286702 51.8313789,50.124734 C51.3684,49.9498085 50.8482947,49.7444362 50.5009895,49.7157128 C49.9518947,49.6565426 49.5756,49.6867021 48.7371789,49.8329043 C48.5061158,49.8619149 47.6387053,49.949234 47.0890421,50.2123404 C46.9443789,50.300234 46.7994316,50.3289574 46.8579789,49.949234 C46.9449474,49.5396383 46.9159579,47.6987553 46.4828211,46.9094362 C46.1645053,46.3545 46.1934947,45.8863085 46.2514737,45.419266 C46.2810316,44.9510745 46.3094526,43.344 46.2514737,42.8760957 C46.1645053,42.408766 45.5284421,41.7653617 44.3725579,41.6194468 C43.2738,41.4726702 42.3481263,40.5670213 42.2907158,39.8365851 C42.2040316,39.1064362 42.4066737,37.7618936 42.5220632,37.1776596 C42.4640842,37.3540213 42.3194211,37.237117 42.3194211,37.296 L42.3194211,37.296 Z" id="path452" fill="#F2C87D"></path>
                    <path id="path526" stroke="#000000" stroke-width="0.1" fill="#000000"></path>
                    <path id="path540" stroke="#000000" stroke-width="0.1" fill="#000000"></path>
                    <path d="M27.2838316,43.4333298 C27.2838316,43.4333298 27.3989368,42.8778191 27.8610632,42.8197979 C27.8610632,42.8197979 28.2367895,42.2935851 28.7870211,42.3527553 C28.7870211,42.3527553 29.4228,41.9138617 29.6544316,41.9724574 C29.8854947,42.0017553 30.4641474,42.5859894 30.4928526,42.7910745 C30.5508316,42.9952979 30.4928526,43.3462979 30.3476211,43.4925 C30.1748211,43.6671383 30.0582947,43.4632021 30.0301579,43.2293936 C30.0301579,43.2293936 30.1458316,43.6671383 29.7990947,43.8426383 C29.4526421,44.0477234 29.4816316,43.9018085 29.4526421,43.6674255 C29.4526421,43.6674255 29.3651053,44.1347553 29.1346105,44.1936383 C28.9035474,44.2815319 28.7588842,44.0775957 28.5849474,44.0775957 C28.5849474,44.0775957 28.8742737,44.3108298 28.6719158,44.4860426 C28.4695579,44.6319574 28.2382105,44.5739362 28.0938316,44.4567447 C27.9494526,44.3108298 27.7755158,43.9305319 27.1684421,44.2815319 C27.0237789,44.3677021 26.8504105,43.6964362 27.2838316,43.4333298 L27.2838316,43.4333298 Z" id="path544" fill="#F1C77D"></path>
                    <path d="M34.2234,58.630883 C34.5701368,56.3519681 35.6396211,54.4522021 35.6688947,54.2769894 C35.6688947,54.2769894 36.7679368,54.5102234 38.6764105,54.6851489 C40.5553263,54.8899468 41.076,54.8023404 41.9439789,54.7440319 C42.7815474,54.6561383 43.8808737,54.5102234 43.8808737,54.5102234 C43.8808737,54.5102234 44.2276105,55.2113617 44.2563158,55.9136489 C44.3432842,57.4038191 44.8923789,63.8625638 44.9500737,65.5876915 C44.9500737,65.5876915 45.1811368,66.6099574 45.1811368,69.124117 C45.1811368,71.8715106 45.9331579,77.453617 45.9331579,80.4353936 L45.1811368,80.5813085 C45.1811368,80.5813085 41.0751474,80.9027234 41.0751474,80.3480745 C41.0751474,79.7348298 40.8440842,72.5740851 41.4508737,68.2480532 C41.4508737,68.2480532 41.3062105,67.4007128 41.0751474,66.6694149 C40.8440842,65.9682766 39.8317263,63.7763936 39.8317263,63.3084894 C39.8317263,63.3084894 38.2128632,67.9257766 38.1256105,68.7150957 C38.0392105,69.4455319 37.8072947,79.7333936 37.6629158,80.5821702 C37.6629158,80.5821702 35.3213053,82.3940426 35.0038421,82.5686809 C34.6860947,82.714883 32.4297474,81.6047234 32.3720526,81.3120319 C32.2848,80.9914787 32.6031158,77.5119255 33.6731684,71.7827553 C34.0778842,69.7373617 33.8465368,69.3585 33.8465368,68.8015532 C33.8465368,68.246617 33.8755263,60.9106596 34.2216947,58.6314574" id="path554" fill="#ECF0F1"></path>
                    <path d="M35.4671053,54.2178191 C35.4671053,54.2178191 35.4671053,53.2834468 35.8138421,52.8152553 C35.8138421,52.8152553 36.7969263,53.0203404 38.1852947,53.1662553 C39.6018,53.3121702 40.7292632,53.4293617 41.7706105,53.3121702 C42.8113895,53.1955532 43.8814421,52.9324468 43.8814421,52.9324468 C43.8814421,52.9324468 44.1707684,54.3057128 44.0255368,54.5110851 C44.0255368,54.5110851 42.8980737,54.7440319 41.6546526,54.8029149 C40.3822421,54.8899468 38.2719789,54.6857234 37.5495158,54.5688191 C36.5954211,54.4522021 35.7564316,54.2767021 35.4676737,54.2186809" id="path586" fill="#9B5F00"></path>
                    <path d="M33.1530632,81.8968404 C33.0663789,82.2759894 32.922,82.8016277 32.8637368,83.4743298 C32.8637368,83.6213936 32.7190737,84.4101383 33.1530632,84.4385745 C33.4708105,84.468734 33.5580632,83.6211064 33.5580632,83.6211064 C33.5580632,83.6211064 33.2684526,84.555766 33.6447474,84.672383 C34.1654211,84.7892872 34.2228316,83.6492553 34.2228316,83.6492553 C34.1648526,83.9700957 33.8178316,84.7898617 34.3095158,84.8766064 C34.8301895,84.9647872 34.9745684,83.7664468 34.9745684,83.7664468 C34.9745684,83.7664468 34.5411474,84.9647872 35.0612526,84.9949468 C35.5526526,85.0236702 35.5526526,83.8253298 35.5526526,83.8253298 C35.5526526,83.8253298 35.2923158,85.2580532 35.9863579,85.1397128 C36.3618,85.0819787 36.4490526,84.5844894 36.5357368,84.2926596 C36.6511263,83.8540532 36.9114632,83.299117 36.5937158,82.3926064 C36.3623684,81.7213404 36.4490526,81.545266 36.4490526,81.545266 C36.4490526,81.545266 35.6390526,82.1599468 35.0032737,82.5686809 C34.7136632,82.7436064 33.1524947,81.8965532 33.1524947,81.8965532" id="path602" fill="#F1C77D"></path>
                    <path d="M41.5963895,80.6401915 C41.4517263,80.5520106 41.4807158,81.1664043 41.4233053,81.4576596 C41.3937474,81.7509255 41.4812842,82.3931809 42.4640842,82.3351596 C43.4176105,82.2469787 44.3725579,82.0421809 44.9799158,82.1889574 C45.5869895,82.3641702 46.4833895,82.3931809 46.9747895,82.3931809 C47.4664737,82.3931809 47.7847895,82.3351596 48.0158526,82.2469787 C48.2182105,82.1599468 48.6513474,82.3641702 48.8542737,82.3641702 C49.0560632,82.3641702 49.3749474,82.0421809 49.3456737,81.8379574 C49.3161158,81.4576596 48.9702316,81.4576596 48.4782632,81.4289362 C48.0155684,81.3694787 47.3797895,81.2821596 47.0617579,81.1658298 C46.7437263,81.0486383 46.1653579,80.7272234 45.4428947,80.5813085 C45.4428947,80.5813085 44.0545263,80.639617 43.7663368,80.639617 C43.4764421,80.639617 41.7708947,80.7272234 41.5972421,80.639617" id="path606" fill="#F1C77D"></path>
                    <path d="M67.6701474,34.114883 L75.4026632,37.9414149 C76.9518947,38.7025851 77.5089474,37.9994362 78.3831789,38.3834681 L93.6435789,46.2396064 C94.9526526,46.8175213 95.6856316,47.0025 95.4974842,47.6869787 C95.4656526,48.7744468 96.0062211,48.7908191 96.1540105,48.8023085 C96.2608737,48.8313191 96.7767158,48.7549149 96.9921474,48.4656702 C97.1535789,48.2772447 97.1595474,48.2577128 97.1595474,48.2577128 C97.3323474,48.0830745 97.3010842,48.0672766 97.3548,47.9894362 C97.9965474,47.0562128 98.3520947,46.2473617 97.6805053,45.7188511 C96.9125684,45.3552128 96.8241789,46.1804362 96.0156,46.0934043 C96.0156,46.0934043 94.5698211,45.5381809 94.0491474,45.1581702 C93.0902211,44.6305213 91.7515895,44.0049255 91.4472,43.6613936 C90.4729263,43.4769894 83.1388737,39.3077872 78.984,37.2152872 C78.5383579,36.8381489 78.2956421,35.4442021 77.4199895,34.977734 C77.1630632,34.600883 71.5385368,32.0057234 68.5972421,30.5198617 C67.5132632,30.1105532 66.9064737,29.8302128 66.1254632,31.1747553 C65.4439263,32.4931596 65.6096211,33.2123936 67.6701474,34.114883 C67.6701474,34.114883 65.6096211,33.2123936 67.6701474,34.114883 L67.6701474,34.114883 L67.6701474,34.114883 L67.6701474,34.114883 L67.6701474,34.114883 L67.6701474,34.114883 Z" id="path612" fill="#B34B00"></path>
                    <path d="M84.1887474,33.8764787 C84.4490842,34.8404362 84.5070632,35.0739574 84.5070632,35.396234 C84.5070632,35.7463723 84.3624,35.8052553 84.4775053,36.1855532 C84.6801474,36.8866915 84.2751474,37.647 83.7837474,38.4653298 C83.5526842,38.8444787 83.3790316,39.3419681 83.0033053,39.5757766 C82.0494947,40.1890213 80.8924737,39.4585851 80.2854,39.194617 C79.9679368,39.0495638 79.794,38.8157553 79.7076,38.5813723 C79.5919263,38.231234 79.5629368,37.9092447 79.4765368,37.4419149 C79.4765368,37.3540213 79.5058105,37.0917766 79.3034526,37.1788085 C78.9567158,36.7697872 79.0141263,36.5945745 78.8703158,36.3024574 C78.7256526,36.0091915 79.1306526,35.6880638 79.4484,35.7469468 C79.2750316,35.1917234 79.1880632,34.5773298 79.3614316,34.051117 C79.4194105,33.8764787 79.2170526,33.4091489 79.5063789,33.5249043 C80.8072105,34.051117 82.3396737,33.9345 83.7280421,33.9345 C83.8428632,33.9345 83.9298316,33.701266 84.1032,33.7305638 C84.1310526,33.7302766 84.1600421,33.8181702 84.1887474,33.8764787" id="path616" fill="#884900"></path>
                    <path d="M84.3041368,34.3725319 C84.4485158,34.2559149 84.3621158,33.7004043 84.2171684,33.115883 C84.1594737,32.823766 83.9278421,32.7068617 83.6100947,32.385734 C83.2920632,32.0634574 83.1766737,32.0634574 82.9740316,31.9767128 C82.8009474,31.9175426 82.3962316,31.9175426 82.1935895,31.8299362 C82.0205053,31.7423298 81.5580947,31.8006383 81.1235368,31.8598085 C80.5457368,31.9471277 80.2274211,31.9178298 79.7934316,32.1522128 C79.3600105,32.3851596 79.0129895,32.648266 78.8680421,33.0874468 C78.7526526,33.4085745 78.5497263,33.8175957 78.6366947,35.0455213 C78.6946737,36.2725851 78.9265895,36.0396383 78.9265895,36.0396383 C78.9265895,36.0396383 79.2449053,35.5711596 79.4472632,35.8644255 C79.4472632,35.8644255 79.4177053,35.2210213 79.3602947,34.8407234 C79.3313053,34.4897234 79.3602947,34.0514043 79.5052421,33.5251915 C79.5052421,33.5251915 80.8353474,34.0226809 82.0787684,34.0226809 C82.9464632,34.0226809 84.0742105,33.9347872 84.1026316,33.7305638 L84.3041368,34.3725319" id="path620" stroke="#000000" stroke-width="0.1" fill="#000000"></path>
                    <path d="M79.4748316,37.4419149 C79.5618,37.8213511 79.5618,38.231234 79.7058947,38.5813723 C79.8786947,38.9027872 79.9366737,39.0196915 80.226,39.1658936 C80.6884105,39.429 82.0469368,40.1890213 83.0018842,39.5749149 C83.0598632,39.5459043 83.1462632,39.4870213 83.2042421,39.429 C83.2042421,39.429 82.8572211,40.6273404 84.0426632,41.2118617 C84.4181053,41.4157979 88.4956737,43.5789574 88.4956737,43.5789574 C88.4956737,43.5789574 88.9290947,44.3682766 88.6687579,45.4494255 C88.6107789,45.6246383 88.5536526,45.7705532 88.7267368,45.8877447 C89.0163474,46.0916809 89.4781895,46.6770638 89.7970737,47.6122979 C89.7970737,47.6122979 90.6346421,47.232 90.6346421,46.6770638 C90.6346421,46.1215532 90.2881895,45.8294362 90.2012211,45.4204149 C90.1438105,45.040117 89.9121789,44.0755851 90.0284211,43.7837553 C90.1435263,43.4626277 90.6352105,43.3454362 90.8375684,43.2276702 C91.0404947,43.1104787 91.2712737,43.3442872 91.2132947,43.6073936 C91.1843053,43.8997979 90.9825158,43.8417766 90.7506,43.8997979 C90.7506,43.8997979 91.0404947,44.454734 90.9819474,44.8637553 L93.6415895,46.2375957 C93.6415895,46.2375957 93.2945684,46.7055 93.1788947,46.9097234 C93.0342316,47.1150957 92.7738947,49.8323298 91.9934526,51.1185638 C91.2124421,52.4045106 90.9523895,52.0537979 90.8080105,52.2290106 C90.6346421,52.3749255 90.4032947,52.6093085 90.2006526,52.7845213 C90.0278526,52.9304362 89.1308842,53.0183298 88.9285263,52.5214149 C88.7261684,52.0537979 88.5815053,51.7611064 88.0324105,51.3225 C87.4827474,50.8847553 86.3555684,49.7740213 86.3555684,49.2765319 C86.3555684,49.2765319 85.6902316,51.2064574 85.7772,52.8132447 C85.7772,52.8132447 83.3776105,53.3104468 81.1798105,53.3693298 C79.011,53.3986277 77.9122421,52.9304362 77.9122421,52.9304362 C77.9122421,52.9304362 77.6229158,51.0895532 77.7388737,50.7385532 C77.7388737,50.7385532 77.3921368,51.9368936 77.1610737,52.3459149 C76.8433263,52.8419681 76.5255789,53.8656702 75.9176526,53.9236915 C75.2821579,53.9535638 74.7899053,53.3104468 74.7037895,53.0473404 L74.7037895,51.1182766 L72.2465053,51.1182766 C72.2465053,51.089266 71.1761684,51.5272979 70.8007263,51.4695638 C70.4537053,51.4394043 70.2800526,51.1182766 70.5696632,51.0010851 L70.6853368,50.9140532 C70.3673053,50.9140532 69.9623053,51.1179894 69.9623053,51.1179894 L68.7481579,51.1179894 C68.7481579,51.0889787 68.7774316,51.0007979 68.7774316,50.9720745 C68.8646842,50.6219362 69.5007474,50.3286702 69.9915789,50.124734 C70.4542737,49.9498085 70.9453895,49.7444362 71.2926947,49.7157128 C71.8420737,49.6574043 72.2180842,49.6867021 73.0565053,49.8329043 C73.2872842,49.8619149 74.1839684,49.9500957 74.7043579,50.2126277 C74.8487368,50.2999468 75.0221053,50.3289574 74.9354211,49.9498085 C74.8487368,49.5402128 74.5884,48.3418723 75.0226737,47.5525532 C75.312,46.9973298 75.2830105,46.5302872 75.2537368,46.0620957 C75.1957579,45.5654681 74.9359895,44.4541596 74.9359895,43.9581064 C74.9359895,42.3211596 76.1794105,41.6490319 77.2778842,41.2977447 C78.4920316,40.918883 79.3017474,40.5084255 79.2446211,39.7788511 C79.2150632,39.0188298 79.4174211,37.7621809 79.3020316,37.1770851 C79.5038211,37.0909149 79.4464105,37.3540213 79.4748316,37.4419149 L79.4748316,37.4419149 Z" id="path624" fill="#884900"></path>
                    <path d="M87.5717053,58.630883 C87.2244,56.3519681 86.1836211,54.4522021 86.1259263,54.2769894 C86.1259263,54.2769894 85.0555895,54.5102234 83.1476842,54.6851489 C81.2394947,54.8899468 80.7191053,54.8023404 79.8806842,54.7440319 C79.0129895,54.6561383 77.9142316,54.5102234 77.9142316,54.5102234 C77.9142316,54.5102234 77.5674947,55.2113617 77.5390737,55.9136489 C77.4523895,57.4038191 76.9317158,63.8625638 76.8453158,65.5876915 C76.8453158,65.5876915 76.6139684,66.6099574 76.6139684,69.124117 C76.6139684,71.8715106 75.8619474,77.453617 75.8619474,80.4353936 L76.6139684,80.5813085 C76.6139684,80.5813085 80.7196737,80.9027234 80.7196737,80.3480745 C80.7196737,79.7348298 80.9510211,72.5740851 80.3439474,68.2480532 C80.3439474,68.2480532 80.4886105,67.4007128 80.7196737,66.6694149 C80.9510211,65.9682766 81.9630947,63.7763936 81.9630947,63.3084894 C81.9630947,63.3084894 83.5816737,67.9257766 83.6689263,68.7150957 C83.7556105,69.4455319 83.9863895,79.7333936 84.1603263,80.5821702 C84.1603263,80.5821702 86.4738,82.3940426 86.7921158,82.5686809 C87.1098632,82.714883 89.3656421,81.6047234 89.4230526,81.3120319 C89.5100211,80.9914787 89.1919895,77.5119255 88.1219368,71.7827553 C87.7169368,69.7373617 87.9485684,69.3585 87.9485684,68.8015532 C87.9485684,68.246617 87.9195789,60.9106596 87.5731263,58.6314574" id="path714" fill="#ECF0F1"></path>
                    <path d="M86.3282842,54.2178191 C86.3282842,54.2178191 86.3282842,53.2834468 85.9812632,52.8152553 C85.9812632,52.8152553 84.9981789,53.0203404 83.6100947,53.1662553 C82.1935895,53.3121702 81.0655579,53.4293617 80.0244947,53.3121702 C78.9837158,53.1955532 77.9136632,52.9324468 77.9136632,52.9324468 C77.9136632,52.9324468 77.6243368,54.3057128 77.7692842,54.5110851 C77.7692842,54.5110851 78.8970316,54.7440319 80.1404526,54.8029149 C81.4131474,54.8899468 83.5234105,54.6857234 84.2751474,54.5688191 C85.2005368,54.4522021 86.0392421,54.2767021 86.3282842,54.2186809" id="path746" fill="#9B5F00"></path>
                    <path d="M88.6701789,81.8968404 C88.7281579,82.2759894 88.9015263,82.8016277 88.9305158,83.4743298 C88.9305158,83.6213936 89.0754632,84.4101383 88.6411895,84.4385745 C88.3515789,84.468734 88.2361895,83.6211064 88.2361895,83.6211064 C88.2361895,83.6211064 88.5258,84.555766 88.1489368,84.672383 C87.6575368,84.7892872 87.5711368,83.6492553 87.5711368,83.6492553 C87.6578211,83.9700957 88.0045579,84.7898617 87.4841684,84.8766064 C86.9640632,84.9647872 86.8191158,83.7664468 86.8191158,83.7664468 C86.8191158,83.7664468 87.2522526,84.9647872 86.7611368,84.9949468 C86.2404632,85.0236702 86.2404632,83.8253298 86.2404632,83.8253298 C86.2404632,83.8253298 86.5303579,85.2580532 85.8070421,85.1397128 C85.4313158,85.0819787 85.3736211,84.5844894 85.2863684,84.2926596 C85.1709789,83.8540532 84.8816526,83.299117 85.1996842,82.3926064 C85.4307474,81.7213404 85.3443474,81.545266 85.3443474,81.545266 C85.3443474,81.545266 86.1824842,82.1599468 86.7901263,82.5686809 C87.0797368,82.7444681 88.6698947,81.8968404 88.6701789,81.8968404" id="path762" fill="#884900"></path>
                    <path d="M80.1984316,80.6401915 C80.3430947,80.5520106 80.3430947,81.1664043 80.3718,81.4576596 C80.4007895,81.7509255 80.3425263,82.3931809 79.3594421,82.3351596 C78.3763579,82.2469787 77.4225474,82.0421809 76.8149053,82.1889574 C76.2075474,82.3641702 75.3111474,82.3931809 74.8194632,82.3931809 C74.3277789,82.3931809 74.0094632,82.3351596 73.8073895,82.2469787 C73.6050316,82.1599468 73.1423368,82.3641702 72.9399789,82.3641702 C72.7376211,82.3641702 72.4193053,82.0421809 72.4485789,81.8379574 C72.5065579,81.4576596 72.8240211,81.4576596 73.3162737,81.4289362 C73.8076737,81.3694787 74.4150316,81.2821596 74.7327789,81.1658298 C75.0508105,81.0486383 75.6288947,80.7272234 76.3809158,80.5813085 C76.3809158,80.5813085 77.7687158,80.639617 78.0577579,80.639617 C78.3180947,80.639617 80.0526316,80.7272234 80.1970105,80.639617" id="path766" fill="#884900"></path>
                    <path d="M65.8364211,84.933766 C67.9157053,83.753234 69.0408947,82.7232128 69.8764737,81.3493723 C69.0948947,81.7980319 69.2031789,81.8009043 68.7978947,81.7420213 C68.3931789,81.6549894 68.1041368,81.3628723 68.1041368,81.3628723 C68.1041368,81.3628723 67.7284105,81.8009043 67.2364421,81.7420213 C66.7450421,81.6549894 66.3113368,81.3628723 66.3113368,81.3628723 C66.3113368,81.3628723 65.6755579,81.8009043 65.0389263,81.7721809 C64.5472421,81.7423085 64.1425263,81.3039894 64.1425263,81.3039894 C64.1425263,81.3039894 63.0144947,81.6837128 62.7837158,81.6837128 C62.5233789,81.6837128 61.7139474,81.3039894 61.7139474,81.3039894 C61.7139474,81.3039894 61.164,81.6558511 60.8462526,81.6558511 C60.4995158,81.6558511 59.5735579,81.2462553 59.5735579,81.2462553 C59.5735579,81.2462553 58.7064316,81.4794894 58.3017158,81.4794894 C57.8967158,81.4794894 57.2896421,81.2462553 57.2896421,81.2462553 C57.2896421,81.2462553 56.5663263,81.5670957 56.1329053,81.4794894 C55.7279053,81.3924574 55.4098737,81.2462553 55.4098737,81.2462553 C55.4098737,81.2462553 54.6001579,81.5670957 54.1090421,81.4794894 C53.6173579,81.3924574 53.0389895,81.0710426 53.0389895,81.0710426 C53.0389895,81.0710426 52.9520211,81.3042766 51.9982105,81.4794894 C51.9982105,81.4794894 52.4768211,81.3510957 51.9686526,81.5093617 C52.8212842,82.754234 54.1917474,83.9927872 55.4087368,84.8295 C56.3230421,84.5798936 56.6947895,84.3478085 56.6947895,84.3478085 C56.6947895,84.3478085 57.3788842,84.738734 57.8711368,84.8263404 C58.3625368,84.914234 59.0076947,84.4486277 59.0076947,84.4486277 C59.0076947,84.4486277 59.5636105,84.7393085 59.9683263,84.8263404 C60.3736105,84.914234 60.8752421,84.5468617 60.8752421,84.5468617 C60.8752421,84.5468617 61.6278316,84.8174362 62.0325474,84.8174362 C62.4375474,84.8174362 63.2185579,84.5437021 63.2185579,84.5437021 C63.2185579,84.5437021 63.9540947,84.9530106 64.3014,84.9530106 C64.6194316,84.9530106 65.0207368,84.7008191 65.0207368,84.7008191 C65.0207368,84.7008191 65.2296316,84.9627766 65.8364211,84.933766 C65.8364211,84.933766 65.2296316,84.9627766 65.8364211,84.933766 L65.8364211,84.933766 L65.8364211,84.933766 L65.8364211,84.933766 L65.8364211,84.933766 L65.8364211,84.933766 Z" id="path110" fill="#5AC800"></path>
                    <path d="M60.9656211,87.5562128 C63.7943684,86.3662021 64.3053789,86.0424894 66.0163263,84.9851809 C65.7179053,84.9935106 64.8499263,84.7102979 65.1639789,84.6198191 C65.1639789,84.6198191 64.8161053,84.9366383 64.4693684,84.9366383 C64.1510526,84.9366383 63.2259474,84.528766 63.2259474,84.528766 C63.2259474,84.528766 62.3588211,84.7617128 61.9538211,84.7617128 C61.5488211,84.7617128 60.9417474,84.528766 60.9417474,84.528766 C60.9417474,84.528766 60.1897263,84.8493191 59.7850105,84.7617128 C59.3800105,84.6746809 59.0619789,84.528766 59.0619789,84.528766 C59.0619789,84.528766 58.2238421,84.8493191 57.7611474,84.7617128 C57.2697474,84.6746809 56.6910947,84.3526915 56.6910947,84.3526915 C56.6910947,84.3526915 55.9794316,84.7341383 55.5326526,84.7780851 C56.8994211,85.7897234 58.3383789,86.7775213 60.9656211,87.5562128 C60.9656211,87.5562128 58.3383789,86.7775213 60.9656211,87.5562128 L60.9656211,87.5562128 L60.9656211,87.5562128 L60.9656211,87.5562128 L60.9656211,87.5562128 L60.9656211,87.5562128 Z" id="path112" fill="#FFD800"></path>
                    <path d="M74.7043579,66.9902553 C74.7043579,70.146383 74.2709368,82.7145957 60.9116211,87.5958511 C47.5241684,82.7145957 47.0904632,70.1475319 47.0904632,66.9902553 L47.0904632,51.1205745 L74.7043579,51.1205745 L74.7043579,66.9902553 L74.7043579,66.9902553 Z" id="path182" stroke="#000000" stroke-width="0.1"></path>
                    <path d="M59.0477684,64.2399894 C59.6096526,63.7775426 59.9322316,63.332617 59.7446526,62.9870745 C59.5334842,62.6903617 59.2032316,63.1726277 58.8312,63.0594574 C58.8312,63.0594574 58.2696,62.7084574 58.1164105,62.4568404 C57.7887158,62.0888936 57.3672316,61.7577128 57.1245158,61.4414681 C56.8673053,61.1482021 55.8995684,59.8553617 54.4267895,58.3669149 C54.0033158,58.0877234 54.1002316,57.0312766 53.7966947,56.7032553 C53.7708316,56.474617 50.8528421,53.5551702 49.8114947,52.4990106 C49.3905789,52.1859255 49.1686105,51.9828511 48.4288105,52.6607234 C47.8447579,53.1932553 47.6347263,53.742734 48.4009579,54.4062447 L48.4009579,54.4062447 L52.1968737,57.8944149 C52.7513684,58.4390106 53.5258421,58.5381064 53.8506947,58.8201702 L57.7091368,62.8078404 C58.1948526,63.2320851 58.4279053,63.5328191 58.1533579,63.8955957 C57.8484,64.4921809 58.1746737,64.5726064 58.2440211,64.5907021 C58.2883579,64.6154043 58.5609158,64.6148298 58.7428105,64.4729362 L59.0477684,64.2399894 L59.0477684,64.2399894 L59.0477684,64.2399894 L59.0477684,64.2399894 L59.0477684,64.2399894 Z" id="path4393_1_" fill="#B34B00"></path>
                    <path d="M48.3736737,65.4302872 L55.9299789,55.9791383 C56.0715158,55.8481596 56.7720947,55.8409787 56.8670211,56.5731383 L49.7108842,66.4295745 C49.7111684,66.4295745 48.8957684,66.348 48.3736737,65.4302872 L48.3736737,65.4302872 L48.3736737,65.4302872 L48.3736737,65.4302872 L48.3736737,65.4302872 L48.3736737,65.4302872 Z" id="path130" fill="#782121"></path>
                    <path id="path690" fill="#000000"></path>
                    <path id="path700" fill="#000000"></path>
                    <path id="path702" fill="#000000"></path>
                    <path id="path704" fill="#000000"></path>
                    <path id="path520" fill="#000000"></path>
                    <path d="M94.2216632,45.3328085 C94.3660421,45.391117 94.7713263,44.748 94.3660421,44.4555957 C94.3660421,44.4555957 94.2216632,43.9003723 93.7589684,43.8710745 C93.7589684,43.8710745 93.3832421,43.3161383 92.8332947,43.4040319 C92.8332947,43.4040319 92.2262211,42.9662872 91.9948737,42.9950106 C91.7345368,43.0538936 91.1564526,43.6384149 91.1271789,43.8423511 C91.0981895,44.0175638 91.1271789,44.3685638 91.2718421,44.5437766 C91.4452105,44.6908404 91.5614526,44.5144787 91.5895895,44.2513723 C91.5895895,44.2513723 91.4742,44.6896915 91.8209368,44.8947766 C92.1676737,45.0987128 92.1386842,44.9235 92.1676737,44.6896915 C92.1676737,44.6896915 92.2546421,45.157883 92.4859895,45.2449149 C92.7170526,45.3328085 92.8614316,45.1277234 93.0356526,45.1277234 C93.0356526,45.1277234 92.7463263,45.3618191 92.9492526,45.5080213 C93.1516105,45.683234 93.3826737,45.5950532 93.5273368,45.4790106 C93.7009895,45.3621064 93.6145895,44.9820957 94.2216632,45.3328085" id="path184" fill="#884900"></path>
                </g>
            </g>
        </g>
    </g>
</svg>