<?xml version="1.0" encoding="UTF-8" standalone="no"?>
<svg width="180px" height="180px" viewBox="0 0 180 180" version="1.1" xmlns="http://www.w3.org/2000/svg" xmlns:xlink="http://www.w3.org/1999/xlink">
    <!-- Generator: Sketch 3.8.3 (29802) - http://www.bohemiancoding.com/sketch -->
    <title>benin</title>
    <desc>Created with Sketch.</desc>
    <defs></defs>
    <g id="Page-1" stroke="none" stroke-width="1" fill="none" fill-rule="evenodd">
        <g id="flags" transform="translate(-720.000000, -720.000000)">
            <g id="benin" transform="translate(720.000000, 720.000000)">
                <path d="M0.00409722172,89.1321797 C0.469845568,39.8262117 40.583965,0 90,0 C139.70563,0 180,40.2943701 180,90 C180,139.70563 139.70563,180 90,180 C40.583965,180 0.469845568,140.173788 0.00409722172,90.8678203 L0.00409722172,89.1321797 L0.00409722172,89.1321797 Z" id="green" fill="#1AAF5D"></path>
                <path d="M50,170.644804 L50,90 L180,90 C180,139.70563 139.70563,180 90,180 C75.631582,180 62.049584,176.632938 49.9999927,170.644801 L50,170.644804 Z" id="red" fill="#E94B35"></path>
                <path d="M50,9.35519552 L50,90 L180,90 C180,40.2943701 139.70563,0 90,0 C75.631582,0 62.049584,3.36706199 49.9999927,9.35519916 L50,9.35519552 Z" id="yellow" fill="#F2C500"></path>
            </g>
        </g>
    </g>
</svg>