<?xml version="1.0" encoding="UTF-8" standalone="no"?>
<svg width="180px" height="180px" viewBox="0 0 180 180" version="1.1" xmlns="http://www.w3.org/2000/svg" xmlns:xlink="http://www.w3.org/1999/xlink">
    <!-- Generator: Sketch 3.8.3 (29802) - http://www.bohemiancoding.com/sketch -->
    <title>bermuda</title>
    <desc>Created with Sketch.</desc>
    <defs></defs>
    <g id="Page-1" stroke="none" stroke-width="1" fill="none" fill-rule="evenodd">
        <g id="flags" transform="translate(-990.000000, -720.000000)">
            <g id="bermuda" transform="translate(990.000000, 720.000000)">
                <ellipse id="red" fill="#E94B35" cx="90" cy="90" rx="90" ry="90"></ellipse>
                <g id="UK-corner">
                    <path d="M90,90 L90,0 C40.2943725,0 0,40.2943725 0,90 L90,90 Z" id="blue" fill="#227FBB"></path>
                    <path d="M58.6665316,5.60442783 L41.3956444,14.2398718 C16.4947453,30.2482972 0,58.1978704 0,90 L18,90 L18,64.0623044 L69.8753928,90 L90,90 L90,79.937694 L47.124612,58.5 L90,58.5 L90,31.5 L47.1246106,31.5 L90,10.062306 L90,0 C78.9808284,0 68.424181,1.98030051 58.6665316,5.60442783 L58.6665316,5.60442783 Z" id="white" fill="#FFFFFF"></path>
                    <path d="M17.9934072,35.9999997 L90,36 L90,54 L12,53.9999997 L12,89.9999997 L0,89.9999998 C4.3896494e-08,69.7390927 6.69500614,51.041889 17.9934072,35.9999997 L17.9934072,35.9999997 L17.9934072,35.9999997 Z M75.9120161,1.09619155 L24.8567236,27.9002201 C23.7407294,29.0705605 22.6559518,30.2709324 21.6037269,31.5 L30,31.5 L90,0 L89.9925529,0 C85.2024043,0.000387862029 80.4996778,0.374999182 75.9120161,1.09619155 L75.9120161,1.09619155 L75.9120161,1.09619155 Z M28,58.5 L40,58.5 L90,84 L90,90 L28,58.5 L28,58.5 Z" id="red" fill="#E94B35"></path>
                </g>
                <g id="emblem" transform="translate(102.000000, 74.000000)">
                    <path d="M0.909914511,0.938089943 L0.909914511,56.2353666 C1.56439605,64.1522024 18.0645997,69.137397 29.5689688,77.5459455 C44.6578254,67.4248305 59.2931792,65.3779949 59.8814292,54.0308246 L60.0651417,0.938089943 L0.909914511,0.938089943 L0.909914511,0.938089943 L0.909914511,0.938089943 Z" id="use2386" fill="#FFFFFF"></path>
                    <polygon id="path3198" fill="#2F8F22" points="1.5220525 58.6003705 3.58179939 61.0720656 18.4806326 70.6842167 29.3972892 77.48138 50.6813365 65.8781411 58.0277655 60.2481675 59.4695876 52.9017385 58.5770312 51.1852831 58.7830053 52.9703959 58.2337396 54.4122189 57.6158155 54.0002699 57.2038665 51.3225988 57.1352082 53.3136875 56.1053351 54.4808773 55.8993601 53.0390542 56.1739935 52.0091811 55.7620444 50.8419914 55.6247278 53.1763709 55.0754621 54.2062439 54.5948547 53.5196615 54.8008287 52.4897885 54.7321704 51.5285738 54.3888797 51.0479664 54.3202214 52.0778395 54.1142474 52.4211302 54.1829047 53.0390542 53.7709557 53.4510042 53.4963233 52.6271052 53.633639 51.8718645 53.4963233 51.1852831 53.22169 50.4300424 53.2903483 51.6658905 52.603766 53.1763709 52.0545003 53.5196615 51.7112096 53.1077125 51.7798679 51.6658905 51.2992596 50.8419914 51.4365762 52.6271052 50.7499939 54.2062439 50.3380448 53.7256366 50.1320708 53.2450292 50.1320708 52.4897885 50.8873105 50.5673591 50.1320708 51.2539404 49.5141468 52.9017385 49.2395135 53.3823459 48.8962228 52.5584468 49.3768301 50.7046747 49.1021968 50.3613841 48.4842728 52.6271052 47.9350071 52.9703959 47.523058 52.8330802 47.2484257 52.9703959 14.0178478 54.8241679 13.1252914 53.5196615 12.9193164 54.8241679 12.3700507 55.3047753 11.820785 52.9017385 11.408836 55.442092 10.8595703 54.2062439 11.1342026 51.3912571 10.8595703 51.1852831 10.4476213 52.6957635 10.4476213 54.8241679 10.2416462 56.265991 9.82969723 55.9913577 9.28043153 54.6868513 9.2117732 52.5584468 9.41774721 51.0479664 8.86848152 52.8330802 8.86848152 55.030143 8.79982418 56.1286743 8.11324161 54.6181939 7.76994993 53.3823459 7.08336856 51.9405228 7.49531758 53.7942949 7.49531758 54.7555096 6.32812786 53.7256366 5.71020383 50.8419914 5.57288716 52.9703959 5.8475205 54.0002699 5.50422882 54.4122189 4.81764646 53.1763709 4.40569744 51.5285738 3.92509008 49.949435 3.92509008 52.4897885 4.26838076 53.8629532 3.99374841 54.2062439 3.44448272 53.9316116 3.23850771 52.4211302 3.10119104 50.2240674 2.55192535 51.7345488 2.41460967 53.3136875 2.20863466 54.5495356 1.86534358 55.3734336 0.904128566 55.442092"></polygon>
                    <path d="M29.6302445,3.23069842 L28.185862,3.2132962 L27.9422322,3.70055754 L27.9248298,4.37924294 L27.7508076,4.58806923 L27.7160038,4.95351515 L26.9155027,4.95351515 L26.3760348,4.62287356 L26.2194151,4.83169984 L25.6799472,6.34569029 L25.3667077,6.55451657 L25.001262,6.55451657 L24.5140003,6.98957176 L24.0267397,6.98957176 L24.0267397,7.42462615 L24.4965979,8.01630027 L24.8620446,8.29473592 L25.001262,8.92121388 L25.3493053,9.46068206 L24.8620446,9.93054127 L24.4791965,10.3307918 L24.2877719,10.6266289 L24.1311522,10.6266289 L24.0267397,10.2785856 L23.8527176,9.87833502 L23.4176622,10.1219658 L23.0174126,10.4004005 L23.034814,10.8354559 L23.6786954,11.6533584 L24.2877719,11.6881622 L23.7483041,12.7148917 L23.6264892,12.1058152 L23.3480535,11.8795868 L23.1740323,11.9143906 L22.7737818,12.1754239 L22.4953462,12.5930768 L22.4257375,12.8541091 L22.2865202,13.0977399 L22.112498,13.4979904 L22.1647053,13.8634362 L22.4605423,14.2636867 L22.7737818,14.52472 L23.4176622,14.7335459 L23.6438916,14.7857522 L24.7750336,14.7857522 L24.4443917,15.5166446 L24.1485546,16.3171447 L23.7831089,16.99583 L23.5568805,17.082841 L23.452467,16.9436237 L23.452467,16.578178 L23.8875214,15.5862533 L23.8527176,15.2556114 L23.5916843,15.3600249 L23.2610424,15.3600249 L23.1044237,15.2556114 L22.4257375,15.8124817 L21.9732807,16.4737645 L21.8688682,16.9610261 L22.0080855,17.6397113 L22.4083361,18.3532014 L22.738977,18.5968322 L22.9826078,18.7012447 L22.9478039,19.0666904 L23.2088362,19.345126 L23.6786954,19.553952 L23.5394781,19.762778 L23.1740323,20.1282247 L22.9478039,20.4588656 L22.7737818,20.9287248 L22.9652054,21.5552038 L22.7737818,21.8858457 L22.3387264,22.0424654 L21.6774436,22.1816828 L21.2423892,22.3905087 L21.1379757,22.8429655 L20.8943449,23.2606185 L20.0242362,23.573858 L19.3281485,23.6608691 L18.5798537,23.7478801 L18.1622017,23.7478801 L17.9359733,23.3998358 L17.9359733,22.8429655 L17.5531252,22.1990852 L17.1528746,21.729226 L16.4741894,21.4681927 L16.0043302,21.4159865 L15.5518734,21.5552038 L15.1864267,21.9902582 L14.8731882,21.9902582 L14.403329,21.4159865 L14.0204808,21.1375518 L13.7942524,21.102747 L13.3765994,21.2245619 L12.5760983,22.0598678 L12.1584464,22.025063 L11.6537823,21.6944211 L11.1491193,21.9902582 L10.9054885,22.0772693 L10.4704341,22.4949222 L10.4530316,23.0691939 L10.7140649,23.7478801 L10.9576947,24.0089124 L11.2361303,24.078521 L11.3405428,24.6527938 L11.4971626,24.913826 L12.1410439,25.5403049 L11.6711847,26.1841863 L11.5841737,26.6018393 L11.5667722,27.3327307 L11.6711847,27.6981765 L12.5760983,28.8989281 L12.5238921,29.1599604 L11.6711847,29.7864393 L10.888086,30.5347332 L10.6444562,31.1438097 L10.6618576,31.5788651 L9.91356377,32.2575503 L9.84395511,32.9188331 L10.0005748,34.0325737 L10.3486182,34.5198353 L10.888086,34.8678786 L11.3579453,35.0244984 L11.9670218,34.9722921 L12.4542834,34.6764551 L12.7675229,34.3980194 L12.854534,33.5975193 L13.4288057,33.9977689 L14.1074919,34.8504762 L14.6121549,35.6335749 L14.6295574,35.8424009 L13.8638611,35.8249995 L13.568024,35.7379884 L12.7849253,35.7727922 L12.3324685,35.9468144 L11.932218,35.929412 L11.723392,35.8424009 L11.2013255,36.1034341 L10.2094008,36.5906958 L9.42630214,37.0431526 L9.11306266,37.0779564 L8.66060566,37.4434031 L8.31256235,37.5130118 L7.75569205,38.191697 L7.61647473,38.6441538 L7.66868098,39.4794587 L7.92971421,40.036329 L7.98192045,40.9934489 L8.10373636,41.1848734 L8.0341267,41.8113524 L7.72088822,42.2464068 L7.66868098,42.5596463 L7.49465882,42.9772992 L7.23362659,43.342745 L7.19882176,44.2824634 L7.04220202,45.187377 L7.09440926,46.4055301 L7.14661551,47.6062808 L6.78116978,48.3545756 L6.48533272,48.7374238 L6.41572406,49.1898806 L6.31131057,49.50312 L6.76376737,49.50312 L6.98999577,49.3116955 L6.92038711,49.6945436 L7.8078983,48.78963 L7.87750796,49.1898806 L8.27775752,48.8766411 L8.31256235,48.1805535 L8.29515993,47.8325092 L8.52138833,48.3893794 L8.66060566,48.5285968 L8.95644292,48.2501621 L9.02605258,47.9369226 L9.18267232,48.5111954 L9.35669347,48.7026189 L9.77434644,48.2327597 L9.82655269,47.1190201 L9.56552046,46.3881277 L10.0527811,47.3104437 L10.2268032,47.658488 L10.6096514,48.2327597 L10.7836735,48.8940435 L11.3753477,48.78963 L11.6537823,47.0668129 L12.1062401,48.5285968 L12.6805118,50.7386755 L13.0459576,52.0090349 L13.4984144,52.7747311 L13.77685,53.6274385 L14.1771006,54.2713199 L14.8035785,55.1066248 L15.4648623,55.6112879 L16.3175697,55.8723211 L17.4661141,55.8897235 L17.4835165,56.3247779 L17.0484611,56.7250285 L16.87444,57.0904742 L16.4045807,57.8735729 L16.0913413,58.1694099 L14.9253944,58.1520075 L14.2467092,57.838768 L13.8812625,57.751757 L13.1155662,57.8909753 L12.5238921,58.3434321 L12.2454574,58.3260297 L11.6537823,58.6044643 L11.3579453,58.9873125 L11.2187279,59.4919765 L10.8358798,60.1010531 L10.6618576,60.4664988 L10.8184774,60.9711628 L10.6096514,61.354011 L10.5574451,62.78099 L10.888086,63.616295 L11.4275539,64.1731653 L11.7930006,64.4167961 L12.0018266,64.3123826 L11.9496204,63.3900666 L12.1410439,62.9028059 L12.5238921,63.1290343 L13.0981648,62.8505987 L13.568024,63.2160444 L13.3940019,63.8599258 L13.4636105,64.6430245 L13.8116538,65.4957318 L14.4207304,66.2788305 L14.8905896,66.6442763 L14.9253944,66.4354503 L14.8905896,64.6430245 L15.2908401,64.2949802 L15.7781018,64.2775788 L16.3523735,63.8425234 L16.6482106,63.7729147 L16.9266462,63.5640887 L16.96145,63.2508492 L17.2050808,63.3378603 L17.3617006,63.912132 L17.3268968,64.5560134 L17.3442982,64.8344481 L17.8489622,65.0084702 L18.9453004,63.9991431 L19.2063326,63.3900666 L19.2933437,62.4329467 L19.5195721,62.2589246 L19.5369745,62.0152938 L19.3281485,61.6324456 L19.6065832,61.5628369 L20.0068337,61.6846519 L20.5811054,61.3192061 L20.8943449,60.936358 L21.1379757,60.8667493 L22.4083361,59.5789876 L23.3132497,59.9096285 L24.7054249,60.4490964 L25.6799472,60.6927272 L25.9061756,60.8145431 L26.34123,60.8319445 L26.7588829,61.0581729 L27.2461446,61.6846519 L27.3853619,61.9282827 L27.2287422,62.0152938 L26.7066767,61.7542605 L26.4978497,61.8412716 L25.9061756,62.3459356 L25.8887732,63.3204579 L26.4456435,64.0165455 L27.681199,64.1035566 L28.2206668,63.8425234 L28.6905261,64.1035566 L29.317005,63.8425234 L29.8912767,63.6510998 L30.6917778,63.9469369 L31.1094298,64.0513504 L31.5096804,63.9817407 L31.8751261,63.7033061 L32.4493988,63.7903171 L32.9888667,63.7729147 L33.33691,63.5118825 L33.632748,63.0420233 L33.7893678,62.6765765 L33.7197581,62.1893159 L33.4239211,61.8412716 L33.0584753,61.7020543 L32.6756272,61.7020543 L32.7278334,61.4932283 L33.2498999,61.1799888 L35.0945319,60.222868 L35.4425753,60.1706617 L35.9472393,59.805216 L36.4344999,59.7704112 L37.2175986,59.1613346 L37.5134357,59.3179544 L37.8266752,59.5789876 L38.4357517,60.1532593 L38.8534047,60.7449344 L39.1492417,60.9711628 L39.4972851,61.5976408 L39.9497419,62.0849024 L40.2803838,62.2937284 L40.6632319,62.3459356 L40.4196011,62.7287838 L40.3151886,63.1290343 L40.4370035,63.7207085 L40.2281775,64.4341985 L40.2281775,65.2695034 L40.5066122,66.0003949 L40.8546565,65.7567641 L42.090212,64.5908182 L42.5252663,64.538611 L42.9603207,64.2253715 L43.1865491,63.5640887 L43.3257675,63.1464358 L43.517191,63.4248714 L43.7956257,64.120959 L44.352496,64.6778283 L44.7353441,64.8344481 L44.7701489,65.669754 L44.7875514,66.5572652 L44.9789749,66.6268738 L45.6228563,66.174417 L46.1623242,65.5131343 L46.5103675,64.6952307 L46.614781,63.8947306 L46.4581612,63.198643 L46.405955,62.7287838 L46.5799762,62.2415222 L47.1368464,62.8331963 L47.5893032,63.0594247 L47.7807278,64.4167961 L48.2157822,64.1905677 L48.7378477,63.5988926 L49.2077069,62.8854035 L49.3295228,62.0849024 L49.2425117,60.9015542 L49.0684896,59.7530087 L48.3898044,58.8132913 L48.1113687,58.7436826 L47.7981292,58.3608345 L47.745923,58.1172037 L46.8584118,57.4211161 L46.1623242,57.2818987 L45.5532476,57.5081271 L45.2400082,58.0301926 L45.0311812,58.0301926 L44.3176921,57.4385185 L44.2828873,57.0034631 L43.934844,56.6554198 L44.3176921,56.202963 L44.7701489,56.1507557 L45.5184428,55.7679076 L46.1449218,55.2980484 L46.6843896,54.6019608 L47.1542489,53.8884717 L47.3108686,53.0531668 L47.6415095,52.1134484 L48.1461735,50.4950447 L48.4942169,49.0680646 L48.9292722,48.8592387 L49.4687401,48.6330103 L49.9211969,48.1979559 L50.1822292,48.1457486 L50.3910561,47.7629005 L50.6520884,47.7454991 L50.721697,47.2234326 L50.8783168,46.9798028 L51.1915562,46.8579869 C51.1915562,46.8579869 51.2785673,47.658488 51.1915562,47.7454991 C51.1045452,47.8325092 50.5650773,48.8940435 50.5650773,48.8940435 L50.3910561,49.5901311 L50.3562513,49.7989571 L50.8435129,49.8859682 L51.4003832,49.6597398 L51.6788179,49.6597398 L52.2878944,48.9636522 L52.8273623,47.9369226 L53.0187869,46.8927917 L53.2450153,47.2234326 L53.2972215,47.7803029 L53.1057969,48.6330103 L52.9491772,49.3639027 L52.7751561,49.6075325 L52.9317758,49.920772 L53.3842326,49.6249349 L53.8366894,49.5205224 L55.1070487,48.1109448 L55.6291152,46.2837152 L55.6291152,44.5086918 L55.455093,44.3172672 L55.7335277,44.0040277 L55.6987238,43.3775488 L55.5072993,42.8206795 L55.1940598,42.4900376 L54.6371905,42.9076896 L54.2891462,42.8554833 L53.9062981,42.1419933 L53.8540918,41.08046 L53.7148745,40.9064388 L53.7670807,40.5061882 L54.0803202,39.8971117 L54.0977226,38.9921971 L53.7496783,38.1220883 L53.2276129,37.4782069 L52.8273623,37.3389896 L52.3226992,37.2867834 L51.9050463,36.9909453 L51.6614155,36.9039352 L51.2785673,36.9387391 L50.9131216,36.4862823 L50.3562513,36.5036847 L50.0430118,36.2948577 L49.7471748,36.434076 C49.7471748,36.434076 49.1729031,36.2774563 49.0684896,36.2600539 C48.9640761,36.2426515 48.6508366,36.2426515 48.6508366,36.2426515 L48.1461735,35.8075971 L47.9895538,35.9120096 L47.3804773,35.8772057 L46.4581612,35.5813687 L46.5451723,35.3203354 L47.2586614,34.6938565 L47.7285206,34.5024329 L48.4072068,35.094107 L48.9466746,35.4943576 L49.6601637,35.6857812 L50.512871,35.4247489 L51.0523389,34.8504762 L50.9131216,34.3110083 L50.7565019,33.0232466 L50.1300229,32.2053441 L49.8341858,30.7261577 L49.1729031,29.7864393 L48.9640761,29.3861888 L48.8944674,28.9163295 L49.0162833,28.3768617 L50.008208,27.8547962 L50.3736537,27.2631221 L50.217034,26.4104147 L49.9908056,25.6621208 L49.3295228,24.6527938 L49.8341858,24.0611196 L50.1300229,23.3128248 L50.1996316,22.9125742 L50.1300229,22.4253136 L49.9037945,22.1120741 L50.0430118,21.9728568 L49.9037945,21.6770197 L49.1206958,21.4333889 L48.5290217,21.2071605 L48.250587,21.3463778 L47.4848908,21.2593667 L47.1020416,21.4507903 L46.3711502,21.7640298 L45.5880515,22.1468779 L44.9789749,22.2164876 L43.8652353,22.9299766 L43.1169405,23.2606185 L41.7595701,23.2084123 L41.1852974,23.1039988 L40.1063616,22.0424654 L39.8801332,21.9728568 L39.7931231,21.5552038 L39.4972851,21.4333889 L39.0100244,21.6770197 L39.1144369,21.1375518 L38.9752196,20.476268 L38.4531541,19.6235607 L38.0180997,19.3799299 L37.2698049,19.1537015 L37.0609789,19.7105718 L37.1305876,20.5110729 L36.8173481,20.7024964 L36.6955332,20.1282247 L36.730337,19.1711039 L36.5041086,18.5446249 L36.0342494,17.6049075 L36.5737173,18.4054076 L37.0087726,18.5446249 L37.5656419,18.7708533 L38.1921209,18.9100716 L38.9230133,18.7186471 L39.2362528,18.3880052 L39.6713072,17.7615262 L39.706112,17.1176459 L39.2188504,16.4911669 L39.2188504,16.1953298 L39.4276764,15.8646879 L39.1318393,15.5340461 L38.4531541,15.5688509 L38.0355012,16.0039053 L37.86148,16.5259717 L37.86148,16.7522001 L37.5830444,16.6651891 L37.3916208,16.1953298 L37.1653924,15.1860027 L36.939164,14.8901657 L36.730337,14.3681002 L36.2952826,13.6720126 L36.9565654,14.5595238 L37.2872073,14.9423719 L38.0006973,15.2904162 L38.4183493,15.4296336 L39.0100244,15.2904162 L39.5668937,15.1337965 L39.7931231,14.6291324 L40.0367529,14.0722622 L40.0367529,13.689414 L39.8975356,13.2891645 L39.6713072,12.0014017 C39.6713072,12.0014017 39.2710567,12.0884128 39.1666442,12.1754239 C39.0622307,12.2624349 38.8011974,12.6974893 38.8011974,12.6974893 L38.6445777,13.0281312 L38.279132,12.8715115 L37.9310887,12.3668484 L37.6352516,12.0710104 L37.4264246,11.8969892 L37.6352516,11.8969892 C37.6352516,11.8969892 37.7570665,11.9665979 38.070306,11.7229671 C38.3835455,11.4793362 38.6445777,11.3749238 38.6445777,11.3749238 C38.6445777,11.3749238 38.8011974,11.2705103 38.8882085,11.2009016 C38.9752196,11.1312929 39.2710567,10.1915745 39.2710567,10.1915745 L39.2362528,9.75652011 L38.8011974,10.0001499 L38.2443281,10.4004005 L37.6874578,10.3481942 L36.939164,9.65210662 L37.0087726,9.44328064 L37.5308381,9.09523603 L37.8440776,8.36434458 L38.1921209,7.1461905 C38.1921209,7.1461905 38.1051098,7.07658184 37.9136862,7.041778 C37.7222617,7.00697318 37.5482405,6.65892967 37.5482405,6.65892967 L37.1827938,6.43270126 L36.7129356,6.01504869 L36.7129356,4.25742763 L36.1386629,4.13561222 L34.8683035,4.27482975 L34.5550641,3.56134001 L34.3810419,3.26550285 L34.2766284,2.77824152 L33.7023567,2.95226337 L32.919258,3.23069842 L32.6408234,3.2132962 L32.2753766,2.91745904 L31.9621372,2.81304585 L31.5270828,2.49980647 L31.0050173,2.13436054 L29.6302445,3.23069842 L29.6302445,3.23069842 Z" id="path3200" fill="#000000"></path>
                    <path d="M0.0143190783,56.2353666 C0.181269082,58.291808 1.19903101,60.1407437 3.00068721,61.9547612 C4.52425354,63.4887809 6.59642969,64.9987791 9.42203637,66.7100739 C10.8629613,67.5827528 12.4093155,68.458494 14.6646061,69.6945859 C15.2181776,69.9979903 17.1511302,71.0524727 17.452578,71.2173581 C18.5653871,71.8260405 19.4385213,72.3082851 20.2833803,72.7826993 C23.8749358,74.7994679 26.6134233,76.4950514 29.0404908,78.2689961 L29.5469222,78.639147 L30.0678654,78.2897152 C33.1382569,76.2301963 36.2949367,74.42161 40.2541101,72.3762899 C40.6852795,72.1535466 47.5921534,68.6776458 49.3743217,67.7101455 C53.0260976,65.727676 55.4861015,64.0293858 57.304594,62.0885977 C59.452708,59.7960207 60.6138243,57.2021088 60.7758236,54.077191 L60.9638414,0.0424945106 L0.0143190783,0.0424945106 L0.0143190783,56.2353666 L0.0143190783,56.2353666 Z M58.9858391,54.0277257 C58.8475702,56.6746894 57.8640727,58.8718042 55.9975188,60.8638858 C54.3377653,62.6352597 52.0173356,64.2371933 48.5197335,66.1359652 C46.7666109,67.0876972 39.8851182,70.5508249 39.4319978,70.7849081 C35.4172966,72.8589141 32.2050275,74.6993496 29.0700723,76.8021758 L30.0974468,76.8228949 C27.602717,74.9994958 24.8088261,73.2696082 21.1603815,71.2208947 C20.308803,70.7427072 19.4302855,70.2574894 18.3121385,69.6458873 C18.0092133,69.4801938 16.0771905,68.4262186 15.5255047,68.1238477 C13.2910208,66.8991597 11.7638642,66.0342906 10.3499401,65.1779644 C4.74731991,61.7848047 2.04216657,59.061091 1.80246517,56.1615798 C1.80246517,56.1615798 1.80550994,34.8471818 1.80550994,24.1530893 L1.80550994,1.83368542 L58.9870377,1.83368542 L58.9858391,54.0277257 Z" id="shield-border" fill="#000000"></path>
                    <path d="M30.7316527,11.7046661 C30.6637606,13.2043993 29.375761,12.8894015 29.0077758,12.4792248 C28.6532733,11.107688 30.7080418,10.7319509 30.7316527,11.7046661 L30.7316527,11.7046661 L30.7316527,11.7046661 Z" id="path3232" fill="#F1453D"></path>
                    <path d="M31.4299236,11.6183934 C31.563635,12.802884 32.9226473,12.9676696 33.1797788,12.4708878 C33.6287,11.3401229 31.9419883,10.6214295 31.4299236,11.6183934 L31.4299236,11.6183934 L31.4299236,11.6183934 Z" id="path3234" fill="#F1453D"></path>
                    <path d="M30.5956645,10.4754424 L30.5956645,10.7352278 L30.4527822,10.761206 L30.4008257,10.6962604 L30.3618574,10.2935928 L30.2839217,10.2546244 L30.2839217,10.0727748 L30.4657713,10.0597856 L30.4657713,9.89092511 L30.2449543,9.89092511 L30.1670186,10.0597856 L30.1280503,10.2935928 L30.2189761,10.4884315 L30.1280503,10.644303 L29.9591907,10.7352278 L29.7253836,10.9560458 L29.5695122,11.0339815 L29.2058129,11.0729489 L28.9070591,10.9300666 L28.6083064,10.644303 C28.6083064,10.644303 28.4784132,10.4364751 28.4654241,10.3845176 C28.452435,10.3325601 28.3744993,10.1507105 28.3744993,10.1507105 L28.2965636,9.9558717 L28.1536813,9.80000028 L27.9328643,9.77402204 L27.8679177,10.0467965 L27.789982,10.1507105 L27.6081323,10.1766897 L27.4132935,10.0078292 L27.2834003,9.78701116 L27.140519,9.50124755 L27.023615,9.30640778 L26.8547544,9.05961123 L26.7768187,8.91672993 L26.698883,8.57900885 L26.5040442,8.33221261 L26.3741521,8.12438471 L26.1663232,7.95552417 L25.9455062,7.78666363 L25.6857208,7.78666363 L25.5168602,7.65677045 L25.270064,7.42296332 L25.0882143,7.17616807 L24.9713103,7.03328577 L24.9972895,6.90339259 L25.0882143,6.78648952 L25.2830531,6.66958646 L25.4778919,6.65659684 L25.6987099,6.60463977 L25.9195269,6.4877363 L25.9584953,6.33186508 L25.9974626,6.07207961 L26.2312698,5.65642303 L26.3351837,5.3576698 L26.3481728,5.12386297 L26.6858939,5.0719059 L27.0106259,5.11087366 L27.244433,5.17582005 L27.4912292,5.25375566 L27.7769928,5.11087366 L28.0108,4.81212043 L28.0887357,4.2925497 L28.1926496,3.81194672 L28.3095527,3.53917204 L28.9070591,3.53917204 L29.114888,3.68205404 L29.2837486,3.60411833 L29.439619,3.52618272 L29.8163084,3.56515057 L30.0111472,3.56515057 C30.0111472,3.56515057 30.1670186,3.31835442 30.2319652,3.27938667 C30.2969108,3.24041881 30.6086536,2.82476223 30.6086536,2.82476223 L31.0113213,2.72084798 L31.2191492,2.74682652 L31.5049138,3.07155828 L31.7387199,3.21444028 L31.9465488,3.2274296 L32.4401403,3.55216125 C32.4401403,3.55216125 32.5960117,3.68205404 32.6479692,3.6560755 C32.6999257,3.63009696 33.1415617,3.43525789 33.1415617,3.43525789 L33.5312393,3.40927935 L33.9468961,3.26639735 L34.0897784,3.59112911 C34.0897784,3.59112911 34.2976062,4.08472141 34.3625528,4.13667848 C34.4274994,4.18863555 34.6872848,4.68222775 34.6872848,4.68222775 C34.6872848,4.68222775 34.817177,4.61728146 34.8821236,4.60429214 C34.9470702,4.59130292 35.2458229,4.66923853 35.2458229,4.66923853 L36.1031147,4.70820629 L36.2200188,4.5783136 L36.3109436,4.73418482 L36.1940395,5.33169127 L36.245997,5.78631571 L36.4018684,6.39681137 L36.5967072,6.68257557 L36.8564926,6.69556469 L37.1942136,6.9813283 L37.2072028,7.2670929 L36.9474174,7.35801773 L36.7136103,7.28008202 L36.4148575,7.44894256 L35.9472433,7.72171704 L35.5575657,8.1113946 L35.2198446,8.59199797 L34.9990266,9.07260135 L34.7782096,9.22847207 L34.5833699,9.15053706 L34.3885311,9.16352648 L34.2976062,9.39733261 L34.1027675,9.63113974 L33.9339069,10.2286462 L33.5702076,10.6313138 L33.1935182,10.8131635 L32.9207437,11.0209914 L32.738894,11.0209914 L32.4271512,10.7222387 L32.2842699,10.5923455 L32.2453015,10.1247322 L31.9465488,9.89092511 L31.7257308,9.89092511 L32.0504628,10.1507105 L32.0634519,10.5014207 L31.8816022,10.6572921 L31.7906774,10.6313138 L31.6997526,10.4494642 L31.5958386,10.4494642 L31.5828485,10.8001744 L31.193171,11.2547985 L30.8034924,10.9300666 L30.7905033,10.5144098 L30.5956645,10.4754424 L30.5956645,10.4754424 L30.5956645,10.4754424 Z" id="path3236" fill="#F1453D"></path>
                    <path d="M28.2835745,7.07225313 L28.2835745,7.52687827 L28.1147139,7.79965275 L27.8159612,7.79965275 L27.6341105,7.99449153 L27.5821541,8.15036295 L27.9198751,8.46210579 L28.231617,8.6829228 L28.3615102,8.83879422 L28.4394459,8.87776158 L29.7383727,8.86477246 L29.8942441,9.02064388 L30.1800077,8.81281598 L30.5307179,8.28025513 L31.634806,8.29324525 L32.2193233,8.72189115 L32.2582907,9.07260135 L32.3881838,9.12455783 L32.6999257,8.85178334 L32.9597121,8.83879422 L33.0896042,9.00765476 L33.3234114,9.00765476 L34.0897784,8.31922349 L34.2196705,8.13737383 L34.5054351,8.12438471 L34.4664668,7.9035667 L34.1547239,7.82563099 L33.8819495,7.5528565 L33.8040138,7.09823236 L33.5572175,7.05926401 L33.1285716,7.28008202 L32.3881838,7.64378133 L32.1413876,7.82563099 L31.9205696,7.83862011 C31.9205696,7.83862011 31.8296448,7.7606844 31.7776883,7.7606844 L31.4919237,7.7606844 L31.2581176,7.95552417 L31.0762679,7.95552417 L31.0113213,7.89057758 L30.0111472,7.81264187 L29.1798336,7.60481398 L28.7511877,7.31904938 L28.4784132,7.09823236 L28.4004775,7.02029665 L28.2835745,7.07225313 L28.2835745,7.07225313 L28.2835745,7.07225313 Z" id="path3238" fill="#000000"></path>
                    <polygon id="path3240" fill="#FFFCFC" points="28.9070591 8.26726601 29.4785873 8.26726601 29.6214696 8.38417008 29.6214696 8.5400405 29.3486942 8.65694456 28.8680918 8.6829228 28.5303707 8.63096533 28.2965636 8.42313743 28.2446071 8.00748065 28.5563489 7.65677045 28.8551027 7.65677045 28.8810809 7.77367352 28.9070591 8.26726601"></polygon>
                    <polygon id="path3242" fill="#FFFCFC" points="32.7259049 8.24128778 32.6349801 8.31922349 32.6349801 8.47509491 32.7518832 8.55303062 33.3234114 8.57900885 33.9468961 8.08541636 33.9598852 7.89057758 33.5831967 7.56584562 33.2584648 7.56584562 33.2065073 7.65677045 33.284443 7.82563099 33.388358 7.98150241 33.284443 8.18933031 32.7259049 8.24128778"></polygon>
                    <polygon id="path3244" fill="#F1453D" points="24.2346114 7.19630603 24.8150707 7.21502995 25.1146623 7.66441784 25.376805 7.94528553 25.6389478 8.15125456 25.8636408 8.18870339 26.2943038 8.82533541 26.2943038 8.90023406 26.6313452 9.19982595 26.7249677 9.59304011 26.7624166 9.7241115 26.7436916 9.89263171 26.5564465 10.0049782 26.3317536 9.96752936 26.2006822 9.8739068 25.7887431 10.2296721 25.5266003 10.5854375 25.3580801 10.6228863 24.9086922 11.109723 24.6839993 11.1846207 24.3282339 11.4467634 23.7664996 11.4280385 23.4107342 10.9973755 23.3358366 10.8288553 23.3171117 10.4918149 23.6354282 10.267121 23.7852235 10.4356412 23.7103258 10.6041614 23.7290508 10.8101314 23.9162949 10.8850291 24.10354 10.8663042 24.7776208 10.2858459 24.9461421 10.1922233 25.3393552 9.79900915 25.5827741 9.66793777 25.5640492 9.4245199 25.2831825 8.99385562 25.1895599 8.69426402 25.1146623 8.41339734 25.0397636 8.2074283 24.7776208 7.9078367 24.6278255 7.73931549 24.5716518 7.57079528 24.309509 7.36482624 24.2346114 7.32737742 24.2346114 7.19630603"></polygon>
                    <polygon id="path3246" fill="#F1453D" points="35.5067486 9.38707008 35.8063402 9.38707008 36.1246568 9.23727478 36.3680746 9.03130544 36.5927686 9.03130544 36.7425639 9.18110104 36.9859827 9.16237713 37.135778 8.97513171 37.1919518 8.75043776 37.3979208 8.46957107 37.4540945 8.18870339 37.6413397 7.79548923 37.6975124 7.51462254 37.2294006 7.49589763 36.6863911 7.96400944 36.2744521 7.98273435 35.9374116 8.33849969 35.6752689 8.37594851 35.3944022 8.78788659 35.3007796 9.03130544 35.3382284 9.27472361 35.5067486 9.38707008"></polygon>
                    <polygon id="path3248" fill="#D40000" points="29.7208837 13.1506915 29.3651194 13.5064558 29.2714968 13.8247723 29.4212921 14.1430888 29.7583335 14.1992616 30.0017514 14.0681902 30.2264454 14.330333 30.2638942 14.7797208 30.7132821 15.2665576 30.9192511 15.3227303 31.0877713 15.1354862 31.2750164 14.9482411 31.2937404 14.7609959 31.593332 14.6299246 31.6682296 14.0681902 31.8367508 14.2741602 32.1176175 14.10564 32.4733828 14.0681902 32.4733828 13.6000784 32.3423115 13.2817629 32.0614438 13.0757928 31.6307808 12.8885487 31.162669 12.7200285 30.937975 12.7387524 30.5260369 12.9821703 30.0766491 13.1319666 29.7208837 13.1506915"></polygon>
                    <path d="M32.5394479,13.0351646 L33.2156493,13.0044278 C33.6799191,12.7032251 33.8802438,11.4782138 34.1992141,10.6684612 C34.6945322,10.0268924 35.3022315,9.8348479 36.0433994,10.1766788 L36.4737091,10.2996241 L37.0269642,10.7299338 L37.4265381,10.7299338 L37.7031656,10.7914065 L38.1334753,10.8221433 L38.9018853,10.2074146 L38.8711494,10.8528792 L38.3486302,11.3139257 L37.2728559,11.7134986 L36.4429723,11.2217162 L36.4122364,11.3446616 L38.194948,13.3117922 L38.3486302,13.3117922 L38.6559946,13.6191565 L38.8096767,13.4962112 L38.8404126,12.973692 L39.4551413,12.4204359 L39.516614,13.2195827 L39.7317689,13.6191565 L39.7317689,14.3875665 L39.1477769,15.1252406 L38.2256848,15.2481859 L37.1499105,14.5719855 L37.1191737,14.2646211 L36.1356089,13.1273741 L36.1356089,13.6191565 L36.7196008,14.8178762 L36.8118093,15.2789228 L37.0269642,15.4940776 L37.1806464,15.8629147 L37.1806464,16.3239602 L37.4572739,16.9694248 L37.9490563,17.0308985 L38.0720026,16.7235341 L38.0720026,16.2932244 L38.5945219,15.7707052 L38.9326221,15.7399683 L39.0555674,15.9243873 L38.9018853,16.0780695 L38.8404126,16.4161697 L38.8404126,16.6313246 L39.2707223,17.2153165 L39.3936677,17.5841536 L38.7482031,18.5677184 L38.3178933,18.6906647 L37.5494834,18.5677184 L37.0884369,18.260354 L36.8425462,18.260354 L36.1356089,17.1845797 L36.0433994,16.6620614 L35.0905704,15.1559764 L35.0598346,15.4633408 L35.4286706,15.9243873 L35.6130897,16.6313246 L35.7975077,17.8915179 L36.3507638,18.9672922 L36.3814996,20.9651587 L36.5659186,21.1803135 L36.8118093,21.1803135 L37.1191737,20.9344218 L37.3650654,20.5963216 L37.3035917,19.4283378 L37.6416929,19.4283378 L38.2256848,19.766439 L38.6559946,20.4733763 L38.8096767,20.7807406 L38.8096767,21.4262052 L38.5945219,21.4569411 L38.1642112,21.9179876 L37.4572739,22.225352 L36.2278174,22.225352 L35.9511899,21.9794603 L35.7052992,21.9794603 L35.5208801,21.7950413 L35.1827799,21.7950413 L34.229951,20.4426394 L34.1992141,18.1988813 L34.3221605,17.7070989 L34.3221605,17.0308985 L34.1684783,17.0308985 L34.1684783,17.7070989 L34.0147961,18.1374086 L33.9840593,18.7521374 L34.0147961,20.4426394 L35.0290977,22.0716698 L35.7667718,22.4405069 L35.9819267,22.6863976 L35.6438255,22.6863976 L35.6745623,22.9322892 L35.3979348,22.8708166 L35.3364621,22.9937619 L35.1827799,22.9322892 L34.9061524,22.7478702 L34.5373154,22.8093429 L34.2914237,22.9322892 L33.6459591,22.9322892 L33.3693315,22.3790332 L33.1541767,21.9487235 L32.4165026,21.272523 L31.8632475,21.272523 L31.7403022,20.8729492 L31.8325107,20.1660119 L31.9861929,19.5205473 L31.9861929,17.7993084 L31.8632475,19.766439 L31.5251473,20.8729492 L31.4022009,20.9651587 L31.3714651,22.225352 L31.58662,22.8093429 L32.4472394,23.7621719 L31.8632475,23.8236445 L31.4329378,23.6392265 L30.9718912,23.731436 L30.264954,23.5777538 L29.4658072,23.3011263 L28.943288,22.7786071 L28.6973973,22.1946152 L28.6051877,21.6106232 L28.4822424,20.9958955 L28.6051877,20.5041121 L28.6666604,20.0123297 L28.4207697,20.5655858 L28.4207697,21.3954684 L28.4207697,21.8872508 L28.0826685,21.7950413 L28.0826685,21.4262052 L27.806041,21.0573682 L27.7445683,20.5655858 L27.6523588,19.8279117 L27.621623,18.629191 L27.6523588,17.8915179 L27.806041,17.0616343 L27.6830956,17.0308985 L27.5908861,18.075936 L27.5294134,20.1352751 L27.3142586,20.1967487 L26.8224762,20.8729492 L25.715965,20.8729492 L25.2856553,20.5041121 L26.1155379,19.6127568 L26.0233294,18.9058196 L25.9311199,18.075936 L25.8389104,16.6620614 L24.8860824,17.6763631 L23.8103071,18.444773 L22.888215,18.444773 L22.3656958,17.7993084 L22.2734873,17.0616343 L22.3349599,16.5391151 L22.888215,15.801442 L23.2877889,15.7399683 L23.4414711,15.5862871 L23.5336796,15.7092325 L23.3185247,16.3239602 L23.1033699,16.7850068 L23.2877889,17.2153165 L23.8103071,17.2767892 L24.4865085,16.2317517 L25.0090278,15.0022952 L25.4086007,14.3875665 L25.4086007,14.0494663 L25.0397636,14.3260938 L24.6094539,14.4183033 L23.3492616,14.4490392 L22.6115875,13.9879936 L22.4886421,13.6191565 L22.519378,13.2810553 L22.5501148,12.8200098 L23.3492616,12.2974905 L23.3799984,13.4040017 L23.9025166,12.973692 L23.9025166,12.7585371 L24.5787181,11.8671808 L26.2077474,10.4225695 L27.1913132,10.4225695 L27.7753041,10.8528792 L28.0211958,10.9143519 L28.7281331,11.5905533 L28.7588699,12.4511727 L29.5887525,13.1273741 L29.0969701,13.7113661 L29.127707,14.0187294 L29.5887525,14.3568306 L30.0190623,14.2338843 L30.2034813,15.3711323 L30.7260005,15.6784956 L31.0026281,15.7092325 L32.0476655,14.479776 L32.5087121,14.4183033 L32.7853396,13.8035746 L32.6623943,13.3117922 L32.5394479,13.0351646 L32.5394479,13.0351646 L32.5394479,13.0351646 Z" id="path3250" fill="#F1453D"></path>
                    <polygon id="path2200" fill="#F1453D" points="20.725361 23.718011 20.725361 23.8985432 21.0864253 24.3885593 21.0606351 24.9043655 19.2295226 25.8328174 18.4300225 25.8843977 18.0173769 26.2712521 16.9599743 26.6065262 16.4957484 26.5033656 16.5731189 26.245462 16.6247002 25.8070262 16.5731189 25.5491236 16.2378447 25.3685914 16.2378447 24.9559458 16.6504903 24.826994 16.5215385 24.6464619 16.2894261 24.6206717 16.3410064 24.0790753 16.444168 23.872752 16.4699582 23.7438012 16.444168 23.4858976 16.3410064 23.2537851 16.0573126 23.1764136 15.2320224 23.5116877 15.1030706 23.3827359 14.7162162 23.7953815 14.5098939 23.8211717 14.4841027 23.4858976 14.0714581 22.9443012 14.0714581 22.8411395 13.2977482 22.7121877 12.7561518 23.4085271 12.3692964 23.4085271 12.0856036 23.2022038 11.8534901 23.2022038 11.5955875 23.3569458 11.4408455 23.3053654 11.2087321 23.718011 11.0797803 23.718011 10.9250383 23.3827359 10.718716 23.0474618 10.6413455 22.8411395 10.7445062 22.4284949 11.0797803 22.2221716 11.4924259 22.0158493 11.8019098 21.964269 12.1629741 22.1705913 12.3177161 22.5058654 12.781942 22.0674297 13.2461679 21.5516234 13.6330223 21.3968814 14.1230384 21.4742529 14.6646358 22.1963815 15.1804421 22.2479618 15.79941 21.809527 16.0315224 21.6805752 16.59891 21.7579457 17.1662966 22.0674297 17.7594743 22.9443012 17.862635 23.7953815 17.9915868 24.027494 19.0232003 23.9501235 20.1063931 23.7438012 20.725361 23.718011"></polygon>
                    <polygon id="path3173" fill="#673FB4" points="12.2661357 23.6922199 12.6014099 24.2853976 12.5756197 25.3428013 12.4466679 25.4717521 11.9566518 25.0591075 11.6987482 24.6980432 11.4408455 24.2596075 11.4408455 23.872752 11.6987482 23.6664297 12.0340223 23.5890592 12.2661357 23.6922199"></polygon>
                    <polygon id="path3175" fill="#673FB4" points="13.2977482 25.3943816 14.0456679 23.8469619 14.0456679 23.4343173 13.7619742 23.0216717 13.3751197 23.0216717 12.9624741 23.4085271 12.9624741 24.7754137 13.2977482 25.3943816"></polygon>
                    <polygon id="path3177" fill="#673FB4" points="14.5872644 25.3943816 14.99991 25.2138495 16.0057323 24.2596075 16.1604743 23.9759137 16.0831028 23.7438012 15.79941 23.5374779 15.6188769 23.4858976 15.2062323 23.6664297 14.9741188 23.8985432 14.5098939 24.7238334 14.5872644 25.3943816"></polygon>
                    <polygon id="path3179" fill="#673FB4" points="16.3667966 26.0649298 16.0057323 26.3228334 15.5930867 26.2970423 14.845168 25.781236 14.8709581 25.6780754 15.3351841 25.6007039 15.7478287 25.4201718 16.1604743 25.4459619 16.3925867 25.6522842 16.4699582 25.8843977 16.3667966 26.0649298"></polygon>
                    <polygon id="path3181" fill="#C8D547" points="13.6072322 26.245462 14.3035706 26.89022 14.8193778 27.2254941 15.2320224 27.3802361 15.7478287 27.6639299 16.8310225 27.6639299 17.8110546 27.5607682 18.3010707 27.3802361 19.2553127 27.3544459 20.0290226 26.9933817 20.5964092 26.6065262 21.1637968 26.5807361 21.4732807 26.2712521 21.8859253 26.2712521 22.7112155 25.6522842 23.8717808 25.136478 25.0839254 24.6980432 26.3992317 24.4401396 26.9408291 24.4659298 27.1471514 24.6206717 27.405054 25.0591075 27.5082157 25.2654298 27.3792639 25.7038655 26.8892478 25.9875593 26.7860871 25.6780754 27.0955711 25.4201718 27.0181996 25.2654298 26.5281835 25.1880593 26.1929094 25.1880593 25.8834255 25.4975432 25.8318451 26.1938816 26.2444897 26.5549459 26.6829255 26.8386397 27.0697799 26.8644299 27.5340059 26.5807361 28.1529738 26.0391397 28.514038 25.4201718 28.4108774 24.5175101 28.2045541 23.9501235 27.5855872 23.4858976 26.8118773 23.1764136 25.4707799 23.2022038 24.6712808 23.4085271 24.3617969 23.5116877 23.5107155 24.0790753 23.1238611 24.1048655 22.2727807 24.6722521 21.9375066 24.8012039 21.5506512 24.9559458 20.9574745 25.2138495 19.8227003 25.7296557 19.0489904 26.1938816 18.662135 26.245462 17.7594743 26.8128495 16.4699582 26.9160102 16.2378447 26.7870594 15.644668 26.7096879 15.2578126 26.5549459 14.8709581 26.3486236 14.3293607 25.7038655 14.1746198 25.6007039 13.6846027 25.6007039 13.5298617 25.8070262 13.6072322 26.245462"></polygon>
                    <polygon id="path3183" fill="#F1453D" points="21.3443289 22.5574457 21.0606351 23.8211717 21.3959092 24.182236 21.3701191 24.5948816 21.5506512 24.7754137 21.8859253 24.5948816 22.2211994 24.3627691 22.5564735 24.2338173 22.943329 24.027494 22.9949093 23.7953815 23.4075549 23.5890592 23.8459896 23.4601074 24.4133772 23.3053654 24.9807638 23.227994 24.5681192 22.9443012 23.3817647 22.1705913 22.8917486 22.119011 22.7112155 22.273753 22.0148771 22.2995431 21.6280227 22.4027038 21.3443289 22.5574457"></polygon>
                    <polygon id="path3185" fill="#F1453D" points="27.0439898 21.2937198 26.2186996 21.2679296 25.6771032 21.2679296 25.2386674 21.0873975 24.8776031 20.7263332 24.8260228 20.3910591 24.5681192 19.9784135 24.3102156 19.7205109 23.9233611 19.7205109 23.3817647 20.0815752 23.1496513 20.5458011 23.0980709 21.2937198 23.4075549 21.9384778 24.4391674 22.7121877 25.0323451 22.8411395 25.4449897 22.6606074 26.3734415 22.2479618 26.9666193 21.8611074 27.1729416 21.5258332 27.0439898 21.2937198"></polygon>
                    <polygon id="path3187" fill="#D40000" points="25.0581353 20.1073653 25.5223612 19.6173492 25.5481514 18.5083653 25.4191995 18.4052046 25.5481514 17.9667688 25.5997317 17.6057046 25.4191995 17.6057046 24.4133772 18.5599466 23.7170388 18.6631072 23.3559736 18.8694295 23.3301834 19.1273331 23.6138772 19.3078653 24.1296834 19.256285 24.4133772 19.2820751 25.0581353 20.1073653"></polygon>
                    <polygon id="path3189" fill="#F1453D" points="25.4707799 23.0216717 26.3734415 22.9443012 27.0955711 22.9958815 27.4566354 23.0990431 28.1787639 23.4858976 28.5914095 23.6922199 29.3909095 23.6406396 29.0814256 23.2537851 28.7719416 22.8669297 28.5656193 22.4800753 28.514038 22.0932198 28.3335059 22.1448011 28.1271836 22.0932198 27.86928 21.7579457 27.714538 21.2679296 27.6113773 20.6231716 27.405054 20.5973814 27.2503131 20.9068654 27.405054 21.0616073 27.559796 21.3710913 27.3018934 21.7063654 27.2761032 21.964269 26.9408291 22.2221716 26.4766032 22.4284949 26.0381674 22.6090271 25.5481514 22.7895592 25.4707799 23.0216717"></polygon>
                    <polygon id="path3191" fill="#C8D547" points="28.6171997 24.0790753 28.7719416 25.3685914 28.4882479 26.1680915 29.0814256 26.1938816 29.777764 26.1938816 30.3967319 26.0649298 30.9899096 26.0133495 31.531506 26.0391397 31.9699418 26.09072 32.5115382 25.8843977 32.5373284 25.4717521 32.4083765 25.1106878 32.6662802 24.3111878 32.5631185 24.1306556 28.6171997 24.0790753"></polygon>
                    <polygon id="path3193" fill="#F1453D" points="32.0731024 21.8353172 32.0988936 22.9443012 32.485748 23.2795753 32.8468123 23.2795753 33.1305061 23.1248333 33.2078766 22.8927199 32.9499739 22.7379779 32.8468123 22.4284949 32.3052159 21.8353172 32.0731024 21.8353172"></polygon>
                    <polygon id="path3195" fill="#F1453D" points="36.2769249 22.7121877 37.3859089 23.4601074 37.721183 23.5632691 38.0306669 23.4601074 38.5464732 23.0474618 38.8043768 22.4800753 38.830167 22.0674297 38.5722643 22.0416395 38.1596187 22.3253333 37.566441 22.3769136 37.1022161 22.4542851 36.7411508 22.4542851 36.3800865 22.5316556 36.2769249 22.7121877"></polygon>
                    <polygon id="path3197" fill="#F1453D" points="39.474925 21.8611074 39.2686027 22.1963815 39.0622804 22.7121877 38.5980545 23.2022038 38.6238447 23.5632691 38.4175224 23.5632691 38.4433125 23.8469619 38.8043768 24.1306556 39.8101991 24.2853976 40.6096992 23.2537851 40.6096992 22.9700913 40.1712644 22.4542851 39.8617805 22.3769136 39.474925 21.8611074"></polygon>
                    <polygon id="path3199" fill="#F1453D" points="44.1687636 24.7496235 44.6845708 25.0075262 44.6845708 25.1880593 44.4782475 25.4717521 44.3492957 26.0133495 44.2977154 26.3486236 43.6787475 26.3744138 43.0339894 26.1423013 42.6729252 25.9101878 42.337651 25.9101878 42.1571189 25.7554459 41.847635 25.5491236 41.4607805 25.29122 41.0481349 24.7496235 40.7644411 24.3885593 40.7644411 24.1306556 41.1512966 23.6406396 41.538151 23.5116877 43.2661029 23.5116877 44.0656029 23.227994 44.710361 22.6863976 45.4840699 22.5316556 45.664603 22.3253333 46.1804092 22.2221716 47.4699254 21.5516234 48.1920539 21.6805752 48.9141834 21.6547851 49.5331513 21.8353172 49.7652638 22.0416395 49.636312 22.119011 49.3010379 22.0932198 48.9141834 22.2995431 48.8626021 22.9958815 49.1720861 23.5632691 49.0947156 23.718011 48.7078601 23.6922199 48.4499575 23.5632691 48.3210057 23.3311556 48.3210057 23.0990431 48.0631021 22.7379779 47.8567798 22.6606074 47.3925539 22.6606074 47.2378119 23.6406396 47.0056994 23.6406396 46.5672637 23.2537851 45.9225056 23.1764136 45.4840699 23.5632691 45.6388118 24.0790753 46.2835699 24.6980432 46.618845 24.6980432 46.9283279 25.0591075 46.9025378 25.3428013 46.4383119 25.2396396 45.9740869 25.136478 45.5872315 24.9559458 45.2777476 25.0075262 44.9166833 24.8012039 44.555619 24.6464619 44.3235055 24.5433012 44.1687636 24.7496235"></polygon>
                    <polygon id="path3201" fill="#C8D547" points="34.7295062 25.4975432 34.5747642 25.6007039 34.3426507 25.4975432 34.2136999 25.136478 34.4716025 24.9043655 35.0389901 24.9301557 35.5547963 25.3943816 35.5547963 26.0649298 34.858458 26.4002039 34.1363284 26.5807361 33.3368284 26.3486236 32.8468123 25.6780754 32.7178605 25.2138495 32.8210221 24.4143494 32.9499739 23.8985432 33.6463123 23.3827359 34.394232 23.1506235 35.2711026 23.0216717 36.2769249 23.2795753 38.3143607 24.0532852 39.6812483 24.6722521 41.2028769 25.4717521 42.1055386 25.8843977 43.2918931 26.4517843 44.0140216 26.7096879 44.8393118 26.6065262 45.2003771 26.6323174 45.9225056 26.4002039 46.4125217 26.3486236 47.4957155 25.0848977 47.9341513 24.826994 47.88257 25.3943816 47.1604414 26.1938816 46.5414735 26.89022 46.2835699 26.9160102 45.9482958 27.199704 45.3035377 27.1739138 43.8076993 27.2512843 43.0855708 27.0191718 41.9507966 26.7870594 40.6096992 26.1938816 39.5522965 25.6522842 39.0364903 25.5749137 38.2369902 25.1622681 37.7469741 25.1106878 37.4632804 24.9043655 36.5864088 24.6464619 35.8642803 24.3885593 35.1679419 24.3111878 34.6263445 24.2338173 34.3684419 24.3885593 34.1105383 24.7496235 33.9815864 25.2396396 34.1621186 25.8328174 34.4716025 25.8843977 34.7552963 25.7554459 34.858458 25.5491236 34.7295062 25.4975432"></polygon>
                    <polygon id="path3203" fill="#673FB4" points="45.0972154 25.3170101 45.6903931 25.3170101 46.0256673 25.4975432 46.6962155 25.4975432 46.6962155 25.7554459 46.309361 26.0391397 45.5614413 26.245462 45.2261672 26.4002039 44.9682636 26.3744138 44.7877315 26.1423013 44.7877315 25.781236 44.9424734 25.4717521 45.0972154 25.3170101"></polygon>
                    <path d="M49.1978762,24.5175101 L49.1978762,24.5175101 C49.1978762,24.5175101 49.6105218,24.2853976 49.6878933,24.1048655 C49.7652638,23.9243333 49.9457959,23.5374779 49.9457959,23.5374779 L50.1005379,22.8669297 L49.8942156,22.2995431 L49.5073602,22.1963815 L49.1720861,22.2221716 L48.9915539,22.4027038 L48.9399736,22.8927199 L49.1205057,23.3053654 L49.2752477,23.5374779 L49.2494576,23.9759137 L49.1978762,24.5175101 L49.1978762,24.5175101 L49.1978762,24.5175101 Z" id="path3205" fill="#673FB4"></path>
                    <polygon id="path3207" fill="#673FB4" points="47.6504575 24.7238334 47.6504575 24.7238334 48.0631021 24.5175101 48.3210057 24.027494 48.3467959 23.4858976 48.1404736 23.073253 47.8567798 22.763769 47.4699254 22.763769 47.3667637 23.4858976 47.6504575 23.7695914 47.6504575 24.7238334"></polygon>
                    <polygon id="path3209" fill="#673FB4" points="47.1604414 25.1880593 47.3151834 25.0075262 47.3925539 24.6206717 47.2378119 24.0532852 47.0056994 23.7953815 46.7220056 23.5374779 46.4125217 23.3311556 45.9740869 23.3311556 45.6903931 23.5632691 45.7677636 24.027494 46.2835699 24.4143494 46.6962155 24.4917199 47.1604414 25.1880593"></polygon>
                    <path d="M23.0538444,29.2142354 L22.3025782,29.3049055 L21.771511,29.36967 L21.421783,29.5769158 L21.1368204,29.4085289 L20.9684326,29.5121513 L20.333742,29.1753765 L19.595429,29.5769158 L19.245701,29.8877849 L19.025503,29.8877849 L18.8571151,29.6675858 L18.5203404,29.9007372 L18.3260479,29.7064447 L18.1188021,29.5898691 L16.719892,30.6001923 L16.2147294,30.4318054 L15.9945314,30.6260978 L15.9038613,30.7038156 L15.8520491,30.9240147 L15.6448033,30.3799942 L15.4634632,30.5095222 L15.152595,30.4058998 L14.932396,30.7167679 L14.8805848,31.5327987 L15.0101128,32.5560762 L15.3468875,33.682975 L15.6577566,34.1492787 L15.9168136,34.2010899 L15.9945314,33.8772685 L16.1370126,34.4860535 L16.3442584,34.6932992 L16.4090229,35.7942935 L17.2509592,37.6854119 L17.328677,38.6568772 L17.3675349,40.3407499 L17.0566668,40.7163835 L16.6551275,41.3251685 L16.6680808,41.5065086 L16.2535883,42.2966338 L16.2794939,43.5012504 L16.370164,43.6048728 L16.3960706,44.7576783 L16.719892,44.7835839 L16.978949,45.0685474 L17.5488751,45.0167362 L17.5488751,44.6670082 L17.6265928,45.0685474 L18.0799432,45.6643791 L18.4685292,45.9752482 L18.7405394,45.9882005 L18.8830207,45.7809548 L18.8700684,44.485668 L18.9607385,45.9104837 L19.245701,45.8975304 L19.6083813,45.573709 L20.0876373,45.5089445 L20.2430719,45.5218978 C20.2430719,45.5218978 20.3726009,45.5996146 20.4373654,45.7161903 C20.5021299,45.8327669 20.7352812,45.9363893 20.7352812,45.9363893 L20.9036681,46.2861174 L21.1109148,46.3638341 L21.2145372,46.1436351 L21.0720559,43.3846747 L20.9295747,41.130875 L20.7741401,38.2682913 L20.6187055,34.6155824 L20.5927999,33.4498237 L20.4114598,33.2943891 L20.4244121,32.9187565 L20.8648102,32.7892275 L21.1238671,32.7115097 L21.0072915,32.3617827 L20.8777625,31.1960249 L20.8777625,30.7556268 L21.033197,30.6260978 L21.3440662,30.6131455 L21.5642652,30.8722025 L21.9917091,32.6467462 L22.2119081,32.724463 L22.98908,32.7115097 L24.7506704,35.4963767 L25.3724087,36.4289841 L26.2272973,38.0221866 L27.3412449,39.6153892 L27.6909719,40.0816929 L27.9241232,40.1075985 L28.001841,38.4107726 L28.4940493,37.9833277 L28.0795578,35.0559795 L27.7427831,34.9912151 L27.2764804,34.5637702 L27.0174224,34.6026291 L26.7583655,35.0300739 L26.434544,34.6673936 L26.3956852,34.2529021 L26.0977693,34.0586086 L25.8775703,34.0586086 L25.5926067,33.6700227 L25.4371731,33.6311638 L25.255833,33.7995507 L25.2169741,32.4783584 L24.9320106,31.8566211 L24.8801994,31.4809875 L24.3491322,30.7297212 L23.7921584,30.6001923 C23.7921584,30.6001923 23.5460537,30.0432195 23.5460537,29.9655017 C23.5460537,29.8877849 23.4424314,29.6157746 23.4424314,29.6157746 L23.0538444,29.2142354 L23.0538444,29.2142354 L23.0538444,29.2142354 Z" id="path2221" fill="#FEE94E"></path>
                    <polygon id="path3194" fill="#FEE94E" points="23.5201481 46.9337602 23.1445145 46.4545042 23.0149865 45.9493426 22.9631744 44.8613016 22.8465987 43.8250719 22.6393529 42.218916 22.3025782 40.2371275 22.0305679 38.6309716 21.9269456 37.6854119 21.7067465 36.5714653 21.6160764 35.8072458 21.5254063 35.1725552 21.4476886 34.2658544 21.7067465 35.0818851 22.1341913 36.9859569 22.6134473 38.3071492 22.8077398 39.2008977 22.8077398 39.7060593 23.1445145 40.43142 23.3647136 41.3510741 23.818064 43.2940047 24.29732 44.8872072 24.5434246 46.0400127 24.5822835 46.4804098 24.0771219 46.6487977 23.8310173 46.7653734 23.5201481 46.9337602"></polygon>
                    <polygon id="path3196" fill="#FEE94E" points="26.0459571 46.5451743 26.3179674 45.2369343 26.6417898 44.2395634 26.7842711 43.5660149 26.8878945 43.0219944 26.8619879 42.2059637 26.6417898 41.7267067 25.6314656 39.693107 25.0226806 38.4625838 24.776576 37.8278932 24.3232256 37.037768 23.7144416 35.7683869 23.1704201 34.8228282 22.7170697 34.0456554 22.2896259 33.4757293 22.1600969 33.5923049 22.5486828 35.0430262 22.8725043 36.2865018 23.1833734 37.6595063 23.7014883 39.4599546 23.9994041 40.7034302 24.29732 41.4676497 24.5822835 42.5427374 25.3724087 45.1074063 25.5278432 45.7809548 25.9164292 46.5581276 26.0459571 46.5451743"></polygon>
                    <path d="M19.4943691,53.9234378 L19.1652447,54.2525611 L18.6480503,53.9234378 L18.8831381,53.3122068 L19.7294579,53.1711535 L20.1996355,53.87642 L20.0115645,54.5816855 L19.3533158,55.2399342 L18.5540147,55.475023 L17.7547127,55.5690585 L16.8143584,55.5220408 L15.5448788,55.2399342 L14.5575067,54.0644911 L13.8052225,52.5599226 L13.2410093,51.2904439 L12.5827616,48.7044678 L12.2536372,47.6230602 L12.1125839,46.6356872 L11.4073174,45.272173 L11.689424,45.0370841 L14.1343468,42.8742679 L14.2754001,42.8742679 L14.7925955,42.4040913 L15.6859321,40.7114517 L15.7799676,40.6174162 L16.0620742,39.5830264 L16.0150564,37.7963523 L15.7799676,36.9500325 L15.2157544,36.0096782 C15.2157544,36.0096782 15.0276834,35.6805539 15.2157544,35.7275716 C15.4038255,35.7745894 14.69856,34.9282696 14.69856,34.9282696 L13.8522402,34.0349331 L13.8522402,33.846862 L13.2410093,33.2356311 L12.8178504,33.0005423 L12.488726,33.0005423 L12.3476727,32.8124712 L11.7364418,32.6244011 L11.4543352,32.9065067 L11.2662641,33.5177377 L11.2662641,33.7528265 L11.689424,33.9408976 L11.8304773,33.846862 L11.689424,33.6117732 L11.7364418,33.3296666 L12.0655662,33.0945778 L12.4417083,33.3766844 L12.3946905,34.0819508 L12.1125839,34.4110752 L11.4073174,34.458093 L10.8431053,34.1759864 L10.6080164,33.7058087 L10.4199454,33.0005423 L10.6080164,32.5773834 L10.890123,32.3422945 L11.3602997,32.4363301 L12.1125839,32.248259 L12.3476727,32.1542235 L12.9589027,32.248259 L13.3820626,32.6714189 L13.8522402,32.9535245 L15.0276834,34.2700219 L15.3568077,34.5991463 L15.9680387,35.4924828 L16.7203229,37.1851214 L16.908393,38.3605655 L16.8143584,39.5360086 L16.2031275,41.2286472 L15.497861,42.3100558 L14.5104889,43.5325167 L12.8178504,44.9430486 L12.5827616,44.9900664 L12.2066194,45.460244 L12.8648682,46.870776 L13.899258,51.1964084 L14.7455778,52.9830825 L15.9680387,54.2525611 L16.908393,54.7697565 L18.1308549,54.9108098 L19.2122625,54.6287032 L19.6824401,54.2055444 L19.4943691,53.9234378 L19.4943691,53.9234378 L19.4943691,53.9234378 Z" id="path3202" fill="#C8D547"></path>
                    <polygon id="path3204" fill="#C8D547" points="21.4691142 54.9108098 21.3280609 55.1458987 21.516132 55.5220408 21.9863096 55.6160763 22.315434 55.1929164 22.315434 54.7227388 22.0333274 54.2055444 21.6571853 54.1115088 21.2340254 54.1585266 20.6227954 54.5816855 20.2936711 54.9578276 20.1056 55.8511651 20.5757777 57.3087149 21.3280609 58.2960869 23.2087705 59.5185488 25.2305334 60.2708321 26.5000131 60.4589031 27.4403674 61.3992584 27.910545 62.5276838 27.4873851 63.2329503 26.923172 63.279968 26.923172 62.9978615 27.1582608 62.9508437 27.4403674 62.6687371 27.2993141 62.3866305 26.7351009 62.0575062 26.2649242 62.4336483 26.2179065 63.279968 26.6410654 63.7031279 27.2522963 63.8441812 27.722474 63.6561102 28.1926516 63.1389147 28.2396694 62.5276838 28.0515983 61.6343473 27.2522963 60.5059209 26.4059775 60.082762 24.2901791 59.3304778 22.9266639 58.8132823 21.9392918 58.1080169 21.0459543 57.1676616 20.5287599 55.8041474 20.7638477 54.9108098 21.2810431 54.5346677 21.5631497 54.6287032 21.4691142 54.9108098"></polygon>
                    <polygon id="path3206" fill="#C8D547" points="38.536554 54.9578276 38.9126961 55.1929164 38.9597138 55.5690585 38.536554 55.7571296 37.9723418 55.6630941 37.9723418 55.0988809 38.3014651 54.3936144 39.2418204 54.3465967 39.6649803 54.8637921 39.9470869 55.8511651 39.6649803 56.885555 38.5835717 57.7788925 37.0790042 58.8132823 35.4333835 59.5185488 32.9884607 60.693992 32.2831952 61.2111874 31.6719642 62.3396127 32.0481064 62.9978615 32.518283 63.091897 32.518283 62.8568082 32.3772307 62.6687371 32.4712653 62.1515417 32.7533718 61.8694361 33.317585 62.1985594 33.4586383 62.9038259 32.9414429 63.4210213 32.3772307 63.5150569 31.4838932 63.091897 31.2017866 62.6217193 31.1547688 61.9634716 31.5309109 61.3522407 32.2831952 60.5999564 33.4586383 59.9417087 35.1512769 59.2364422 37.6432174 58.0139813 39.3828737 56.1332717 39.3828737 55.3809875 39.0067316 54.9108098 38.536554 54.9578276"></polygon>
                    <polygon id="path3208" fill="#C8D547" points="40.6993702 53.5943134 40.6993702 54.0174733 41.0284945 54.0174733 41.3576189 53.9704555 41.4986722 53.4062423 41.2165656 53.0301002 40.8404235 52.9830825 40.3702458 53.077118 39.8530514 53.4532601 39.8060336 54.2055444 40.0411224 54.7227388 40.5112991 55.4280053 41.3576189 55.8511651 42.2039377 56.086254 43.4734173 55.9922184 44.930967 55.286952 46.2944812 54.2995789 46.8586944 52.9360647 47.5639609 50.4441241 48.4572974 47.2939359 49.0215106 46.1184927 49.4916883 45.6953329 49.350635 45.5072618 48.9274751 45.5072618 47.8460675 44.7079598 46.7176411 44.0026943 45.2600914 42.263038 44.5078071 40.8054873 44.2727183 38.7367066 44.6958782 36.7149437 45.5892157 35.2103762 47.0467655 33.9879153 48.3632619 33.04756 49.6797593 33.0005423 49.8678304 33.5177377 49.6797593 33.9408976 49.3976527 33.7058087 48.9744928 33.658791 48.7864218 34.3640574 49.2565994 34.5991463 50.1029182 34.5051107 50.338007 33.9408976 50.2439715 33.1415955 49.6327415 32.5773834 48.551333 32.6714189 47.7520319 32.7654544 46.7646589 33.3296666 45.730269 34.4110752 45.0250026 35.445465 44.131665 36.9030148 43.8495594 38.2195122 43.8965772 40.5233817 45.0720203 43.0153212 46.1064102 44.3318187 48.1281731 45.6953329 48.4572974 45.9304217 47.8460675 47.2939359 46.9527299 50.1620185 46.3885168 52.465887 45.9183401 53.4532601 44.4137716 54.7697565 42.7211331 55.4280053 41.2635833 55.3809875 40.5583169 54.8637921 40.3702458 54.3936144 40.323228 53.6883489 40.6993702 53.5943134"></polygon>
                    <polygon id="path3210" fill="#CCCCCC" points="33.5278887 36.8532863 33.428208 36.6539238 33.7604789 36.2884253 34.391794 36.155517 34.8902008 35.7567919 35.521516 35.3580659 36.1860588 35.1919309 37.0499641 35.9229269 36.7509198 36.155517 36.4518755 36.1222904 35.8870145 36.4877879 35.4550618 36.7536056 35.0895634 36.6871514 34.7572925 36.5874696 34.55793 36.7536056 34.2588857 36.7536056 34.0262956 36.8865139 33.5278887 36.8532863"></polygon>
                    <polygon id="path3212" fill="#48489C" points="49.0449543 23.9611642 49.0449543 24.4263434 48.5797741 24.4927976 48.5465475 23.8614824 49.0449543 23.9611642"></polygon>
                    <polygon id="path3214" fill="#CCCCCC" points="37.5815975 35.9229269 37.9138693 35.7900185 38.4122762 35.7900185 38.6780929 36.5210154 38.6780929 36.7536056 39.1100455 36.6206972 39.9074956 36.6206972 40.4723576 36.8865139 40.9707644 37.3849207 41.5023978 37.683965 41.9343505 37.683965 41.9343505 37.4513749 42.3663031 37.4513749 42.4659839 37.5842833 42.9311641 37.6507374 43.263435 37.5510557 43.3631168 37.8501 43.2966626 38.248826 43.1969808 38.5478693 43.3298892 39.8105007 43.9279778 41.9702629 45.0576998 43.7977552 44.6257471 43.5983917 43.6621611 43.4654833 43.3631168 43.5983917 42.9643907 43.5651651 42.4992115 43.9971177 42.2666214 44.0303443 42.0672588 44.1964803 41.7017604 43.6980734 40.3062217 41.8373545 39.9407232 41.4386295 39.1432721 39.7108189 38.0467777 37.3516931 37.9803235 36.3881071 37.7145058 36.1222904 37.5815975 36.0890628 37.5815975 35.9229269"></polygon>
                    <path d="M37.1828724,48.7818224 L37.7477334,49.0476401 L37.7145058,48.7818224 L38.1132319,49.0476401 C38.1132319,49.0476401 38.4787303,49.1140943 38.6780929,49.0808667 C38.8774554,49.0476401 39.309408,48.6156875 39.309408,48.6156875 L39.4423164,47.7185546 L40.3062217,46.2233341 L40.9375369,45.8578367 L41.1368994,45.8246091 L41.734988,45.1600663 L42.86471,44.5619787 L43.3963434,44.3626162 L44.2602486,44.5287511 L44.8915638,44.8277954 L45.0244722,45.3594298 L45.1241539,46.7881951 L45.522879,47.0872394 L45.8551509,46.9211045 L46.1541952,46.555606 L46.8851911,46.2897883 L47.4168255,46.3562435 L47.3835979,47.0207852 L47.1510088,48.250189 L46.7855103,49.5460469 L46.1874217,51.6061284 L45.6225608,53.0681212 L44.2270221,54.1313891 L43.1305267,54.8291584 L41.3694895,54.8291584 L40.8378551,54.3307516 L41.5023978,54.1646166 L41.734988,53.7658906 L41.8014421,53.0681212 L41.2033536,52.6361686 L40.605266,52.6693962 L39.8078149,53.1345754 L39.5087706,53.5333015 L39.3426346,53.9984807 L39.0435913,53.9984807 L38.3790486,53.9652541 L37.8806418,54.297525 L37.5151433,54.7627042 L37.4154625,55.4604736 L37.5815975,55.9588804 L37.9470959,56.1914705 L38.6116387,56.1582439 L38.7777736,56.0253356 L38.910682,56.0253356 L38.3125944,56.6898773 L37.5483709,57.4873284 L36.5515572,58.1518712 L35.8870145,58.3512337 L34.7905191,58.7499588 L33.993069,59.1154572 L33.0959361,59.1486848 L32.1655766,59.9793625 L31.5342615,60.4777693 L31.1023088,61.0758569 L30.9029463,62.1058982 L30.9029463,62.8701217 L31.4013531,63.5346644 L31.3348989,63.734027 L31.0358546,63.7008004 L30.8697197,63.567891 L30.1387228,63.567891 L29.9393602,63.2688477 L29.5738618,63.3353019 L29.0422274,63.5014369 L28.8096383,63.734027 L28.4109122,63.5346644 L28.6435023,62.9365759 L28.6767289,62.3717149 L28.510594,61.6074913 L28.0121871,60.6106777 L27.5802345,60.1454985 L26.816011,59.6803182 L25.3540171,59.2483656 L23.7591159,58.650278 L22.5961663,58.085417 L22.1642137,57.4208743 L21.9980777,56.5901966 L22.2638954,56.8560133 L22.0313053,55.9256538 L22.3635762,56.3576064 L22.5961663,56.390833 L23.2607091,57.2215117 L23.7923425,57.3211925 L23.9252508,57.3876467 L24.0913868,57.3876467 L24.1246144,57.3211925 L24.6230212,57.5870102 L25.1878822,57.7531451 L25.9853323,57.7531451 L25.2875629,57.5870102 L24.4236577,57.1882841 L23.5265258,56.6898773 L23.028119,56.0253356 L22.9616648,55.7262913 L22.6958481,55.6930637 L22.7290747,55.4937012 L22.9284372,55.261111 L23.1942549,55.2943386 L23.2607091,55.4937012 L23.5265258,55.3940194 L23.9584784,55.7262913 L24.6894754,55.7927454 L25.2211088,55.8591996 L24.7559295,55.5933829 L24.0249326,55.1946569 L23.2939357,54.5301151 L23.0613455,54.4968875 L22.3303496,53.3671655 L21.9316236,52.2706701 L21.5993527,51.1077215 L21.5993527,49.7454094 L22.0313053,48.648914 L22.6626205,47.6521004 L23.028119,47.3198295 L23.3271632,47.4195113 L24.0913868,46.8546503 L24.6230212,46.6885144 L25.3207905,46.7217409 L25.8524239,46.8878769 L26.6166475,47.120467 L26.9821459,47.5856462 L27.3476444,47.6188738 L27.4473262,47.8846905 L27.2479636,47.9511447 L27.5137803,48.3166432 L27.4140986,48.5492333 L27.6466887,48.8482766 L27.6134611,49.2802292 L27.1815094,49.778636 L27.4805527,50.2770429 L27.4473262,50.4431788 L27.8128246,50.8419038 L28.1450955,51.3403107 L28.7099565,51.4399924 L30.039041,51.47322 L31.0026281,51.3735383 L31.5674891,51.3403107 L31.3348989,51.074494 L31.733624,50.9748132 L32.2320308,50.8751314 L33.1291637,50.1773621 C33.1291637,50.1773621 33.826933,48.9811859 33.9598414,48.81505 C34.0927497,48.648914 34.3585674,48.0840531 34.3585674,48.0840531 L35.4882894,46.9211045 L35.9202421,46.7549685 L36.9170557,46.2565617 L37.9470959,46.2565617 L38.2129126,46.555606 L38.6448653,46.6220602 L39.0435913,47.120467 L39.2429539,48.4827791 L38.6116387,48.9147317 L38.0800043,48.9147317 L37.7145058,48.6821416 L37.6148251,48.8815042 L37.1828724,48.7818224 L37.1828724,48.7818224 L37.1828724,48.7818224 Z" id="path3216" fill="#CCCCCC"></path>
                    <path d="M21.0595912,53.6792109 C21.0595912,53.6792109 21.1377349,53.5229245 21.2158776,53.5229245 C21.2940213,53.5229245 21.4698436,53.5033886 21.4698436,53.5033886 L21.4893795,52.4875266 C21.4893795,52.4875266 21.3526291,52.4093829 21.3330931,52.3312402 C21.3135572,52.2530966 21.3135572,51.881916 21.3135572,51.881916 L21.1768068,51.7451656 L21.1572708,47.6426459 L20.7665544,46.5877121 L20.4344457,46.0211734 L20.1609448,45.8062802 L19.7311565,45.7672084 L19.2427615,46.0797811 L18.9497246,46.2360675 L18.3245781,46.099317 L18.0901491,45.9430307 L17.7189685,45.9234947 L17.3868599,45.3178842 L16.7031066,45.102991 L16.3905338,45.0053114 L15.4528146,44.9271687 L15.1793136,44.9076328 L14.827669,45.1420629 L14.4174167,45.6304579 L14.1243798,46.1969957 L14.085308,47.115179 L14.3002021,47.4082158 L14.3002021,47.8380041 L14.3978808,48.0138264 L14.3978808,48.3850069 L14.085308,48.0138264 L13.7727352,47.2519295 L13.6164489,46.7830703 L13.4796974,46.9784285 L13.5187692,47.6035741 L13.5383052,48.111505 L13.7141275,48.5803642 L13.8899498,49.2445825 L14.1829866,50.0846222 L14.4174167,50.9832686 L14.6323108,51.8428442 L15.0425622,52.6242771 L15.3942068,53.1126721 L16.1951756,53.91364 L16.7031066,54.2652846 L17.4845385,54.5387865 L18.36365,54.5192505 L18.6371509,54.3238923 L18.2855063,53.9917836 C18.2855063,53.9917836 18.2268995,53.7768895 18.2268995,53.6987468 C18.2268995,53.6206031 18.344114,53.2298867 18.344114,53.2298867 L18.7152946,52.8391712 L19.7897643,52.643813 L20.1609448,52.9173139 L20.6493399,53.4643167 L21.0595912,53.6792109 L21.0595912,53.6792109 L21.0595912,53.6792109 Z" id="path3218" fill="#CCCCCC"></path>
                    <polygon id="path3220" fill="#FFFCFC" points="45.8896044 44.6536668 45.8896044 45.2397415 46.0263549 45.3178842 46.0654267 45.5132424 46.6710363 45.610922 46.6124285 45.4155638 46.2217131 45.0443832 46.1240335 44.7708823 45.8896044 44.6536668"></polygon>
                    <path d="M45.9091393,36.2728052 L45.498888,36.6439857 L45.2253861,37.1714526 L45.1277075,37.7184554 L44.9518852,38.4022087 L44.8737425,38.9296756 L44.9518852,40.082288 L44.990957,40.7074335 L45.3621375,41.2935082 L45.5574957,41.3521159 L45.7919248,41.8209751 L46.1240335,40.9027917 L46.2803199,41.0200073 L46.3779995,41.7037605 L46.9250023,42.1726197 C46.9250023,42.1726197 46.4170713,41.9186537 46.2998558,41.9186537 C46.1826413,41.9186537 46.1631053,42.0554051 46.1631053,42.0554051 L46.2998558,42.348442 L46.6124285,42.6610147 L47.1594314,42.8759089 L48.1752933,42.8954448 L47.9408643,43.1298739 L47.2375751,43.1298739 L47.0617528,43.2666243 L47.3157177,43.6378048 L47.6282905,44.1261999 L48.1948292,44.3997018 L48.7809039,44.2434154 L48.9762621,44.2434154 L48.8785825,44.4778445 L49.1716194,44.6927386 L49.4255854,44.9271687 L49.6600154,45.1811337 L49.8553726,45.2202055 L49.8553726,45.5132424 L49.503729,46.3923539 L49.4255854,46.8026062 L49.2302271,47.1347149 L49.1130126,47.6426459 L48.761368,48.2482555 L48.7222962,48.4631496 L48.8981185,48.4631496 L49.1520844,48.131041 L49.523264,47.9747546 L49.9725882,47.3886799 C49.9725882,47.3886799 50.2265532,47.4668236 50.2851609,47.3496091 C50.3437687,47.2323935 50.6172696,46.4118898 50.6172696,46.4118898 L50.8907705,46.353282 L51.027522,45.4937065 L51.261951,46.2946753 L51.4573093,47.3105372 L51.3791666,48.1701128 L50.8712356,49.1078311 L50.7344841,49.2641175 L50.8126278,49.5766912 L51.1838084,49.5766912 L51.6135956,49.127367 L52.3559567,48.131041 L52.6489935,47.1347149 L52.8052799,45.2006696 L53.1373886,46.099317 L53.4499623,46.9784285 L53.6062487,47.6621818 L53.3718186,48.5608292 L53.0787818,49.6157621 L53.4694973,49.3422611 L54.290002,48.4240778 L54.9346834,47.4668236 L55.1105057,46.7635344 L55.2667921,45.4155638 L55.1691135,44.36063 L55.2081843,43.9699135 L55.3449348,43.7550204 L55.3253999,43.0517312 L55.1886484,42.7586933 L54.7197893,43.3838399 L54.5244311,43.4229117 L53.9774282,43.0517312 L53.8406778,43.0126593 L53.528105,42.5633361 L53.3132109,41.840511 L53.3327468,41.0200073 L53.2155323,41.0200073 C53.2155323,41.0200073 53.27414,40.336254 53.3327468,40.1604317 C53.3913546,39.9846094 53.4694973,39.6525007 53.4694973,39.6525007 L53.3718186,38.9296756 L53.0006381,38.2459223 L52.5513149,37.8552059 L51.8284898,37.6403117 L50.9884501,37.4058826 L50.5000551,37.0151662 L49.5818717,36.9174866 L49.1130126,36.9760944 L48.2339011,36.565843 L47.6673623,36.3509488 L46.9445372,36.3314129 L46.2607839,36.2532692 L45.9091393,36.2728052 L45.9091393,36.2728052 L45.9091393,36.2728052 Z" id="path3222" fill="#F1453D"></path>
                    <polygon id="path3224" fill="#F1453D" points="14.4770375 36.3153459 12.6752477 36.2793102 12.3869615 36.1351671 11.9545322 36.4955258 11.1257084 36.4955258 10.224814 37.0000267 9.61220486 37.4684917 9.28788289 37.432456 8.02663057 38.5856017 8.20680944 39.5225319 8.35095254 39.7747823 8.42302409 40.6756777 8.45905987 41.9729656 8.17077367 42.1891802 7.73834437 43.2702545 7.48609295 44.2071846 7.2698783 46.0450101 7.45005717 47.4143706 7.19780675 48.1350861 6.6933059 48.9278741 6.58519858 49.3242676 7.01762788 49.0359814 6.94555633 48.8918383 7.16177098 49.2161603 7.70230859 48.2431934 7.91852324 48.6035521 8.13473789 48.6395879 8.13473789 47.4143706 7.88248747 45.5044735 8.49509564 47.4864421 8.63923874 48.2071576 8.74734607 48.1711218 8.81941781 46.549511 9.21581134 47.4504063 9.25184711 48.2431934 9.43202599 48.3873365 9.54013331 48.1711218 9.54013331 46.9819413 8.89148936 45.0720442 8.56716719 43.3062902 9.43202599 45.6125808 9.93652783 46.0810459 10.4049929 47.342299 10.8013864 48.0630145 10.873458 48.5314796 11.1617442 48.3513007 11.2698515 48.1711218 11.0176011 47.990943 11.19778 47.8467999 11.1617442 47.1981559 10.9455295 45.6846524 10.7293149 45.6846524 9.97256361 44.0990773 10.6572433 45.0720442 10.9455295 45.0720442 10.9815653 44.8197938 10.6572433 44.1711488 10.5851718 43.4143976 11.2338157 44.3513277 11.4500304 44.2432204 11.0896726 43.1981829 11.0176011 42.0090014 11.2338157 42.5135032 11.19778 43.0900756 11.666245 43.666648 12.1347111 43.9188984 12.4950688 43.4864691 12.2428184 43.3062902 12.1347111 42.8017894 11.7743533 42.3693591 11.7743533 41.7927867 12.2788542 42.6936821 12.7473193 43.018004 13.2157843 43.1261114 13.6842494 42.8017894 14.4770375 41.900894 14.3689301 41.7927867 13.5401063 41.8288225 12.8914624 41.3963932 12.31489 40.8558566 12.31489 40.3873905 12.4229973 40.459462 12.6752477 40.9639639 13.1437128 41.432429 13.6842494 41.5045005 14.3689301 41.5405363 15.1256814 40.8558566 15.5220749 39.5585677 15.6301823 38.8378522 15.4860392 37.9369568 15.0175741 36.8919193 14.7292879 36.4234543 14.4770375 36.3153459"></polygon>
                    <polygon id="path3226" fill="#F1453D" points="40.9993807 56.2791752 39.0894836 58.2611438 38.8372332 58.1890722 38.1525535 58.7656456 38.1165167 59.3782538 38.7651617 59.8827546 39.0174121 60.3512197 39.197591 60.3151839 39.8462349 61.107972 40.4588441 61.9728306 40.7110945 62.1169737 40.8912734 62.5133672 40.5669514 62.9818333 40.6750587 63.2701195 41.1795596 63.1980479 41.756132 63.2340837 42.1164897 63.4502984 42.2606338 64.0989423 42.2606338 64.3511927 42.6570273 64.1349781 42.9813493 63.666513 43.0173851 62.5133672 42.9453135 62.1890452 43.0534209 61.3241866 43.1615282 62.4773314 43.4137786 62.8376902 43.5939575 62.6935461 43.8101721 63.4502984 44.2786382 63.9187634 44.5308886 64.3511927 44.5669244 64.0629065 44.5308886 63.4863341 44.7831391 62.8376902 45.0714253 62.0809379 45.3597115 61.900759 45.6119619 62.0088664 45.9723196 62.3692241 45.9362838 62.5133672 46.2606068 62.4773314 46.1885343 61.6124728 45.7200692 60.9638289 44.9993537 60.4953628 44.638996 60.1350051 44.314674 59.5584327 44.8191748 59.8467189 45.3597115 60.3512197 45.8642123 60.6034701 46.22457 60.6755417 46.8371792 61.8647233 47.2335727 62.4412957 47.3056443 61.6485086 47.5939305 60.7476132 47.8822167 60.3512197 48.2425744 60.3151839 48.7110405 60.459327 48.6029332 59.9187904 48.2425744 59.2341107 47.5218589 58.5854658 46.7651077 58.0088934 46.1164627 57.7206072 45.5398903 58.225108 45.3597115 58.2971796 45.0353895 58.5854658 44.7831391 58.4773584 43.9543152 57.6845714 43.7381006 57.5404283 43.3777428 56.6755687 42.8372062 56.4233183 42.0083824 56.4953898 40.9993807 56.2791752"></polygon>
                    <polygon id="path3228" fill="#673FB4" points="45.4678188 62.6935461 45.0714253 63.2340837 45.0714253 64.1349781 45.2516041 64.5674074 45.0714253 66.2610898 45.9723196 64.9998377 46.2966426 64.3511927 46.2606068 63.4863341 46.0083554 63.0899406 45.7200692 62.8376902 45.4678188 62.6935461"></polygon>
                    <polygon id="path3230" fill="#673FB4" points="48.4587901 60.8196858 48.1705029 60.8917573 47.8461809 61.5764371 47.7741094 62.4773314 47.9542882 62.9457975 47.9542882 63.5944415 48.0263598 63.990835 48.3506828 63.5223699 48.8191478 62.7295819 48.8912194 62.1530095 48.8912194 61.3602224 48.6750047 60.9998647 48.4587901 60.8196858"></polygon>
                    <polygon id="path3233" fill="#673FB4" points="40.6029872 65.5043385 41.0714523 65.1800165 41.43181 64.9277661 41.9002751 64.3151569 41.8282035 63.8466919 41.5399173 63.6304772 41.1795596 63.4863341 40.8552376 63.5223699 40.4948799 64.0268708 40.5309156 65.0358734 40.6029872 65.5043385"></polygon>
                    <polygon id="path3235" fill="#673FB4" points="18.6571893 62.3331883 19.0175471 62.4773314 19.0175471 63.4502984 18.4049389 64.1349781 17.7202582 64.6394789 17.756294 63.990835 17.5761151 63.7746203 17.5761151 63.0899406 17.7202582 62.9097617 17.7202582 62.5854388 18.3328674 62.2611168 18.6571893 62.3331883"></polygon>
                    <polygon id="path3237" fill="#673FB4" points="13.9725366 62.9097617 14.4770375 62.873726 15.0175741 63.1980479 15.2337887 63.8106561 14.9094668 64.0989423 14.7292879 64.3872285 14.6211806 64.8556946 14.6932521 65.6124458 14.7292879 66.2971256 14.1166797 65.5403743 13.6121779 64.7475862 13.5761421 63.9547992 13.756321 63.2701195 13.9725366 62.9097617"></polygon>
                    <polygon id="path3239" fill="#673FB4" points="12.2428184 62.0088664 12.0986753 62.5133672 11.9184964 62.6214745 11.7022808 62.9097617 11.7022808 63.990835 11.3419231 63.7746203 10.9455295 63.2701195 10.7293149 62.7295819 10.8013864 61.3602224 10.9815653 60.78365 11.4139946 60.6395059 11.8464249 60.78365 12.2067826 61.6124728 12.2428184 62.0088664"></polygon>
                    <path d="M12.2788542,58.5133942 L12.0626395,59.0539318 L11.4860662,59.4863611 C11.3980918,58.9104415 11.6944782,58.6090647 12.2788542,58.5133942 L12.2788542,58.5133942 L12.2788542,58.5133942 Z" id="path3241" fill="#4748A5"></path>
                    <polygon id="path3243" fill="#F1453D" points="19.3418691 55.8107101 19.3418691 55.8107101 19.5941195 56.2431394 19.8103341 56.9278201 20.1706929 57.3242136 20.1346571 57.5404283 20.6391579 57.9728576 21.1436588 58.7656456 21.9724826 59.4503254 21.3598734 59.990862 19.9184424 61.0719362 19.4499764 61.2160793 18.8373682 60.8557216 18.9094398 61.7205802 19.1616902 62.1169737 18.5130462 61.9728306 17.756294 62.0449021 17.2878289 62.4412957 17.1797216 62.8376902 16.9995427 62.549403 16.7472923 62.1530095 16.6752207 62.0809379 16.5310776 62.1890452 16.6391849 62.2611168 16.6752207 62.9818333 16.4950418 63.1259764 16.4590061 63.342191 15.6301823 63.8827277 15.4139676 63.342191 15.1256814 62.7295819 14.6211806 62.4773314 14.0806439 62.549403 13.4680348 62.9097617 13.6482136 62.4052599 14.0085724 61.8286875 14.6932521 61.2521151 15.3779318 60.8196858 15.9184694 60.6034701 16.0626125 60.5313986 15.8824337 60.3512197 14.873431 60.6395059 14.1527155 61.107972 13.3959632 61.6485086 12.8193908 62.4773314 12.5311046 62.6935461 12.5311046 62.0809379 12.2067826 61.2521151 12.0986753 60.7115775 11.7743533 60.3151839 11.3779588 60.3151839 10.8374222 60.4232913 11.2338157 59.7386115 12.0266038 59.3061823 12.3869615 58.6935731 13.0356055 58.1530365 13.5761421 58.0449291 14.3689301 58.1530365 14.7653237 58.3692511 15.5220749 58.4052869 15.990541 58.3692511 16.5671134 58.0809649 17.0355785 57.2161063 17.6842224 56.2791752 18.4409747 55.8827816 19.3418691 55.8107101"></polygon>
                    <polygon id="path3245" fill="#785549" points="36.8552646 45.9369028 35.8102261 46.225189 35.0895106 46.8017624 34.1525805 47.7747283 33.3958282 49.1440888 32.5309696 50.1891262 30.9453945 50.8377712 29.5039625 50.8738069 28.3868535 50.549484 27.99046 49.9368758 27.8823517 49.1440888 27.7382086 48.1711218 27.4138866 47.5585137 26.9093858 46.9459055 26.3328134 46.549511 26.9454215 43.9549342 27.1256004 43.3783618 27.1256004 42.6216105 27.2337077 41.6126078 27.7742444 40.7117135 28.314782 40.2072116 29.2517121 39.7747823 30.9093588 39.342353 32.5670054 38.8018164 34.2967236 38.4054219 36.2426564 37.9369568 37.0714792 37.8648853 36.9994077 38.9459595 37.2156223 39.342353 37.1795866 42.1531445 36.9994077 44.6396149 36.8552646 45.9369028"></polygon>
                    <polygon id="path3247" fill="#785549" points="37.2516581 45.900867 38.2606608 46.1170817 39.0534479 46.5855477 39.3777698 47.0540128 39.8101991 46.6936551 39.990378 46.0810459 40.7471303 45.6486166 41.9002751 44.6396149 40.9273092 43.1621471 40.4228083 42.4414307 39.7381276 41.6486436 38.9093048 40.1351401 37.9723736 38.0810999 37.4678728 38.0810999 37.3958012 42.1531445 37.431837 43.6306122 37.2516581 45.900867"></polygon>
                    <path d="M12.8511874,25.7073982 L12.5113199,25.759685 L12.0930221,26.0995525 L11.9100171,26.5439938 L11.9361606,27.3544459 L12.2237402,27.851175 L12.7204693,28.3740465 L12.9557611,28.7662009 L12.825044,29.4720784 L12.1191655,29.9165206 L11.3610012,30.4655365 L11.0734215,30.9099777 L10.9688469,31.4067058 L10.9949903,31.9295783 L11.099565,32.0602964 L11.6747243,32.034153 L12.0145918,31.9295783 L12.5374633,31.8772914 L13.0341924,31.9557217 L13.7923577,32.4785942 L14.8642452,33.4459079 L15.3348308,33.9949238 L14.9949633,33.1844717 L14.8119583,32.217158 L14.6812402,31.2498442 L14.8381017,30.6746849 L15.099538,30.3086739 L15.3871177,30.4655365 L15.6224105,30.3348184 L15.9361336,30.4916799 L16.1975698,30.3348184 L16.6158676,30.4655365 L17.1387401,30.2041002 L17.9230479,29.6027965 L18.4720638,29.6027965 L18.6289263,29.7335146 L18.9426494,29.6027965 L19.1256544,29.8642327 L19.779245,29.3675046 L20.3021175,29.1060684 L20.824989,29.3152168 L21.5047231,29.4720784 L21.7661593,29.2367865 L22.3151752,29.2106421 L23.0733406,29.1060684 L23.4393505,29.3675046 L23.8053615,30.2563871 L24.0667977,30.5439668 L24.4589521,30.622398 L24.6681005,30.7269717 L25.0341114,31.6419986 L25.2955477,32.3740195 L25.4262658,33.262903 L25.3739779,33.4981958 L25.6092708,33.4720514 L25.9752817,33.8380623 L26.2890048,33.9949238 L26.5504411,34.2825035 L26.6288713,34.7530892 L26.8380207,34.7269447 L27.0210257,34.4916529 L27.3870367,34.5700832 L27.7007598,34.9099507 L28.0144838,34.9360941 L27.4654679,31.3021321 L26.9425954,31.0145524 L26.916452,30.1779558 L28.145201,29.7335146 L28.1713454,29.4197915 L27.9883394,28.896919 L27.7530476,28.4263344 L27.282462,28.4786212 L27.6484729,27.3021591 L28.5634988,28.2433284 L28.145201,28.2956162 L28.5112119,29.7335146 L30.0798284,29.4720784 L30.3674091,29.8642327 L30.2628344,30.2041002 L30.3935525,30.4393921 L30.4719828,30.8576899 L30.9425684,31.4589936 L32.1713184,34.125642 L33.3477805,36.5308541 L33.870653,35.9818391 L34.4196689,35.851121 L35.0209717,35.4328232 L35.3869827,35.3021051 L35.6484189,34.9622376 L36.328153,34.9360941 L37.3477535,35.851121 L37.5046151,35.6158282 L38.4719288,35.5635403 L38.7856529,36.1909875 L38.8379397,36.4524238 L39.2300941,36.2955622 L40.3019825,36.5308541 L40.9555722,37.0537266 L41.4523012,37.262876 L41.5830193,37.5243122 L41.870599,37.1844447 L42.0797474,37.2105881 L42.4196149,37.2890194 L43.4915034,37.2105881 L44.0405193,36.1125563 C44.0405193,36.1125563 44.5372474,35.0929557 44.7725402,34.8315194 C45.007833,34.5700832 45.9751467,33.5243392 45.9751467,33.5243392 L47.1516088,32.7400305 L48.0404923,32.2433014 L48.8770879,32.1387277 L49.6613956,32.1125833 L49.6352522,31.4067058 L49.3215291,30.7269717 L48.5372204,29.7073712 L48.3803588,28.896919 L48.3803588,28.4001909 L49.0600929,27.9557487 L49.870545,27.3021591 L49.8966885,26.622425 L49.6613956,25.7858294 L49.190811,25.079952 L49.0339494,24.9492338 L48.7725132,24.896946 L48.4065022,25.1322388 L47.6744813,26.1518394 L46.8640292,26.9622916 L45.870572,27.5635953 L44.7202533,27.6943125 L42.8901996,27.4067328 L41.6091628,27.0145794 L40.0144019,26.4132756 L38.3412107,25.6289679 L37.4261848,25.4459619 L36.0405733,24.7662279 L35.5177008,24.7400845 L35.4915574,24.9753773 L35.9098552,25.3936751 L35.8052805,26.125696 L35.4392695,26.5178503 L34.7595355,26.5439938 C34.7595355,26.5439938 34.8379667,26.5962816 34.4458124,26.7008553 C34.053658,26.80543 33.7137915,26.7008553 33.7137915,26.7008553 L33.0602008,26.3087009 L32.4327546,26.2041272 L31.1778603,26.2041272 L29.7922487,26.3348454 L28.2236323,26.4655635 L27.4393235,27.1452975 L26.7595895,27.2498712 L26.0275686,27.0668663 L25.2694042,26.1779838 L25.2955477,25.6812547 L25.8445636,25.0015207 L25.5569839,24.9753773 L23.8315049,25.6028235 L22.7596165,26.2041272 L22.1844571,26.5701372 L21.7661593,26.5439938 L21.2171434,27.0407228 L20.5374093,27.0930097 L20.145256,27.5113075 L20.0145378,27.4590206 L18.916506,27.7466003 L17.9230479,27.9296053 C17.9230479,27.9296053 16.6681545,28.1126113 16.5374363,28.1126113 C16.4067182,28.1126113 15.2041127,27.9557487 15.2041127,27.9557487 L14.3152292,27.5113075 L13.8969314,27.0407228 L13.5047771,26.7792866 L12.9819056,26.2302707 L13.008049,25.8119729 L12.8511874,25.7073982 L12.8511874,25.7073982 L12.8511874,25.7073982 Z" id="path2257" fill="#1EA8EE"></path>
                </g>
            </g>
        </g>
    </g>
</svg>