<?xml version="1.0" encoding="UTF-8" standalone="no"?>
<svg width="180px" height="180px" viewBox="0 0 180 180" version="1.1" xmlns="http://www.w3.org/2000/svg" xmlns:xlink="http://www.w3.org/1999/xlink">
    <!-- Generator: Sketch 3.8.3 (29802) - http://www.bohemiancoding.com/sketch -->
    <title>bosnia_and_herzegovina</title>
    <desc>Created with Sketch.</desc>
    <defs></defs>
    <g id="Page-1" stroke="none" stroke-width="1" fill="none" fill-rule="evenodd">
        <g id="flags" transform="translate(-1800.000000, -720.000000)">
            <g id="bosnia_and_herzegovina" transform="translate(1800.000000, 720.000000)">
                <path d="M138.928917,165.550487 C124.843812,174.691198 108.041875,180 90,180 C40.2943701,180 0,139.70563 0,90 C0,57.426743 17.3043614,28.8951386 43.2217222,13.0965487 L138.928917,165.550487 L138.928917,165.550487 Z M148,158.821199 C167.569456,142.311866 180,117.607588 180,90 C180,62.3924118 167.569456,37.6881345 148,21.1788006 L148,158.821199 L148,158.821199 Z" id="blue" fill="#227FBB"></path>
                <path d="M148,21.1788006 L148,158.821199 C145.124813,161.246787 142.095525,163.495477 138.928917,165.550487 L43.2217222,13.0965487 C56.8533309,4.78705312 72.867627,0 90,0 C112.098042,0 132.33595,7.96417483 148,21.1788006 L148,21.1788006 Z" id="yellow" fill="#F2C500"></path>
                <path d="M29.1043771,23.7292446 L32.2499997,26.9931559 L31.0106434,34.6850392 L37.4999989,31.0534242 L43.9893547,34.6850394 L42.7499982,26.9931574 L48,21.5457398 L40.7446785,20.4235042 L38.7100909,16.0351907 C37.4650455,16.9001768 36.2428818,17.7957925 35.0446907,18.7209469 L34.255322,20.4235025 L32.5962989,20.6801152 C31.40611,21.6668134 30.2417478,22.683578 29.1043771,23.7292446 L29.1043771,23.7292446 L29.1043771,23.7292446 Z M131.19051,170.042085 L130.749998,167.308118 L136,161.8607 L128.744679,160.738465 L125.499999,153.740157 L122.255322,160.738463 L115,161.860694 L120.25,167.308116 L119.010644,174.999999 L125.499999,171.368385 L126.860587,172.129806 C128.325104,171.471501 129.768831,170.775175 131.19051,170.042085 L131.19051,170.042085 L131.19051,170.042085 Z M50.4999989,53.7305893 L44.0106434,57.3622039 L45.2499997,49.6703211 L40,44.2228994 L47.255322,43.1006677 L50.4999993,36.1023622 L53.7446785,43.1006694 L61,44.222905 L55.7499982,49.6703226 L56.9893547,57.3622047 L50.4999989,53.7305893 L50.4999989,53.7305893 L50.4999989,53.7305893 Z M62.4999989,72.1557862 L56.0106434,75.7874007 L57.2499997,68.0955177 L52,62.6480959 L59.255322,61.5258645 L62.4999993,54.5275591 L65.7446785,61.5258662 L73,62.6481018 L67.7499982,68.0955194 L68.9893547,75.7874016 L62.4999989,72.1557862 L62.4999989,72.1557862 L62.4999989,72.1557862 Z M75.499999,93.4156287 L69.0106434,97.0472433 L70.2499997,89.3553603 L65,83.9079384 L72.2553221,82.785707 L75.4999994,75.7874016 L78.7446786,82.7857087 L86,83.9079443 L80.7499983,89.3553619 L81.9893548,97.0472441 L75.499999,93.4156287 L75.499999,93.4156287 L75.499999,93.4156287 Z M88.4999992,113.258148 L82.0106436,116.889763 L83.2500001,109.19788 L78,103.750458 L85.2553222,102.628227 L88.4999992,95.6299213 L91.7446787,102.628228 L99,103.750464 L93.7499984,109.197882 L94.9893548,116.889764 L88.4999992,113.258148 L88.4999992,113.258148 L88.4999992,113.258148 Z M100.499999,133.100668 L94.0106434,136.732283 L95.2499997,129.0404 L90,123.592978 L97.255322,122.470746 L100.499999,115.472441 L103.744678,122.470748 L111,123.592984 L105.749998,129.040401 L106.989355,136.732283 L100.499999,133.100668 L100.499999,133.100668 L100.499999,133.100668 Z M113.499999,151.525865 L107.010643,155.157479 L108.25,147.465596 L103,142.018175 L110.255322,140.895943 L113.499999,133.897638 L116.744679,140.895945 L124,142.018181 L118.749998,147.465598 L119.989355,155.15748 L113.499999,151.525865 L113.499999,151.525865 L113.499999,151.525865 Z" id="star" fill="#FFFFFF"></path>
            </g>
        </g>
    </g>
</svg>