<?xml version="1.0" encoding="UTF-8" standalone="no"?>
<svg width="180px" height="180px" viewBox="0 0 180 180" version="1.1" xmlns="http://www.w3.org/2000/svg" xmlns:xlink="http://www.w3.org/1999/xlink">
    <!-- Generator: Sketch 3.8.3 (29802) - http://www.bohemiancoding.com/sketch -->
    <title>brazil</title>
    <desc>Created with Sketch.</desc>
    <defs></defs>
    <g id="Page-1" stroke="none" stroke-width="1" fill="none" fill-rule="evenodd">
        <g id="flags" transform="translate(-2340.000000, -720.000000)">
            <g id="brazil" transform="translate(2340.000000, 720.000000)">
                <circle id="green" fill="#1AAF5D" cx="90" cy="90" r="90"></circle>
                <polygon id="yellow" fill="#F2C500" points="90 30 5 90 90 150 175 90 90 30"></polygon>
                <g id="circle" transform="translate(55.000000, 55.000000)">
                    <path d="M35,70 C54.3299672,70 70,54.3299672 70,35 C70,15.6700328 54.3299672,0 35,0 C15.6700328,0 0,15.6700328 0,35 C0,54.3299672 15.6700328,70 35,70 L35,70 Z" id="blue" fill="#227FBB"></path>
                    <g id="stars" transform="translate(3.000000, 22.000000)" fill="#FFFFFF">
                        <path d="M58.3213751,27.3619337 L58.2132923,26.731763 L58.926585,26.0364753 L57.9408391,25.8932374 L57.5,25 L57.0591612,25.8932372 L56.0734152,26.0364745 L56.7867076,26.7317628 L56.6183222,27.7135255 L57.5,27.25 L58.1960245,27.6159218 L58.0591612,27.8932372 L57.0734152,28.0364745 L57.7867076,28.7317628 L57.6183222,29.7135255 L58.5,29.25 L59.3816778,29.7135256 L59.2132923,28.731763 L59.926585,28.0364753 L58.9408391,27.8932374 L58.5,27 L58.3213751,27.3619337 L58.3213751,27.3619337 L58.3213751,27.3619337 Z M43.5,2.25 L42.6183222,2.71352554 L42.7867076,1.73176277 L42.0734152,1.03647454 L43.0591612,0.893237152 L43.5,0 L43.9408391,0.893237372 L44.926585,1.03647526 L44.2132923,1.73176296 L44.3816778,2.71352556 L43.5,2.25 L43.5,2.25 Z M41.5,12.25 L40.6183222,12.7135255 L40.7867076,11.7317628 L40.0734152,11.0364745 L41.0591612,10.8932372 L41.5,10 L41.9408391,10.8932374 L42.926585,11.0364753 L42.2132923,11.731763 L42.3816778,12.7135256 L41.5,12.25 L41.5,12.25 Z M32.5,19.25 L31.6183222,19.7135255 L31.7867076,18.7317628 L31.0734152,18.0364745 L32.0591612,17.8932372 L32.5,17 L32.9408391,17.8932374 L33.926585,18.0364753 L33.2132923,18.731763 L33.3816778,19.7135256 L32.5,19.25 L32.5,19.25 Z M35.5,22.25 L34.6183222,22.7135255 L34.7867076,21.7317628 L34.0734152,21.0364745 L35.0591612,20.8932372 L35.5,20 L35.9408391,20.8932374 L36.926585,21.0364753 L36.2132923,21.731763 L36.3816778,22.7135256 L35.5,22.25 L35.5,22.25 Z M31.5,30.25 L30.6183222,30.7135255 L30.7867076,29.7317628 L30.0734152,29.0364745 L31.0591612,28.8932372 L31.5,28 L31.9408391,28.8932374 L32.926585,29.0364753 L32.2132923,29.731763 L32.3816778,30.7135256 L31.5,30.25 L31.5,30.25 Z M61,25.5 L60.4122148,25.809017 L60.5244717,25.1545085 L60.0489435,24.690983 L60.7061075,24.5954914 L61,24 L61.2938927,24.5954916 L61.9510567,24.6909835 L61.4755282,25.1545086 L61.5877852,25.809017 L61,25.5 L61,25.5 Z M53,33.5 L52.4122148,33.809017 L52.5244717,33.1545085 L52.0489435,32.690983 L52.7061075,32.5954914 L53,32 L53.2938927,32.5954916 L53.9510567,32.6909835 L53.4755282,33.1545086 L53.5877852,33.809017 L53,33.5 L53,33.5 Z M49.5,33.25 L48.6183222,33.7135255 L48.7867076,32.7317628 L48.0734152,32.0364745 L49.0591612,31.8932372 L49.5,31 L49.9408391,31.8932374 L50.926585,32.0364753 L50.2132923,32.731763 L50.3816778,33.7135256 L49.5,33.25 L49.5,33.25 Z M56.5,32.25 L57.3816778,32.7135255 L57.2132924,31.7317628 L57.9265848,31.0364745 L56.9408388,30.8932372 L56.5,30 L56.0591609,30.8932374 L55.073415,31.0364753 L55.7867077,31.731763 L55.6183222,32.7135256 L56.5,32.25 L56.5,32.25 Z M49.5,41.25 L50.3816778,41.7135255 L50.2132924,40.7317628 L50.9265848,40.0364745 L49.9408388,39.8932372 L49.5,39 L49.0591609,39.8932374 L48.073415,40.0364753 L48.7867077,40.731763 L48.6183222,41.7135256 L49.5,41.25 L49.5,41.25 Z M49.5,37.25 L50.3816778,37.7135255 L50.2132924,36.7317628 L50.9265848,36.0364745 L49.9408388,35.8932372 L49.5,35 L49.0591609,35.8932374 L48.073415,36.0364753 L48.7867077,36.731763 L48.6183222,37.7135256 L49.5,37.25 L49.5,37.25 Z M2.49999997,7.25 L1.61832219,7.71352554 L1.78670762,6.73176277 L1.07341521,6.03647454 L2.0591612,5.89323715 L2.50000002,5 L2.9408391,5.89323737 L3.92658502,6.03647526 L3.21329232,6.73176296 L3.38167778,7.71352556 L2.49999997,7.25 L2.49999997,7.25 Z M12,16.5 L11.4122148,16.809017 L11.5244717,16.1545085 L11.0489435,15.690983 L11.7061075,15.5954914 L12,15 L12.2938927,15.5954916 L12.9510567,15.6909835 L12.4755282,16.1545086 L12.5877852,16.809017 L12,16.5 L12,16.5 Z M6.49999997,22.25 L5.61832219,22.7135255 L5.78670762,21.7317628 L5.07341521,21.0364745 L6.0591612,20.8932372 L6.50000002,20 L6.9408391,20.8932374 L7.92658502,21.0364753 L7.21329232,21.731763 L7.38167778,22.7135256 L6.49999997,22.25 L6.49999997,22.25 Z M12.5,29.25 L11.6183222,29.7135255 L11.7867076,28.7317628 L11.0734152,28.0364745 L12.0591612,27.8932372 L12.5,27 L12.9408391,27.8932374 L13.926585,28.0364753 L13.2132923,28.731763 L13.3816778,29.7135256 L12.5,29.25 L12.5,29.25 Z M1.49999997,25.25 L0.618322192,25.7135255 L0.786707622,24.7317628 L0.0734152149,24.0364745 L1.0591612,23.8932372 L1.50000002,23 L1.9408391,23.8932374 L2.92658502,24.0364753 L2.21329232,24.731763 L2.38167778,25.7135256 L1.49999997,25.25 L1.49999997,25.25 Z M19.5,12.25 L18.6183222,12.7135255 L18.7867076,11.7317628 L18.0734152,11.0364745 L19.0591612,10.8932372 L19.5,10 L19.9408391,10.8932374 L20.926585,11.0364753 L20.2132923,11.731763 L20.3816778,12.7135256 L19.5,12.25 L19.5,12.25 Z M17,31.5 L16.4122148,31.809017 L16.5244717,31.1545085 L16.0489435,30.690983 L16.7061075,30.5954914 L17,30 L17.2938927,30.5954916 L17.9510567,30.6909835 L17.4755282,31.1545086 L17.5877852,31.809017 L17,31.5 L17,31.5 Z M27,21.5 L26.4122148,21.809017 L26.5244717,21.1545085 L26.0489435,20.690983 L26.7061075,20.5954914 L27,20 L27.2938927,20.5954916 L27.9510567,20.6909835 L27.4755282,21.1545086 L27.5877852,21.809017 L27,21.5 L27,21.5 Z M31,24.5 L30.4122148,24.809017 L30.5244717,24.1545085 L30.0489435,23.690983 L30.7061075,23.5954914 L31,23 L31.2938927,23.5954916 L31.9510567,23.6909835 L31.4755282,24.1545086 L31.5877852,24.809017 L31,24.5 L31,24.5 Z M39,32.5 L38.4122148,32.809017 L38.5244717,32.1545085 L38.0489435,31.690983 L38.7061075,31.5954914 L39,31 L39.2938927,31.5954916 L39.9510567,31.6909835 L39.4755282,32.1545086 L39.5877852,32.809017 L39,32.5 L39,32.5 Z M44,34.5 L43.4122148,34.809017 L43.5244717,34.1545085 L43.0489435,33.690983 L43.7061075,33.5954914 L44,33 L44.2938927,33.5954916 L44.9510567,33.6909835 L44.4755282,34.1545086 L44.5877852,34.809017 L44,34.5 L44,34.5 Z M41,38.5 L40.4122148,38.809017 L40.5244717,38.1545085 L40.0489435,37.690983 L40.7061075,37.5954914 L41,37 L41.2938927,37.5954916 L41.9510567,37.6909835 L41.4755282,38.1545086 L41.5877852,38.809017 L41,38.5 L41,38.5 Z" id="Star-39"></path>
                    </g>
                    <g id="text" transform="translate(1.000000, 20.000000)">
                        <path d="M68.5451363,20.6573609 C53.6477543,7.78542768 34.233069,1.30000001e-06 13,1.30000001e-06 C9.28806921,1.30000001e-06 5.6317109,0.237935352 2.0453446,0.699383921 C1.28023315,2.40640572 0.647887372,4.1858915 0.161446189,6.02470232 C4.34140816,5.35042263 8.62978128,5 13,5 C33.9044486,5 52.9362051,13.0179479 67.1877299,26.1463041 C67.7821775,24.3756337 68.2388898,22.5417424 68.5451363,20.6573609 L68.5451363,20.6573609 L68.5451363,20.6573609 Z" id="Shape" fill="#FFFFFF"></path>
                        <path d="M3.98062762,5.04576767 C4.80905474,5.04576767 5.48062762,4.16591558 5.48062762,3.08056304 C5.48062762,1.99521049 4.80905474,1.11535841 3.98062762,1.11535841 C3.15220049,1.11535841 2.48062762,1.99521049 2.48062762,3.08056304 C2.48062762,4.16591558 3.15220049,5.04576767 3.98062762,5.04576767 M3.98062762,4.31583452 C4.46716418,4.31583452 4.86158,3.76278464 4.86158,3.08056304 C4.86158,2.39834144 4.46716418,1.84529156 3.98062762,1.84529156 C3.49409105,1.84529156 3.09967524,2.39834144 3.09967524,3.08056304 C3.09967524,3.76278464 3.49409105,4.31583452 3.98062762,4.31583452" id="Shape" fill="#009B3A" transform="translate(3.980628, 3.080563) rotate(-7.000000) translate(-3.980628, -3.080563) "></path>
                        <path d="M8.3875533,3.23384842 L7.37432244,3.23384842 L7.37432244,4.53384842 L6.75527481,4.53384842 L6.80289386,1.03384842 L8.70765577,1.03384842 C9.28623979,1.03384842 9.75527481,1.5263352 9.75527481,2.13384843 C9.75527481,2.598647 9.4807236,2.99611444 9.09261498,3.15720729 C9.34658702,3.52848453 9.42354332,4.15524328 9.46680364,4.50757029 L8.86627151,4.58130637 C8.82265369,4.22606775 8.74478067,3.59184287 8.3875533,3.23384842 L8.3875533,3.23384842 Z M7.37432244,2.58384842 L8.66003672,2.58384842 C8.89673019,2.58384842 9.08860815,2.38237656 9.08860815,2.13384843 C9.08860815,1.88532029 8.89673019,1.68384842 8.66003672,1.68384842 L7.37432244,1.68384842 L7.37432244,2.58384842 L7.37432244,2.58384842 Z" id="P" fill="#009B3A" transform="translate(8.255275, 2.807577) rotate(-4.000000) translate(-8.255275, -2.807577) "></path>
                        <path d="M11.0601766,4.17923157 L12.6316052,4.17923157 C13.4205834,4.17923157 14.0601766,3.53963836 14.0601766,2.75066014 L14.0601766,2.27446967 C14.0601766,1.89558897 13.9096668,1.53222623 13.6417577,1.26431712 C13.3738486,0.996408008 13.0104859,0.845898235 12.6316052,0.845898235 L11.0601766,0.845898235 L11.0601766,4.17923157 L11.0601766,4.17923157 L11.0601766,4.17923157 Z M11.6792242,3.56018395 L12.5839861,3.56018395 C13.0836723,3.56018395 13.488748,3.15510825 13.488748,2.65542205 L13.488748,2.36970776 C13.488748,1.87002156 13.0836723,1.46494586 12.5839861,1.46494586 L11.6792242,1.46494586 L11.6792242,3.56018395 L11.6792242,3.56018395 L11.6792242,3.56018395 Z" id="Shape" fill="#009B3A" transform="translate(12.560177, 2.512565) rotate(-1.000000) translate(-12.560177, -2.512565) "></path>
                        <polygon id="Shape" fill="#009B3A" transform="translate(16.879209, 2.550257) rotate(2.000000) translate(-16.879209, -2.550257) " points="15.3792085 4.21692335 18.3792085 4.21692335 18.3792085 3.59787573 15.9506371 3.59787573 15.9506371 2.74073288 17.855399 2.74073288 17.855399 2.16930431 15.9506371 2.16930431 15.9506371 1.50263764 18.2363514 1.50263764 18.2363514 0.883590022 15.3792085 0.883590022 15.3792085 4.21692335"></polygon>
                        <polygon id="Shape" fill="#009B3A" transform="translate(21.190349, 2.813938) rotate(5.000000) translate(-21.190349, -2.813938) " points="19.6903485 4.48060425 20.2617771 4.48060425 20.2617771 2.19488997 20.9284437 4.48060425 21.4522533 4.48060425 22.1189199 2.19488997 22.1189199 4.48060425 22.6903485 4.48060425 22.6903485 1.14727092 21.8570152 1.14727092 21.1903485 3.43298521 20.5236818 1.14727092 19.6903485 1.14727092 19.6903485 4.48060425"></polygon>
                        <polygon id="Shape" fill="#009B3A" transform="translate(27.943109, 3.855885) rotate(9.750000) translate(-27.943109, -3.855885) " points="26.6931092 5.35588509 29.1931092 5.35588509 29.1931092 4.78445652 27.2645378 4.78445652 27.2645378 4.02255176 28.8359663 4.02255176 28.8359663 3.45112319 27.2645378 3.45112319 27.2645378 2.92731367 29.1335854 2.92731367 29.1335854 2.35588509 26.6931092 2.35588509 26.6931092 5.35588509"></polygon>
                        <path d="M33.7753981,7.15581596 L33.7753981,5.91772073 L35.1087314,5.91772073 C35.6873155,5.91772073 36.1563505,5.4486857 36.1563505,4.87010168 C36.1563505,4.29151765 35.6873155,3.82248263 35.1087314,3.82248263 L33.2039695,3.82248263 L33.1563505,7.15581596 L33.7753981,7.15581596 L33.7753981,7.15581596 Z M33.7753981,5.29867311 L35.0611124,5.29867311 C35.2978059,5.29867311 35.4896838,5.10679514 35.4896838,4.87010168 C35.4896838,4.63340821 35.2978059,4.44153025 35.0611124,4.44153025 L33.7753981,4.44153025 L33.7753981,5.29867311 L33.7753981,5.29867311 L33.7753981,5.29867311 Z" id="Shape" fill="#009B3A" transform="translate(34.656351, 5.489149) rotate(14.500000) translate(-34.656351, -5.489149) "></path>
                        <path d="M38.8800656,6.96915832 L37.5507994,6.96915832 L37.5507994,8.20725355 L36.9317518,8.20725355 L36.9793708,4.87392022 L38.8841327,4.87392022 C39.4627167,4.87392022 39.9317518,5.34295525 39.9317518,5.92153927 C39.9317518,6.3017755 39.7291798,6.63469851 39.4260694,6.8182747 C39.7650851,7.11666858 39.7650851,7.83580673 39.7650851,8.20725355 L39.1936565,8.20725355 C39.1936565,7.88871103 39.1936565,7.31446576 38.8800656,6.96915832 L38.8800656,6.96915832 L38.8800656,6.96915832 Z M37.5507994,6.3501107 L38.8365137,6.3501107 C39.0732071,6.3501107 39.2650851,6.15823273 39.2650851,5.92153927 C39.2650851,5.68484581 39.0732071,5.49296784 38.8365137,5.49296784 L37.5507994,5.49296784 L37.5507994,6.3501107 L37.5507994,6.3501107 Z" id="P" fill="#009B3A" transform="translate(38.431752, 6.540587) rotate(17.500000) translate(-38.431752, -6.540587) "></path>
                        <path d="M42.5661116,9.77587374 C43.3945387,9.77587374 44.0661116,8.95506247 44.0661116,7.94254044 C44.0661116,6.93001841 43.3945387,6.10920713 42.5661116,6.10920713 C41.7376845,6.10920713 41.0661116,6.93001841 41.0661116,7.94254044 C41.0661116,8.95506247 41.7376845,9.77587374 42.5661116,9.77587374 M42.5661116,9.09492137 C43.0526482,9.09492137 43.447064,8.57898286 43.447064,7.94254044 C43.447064,7.30609802 43.0526482,6.7901595 42.5661116,6.7901595 C42.079575,6.7901595 41.6851592,7.30609802 41.6851592,7.94254044 C41.6851592,8.57898286 42.079575,9.09492137 42.5661116,9.09492137" id="Shape" fill="#009B3A" transform="translate(42.566112, 7.942540) rotate(20.500000) translate(-42.566112, -7.942540) "></path>
                        <path d="M47.4901516,9.3299679 C47.5046332,8.96629866 47.3592607,8.64316538 47.0777727,8.496632 C46.6462095,8.27197441 46.0581245,8.54749651 45.7642481,9.11202784 C45.4703717,9.67655915 45.5819889,10.3163232 46.0135521,10.5409807 C46.3051297,10.6927664 46.668156,10.6162313 46.963621,10.3765025 L46.963621,10.3765025 L46.3300384,10.0466803 L46.601868,9.52450044 L47.8857455,10.1928448 C47.882589,10.1990461 47.8794001,10.205241 47.8761786,10.2114293 C47.408648,11.1095473 46.4339471,11.5275179 45.6991233,11.1449929 C44.9642994,10.7624678 44.7476155,9.72430146 45.2151461,8.82618346 C45.6826768,7.92806545 46.6573777,7.51009479 47.3922015,7.89261987 C47.9735466,8.19524897 48.2305905,8.90824071 48.0810983,9.63759531 L47.4901516,9.3299679 L47.4901516,9.3299679 Z" id="Shape" fill="#009B3A"></path>
                        <path d="M51.259633,12.0894255 L49.9303668,12.0894255 L49.9303668,13.3275208 L49.3113192,13.3275208 L49.3589382,9.99418741 L51.2637001,9.99418741 C51.8422841,9.99418741 52.3113192,10.4632224 52.3113192,11.0418065 C52.3113192,11.4220427 52.1087472,11.7549657 51.8056368,11.9385419 C52.1446525,12.2369358 52.1446525,12.9560739 52.1446525,13.3275208 L51.5732239,13.3275208 C51.5732239,13.0089782 51.5732239,12.434733 51.259633,12.0894255 L51.259633,12.0894255 L51.259633,12.0894255 Z M49.9303668,11.4703779 L51.2160811,11.4703779 C51.4527745,11.4703779 51.6446525,11.2784999 51.6446525,11.0418065 C51.6446525,10.805113 51.4527745,10.613235 51.2160811,10.613235 L49.9303668,10.613235 L49.9303668,11.4703779 L49.9303668,11.4703779 Z" id="P" fill="#009B3A" transform="translate(50.811319, 11.660854) rotate(26.500000) translate(-50.811319, -11.660854) "></path>
                        <polygon id="Shape" fill="#009B3A" transform="translate(54.624943, 13.689228) rotate(29.500000) translate(-54.624943, -13.689228) " points="53.1249434 15.3558948 56.1249433 15.3558948 56.1249433 14.7368472 53.6963719 14.7368472 53.6963719 13.8797043 55.6011338 13.8797043 55.6011338 13.3082758 53.6963719 13.3082758 53.6963719 12.6416091 55.9820862 12.6416091 55.9820862 12.0225615 53.1249434 12.0225615 53.1249434 15.3558948"></polygon>
                        <path d="M57.5773932,16.6312549 C57.5773932,16.9645883 57.8988217,17.1312549 58.3750122,17.1312549 C58.8512027,17.1312549 59.076917,16.976493 59.0773932,16.7622073 C59.0773932,16.0836359 56.8512027,16.5122073 56.8631075,15.3217311 C56.8750122,14.2979216 58.0416789,14.3455406 58.4702503,14.3455406 C58.8988217,14.3455406 59.7083455,14.5360168 59.6964408,15.3574454 L58.9702503,15.3574454 C58.9702503,15.0003025 58.636917,14.8693502 58.2559646,14.8693502 C57.886917,14.8693502 57.6250122,14.928874 57.6250122,15.2741121 C57.6131075,15.8336359 59.8273932,15.4645883 59.8273932,16.6431597 C59.8273932,17.5122073 58.9702503,17.678874 58.3273932,17.678874 C57.7797741,17.678874 56.8250122,17.4645883 56.8273932,16.6312549 C56.8273932,16.6312549 56.8250122,17.4645883 56.8273932,16.6312549 L57.5773932,16.6312549" id="Shape" fill="#009B3A" transform="translate(58.326864, 16.012035) rotate(32.500000) translate(-58.326864, -16.012035) "></path>
                        <path d="M61.7832744,19.4264948 C62.2594649,19.4264948 62.4851792,19.2717329 62.4856553,19.0574471 C62.4856553,18.3788757 60.2594649,18.8074471 60.2713696,17.616971 C60.2832744,16.5931614 61.4499411,16.6407805 61.8785125,16.6407805 C62.3070839,16.6407805 63.1166077,16.8312567 63.104703,17.6526852 L62.3785125,17.6526852 C62.3785125,17.2955424 62.0451792,17.16459 61.6642268,17.16459 C61.2951792,17.16459 61.0332744,17.2241138 61.0332744,17.5693519 C61.0213696,18.1288757 63.2356553,17.7598281 63.2356553,18.9383995 C63.2356553,19.8074471 62.3785125,19.9741138 61.7356553,19.9741138 C61.1880363,19.9741138 60.2332744,19.7598281 60.2356554,18.9264948 L60.9856554,18.9264948 C60.9856554,19.2598281 61.3070839,19.4264948 61.7832744,19.4264948 L61.7832744,19.4264948 Z" id="Shape" fill="#009B3A" transform="translate(61.735653, 18.307275) rotate(35.500000) translate(-61.735653, -18.307275) "></path>
                        <path d="M64.8239391,22.4047852 C65.6523662,22.4047852 66.3239391,21.6585931 66.3239391,20.7381186 C66.3239391,19.817644 65.6523662,19.0714519 64.8239391,19.0714519 C63.995512,19.0714519 63.3239391,19.817644 63.3239391,20.7381186 C63.3239391,21.6585931 63.995512,22.4047852 64.8239391,22.4047852 M64.8239391,21.7857376 C65.3104757,21.7857376 65.7048915,21.3167026 65.7048915,20.7381186 C65.7048915,20.1595345 65.3104757,19.6904995 64.8239391,19.6904995 C64.3374026,19.6904995 63.9429867,20.1595345 63.9429867,20.7381186 C63.9429867,21.3167026 64.3374026,21.7857376 64.8239391,21.7857376" id="Shape" fill="#009B3A" transform="translate(64.823939, 20.738119) rotate(38.500000) translate(-64.823939, -20.738119) "></path>
                    </g>
                </g>
            </g>
        </g>
    </g>
</svg>