<?xml version="1.0" encoding="UTF-8" standalone="no"?>
<svg width="180px" height="180px" viewBox="0 0 180 180" version="1.1" xmlns="http://www.w3.org/2000/svg" xmlns:xlink="http://www.w3.org/1999/xlink">
    <!-- Generator: Sketch 3.8.3 (29802) - http://www.bohemiancoding.com/sketch -->
    <title>brunei</title>
    <desc>Created with Sketch.</desc>
    <defs></defs>
    <g id="Page-1" stroke="none" stroke-width="1" fill="none" fill-rule="evenodd">
        <g id="flags" transform="translate(-180.000000, -990.000000)">
            <g id="brunei" transform="translate(180.000000, 990.000000)">
                <path d="M153.88496,153.393319 C137.579154,169.82479 114.977852,180 90,180 C40.2943701,180 0,139.70563 0,90 C0,88.3422336 0.0448208281,86.6949357 0.133316775,85.0592519 L153.884962,153.393317 L153.884962,153.393317 L153.88496,153.393319 L153.88496,153.393319 L153.88496,153.393319 Z M179.866683,94.9407481 C179.955179,93.3050643 180,91.6577664 180,90 C180,40.2943701 139.70563,0 90,0 C65.0221483,0 42.4208455,10.1752098 26.11504,26.6066811 L179.866683,94.9407481 L179.866683,94.9407481 L179.866683,94.9407481 L179.866683,94.9407481 L179.866683,94.9407481 Z" id="yellow" fill="#F2C500"></path>
                <path d="M153.88496,153.393319 C161.529478,145.689886 167.790284,136.611364 172.263553,126.561579 L7.73644685,53.4384208 C3.39699767,63.1875622 0.739735484,73.8507247 0.133316775,85.0592519 L153.884962,153.393317 L153.884962,153.393317 L153.88496,153.393319 L153.88496,153.393319 L153.88496,153.393319 Z" id="black" fill="#000000"></path>
                <path d="M172.263553,126.561579 C176.603002,116.812438 179.260265,106.149275 179.866683,94.9407481 L26.1150377,26.6066834 C18.4705218,34.3101142 12.2097157,43.3886358 7.73644682,53.4384208 L172.263553,126.561579 L172.263553,126.561579 L172.263553,126.561579 L172.263553,126.561579 L172.263553,126.561579 Z" id="white" fill="#FFFFFF"></path>
                <g id="emblem" transform="translate(37.000000, 44.000000)">
                    <g id="shape" fill="#E94B35">
                        <path d="M47.6648133,92.5234855 C43.4072199,91.9582988 39.5036929,90.60361 36.7921162,88.7475104 C36.2665145,88.3868465 35.7717012,88.0921577 35.6947303,88.0921577 C35.6155602,88.0921577 35.5517842,88.4924066 35.5517842,88.9872199 C35.5517842,90.3880913 34.9887967,91.0940249 33.5725311,91.4612863 C32.2178423,91.8131535 30.1506224,91.1028216 28.4748548,89.7129461 C26.7397095,88.2724896 24.7362656,87.1729046 23.0407054,86.7330705 C21.6442324,86.3680083 19.790332,86.4273859 18.4510373,86.8760166 C17.8286722,87.0849378 17.1205394,87.3796266 16.8742324,87.5313693 C16.6301245,87.683112 16.3552282,87.8062656 16.2672614,87.8062656 C16.029751,87.8062656 16.0627386,86.299834 16.3112448,85.8182158 C16.6389212,85.1870539 17.4460166,84.5646888 18.3872614,84.2216183 C18.8622822,84.0478838 19.2515353,83.8257676 19.2515353,83.726805 C19.2515353,83.6278423 19.0909959,83.2649793 18.8952697,82.9241079 C18.2575104,81.8069295 18.5192116,80.7249378 19.6319917,79.8738589 C20.7711618,79.0029876 22.699834,78.853444 24.4041909,79.5021992 C24.833029,79.6649378 25.233278,79.7990871 25.2926556,79.7990871 C25.516971,79.7990871 25.3806224,79.4846058 24.7626556,78.5851452 C24.0501245,77.5427386 23.9093776,77.0281328 23.9973444,75.7878008 C24.1117012,74.2175934 25.3916183,72.933278 26.9596266,72.8189212 C28.2395436,72.726556 29.0356432,73.1575934 30.9247303,74.9565145 C36.5656017,80.3356846 42.6990871,83.300166 49.8529876,84.1028631 C51.6585062,84.3051867 55.2915353,84.1974274 57.4225311,83.8763485 C63.8595021,82.9065145 70.3448548,79.6693361 75.4095436,74.8993361 C76.8126141,73.5776349 77.4877593,73.2279668 78.6379253,73.2235685 C79.6385477,73.2191701 80.340083,73.5424481 81.0570124,74.3341494 C81.710166,75.0598755 81.9322822,75.7482158 81.8619087,76.85 C81.8157261,77.5559336 81.7013693,77.9034025 81.2813278,78.5873444 C80.6611618,79.5967635 80.766722,79.6891286 81.9938589,79.2141079 C83.6520332,78.5675519 85.6950622,78.866639 86.7968465,79.913444 C87.7666805,80.8348963 87.8590456,81.7563485 87.1047303,83.0054772 C86.829834,83.4629046 86.6055187,83.8917427 86.6055187,83.959917 C86.6055187,84.0852697 86.8144398,84.1446473 87.8216598,84.3073859 C89.1389627,84.5185062 89.893278,85.4971369 89.893278,86.9925726 C89.893278,87.4412033 89.8382988,87.8062656 89.7701245,87.8062656 C89.7041494,87.8062656 89.2049378,87.6237344 88.6617427,87.3994191 C87.126722,86.7660581 86.2536515,86.6033195 84.4591286,86.6143154 C83.093444,86.623112 82.6228216,86.686888 81.6705809,86.996971 C80.2125311,87.4741909 78.6533195,88.393444 77.3821992,89.5260166 C75.9813278,90.7751452 75.0994606,91.1687967 73.7359751,91.1578008 C72.4692531,91.1446058 71.6027801,90.7773444 71.1453527,90.0538174 C70.9012448,89.6667635 70.8660581,89.4314523 70.9254357,88.5561826 C70.9650207,87.9865975 70.9562241,87.5203734 70.9100415,87.5203734 C70.8616598,87.5203734 70.3690456,87.8326556 69.8126556,88.2175104 C68.3524066,89.220332 67.4221577,89.7173444 65.7507884,90.3792946 C60.653112,92.3959336 53.296888,93.2690041 47.6648133,92.5234855 L47.6648133,92.5234855 L47.6648133,92.5234855 Z M49.9959336,82.7261826 C41.5115353,81.9117639 33.3935187,77.4925975 28.4574813,70.4862614 C23.0981037,63.1773195 21.4091411,53.5269212 23.0451037,44.7031909 C23.9145456,40.6859668 25.6684938,36.6661037 28.6626639,33.8054232 C26.2765643,38.8641743 25.4703485,44.6625062 26.7428104,50.1430581 C28.7196444,61.0845892 37.966495,70.346834 49.0292004,71.9491494 C53.405549,73.2160913 57.9329805,71.877993 62.113383,70.5211402 C71.3356029,67.2709867 78.360632,58.51741 79.2178685,48.7319826 C79.9515776,43.4368207 79.1386478,37.9309784 76.7532585,33.1363477 C78.1128954,33.8553004 79.8292378,36.6741527 80.8412959,38.5698373 C84.3606278,45.3879245 84.5213871,53.5582813 82.449461,60.8342357 C79.6389216,70.0920822 72.5608925,78.2028415 63.2043033,81.1506091 C58.9581456,82.5378676 54.4423697,82.960856 49.9965274,82.7269523 L49.9959336,82.7261826 L49.9959336,82.7261826 Z" id="crescent"></path>
                        <path d="M7.26165975,70.5713693 C6.70562158,70.4843327 6.09255892,71.0314357 6.30220581,71.6043415 C6.70311452,72.183383 7.39389585,72.4664382 8.01711867,72.7434017 C9.51068506,73.3421037 11.135322,73.5751938 12.7389568,73.5363124 C12.1862394,73.5349929 12.9286529,73.5420303 13.1351373,73.5361629 C14.4049382,73.5399235 15.6677017,73.3110998 16.8614112,72.8808102 C17.5251207,72.6473903 18.3709436,72.4356102 18.6429369,71.7014173 C18.9083548,71.2232297 18.4274007,70.7456139 17.9423033,70.8413658 C17.2668502,70.9888817 16.6352705,71.2952745 15.9653373,71.4698007 C14.5199328,71.8773949 12.9977772,72.0350754 11.5003622,71.9121857 C10.4053515,71.7785158 9.34431784,71.4282583 8.33135809,71.0010036 C7.98010664,70.8460566 7.65045104,70.6200633 7.26150581,70.5713737 L7.26165975,70.5713693 L7.26165975,70.5713693 Z M7.87962656,68.2886307 C7.31756266,68.2049369 6.83332739,68.8517722 7.06775892,69.3678954 C7.49989585,69.9943071 8.22608382,70.3278552 8.90538548,70.6212465 C10.0864718,71.0937602 11.3693357,71.2913556 12.6384768,71.2535519 C12.1564846,71.2522324 12.8039819,71.2592697 12.9826689,71.2534023 C14.0617797,71.2547218 15.1352606,71.0412968 16.1329801,70.6307953 C16.7428539,70.3935708 17.4897141,70.1635596 17.7436743,69.4922849 C17.9407661,69.123528 17.7905012,68.5869965 17.3258979,68.5581654 C16.901722,68.5372073 16.5357801,68.8071554 16.1431402,68.9283077 C14.7170004,69.5180152 13.1474307,69.7680168 11.609771,69.6352529 C10.6516585,69.5119433 9.73629793,69.1584509 8.86740581,68.7487235 C8.54089502,68.5910452 8.24712988,68.3450438 7.8797805,68.2886571 L7.87962656,68.2886307 L7.87962656,68.2886307 Z M8.63834025,66.1004564 C8.15654606,66.0426293 7.82513112,66.5862091 7.9062805,67.0200614 C7.97816477,67.4012656 8.32025228,67.6574689 8.60317552,67.8910867 C9.77515726,68.7481693 11.2604328,69.1132315 12.6993498,69.0653996 C12.1404307,69.0634203 13.4491129,69.0745921 13.0500515,69.0638602 C13.9614315,69.0601436 14.8616838,68.8371477 15.6815784,68.4425946 C16.2289299,68.2045564 16.8716593,67.9289564 17.0561037,67.3040622 C17.1443388,67.0129801 17.1995622,66.59439 16.8711513,66.4309917 C16.5272451,66.2387578 16.185692,66.5344209 15.872992,66.6543394 C14.8197874,67.1903651 13.6463322,67.4885286 12.4627389,67.4830307 C11.4399708,67.5175687 10.4761405,67.0874 9.58886336,66.623771 C9.26690485,66.4597612 9.001509,66.1746564 8.63851398,66.1004124 L8.63834025,66.1004564 L8.63834025,66.1004564 Z M0.556390041,33.8012448 C-0.159989627,34.5183062 0.38703195,35.8401394 0.348291369,36.7795809 C0.719489295,39.673249 1.18067726,42.6038631 2.26090963,45.3277552 C3.58371046,47.9891909 6.39337021,49.4122739 8.09596772,51.7642863 C8.70458805,52.8979585 8.48849759,54.261444 8.6167532,55.501556 C8.71749278,58.8808008 8.68623158,62.2624647 8.62708929,65.6421494 C10.1530275,66.4078344 11.8101681,67.1785556 13.5655457,66.8840427 C14.6058851,66.6355365 16.5370644,66.4810228 16.7534627,65.4449938 C16.6693775,59.6171929 16.6148271,53.7871929 16.5373085,47.9602718 C15.9456658,46.1748755 14.1289973,45.2508942 12.77035,44.1086452 C11.6489492,43.0033643 10.6054869,41.8138112 9.65016743,40.5682012 C9.073589,39.5967178 6.82027531,39.2466759 7.63546369,40.9368701 C8.11345332,42.4001539 9.333311,43.4901066 9.63870975,45.0277664 C9.70543697,45.8704004 10.711377,47.4202436 9.85271979,47.9117581 C9.30651191,46.9833564 8.51511855,46.1931066 7.50356627,45.7219564 C6.5288061,44.9952627 4.91756212,44.6927448 4.5656949,43.4090892 C4.30740237,41.5881983 3.37480029,39.9383589 2.17145838,38.5739938 C2.48158535,36.9385149 2.17255797,34.8932427 0.758843444,33.8479772 L0.556297676,33.801236 L0.556269087,33.8012316 L0.556390041,33.8012448 L0.556390041,33.8012448 Z M2.73576763,34.1289212 C2.08417552,34.2341449 2.10634315,35.0644041 2.40787137,35.5009834 C2.72857635,36.4440095 2.81590539,37.4681191 2.64228091,38.4498506 C3.80069378,39.8059689 4.69777925,41.4281867 4.96812324,43.2088548 C4.97469876,43.8782162 5.67904896,44.0997826 6.13566266,44.4305158 C7.20692241,45.1126104 8.4113639,45.6073357 9.3653639,46.4609216 C9.56611734,46.675565 9.71760498,46.9067154 9.57573651,46.4686187 C9.42686369,45.908644 9.35029959,45.2903913 8.9114332,44.8665452 C8.31007012,44.2202091 7.55894357,43.6431909 6.68301411,43.4460353 C6.61000386,42.5412967 6.17911826,41.7102083 5.7809805,40.9099523 C5.33969502,40.144817 4.87874896,39.3251203 4.12265228,38.8289656 C4.1530756,37.4879116 4.13111909,36.0811025 3.55401286,34.8436295 C3.38476473,34.5257394 3.1354668,34.148032 2.73598755,34.1289212 L2.73576763,34.1289212 L2.73576763,34.1289212 Z M4.55887967,34.6633195 C4.10492697,34.7980715 4.19172822,35.3579714 4.33548797,35.7005581 C4.55294411,36.649632 4.58698506,37.629934 4.56925975,38.599944 C5.40298714,39.259761 5.92447635,40.216356 6.39932116,41.1479025 C6.69695685,41.7703556 6.97915436,42.4128212 7.09329129,43.0974888 C7.76969004,43.3215402 8.36159668,43.7453643 8.8902332,44.2140734 C8.68074905,43.5801846 8.21363651,43.0896598 7.89968299,42.5110141 C7.55845975,41.9090573 7.23254274,41.2813921 7.08810124,40.5994295 C6.43756473,39.9050195 6.07929793,38.9213527 6.22145228,37.9709813 C6.25062867,36.9206137 5.91152324,35.8352793 5.20853651,35.043666 C5.03152531,34.8693246 4.82020705,34.6765805 4.55890166,34.6632975 L4.55887967,34.6633195 L4.55887967,34.6633195 Z M6.6326971,34.9602075 C6.38586224,35.003839 6.23565892,35.2386664 6.1034888,35.4302361 C6.05241307,35.6222588 6.28772647,35.8285938 6.32518714,36.0371191 C6.6138722,36.7610639 6.72288506,37.5552062 6.63663361,38.3299739 C6.61763278,38.8801622 6.81450469,39.4176394 7.09491867,39.8836656 C7.17583274,39.5399793 7.49437593,39.2928805 7.83966763,39.2589693 C7.96527104,39.236883 8.14990456,39.3003907 8.07671618,39.1088737 C7.98901108,38.0565049 7.82864979,36.9981542 7.46079461,36.0038654 C7.31821581,35.6486995 7.15634149,35.2749065 6.8486556,35.0317663 C6.78627174,34.9873738 6.71163851,34.9494073 6.6326861,34.9602668 L6.6326971,34.9602075 L6.6326971,34.9602075 Z" id="left-hand"></path>
                        <path d="M98.7383402,70.5713693 C99.2943784,70.4843327 99.9074411,71.0314357 99.6977942,71.6043415 C99.2968855,72.183383 98.6061041,72.4664382 97.9828813,72.7434017 C96.4893149,73.3421037 94.864678,73.5751938 93.2610432,73.5363124 C93.8137606,73.5349929 93.0713471,73.5420303 92.8648627,73.5361629 C91.5950618,73.5399235 90.3322983,73.3110998 89.1385888,72.8808102 C88.4748793,72.6473903 87.6290564,72.4356102 87.3570631,71.7014173 C87.0916452,71.2232297 87.5725993,70.7456139 88.0576967,70.8413658 C88.7331498,70.9888817 89.3647295,71.2952745 90.0346627,71.4698007 C91.4800672,71.8773949 93.0022228,72.0350754 94.4996378,71.9121857 C95.5946485,71.7785158 96.6556822,71.4282583 97.6686419,71.0010036 C98.0198934,70.8460566 98.349549,70.6200633 98.7384942,70.5713737 L98.7383402,70.5713693 L98.7383402,70.5713693 Z M98.1203734,68.2886307 C98.6824373,68.2049369 99.1666726,68.8517722 98.9322411,69.3678954 C98.5001041,69.9943071 97.7739162,70.3278552 97.0946145,70.6212465 C95.9135282,71.0937602 94.6306643,71.2913556 93.3615232,71.2535519 C93.8435154,71.2522324 93.1960181,71.2592697 93.0173311,71.2534023 C91.9382203,71.2547218 90.8647394,71.0412968 89.8670199,70.6307953 C89.2571461,70.3935708 88.5102859,70.1635596 88.2563257,69.4922849 C88.0592339,69.123528 88.2094988,68.5869965 88.6741021,68.5581654 C89.098278,68.5372073 89.4642199,68.8071554 89.8568598,68.9283077 C91.2829996,69.5180152 92.8525693,69.7680168 94.390229,69.6352529 C95.3483415,69.5119433 96.2637021,69.1584509 97.1325942,68.7487235 C97.459105,68.5910452 97.7528701,68.3450438 98.1202195,68.2886571 L98.1203734,68.2886307 L98.1203734,68.2886307 Z M97.3616598,66.1004564 C97.8434539,66.0426293 98.1748689,66.5862091 98.0937195,67.0200614 C98.0218352,67.4012656 97.6797477,67.6574689 97.3968245,67.8910867 C96.2248427,68.7481693 94.7395672,69.1132315 93.3006502,69.0653996 C93.8595693,69.0634203 92.5508871,69.0745921 92.9499485,69.0638602 C92.0385685,69.0601436 91.1383162,68.8371477 90.3184216,68.4425946 C89.7710701,68.2045564 89.1283407,67.9289564 88.9438963,67.3040622 C88.8556612,67.0129801 88.8004378,66.59439 89.1288487,66.4309917 C89.4727549,66.2387578 89.814308,66.5344209 90.127008,66.6543394 C91.1802126,67.1903651 92.3536678,67.4885286 93.5372611,67.4830307 C94.5600292,67.5175687 95.5238595,67.0874 96.4111366,66.623771 C96.7330951,66.4597612 96.998491,66.1746564 97.361486,66.1004124 L97.3616598,66.1004564 L97.3616598,66.1004564 Z M105.44361,33.8012448 C106.15999,34.5183062 105.612968,35.8401394 105.651709,36.7795809 C105.280511,39.673249 104.819323,42.6038631 103.73909,45.3277552 C102.41629,47.9891909 99.6066298,49.4122739 97.9040323,51.7642863 C97.295412,52.8979585 97.5115024,54.261444 97.3832468,55.501556 C97.2825072,58.8808008 97.3137684,62.2624647 97.3729107,65.6421494 C95.8469725,66.4078344 94.1898319,67.1785556 92.4344543,66.8840427 C91.3941149,66.6355365 89.4629356,66.4810228 89.2465373,65.4449938 C89.3306225,59.6171929 89.3851729,53.7871929 89.4626915,47.9602718 C90.0543342,46.1748755 91.8710027,45.2508942 93.22965,44.1086452 C94.3510508,43.0033643 95.3945131,41.8138112 96.3498326,40.5682012 C96.926411,39.5967178 99.1797247,39.2466759 98.3645363,40.9368701 C97.8865467,42.4001539 96.666689,43.4901066 96.3612902,45.0277664 C96.294563,45.8704004 95.288623,47.4202436 96.1472802,47.9117581 C96.6934881,46.9833564 97.4848815,46.1931066 98.4964337,45.7219564 C99.4711939,44.9952627 101.082438,44.6927448 101.434305,43.4090892 C101.692598,41.5881983 102.6252,39.9383589 103.828542,38.5739938 C103.518415,36.9385149 103.827442,34.8932427 105.241157,33.8479772 L105.443702,33.801236 L105.443731,33.8012316 L105.44361,33.8012448 L105.44361,33.8012448 Z M103.264232,34.1289212 C103.915824,34.2341449 103.893657,35.0644041 103.592129,35.5009834 C103.271424,36.4440095 103.184095,37.4681191 103.357719,38.4498506 C102.199306,39.8059689 101.302221,41.4281867 101.031877,43.2088548 C101.025301,43.8782162 100.320951,44.0997826 99.8643373,44.4305158 C98.7930776,45.1126104 97.5886361,45.6073357 96.6346361,46.4609216 C96.4338827,46.675565 96.282395,46.9067154 96.4242635,46.4686187 C96.5731363,45.908644 96.6497004,45.2903913 97.0885668,44.8665452 C97.6899299,44.2202091 98.4410564,43.6431909 99.3169859,43.4460353 C99.3899961,42.5412967 99.8208817,41.7102083 100.21902,40.9099523 C100.660305,40.144817 101.121251,39.3251203 101.877348,38.8289656 C101.846924,37.4879116 101.868881,36.0811025 102.445987,34.8436295 C102.615235,34.5257394 102.864533,34.148032 103.264012,34.1289212 L103.264232,34.1289212 L103.264232,34.1289212 Z M101.44112,34.6633195 C101.895073,34.7980715 101.808272,35.3579714 101.664512,35.7005581 C101.447056,36.649632 101.413015,37.629934 101.43074,38.599944 C100.597013,39.259761 100.075524,40.216356 99.6006788,41.1479025 C99.3030432,41.7703556 99.0208456,42.4128212 98.9067087,43.0974888 C98.23031,43.3215402 97.6384033,43.7453643 97.1097668,44.2140734 C97.319251,43.5801846 97.7863635,43.0896598 98.100317,42.5110141 C98.4415402,41.9090573 98.7674573,41.2813921 98.9118988,40.5994295 C99.5624353,39.9050195 99.9207021,38.9213527 99.7785477,37.9709813 C99.7493713,36.9206137 100.088477,35.8352793 100.791463,35.043666 C100.968475,34.8693246 101.179793,34.6765805 101.441098,34.6632975 L101.44112,34.6633195 L101.44112,34.6633195 Z M99.3673029,34.9602075 C99.6141378,35.003839 99.7643411,35.2386664 99.8965112,35.4302361 C99.9475869,35.6222588 99.7122735,35.8285938 99.6748129,36.0371191 C99.3861278,36.7610639 99.2771149,37.5552062 99.3633664,38.3299739 C99.3823672,38.8801622 99.1854953,39.4176394 98.9050813,39.8836656 C98.8241673,39.5399793 98.5056241,39.2928805 98.1603324,39.2589693 C98.034729,39.236883 97.8500954,39.3003907 97.9232838,39.1088737 C98.0109889,38.0565049 98.1713502,36.9981542 98.5392054,36.0038654 C98.6817842,35.6486995 98.8436585,35.2749065 99.1513444,35.0317663 C99.2137283,34.9873738 99.2883615,34.9494073 99.3673139,34.9602668 L99.3673029,34.9602075 L99.3673029,34.9602075 Z" id="right-hand"></path>
                        <path d="M52.0477593,71.9084647 C49.0804191,71.6259593 46.4031494,69.4629876 45.4878548,66.6304564 C45.5371668,66.1425266 46.1446809,66.9034394 46.4316726,66.9546361 C46.9705353,67.2538552 47.5532054,67.5000743 48.1736573,67.5382739 C48.9559241,67.874527 49.4396095,68.645468 50.1862498,69.0475423 C50.532927,69.3175564 51.7596241,69.8482602 51.5317461,68.989438 C51.2443145,68.5408073 51.0466751,67.9724978 51.2941037,67.4585298 C51.7101427,66.5458082 52.3501012,65.751138 52.9941942,64.9897414 C53.4676095,64.8314099 53.7845539,65.7652127 54.1232041,66.079826 C54.5918033,66.8008459 55.1569021,67.6806679 54.8812581,68.5763239 C54.6130033,68.9081127 54.4366739,69.9062061 55.1541531,69.5707667 C56.0385054,69.1816895 56.763022,68.5279642 57.4964892,67.9175405 C58.138273,67.4692617 58.959795,67.4375937 59.6324332,67.044492 C59.9442095,66.9654956 60.5936025,66.3419451 60.7289614,66.6876766 C60.3604025,67.6745762 59.7432494,68.5584667 59.0834983,69.3730833 C58.0149656,70.5936887 56.5694071,71.5117102 54.9521373,71.7706185 C53.9964,71.9455889 53.0155481,71.982513 52.0476934,71.9086099 L52.0477593,71.9084647 L52.0477593,71.9084647 Z M55.5356432,68.4425726 C55.6010003,67.8470593 55.4653467,67.2388568 55.1611245,66.6975531 C54.6942407,65.7462361 54.0348635,64.9016448 53.3917602,64.0671257 C52.785383,63.7119598 52.4489539,64.8716261 52.0457581,65.2044046 C51.4175432,66.1449676 50.6287448,67.1080502 50.5905672,68.2911598 C50.2371386,68.8412162 49.5779813,67.8422871 49.2938925,67.5135992 C48.7512913,66.7458469 48.3404203,65.8376996 48.4076929,64.8774539 C48.3434178,63.3302058 48.6401672,61.7895992 49.2038805,60.3513419 C49.6293759,59.1236332 50.3200693,57.9309353 50.2498938,56.5896614 C50.2991904,55.5801324 50.0943135,54.4656589 49.2764971,53.7868191 C48.4984307,53.1763734 49.7804589,53.0462705 50.1876573,53.3628191 C50.8844863,53.4095668 51.2614021,54.560949 51.8979739,54.2759145 C52.1515822,53.6745295 52.2019871,52.9571162 52.7247519,52.4880992 C53.2379942,51.7852664 53.7744158,52.7863506 53.9500195,53.2551697 C54.3121568,53.6669203 53.9295452,54.6860817 54.5177793,54.7128237 C55.2228772,54.2186041 55.7256295,53.3883295 56.6271793,53.2075577 C56.9927473,52.9989994 57.6175535,53.1797074 57.1354954,53.6000656 C56.4682892,54.2255755 55.8981983,55.0075784 55.7767162,55.9380033 C55.5726596,57.1051909 55.8644895,58.2889162 56.3732191,59.3401195 C57.3511461,61.4051622 58.1073527,63.7375801 57.6126934,66.035273 C57.3832759,67.0565676 56.6894378,67.9365436 55.8464739,68.5293519 C55.7398801,68.5937304 55.5715996,68.5891517 55.5356432,68.442544 L55.5356432,68.4425726 L55.5356432,68.4425726 Z M54.4800415,52.9186307 C54.1597983,52.3415905 53.771073,51.7727971 53.2324523,51.3804212 C52.7087859,51.3793216 52.3855959,52.0398423 52.0299461,52.3859037 C51.7805602,52.8499286 51.4775585,53.6259278 50.8632203,53.0191768 C49.8858651,52.4489759 49.7129224,51.1994075 49.719212,50.1694921 C49.657743,48.5001461 50.3299216,46.9424299 50.9270622,45.4221436 C51.3069689,44.4704087 51.2133722,43.399105 50.9816149,42.423795 C50.6898729,41.3040216 49.7910501,40.5274286 49.0991032,39.6539402 C49.1461655,39.3160378 50.0304518,39.5006889 50.3632522,39.5649222 C51.1019095,39.7521508 51.5434149,40.4060828 52.0940651,40.8681285 C52.4859132,40.7495118 52.3259676,39.957782 52.5083667,39.5853525 C52.5218476,39.0614882 53.2193584,38.3707949 53.5069439,39.1208658 C53.9377173,39.5975139 53.4931771,40.5424754 54.049831,40.8393853 C54.5801169,40.6430368 54.8417302,40.0634521 55.3399962,39.801377 C55.8303012,39.4670152 56.5226219,39.4297173 57.0505327,39.6921948 C57.2363274,40.1787832 56.4699078,40.5839143 56.2479236,41.0066608 C55.3568198,42.1074774 55.043746,43.6258724 55.425412,44.9897977 C55.7279958,46.059672 56.2640215,47.0582932 56.4490377,48.1640799 C56.6717256,49.4071608 56.664343,50.7126981 56.3425912,51.9376359 C56.1502628,52.6813073 55.5064448,53.1780118 54.8414817,53.4869073 C54.6774192,53.3342233 54.5908863,53.1099255 54.4800261,52.9188616 L54.4800415,52.9186307 L54.4800415,52.9186307 Z M51.1548963,39.1210373 C50.4159751,38.5800415 50.1718672,38.0632365 50.1718672,37.0406224 C50.1718672,36.5172199 50.2686307,36.233527 50.6139004,35.7585062 C51.1219087,35.0547718 51.0295436,34.8326556 50.3104149,35.0393776 C49.1536515,35.3714523 48.6016598,35.0679668 48.5620747,34.0827386 C48.5444813,33.6011203 48.6456432,33.3965975 49.2943983,32.6180913 C49.8134025,31.993527 50.0025311,31.6658506 49.8991701,31.5624896 C49.7980083,31.4613278 49.1844398,31.993527 47.9243154,33.2756432 C46.9192946,34.2982573 45.7889212,35.3428631 45.4128631,35.5979668 C43.2488797,37.0582158 41.1816598,37.2847303 40.2382158,36.1609544 C39.7543983,35.586971 39.7807884,35.2636929 40.3393776,34.9162241 C40.5966805,34.7578838 41.029917,34.3928216 41.3048133,34.1047303 C41.9535685,33.4295851 43.886639,32.0353112 44.8454772,31.5514938 C45.6239834,31.1578423 45.8087137,30.8917427 45.3029046,30.8917427 C44.6475519,30.8917427 42.5451452,32.2596266 40.9507469,33.7242739 C40.4823237,34.1575104 39.8071784,34.6391286 39.453112,34.7952697 C38.6570124,35.1471369 37.0934025,35.276888 36.3984647,35.0481743 C35.9080498,34.8854357 35.0129876,34.0409544 35.0129876,33.739668 C35.0129876,33.6604979 35.2175104,33.4845643 35.4660166,33.3504149 C35.7145228,33.2184647 36.1609544,32.8951867 36.4556432,32.6378838 C37.7311618,31.5185062 40.1480498,30.3661411 42.0657261,29.9636929 C42.6748963,29.8361411 42.4505809,29.5282573 41.7710373,29.5590456 C40.4537344,29.6162241 37.8389212,30.8411618 36.2775104,32.1298755 C34.4478008,33.6385062 31.6878423,33.4955602 30.7993776,31.8461826 C30.6454357,31.5624896 30.5552697,31.29639 30.5992531,31.2546058 C30.6410373,31.2128216 31.1842324,31.050083 31.8065975,30.8917427 C32.4795436,30.7224066 33.8122407,30.1704149 35.0855602,29.5348548 C37.0890041,28.5364315 37.6827801,28.323112 39.0616598,28.1009959 C39.6818257,28.0020332 39.7148133,27.6985477 39.1122407,27.6281743 C38.3359336,27.5358091 37.1461826,27.9250622 35.0437759,28.9586722 C32.343195,30.286971 31.5866805,30.5156846 30.1638174,30.4321162 C28.8663071,30.3529461 28.1339834,30.0208714 27.0805809,29.0246473 C26.3922407,28.3714938 25.4158091,26.7133195 25.6071369,26.5219917 C25.6533195,26.4758091 25.97,26.5219917 26.3108714,26.6209544 C26.6891286,26.733112 27.7733195,26.8078838 29.0796266,26.810083 C30.9071369,26.8144813 31.3931535,26.7660996 32.3673859,26.4846058 C33.996971,26.0139834 36.1631535,24.9121992 37.6453942,23.8060166 C40.4801245,21.6860166 42.7914523,20.8349378 45.7383402,20.8217427 C48.4587137,20.8107469 50.1894606,21.4397095 51.7222822,22.9945228 C52.2412863,23.5201245 52.6833195,23.8609959 52.7558921,23.7884232 C52.8240664,23.720249 52.8988382,22.8009959 52.9208299,21.7453942 C52.9208299,21.7453942 53.7213278,21.6684232 53.8906639,21.8927386 C53.8906639,23.6058921 53.9104564,23.7400415 54.1589627,23.7400415 C54.3217012,23.7400415 54.4954357,23.5729046 54.603195,23.3134025 C54.8363071,22.7526141 55.6983817,21.9851037 56.619834,21.5188797 C58.610083,20.5094606 62.0539834,20.4786722 64.8205394,21.4441079 C65.9860996,21.8531535 67.2792116,22.583278 68.5107469,23.5333195 C69.7466805,24.483361 72.273527,25.7544813 73.7667635,26.1789212 C75.2775934,26.6077593 77.9407884,26.7155187 79.306473,26.4054357 C79.8694606,26.2778838 80.3972614,26.1723237 80.4808299,26.1723237 C80.9844398,26.1723237 80.1267635,27.8502905 79.1195436,28.8333195 C77.2788382,30.6322407 74.8839419,30.623444 71.5148133,28.8069295 C69.4146058,27.676556 66.9031535,27.0585892 66.9031535,27.6743568 C66.9031535,27.8019087 67.0351037,27.8876763 67.2308299,27.8876763 C67.9609544,27.8876763 69.3706224,28.3780913 71.3366805,29.3105394 C73.463278,30.3221577 74.6574274,30.7487967 75.3655602,30.7487967 C75.880166,30.7487967 75.8955602,31.0676763 75.4161411,31.7714108 C74.9081328,32.5213278 74.0460581,32.8929876 72.8277178,32.8907884 C71.6643568,32.88639 71.0178008,32.6312863 69.9775934,31.7670124 C68.2380498,30.3199585 63.9034855,28.7057676 64.0706224,29.5678423 C64.10361,29.7393776 64.3125311,29.8449378 64.7589627,29.913112 C66.2675934,30.1440249 68.0379253,30.9885062 69.8500415,32.3453942 C70.4086307,32.7654357 70.9892116,33.1788797 71.136556,33.2668465 C71.3850622,33.4119917 71.3894606,33.4559751 71.1937344,33.8232365 C70.8682573,34.4302075 70.0479668,34.9008299 69.1595021,34.993195 C68.0093361,35.1119502 67.0087137,34.7688797 65.9729046,33.9024066 C63.7869295,32.0726971 61.7263071,30.7487967 61.066556,30.7487967 C60.5277593,30.7487967 60.769668,31.0456846 61.7197095,31.5492946 C62.9688382,32.2112448 64.2531535,33.1063071 65.1987967,33.9749793 C65.6452282,34.3884232 66.1488382,34.7974689 66.3159751,34.8876349 C66.7118257,35.0987552 66.6964315,35.4088382 66.2609959,35.9784232 C65.8167635,36.5590041 65.0822407,36.8141079 64.13,36.7129461 C62.229917,36.5128216 60.7476763,35.5957676 58.4187552,33.1788797 C57.5082988,32.2354357 56.696805,31.463527 56.6132365,31.463527 C56.3031535,31.463527 56.4856846,31.8835685 57.0860581,32.5565145 C57.8293776,33.3878008 57.9723237,33.8562241 57.6908299,34.5313693 C57.4423237,35.1295436 57.0288797,35.2680913 56.18,35.0393776 C55.3113278,34.8040664 55.1749793,35.0173859 55.7445643,35.7255187 C56.593444,36.7833195 56.4680913,38.0786307 55.4278838,38.9692946 C55.1046058,39.2441909 54.7659336,39.4707054 54.6735685,39.4707054 C54.5834025,39.4707054 54.3546888,39.2353942 54.163361,38.9473029 C53.4948133,37.9312863 52.9076349,37.9378838 52.2566805,38.9648963 C52.030166,39.323361 51.8388382,39.6136515 51.8322407,39.6114523 C51.823444,39.6092531 51.5177593,39.3893361 51.1548963,39.1210373 L51.1548963,39.1210373 L51.1548963,39.1210373 Z" id="wing"></path>
                        <path d="M52.689917,1.23677886 L52.689917,11.9634855 L54.1061826,11.970083 L54.0926947,6.83846943 L54.0926947,6.83846943 L58.8937759,9.18373444 L56.1865975,5.56390041 L59.8834025,4.3653527 L54.0783314,1.37379582 L54.0781034,1.28704951 C54.5675523,1.18029391 54.886888,0.945747827 54.886888,0.681742739 C54.886888,0.321078838 54.2909129,0.017593361 53.4794191,0.017593361 C52.6679253,0.017593361 52.0675519,0.321078838 52.0675519,0.681742739 C52.0675519,0.909924495 52.3078653,1.11609953 52.689917,1.23677886 L52.689917,1.23677886 L52.689917,1.23677886 Z M47.4778838,12.1504149 C47.2535685,15.033527 46.5212448,17.0457676 45.503029,19.2647303 L47.9441079,17.0017842 L49.6418672,19.0184232 L51.4803734,16.9665975 L53.3562656,18.6995436 L55.1595851,16.8962241 L57.033278,19.0887967 L58.6606639,17.2854772 L61.4184232,19.2647303 C60.4178008,17.0457676 59.063112,15.1654772 59.2324481,12.0426556 C56.5604564,14.0285062 50.2114523,14.386971 47.4778838,12.1504149 L47.4778838,12.1504149 L47.4778838,12.1504149 Z M52.3292531,10.6791701 C51.3484232,10.6967635 50.3148133,10.7099585 49.3845643,10.8924896 C48.7402075,11.0200415 48.1552282,11.2289627 47.6670124,11.5742324 C47.7461826,13.4501245 56.68361,14.233029 59.0807054,11.6094191 C58.5770954,11.2421577 57.9613278,11.0244398 57.2839834,10.8924896 C56.3889212,10.7187552 55.3992946,10.7011618 54.460249,10.6857676 C54.460249,11.2003734 54.4646473,11.7171784 54.4646473,12.2339834 L52.3292531,12.2273859 L52.3292531,10.6791701 L52.3292531,10.6791701 Z M54.4668465,18.4796266 L53.3386722,19.3724896 L52.3270539,18.6093776 L52.3270539,24.7098755 L54.4668465,24.7362656 L54.4668465,18.4796266 L54.4668465,18.4796266 Z" id="flag"></path>
                    </g>
                    <g id="text" transform="translate(25.070539, 55.858921)" fill="#F7E017">
                        <path d="M25.9612033,35.3670539 C26.8386722,35.0767635 27.3378838,34.5445643 27.6963485,33.519751 C27.8744813,33.0095436 27.9954357,32.4795436 27.9646473,32.3409959 C27.8898755,32.0133195 27.5116183,32.0309129 27.0937759,32.3783817 C26.8078838,32.6180913 26.7726971,32.7390456 26.8540664,33.2272614 C27.0629876,34.4587967 26.6253527,34.7644813 24.2942324,35.0151867 C24.0633195,35.0393776 23.3947718,34.9997925 22.8053942,34.9272199 C21.6970124,34.7886722 21.3011618,34.8986307 21.70361,35.2329046 C21.8245643,35.3340664 22.1324481,35.4704149 22.3875519,35.5341909 C23.009917,35.6947303 25.2948548,35.586971 25.9612033,35.3670539 L25.9612033,35.3670539 L25.9612033,35.3670539 Z" id="Shape"></path>
                        <path d="M30.7927801,35.1625311 C30.9247303,35.0415768 31.3777593,34.8326556 31.8,34.6963071 C32.3629876,34.5159751 32.653278,34.3224481 32.8907884,33.9683817 C33.5747303,32.950166 33.4471784,32.0726971 32.4421577,30.8895436 C31.8967635,30.2473859 31.6548548,30.2649793 31.2194191,30.9775104 C30.843361,31.593278 30.8521577,31.6328631 31.3931535,31.77361 C31.6768465,31.8461826 31.9495436,32.0551037 32.0990871,32.3124066 C32.6884647,33.3328216 32.5147303,33.9639834 31.6416598,33.9705809 C30.8499585,33.9771784 30.6322407,34.0893361 30.4189212,34.6017427 C30.3067635,34.8678423 30.2165975,35.1515353 30.2165975,35.2329046 C30.2165975,35.4484232 30.5156846,35.4110373 30.7927801,35.1625311 L30.7927801,35.1625311 L30.7927801,35.1625311 Z" id="Shape"></path>
                        <path d="M29.2071784,34.010166 C29.356722,33.6055187 29.4095021,32.8775934 29.3919087,31.3931535 C29.3809129,30.2627801 29.3369295,29.3039419 29.2929461,29.2599585 C29.1609959,29.1280083 28.5100415,29.5480498 28.4242739,29.8185477 C28.3802905,29.9592946 28.4528631,30.2847718 28.5848133,30.5398755 C28.7871369,30.933527 28.813527,31.3007884 28.7519502,32.8424066 C28.6727801,34.7908714 28.800332,35.1185477 29.2071784,34.010166 L29.2071784,34.010166 L29.2071784,34.010166 Z" id="Shape"></path>
                        <path d="M25.4861826,33.0821162 C25.5653527,32.7192531 25.6665145,31.9759336 25.7126971,31.4327386 C25.7588797,30.8895436 25.8710373,30.2034025 25.9590041,29.9065145 C26.1833195,29.1456017 25.956805,28.9454772 25.3564315,29.3721162 L24.91,29.6909959 L25.0023651,30.7839834 C25.0881328,31.7692116 24.9319917,33.6055187 24.7054772,34.3180498 C24.6439004,34.5071784 24.7318672,34.4587967 24.9803734,34.1685062 C25.1804979,33.9353942 25.4092116,33.4449793 25.4861826,33.0821162 L25.4861826,33.0821162 L25.4861826,33.0821162 Z" id="Shape"></path>
                        <path d="M22.1852282,33.6121162 C22.9882332,32.9403577 22.895956,31.7933145 23.0736929,30.8587552 C23.0553299,30.2375336 23.4703793,29.4927187 23.2025379,28.9492598 C22.4522031,29.0865056 21.9897616,29.7971278 22.3738027,30.5050846 C22.4057918,31.3271784 22.3766396,32.2221087 21.9540031,32.9490224 C21.6087773,33.424439 20.515328,33.3060357 20.565645,32.63221 C20.8400354,31.6191622 19.6262035,32.1121502 19.1523703,32.377744 C18.7860545,32.6327817 18.0126504,32.6515627 18.2814769,32.0133635 C18.1040853,31.1630763 17.0104006,31.6949456 16.4162288,31.6911631 C15.8550006,31.6809149 16.3698351,30.5540162 15.5643583,30.7518975 C14.0676471,30.6338571 12.4153666,30.7651365 11.1198354,29.8609037 C10.3614296,29.4963473 10.4739392,28.5842415 10.8688002,27.9940722 C11.3403462,27.1880544 11.4747815,26.1799768 12.2232251,25.5545328 C12.9641255,24.8439809 11.5244388,25.1440357 11.2002371,25.3834637 C10.4784915,25.7784787 11.148992,26.7959027 10.5582554,27.3602098 C10.2130956,27.945431 9.75859311,28.753626 8.95950266,28.642238 C7.80718149,28.4243442 7.14287817,27.3524027 6.31675992,26.6340218 C5.60906697,26.4927867 6.00696282,27.7823845 6.37236373,28.0534322 C7.09540689,28.5948239 7.94017411,28.989355 8.81168324,29.2231048 C9.67901394,29.0843988 9.70711934,30.2201206 10.4488334,30.3982754 C11.809526,31.0322961 13.3260077,31.2222384 14.8104476,31.2996272 C15.3934695,31.3482443 15.0655513,32.3865671 15.832138,32.1814065 C16.2605363,32.2924492 17.2281272,32.0219952 17.2765969,32.5196608 C16.627248,33.2906679 17.8998637,33.2734484 18.370838,33.1354065 C18.9738505,33.0432502 19.7444617,32.8128322 19.9038355,33.6395442 C20.4072256,34.170204 21.3315588,34.0919135 21.9445774,33.7882499 C22.0307013,33.7383485 22.1116528,33.6794284 22.1851007,33.6122217 L22.1852282,33.6121162 L22.1852282,33.6121162 Z" id="Shape"></path>
                        <path d="M9.04298755,26.9552282 C9.28709544,26.6451452 9.65215768,26.0183817 9.85448133,25.5609544 C10.0546058,25.1013278 10.3558921,24.5801245 10.5208299,24.4019917 C10.9078838,23.9841494 10.6923651,23.7268465 10.0678008,23.8653942 C9.73792531,23.9379668 9.60377593,24.0589212 9.54879668,24.3448133 C9.36186722,25.2772614 9.02319502,26.2317012 8.72190871,26.6759336 C8.17651452,27.4808299 8.1633195,27.5138174 8.38763485,27.5138174 C8.50419087,27.5138174 8.79887967,27.263112 9.04298755,26.9552282 L9.04298755,26.9552282 L9.04298755,26.9552282 Z" id="Shape"></path>
                        <path d="M0.804896266,21.7915768 C0.189128631,21.7915768 0.162738589,22.1808299 0.763112033,22.389751 C1.05340249,22.4909129 1.29970954,22.7350207 1.49763485,23.1330705 C2.08261411,24.2964315 2.42568465,24.5031535 3.97829876,24.6373029 L4.97452282,24.7274689 L5.02290456,25.3322407 C5.04709544,25.6665145 5.12626556,25.94361 5.20323651,25.94361 C5.28020747,25.94361 5.66506224,25.776473 6.05431535,25.5785477 C6.78443983,25.2090871 7.47717842,24.3470124 7.47717842,23.8126141 C7.47717842,23.4629461 6.89439834,23.0846888 6.36439834,23.0846888 C6.12908714,23.0846888 5.68045643,23.2738174 5.32639004,23.5311203 C4.2180083,24.3338174 3.0326556,24.1710788 2.38390041,23.126473 C1.85170124,22.2643983 1.2953112,21.7915768 0.804896266,21.7915768 L0.804896266,21.7915768 L0.804896266,21.7915768 Z M6.18406639,23.9357676 C6.47875519,23.9357676 6.5513278,24.1534855 6.39078838,24.5691286 C6.28082988,24.8550207 5.92236515,24.8638174 5.81460581,24.5823237 C5.68705394,24.250249 5.86518672,23.9357676 6.18406639,23.9357676 L6.18406639,23.9357676 L6.18406639,23.9357676 Z" id="Shape"></path>
                        <path d="M47.906722,22.583278 C47.5042739,22.5986722 47.3855187,22.686639 47.1304149,23.0648963 C46.7125726,23.6850622 46.6707884,25.0287552 47.0556432,25.5037759 C47.2953527,25.7984647 47.3305394,25.8050622 47.8385477,25.5939419 C48.5466805,25.2970539 48.6654357,25.3080498 48.6632365,25.6885062 C48.6588382,26.6605394 47.2645643,28.5342324 45.8043154,29.5304564 C45.4106639,29.7987552 45.0587967,30.0978423 45.0214108,30.196805 C44.9158506,30.4739004 45.4568465,30.4123237 46.1209959,30.0736515 C47.0270539,29.6118257 48.216805,28.3978838 48.7050207,27.4412448 C49.0920747,26.6781328 49.1470539,26.4186307 49.1932365,25.0837344 C49.2350207,23.8543983 49.2020332,23.4937344 48.993112,23.0846888 C48.76,22.6250622 48.6852282,22.583278 48.100249,22.583278 C48.0298755,22.583278 47.9660996,22.5810788 47.906722,22.583278 L47.906722,22.583278 L47.906722,22.583278 Z M47.9551037,23.4409544 C48.2585892,23.4409544 48.3113693,23.5091286 48.346556,23.9445643 C48.3773444,24.3052282 48.3135685,24.5251452 48.113444,24.7054772 C47.8407469,24.9517842 47.8187552,24.9495851 47.5768465,24.5823237 C47.2381743,24.0633195 47.4470954,23.4409544 47.9551037,23.4409544 L47.9551037,23.4409544 L47.9551037,23.4409544 Z" id="Shape"></path>
                        <path d="M41.2784232,32.8270124 C42.5649378,32.1936515 43.3236515,31.4811203 43.8118672,30.4497095 C44.0427801,29.9592946 44.2319087,29.4974689 44.2319087,29.4182988 C44.2319087,29.240166 43.5985477,28.9454772 43.2180913,28.9454772 C42.839834,28.9454772 42.7628631,28.6837759 42.9256017,27.960249 C43.0839419,27.2543154 42.8926141,26.370249 42.5825311,26.370249 C42.4703734,26.370249 42.2724481,26.5351867 42.1404979,26.7353112 C41.9381743,27.0453942 41.9271784,27.1773444 42.076722,27.6281743 C42.296639,28.296722 42.1229046,28.7959336 41.5247303,29.2225726 C41.2410373,29.4248963 41.0848963,29.6580083 41.0848963,29.8845228 C41.0848963,30.0758506 41.1090871,30.2319917 41.1376763,30.2319917 C41.1684647,30.2319917 41.4807469,30.0692531 41.8326141,29.873527 L42.4747718,29.5150622 L42.853029,29.8119502 C43.059751,29.9746888 43.2312863,30.2407884 43.2312863,30.403527 C43.2312863,31.1864315 40.9991286,32.5015353 39.4663071,32.6246888 C38.6504149,32.6906639 38.5118672,32.6620747 38.2281743,32.3805809 C37.9972614,32.149668 37.9312863,31.9561411 37.9884647,31.683444 C38.0324481,31.4745228 38.1116183,31.0940664 38.1643983,30.8389627 C38.3051452,30.1572199 38.0126556,30.2495851 37.5068465,31.0456846 C37.0912033,31.7032365 36.9680498,32.4047718 37.2011618,32.7742324 C37.3924896,33.0755187 38.66361,33.36361 39.5630705,33.3086307 C40.1282573,33.2756432 40.6868465,33.1173029 41.2784232,32.8270124 L41.2784232,32.8270124 L41.2784232,32.8270124 Z" id="Shape"></path>
                        <path d="M49.8639834,28.0372199 C50.673278,27.2301245 51.0163485,26.2470954 51.0207469,24.7274689 L51.0229461,23.5860996 L51.6914938,23.2694191 C52.560166,22.8559751 53.3826556,22.0334855 53.3826556,21.5760581 C53.3826556,21.1054357 53.1737344,21.1296266 52.7954772,21.6420332 C52.5205809,22.0136929 52.1533195,22.2380083 50.8096266,22.8559751 C50.4709544,23.0121162 50.4489627,23.0956846 50.3719917,24.5163485 C50.2818257,26.1547303 50.0597095,26.7682988 49.1448548,27.8876763 C48.5840664,28.5694191 48.5642739,28.6595851 48.953527,28.6595851 C49.1140664,28.6595851 49.523112,28.3802905 49.8639834,28.0372199 L49.8639834,28.0372199 L49.8639834,28.0372199 Z" id="Shape"></path>
                        <path d="M41.0497095,27.1223651 C41.1266805,26.8870539 40.680249,26.719917 40.486722,26.9112448 C40.4053527,26.9926141 40.383361,27.133361 40.4383402,27.223527 C40.5658921,27.4280498 40.9705394,27.3598755 41.0497095,27.1223651 L41.0497095,27.1223651 L41.0497095,27.1223651 Z" id="Shape"></path>
                        <path d="M53.2045228,23.9753527 C53.2836929,23.7400415 52.8350622,23.5729046 52.6437344,23.7642324 C52.560166,23.8478008 52.5381743,23.9885477 52.5931535,24.0787137 C52.7207054,24.2832365 53.1253527,24.2150622 53.2045228,23.9753527 L53.2045228,23.9753527 L53.2045228,23.9753527 Z" id="Shape"></path>
                        <path d="M38.5756432,15.4557676 C38.2612498,15.6054673 38.0981373,15.944951 37.8796058,16.2041012 C37.72233,16.3110293 37.848371,16.4109332 37.9389306,16.5117212 C38.4936713,17.1092577 38.7283887,17.9162432 38.9919593,18.6688432 C39.2508016,19.5573519 39.5767186,20.5113959 39.3060667,21.4371585 C39.1995763,21.7917307 38.9206622,22.1587722 38.5041173,22.0410506 C37.8376808,21.9994511 37.1819323,21.8225609 36.5136045,21.829596 C35.918729,21.8605933 35.4589705,22.401908 34.850724,22.3429043 C34.4621306,22.3684983 34.4785144,21.5472446 34.1174987,21.7668537 C33.9387501,22.1950761 34.0267741,22.6728238 34.0054905,23.1256549 C34.0728467,23.190548 34.2616939,23.1339458 34.3749291,23.1529686 L35.5723993,23.1529686 C35.6570497,23.5664566 35.6464607,24.0405097 35.9435092,24.3693736 C36.3591304,24.5171886 36.8266739,24.38954 37.2215789,24.2279472 C37.6450511,24.0309697 37.7017457,23.5217497 37.8213806,23.1249974 C37.9486202,22.6987102 38.5068619,22.8104721 38.8362756,22.6430932 C39.6422275,22.407848 40.1704241,21.5701401 40.12323,20.7459132 C40.0711404,19.487548 39.5910748,18.3037347 39.2268702,17.1126642 C39.0435782,16.5879422 38.9166993,16.0405688 38.7041275,15.5282721 C38.6792087,15.4842139 38.6280956,15.4471359 38.5756256,15.4559128 L38.5756432,15.4557676 L38.5756432,15.4557676 Z M36.5809959,22.6514523 C37.0288349,22.6222561 37.2234174,23.1725896 37.1285672,23.5375639 C36.9609575,24.0335867 36.3511826,23.7155383 36.2278311,23.3581072 C36.0012946,23.0388537 36.1412872,22.6094217 36.5809739,22.6514479 L36.5809959,22.6514523 L36.5809959,22.6514523 Z" id="Shape"></path>
                        <path d="M19.9992531,18.5214108 C19.7991286,18.5170124 19.5748133,18.5917842 19.3526971,18.7479253 C18.1849378,19.5660166 17.8858506,20.5336515 18.679751,20.9119087 C19.2625311,21.1912033 19.1151867,21.5188797 18.1981328,21.9785062 C16.8852282,22.6338589 15.7262656,22.5524896 13.5248963,21.6420332 C12.9839004,21.4177178 12.8431535,21.5034855 12.9685062,21.9982988 C13.0894606,22.4843154 13.5336929,22.7504149 14.6376763,23.0011203 C15.8252282,23.2738174 17.2612863,23.1858506 18.1849378,22.7878008 C18.6357676,22.5942739 19.170166,22.1874274 19.6209959,21.6970124 L20.3357261,20.9119087 L21.1670124,21.0152697 C22.1918257,21.1406224 22.2116183,21.1516183 22.2116183,21.6420332 C22.2116183,22.0312863 22.23361,22.040083 23.1748548,22.1280498 C23.7048548,22.1786307 24.4019917,22.2248133 24.7274689,22.2248133 C25.143112,22.2270124 25.3784232,22.2995851 25.516971,22.493112 C25.7017012,22.7504149 25.8116598,22.76361 27.3598755,22.6250622 C28.8069295,22.493112 29.0906224,22.5041079 29.7437759,22.7262241 C30.2078008,22.8845643 30.7180083,22.9483402 31.1050622,22.906556 C32.213444,22.7812033 33.7418672,21.8751452 33.9639834,21.2087967 C33.9903734,21.1274274 34.3928216,20.9844813 34.8568465,20.8921162 C35.9762241,20.6678008 36.0246058,20.4236929 34.98,20.2939419 C34.526971,20.2367635 33.8474274,20.0718257 33.4691701,19.9222822 C33.0887137,19.7727386 32.5697095,19.6473859 32.3146058,19.6473859 C31.7516183,19.6473859 31.2216183,19.9992531 31.2216183,20.3621162 C31.2216183,20.5996266 31.3051867,20.6238174 31.9715353,20.5556432 C32.5982988,20.4918672 32.7808299,20.5270539 33.1107054,20.7887552 C33.3284232,20.9602905 33.4735685,21.1626141 33.4273859,21.2351867 C33.2800415,21.4748963 31.9715353,22.0708714 31.3931535,22.1632365 C31.0060996,22.2248133 30.6938174,22.183029 30.390332,22.026888 C29.8823237,21.7629876 29.1346058,21.7234025 28.9938589,21.949917 C28.9344813,22.0488797 28.7739419,21.9851037 28.5540249,21.7783817 L28.2109544,21.4551037 L27.4346473,21.7783817 C26.6451452,22.1060581 26.3548548,22.0928631 26.3548548,21.716805 C26.3548548,21.5452697 26.1239419,21.5254772 24.9605809,21.600249 C23.6784647,21.6838174 23.5443154,21.6618257 23.3046058,21.393527 C23.0824896,21.1472199 23.0780913,21.0614523 23.2364315,20.8085477 C23.3815768,20.5754357 23.3815768,20.4742739 23.243029,20.3357261 C23.1044813,20.1971784 22.9241494,20.1993776 22.4183402,20.3357261 C21.1428216,20.6765975 20.7821577,20.4852697 20.7821577,19.4890456 C20.7821577,18.8908714 20.4390871,18.5280083 19.9992531,18.5214108 L19.9992531,18.5214108 L19.9992531,18.5214108 Z M19.6825726,19.4362656 C19.7507469,19.4362656 19.8079253,19.4780498 19.8958921,19.5660166 C20.0080498,19.6781743 20.0674274,19.8739004 20.0190456,19.9992531 C19.9046888,20.2961411 19.3636929,20.2851452 19.2493361,19.9860581 C19.1943568,19.8409129 19.2647303,19.6781743 19.4274689,19.5594191 C19.5418257,19.4758506 19.6143983,19.4340664 19.6825726,19.4362656 L19.6825726,19.4362656 L19.6825726,19.4362656 Z" id="Shape"></path>
                        <path d="M17.3954357,20.3643154 C18.1717427,19.8717012 18.1541494,19.9090871 18.2663071,18.5412033 C18.343278,17.5757676 18.330083,17.503195 18.0683817,17.503195 C17.6879253,17.503195 17.49,17.9210373 17.49,18.7171369 C17.49,19.2273444 17.4108299,19.4560581 17.1381328,19.726556 C16.4915768,20.373112 14.8861826,20.0784232 14.6838589,19.2757261 C14.6156846,19.0008299 14.7036515,18.7523237 15.0401245,18.2751037 C15.7416598,17.2788797 15.5833195,17.0347718 14.723444,17.7912863 C14.1318672,18.3080913 14.0263071,18.3234855 14.1384647,17.8770539 C14.2418257,17.4658091 14.0263071,17.3030705 13.5446888,17.4240249 C13.2983817,17.4856017 13.1642324,17.6395436 13.1048548,17.9386307 C13.0476763,18.2311203 12.913527,18.3938589 12.6804149,18.4510373 C12.2911618,18.55 11.6270124,18.1805394 11.6270124,17.8660581 C11.6270124,17.6329461 12.6210373,16.4190041 13.896556,15.0951037 C14.3781743,14.5936929 14.7718257,14.1274689 14.7718257,14.0570954 C14.7718257,13.986722 14.5145228,13.9295436 14.2000415,13.9295436 C13.7404149,13.9295436 13.6282573,13.9801245 13.6282573,14.193444 C13.6282573,14.3385892 12.9860996,15.1808714 12.1987967,16.0671369 C10.5582158,17.9144398 10.4218672,18.2992946 11.233361,18.7919087 C11.8865145,19.1921577 12.7243983,19.1613693 13.3819502,18.7149378 L13.9141494,18.3520747 L13.9141494,19.0096266 C13.9141494,19.8497095 14.0812863,20.1509959 14.7410373,20.5006639 C15.5701245,20.9382988 16.5729461,20.8855187 17.3954357,20.3643154 L17.3954357,20.3643154 L17.3954357,20.3643154 Z" id="Shape"></path>
                        <path d="M51.8256432,8.94842324 C51.2171768,9.31170415 51.6933235,10.07519 51.7854995,10.5821427 C51.5370153,11.2740017 50.6481327,11.4603593 50.0001472,11.5887909 C49.0823016,11.7408305 48.431963,12.5086378 48.0827788,13.3243979 C47.8935688,13.854156 47.4369705,14.675678 46.9393642,13.8690664 C46.5068534,13.4307058 45.7118095,13.0832589 45.2003045,13.5950058 C44.8117551,13.9649942 44.7132323,14.5091568 44.5683729,15.0030245 C44.3390655,14.6234037 44.2362103,14.058129 43.7502597,13.9380983 C42.9744804,14.0472388 43.2548526,15.0253461 43.619629,15.4286739 C43.9511759,15.8988124 44.2696597,16.5189784 43.9446443,17.0773697 C43.6580924,17.7484685 42.6670364,18.2011456 42.0849161,17.6270523 C41.5412373,17.3400606 41.9048129,16.3152693 41.3693061,16.2589485 C41.1045261,16.4502258 41.0827103,17.5225477 40.6589082,16.9412191 C40.3530916,16.4445145 40.5152628,15.7641573 40.1410696,15.3172859 C39.6989045,15.3721904 39.3433866,16.1335079 39.4904891,16.5424216 C40.0804165,17.3379934 40.322853,18.3360207 40.5529962,19.284127 C40.6963733,19.6637917 40.5320821,20.4335672 40.887248,20.5839685 C41.1334671,19.9728851 40.9046435,19.2797286 41.0984651,18.6628174 C41.6742519,18.5904625 42.3146722,18.8532458 42.9185203,18.7135677 C43.7824863,18.6014518 44.4501544,17.8723851 44.753156,17.0959681 C44.8447383,16.5122644 44.7357826,15.9199399 44.7195659,15.3329374 C45.4020563,15.4386823 46.1112227,15.4365205 46.767763,15.6581507 C47.0933281,16.1575602 46.6644592,16.8563685 46.5744273,17.4019826 C46.2316647,18.5130913 45.3612991,19.319527 44.5146846,20.0623187 C44.1605962,20.2718974 44.1130282,20.8272341 44.6359952,20.5281029 C45.7737359,20.0416025 46.6217359,19.0112254 47.1096218,17.8959162 C47.4656674,17.037822 47.1794322,16.0821727 47.4118757,15.2045718 C47.7553201,14.5457224 48.5821641,14.6845561 49.1939732,14.6866013 C49.8271143,14.6625006 50.3675164,13.9248088 50.1560442,13.3095029 C49.9545848,12.5954764 50.7100151,12.2515042 51.2261824,11.9962905 C51.9105421,11.6509768 52.4353081,10.9496834 52.3823081,10.1581581 C52.3541873,9.75346685 52.3741492,8.98560461 51.8256541,8.94861456 L51.8256432,8.94842324 L51.8256432,8.94842324 Z M49.3997386,13.0718672 C50.1328539,13.2666433 49.2670363,14.6667934 48.8774357,13.7797361 C48.7575193,13.4412838 49.0423756,13.0597058 49.3997386,13.0718672 L49.3997386,13.0718672 L49.3997386,13.0718672 Z M45.9976224,14.0746888 C46.9517324,14.0189662 46.6091237,15.4120481 45.803042,14.7794788 C45.3850678,14.5695878 45.5233516,14.0487166 45.9976224,14.0746888 L45.9976224,14.0746888 L45.9976224,14.0746888 Z" id="Shape"></path>
                        <path d="M11.4576763,19.4582573 C11.4840664,19.3197095 11.4136929,19.2207469 11.2883402,19.2207469 C11.0222407,19.2207469 10.8617012,19.4538589 10.9870539,19.6561826 C11.116805,19.8651037 11.4026971,19.7463485 11.4576763,19.4582573 L11.4576763,19.4582573 L11.4576763,19.4582573 Z" id="Shape"></path>
                        <path d="M22.6382573,18.2091286 C22.6382573,18.0046058 22.5612863,17.9276349 22.389751,17.9606224 C22.0158921,18.0309959 21.9741079,18.5060166 22.3413693,18.5060166 C22.5458921,18.5060166 22.6382573,18.4136515 22.6382573,18.2091286 L22.6382573,18.2091286 L22.6382573,18.2091286 Z" id="Shape"></path>
                        <path d="M8.80327801,11.4972614 C8.35706639,11.4056286 8.07638631,11.7832415 7.92360996,12.1432676 C7.58990788,12.704122 7.18237967,13.2777535 6.58363361,13.5747295 C6.15308008,13.6944127 5.68335934,13.5306449 5.31209544,13.3085859 C4.86902863,13.0880311 4.96975062,12.5551722 4.77985228,12.1868992 C4.4594332,11.9352481 3.89123361,12.2951203 3.90383485,12.6864187 C3.86839523,13.2111846 4.35934896,13.5142083 4.7668332,13.7171477 C5.11313651,13.9292467 5.61520705,14.0472212 5.75362282,14.4764992 C5.74401245,14.8412755 5.89074108,15.258766 6.33497344,15.1179091 C6.83191992,15.1097282 6.96061535,15.7150938 6.75998506,16.0783087 C6.55561178,16.4876402 6.41770622,16.9671253 6.51545934,17.4231892 C6.75296971,17.6231685 6.9954722,17.0866942 7.16755726,16.933478 C7.28441676,16.7776646 7.40128506,16.6218556 7.51812697,16.4660444 C8.39744315,16.5137202 9.27590166,16.6258647 10.157351,16.5946079 C10.7842245,16.5832602 11.318029,16.1962502 11.7166946,15.7424295 C12.2804079,15.1530079 12.7435531,14.4604452 13.3874041,13.9518651 C13.8456892,13.8400176 13.5994899,12.9768411 13.1207768,13.226117 C12.6895635,13.387866 12.5538307,13.8751581 12.2550075,14.1856589 C11.7459876,14.8020423 11.2266315,15.4275523 10.5849357,15.910556 C10.117722,16.1043469 9.57980498,16.0197734 9.09979212,15.9105076 C8.89953129,15.7354141 9.49755602,15.5927276 9.58097054,15.398101 C9.85630664,15.1230508 10.1832133,14.8619433 10.3427411,14.5005317 C10.1901231,14.1674014 9.72330083,14.1404616 9.39432697,14.1337541 C8.58380083,14.2310652 7.96471245,14.9114466 7.14611535,14.9755305 C6.52478382,14.9973022 6.8481278,14.3244222 7.1282361,14.0948508 C7.67618133,13.4441383 8.26837386,12.8312516 8.84046598,12.2019371 C9.00279992,12.0065518 9.5900751,11.8210408 9.21445685,11.5465844 C9.08311581,11.4992956 8.94107801,11.4993506 8.80334398,11.4972702 L8.80327801,11.4972614 L8.80327801,11.4972614 Z M9.20187759,14.7891992 C9.61061535,15.0191004 8.9411,15.3954444 8.65910041,15.3440278 C8.28913402,15.4549012 8.28249253,15.0775763 8.61109253,15.0024307 C8.79584481,14.9063028 8.99097718,14.8060096 9.20187759,14.789197 L9.20187759,14.7891992 L9.20187759,14.7891992 Z M7.94421618,15.648239 C8.17686639,15.6437967 8.66440041,15.8673269 8.20659917,16.0104203 C7.88785145,16.2574751 7.52778133,15.7589672 7.94421618,15.648239 L7.94421618,15.648239 L7.94421618,15.648239 Z" id="Shape"></path>
                        <path id="Shape"></path>
                        <path d="M42.4879668,14.0351037 C42.5451452,13.7382158 42.1317012,13.5402905 41.9139834,13.7580083 C41.6962656,13.9757261 41.89639,14.3891701 42.1910788,14.3319917 C42.3274274,14.3056017 42.4615768,14.1714523 42.4879668,14.0351037 L42.4879668,14.0351037 L42.4879668,14.0351037 Z" id="Shape"></path>
                        <path d="M4.13883817,11.0156432 C4.52589212,10.6835685 4.53029046,10.6615768 4.36315353,9.93145228 C4.12564315,8.90883817 4.14103734,8.79887967 4.53029046,8.70211618 C5.02290456,8.57676349 6.27423237,9.24751037 6.5513278,9.78410788 C6.76684647,10.199751 6.76024896,10.2283402 6.39518672,10.5670124 C6.00153527,10.9298755 6.00373444,11.3543154 6.39738589,11.3543154 C6.72286307,11.3543154 7.62232365,10.5032365 7.62232365,10.1975519 C7.62232365,9.77311203 6.62390041,8.77029046 5.83439834,8.40302905 C5.34618257,8.17431535 4.8579668,8.06875519 4.29278008,8.06655602 C3.28116183,8.06655602 3.14481328,8.28427386 3.41751037,9.46082988 C3.73858921,10.8397095 3.30315353,11.026639 2.19257261,9.98643154 C1.36788382,9.21452282 1.04240664,8.41182573 1.04680498,7.1473029 C1.04900415,5.79041494 1.5680083,5.11966805 2.7379668,4.9613278 C3.51427386,4.8579668 3.49448133,4.67543568 2.69618257,4.5566805 C1.53062241,4.38074689 0.545394191,5.15925311 0.17153527,6.54912863 C-0.244107884,8.09074689 0.70813278,9.96883817 2.3926971,10.936473 C3.27456432,11.4422822 3.62643154,11.4576763 4.13883817,11.0156432 L4.13883817,11.0156432 L4.13883817,11.0156432 Z" id="Shape"></path>
                        <path d="M50.0663071,9.32448133 C50.1608714,9.22991701 50.2378423,9.01659751 50.2378423,8.85165975 C50.2378423,8.68672199 50.3983817,8.3326556 50.5941079,8.06655602 C50.7920332,7.80045643 50.9525726,7.52775934 50.9525726,7.46178423 C50.9525726,7.19128631 50.5061411,7.20008299 50.1542739,7.47937759 C49.79361,7.76087137 49.523112,7.76746888 49.523112,7.49257261 C49.523112,7.42439834 49.6946473,7.28365145 49.9057676,7.18029046 C50.4291701,6.92518672 50.4731535,6.67228216 50.0311203,6.46995851 C49.4637344,6.2126556 48.8941494,6.68327801 48.8347718,7.45958506 C48.7973859,7.97858921 48.8391701,8.06875519 49.2394191,8.30406639 C49.6044813,8.51958506 49.6726556,8.63394191 49.6110788,8.94182573 C49.5055187,9.47622407 49.7276349,9.66315353 50.0663071,9.32448133 L50.0663071,9.32448133 L50.0663071,9.32448133 Z" id="Shape"></path>
                        <path d="M54.383278,8.83626556 C54.6999585,8.55257261 54.9572614,8.22929461 54.9572614,8.12153527 C54.9572614,8.01377593 55.2299585,7.72788382 55.5642324,7.48817427 C56.5120747,6.80643154 56.7209959,6.11809129 56.296556,5.06029046 C56.1316183,4.6446473 55.6126141,4.0706639 54.4844398,3.0546473 C53.6179668,2.27174274 52.819668,1.63178423 52.7163071,1.63178423 C52.4084232,1.63178423 52.4634025,2.76435685 52.7756846,2.8633195 C53.3386722,3.04365145 53.6795436,3.27456432 54.5658091,4.07286307 C55.5950207,5.00311203 56.0700415,5.87178423 55.8105394,6.35560166 C55.5620332,6.8240249 55.2321577,6.67887967 54.3239004,5.7046473 C53.8466805,5.19224066 53.3738589,4.77439834 53.2770954,4.77439834 C53.1715353,4.77659751 53.0967635,4.9613278 53.0967635,5.22082988 C53.0967635,5.54630705 53.2704979,5.85639004 53.7411203,6.37979253 C54.5086307,7.23307054 54.5834025,7.74547718 54.0072199,8.19850622 C53.8004979,8.36124481 53.5871784,8.49539419 53.5343983,8.49539419 C53.4838174,8.49539419 53.3144813,8.24029046 53.1605394,7.93020747 C52.8394606,7.27925311 50.8756017,5.20543568 50.5809129,5.20543568 C50.4467635,5.20543568 50.3807884,5.37257261 50.3807884,5.70244813 C50.3807884,6.10049793 50.4599585,6.24124481 50.776639,6.4039834 C51.1658921,6.60630705 52.1291286,7.57614108 53.0967635,8.74609959 C53.3738589,9.08037344 53.646556,9.35087137 53.7059336,9.35307054 C53.763112,9.35307054 54.0687967,9.11995851 54.383278,8.83626556 L54.383278,8.83626556 L54.383278,8.83626556 Z" id="Shape"></path>
                        <path d="M56.309751,3.32294606 C56.1821992,2.91170124 53.5475934,0.200124481 53.2770954,0.200124481 C53.1363485,0.200124481 53.0923651,0.367261411 53.1253527,0.798298755 C53.1627386,1.32170124 53.219917,1.41186722 53.5805809,1.50643154 C53.8048963,1.56580913 54.499834,2.11120332 55.1221992,2.7159751 C55.7423651,3.32074689 56.2877593,3.78037344 56.3317427,3.73419087 C56.3757261,3.69020747 56.3669295,3.50547718 56.309751,3.32294606 L56.309751,3.32294606 L56.309751,3.32294606 Z" id="Shape"></path>
                        <path d="M40.5746888,33.843029 C40.5746888,34.0412709 40.3993706,34.2019776 40.1831046,34.2019776 C39.9668386,34.2019776 39.7915203,34.0412709 39.7915203,33.843029 C39.7915203,33.6447872 39.9668386,33.4840805 40.1831046,33.4840805 C40.3993706,33.4840805 40.5746888,33.6447872 40.5746888,33.843029 L40.5746888,33.843029 L40.5746888,33.843029 Z" id="Shape"></path>
                        <path d="M41.9579668,33.3812033 C41.9579668,33.5794451 41.7826486,33.7401519 41.5663826,33.7401519 C41.3501166,33.7401519 41.1747983,33.5794451 41.1747983,33.3812033 C41.1747983,33.1829615 41.3501166,33.0222548 41.5663826,33.0222548 C41.7826486,33.0222548 41.9579668,33.1829615 41.9579668,33.3812033 L41.9579668,33.3812033 L41.9579668,33.3812033 Z" id="Shape"></path>
                    </g>
                </g>
            </g>
        </g>
    </g>
</svg>