<?xml version="1.0" encoding="UTF-8" standalone="no"?>
<svg width="180px" height="180px" viewBox="0 0 180 180" version="1.1" xmlns="http://www.w3.org/2000/svg" xmlns:xlink="http://www.w3.org/1999/xlink">
    <!-- Generator: Sketch 3.8.3 (29802) - http://www.bohemiancoding.com/sketch -->
    <title>burundi</title>
    <desc>Created with Sketch.</desc>
    <defs></defs>
    <g id="Page-1" stroke="none" stroke-width="1" fill="none" fill-rule="evenodd">
        <g id="flags" transform="translate(-990.000000, -990.000000)">
            <g id="burundi" transform="translate(990.000000, 990.000000)">
                <circle id="white" fill="#FFFFFF" cx="90" cy="90" r="90"></circle>
                <path d="M148.760529,21.8276287 L90,79.5 L31.2394708,21.8276287 C47.0063391,8.22530197 67.5426079,0 90,0 C112.457392,0 132.993661,8.22530197 148.760529,21.8276287 L148.760529,21.8276287 Z M148.760529,158.172371 L90,100.5 L31.2394708,158.172371 C47.0063391,171.774698 67.5426079,180 90,180 C112.457392,180 132.993661,171.774698 148.760529,158.172371 L148.760529,158.172371 Z" id="red" fill="#E94B35"></path>
                <path d="M22.2425777,149.238124 L80,90.2346097 L22.2321775,30.7737644 C8.38855766,46.6009255 0,67.3208359 0,90 C0,112.684843 8.39275908,133.409451 22.2425777,149.238124 L22.2425777,149.238124 Z M156.815173,29.701871 L100,90.2346097 L156.752386,150.367586 C171.200179,134.401599 180,113.228454 180,90 C180,66.8052138 171.22567,45.6597834 156.815173,29.701871 L156.815173,29.701871 Z" id="green" fill="#1AAF5D"></path>
                <circle id="white" fill="#FFFFFF" cx="89.5" cy="89.5" r="35.5"></circle>
                <path d="M74.931654,94.1969728 L71.444864,89.6499713 L67.9580739,94.1969728 L60.9844938,94.1969728 L64.4712838,98.7439743 L60.9844938,103.290976 L67.9580739,103.290976 L71.444864,107.837977 L74.931654,103.290976 L81.9052342,103.290976 L78.4184442,98.7439743 L81.9052342,94.1969728 L74.931654,94.1969728 L74.931654,94.1969728 Z M109.450875,94.1969728 L105.964086,89.6499713 L102.477296,94.1969728 L95.5037155,94.1969728 L98.9905056,98.7439743 L95.5037155,103.290976 L102.477296,103.290976 L105.964086,107.837977 L109.450875,103.290976 L116.424456,103.290976 L112.937666,98.7439743 L116.424456,94.1969728 L109.450875,94.1969728 L109.450875,94.1969728 Z M93.7603204,69.6431649 L90.2735304,65.0961634 L86.7867404,69.6431649 L79.8131602,69.6431649 L83.2999502,74.1901663 L79.8131602,78.7371678 L86.7867404,78.7371678 L90.2735304,83.2841693 L93.7603204,78.7371678 L100.733901,78.7371678 L97.2471106,74.1901663 L100.733901,69.6431649 L93.7603204,69.6431649 L93.7603204,69.6431649 Z" id="stars" fill="#E94B35"></path>
            </g>
        </g>
    </g>
</svg>