<?xml version="1.0" encoding="UTF-8" standalone="no"?>
<svg width="180px" height="180px" viewBox="0 0 180 180" version="1.1" xmlns="http://www.w3.org/2000/svg" xmlns:xlink="http://www.w3.org/1999/xlink">
    <!-- Generator: Sketch 3.8.3 (29802) - http://www.bohemiancoding.com/sketch -->
    <title>cambodia</title>
    <desc>Created with Sketch.</desc>
    <defs></defs>
    <g id="Page-1" stroke="none" stroke-width="1" fill="none" fill-rule="evenodd">
        <g id="flags" transform="translate(-1260.000000, -990.000000)">
            <g id="cambodia" transform="translate(1260.000000, 990.000000)">
                <path d="M167.959589,135.000025 C152.398162,161.901074 123.312698,180 90,180 C56.6873022,180 27.6018377,161.901074 12.0404109,135.000025 L167.959604,135 L167.959604,135 L167.959589,135.000025 L167.959589,135.000025 L167.959589,135.000025 Z M167.959589,44.9999749 C152.398162,18.0989265 123.312698,0 90,0 C56.6873022,0 27.6018377,18.0989265 12.0404109,44.9999749 L167.959604,45 L167.959604,45 L167.959589,44.9999749 L167.959589,44.9999749 L167.959589,44.9999749 Z" id="blue" fill="#227FBB"></path>
                <path d="M167.959589,135.000025 C175.617252,121.762218 180,106.392932 180,90.0000001 C180,73.6070679 175.617252,58.237782 167.959589,44.999975 L12.0403964,45.0000001 C4.38274789,58.237782 0,73.6070679 0,90.0000001 C0,106.392932 4.38274789,121.762218 12.0404109,135.000025 L167.959604,135 L167.959604,135 L167.959589,135.000025 L167.959589,135.000025 L167.959589,135.000025 Z" id="red" fill="#E94B35" transform="translate(90.000000, 90.000000) scale(1, -1) translate(-90.000000, -90.000000) "></path>
                <g id="temple" transform="translate(41.000000, 58.000000)" stroke="#000000" stroke-width="0.1">
                    <path d="M48.7006273,2.71409083 C48.7006273,2.71409083 48.6461635,0.0291828511 49.5497141,0 C50.4532646,0.0291746903 50.3988009,2.71409083 50.3988009,2.71409083 L50.3988009,2.71409083 L48.7006273,2.71409083 L48.7006273,2.71409083 L48.7006273,2.71409083 L48.7006273,2.71409083 L48.7006273,2.71409083 Z" id="path4053" fill="#FFFFFF"></path>
                    <path d="M86.2413269,42.7847948 L86.2413269,34.9843358 C86.493953,33.994936 87.3275535,33.1196006 87.9543195,32.944238 L87.9543195,25.6287052 C87.0067386,25.6287052 86.5426919,26.873023 86.5426919,26.873023 L84.9313788,34.024289 L84.9313788,42.7247938 L86.2413269,42.7847948 L86.2413269,42.7847948 L86.2413269,42.7847948 L86.2413269,42.7847948 L86.2413269,42.7847948 Z" id="path5298" fill="#FFFFFF"></path>
                    <polygon id="path4002" fill="#FFFFFF" points="71.8777985 27.3372855 69.5541557 27.3372855 69.5541557 32.3000729 71.8777985 32.3000729 71.8777985 27.3372855 71.8777985 27.3372855 71.8777985 27.3372855"></polygon>
                    <polygon id="rect4016" fill="#FFFFFF" points="28.5482274 27.3372855 71.4797941 27.3372855 71.4797941 43.9836839 28.5482274 43.9836839 28.5482274 27.3372855 28.5482274 27.3372855 28.5482274 27.3372855"></polygon>
                    <path d="M13.1754166,42.849121 L13.1754166,35.0786637 C12.9227904,34.0892639 12.0891899,33.2139285 11.4624239,33.0385658 L11.4624239,26.198232 L12.8740515,26.9673509 L14.4853646,34.1186169 L14.4853646,42.849121 L13.1754166,42.849121 L13.1754166,42.849121 L13.1754166,42.849121 L13.1754166,42.849121 L13.1754166,42.849121 Z" id="path3912" fill="#FFFFFF"></path>
                    <path d="M13.1754166,42.7847948 L13.1754166,34.9843358 C12.9227904,33.994936 12.0891899,33.1196006 11.4624239,32.944238 L11.4624239,25.6287052 C12.4100048,25.6287052 12.8740515,26.873023 12.8740515,26.873023 L14.4853646,34.024289 L14.4853646,42.7247938 L13.1754166,42.7847948 L13.1754166,42.7847948 L13.1754166,42.7847948 L13.1754166,42.7847948 L13.1754166,42.7847948 Z" id="path3963" fill="#FFFFFF"></path>
                    <path d="M11.4624239,44.7365584 C12.1265263,44.3956626 12.8840582,43.6023275 13.1317847,42.7145087 L85.9701957,42.7145087 C86.2179222,43.6023275 86.9754541,44.3956626 87.6395565,44.7365584 C87.6395565,44.7365584 86.9754541,44.3956626 87.6395565,44.7365584 L11.4624239,44.7365584 L11.4624239,44.7365584 L11.4624239,44.7365584 L11.4624239,44.7365584 L11.4624239,44.7365584 Z" id="path3923" fill="#FFFFFF"></path>
                    <rect id="rect3953" fill="#FFFFFF" x="68.9846289" y="36.4497141" width="1.35297102" height="6.27090561"></rect>
                    <rect id="rect4008" fill="#FFFFFF" x="28.5482274" y="33.0325534" width="42.9315667" height="1.93511759"></rect>
                    <rect id="rect4010" fill="#FFFFFF" x="28.5482274" y="30.7544462" width="42.9315667" height="1.70652745"></rect>
                    <polygon id="path3968" fill="#FFFFFF" points="71.8777985 27.3372855 69.5541557 27.3372855 69.5541557 32.3000729 71.8777985 32.3000729 71.8777985 27.3372855 71.8777985 27.3372855 71.8777985 27.3372855"></polygon>
                    <path d="M87.2238462,44.9040049 C86.5712312,44.6070056 85.6210001,43.7944154 85.6210001,42.9767834 L85.6210001,33.2647204 L86.0681363,32.4630266 L69.6490944,32.4630266 L70.2897929,33.2647204 L70.2897929,42.9767834 C70.2897929,43.7944154 69.6372439,44.6070056 68.9846289,44.9040049 C68.9846289,44.9040049 69.6372439,44.6070056 68.9846289,44.9040049 L87.2238462,44.9040049 L87.2238462,44.9040049 L87.2238462,44.9040049 L87.2238462,44.9040049 L87.2238462,44.9040049 Z" id="path3933" fill="#FFFFFF"></path>
                    <rect id="rect3951" fill="#FFFFFF" x="39.9387631" y="36.4497141" width="1.35297102" height="6.27090561"></rect>
                    <rect id="rect3955" fill="#FFFFFF" x="58.1636201" y="36.4497141" width="1.35297102" height="6.27090561"></rect>
                    <path d="M60.1667488,44.9040049 C59.4022166,44.6070056 58.2890327,43.7944154 58.2890327,42.9767834 L58.2890327,33.7399193 L59.2844141,32.4630266 L39.3745063,32.4630598 L40.3286962,33.7399193 L40.3286962,42.9767834 C40.3286962,43.7944154 39.5642418,44.6070056 38.7997095,44.9040049 C38.7997095,44.9040049 39.5642418,44.6070056 38.7997095,44.9040049 L60.1667488,44.9040049 L60.1667488,44.9040049 L60.1667488,44.9040049 L60.1667488,44.9040049 L60.1667488,44.9040049 Z" id="path3937" fill="#FFFFFF"></path>
                    <rect id="rect3939" fill="#FFFFFF" x="43.3559237" y="36.4497141" width="1.35297102" height="6.27090561"></rect>
                    <rect id="rect3941" fill="#FFFFFF" x="54.7464594" y="36.4497141" width="1.35297102" height="6.27090561"></rect>
                    <path d="M39.3692363,22 L39.3692363,27.5687372 L39.3692363,30.2343061 L39.3692363,32.5137759 L59.7497456,32.5137759 L59.7497456,30.2491561 L59.7792964,22 C58.9456747,22.3300162 58.7993188,23.0914725 58.7993188,23.0914725 L58.7993188,27.5687372 L40.4081599,27.5687372 L40.4081599,23.0914725 C40.4081599,23.0914725 40.202858,22.3300162 39.3692363,22 C39.3692363,22 40.202858,22.3300162 39.3692363,22 L39.3692363,22 L39.3692363,22 L39.3692363,22 L39.3692363,22 L39.3692363,22 Z" id="rect4125" fill="#FFFFFF"></path>
                    <path d="M56.6261852,44.8653575 C55.9601494,44.5683582 54.5091129,43.7557681 54.5091129,42.9381361 L54.5091129,32.6008657 C54.6515312,32.0237652 55.428112,31.683183 55.9279743,31.323973 L42.4137334,31.323973 C43.0569241,31.6671474 43.7738775,31.9520505 44.0301371,32.6008657 L44.0301371,42.9381361 C44.0301371,43.7557681 42.882906,44.5683582 42.2168702,44.8653575 C42.2168702,44.8653575 42.882906,44.5683582 42.2168702,44.8653575 L56.6261852,44.8653575 L56.6261852,44.8653575 L56.6261852,44.8653575 L56.6261852,44.8653575 L56.6261852,44.8653575 Z" id="path3935" fill="#FFFFFF"></path>
                    <polygon id="path3868" fill="#FFFFFF" points="58.8658306 30.9527961 58.8657316 23.5066287 57.013242 23.5065979 57.013242 22.7810713 42.3609444 22.7810713 42.3609444 23.5065979 40.5082898 23.5065289 40.5083559 30.9527961 58.8658306 30.9527961 58.8658306 30.9527961 58.8658306 30.9527961"></polygon>
                    <rect id="rect3943" fill="#FFFFFF" x="28.5482274" y="36.4497141" width="1.35297102" height="6.27090561"></rect>
                    <path d="M12.0319507,44.9040049 C12.6845657,44.6070056 13.6347968,43.7944154 13.6347968,42.9767834 L13.6347968,33.2647204 L13.1876606,32.4630266 L29.6067025,32.4630266 L28.966004,33.2647204 L28.966004,42.9767834 C28.966004,43.7944154 29.618553,44.6070056 30.271168,44.9040049 C30.271168,44.9040049 29.618553,44.6070056 30.271168,44.9040049 L12.0319507,44.9040049 L12.0319507,44.9040049 L12.0319507,44.9040049 L12.0319507,44.9040049 L12.0319507,44.9040049 Z" id="path3324" fill="#FFFFFF"></path>
                    <rect id="rect4007" fill="#FFFFFF" x="13.7405311" y="25.6287052" width="1.5157548" height="5.66420111"></rect>
                    <rect id="rect4009" fill="#FFFFFF" x="13.7405311" y="24.4896516" width="1.5157548" height="1.19320574"></rect>
                    <path d="M27.0863742,44.9040049 C26.4337592,44.6070056 25.4835281,43.7944154 25.4835281,42.9767834 L25.4835281,33.739974 L26.848817,32.4630266 L15.6866686,32.4630598 L17.0519976,33.739974 L17.0519976,42.9767834 C17.0519976,43.7944154 16.1017264,44.6070056 15.4491114,44.9040049 C15.4491114,44.9040049 16.1017264,44.6070056 15.4491114,44.9040049 L27.0863742,44.9040049 L27.0863742,44.9040049 L27.0863742,44.9040049 L27.0863742,44.9040049 L27.0863742,44.9040049 Z" id="path3905" fill="#FFFFFF"></path>
                    <path d="M25.6678209,44.5867772 C25.0152059,44.2897779 24.0649748,43.4771878 24.0649748,42.6595558 L24.0649748,34.3095007 L24.9586956,33.0325534 L17.8669185,33.0325534 L18.7605779,34.3095007 L18.7605779,42.6595558 C18.7605779,43.4771878 17.8103068,44.2897779 17.1576918,44.5867772 C17.1576918,44.5867772 17.8103068,44.2897779 17.1576918,44.5867772 L25.6678209,44.5867772 L25.6678209,44.5867772 L25.6678209,44.5867772 L25.6678209,44.5867772 L25.6678209,44.5867772 Z" id="path3901" fill="#FFFFFF"></path>
                    <path d="M83.4695256,44.9040049 C82.816913,44.6070056 81.8666819,43.7944154 81.8666819,42.9767834 L81.8666819,33.739974 L83.2319684,32.4630266 L72.06982,32.4630266 L73.435149,33.739974 L73.435149,42.9767834 C73.435149,43.7944154 72.4848778,44.6070056 71.8322629,44.9040049 C71.8322629,44.9040049 72.4848778,44.6070056 71.8322629,44.9040049 L83.4695256,44.9040049 L83.4695256,44.9040049 L83.4695256,44.9040049 L83.4695256,44.9040049 L83.4695256,44.9040049 Z" id="path3913" fill="#FFFFFF"></path>
                    <path d="M82.0509723,44.5867772 C81.3983574,44.2897779 80.4481286,43.4771878 80.4481286,42.6595558 L80.4481286,34.3095007 L81.341847,33.0325534 L74.2499686,33.0325534 L75.1437294,34.3095007 L75.1437294,42.6595558 C75.1437294,43.4771878 74.1934582,44.2897779 73.5408432,44.5867772 C73.5408432,44.5867772 74.1934582,44.2897779 73.5408432,44.5867772 L82.0509723,44.5867772 L82.0509723,44.5867772 L82.0509723,44.5867772 L82.0509723,44.5867772 L82.0509723,44.5867772 Z" id="path3903" fill="#FFFFFF"></path>
                    <polygon id="path3887" fill="#FFFFFF" points="19.4357989 33.03257 22.824252 33.0325534 22.824245 44.5867939 19.4358343 44.5867939 19.4357989 33.03257 19.4357989 33.03257 19.4357989 33.03257"></polygon>
                    <path d="M53.8723578,44.5867772 C53.2197428,44.2897779 52.2694457,43.4772401 52.2694457,42.6596081 L52.2694457,33.8342139 L52.8053452,33.0325534 L46.1315167,33.0325534 L46.6673903,33.8343018 L46.6673903,42.6595558 C46.6673903,43.4771878 45.7171191,44.2897779 45.0645041,44.5867772 C45.0645041,44.5867772 45.7171191,44.2897779 45.0645041,44.5867772 L53.8723578,44.5867772 L53.8723578,44.5867772 L53.8723578,44.5867772 L53.8723578,44.5867772 L53.8723578,44.5867772 Z" id="path3897" fill="#FFFFFF"></path>
                    <polygon id="path3891" fill="#FFFFFF" points="47.912138 33.03257 51.2944089 33.0325534 51.2944089 44.580564 47.912138 44.580564 47.912138 33.03257 47.912138 33.03257 47.912138 33.03257"></polygon>
                    <polygon id="path3893" fill="#FFFFFF" points="76.3884771 33.0325534 79.7769302 33.0325534 79.7769232 44.5867939 76.3885125 44.5867939 76.3884771 33.0325534 76.3884771 33.0325534 76.3884771 33.0325534"></polygon>
                    <rect id="rect4019" fill="#FFFFFF" x="46.2035577" y="28.4763391" width="6.78806992" height="2.52012285"></rect>
                    <path d="M53.0177405,30.4885389 C53.0258515,29.7277668 55.2199592,29.6936262 56.3495701,29.0458659 L42.786397,29.0458659 C43.9160079,29.6936262 46.0592805,29.7469031 46.0592805,30.4885389 L46.5182508,31.9642335 L52.1328193,32.1914783 L53.0177405,30.4885389 L53.0177405,30.4885389 L53.0177405,30.4885389 L53.0177405,30.4885389 L53.0177405,30.4885389 Z" id="path3876" fill="#FFFFFF"></path>
                    <path d="M55.6703257,22.5130903 C55.6703257,20.6508238 55.7477807,19.9334374 56.3155582,19.9334374 L56.3155606,25.8564544 C54.9230434,26.3655967 53.9292818,28.1560773 53.9292818,28.1560773 L45.1726758,28.1559752 C45.1726758,28.1559752 44.1789142,26.3655967 42.786397,25.8564544 L42.786397,19.9334374 C43.4865861,19.9334374 43.4911768,20.6829995 43.4911768,22.5130879 C43.4911768,22.5130879 43.4911768,20.6829995 43.4911768,22.5130879 L55.6703257,22.5130903 L55.6703257,22.5130903 L55.6703257,22.5130903 L55.6703257,22.5130903 L55.6703257,22.5130903 Z" id="path4078" fill="#FFFFFF"></path>
                    <path d="M46.0750063,28.3953429 L52.6178167,28.3953429 C52.6048957,27.0305598 52.500217,24.7153812 53.6283189,23.3505981 L45.0645041,23.3505981 C46.192606,24.7153812 46.0879273,27.0305598 46.0750063,28.3953429 L46.0750063,28.3953429 Z" id="path4023" fill="#FFFFFF"></path>
                    <rect id="rect3927" fill="#FFFFFF" x="14.8795846" y="36.4497141" width="1.35297102" height="6.27090561"></rect>
                    <path d="M11.4624239,44.7365584 C12.1265263,44.3956626 12.8840888,43.6024059 13.1318154,42.7145871 L85.9701957,42.7145087 C86.2179222,43.6023275 86.9754541,44.3956626 87.6395565,44.7365584 C87.6395565,44.7365584 86.9754541,44.3956626 87.6395565,44.7365584 L11.4624239,44.7365584 L11.4624239,44.7365584 L11.4624239,44.7365584 L11.4624239,44.7365584 L11.4624239,44.7365584 Z" id="path3929"></path>
                    <rect id="rect3931" fill="#FFFFFF" x="26.8396471" y="36.4497141" width="1.35297102" height="6.27090561"></rect>
                    <path d="M13.1710043,24.0790106 L13.1710349,32.4724822 L14.1183494,32.4724822 L14.1183494,24.0577953 C13.7769435,23.8841149 13.4563573,23.8573018 13.1710043,24.0790129 C13.1710043,24.0790129 13.4563573,23.8573018 13.1710043,24.0790129 L13.1710043,24.0790106 L13.1710043,24.0790106 L13.1710043,24.0790106 L13.1710043,24.0790106 L13.1710043,24.0790106 Z" id="path3971" fill="#FFFFFF"></path>
                    <path d="M13.1710043,29.0458659 C14.3451666,29.6508606 15.5080702,30.3507573 15.8024891,32.0084935 L13.1710043,32.0084935 L13.1710043,29.0458659 L13.1710043,29.0458659 L13.1710043,29.0458659 L13.1710043,29.0458659 L13.1710043,29.0458659 Z" id="path3973" fill="#FFFFFF"></path>
                    <polygon id="rect3864" fill="#FFFFFF" points="27.4091738 27.3372855 29.7328166 27.3372855 29.7328166 32.3000729 27.4091738 32.3000729 27.4091738 27.3372855 27.4091738 27.3372855 27.4091738 27.3372855"></polygon>
                    <path d="M29.1177542,26.8714342 L29.1177754,32.3482655 L29.8856204,32.3482655 L29.8856204,26.8575892 C29.6457361,26.7442614 29.3182556,26.7267646 29.1177542,26.8714413 C29.1177542,26.8714413 29.3182556,26.7267646 29.1177542,26.8714413 L29.1177542,26.8714342 L29.1177542,26.8714342 L29.1177542,26.8714342 L29.1177542,26.8714342 L29.1177542,26.8714342 Z" id="path3977" fill="#FFFFFF"></path>
                    <polygon id="path3918" fill="#FFFFFF" points="47.912138 1.70858035 51.3294983 1.70858035 51.2437955 3.67227642 47.9978408 3.67227642"></polygon>
                    <polygon id="path3916" fill="#FFFFFF" points="47.1287099 4.5505291 47 2.84763391 52.1322227 2.84763391 52.0035129 4.5505291 47.1287099 4.5505291 47.1287099 4.5505291 47.1287099 4.5505291"></polygon>
                    <polygon id="path3144" fill="#FFFFFF" points="46.9229323 5.17468475 46.7730844 3.98668747 52.7481032 3.98668747 52.5982553 5.17468475 46.9229323 5.17468475 46.9229323 5.17468475 46.9229323 5.17468475"></polygon>
                    <path d="M43.9551682,22.6062798 L43.9551682,20.5018305 C43.9253957,19.4495596 42.9142757,19.3734636 42.8845056,18.606293 C42.8845056,18.606293 42.7539544,17.4556891 43.0548714,16.9304731 C43.4640016,18.4691244 44.2078038,18.1864666 44.2078038,17.5538367 C44.2078038,17.0016318 43.7864057,16.4882008 42.922125,15.1473581 C42.6459511,14.7189022 42.8168639,13.3759378 43.2039035,12.8959132 C43.3540814,14.0633558 43.5257417,14.6217596 44.0231825,14.6217596 C44.3265989,14.6217596 44.5744079,14.4224921 44.5744079,13.837824 C44.5744079,13.0940545 44.0745551,12.7184383 43.8288586,12.0415911 C43.542131,11.2517155 43.7395436,10.4465622 44.2158982,9.99653936 C44.4201037,11.1481483 44.3593611,11.6073377 44.8668674,11.6073377 C45.8904557,11.2810068 44.8671032,9.78765617 44.6483946,9.41102778 C44.3967658,8.97183944 44.9867259,8.0957461 44.9867259,8.0957461 C45.3119523,9.11830525 45.4165886,9.20161237 45.7675886,9.1068387 C46.2103958,8.9872739 46.1532818,8.3252244 45.6129284,7.79024072 C45.2717064,7.45240518 45.3078921,6.94946654 45.6742252,6.54559499 C46.0420059,7.27003097 46.5128408,7.22601567 46.5581514,6.7958181 L46.2624876,5.12574104 L52.7718874,5.12574104 L52.4486439,6.74096589 C52.3561199,7.20330592 52.9753054,7.30364654 53.3601498,6.54559499 C53.7264828,6.94946654 53.7626686,7.45240518 53.4214466,7.79024072 C52.8810931,8.3252244 52.8239792,8.9872739 53.2667864,9.1068387 C53.6177864,9.20161237 53.7224226,9.11831475 54.0476491,8.0957461 C54.0476491,8.0957461 54.5769325,8.69290006 54.3859804,9.41102778 C54.1672718,9.78765617 53.1439193,11.2810068 54.1675075,11.6073377 C54.6750139,11.6073377 54.6142712,11.1481483 54.8184767,9.99653936 C55.2948313,10.4465622 55.4922439,11.2517155 55.2055163,12.0415911 C54.9598199,12.7184383 54.459967,13.0940545 54.459967,13.837824 C54.459967,14.4224921 54.7077761,14.6217596 55.0111925,14.6217596 C55.5086333,14.6217596 55.6802935,14.0633558 55.8304715,12.8959132 C56.2175111,13.3759378 56.3884239,14.7189022 56.11225,15.1473581 C55.2479693,16.4882008 54.8265712,17.0016318 54.8265712,17.5538367 C54.8265712,18.1864666 55.5703733,18.4691244 55.9795035,16.9304731 C56.2804206,17.4556891 56.1498693,18.606293 56.1498693,18.606293 C56.1200992,19.3734636 55.1089793,19.4495596 55.0792068,20.5018305 L55.0792068,22.6062798 L43.9551682,22.6062798 L43.9551682,22.6062798 L43.9551682,22.6062798 L43.9551682,22.6062798 L43.9551682,22.6062798 Z" id="path4132" fill="#FFFFFF"></path>
                    <path d="M48.8086528,7.87159329 L47.912138,7.40630465 L47.912138,6.07675038 C48.2786384,6.18780911 48.6900392,6.23315735 48.7302593,6.82168882 C48.8578633,5.98158704 49.0879791,6.02268937 49.4494408,5.69526782 C49.8109025,6.02268937 50.0410184,5.98158704 50.1686224,6.82168882 C50.2088424,6.23315735 50.6202432,6.18780911 50.9867436,6.07675038 L50.9867436,7.40630465 L50.0902289,7.87159329 L48.8086528,7.87159329 L48.8086528,7.87159329 L48.8086528,7.87159329 L48.8086528,7.87159329 L48.8086528,7.87159329 Z" id="path4031" fill="#FFFFFF"></path>
                    <path d="M45.9474284,9 L53.0964356,9" id="path4060"></path>
                    <path d="M48.8313991,10.0303192 L47.3426112,8.99902349 L47.3426112,7.77372072 C47.8645665,7.89550232 48.4504711,7.94522951 48.5077501,8.59058765 C48.6894807,7.66936704 49.0172017,7.19335792 49.5319844,6.83432139 C50.0467671,7.19335792 50.3744881,7.66936704 50.5562187,8.59058765 C50.6134977,7.94522951 51.1994023,7.89550232 51.7213575,7.77372072 L51.7213575,8.99902349 L50.2325696,10.0303192 L48.8313991,10.0303192 L48.8313991,10.0303192 L48.8313991,10.0303192 L48.8313991,10.0303192 L48.8313991,10.0303192 Z" id="path4029" fill="#FFFFFF"></path>
                    <path d="M45.3166104,11 L53.7538253,11" id="path4058"></path>
                    <path d="M49.0545145,13.8076575 L47.3426112,12.2925832 L47.3426112,10.4924964 C47.9427902,10.6714064 48.6164984,10.7444612 48.6823623,11.6925543 C48.8913284,10.3391901 49.2681632,9.63988742 49.8600921,9.11242851 C50.452021,9.63988742 50.8288558,10.3391901 51.0378218,11.6925543 C51.1036857,10.7444612 51.777394,10.6714064 52.3775729,10.4924964 L52.3775729,12.2925832 L50.6656696,13.8076575 L49.0545145,13.8076575 L49.0545145,13.8076575 L49.0545145,13.8076575 L49.0545145,13.8076575 L49.0545145,13.8076575 Z" id="path4025" fill="#FFFFFF"></path>
                    <polygon id="path4037" fill="#FFFFFF" points="52.1917444 15.3772231 50.6435885 17.5349778 48.8907672 17.5349778 47.3426112 15.3772231 52.1917444 15.3772231 52.1917444 15.3772231 52.1917444 15.3772231"></polygon>
                    <path d="M46.2035577,18.3639106 C46.9779009,18.7904182 47.2638693,19.6400478 47.3465894,21.2351479 L51.7037025,21.2351479 C51.7864226,19.6400478 52.0723863,18.7904182 52.8467295,18.3639106 C52.8467295,18.3639106 52.0723863,18.7904182 52.8467295,18.3639106 L46.2035577,18.3639106 L46.2035577,18.3639106 L46.2035577,18.3639106 L46.2035577,18.3639106 L46.2035577,18.3639106 Z" id="path4033" fill="#FFFFFF"></path>
                    <path d="M44.5824473,14 L54.4138522,14" id="path4062"></path>
                    <path d="M44,18 L54.9254505,18" id="path4064"></path>
                    <path d="M52.9808388,15.5242316 L52.9808388,13.356626 C52.2452797,13.5606764 51.7687435,13.999544 51.5564978,14.5950585 C51.5564978,13.8755171 50.6169053,12.2162745 49.592098,11.3905356 C48.5643694,12.3148617 47.6086917,13.8160008 47.6278987,14.5950585 C47.4531072,14.0279181 46.9391168,13.5606764 46.2035577,13.356626 L46.2035577,15.5242886 L52.9808388,15.5242316 L52.9808388,15.5242316 L52.9808388,15.5242316 L52.9808388,15.5242316 L52.9808388,15.5242316 Z" id="path4017" fill="#FFFFFF"></path>
                    <path d="M53.0633093,18.9415396 L53.0632315,16.7737867 C52.2569159,16.9778371 51.7345433,17.4167047 51.501881,18.0122192 C51.501881,17.2926777 50.4720162,15.6334352 49.34863,14.8076963 C48.2220418,15.7320224 47.1743282,17.2331615 47.1953813,18.0122192 C47.0037785,17.4450788 46.4403464,16.9778371 45.6340309,16.7737867 L45.6340309,18.9414493 L53.0633093,18.9415396 L53.0633093,18.9415396 L53.0633093,18.9415396 L53.0633093,18.9415396 L53.0633093,18.9415396 Z" id="path4015" fill="#FFFFFF"></path>
                    <path d="M54.3073747,23.3742502 L54.3073747,20.8741171 C53.3042148,21.1349965 52.6805093,21.8826769 52.3648557,22.3185745 C52.3648557,20.9646805 50.8478492,18.9008512 49.6859382,18.224857 C48.493854,18.9184075 47.0070231,21.0513235 47.0070231,22.3185745 C46.6830251,21.8853808 46.067664,21.1349965 45.0645041,20.8741171 L45.0645041,23.3742502 L54.3073747,23.3742502 L54.3073747,23.3742502 L54.3073747,23.3742502 L54.3073747,23.3742502 L54.3073747,23.3742502 Z" id="path4013" fill="#FFFFFF"></path>
                    <path d="M53.7903566,29.1097552 L53.7903566,26.5392451 C52.9051241,26.8887278 52.6405319,27.7482391 52.3619836,28.3321825 C52.4713167,25.7248967 50.9052388,22.9224136 49.7121925,22.2115445 C48.5191486,22.9224136 46.9232983,25.7849001 47.0624038,28.3321825 C46.776492,27.7518624 46.5192634,26.8887278 45.6340309,26.5392451 L45.6340309,29.1098004 L53.7903566,29.1097552 L53.7903566,29.1097552 L53.7903566,29.1097552 L53.7903566,29.1097552 L53.7903566,29.1097552 Z" id="path4011" fill="#FFFFFF"></path>
                    <rect id="rect4066" fill="#FFFFFF" x="71.2627361" y="36.4497141" width="1.35297102" height="6.27090561"></rect>
                    <rect id="rect4068" fill="#FFFFFF" x="82.6532717" y="36.4497141" width="1.35297102" height="6.27090561"></rect>
                    <path d="M40.5082898,29 L58.8657316,29" id="path3870"></path>
                    <rect id="rect3355" x="46.2035577" y="29.0458659" width="6.80413837" height="2.52012285"></rect>
                    <path d="M53.1190224,32.9726592 L53.1190224,30.4021039 C52.191686,30.6243022 52.1344046,30.9689212 51.8395118,31.5446579 C51.9488449,29.987424 50.8543351,28.2108691 49.6612889,27.5 C48.468245,28.2108691 47.3737352,29.987424 47.4830683,31.5446579 C47.1881755,30.9689212 47.1519473,30.6243022 46.2035577,30.4021039 L46.2035577,32.9726592 L53.1190224,32.9726592 L53.1190224,32.9726592 L53.1190224,32.9726592 L53.1190224,32.9726592 L53.1190224,32.9726592 Z" id="path3917" fill="#FFFFFF"></path>
                    <polygon id="rect3914" fill="#FFFFFF" points="13.7405311 25.6287052 15.370332 25.6287052 15.370332 32.3287052 13.7405311 32.3287052 13.7405311 25.6287052 13.7405311 25.6287052 13.7405311 25.6287052"></polygon>
                    <polygon id="rect3916" fill="#FFFFFF" points="13.7405311 24.4896516 15.3607049 24.4896516 15.3607049 25.6828571 13.7405311 25.6828571 13.7405311 24.4896516 13.7405311 24.4896516 13.7405311 24.4896516"></polygon>
                    <polygon id="rect3914-2" fill="#FFFFFF" points="83.6999969 25.6287052 85.6999969 25.6287052 85.6999969 32.3287052 83.6999969 32.3287052 83.6999969 25.6287052 83.6999969 25.6287052 83.6999969 25.6287052"></polygon>
                    <polygon id="rect3916-2" fill="#FFFFFF" points="83.6999969 24.4896516 85.6999969 24.4896516 85.6999969 25.6828571 83.6999969 25.6828571 83.6999969 24.4896516 83.6999969 24.4896516 83.6999969 24.4896516"></polygon>
                    <polygon id="path3938" fill="#FFFFFF" points="27.4091738 27.3372855 29.7328166 27.3372855 29.7328166 32.3000729 27.4091738 32.3000729 27.4091738 27.3372855 27.4091738 27.3372855 27.4091738 27.3372855"></polygon>
                    <path d="M15.4491114,32.4326308 L15.4491114,21.4304835 C15.9139362,21.4304835 15.985631,23.0430615 17.0520542,23.0430615 C17.6072361,23.0430615 17.5482052,22.3751053 17.2364939,21.8310477 C16.9604638,21.3492673 16.6188481,20.6838652 17.0829419,19.4443017 C17.4009604,20.392775 18.2569274,20.6937161 18.0987705,20.0989215 C17.8269892,19.0768067 17.0445421,18.9090876 17.6316115,17.3229734 C17.8355128,18.6461743 18.677802,18.5878626 18.4732263,17.8184942 C18.2427874,16.9518621 17.7665743,16.596696 18.354127,15.3750119 C18.683126,16.7623005 19.1282156,16.6809274 19.1282156,15.8202329 C19.1282156,14.5478261 19.0797384,13.1755585 20.7136891,12.6664162 C20.7136891,12.6664162 20.8080098,11.5 21.3973969,11.5 C21.9867841,11.5 22.0811048,12.6664162 22.0811048,12.6664162 C23.7150555,13.1755585 23.6665783,14.5478261 23.6665783,15.8202329 C23.6665783,16.6809274 24.1116679,16.7623005 24.4406669,15.3750119 C25.0282196,16.596696 24.5520065,16.9518621 24.3215676,17.8184942 C24.1169919,18.5878626 24.9592811,18.6461743 25.1631824,17.3229734 C25.7502518,18.9090876 24.9678046,19.0768067 24.6960234,20.0989215 C24.5378665,20.6937161 25.3938335,20.392775 25.711852,19.4443017 C26.1759458,20.6838652 25.83433,21.3492673 25.5583,21.8310477 C25.2465887,22.3751053 25.1875578,23.0430615 25.7427397,23.0430615 C26.8091628,23.0430615 26.8808577,21.4304835 27.3456825,21.4304835 L27.3456825,32.4326308 L15.4491114,32.4326308 L15.4491114,32.4326308 L15.4491114,32.4326308 L15.4491114,32.4326308 L15.4491114,32.4326308 Z" id="path3931" fill="#FFFFFF"></path>
                    <path d="M22.3980768,16.319479 L23.0824849,15.7398432 L23.0824849,14.9974899 C22.832101,15.0219911 22.6955019,15.1087791 22.510567,15.3530551 C22.3532754,14.8609961 22.0074297,14.4767574 21.5439065,14.2381696 C21.0803832,14.4767574 20.7345351,14.8435254 20.5772436,15.3355844 C20.3923087,15.0913084 20.2557119,15.0219911 20.0053257,14.9974899 L20.0053257,15.7398432 L20.6897338,16.319479 L22.3980768,16.319479 L22.3980768,16.319479 L22.3980768,16.319479 L22.3980768,16.319479 L22.3980768,16.319479 Z" id="path3920" fill="#FFFFFF"></path>
                    <path d="M22.7643838,18.3757553 L23.0824849,17.6818365 L23.0824849,16.7168264 C22.832101,16.7416745 22.6955019,16.8296909 22.510567,17.0774263 C22.3532754,16.5783985 22.0074297,16.1887164 21.5439065,15.9467499 C21.0803832,16.1887164 20.7345351,16.5606808 20.5772436,17.0597085 C20.3923087,16.8119731 20.2557119,16.7416745 20.0053257,16.7168264 L20.0053257,17.6818365 L20.3234267,18.3757553 L22.7643838,18.3757553 L22.7643838,18.3757553 L22.7643838,18.3757553 L22.7643838,18.3757553 L22.7643838,18.3757553 Z" id="path3922" fill="#FFFFFF"></path>
                    <path d="M22.9542839,20.9663761 L23.9709307,19.7169973 L23.9709307,18.4840629 C23.5990002,18.526137 23.3960915,18.6751736 23.1213818,19.0946507 C22.8877339,18.249671 22.3740004,18.065042 21.6854661,17.6553302 C20.9969318,18.065042 20.4831983,18.2196693 20.2495504,19.064649 C19.9748408,18.6451719 19.7719321,18.526137 19.4000015,18.4840629 L19.4000015,19.7169973 L20.4166483,20.9663761 L22.9542839,20.9663761 L22.9542839,20.9663761 L22.9542839,20.9663761 L22.9542839,20.9663761 L22.9542839,20.9663761 Z" id="path3924" fill="#FFFFFF"></path>
                    <path d="M23.2541079,23.5037651 C23.2541079,23.5037651 24.4388876,22.4622312 24.5091795,21.8905052 L24.5091795,20.5724103 C24.0500207,20.6267398 23.6157535,20.7466539 23.2766206,21.2883046 C22.9881764,20.1972218 22.5377369,19.8929519 21.6877258,19.3639106 C20.8377147,19.8929519 20.3872752,20.1972218 20.0988311,21.2883046 C19.7596981,20.7466539 19.325431,20.6267398 18.8662721,20.5724103 L18.8662721,21.8905052 C19.0158535,22.4622312 20.1213437,23.5037651 20.1213437,23.5037651 L20.1213437,23.5037651 L23.2541079,23.5037651 L23.2541079,23.5037651 L23.2541079,23.5037651 L23.2541079,23.5037651 L23.2541079,23.5037651 Z" id="path3926" fill="#FFFFFF"></path>
                    <path d="M23.5303601,28.0049611 C23.5303601,28.0049611 25.1530356,26.1948881 25.1902565,25.489662 L25.1902565,23.4345622 C24.5829969,23.5192664 24.0086552,23.9401191 23.5601326,24.7846284 C23.1786528,23.0834733 22.5829207,21.897346 21.4587375,21.0724909 C20.3345544,21.897346 19.7388223,23.0834733 19.3573425,24.7846284 C18.9088199,23.9401191 18.3344781,23.5192664 17.7272186,23.4345622 L17.7272186,25.489662 C17.8437289,26.1948881 19.387115,28.0049611 19.387115,28.0049611 L19.387115,28.0049611 L23.5303601,28.0049611 L23.5303601,28.0049611 L23.5303601,28.0049611 L23.5303601,28.0049611 L23.5303601,28.0049611 Z" id="path3928" fill="#FFFFFF"></path>
                    <path d="M23.5303601,30.7347798 C23.5303601,30.7347798 24.9172515,29.3123147 25.1902565,28.6946796 L25.1902565,26.6395798 C24.5829969,26.724284 24.0086552,27.1451368 23.5601326,27.989646 C23.1786528,26.288491 22.5829207,25.3145066 21.4587375,24.4896516 C20.3345544,25.3145066 19.7388223,26.288491 19.3573425,27.989646 C18.9088199,27.1451368 18.3344781,26.724284 17.7272186,26.6395798 L17.7272186,28.6946796 C18.079513,29.3123147 19.387115,30.7347798 19.387115,30.7347798 L19.387115,30.7347798 L23.5303601,30.7347798 L23.5303601,30.7347798 L23.5303601,30.7347798 L23.5303601,30.7347798 L23.5303601,30.7347798 Z" id="path3930" fill="#FFFFFF"></path>
                    <path d="M24.2706816,32.3321022 C23.8657813,30.5575954 23.5177051,29.2413063 21.5684261,27.9068123 C19.6191496,29.2413063 19.2711723,30.5575954 18.8662721,32.3321022 C18.8662721,32.3321022 19.2711723,30.5575954 18.8662721,32.3321022 L24.2706816,32.3321022 L24.2706816,32.3321022 L24.2706816,32.3321022 L24.2706816,32.3321022 L24.2706816,32.3321022 Z" id="path3932" fill="#FFFFFF"></path>
                    <path d="M25.0934318,33.0929283 L25.0934318,30.5223731 C24.2081993,30.8718557 23.4082239,31.3892071 23.1133311,31.9649439 C22.7836979,30.5378123 22.1487243,29.9091217 21.3577371,29.0458659 C20.5667498,29.9091217 20.0370349,30.5378123 19.7074017,31.9649439 C19.4125089,31.3892071 18.612451,30.8718557 17.7272186,30.5223731 L17.7273011,33.0929283 L25.0934318,33.0929283 L25.0934318,33.0929283 L25.0934318,33.0929283 L25.0934318,33.0929283 L25.0934318,33.0929283 Z" id="path3911" fill="#FFFFFF"></path>
                    <path d="M13.1710043,24.0790106 L13.1710349,32.4724822 L14.1183494,32.4724822 L14.1182763,24.0577953 C13.7768704,23.8841149 13.4563573,23.8573018 13.1710043,24.0790129 C13.1710043,24.0790129 13.4563573,23.8573018 13.1710043,24.0790129 L13.1710043,24.0790106 L13.1710043,24.0790106 L13.1710043,24.0790106 L13.1710043,24.0790106 L13.1710043,24.0790106 Z" id="path3934" fill="#FFFFFF"></path>
                    <path d="M13.1710043,29.5 C14.3451666,30.1049947 15.5080702,30.8048914 15.8024891,32.4626276 L13.1710043,32.4626276 L13.1710043,29.5 L13.1710043,29.5 L13.1710043,29.5 L13.1710043,29.5 L13.1710043,29.5 Z" id="path3936" fill="#FFFFFF"></path>
                    <path d="M29.1177542,26.8714342 L29.1177754,32.3482655 L29.8856204,32.3482655 L29.8856204,26.8575892 C29.6457361,26.7442614 29.3182556,26.7267646 29.1177542,26.8714413 C29.1177542,26.8714413 29.3182556,26.7267646 29.1177542,26.8714413 L29.1177542,26.8714342 L29.1177542,26.8714342 L29.1177542,26.8714342 L29.1177542,26.8714342 L29.1177542,26.8714342 Z" id="path3940" fill="#FFFFFF"></path>
                    <path d="M30.0406587,29.5 C28.8664964,30.1049947 27.7035927,30.8048914 27.4091738,32.4626276 L30.0406587,32.4626276 L30.0406587,29.5 L30.0406587,29.5 L30.0406587,29.5 L30.0406587,29.5 L30.0406587,29.5 Z" id="path3942" fill="#FFFFFF"></path>
                    <path d="M86.4482507,24.0790106 L86.4482201,32.4724822 L85.5009056,32.4724822 L85.5009056,24.0577953 C85.8423116,23.8841149 86.1628977,23.8573018 86.4482507,24.0790129 C86.4482507,24.0790129 86.1628977,23.8573018 86.4482507,24.0790129 L86.4482507,24.0790106 L86.4482507,24.0790106 L86.4482507,24.0790106 L86.4482507,24.0790106 L86.4482507,24.0790106 Z" id="path3964" fill="#FFFFFF"></path>
                    <path d="M71.8322629,32.4326308 L71.8322629,21.4304835 C72.2970876,21.4304835 72.3687825,23.0430615 73.4352056,23.0430615 C73.9903875,23.0430615 73.9313566,22.3751053 73.6196454,21.8310477 C73.3436153,21.3492673 73.0019995,20.6838652 73.4660933,19.4443017 C73.7841118,20.392775 74.6400788,20.6937161 74.4819219,20.0989215 C74.2101407,19.0768067 73.4276935,18.9090876 74.0147629,17.3229734 C74.2186643,18.6461743 75.0609534,18.5878626 74.8563777,17.8184942 C74.6259388,16.9518621 74.1497257,16.596696 74.7372784,15.3750119 C75.0662774,16.7623005 75.511367,16.6809274 75.511367,15.8202329 C75.511367,14.5478261 75.4628898,13.1755585 77.0968405,12.6664162 C77.0968405,12.6664162 77.1911612,11.5 77.7805484,11.5 C78.3699355,11.5 78.4642562,12.6664162 78.4642562,12.6664162 C80.0982069,13.1755585 80.0497297,14.5478261 80.0497297,15.8202329 C80.0497297,16.6809274 80.4948193,16.7623005 80.8238183,15.3750119 C81.411371,16.596696 80.9351579,16.9518621 80.7047191,17.8184942 C80.5001433,18.5878626 81.3424325,18.6461743 81.5463338,17.3229734 C82.1334032,18.9090876 81.3509561,19.0768067 81.0791748,20.0989215 C80.9210179,20.6937161 81.7769849,20.392775 82.0950034,19.4443017 C82.5590972,20.6838652 82.2174815,21.3492673 81.9414514,21.8310477 C81.6297401,22.3751053 81.5707092,23.0430615 82.1258911,23.0430615 C83.1923143,23.0430615 83.2640091,21.4304835 83.7288339,21.4304835 L83.7288339,32.4326308 L71.8322629,32.4326308 L71.8322629,32.4326308 L71.8322629,32.4326308 L71.8322629,32.4326308 L71.8322629,32.4326308 Z" id="path3939" fill="#FFFFFF"></path>
                    <path d="M78.7812282,16.319479 L79.4656363,15.7398432 L79.4656363,14.9974899 C79.2152525,15.0219911 79.0786533,15.1087791 78.8937184,15.3530551 C78.7364268,14.8609961 78.3905811,14.4767574 77.9270579,14.2381696 C77.4635347,14.4767574 77.1176866,14.8435254 76.960395,15.3355844 C76.7754601,15.0913084 76.6388633,15.0219911 76.3884771,14.9974899 L76.3884771,15.7398432 L77.0728852,16.319479 L78.7812282,16.319479 L78.7812282,16.319479 L78.7812282,16.319479 L78.7812282,16.319479 L78.7812282,16.319479 Z" id="path3331" fill="#FFFFFF"></path>
                    <path d="M79.1475353,18.3757553 L79.4656363,17.6818365 L79.4656363,16.7168264 C79.2152525,16.7416745 79.0786533,16.8296909 78.8937184,17.0774263 C78.7364268,16.5783985 78.3905811,16.1887164 77.9270579,15.9467499 C77.4635347,16.1887164 77.1176866,16.5606808 76.960395,17.0597085 C76.7754601,16.8119731 76.6388633,16.7416745 76.3884771,16.7168264 L76.3884771,17.6818365 L76.7065781,18.3757553 L79.1475353,18.3757553 L79.1475353,18.3757553 L79.1475353,18.3757553 L79.1475353,18.3757553 L79.1475353,18.3757553 Z" id="path3333" fill="#FFFFFF"></path>
                    <path d="M79.3732328,20.9663761 L80.3898795,19.7169973 L80.3898795,18.4840629 C80.017949,18.526137 79.8150403,18.6751736 79.5403306,19.0946507 C79.3066827,18.249671 78.7929493,18.065042 78.1044149,17.6553302 C77.4158806,18.065042 76.9021471,18.2196693 76.6684993,19.064649 C76.3937896,18.6451719 76.1908809,18.526137 75.8189503,18.4840629 L75.8189503,19.7169973 L76.8355971,20.9663761 L79.3732328,20.9663761 L79.3732328,20.9663761 L79.3732328,20.9663761 L79.3732328,20.9663761 L79.3732328,20.9663761 Z" id="path3335" fill="#FFFFFF"></path>
                    <path d="M79.6372593,23.5037651 C79.6372593,23.5037651 80.822039,22.4622312 80.8923309,21.8905052 L80.8923309,20.5724103 C80.4331721,20.6267398 79.998905,20.7466539 79.659772,21.2883046 C79.3713279,20.1972218 78.9208883,19.8929519 78.0708772,19.3639106 C77.2208662,19.8929519 76.7704266,20.1972218 76.4819825,21.2883046 C76.1428495,20.7466539 75.7085824,20.6267398 75.2494235,20.5724103 L75.2494235,21.8905052 C75.399005,22.4622312 76.5044952,23.5037651 76.5044952,23.5037651 L76.5044952,23.5037651 L79.6372593,23.5037651 L79.6372593,23.5037651 L79.6372593,23.5037651 L79.6372593,23.5037651 L79.6372593,23.5037651 Z" id="path3337" fill="#FFFFFF"></path>
                    <path d="M79.9135115,28.0049611 C79.9135115,28.0049611 81.5361871,26.1948881 81.5734079,25.489662 L81.5734079,23.4345622 C80.9661484,23.5192664 80.3918066,23.9401191 79.943284,24.7846284 C79.5618042,23.0834733 78.9660721,21.897346 77.841889,21.0724909 C76.7177058,21.897346 76.1219737,23.0834733 75.7404939,24.7846284 C75.2919713,23.9401191 74.7176295,23.5192664 74.11037,23.4345622 L74.11037,25.489662 C74.2268803,26.1948881 75.7702664,28.0049611 75.7702664,28.0049611 L75.7702664,28.0049611 L79.9135115,28.0049611 L79.9135115,28.0049611 L79.9135115,28.0049611 L79.9135115,28.0049611 L79.9135115,28.0049611 Z" id="path3339" fill="#FFFFFF"></path>
                    <path d="M79.9135115,30.7347798 C79.9135115,30.7347798 81.300403,29.3123147 81.5734079,28.6946796 L81.5734079,26.6395798 C80.9661484,26.724284 80.3918066,27.1451368 79.943284,27.989646 C79.5618042,26.288491 78.9660721,25.3145066 77.841889,24.4896516 C76.7177058,25.3145066 76.1219737,26.288491 75.7404939,27.989646 C75.2919713,27.1451368 74.7176295,26.724284 74.11037,26.6395798 L74.11037,28.6946796 C74.4626644,29.3123147 75.7702664,30.7347798 75.7702664,30.7347798 L75.7702664,30.7347798 L79.9135115,30.7347798 L79.9135115,30.7347798 L79.9135115,30.7347798 L79.9135115,30.7347798 L79.9135115,30.7347798 Z" id="path3341" fill="#FFFFFF"></path>
                    <path d="M80.653833,32.3321022 C80.2489328,30.5575954 79.9008565,29.2413063 77.9515776,27.9068123 C76.002301,29.2413063 75.6543238,30.5575954 75.2494235,32.3321022 C75.2494235,32.3321022 75.6543238,30.5575954 75.2494235,32.3321022 L80.653833,32.3321022 L80.653833,32.3321022 L80.653833,32.3321022 L80.653833,32.3321022 L80.653833,32.3321022 Z" id="path3343" fill="#FFFFFF"></path>
                    <path d="M86.4923253,29.5 C85.2268485,30.1049947 84.1096411,30.8048914 83.7923253,32.4626276 L86.4923253,32.4626276 L86.4923253,29.5 L86.4923253,29.5 L86.4923253,29.5 L86.4923253,29.5 L86.4923253,29.5 Z" id="path3966" fill="#FFFFFF"></path>
                    <path d="M70.322022,26.8714342 L70.3220008,32.3482655 L69.5541557,32.3482655 L69.5541557,26.8575892 C69.7940401,26.7442614 70.1215206,26.7267646 70.322022,26.8714413 C70.322022,26.8714413 70.1215206,26.7267646 70.322022,26.8714413 L70.322022,26.8714342 L70.322022,26.8714342 L70.322022,26.8714342 L70.322022,26.8714342 L70.322022,26.8714342 Z" id="path3970" fill="#FFFFFF"></path>
                    <path d="M70.322022,26.8714342 L70.3220008,32.3482655 L69.5541557,32.3482655 L69.5541557,26.8575892 C69.7940401,26.7442614 70.1215206,26.7267646 70.322022,26.8714413 C70.322022,26.8714413 70.1215206,26.7267646 70.322022,26.8714413 L70.322022,26.8714342 L70.322022,26.8714342 L70.322022,26.8714342 L70.322022,26.8714342 L70.322022,26.8714342 Z" id="path4004" fill="#FFFFFF"></path>
                    <path d="M69.5541557,29.5 C70.728318,30.1049947 71.8912217,30.8048914 72.1856405,32.4626276 L69.5541557,32.4626276 L69.5541557,29.5 L69.5541557,29.5 L69.5541557,29.5 L69.5541557,29.5 L69.5541557,29.5 Z" id="path4006" fill="#FFFFFF"></path>
                    <path d="M56.4550397,21.7400239 C56.4550397,19.6041236 58.2851958,19.3639106 58.2851958,19.3639106 L58.2851958,21.2647062 C57.5886071,21.2347045 57.2527421,21.8646163 57.2527421,22.802217 C57.2527421,23.7398178 57.8136277,23.7547485 57.8136277,23.7547485 L57.8136277,29.1493134 L56.4550397,29.1493134 L56.4550397,21.7400239 L56.4550397,21.7400239 L56.4550397,21.7400239 L56.4550397,21.7400239 L56.4550397,21.7400239 Z" id="rect3321" fill="#FFFFFF"></path>
                    <path d="M42.9079727,21.7400239 C42.9079727,19.6041236 41.0778166,19.3639106 41.0778166,19.3639106 L41.0778166,21.2647062 C41.7744053,21.2347045 42.1102703,21.8646163 42.1102703,22.802217 C42.1102703,23.7398178 41.5493848,23.7547485 41.5493848,23.7547485 L41.5493848,29.1493134 L42.9079727,29.1493134 L42.9079727,21.7400239 L42.9079727,21.7400239 L42.9079727,21.7400239 L42.9079727,21.7400239 L42.9079727,21.7400239 Z" id="path4325" fill="#FFFFFF"></path>
                    <path d="M81.4765832,33.0929283 L81.4765832,30.5223731 C80.5913507,30.8718557 79.7913754,31.3892071 79.4964826,31.9649439 C79.1668493,30.5378123 78.5318757,29.9091217 77.7408885,29.0458659 C76.9499012,29.9091217 76.4201864,30.5378123 76.0905531,31.9649439 C75.7956603,31.3892071 74.9956025,30.8718557 74.11037,30.5223731 L74.1104525,33.0929283 L81.4765832,33.0929283 L81.4765832,33.0929283 L81.4765832,33.0929283 L81.4765832,33.0929283 L81.4765832,33.0929283 Z" id="path5240" fill="#FFFFFF"></path>
                    <polygon id="path4136" fill="#FFFFFF" points="3.489049 54.1050443 96.0397619 54.1050443 96.0398279 58.8687708 3.48911738 58.8687779 3.489049 54.1050443 3.489049 54.1050443 3.489049 54.1050443"></polygon>
                    <polygon id="rect2997" fill="#FFFFFF" points="0.641415089 58.6612586 98.0707695 58.6612586 98.0708403 63.4179616 0.641485824 63.4179688 0.641415089 58.6612586 0.641415089 58.6612586 0.641415089 58.6612586"></polygon>
                    <polygon id="path4138" fill="#FFFFFF" points="8.04526326 46.6999969 90.8757724 46.6999969 90.8758313 50.1999942 8.0453222 50.1999969 8.04526326 46.6999969 8.04526326 46.6999969 8.04526326 46.6999969"></polygon>
                    <polygon id="path4140" fill="#FFFFFF" points="5.76715613 50.1183568 93.441076 50.1183568 93.4411396 54.1562574 5.76721979 54.1562598 5.76715613 50.1183568 5.76715613 50.1183568 5.76715613 50.1183568"></polygon>
                    <polygon id="path4134" fill="#FFFFFF" points="9.7538436 44.423089 89.6901974 44.423089 89.6902563 46.7701748 9.75390019 46.7701748 9.7538436 44.423089 9.7538436 44.423089 9.7538436 44.423089"></polygon>
                    <polygon id="path3823" fill="#FFFFFF" points="18 44.423089 24.0380981 44.423089 24.0380981 63.4064063 18 63.4064063 18 44.423089 18 44.423089 18 44.423089"></polygon>
                    <polygon id="path3825" fill="#FFFFFF" points="19.4357989 44.423089 22.7998059 44.423089 22.7997989 63.4068862 19.4358343 63.4068862 19.4357989 44.423089 19.4357989 44.423089 19.4357989 44.423089"></polygon>
                    <polygon id="path4502-2" fill="#FFFFFF" points="19.4357989 44.423089 22.7998059 44.423089 22.7997989 45.923089 19.4358343 45.923089 19.4357989 44.423089 19.4357989 44.423089 19.4357989 44.423089"></polygon>
                    <polygon id="path4502-3" fill="#FFFFFF" points="19.4357989 47.423089 22.7998059 47.423089 22.7997989 48.923089 19.4358343 48.923089 19.4357989 47.423089 19.4357989 47.423089 19.4357989 47.423089"></polygon>
                    <polygon id="path4502-4" fill="#FFFFFF" points="19.4357989 50.423089 22.7998059 50.423089 22.7997989 51.923089 19.4358343 51.923089 19.4357989 50.423089 19.4357989 50.423089 19.4357989 50.423089"></polygon>
                    <polygon id="path4502-5" fill="#FFFFFF" points="19.4357989 53.423089 22.7998059 53.423089 22.7997989 54.923089 19.4358343 54.923089 19.4357989 53.423089 19.4357989 53.423089 19.4357989 53.423089"></polygon>
                    <polygon id="path4502-6" fill="#FFFFFF" points="19.4357989 56.423089 22.7998059 56.423089 22.7997989 57.923089 19.4358343 57.923089 19.4357989 56.423089 19.4357989 56.423089 19.4357989 56.423089"></polygon>
                    <polygon id="path4502-7" fill="#FFFFFF" points="19.4357989 59.423089 22.7998059 59.423089 22.7997989 60.923089 19.4358343 60.923089 19.4357989 59.423089 19.4357989 59.423089 19.4357989 59.423089"></polygon>
                    <polygon id="path4502-8" fill="#FFFFFF" points="19.4357989 62.423089 22.7998059 62.423089 22.7997989 63.423089 19.4358343 63.423089 19.4357989 62.423089 19.4357989 62.423089 19.4357989 62.423089"></polygon>
                    <polygon id="path3823" fill="#FFFFFF" points="46.5 44.423089 52.5380981 44.423089 52.5380981 63.4064063 46.5 63.4064063 46.5 44.423089 46.5 44.423089 46.5 44.423089"></polygon>
                    <polygon id="path3825" fill="#FFFFFF" points="47.9357989 44.423089 51.2998059 44.423089 51.2997989 63.4068862 47.9358343 63.4068862 47.9357989 44.423089 47.9357989 44.423089 47.9357989 44.423089"></polygon>
                    <polygon id="path4502-2" fill="#FFFFFF" points="47.9357989 44.423089 51.2998059 44.423089 51.2997989 45.923089 47.9358343 45.923089 47.9357989 44.423089 47.9357989 44.423089 47.9357989 44.423089"></polygon>
                    <polygon id="path4502-3" fill="#FFFFFF" points="47.9357989 47.423089 51.2998059 47.423089 51.2997989 48.923089 47.9358343 48.923089 47.9357989 47.423089 47.9357989 47.423089 47.9357989 47.423089"></polygon>
                    <polygon id="path4502-4" fill="#FFFFFF" points="47.9357989 50.423089 51.2998059 50.423089 51.2997989 51.923089 47.9358343 51.923089 47.9357989 50.423089 47.9357989 50.423089 47.9357989 50.423089"></polygon>
                    <polygon id="path4502-5" fill="#FFFFFF" points="47.9357989 53.423089 51.2998059 53.423089 51.2997989 54.923089 47.9358343 54.923089 47.9357989 53.423089 47.9357989 53.423089 47.9357989 53.423089"></polygon>
                    <polygon id="path4502-6" fill="#FFFFFF" points="47.9357989 56.423089 51.2998059 56.423089 51.2997989 57.923089 47.9358343 57.923089 47.9357989 56.423089 47.9357989 56.423089 47.9357989 56.423089"></polygon>
                    <polygon id="path4502-7" fill="#FFFFFF" points="47.9357989 59.423089 51.2998059 59.423089 51.2997989 60.923089 47.9358343 60.923089 47.9357989 59.423089 47.9357989 59.423089 47.9357989 59.423089"></polygon>
                    <polygon id="path4502-8" fill="#FFFFFF" points="47.9357989 62.423089 51.2998059 62.423089 51.2997989 63.423089 47.9358343 63.423089 47.9357989 62.423089 47.9357989 62.423089 47.9357989 62.423089"></polygon>
                    <polygon id="path3823" fill="#FFFFFF" points="75 44.423089 81.0380981 44.423089 81.0380981 63.4064063 75 63.4064063 75 44.423089 75 44.423089 75 44.423089"></polygon>
                    <polygon id="path3825" fill="#FFFFFF" points="76.4357989 44.423089 79.7998059 44.423089 79.7997989 63.4068862 76.4358343 63.4068862 76.4357989 44.423089 76.4357989 44.423089 76.4357989 44.423089"></polygon>
                    <polygon id="path4502-2" fill="#FFFFFF" points="76.4357989 44.423089 79.7998059 44.423089 79.7997989 45.923089 76.4358343 45.923089 76.4357989 44.423089 76.4357989 44.423089 76.4357989 44.423089"></polygon>
                    <polygon id="path4502-3" fill="#FFFFFF" points="76.4357989 47.423089 79.7998059 47.423089 79.7997989 48.923089 76.4358343 48.923089 76.4357989 47.423089 76.4357989 47.423089 76.4357989 47.423089"></polygon>
                    <polygon id="path4502-4" fill="#FFFFFF" points="76.4357989 50.423089 79.7998059 50.423089 79.7997989 51.923089 76.4358343 51.923089 76.4357989 50.423089 76.4357989 50.423089 76.4357989 50.423089"></polygon>
                    <polygon id="path4502-5" fill="#FFFFFF" points="76.4357989 53.423089 79.7998059 53.423089 79.7997989 54.923089 76.4358343 54.923089 76.4357989 53.423089 76.4357989 53.423089 76.4357989 53.423089"></polygon>
                    <polygon id="path4502-6" fill="#FFFFFF" points="76.4357989 56.423089 79.7998059 56.423089 79.7997989 57.923089 76.4358343 57.923089 76.4357989 56.423089 76.4357989 56.423089 76.4357989 56.423089"></polygon>
                    <polygon id="path4502-7" fill="#FFFFFF" points="76.4357989 59.423089 79.7998059 59.423089 79.7997989 60.923089 76.4358343 60.923089 76.4357989 59.423089 76.4357989 59.423089 76.4357989 59.423089"></polygon>
                    <polygon id="path4502-8" fill="#FFFFFF" points="76.4357989 62.423089 79.7998059 62.423089 79.7997989 63.423089 76.4358343 63.423089 76.4357989 62.423089 76.4357989 62.423089 76.4357989 62.423089"></polygon>
                    <rect id="rect4518" fill="#FFFFFF" x="31.3958613" y="36.4497141" width="1.35297102" height="6.27090561"></rect>
                    <rect id="rect4520" fill="#FFFFFF" x="34.2434952" y="36.4497141" width="1.35297102" height="6.27090561"></rect>
                    <rect id="rect4522" fill="#FFFFFF" x="37.0911291" y="36.4497141" width="1.35297102" height="6.27090561"></rect>
                    <rect id="rect4524" fill="#FFFFFF" x="60.4417272" y="36.4497141" width="1.35297102" height="6.27090561"></rect>
                    <rect id="rect4526" fill="#FFFFFF" x="63.2893611" y="36.4497141" width="1.35297102" height="6.27090561"></rect>
                    <rect id="rect4528" fill="#FFFFFF" x="66.136995" y="36.4497141" width="1.35297102" height="6.27090561"></rect>
                </g>
            </g>
        </g>
    </g>
</svg>