<?xml version="1.0" encoding="UTF-8" standalone="no"?>
<svg width="180px" height="180px" viewBox="0 0 180 180" version="1.1" xmlns="http://www.w3.org/2000/svg" xmlns:xlink="http://www.w3.org/1999/xlink">
    <!-- Generator: Sketch 3.8.3 (29802) - http://www.bohemiancoding.com/sketch -->
    <title>cape_verde</title>
    <desc>Created with Sketch.</desc>
    <defs></defs>
    <g id="Page-1" stroke="none" stroke-width="1" fill="none" fill-rule="evenodd">
        <g id="flags" transform="translate(-2070.000000, -990.000000)">
            <g id="cape_verde" transform="translate(2070.000000, 990.000000)">
                <ellipse id="white" fill="#FFFFFF" cx="89.9972382" cy="90" rx="89.9972382" ry="90"></ellipse>
                <path d="M174.873463,120 C176.578613,115.175539 177.884099,110.162277 178.750138,105 L1.24433824,105 C2.11037759,110.162277 3.41586357,115.175539 5.12101363,120 L174.873467,120 L174.873463,120 Z" id="red" fill="#E94B35"></path>
                <path d="M167.954435,135.000025 C152.393486,161.901074 123.308914,180 89.9972382,180 C56.6855627,180 27.6009907,161.901074 12.0400414,135.000025 L167.954449,135 L167.954435,135.000025 Z M179.994476,90 C179.994476,40.2943701 139.701343,0 89.9972382,0 C40.2931336,0 0,40.2943701 0,90 L179.994476,90 L179.994476,90 Z" id="blue" fill="#227FBB"></path>
                <path d="M56.3648537,73.7412301 L58.8383982,66.125649 L61.3119387,73.7412301 L69.3195106,73.7412301 L62.8421821,78.4472442 L65.3157267,86.0628245 L58.8383982,81.3568063 L52.3610698,86.0628245 L54.8346102,78.4472442 L48.3572818,73.7412301 L56.3648537,73.7412301 L56.3648537,73.7412301 L56.3648537,73.7412301 L56.3648537,73.7412301 L56.3648537,73.7412301 Z M80.2573897,79.8969803 L86.7348555,75.1897587 L84.2596655,82.8048039 L90.7379272,87.5115365 L82.7315327,87.5115038 L80.2563465,95.1265507 L77.7822059,87.5120238 L69.775809,87.5119944 L76.253271,82.8047712 L73.7791279,75.1902476 L80.2573897,79.8969803 L80.2573897,79.8969803 L80.2573897,79.8969803 L80.2573897,79.8969803 L80.2573897,79.8969803 Z M95.9685981,98.9207671 L103.975813,98.9199037 L97.4973315,103.625724 L99.9718073,111.241378 L93.4945173,106.535311 L87.0160373,111.241135 L89.4901221,103.62659 L83.0128282,98.9205244 L91.0200415,98.9196574 L93.4941223,91.3051136 L95.9685981,98.9207671 L95.9685981,98.9207671 L95.9685981,98.9207671 L95.9685981,98.9207671 L95.9685981,98.9207671 Z M97.4973315,123.546151 L103.975812,128.251975 L95.9685981,128.251108 L93.4941223,135.866761 L91.0200415,128.252218 L83.012827,128.251355 L89.4901208,123.545289 L87.0160361,115.930744 L93.4945173,120.636564 L99.9718073,115.930497 L97.4973315,123.546151 L97.4973315,123.546151 L97.4973315,123.546151 L97.4973315,123.546151 L97.4973315,123.546151 Z M84.2596655,144.367071 L86.7348522,151.982119 L80.2573897,147.274895 L73.7791279,151.981627 L76.253271,144.367104 L69.7758057,139.659883 L77.7822026,139.659854 L80.2563432,132.045327 L82.7315327,139.660371 L90.7379272,139.660338 L84.2596655,144.367071 L84.2596655,144.367071 L84.2596655,144.367071 L84.2596655,144.367071 L84.2596655,144.367071 Z M61.3119387,153.430645 L58.8383941,161.046226 L56.3648537,153.430645 L48.3572818,153.430645 L54.8346102,148.724631 L52.3610657,141.10905 L58.8383941,145.815069 L65.3157226,141.10905 L62.8421821,148.724631 L69.3195106,153.430645 L61.3119387,153.430645 L61.3119387,153.430645 L61.3119387,153.430645 L61.3119387,153.430645 L61.3119387,153.430645 Z M37.4194027,147.274895 L30.9419369,151.982116 L33.4171269,144.367071 L26.9388651,139.660338 L34.9452596,139.660371 L37.4204458,132.045324 L39.8945865,139.659851 L47.9009834,139.659881 L41.4235214,144.367104 L43.8976644,151.981627 L37.4194027,147.274895 L37.4194027,147.274895 L37.4194027,147.274895 L37.4194027,147.274895 L37.4194027,147.274895 Z M21.7081942,128.251108 L13.7009789,128.251971 L20.1794609,123.546151 L17.7049851,115.930497 L24.1822751,120.636564 L30.660755,115.93074 L28.1866703,123.545285 L34.6639642,128.251351 L26.6567509,128.252218 L24.18267,135.866761 L21.7081942,128.251108 L21.7081942,128.251108 L21.7081942,128.251108 L21.7081942,128.251108 L21.7081942,128.251108 Z M20.1794609,103.625724 L13.7009802,98.9198999 L21.7081942,98.9207671 L24.18267,91.3051136 L26.6567509,98.9196574 L34.6639654,98.9205205 L28.1866715,103.626586 L30.6607563,111.241131 L24.1822751,106.535311 L17.7049851,111.241378 L20.1794609,103.625724 L20.1794609,103.625724 L20.1794609,103.625724 L20.1794609,103.625724 L20.1794609,103.625724 Z M33.4171269,82.8048039 L30.9419402,75.1897563 L37.4194027,79.8969803 L43.8976644,75.1902476 L41.4235214,82.8047712 L47.9009867,87.511992 L39.8945898,87.5120214 L37.4204491,95.1265483 L34.9452596,87.5115038 L26.9388651,87.5115365 L33.4171269,82.8048039 L33.4171269,82.8048039 L33.4171269,82.8048039 L33.4171269,82.8048039 L33.4171269,82.8048039 Z" id="stars" fill="#F2C500"></path>
            </g>
        </g>
    </g>
</svg>