<?xml version="1.0" encoding="UTF-8" standalone="no"?>
<svg width="180px" height="180px" viewBox="0 0 180 180" version="1.1" xmlns="http://www.w3.org/2000/svg" xmlns:xlink="http://www.w3.org/1999/xlink">
    <!-- Generator: Sketch 3.8.3 (29802) - http://www.bohemiancoding.com/sketch -->
    <title>central_african_republic</title>
    <desc>Created with Sketch.</desc>
    <defs></defs>
    <g id="Page-1" stroke="none" stroke-width="1" fill="none" fill-rule="evenodd">
        <g id="flags" transform="translate(-2610.000000, -990.000000)">
            <g id="central_african_republic" transform="translate(2610.000000, 990.000000)">
                <ellipse id="white" fill="#FFFFFF" cx="89.9972382" cy="90" rx="89.9972382" ry="90"></ellipse>
                <path d="M167.954449,135 L12.0400269,135 C27.6009907,161.901074 56.6855627,180 89.9972382,180 C123.308914,180 152.393486,161.901074 167.954435,135.000025 L167.954449,135 Z" id="yellow" fill="#F2C500"></path>
                <path d="M12.0400269,135 L167.954449,135 C175.611863,121.762218 179.994476,106.392932 179.994476,90 L0,90 C0,106.392932 4.3826134,121.762218 12.0400414,135.000025 L12.0400269,135 Z" id="green" fill="#1AAF5D"></path>
                <path d="M12.0400269,45 L167.954449,45 C152.393486,18.0989265 123.308914,0 89.9972382,0 C56.6855627,0 27.6009907,18.0989265 12.0400414,44.9999749 L12.0400269,45 Z" id="blue" fill="#227FBB"></path>
                <path d="M67,2.96508516 L67,177.034915 C74.3408789,178.969538 82.0487236,180 89.9972382,180 C97.9477465,180 105.657464,178.969021 113,177.033459 L113,2.96654104 C105.657464,1.03097859 97.9477465,0 89.9972382,0 C82.0487236,0 74.3408789,1.03046161 67,2.96508516 L67,2.96508516 Z" id="red" fill="#E94B35"></path>
                <polygon id="star" fill="#F2C500" points="46.3496248 34.0960529 41.0322878 36.9999998 42.0478086 30.8493422 37.745992 26.4934222 43.6909571 25.5960525 46.3496251 20 49.0082948 25.5960539 54.9532594 26.4934267 50.6514411 30.8493433 51.666962 37"></polygon>
            </g>
        </g>
    </g>
</svg>