<?xml version="1.0" encoding="UTF-8" standalone="no"?>
<svg width="180px" height="180px" viewBox="0 0 180 180" version="1.1" xmlns="http://www.w3.org/2000/svg" xmlns:xlink="http://www.w3.org/1999/xlink">
    <!-- Generator: Sketch 3.8.3 (29802) - http://www.bohemiancoding.com/sketch -->
    <title>china</title>
    <desc>Created with Sketch.</desc>
    <defs></defs>
    <g id="Page-1" stroke="none" stroke-width="1" fill="none" fill-rule="evenodd">
        <g id="flags" transform="translate(-720.000000, -1260.000000)">
            <g id="china" transform="translate(720.000000, 1260.000000)">
                <ellipse id="red" fill="#E94B35" cx="89.9753957" cy="90.0994277" rx="89.8122302" ry="89.7841727"></ellipse>
                <path d="M60.0490424,69.2814052 L41.5535445,78.6281583 L45.0858694,58.8314193 L30.1226951,44.8112913 L50.801296,41.9229834 L60.0490434,23.9113177 L69.2967965,41.9229878 L89.9753959,44.8113057 L75.0122155,58.8314231 L78.5445411,78.6281587 L60.0490424,69.2814052 L60.0490424,69.2814052 Z M90.7231187,27.7038035 L86.8287588,29.6718295 L87.5725152,25.503484 L84.4219114,22.5514454 L88.7759393,21.9432914 L90.7231189,18.1508058 L92.6702997,21.9432923 L97.0243273,22.5514484 L93.8737222,25.5034848 L94.6174787,29.6718296 L90.7231187,27.7038035 L90.7231187,27.7038035 Z M107.352374,41.0692431 L103.458015,43.0372691 L104.201771,38.8689235 L101.051167,35.9168849 L105.405195,35.3087309 L107.352375,31.5162454 L109.299555,35.3087319 L113.653583,35.9168879 L110.502978,38.8689243 L111.246734,43.0372691 L107.352374,41.0692431 L107.352374,41.0692431 Z M109.285176,61.1476457 L105.390816,63.1156716 L106.134572,58.9473261 L102.983969,55.9952875 L107.337997,55.3871335 L109.285176,51.594648 L111.232357,55.3871344 L115.586385,55.9952905 L112.435779,58.9473269 L113.179536,63.1156717 L109.285176,61.1476457 L109.285176,61.1476457 Z M93.7752292,78.6095912 L89.8808693,80.5776171 L90.6246257,76.4092716 L87.4740219,73.457233 L91.8280498,72.849079 L93.7752294,69.0565935 L95.7224102,72.8490799 L100.076438,73.457236 L96.9258327,76.4092724 L97.6695892,80.5776172 L93.7752292,78.6095912 L93.7752292,78.6095912 Z" id="stars" fill="#F2C500"></path>
            </g>
        </g>
    </g>
</svg>