<?xml version="1.0" encoding="UTF-8" standalone="no"?>
<svg width="180px" height="180px" viewBox="0 0 180 180" version="1.1" xmlns="http://www.w3.org/2000/svg" xmlns:xlink="http://www.w3.org/1999/xlink">
    <!-- Generator: Sketch 3.8.3 (29802) - http://www.bohemiancoding.com/sketch -->
    <title>christmas_island</title>
    <desc>Created with Sketch.</desc>
    <defs></defs>
    <g id="Page-1" stroke="none" stroke-width="1" fill="none" fill-rule="evenodd">
        <g id="flags" transform="translate(-990.000000, -1260.000000)">
            <g id="christmas_island" transform="translate(990.000000, 1260.000000)">
                <circle id="green" fill="#1AAF5D" cx="90" cy="90" r="90"></circle>
                <path d="M153.63961,153.63961 C137.352814,169.926407 114.852814,180 90,180 C40.2943725,180 0,139.705627 0,90 C0,65.1471863 10.0735931,42.6471863 26.3603897,26.3603897 L153.63961,153.63961 Z" id="blue" fill="#227FBB"></path>
                <path d="M162.345061,73.0198882 C161.639262,70.2268433 155.321745,64.2114657 150.574224,60.3835766 C149.440776,59.6113585 148.702018,60.0713468 148.849708,61.1723004 C149.440776,62.1581621 149.884069,63.2419891 150.475138,64.2278508 C150.640288,64.8849769 150.951476,65.3449652 151.11662,66.0019189 C151.11662,66.0019189 151.165296,67.1355564 151.264386,67.234108 C152.742057,68.8611075 152.94023,70.2406757 152.94023,70.2406757 C153.793804,71.8836636 154.550016,73.0827032 156.045108,74.4300705 C157.720952,75.4818173 156.488401,78.7500282 156.53709,80.4920161 C156.53709,81.5924351 155.749573,81.4620619 155.059436,81.3299296 C149.621674,76.3354259 144.23255,76.3197308 139.484856,74.8733633 C137.628173,74.6769154 137.59523,75.5635183 138.203633,76.0555005 C141.522378,79.6053615 144.642779,82.0199982 148.750594,84.0400144 C149.440749,84.4676638 150.130903,84.8953132 150.821145,85.3229799 C151.608661,85.980106 152.397902,86.6372322 153.185419,87.2943583 C155.008987,88.4764955 155.158522,89.5611848 155.158522,89.6586326 C155.207198,91.8768215 154.023332,93.6013895 153.679126,94.2914582 C153.056771,96.6434869 151.80692,97.0520779 151.80692,97.0520779 C141.652683,103.903265 136.329616,105.676471 119.868175,103.557282 C119.621313,103.4269 118.044607,103.689402 119.868175,104.346523 C124.057742,105.742476 134.349269,107.981586 144.306023,103.266956 C146.696341,101.591112 148.295693,102.140459 150.02716,101.137419 C152.871257,99.383358 156.932159,97.1998365 157.671038,96.9547508 C159.889227,95.7708889 166.098983,94.4409415 167.529655,93.2570796 C169.170728,93.1249593 170.874444,92.9093891 170.989139,91.4978442 C171.528052,91.1484118 172.317293,91.40397 172.903084,90.2531335 C174.20516,90.0271407 173.986118,89.5612365 173.986118,89.5612365 C173.657555,88.6416049 172.440647,88.2626277 171.571481,87.5898581 C170.288515,87.1622087 169.40193,87.0300763 168.464878,87.4907683 C168.169344,87.6228886 167.87381,87.7532738 167.578275,87.8853889 C167.578275,87.8853889 166.197965,87.6872163 166.197965,87.5898547 C163.131377,87.4212268 163.430447,77.2583139 162.345585,73.0195915 L162.345061,73.0198882 Z" id="Shape" fill="#F2C500"></path>
                <path d="M35.2661938,76.3974753 L32.836467,74.1230482 L30.3775857,76.3658437 L30.6411189,73.0492885 L27.3542898,72.5246992 L30.1125281,70.6621881 L28.472715,67.7663715 L31.6488334,68.760995 L32.8907933,65.6732926 L34.0931565,68.7768108 L37.2818514,67.8226795 L35.6048997,70.697345 L38.3389378,72.595051 L35.04563,73.0773949 L35.2663843,76.3975706 L35.2661938,76.3974753 Z M43.8848545,103.949369 L41.2643853,102.202599 L38.7127053,104.044112 L39.6105285,101.0776 L37.0224531,99.2834591 L40.198381,99.1985892 L41.1489109,96.2457976 L42.2149533,99.1610505 L45.3908812,99.1314445 L42.8736911,101.018346 L43.885007,103.949415 L43.8848545,103.949369 Z M35.7466703,127.667512 L33.3169435,125.393085 L30.8580622,127.63588 L31.1215955,124.319325 L27.8347664,123.794736 L30.5930046,121.932225 L28.9531915,119.036408 L32.1293099,120.031032 L33.3712698,116.943329 L34.573633,120.046848 L37.7623279,119.092716 L36.0853762,121.967382 L38.8194144,123.865088 L35.5261065,124.347432 L35.7468608,127.667607 L35.7466703,127.667512 Z M13.9119039,99.8778094 L11.4821771,97.6033824 L9.02329586,99.8461778 L9.28682909,96.5296226 L6,96.0050334 L8.75823822,94.1425223 L7.11842511,91.2467056 L10.2945436,92.2413292 L11.5365034,89.1536268 L12.7388666,92.257145 L15.9275615,91.3030137 L14.2506099,94.1776791 L16.984648,96.0753851 L13.6913401,96.557729 L13.9120945,99.8779047 L13.9119039,99.8778094 Z M55.9272559,92.5994905 L53.4975291,90.3250634 L51.0386479,92.5678589 L51.3021811,89.2513037 L48.015352,88.7267144 L50.7735902,86.8642033 L49.1337771,83.9683866 L52.3098956,84.9630102 L53.5518555,81.8753078 L54.7542187,84.978826 L57.9429135,84.0246947 L56.2659619,86.8993601 L59,88.7970661 L55.7066921,89.2794101 L55.9274465,92.5995857 L55.9272559,92.5994905 Z" id="stars" fill="#FFFFFF"></path>
                <g id="circle" transform="translate(64.000000, 64.000000)">
                    <ellipse id="Oval" fill="#F2C500" cx="26" cy="26" rx="25.8057143" ry="25.8057143"></ellipse>
                    <path d="M10.24,14.4085714 C12.0053143,16.8304857 14.6805714,20.8911429 16.832,19.8311429 C18.5109429,19.8369143 19.3777714,19.9549743 19.6052571,21.0723429 C23.5649714,21.7462286 30.2204,20.0759143 34.3615429,14.6820571 C34.3615429,14.6820571 34.71,14.7281343 34.5890486,12.6777143 C34.6120771,11.7849714 35.8100771,11.9635143 35.8388771,12.2543714 C36.0059057,12.6978571 35.9771057,13.0290571 36.2017343,13.0405714 C36.7114486,12.8706629 37.4083914,11.7273714 37.9929914,11.0016571 C38.15138,10.682 38.0649857,10.3450571 38.1024229,9.94188571 C38.4105657,9.18448571 39.17948,9.34865714 39.3407371,9.74606 C39.4876057,10.0023629 39.4904857,10.1982029 39.63448,10.4544886 C40.4149086,10.9757457 41.8231371,10.4890457 41.9325657,10.4890457 C42.0707971,9.85261714 42.4797371,9.91307429 42.4797371,9.91307429 C43.0009943,9.79788286 42.7965086,9.84395714 43.1392229,10.0225086 C42.8368514,13.4525086 43.8131086,13.60508 43.73248,15.3645086 C43.7670371,17.3285371 43.1392229,17.8872229 43.1392229,18.6359371 C43.3379314,19.5517086 46.2349371,19.5833943 45.2155657,20.35808 C44.3199371,20.8361371 45.2184514,21.7317371 43.87068,22.0802229 C39.9483943,24.0701657 39.19668,25.7779371 39.19668,25.7779371 C39.19668,25.7779371 38.2117943,27.6383086 38.1023371,27.6383086 C37.4457371,28.8795086 36.61348,28.2027657 36.1498229,28.8075086 C35.9194371,29.5677943 35.6602514,31.25248 36.1210229,32.12808 C36.3514086,33.3318514 36.0922257,33.9884514 35.8042514,35.19208 C35.5450686,37.70328 34.5486514,38.0835086 34.4334514,38.9646514 C33.97268,39.9063657 34.5313657,44.3297943 34.0936229,44.3297943 C31.1736229,44.3873914 28.9359086,43.7711086 27.7810514,43.5407371 C28.9070514,38.6881657 28.4693371,34.4261657 28.4693371,33.9884514 C28.1813657,30.5181657 23.2713371,31.3620514 22.5196229,30.9013086 C21.8975657,30.7688343 21.5059371,30.2619943 21.2870514,30.0431371 C20.5930229,29.96826 20.3338229,29.8098714 19.6397943,29.73788 C19.2942229,29.9106714 19.5015629,30.0892229 18.7297657,30.3282514 C16.77148,30.5643971 15.9075371,28.6205086 15.9075371,28.6205086 C16.0025714,27.9667943 11.5043943,28.75298 9.05925143,28.1856514 C8.05708,28.7443371 7.61933714,30.3973657 6.79859429,30.5931657 C6.77556571,31.1057657 5.44796571,30.1727086 5.18013714,29.6687371 C5.12542,28.2029086 6.45876571,27.5549657 6.45876571,27.5549657 C7.51853714,26.80908 8.14633714,26.6881371 8.65608,26.1726514 C8.91238286,24.89688 8.78279143,23.9523086 9.32708,22.9932229 C9.78785143,22.2617371 10.46748,22.6044514 10.9282514,22.2761371 C11.4235657,21.9478514 11.6337943,19.7995086 11.1759171,19.2121371 C11.1759171,19.2121371 9.19460286,17.4237657 9.08517429,17.3143371 C8.44008857,15.4655086 9.83968857,14.2731943 10.2399743,14.4086229 L10.24,14.4085714 Z" id="Shape" fill="#1C8A42"></path>
                </g>
            </g>
        </g>
    </g>
</svg>