<?xml version="1.0" encoding="UTF-8" standalone="no"?>
<svg width="180px" height="180px" viewBox="0 0 180 180" version="1.1" xmlns="http://www.w3.org/2000/svg" xmlns:xlink="http://www.w3.org/1999/xlink">
    <!-- Generator: Sketch 3.8.3 (29802) - http://www.bohemiancoding.com/sketch -->
    <title>cocos_islands</title>
    <desc>Created with Sketch.</desc>
    <defs></defs>
    <g id="Page-1" stroke="none" stroke-width="1" fill="none" fill-rule="evenodd">
        <g id="flags" transform="translate(-1260.000000, -1260.000000)">
            <g id="cocos_islands" transform="translate(1260.000000, 1260.000000)">
                <circle id="green" fill="#1AAF5D" cx="90" cy="90" r="90"></circle>
                <path d="M109,106.5037 C104.964688,110.179806 99.5993672,112.42112 93.7105598,112.42112 C81.167864,112.42112 71,102.253256 71,89.7105598 C71,77.167864 81.167864,67 93.7105598,67 C99.5993672,67 104.964688,69.2413137 109,72.9174197 C106.522358,71.7041314 103.736685,71.0230135 100.791929,71.0230135 C90.4710818,71.0230135 82.1043823,79.389713 82.1043823,89.7105598 C82.1043823,100.031407 90.4710818,108.398106 100.791929,108.398106 C103.736685,108.398106 106.522358,107.716988 109,106.5037 Z" id="moon" fill="#F2C500"></path>
                <g id="tree" transform="translate(20.000000, 43.000000)">
                    <ellipse id="circle" fill="#F2C500" cx="20.3901786" cy="20" rx="20.1339286" ry="19.8915009"></ellipse>
                    <path d="M19.0009375,34.9981917 L24.0283795,34.9981917 C24.0283795,34.9981917 24.2553071,34.5428933 23.9777554,34.3152441 C23.7002037,34.0875949 22.6190996,34.0374864 22.911188,33.2322061 C23.5116733,31.5766004 23.5954671,32.0870705 23.9725206,28.154991 C24.3495742,24.2229114 24.531109,18.0557143 24.531109,18.0557143 L23.8049331,18.0557143 C23.8049331,18.0557143 23.9445821,19.9734358 23.5256389,22.4707233 C23.1066958,24.9680108 22.9810162,25.1886257 22.5201688,27.1063472 C22.0593215,29.0240687 21.9895117,29.1897107 21.5705612,30.3072514 C21.1516108,31.424792 21.1097139,31.4799819 20.4533662,32.5146655 C19.7970184,33.5494213 20.0344157,33.1631103 19.6713278,33.7839602 C19.489782,34.0943761 19.2663429,34.0116094 19.1441483,34.2375226 C19.0219555,34.4634539 19.0010071,34.9980651 19.0010071,34.9980651 L19.0009375,34.9981917 Z" id="trunk" fill="#802000"></path>
                    <path d="M22.8373661,5.50813743 C22.8791293,6.27958409 22.8006326,7.30086799 22.4770054,8.13200723 C22.1488589,9.05815552 21.7920308,9.98137432 21.8096938,10.9405063 C21.2880054,11.1158137 20.7503379,9.82517179 20.2481795,10.5844846 C20.6256723,11.6335986 21.4971969,12.4642315 22.0942777,13.4094394 C22.1949858,13.7024774 23.0540804,14.4676311 22.5570103,14.6455696 C21.3023554,14.2213382 20.9982415,12.6508137 20.2200103,11.6971067 C19.3161799,10.0920976 17.6311531,8.95768535 15.7539388,8.87938517 C15.0488121,8.89763834 12.7561799,8.70672694 13.3526933,9.89962025 C14.2312098,10.4897107 15.3137379,10.8744846 16.1811442,11.5368174 C16.8274433,11.5965497 17.9988719,12.6624593 17.9305813,13.065208 C16.7938929,12.6103617 16.2618629,12.065226 15.0371527,11.5867631 C13.3777875,10.9535986 11.082483,11.3344304 10.1638268,12.9614647 C9.99255661,13.385208 9.73969643,14.6202532 10.2783101,14.7379204 C10.9076601,13.7671248 11.8079213,12.6818626 13.1419039,12.9730018 C14.1896735,13.0538192 11.9727267,14.9013924 12.820786,14.5296745 C13.0895008,14.411868 13.7100284,14.0094394 14.1405101,13.9674141 C14.5709735,13.9253888 14.8113909,14.2437613 15.1379999,14.2878119 C15.7912177,14.3759096 15.9710869,14.6464557 15.9105387,14.8038517 C15.8391054,14.9895479 15.631574,14.831 14.9675387,15.0390054 C14.6355119,15.1430072 14.4620856,15.4312658 14.0748003,15.5632188 C13.6875333,15.6951826 12.8819017,15.7045353 12.5808445,15.5875154 C11.5275289,15.1355081 9.80071504,15.2141881 9.47234897,16.5182206 C9.47205612,17.0916564 8.95552933,16.4548608 8.71681415,16.7025967 C8.53781438,17.3283291 8.49151549,17.9708065 7.55210299,17.9139892 C6.98185522,18.5050199 6.39787978,19.117009 5.67379049,19.5375154 C6.0987079,20.5010597 7.78236192,18.5697758 7.70365656,19.3841013 C6.96766996,20.3756383 8.08233915,20.5842821 8.57029406,19.8210995 C9.39556549,18.9596166 10.4176735,17.9109729 11.6491378,18.7791826 C12.2356575,19.3247342 12.57647,18.4907378 13.0009847,18.5354033 C13.2684365,19.2130705 13.6049659,18.5687559 13.9085307,18.3771754 C14.4054726,18.3160108 14.2656517,18.9903761 14.8561249,18.5749693 C16.0329164,17.8055118 17.480674,18.4520759 18.6303213,17.7034141 C19.8539517,17.1526365 18.802115,18.1470307 18.4643829,18.5357468 C17.9267521,19.5659458 18.3930045,20.918387 17.2268236,21.55817 C16.7583803,22.7859277 17.7802687,24.4044629 16.7379901,25.3127812 C16.5863706,25.8823291 18.0784338,25.8171031 18.4972013,26.0511537 C19.2309914,26.0798626 18.465666,24.391877 19.1937254,24.1656203 C20.1701111,24.7627089 20.1243888,23.0978264 19.9227749,22.5843002 C20.0174263,21.4169946 20.0841063,20.1407197 20.6712446,19.083396 C21.2954329,17.787519 21.8731669,19.6111718 21.174428,20.1242278 C20.7775151,21.3158373 20.1997629,22.8070488 21.1022699,23.9151863 C21.3623819,23.9726962 21.575948,24.595566 21.9127337,24.7870127 C22.2495194,24.9784593 22.7095065,24.738472 22.793465,24.1717866 C23.2254475,22.4652948 23.0078364,20.6301953 23.6247217,18.9705208 C24.060127,18.4564159 24.6607587,18.8876275 24.930773,19.3603761 C25.7952507,20.3519313 26.4029292,21.5914792 27.4495275,22.4084774 C28.4024663,22.8490199 29.2452176,23.5153671 29.6843935,24.4846076 C29.6785199,25.2324014 31.834148,25.3470307 31.1900087,24.5158409 C30.5719337,23.7066727 30.9797373,22.8973237 31.6057743,22.3592405 C31.9410592,22.4409421 31.8419636,21.8476854 31.5790822,22.0823508 C31.1581916,21.9842604 31.1312671,21.2231826 31.7162986,21.5849367 C32.7016897,21.8992043 31.6394785,20.8803797 31.2833276,20.849132 C30.4501491,20.338915 29.4928906,19.7519168 29.0832383,18.8650452 C30.1678348,18.8759729 31.2937607,19.453906 32.4020419,19.095425 C33.2904607,18.6444846 34.1915638,19.1330398 34.5018276,19.9067089 C35.1885776,19.7984394 34.8957937,19.1180289 34.5018276,18.8914105 C35.0041325,18.6866184 35.351516,18.2620253 34.7424647,17.8875226 C34.4207977,17.4728029 35.1738067,16.765425 34.24825,16.7949005 C34.2784783,16.0964014 34.0001267,15.4572333 33.2294732,15.2159132 C32.4574651,14.5700362 30.1919955,16.1674503 30.2577053,14.7115732 C30.0294415,13.9192043 31.1779723,14.6057161 31.4989071,14.2105244 C31.8305312,13.3751899 29.9186317,13.4567089 30.5495008,12.8090778 C30.9615325,12.5469801 32.8951035,12.1704882 31.3787625,11.8900904 C30.6219647,12.0955877 29.9724625,11.9434159 29.3769008,11.5733996 C28.8340718,12.4703797 27.2840705,11.0862749 27.5602348,12.6810127 C27.3481879,13.2819168 25.9627357,14.8432188 25.5878419,13.6470705 C25.9067267,12.7095479 27.5481544,12.4030018 27.0391504,11.1389331 C26.9610271,10.3498553 26.2988442,11.2761609 25.9868781,11.2173237 C25.8289036,10.7261483 26.4646562,10.1471971 26.9077674,10.0306148 C27.7870343,10.6987523 27.813666,9.18768535 28.6498647,9.31061483 C29.2603803,9.17660217 28.4527169,8.91788427 28.2824388,8.80435805 C28.4497463,8.36283906 29.3869861,8.13723327 28.4679638,7.75383363 C27.657079,7.15940325 27.0560629,8.34551537 26.3872138,8.40877034 C25.7452709,7.69276673 26.9700361,7.34858951 27.3081031,6.97153707 C27.3262767,6.69047016 26.5939526,6.88673779 26.814291,6.64189873 C27.0056732,6.30392405 28.3023897,6.27877034 27.6951504,5.77164557 C26.7806125,5.46146474 25.6004897,5.53880651 24.7230165,5.9406528 C24.1701937,6.11745931 24.0075482,7.35238879 23.5310513,7.30117722 C23.3070156,6.75148463 23.6039965,5.66696383 22.8370348,5.50792224 L22.8373661,5.50813743 Z M27.1615848,17.5730561 C27.8584384,17.4564738 27.1763759,18.6185895 26.8412723,18.6015371 C26.8708838,18.1839602 25.8333862,18.2241591 26.4770862,17.8603436 C26.6858384,17.72717 26.9184219,17.6255877 27.1615848,17.5730561 L27.1615848,17.5730561 Z" id="leaves" fill="#1AAF5D"></path>
                </g>
                <path d="M143.362774,111.265578 L144.714284,115.467693 L148.842283,113.904371 L146.39959,117.580999 L150.195609,119.833683 L145.798111,120.216249 L146.403672,124.588622 L143.362774,121.389045 L140.321877,124.588622 L140.927437,120.216249 L136.529939,119.833683 L140.325959,117.580999 L137.883266,113.904371 L142.011264,115.467693 L143.362774,111.265578 Z M118.832835,72.4265077 L120.184345,76.6286222 L124.312343,75.0652998 L121.869651,78.7419285 L125.66567,80.9946118 L121.268172,81.3771783 L121.873733,85.7495509 L118.832835,82.5499748 L115.791937,85.7495509 L116.397498,81.3771783 L112,80.9946118 L115.796019,78.7419285 L113.353327,75.0652998 L117.481325,76.6286222 L118.832835,72.4265077 Z M143.362774,45.8524067 L144.714284,50.0545212 L148.842283,48.4911988 L146.39959,52.1678275 L150.195609,54.4205108 L145.798111,54.8030773 L146.403672,59.1754499 L143.362774,55.9758738 L140.321877,59.1754499 L140.927437,54.8030773 L136.529939,54.4205108 L140.325959,52.1678275 L137.883266,48.4911988 L142.011264,50.0545212 L143.362774,45.8524067 Z M165.167165,65.8851905 L166.518675,70.0873051 L170.646673,68.5239826 L168.203981,72.2006113 L172,74.4532947 L167.602502,74.8358611 L168.208063,79.2082337 L165.167165,76.0086576 L162.126267,79.2082337 L162.731828,74.8358611 L158.33433,74.4532947 L162.130349,72.2006113 L159.687657,68.5239826 L163.815655,70.0873051 L165.167165,65.8851905 Z M153.17475,85.5675467 L154.242775,88.1858597 L157.062977,88.3925085 L154.902851,90.2173638 L155.577806,92.9633929 L153.17475,91.4729024 L150.771694,92.9633929 L151.44665,90.2173638 L149.286524,88.3925085 L152.106725,88.1858597 L153.17475,85.5675467 Z" id="star" fill="#F2C500"></path>
            </g>
        </g>
    </g>
</svg>