<?xml version="1.0" encoding="UTF-8" standalone="no"?>
<svg width="180px" height="180px" viewBox="0 0 180 180" version="1.1" xmlns="http://www.w3.org/2000/svg" xmlns:xlink="http://www.w3.org/1999/xlink">
    <!-- Generator: Sketch 3.8.3 (29802) - http://www.bohemiancoding.com/sketch -->
    <title>colombia</title>
    <desc>Created with Sketch.</desc>
    <defs></defs>
    <g id="Page-1" stroke="none" stroke-width="1" fill="none" fill-rule="evenodd">
        <g id="flags" transform="translate(-1530.000000, -1260.000000)">
            <g id="colombia" transform="translate(1530.000000, 1260.000000)">
                <path d="M167.959604,135 L12.0403964,135 C27.6018377,161.901074 56.6873022,180 90,180 C123.312698,180 152.398162,161.901074 167.959589,135.000025 C167.959589,135.000025 152.398162,161.901074 167.959589,135.000025 L167.959604,135 L167.959604,135 L167.959604,135 Z" id="red" fill="#E94B35"></path>
                <path d="M167.959589,135.000025 C175.617234,121.762249 179.99998,106.393004 180,90.0001146 L0,90 C0,106.392932 4.38274789,121.762218 12.0404109,135.000025 L167.959604,135 L167.959604,135 L167.959589,135.000025 L167.959589,135.000025 L167.959589,135.000025 Z" id="blue" fill="#227FBB"></path>
                <path d="M179.999969,89.92449 C179.959185,40.2535678 139.680458,0 90,0 C40.6297093,0 0.54412058,39.7525118 0.00549254905,88.9952769 L0.00549283143,89.9972381 L179.999969,89.9972381 L179.999969,89.92449 L179.999969,89.92449 L179.999969,89.92449 L179.999969,89.92449 L179.999969,89.92449 Z" id="yellow" fill="#F2C500"></path>
            </g>
        </g>
    </g>
</svg>