<?xml version="1.0" encoding="UTF-8" standalone="no"?>
<svg width="180px" height="180px" viewBox="0 0 180 180" version="1.1" xmlns="http://www.w3.org/2000/svg" xmlns:xlink="http://www.w3.org/1999/xlink">
    <!-- Generator: Sketch 3.8.3 (29802) - http://www.bohemiancoding.com/sketch -->
    <title>comoros</title>
    <desc>Created with Sketch.</desc>
    <defs></defs>
    <g id="Page-1" stroke="none" stroke-width="1" fill="none" fill-rule="evenodd">
        <g id="flags" transform="translate(-1800.000000, -1260.000000)">
            <g id="comoros" transform="translate(1800.000000, 1260.000000)">
                <ellipse id="white" fill="#FFFFFF" cx="89.9972382" cy="90" rx="89.9972382" ry="90"></ellipse>
                <path d="M45,135 L167.954449,135 L167.954435,135.000025 C152.393486,161.901074 123.308914,180 89.9972382,180 C65.1453958,180 42.6462564,169.926578 26.3599865,153.640013 L45,135 L45,135 Z" id="blue" fill="#227FBB"></path>
                <path d="M45,135 L167.954449,135 C175.611863,121.762218 179.994476,106.392932 179.994476,90 L90,90 L45,135 L45,135 Z" id="red" fill="#E94B35"></path>
                <path d="M45,45 L167.954449,45 C152.393486,18.0989265 123.308914,0 89.9972382,0 C65.1453916,0 42.6462488,10.0734257 26.3599843,26.3599843 L45,45 L45,45 Z" id="yellow" fill="#F2C500"></path>
                <path d="M26.3603888,26.3603888 L90,90 L26.3603888,153.639611 C10.0735925,137.352815 0,114.852815 0,90 C0,65.147185 10.0735925,42.647185 26.3603888,26.3603888 L26.3603888,26.3603888 Z" id="green" fill="#1AAF5D"></path>
                <path d="M48.4498984,119.893368 C46.2578728,120.399372 43.9755608,120.666667 41.6313183,120.666667 C24.8300658,120.666667 11.2099609,106.936734 11.2099609,90 C11.2099609,73.0632669 24.8300658,59.3333333 41.6313183,59.3333333 C43.9755608,59.3333333 46.2578728,59.6006279 48.4498984,60.1066329 C34.9316147,63.2271794 24.8471211,75.4264127 24.8471211,90 C24.8471211,104.573587 34.9316147,116.772821 48.4498984,119.893368 C48.4498984,119.893368 34.9316147,116.772821 48.4498984,119.893368 L48.4498984,119.893368 Z M47.400886,73.0804598 L43.3930256,75.0411196 L44.1584586,70.8883759 L40.916031,67.9473866 L45.3969562,67.3415089 L47.4008862,63.5632184 L49.4048172,67.3415098 L53.8857422,67.9473896 L50.6433133,70.8883766 L51.4087464,75.0411197 L47.400886,73.0804598 L47.400886,73.0804598 Z M47.400886,86.8275862 L43.3930256,88.788246 L44.1584586,84.6355023 L40.916031,81.694513 L45.3969562,81.0886353 L47.4008862,77.3103448 L49.4048172,81.0886363 L53.8857422,81.694516 L50.6433133,84.6355031 L51.4087464,88.7882461 L47.400886,86.8275862 L47.400886,86.8275862 Z M47.400886,100.574713 L43.3930256,102.535372 L44.1584586,98.3826287 L40.916031,95.4416395 L45.3969562,94.8357617 L47.4008862,91.0574713 L49.4048172,94.8357627 L53.8857422,95.4416424 L50.6433133,98.3826295 L51.4087464,102.535372 L47.400886,100.574713 L47.400886,100.574713 Z M47.400886,113.264368 L43.3930256,115.225027 L44.1584586,111.072284 L40.916031,108.131294 L45.3969562,107.525417 L47.4008862,103.747126 L49.4048172,107.525417 L53.8857422,108.131298 L50.6433133,111.072285 L51.4087464,115.225027 L47.400886,113.264368 L47.400886,113.264368 Z" id="white" fill="#FFFFFF"></path>
            </g>
        </g>
    </g>
</svg>