<?xml version="1.0" encoding="UTF-8" standalone="no"?>
<svg width="180px" height="180px" viewBox="0 0 180 180" version="1.1" xmlns="http://www.w3.org/2000/svg" xmlns:xlink="http://www.w3.org/1999/xlink">
    <!-- Generator: Sketch 3.8.3 (29802) - http://www.bohemiancoding.com/sketch -->
    <title>costa_rica</title>
    <desc>Created with Sketch.</desc>
    <defs></defs>
    <g id="Page-1" stroke="none" stroke-width="1" fill="none" fill-rule="evenodd">
        <g id="flags" transform="translate(-2610.000000, -1260.000000)">
            <g id="costa_rica" transform="translate(2610.000000, 1260.000000)">
                <circle id="white" fill="#FFFFFF" cx="90" cy="90" r="90"></circle>
                <path d="M157.083197,150 C140.603581,168.412481 116.654996,180 90,180 C63.3450038,180 39.3964193,168.412481 22.916803,150 L157.083197,150 L157.083197,150 Z M157.083197,30 C140.603581,11.5875189 116.654996,0 90,0 C63.3450038,0 39.3964193,11.5875189 22.916803,30 L157.083197,30 L157.083197,30 Z" id="blue" fill="#227FBB"></path>
                <path d="M5.12116698,120 L174.878833,120 C178.195374,110.616633 180,100.519063 180,90 C180,79.480937 178.195374,69.3833673 174.878829,59.9999996 L5.12116698,60 C1.80462645,69.3833673 0,79.480937 0,90 C0,100.519063 1.80462645,110.616633 5.12117078,120 L5.12116698,120 Z" id="red" fill="#E94B35"></path>
                <g id="emblem" transform="translate(30.000000, 61.000000)">
                    <ellipse id="Oval" fill="#FFFFFF" cx="25.875" cy="29.025" rx="25.875" ry="29.025"></ellipse>
                    <g id="shape" transform="translate(4.218367, 4.652586)">
                        <path d="M20.7700769,6.36877356 L18.7143815,6.43070075 C17.4017696,6.56005598 16.9027403,7.0882859 17.7178096,8.08763981 C15.6017159,8.43375359 13.5321258,8.93887788 11.6195303,9.99398927 C11.0818932,9.90082826 10.4576065,10.2151785 10.2784625,10.7555445 C10.1291383,11.1920796 10.4931738,11.6560118 11.1404457,11.4718837 C10.712356,12.6484094 5.65486543,12.5114771 5.52617297,14.4711226 C5.90929709,14.1303331 6.33109047,13.8415232 6.75187893,14.1330354 L6.46187482,15.048539 C5.72545658,15.277455 5.20802059,15.4041027 4.8996714,16.245238 C4.58114988,17.0890382 4.12387634,18.3766508 3.80532405,19.0101564 C3.59611932,19.3029528 3.54576006,19.613964 3.54576006,19.7683405 C3.54576006,20.1330062 3.79536191,20.6419992 4.37251941,20.6419992 C4.95989025,20.6419992 5.24896121,20.2580592 5.24896121,19.8720965 C5.21481823,19.6035081 5.11340343,19.2881947 4.49270072,19.3247956 C5.53459694,19.0641267 6.4351878,19.4293114 7.04024745,19.8319265 C7.876287,20.4760806 8.08552761,21.725059 7.59782934,22.7525057 C7.11979581,23.7506823 5.90519021,24.3333534 4.09370283,23.5960383 C2.62035361,22.9918027 1.13818561,23.7824353 0.650487334,25.1559101 C-1.56922689,31.4246138 2.31210696,36.5091399 6.71185096,39.4741325 C11.2906364,42.5618236 12.1061672,43.4027342 13.3305401,44.9118249 C14.5646033,46.4184007 15.7592386,48.1437256 17.5508324,48.1437256 C17.8296029,48.1437256 18.0985188,48.0602232 18.3375484,47.9244735 C19.4652738,47.9244735 19.5385414,48.363668 21.0517288,48.3914344 L21.0517288,48.3931039 C21.0779805,48.3931039 21.1031853,48.3916592 21.1286367,48.3914344 C21.1538332,48.3916484 21.1779638,48.3931039 21.2039449,48.3931039 L21.2039449,48.3914344 C22.718773,48.3639554 22.7916303,47.9244735 23.919766,47.9244735 C24.1587853,48.0602232 24.4260964,48.1437256 24.7048413,48.1437256 C26.4964351,48.1437256 27.6910702,46.4184007 28.9251336,44.9118249 C30.1495065,43.4025736 30.9668317,42.561663 35.5453609,39.4741325 C39.9450023,36.5088724 43.8262849,31.4240787 41.6067245,25.1559101 C41.1190057,23.7824139 39.6352688,22.9918027 38.1619196,23.5960383 C36.3504322,24.3333534 35.1374416,23.7506716 34.6594338,22.7525057 C34.1717149,21.725059 34.3809658,20.4760806 35.2170156,19.8319265 C35.8221266,19.4293168 36.7210768,19.0641107 37.7629729,19.3247956 C37.1422754,19.2881819 37.042449,19.6035028 37.0083019,19.8720965 C37.0083019,20.2580538 37.297378,20.6419992 37.8847437,20.6419992 C38.4619114,20.6419992 38.7099137,20.1329955 38.7099137,19.7683405 C38.7099137,19.6139587 38.6611566,19.3029528 38.4519545,19.0101564 C38.1334329,18.3766508 37.6745187,17.0889847 37.3560177,16.245238 C37.047689,15.4041134 36.5302325,15.277455 35.7938142,15.048539 L35.5054098,14.1330354 C35.9262137,13.8415286 36.3480122,14.1303331 36.7311157,14.4711226 C36.6026079,12.5114771 31.5434253,12.6483559 31.1153049,11.4718837 C31.7626126,11.6560332 32.1282325,11.1920742 31.9789288,10.7555445 C31.799795,10.2151999 31.1754981,9.90082826 30.637861,9.99398927 C28.7269574,8.93877086 26.6555728,8.43363587 24.5395816,8.08742577 C25.354292,7.08785783 24.8554165,6.55987404 23.5428559,6.43054022 L21.4871606,6.36861303 L21.1282572,6.356897 L20.7709588,6.36861303 L20.7700769,6.36877356 L20.7700769,6.36877356 L20.7700769,6.36877356 L20.7700769,6.36877356 L20.7700769,6.36877356 Z" id="Shape" fill="#DCA842"></path>
                        <path d="M15.2474776,16.3668299 C15.1314924,16.3734807 15.0133853,16.4035777 14.9042671,16.4508751 C14.7114934,16.5344374 14.5425725,16.6774988 14.4827538,16.8762611 C14.4823807,16.8775125 14.4814476,16.8784402 14.4810904,16.8796916 C12.7797258,21.740124 13.6896403,23.8115615 15.2008329,26.9566731 C17.3844783,31.4853045 15.7928878,38.2318708 10.9156994,41.1815793 C8.51794397,42.6248726 6.66889887,43.117058 5.2526589,43.4817372 C4.54459223,43.6640988 3.94336734,43.8149653 3.43496257,44.0391849 C2.94451404,44.255495 2.43814587,44.6430134 2.11836695,45.0916172 C2.60836231,45.1333099 3.40809218,45.2717394 3.80064506,45.3905181 C4.37132089,44.6438697 5.80654073,43.9573791 7.29187597,43.4371458 C8.77721122,42.9168851 10.3267901,42.5466346 11.1671828,42.3753825 L11.1688462,42.3753825 C13.9030146,41.5589708 16.4522359,39.7270668 18.3726688,37.3994097 C20.405808,34.9355194 21.4449029,31.5620167 21.0433932,28.1797867 C20.9534414,27.4057489 20.6546096,26.9327746 20.228698,26.6755122 C19.8027704,26.4182442 19.2639232,26.3743884 18.6926077,26.4130793 C17.6542058,26.4747794 16.6368099,26.1828659 15.7070092,25.5931547 C14.5080782,24.8332233 14.0167339,23.4895526 14.035927,22.0305611 C14.0551079,20.5715696 14.5904486,19.0043929 15.4387318,17.8367496 C15.7418554,17.4164354 15.8632306,17.1012436 15.8569181,16.8573191 C15.850602,16.6133945 15.6968795,16.4523407 15.5087121,16.3959153 C15.4616692,16.3818084 15.4124106,16.3725575 15.3620978,16.368471 C15.3243647,16.3654082 15.2857999,16.364541 15.2471417,16.3667585 L15.2471417,16.3667558 L15.2474776,16.3668299 L15.2474776,16.3668299 L15.2474776,16.3668299 L15.2474776,16.3668299 L15.2474776,16.3668299 Z" id="Shape" fill="#825123" transform="translate(11.623469, 30.878018) scale(-1, 1) translate(-11.623469, -30.878018) "></path>
                        <path d="M35.3138047,16.3668299 C35.1978195,16.3734807 35.0797124,16.4035777 34.9705942,16.4508751 C34.7778205,16.5344374 34.6088996,16.6774988 34.5490809,16.8762611 C34.5487078,16.8775125 34.5477747,16.8784402 34.5474175,16.8796916 C32.8460529,21.7401241 33.7559674,23.8115615 35.26716,26.9566731 C37.4508054,31.4853045 35.8592149,38.2318708 30.9820265,41.1815793 C28.584271,42.6248726 26.7352259,43.117058 25.318986,43.4817372 C24.6109193,43.6640988 24.0096944,43.8149653 23.5012896,44.0391849 C23.0108411,44.255495 22.5044729,44.6430134 22.184694,45.0916172 C22.6746894,45.1333099 23.4744192,45.2717394 23.8669721,45.3905181 C24.4376479,44.6438697 25.8728678,43.9573791 27.358203,43.4371458 C28.8435383,42.9168851 30.3931172,42.5466346 31.2335099,42.3753825 L31.2351733,42.3753825 C33.9693417,41.5589708 36.518563,39.7270668 38.4389959,37.3994097 C40.4721351,34.9355194 41.51123,31.5620167 41.1097203,28.1797867 C41.0197685,27.4057489 40.7209367,26.9327746 40.2950251,26.6755122 C39.8690975,26.4182442 39.3302503,26.3743884 38.7589348,26.4130793 C37.7205329,26.4747794 36.703137,26.1828659 35.7733363,25.5931547 C34.5744053,24.8332233 34.083061,23.4895526 34.1022541,22.0305611 C34.121435,20.5715696 34.6567757,19.0043929 35.5050589,17.8367496 C35.8081825,17.4164354 35.9295577,17.1012436 35.9232452,16.8573191 C35.9169291,16.6133945 35.7632066,16.4523407 35.5750392,16.3959153 C35.5279963,16.3818084 35.4787377,16.3725575 35.4284249,16.368471 C35.3906918,16.3654082 35.352127,16.364541 35.3134688,16.3667585 L35.3134688,16.3667558 L35.3138047,16.3668299 L35.3138047,16.3668299 L35.3138047,16.3668299 L35.3138047,16.3668299 L35.3138047,16.3668299 Z" id="Shape" fill="#825123"></path>
                        <path d="M9.53072085,25.3732759 C10.1134893,23.297419 10.4048735,20.6295998 9.58112706,17.158039 C13.2075697,14.6526964 15.7591352,12.362069 21.6665094,12.362069 C27.5635342,12.362069 30.3459406,14.1020595 33.7518916,17.158039 C32.9381788,20.629766 33.2295631,23.286506 33.8020407,25.3732759 L9.51122435,25.3732759" id="Shape" fill="#89C5E3"></path>
                        <path d="M12.2368541,21.3698276 L12.0365028,23.3719499 C12.0345377,23.3721972 12.0324674,23.3716672 12.0305057,23.3719499 L11.2582707,21.3874955 L11.6300911,23.4833281 C11.6273238,23.4844977 11.624454,23.4854553 11.6216952,23.486639 L10.7592637,22.4389348 L11.2774134,23.6845191 L10.6441193,23.2781582 L11.0291238,23.9428939 C11.0256502,23.9474473 11.0217422,23.9515512 11.018329,23.9561449 L10.5673468,23.9053497 L10.8468099,24.2664455 C10.7900053,24.4120287 10.7593002,24.568566 10.7593002,24.731817 C10.7593002,24.7393735 10.7615685,24.7463742 10.761699,24.7539018 L13.74106,24.7539018 C13.7411752,24.7463742 13.7434589,24.7393735 13.7434589,24.731817 C13.7434589,24.5679476 13.7130754,24.4104386 13.6559031,24.2647141 L14.2427557,23.7463389 L13.5039125,23.983795 C13.49794,23.9753325 13.4920891,23.96673 13.4859212,23.9583975 C13.5994497,23.8299981 14.7105585,22.5714702 14.6649613,22.5714702 C14.6178212,22.5714702 13.2601998,23.6435562 13.2124533,23.681224 C13.2100583,23.6793653 13.2076633,23.6775484 13.2052567,23.6757028 L14.2715322,21.5025557 L12.7962255,23.4526637 C12.7913714,23.4509111 12.7867111,23.4488507 12.7818324,23.4471425 L13.2163106,21.3877764 L12.439086,23.3665771 L12.2375833,21.3701085 L12.2368541,21.3698276 L12.2368541,21.3698276 L12.2368541,21.3698276 L12.2368541,21.3698276 L12.2368541,21.3698276 Z" id="sun" fill="#FCDD09"></path>
                        <path d="M9.75742268,24.3724138 C9.44256772,25.5209604 9.04914601,26.4991656 8.70481459,27.3345074 C7.80937043,29.5354552 7.62245634,34.654598 10.9284232,38.2731776 C15.8381109,43.6285095 19.5772542,41.4715707 21.4565313,44.3896552 L21.8401512,44.3896552 C23.7194284,41.4715707 27.4582169,43.6285095 32.3682594,38.2731776 C35.6742262,34.6543769 35.4971444,29.5355104 34.591868,27.3345074 C34.2573688,26.5074587 33.8538412,25.5210156 33.5390065,24.3724138 L9.74800601,24.3724138" id="Shape" fill="#0F47AF"></path>
                        <g id="cloud" transform="translate(15.000000, 18.000000)" fill="#FFFFFF">
                            <path d="M1.66641632,2.31831105 C1.61519545,2.00387107 1.03659905,2.06429754 1.07860208,1.55849355 C0.69379034,1.48071139 0.76550597,0.60873614 1.48379442,0.66842162 C1.55946838,0.495299 2.42767572,0.09905346 2.32271378,0.64671254 C2.7584405,0.16530953 3.07406598,0.60609284 2.83063094,0.82038512 C2.99874808,1.03381134 3.08359421,1.52167496 2.56811195,1.47889362 C2.7653847,1.92378486 2.30734158,1.90719913 2.00312546,1.78282062 C2.01062893,1.9513467 1.98798153,2.08482564 1.81479661,2.04332948 C1.70550198,2.13701426 1.78822604,2.25774564 1.80338275,2.36896555 L1.66641632,2.31831105 L1.66641632,2.31831105 L1.66641632,2.31831105 L1.66641632,2.31831105 L1.66641632,2.31831105 Z" id="Shape"></path>
                            <path d="M11.1516888,2.31895356 C11.1568352,1.91000857 10.5333751,2.03485213 10.5565901,1.56910476 C10.2181754,1.50500074 10.2673471,0.63874343 10.9668076,0.69076158 C10.9278512,0.44055547 11.9086369,0.11943883 11.8161143,0.6693381 C12.157753,0.22158828 12.4949997,0.64011905 12.2881004,0.84072955 C12.4583044,1.05134937 12.6648659,1.41348399 12.0645547,1.49059851 C12.3065084,1.78050425 11.800549,1.91326985 11.4925746,1.7905261 C11.5001714,1.95683505 11.4108777,2.01398939 11.235548,1.973043 C11.1248973,2.06549452 11.2750113,2.25920845 11.290357,2.36896555 L11.1516888,2.31897683 L11.1516888,2.31895356 L11.1516888,2.31895356 L11.1516888,2.31895356 L11.1516888,2.31895356 L11.1516888,2.31895356 Z" id="Shape"></path>
                            <path d="M16.4872809,3.36982762 C16.5628173,3.17418613 15.8179118,3.19150881 15.8371964,2.96868473 C15.4987931,2.9380165 15.5479593,2.5235944 16.2474048,2.5484703 C16.2084493,2.42877195 17.1185395,2.2280309 17.0574822,2.51937604 C17.3991141,2.30517184 17.7755966,2.52424231 17.5687178,2.62021394 C17.7389182,2.72097645 17.9454703,2.89422585 17.3451802,2.93110628 C17.5871293,3.06980078 17.0811764,3.13331727 16.773195,3.07459505 C16.7807919,3.1541565 16.7386141,3.16736712 16.5632821,3.14777921 C16.4526314,3.19200934 16.6969676,3.29881745 16.7123136,3.35132446 L16.4872809,3.36981179 L16.4872809,3.36982762 L16.4872809,3.36982762 L16.4872809,3.36982762 L16.4872809,3.36982762 L16.4872809,3.36982762 Z" id="Shape"></path>
                        </g>
                        <g id="mountain" transform="translate(8.142857, 19.368103)">
                            <path d="M20.6761408,7.3257773 C20.8236076,6.46507548 21.4527165,5.67205783 21.5216803,5.00044013 C21.5805677,4.39372427 21.6887728,4.13973831 22.0033323,3.50196269 C22.3178919,2.86134797 22.4454746,2.5650594 22.5144333,2.12198933 C22.6125774,1.54911555 22.9960854,1.42777239 23.1729808,2.01192875 C23.3400735,2.59610214 23.6742587,4.06351981 23.8511744,4.40500686 C24.018267,4.7464712 24.1954257,5.22056697 24.1657339,5.45195369 C24.1362911,5.68335745 24.3919672,5.77084151 24.539429,5.93733774 C24.6868959,6.0925457 24.7065216,6.63155467 25.1390891,7.0943849 C25.5714184,7.55719241 26.0530858,7.88734577 26.4561841,8.11878928 C26.8198131,9.03593242 27.0656672,10.4243663 27.0065265,12.0103448 L0.00384954886,12.0103448 C-0.00596334616,11.5926847 0.00384954886,11.1834851 0.0234804023,10.7883958 C2.42191803,10.0941789 3.31652189,8.31911623 4.32890076,8.4404594 C4.87949632,7.57975759 5.54786688,6.65409714 6.00990335,6.18002408 C6.56024574,5.61844424 7.6415883,3.38061384 7.91688608,2.01188332 C8.19218892,0.657291514 8.59507966,-0.070767512 8.89979587,0.00543395512 C9.20454246,0.0844518104 9.33237846,0.149353656 9.69601762,1.3741077 C10.1975487,3.05883015 10.541557,3.25921389 10.9248068,4.46986328 C11.258992,5.51964922 11.9570848,7.40191631 13.0285537,8.38401808 C13.6969243,7.82243825 14.463677,7.19312883 14.7093032,6.75289785 C14.9159056,6.36628045 15.2304802,5.77085286 15.603907,5.48580713 C15.7709997,4.92422731 15.9871669,3.91958876 16.1643256,3.67690241 C16.3314183,3.45678692 16.4001186,3.23666576 16.4197495,2.85004268 C16.4295639,2.46342527 16.6950523,1.6478538 17.0587017,0.964936483 C17.4225838,0.293318782 17.904241,0.0731749017 18.1203981,0.964936483 C18.3267474,1.85953717 18.8084147,3.73334374 19.2606282,4.90163374 C19.4473517,5.38701778 19.7916284,6.34366985 20.5483049,7.34831408 L20.629998,7.45652357 C20.6453786,7.42645125 20.6607592,7.40394854 20.6761398,7.32573755 C20.6761398,7.32573755 20.6607592,7.40394854 20.6761398,7.32573755 L20.6761408,7.3257773 L20.6761408,7.3257773 L20.6761408,7.3257773 L20.6761408,7.3257773 L20.6761408,7.3257773 Z" id="Shape" fill="#509164"></path>
                            <path d="M0.0411244882,11.5238519 C0.365621272,11.339649 0.866323135,11.4098179 1.05312411,11.6027986 C1.15129885,11.3864322 1.3086408,11.2256149 1.6036633,11.284094 C1.83979824,10.985857 2.0364121,10.8367356 2.17413334,10.985857 C2.31183931,10.6905439 2.77404207,10.6203691 2.93140435,10.804578 C3.09856428,10.506341 3.43287905,10.3689153 3.65893162,10.5297326 C3.95397445,10.0823742 4.47508002,9.92446913 4.78975374,10.152549 C5.06516061,9.91279098 5.37984958,9.95957417 5.51753522,10.1174621 C5.6552412,10.2665836 5.95028403,9.95956888 6.06832862,10.243192 C6.27476048,10.1876381 6.66798314,10.1759411 6.74679139,10.4273949 C6.79588131,10.2899693 6.97285921,10.2081046 7.07128817,10.3133609 C7.07128817,9.78706174 7.39578496,9.38646298 7.84818499,9.51218693 C8.06443483,9.13500331 8.43828084,8.97711591 8.61526891,9.11161171 C8.8020648,8.89524532 9.18548473,9.04436087 9.35260907,9.30751045 C9.716632,9.29581524 9.89358957,9.48878945 10.0803905,9.86597307 C10.2671864,10.2431567 10.808172,10.4712366 11.1523352,10.3016357 C11.496468,10.1525142 11.8111723,10.1057369 11.9292321,10.2899399 C12.1356639,10.0735735 12.3619809,10.1291286 12.499448,10.2782441 C12.7355828,10.518002 12.9616507,10.0940412 13.0993566,10.2548531 C13.3158556,10.5180026 13.5124695,10.0150951 13.8958793,10.2782441 C14.2697201,10.5413937 15.0070756,10.939045 15.5775457,10.939045 C16.1480157,10.939045 16.6003751,10.129105 16.9641641,10.699287 C17.3279328,10.4156697 17.8787465,10.2782441 18.2621614,10.5180079 C18.4884784,10.2782499 19.0095687,10.1993033 19.2159955,10.4273656 C19.4224273,10.0618777 19.8159042,9.84258736 20.1502036,9.96831131 C20.3369996,9.59405164 21.0844119,9.53557264 21.3105154,10.0618777 C21.4975604,10.0618777 21.7923541,10.2548525 21.7923541,10.4946164 C21.9793991,10.4946164 22.274447,10.632042 22.274447,10.8834957 C22.4808788,10.825018 22.7363955,10.9741382 22.7759217,11.2606794 C23.1887803,11.2255926 23.523329,11.4214907 23.71013,11.819142 C23.847836,11.6817223 23.7690378,11.3279302 24.0837167,11.2606794 C24.3983954,11.2022016 24.4968296,11.3162333 24.5851913,11.4419584 C24.9293241,11.1466454 25.4114069,11.1817327 25.8144475,11.6027698 C26.1094904,11.46535 26.3849176,11.5238231 26.4732845,11.6934121 C26.6011725,11.5559925 26.8075993,11.523829 27.014265,11.523829 C27.0240825,12.2986462 26.9649229,13.1436501 26.817402,14.012069 L0.187840028,14.012069 C0.0501391352,13.1670651 -0.00877384518,12.3220613 0.00104922189,11.5443025" id="Shape" fill="#078930"></path>
                        </g>
                        <g id="star" transform="translate(10.567347, 14.363793)" fill="#FFFFFF">
                            <polyline id="Shape" points="10.5524469 0 10.3147208 0.763857425 9.50510204 0.763857425 10.1651021 1.23786672 9.91858931 2.00172414 10.5612245 1.52766964 11.2126554 2.00172414 10.9661427 1.23786672 11.6173469 0.781803418 10.8165239 0.781803418 10.5700112 0.0179459935"></polyline>
                            <polyline id="Shape" points="7.25854207 1.00963359 7.14214105 1.77382183 6.33673469 1.8932246 7.07067847 2.2405821 6.94534232 3.00258621 7.5181956 2.45113358 8.24319502 2.80066648 7.86718196 2.11244275 8.44897959 1.56968302 7.64357324 1.68908579 7.26756018 1.00086207"></polyline>
                            <polyline id="Shape" points="3.96867449 2.01460275 3.97796378 3.15905931 3.16836735 3.52232546 3.98726122 3.863088 3.98726122 5.00431034 4.47101581 4.06237985 5.28061224 4.40314238 4.76877362 3.48372196 5.26206529 2.5546636 4.45246886 2.92114456 3.94086985 2.00172414"></polyline>
                            <polyline id="Shape" points="0.58428041 3.00264763 0.728104848 3.77017404 0 4.13649306 0.817838852 4.23897762 0.952689889 5.00431034 1.30338871 4.30654311 2.1122449 4.40902767 1.51901887 3.86389703 1.87869572 3.17266697 1.15059087 3.53898599 0.55736484 3.00258621"></polyline>
                            <polyline id="Shape" points="14.9162108 1.00963359 15.033094 1.77382183 15.8418367 1.8932246 15.1048526 2.2405821 15.230708 3.00258621 14.6554816 2.45113358 13.927479 2.80066648 14.3048181 2.11244275 13.7295918 1.56968302 14.538566 1.68908579 14.9161367 1.00086207"></polyline>
                            <polyline id="Shape" points="18.2100458 2.01460275 18.2007554 3.15905931 19.0102041 3.52232546 18.191457 3.863088 18.191457 5.00431034 17.7076475 4.06237985 16.8979592 4.40314238 17.4098559 3.48372196 16.9165083 2.5546636 17.7168981 2.92114456 18.2285551 2.00172414"></polyline>
                            <polyline id="Shape" points="21.594355 3.00264763 21.4505464 3.77017404 22.1785714 4.13649306 21.3605908 4.23897762 21.2259859 5.00431034 20.8753255 4.30654311 20.0663265 4.40902767 20.6597191 3.86389703 20.3000816 3.17266697 21.0281066 3.53898599 21.6212677 3.00258621"></polyline>
                        </g>
                        <g id="boat" transform="translate(15.847959, 29.276724)">
                            <path id="Shape" fill="#865800"></path>
                            <path id="Shape" fill="#865800"></path>
                            <path id="Shape" fill="#865800"></path>
                            <path d="M4.39435481,1.02359585 C4.61714039,0.617865444 5.13070033,1.53336237 5.45047726,1.14843919 C5.2567192,2.46448564 4.48146232,1.42933671 4.39435481,1.91829601 L4.39435481,1.02360631" id="Shape" fill="#FFFFFF"></path>
                            <path d="M6.33673469,1.02362725 C6.55946763,0.617911093 7.07315577,1.53337588 7.39285714,1.14326459 C7.18922344,2.46449787 6.42382162,1.42934341 6.33673469,1.91829601 L6.33673469,1.02363772" id="Shape" fill="#FFFFFF"></path>
                            <path d="M8.44897959,1.21026848 C8.67195708,0.795982835 9.18540067,1.73078394 9.50510204,1.31649617 C9.30171787,2.66563636 8.53631606,1.60861751 8.44897959,2.10258621 L8.44897959,1.19433186" id="Shape" fill="#FFFFFF"></path>
                            <path d="M9.51735335,9.03565366 C9.29269468,9.03565366 9.00979845,8.92749702 8.93160865,8.74466595 C8.76567531,8.90689574 8.07267733,8.99702629 7.79928958,8.75496658 C7.61386159,8.91719637 7.03785668,9.02792819 6.74495919,8.83479649 C6.5108021,9.0459543 5.81759294,9.02792819 5.45646165,8.80647026 C5.31001794,8.96612491 4.89017642,9.08715736 4.66576414,9.10775862 C4.34364227,8.63393983 3.47471473,7.87945468 2.92819064,7.59872614 C2.31318134,7.28713715 1.08316273,6.6819801 0.429184237,6.39099238 C0.0483370483,6.2210371 -0.303034344,5.92747423 0.419437915,6.24936385 C1.19062569,6.59185474 2.43039917,7.10429573 3.26982074,7.48797878 C4.47057474,8.03135275 9.26353416,7.95149694 10.0539803,7.87939768 C10.4640669,7.85107146 11.0106111,7.52918132 11.3914533,7.28711125 C11.6843357,7.10428018 11.6940855,7.21500681 11.4109454,7.36694116 C11.0985684,7.53689644 10.756967,7.66822952 10.5127935,8.02104176 C10.1809268,8.49486056 9.72209598,8.70602355 9.54640777,9.01763325" id="Shape" fill="#704D25"></path>
                            <path d="M9.51735335,9.03565366 C9.29269468,9.03565366 9.00979845,8.92749702 8.93160865,8.74466595 C8.76567531,8.90689574 8.07267733,8.99702629 7.79928958,8.75496658 C7.61386159,8.91719637 7.03785668,9.02792819 6.74495919,8.83479649 C6.5108021,9.0459543 5.81759294,9.02792819 5.45646165,8.80647026 C5.31001794,8.96612491 4.89017642,9.08715736 4.66576414,9.10775862 C4.34364227,8.63393983 3.47471473,7.87945468 2.92819064,7.59872614 C2.31318134,7.28713715 1.08316273,6.6819801 0.429184237,6.39099238 C0.0483370483,6.2210371 -0.303034344,5.92747423 0.419437915,6.24936385 C1.19062569,6.59185474 2.43039917,7.10429573 3.26982074,7.48797878 C4.47057474,8.03135275 9.26353416,7.95149694 10.0539803,7.87939768 C10.4640669,7.85107146 11.0106111,7.52918132 11.3914533,7.28711125 C11.6843357,7.10428018 11.6940855,7.21500681 11.4109454,7.36694116 C11.0985684,7.53689644 10.756967,7.66822952 10.5127935,8.02104176 C10.1809268,8.49486056 9.72209598,8.70602355 9.54640777,9.01763325 L9.51716931,9.03565937 L9.51735335,9.03565366 L9.51735335,9.03565366 L9.51735335,9.03565366 L9.51735335,9.03565366 L9.51735335,9.03565366 Z" id="Shape" fill="#704D25"></path>
                            <path d="M9.42219708,2.33302238 L7.72259382,2.10258621 C7.42322512,2.73543102 7.38053682,3.52646281 7.54089462,4.08023489 C8.08599771,3.43363228 9.06948039,3.77069139 9.56122449,4.10431034 C9.40086669,3.54025452 9.15486249,2.7766968 9.43288429,2.34680024" id="Shape" fill="#FFFFFF"></path>
                            <path d="M9.34985503,4.12480824 C8.93632105,4.13701429 7.95038365,4.10344828 7.6420855,4.10344828 C7.3076507,4.68627473 7.49244822,5.56817389 7.57177411,5.90377878 C7.94136007,5.10430727 9.11231264,5.53150049 9.56122449,6.10517241 C9.3322613,5.51929445 9.15625612,5.01884653 9.35885139,4.11561134" id="Shape" fill="#FFFFFF"></path>
                            <path d="M10.5499262,6.32954203 C10.027488,6.25915017 8.34678117,6.17336452 8.00603134,6.10517241 C7.73332618,6.53411393 7.50626688,7.09284486 7.39285714,7.62737859 C8.21036424,6.94767051 10.1070977,7.44700389 10.5045319,8.10689655 C10.1071035,7.53938877 9.70937098,6.68148803 10.5612245,6.32952875" id="Shape" fill="#FFFFFF"></path>
                            <path d="M7.38474381,2.37548821 L5.68044268,2.10172414 C5.43717652,2.44581422 5.25851603,3.05362179 5.28282676,3.75935819 C5.63993455,3.34745879 6.94641493,3.5132222 7.27922452,4.10344828 C7.16559192,3.46548077 7.01954778,2.66180544 7.39285714,2.36541131" id="Shape" fill="#FFFFFF"></path>
                            <path d="M8.35611389,4.38026116 L5.64692191,4.10344828 C5.2168206,4.52438468 5.24003403,5.12147306 5.34451245,5.75743934 C5.96096203,5.36395591 7.97213401,5.57899962 8.44897959,6.10517241 C8.15847631,5.33649834 7.91410642,4.88125033 8.3677206,4.38024735" id="Shape" fill="#FFFFFF"></path>
                            <path d="M8.44897959,6.33132555 L5.88169541,6.10517241 C5.48098795,6.53823119 5.21006472,6.98089435 5.29682934,7.62812499 C5.69753682,7.05554129 7.39826284,7.46933807 8.123961,8.10689655 C7.69080747,7.60886298 7.64726893,6.89434359 8.44896285,6.33134491" id="Shape" fill="#FFFFFF"></path>
                            <path d="M3.94830406,2.10172414 C3.66660074,2.25785773 3.23352944,2.79831399 3.16836735,2.94645261 C3.64499348,2.80633313 4.6523113,2.76629784 5.28061224,3.10258621 C5.09650702,2.84436262 5.0313505,2.39197998 5.19382615,2.20380606 C4.94483778,2.12573725 4.28412316,2.085706 3.95914953,2.10972717" id="Shape" fill="#FFFFFF"></path>
                            <path d="M3.8957239,3.58041673 C4.50736127,3.57069992 5.76043547,3.71402467 6.30204158,3.85492549 C5.98119923,4.31162869 6.02123996,5.08899292 6.1516293,5.57241379 C5.31951738,4.79503001 3.94579935,4.81448416 3.13367423,5.04285042 C3.28408652,4.69060328 3.65498368,3.95938155 3.88573566,3.57068966" id="Shape" fill="#FFFFFF"></path>
                            <path d="M6.33673469,5.76541841 C5.74508508,5.78871658 4.23125534,5.49166389 3.53925873,5.10431034 C3.29875647,5.84405758 3.1883851,7.07304354 3.16836735,7.51569647 C3.84006732,6.49350455 5.4845599,7.06137658 6.00586849,8.10689655 C5.95581739,7.55065046 5.77512204,6.18480775 6.3367192,5.75375732" id="Shape" fill="#FFFFFF"></path>
                            <path d="M4.2244898,2.11199993 C2.67285059,3.11541287 1.49542459,5.14026012 1.05612245,6.54401583 C1.49541496,6.53375037 2.04665849,6.68516079 2.24312885,7.10603448 C2.70108147,5.0889328 3.34588553,3.22576144 4.2244898,2.10172414" id="Shape" fill="#FFFFFF"></path>
                        </g>
                        <g id="ribbon" transform="translate(5.286735, 0.000000)">
                            <path d="M15.951327,4.78012968 C16.8430325,5.88296803 18.1300597,6.04053132 20.390018,6.04053132 C21.808854,6.04053132 22.9540498,6.03052807 23.79512,6.04053132 C23.79512,6.32311959 23.7037988,6.625729 23.7037988,6.9783233 C23.7037988,7.31843185 24.0587061,7.47597944 24.575511,7.35844277 C25.0923108,7.2409061 26.1969932,6.90830157 26.7947522,7.43596852 C27.7982733,8.33624044 29.6426034,8.49129193 30.1391438,9.05895933 C29.9871123,8.3737605 29.3385299,7.68102626 28.6190893,7.10336398 C29.2980216,7.00583278 30.1796,7.07585556 30.4836736,7.3084265 C29.7131799,6.47121128 28.3147024,6.45116919 27.6052845,6.04106508 C26.8958665,5.63090864 26.2167253,5.26831946 25.6900125,5.13079827 C25.6900125,4.89822627 25.659399,4.71066788 25.4567764,4.57563756 C25.0108035,4.26303848 24.1393679,4.15550717 23.4300543,4.11549624 C23.5312363,4.00796492 23.5514696,3.88042291 23.5514696,3.68536051 L23.5514696,2.58252215 C23.5514696,2.19990135 23.5922014,2.10237538 23.1563463,1.82976629 C21.4741538,0.794432645 19.4269687,0.051724 15.6978,0.051724 C11.9784974,0.051724 9.93110358,0.784437764 8.2392539,1.82976629 C7.79328107,2.10234922 7.84413053,2.19988041 7.84413053,2.58252215 L7.84413053,3.68536051 C7.84413053,3.88042291 7.85424874,4.00795969 7.96554593,4.11549624 C7.25623234,4.14550548 6.39490808,4.25303836 5.93882382,4.57563756 C5.74632046,4.71067834 5.70559287,4.88823663 5.70559287,5.13079827 C5.18879309,5.25834028 4.50986598,5.62095039 3.7904253,6.04106508 C3.08085071,6.45119012 1.68252991,6.47120082 0.912245,7.30894979 C1.20618626,7.0763778 2.08776993,6.99635072 2.76670226,7.10388727 C2.05738866,7.67155467 1.40883759,8.36428891 1.24664762,9.05948262 C1.7432089,8.49181522 3.58751819,8.33676373 4.60116635,7.43649181 C5.18879831,6.90880393 6.29348584,7.23142929 6.82040749,7.35896606 C7.33720205,7.47650273 7.69211984,7.32895682 7.69211984,6.97884659 C7.69211984,6.6262366 7.60079859,6.32363241 7.60079859,6.04105462 C8.43179381,6.02104811 9.57693748,6.04105462 11.0059005,6.04105462 C13.2557318,6.04105462 14.5428112,5.88350703 15.4445916,4.78065298 C14.9480304,4.65311097 15.0393516,3.7728445 15.1202952,3.43275688 C14.0664519,3.19768355 13.5395303,2.79758479 12.6880721,2.79758479 C11.8470019,2.79758479 11.6949391,3.24522465 11.6949391,3.41276713 L11.6949391,3.55030924 C11.0261338,3.55030924 10.0835841,3.38275632 9.85060891,2.94261 C11.1478155,2.41492213 13.0733189,1.93731332 15.7180542,1.93731332 C18.3629984,1.93731332 20.288554,2.41496398 21.5854995,2.94261 C21.3525244,3.38274585 20.4099746,3.55030924 19.7411694,3.55030924 L19.7411694,3.41276713 C19.7411694,3.25521954 19.5992597,2.79758479 18.7480364,2.79758479 C17.8968131,2.79758479 17.3696565,3.18770437 16.3158133,3.43275688 C16.3464504,3.76233679 16.4377716,4.65260337 15.951327,4.78012968 L15.951327,4.78012968 Z" id="Shape" fill="#89C5E3"></path>
                            <path d="M15.8421274,11.4546437 C16.3122847,11.4546437 16.7122854,11.4546437 17.0024238,11.4146094 L17.0024238,10.7153555 C17.0024238,10.4858278 17.7826703,10.2135962 18.9629585,10.4537999 C23.5843588,11.3932628 24.2144092,13.5711479 27.7258532,14.8228343 C27.7658007,14.8335103 27.8958864,14.8762136 28.0459485,14.905573 C28.1360868,14.6867212 28.235958,14.4678694 28.3460675,14.1983175 C28.4059913,13.9981487 28.9163487,14.0088246 29.3662669,14.2276759 C29.8866201,14.4892315 30.1165771,14.7908489 30.0266656,14.9483031 C29.9365275,15.1778309 29.8463892,15.3646602 29.7664942,15.5514841 C30.5867242,15.8557436 32.0770398,16.3148045 31.5869318,18.3672416 C31.2069128,17.9829124 30.2865898,17.5639132 29.7165663,17.5639132 C29.0663695,17.5639132 28.3660386,17.3050266 28.5862575,16.5630689 C28.4661574,16.5016821 28.255919,16.3869209 28.1460621,16.365569 C28.1260882,16.4296248 28.0961273,16.4910062 28.0659093,16.5523929 C27.9158473,16.9393911 27.2656711,17.0755042 26.6154744,16.8459764 C22.9543497,15.5435416 21.8240408,12.6637713 17.5027234,12.6237096 L17.5027234,12.7491521 C17.5027234,13.1121294 17.0525425,13.4457209 15.8423232,13.4457209 C14.641837,13.4457209 14.1819229,13.1121025 14.1819229,12.7491521 L14.1819229,12.6237096 C9.87065289,12.653068 8.73003903,15.5328549 5.06917195,16.8459764 C4.42897106,17.0755042 3.7788258,16.9287151 3.61873693,16.5523929 C3.59850813,16.4910062 3.56854621,16.4296194 3.53858429,16.365569 C3.42846974,16.3869204 3.218489,16.5016821 3.09838886,16.5630689 C3.30862723,17.2943829 2.62823666,17.5639132 1.96808004,17.5639132 C1.39805651,17.5639132 0.487708874,17.9829393 0.0977144623,18.3672416 C-0.392414066,16.3254912 1.07798183,15.8664464 1.91815211,15.5514841 C1.83799947,15.3646602 1.75810446,15.1778309 1.65798065,14.9483031 C1.57808563,14.7908381 1.79805197,14.4892476 2.3181218,14.2276759 C2.76830283,13.9981481 3.26840148,13.9874721 3.33857884,14.1983175 C3.44869339,14.4572042 3.53857399,14.676056 3.6386978,14.905573 C3.78875987,14.8762146 3.90860238,14.8335103 3.9587931,14.8228343 C7.45988046,13.5710941 8.10002983,11.3932628 12.7211724,10.4537999 C13.8916709,10.2135962 14.6819648,10.4858272 14.6819648,10.7153555 L14.6819648,11.4146094 C14.9720982,11.4439677 15.3720936,11.4546437 15.8422613,11.4546437 C15.8422613,11.4546437 15.3720936,11.4546437 15.8422613,11.4546437 L15.8421274,11.4546437 L15.8421274,11.4546437 L15.8421274,11.4546437 L15.8421274,11.4546437 L15.8421274,11.4546437 Z" id="Shape" fill="#FFFFFF"></path>
                        </g>
                    </g>
                </g>
            </g>
        </g>
    </g>
</svg>