<?xml version="1.0" encoding="UTF-8" standalone="no"?>
<svg width="180px" height="180px" viewBox="0 0 180 180" version="1.1" xmlns="http://www.w3.org/2000/svg" xmlns:xlink="http://www.w3.org/1999/xlink">
    <!-- Generator: Sketch 3.8.3 (29802) - http://www.bohemiancoding.com/sketch -->
    <title>cuba</title>
    <desc>Created with Sketch.</desc>
    <defs></defs>
    <g id="Page-1" stroke="none" stroke-width="1" fill="none" fill-rule="evenodd">
        <g id="flags" transform="translate(-720.000000, -1530.000000)">
            <g id="cuba" transform="translate(720.000000, 1530.000000)">
                <circle id="white" fill="#FFFFFF" cx="90" cy="90" r="90"></circle>
                <path d="M162.006593,144 L36,144 L26.3603888,153.639611 C42.647185,169.926407 65.147185,180 90,180 C119.444723,180 145.586879,165.860041 162.006593,144 L162.006593,144 Z M178.199674,108 L72,108 L72,108 L90,90 L72,72 L178.199674,72 C179.380255,77.8159789 180,83.8356148 180,90 C180,96.1643852 179.380255,102.184021 178.199674,108 L178.199674,108 Z M162.006593,36 L36,36 L26.3603888,26.3603888 C42.647185,10.0735925 65.147185,0 90,0 C119.444723,0 145.586879,14.139959 162.006593,36 L162.006593,36 Z" id="blue" fill="#227FBB"></path>
                <path d="M26.3603888,153.639611 L90,90 L26.3603888,26.3603888 C10.0735925,42.647185 0,65.147185 0,90 C0,114.852815 10.0735925,137.352815 26.3603888,153.639611 L26.3603888,153.639611 Z" id="red" fill="#E94B35"></path>
                <polygon id="star" fill="#FFFFFF" points="32.4493859 100.631935 22.2831074 106.118416 24.2246933 94.497864 16 86.2681435 27.366248 84.5727262 32.4493865 74 37.532528 84.5727288 48.8987753 86.2681519 40.6740786 94.4978662 42.615665 106.118416"></polygon>
            </g>
        </g>
    </g>
</svg>