<?xml version="1.0" encoding="UTF-8" standalone="no"?>
<svg width="180px" height="180px" viewBox="0 0 180 180" version="1.1" xmlns="http://www.w3.org/2000/svg" xmlns:xlink="http://www.w3.org/1999/xlink">
    <!-- Generator: Sketch 3.8.3 (29802) - http://www.bohemiancoding.com/sketch -->
    <title>curacao</title>
    <desc>Created with Sketch.</desc>
    <defs></defs>
    <g id="Page-1" stroke="none" stroke-width="1" fill="none" fill-rule="evenodd">
        <g id="flags" transform="translate(-990.000000, -1530.000000)">
            <g id="curacao" transform="translate(990.000000, 1530.000000)">
                <path d="M164.844511,140 C168.974656,133.829884 172.362065,127.120581 174.878829,120 L5.12116698,120 C7.63793452,127.120581 11.025344,133.829884 15.155489,140 L164.844511,140 Z" id="yellow" fill="#F2C500"></path>
                <path d="M164.844511,140 C148.699285,164.119715 121.204163,180 90,180 C58.795837,180 31.3007153,164.119715 15.155489,140 L164.844511,140 L164.844511,140 Z M174.878829,120 C178.195374,110.616633 180,100.519063 180,90 C180,40.2943701 139.70563,0 90,0 C40.2943701,0 0,40.2943701 0,90 C0,100.519063 1.80462645,110.616633 5.12117078,120 L174.878833,120 L174.878829,120 Z" id="blue" fill="#227FBB"></path>
                <path d="M38.050611,65.3148998 L30.0800733,69.5 L31.6023101,60.6358165 L25.1540087,54.3581673 L34.0653432,53.0648992 L38.0506115,45 L42.0358821,53.0649012 L50.947216,54.3581738 L44.4989119,60.6358182 L46.0211491,69.5 L38.050611,65.3148998 L38.050611,65.3148998 Z M60.0506104,93.4358752 L48.5014639,99.5 L50.707154,86.655979 L41.3636968,77.5597935 L54.2760387,75.6858743 L60.0506111,64 L65.8251869,75.6858772 L78.7375279,77.5598028 L69.3940669,86.6559815 L71.5997574,99.5 L60.0506104,93.4358752 L60.0506104,93.4358752 Z" id="stars" fill="#FFFFFF"></path>
            </g>
        </g>
    </g>
</svg>