<?xml version="1.0" encoding="UTF-8" standalone="no"?>
<svg width="180px" height="180px" viewBox="0 0 180 180" version="1.1" xmlns="http://www.w3.org/2000/svg" xmlns:xlink="http://www.w3.org/1999/xlink">
    <!-- Generator: Sketch 3.8.3 (29802) - http://www.bohemiancoding.com/sketch -->
    <title>cyprus</title>
    <desc>Created with Sketch.</desc>
    <defs></defs>
    <g id="Page-1" stroke="none" stroke-width="1" fill="none" fill-rule="evenodd">
        <g id="flags" transform="translate(-1260.000000, -1530.000000)">
            <g id="cyprus" transform="translate(1260.000000, 1530.000000)">
                <circle id="white" fill="#FFFFFF" cx="90" cy="90" r="90"></circle>
                <path d="M88.3796296,139.843363 C88.3006052,139.769848 88.1696296,139.639898 87.993776,139.43668 C87.6688979,139.062175 87.2330443,138.513908 86.8498735,138.029502 C86.0901174,137.068363 85.4623126,136.240393 85.3440199,136.084452 L85.1506052,135.829007 L84.9571906,136.084452 C84.8388979,136.240888 84.2103613,137.069353 83.451093,138.029502 C83.0681662,138.513908 82.6320687,139.062175 82.3074345,139.436433 C82.131337,139.63965 82.0006052,139.769848 81.9215809,139.843116 C81.9215809,139.843116 81.8498735,139.912175 81.8220687,139.925789 C81.8220687,139.925789 81.7267028,139.764898 81.6930443,139.715393 C81.6379223,139.634452 81.5574345,139.534205 81.4659711,139.432967 C81.427357,139.390208 80.9435772,138.909743 80.7645077,138.744353 C80.2652394,138.28371 79.7628004,137.859452 79.7579223,137.854997 L83.256215,135.236185 L81.8730443,134.58173 L82.6120687,133.73866 L85.1506052,134.841631 L87.6891418,133.73866 L88.4281662,134.58173 L87.0449955,135.236185 L90.5481662,137.851037 C90.5384101,137.859205 90.0359711,138.283462 89.5367028,138.744106 C89.3140199,138.949551 89.0332882,139.213413 88.8349955,139.432967 C88.7435321,139.533957 88.6630443,139.634205 88.6081662,139.715145 C88.5745077,139.764898 88.5201174,139.926037 88.5201174,139.926037 C88.4508491,139.91168 88.3796296,139.843363 88.3796296,139.843363 L88.3796296,139.843363 Z M94.8191418,135.967621 C92.1603613,135.967621 90.3491418,134.75673 90.2901174,134.716631 C92.5998735,133.604502 94.6001174,133.04064 96.2349955,133.04064 L96.2632882,133.04064 C97.6430443,133.046086 98.4969467,133.467868 98.9706052,133.820343 C99.4454833,134.174056 99.653776,134.551532 99.6735321,134.58866 L99.671337,134.589898 C98.1054833,135.505739 96.473776,135.968611 94.8201174,135.968611 L94.8201174,135.968611 L94.8191418,135.967621 L94.8191418,135.967621 L94.8191418,135.967621 L94.8191418,135.967621 L94.8191418,135.967621 Z M80.3834146,134.716631 C78.0736585,133.604502 76.0734146,133.04064 74.4385366,133.04064 L74.4102439,133.04064 C73.0304878,133.046086 72.1765854,133.467868 71.7029268,133.820343 C71.2280488,134.174056 71.0197561,134.551532 71,134.58866 C72.5680488,135.505739 74.1997561,135.968611 75.8534146,135.968611 C78.5131707,135.967621 80.3243902,134.75673 80.3834146,134.716631 C80.3834146,134.716631 80.3243902,134.75673 80.3834146,134.716631 L80.3834146,134.716631 L80.3834146,134.716631 L80.3834146,134.716631 Z M101.980117,134.356235 C101.712557,134.356235 101.483044,134.219106 101.40841,134.014898 C101.335239,133.81465 101.357922,133.559205 101.475239,133.255492 C101.669386,132.754749 102.120849,132.228512 102.693044,132.181977 C102.70402,132.180987 102.715483,132.18074 102.726947,132.18074 L102.804508,132.18272 C102.927435,132.18569 103.058898,132.216136 103.185483,132.270344 L103.185483,132.270591 C103.185483,132.271829 103.228654,132.791383 103.099874,133.314155 C103.024508,133.618858 102.911337,133.851779 102.753044,134.026532 C102.560361,134.239403 102.287191,134.358215 101.979874,134.358215 L101.979874,134.358215 L101.980117,134.356235 L101.980117,134.356235 L101.980117,134.356235 L101.980117,134.356235 L101.980117,134.356235 Z M68.3215809,134.356235 C68.0159711,134.356235 67.741337,134.238908 67.5484101,134.026284 C67.3901174,133.851532 67.2767028,133.618858 67.2015809,133.313908 C67.078654,132.814403 67.1125565,132.317621 67.1159711,132.270096 C67.2442638,132.215393 67.3749955,132.185442 67.4969467,132.182472 L67.5242638,132.181977 C68.1367028,132.181977 68.6193857,132.721086 68.826215,133.255492 C68.9435321,133.559205 68.966215,133.81465 68.8930443,134.01465 C68.8198735,134.215145 68.5906052,134.353759 68.3223126,134.353759 L68.3223126,134.353759 L68.3215809,134.356235 L68.3215809,134.356235 L68.3215809,134.356235 L68.3215809,134.356235 L68.3215809,134.356235 Z M89.3752394,132.871086 C92.148654,127.543363 95.0296296,126.968116 96.1396296,126.968116 C96.513776,126.969849 96.7623126,127.029997 96.8071906,127.041878 L96.8098735,127.055492 C96.8098735,127.056977 96.976215,128.235938 96.1657272,129.510443 C95.4057272,130.705492 93.611093,132.258957 89.3771906,132.872571 L89.3740199,132.873066 L89.3752394,132.871086 L89.3752394,132.871086 L89.3752394,132.871086 L89.3752394,132.871086 L89.3752394,132.871086 Z M80.9264589,132.873561 C76.6925565,132.259947 74.8979223,130.706482 74.1379223,129.511433 C73.3274345,128.236928 73.493776,127.057967 73.4954833,127.046086 L73.496215,127.042621 L73.4993857,127.041631 C73.5006052,127.041631 73.7581662,126.971086 74.1476784,126.969106 C75.2740199,126.969106 78.1549955,127.544106 80.9276784,132.870591 L80.9293857,132.874056 L80.9245077,132.871581 L80.9264589,132.873561 L80.9264589,132.873561 L80.9264589,132.873561 L80.9264589,132.873561 L80.9264589,132.873561 Z M98.0557272,132.022076 C97.2130443,132.021829 96.2671906,131.951779 95.2449955,131.813413 L95.2432882,131.813165 L95.2445077,131.811928 C97.488654,129.605492 99.6145077,129.142621 101.0028,129.142621 C101.111337,129.142868 101.205483,129.145839 101.298898,129.150046 C102.402557,129.202522 103.142557,129.535442 103.193044,129.558462 C103.190605,129.583462 103.167435,129.798561 103.047922,130.059205 C102.925483,130.327027 102.670361,130.721334 102.148898,131.080244 C101.241581,131.704749 99.8645077,132.021829 98.056215,132.021829 L98.053776,132.024304 L98.0557272,132.022076 L98.0557272,132.022076 L98.0557272,132.022076 L98.0557272,132.022076 L98.0557272,132.022076 Z M72.2484101,132.022076 C70.4396296,132.021829 69.0625565,131.705244 68.1552394,131.080492 C67.633776,130.721581 67.378654,130.327274 67.256215,130.059452 C67.1415809,129.808462 67.1154833,129.600046 67.111337,129.55871 C67.1591418,129.536433 67.8996296,129.202769 69.0052394,129.150294 C69.098654,129.145839 69.1928004,129.143116 69.2915809,129.142868 C70.6896296,129.142868 72.8154833,129.605739 75.0588979,131.811185 L75.061093,131.813413 L75.0584101,131.81366 C74.0340199,131.949799 73.0876784,132.021581 72.246215,132.021581 L72.246215,132.021581 L72.2484101,132.022076 L72.2484101,132.022076 L72.2484101,132.022076 L72.2484101,132.022076 L72.2484101,132.022076 Z M106.665483,131.680492 C105.62841,131.663908 104.894264,131.495839 104.48402,131.181235 C104.290117,131.032472 104.193776,130.83371 104.226459,130.649056 C104.265727,130.427769 104.439386,130.202274 104.757678,129.960195 C105.626947,129.298561 106.915239,128.948314 108.586703,128.919106 C108.693776,128.917126 108.802557,128.915888 108.910117,128.915888 C109.003044,128.915888 109.095483,128.916878 109.186459,128.919106 C111.181825,128.968116 112.955239,129.425047 112.9728,129.429502 L112.977191,129.430492 L112.973288,129.4347 C111.341337,131.090888 108.720849,131.68173 106.813532,131.68173 L106.667191,131.68173 L106.665483,131.680492 L106.665483,131.680492 L106.665483,131.680492 L106.665483,131.680492 L106.665483,131.680492 Z M63.4898735,131.680492 C61.5825565,131.680492 58.9623126,131.089403 57.3281662,129.431235 L57.3264589,129.429254 L57.331337,129.428017 C57.3484101,129.423561 59.1220687,128.966878 61.1174345,128.917621 C61.2364589,128.91465 61.356215,128.912918 61.4771906,128.912918 C63.2654833,128.912918 64.6342638,129.264898 65.5459711,129.95871 C65.8642638,130.201037 66.0381662,130.426532 66.0771906,130.647571 C66.1098735,130.832225 66.013776,131.031235 65.8196296,131.179749 C65.4091418,131.494353 64.6752394,131.662175 63.6379223,131.679007 L63.4915809,131.683957 L63.4898735,131.680492 L63.4898735,131.680492 L63.4898735,131.680492 L63.4898735,131.680492 L63.4898735,131.680492 Z M112.994752,128.46267 C112.770605,128.46267 112.60402,128.310938 112.555727,128.160938 C112.496215,127.977027 112.510361,127.76366 112.59963,127.50871 C112.686215,127.261185 112.832313,127.028759 113.011337,126.854007 C113.145483,126.723066 113.361093,126.566878 113.624264,126.566878 C113.752313,126.570344 113.852557,126.593116 113.940361,126.635442 C113.942069,126.659948 113.969874,127.099799 113.86963,127.549056 C113.808654,127.822819 113.722557,128.021086 113.599386,128.173314 C113.450605,128.354007 113.228654,128.460442 112.994508,128.460442 L112.994508,128.460442 L112.994752,128.46267 L112.994752,128.46267 L112.994752,128.46267 L112.994752,128.46267 L112.994752,128.46267 Z M57.3093857,128.46267 C57.0745077,128.46267 56.8540199,128.357225 56.7047516,128.173809 C56.581337,128.021829 56.4954833,127.823314 56.4345077,127.549551 C56.3325565,127.092126 56.3632882,126.644601 56.3635321,126.640145 L56.363776,126.63569 C56.4525565,126.593116 56.5518248,126.570343 56.6606052,126.567621 L56.661337,126.567621 C56.9435321,126.567621 57.158654,126.723561 57.2928004,126.854254 C57.4715809,127.028759 57.6179223,127.261433 57.7045077,127.508957 C57.7935321,127.763908 57.8079223,127.977274 57.7484101,128.161185 C57.6996296,128.307225 57.533776,128.46069 57.3093857,128.46069 L57.3093857,128.46069 L57.3093857,128.46267 L57.3093857,128.46267 L57.3093857,128.46267 L57.3093857,128.46267 L57.3093857,128.46267 Z M98.7191418,128.135938 C98.4515809,128.135938 98.2220687,127.998809 98.1474345,127.794601 C98.0742638,127.594353 98.0969467,127.338908 98.2142638,127.035195 C98.4084101,126.534452 98.8598735,126.008215 99.4320687,125.96168 C99.4430443,125.96069 99.4545077,125.960442 99.4659711,125.960442 L99.5435321,125.962423 C99.6664589,125.965393 99.7979223,125.995839 99.9245077,126.050046 L99.9245077,126.050294 C99.9245077,126.051532 99.9676784,126.571086 99.8388979,127.093858 C99.7635321,127.398561 99.6503613,127.631482 99.4920687,127.806235 C99.2993857,128.019106 99.023776,128.135442 98.7188979,128.135442 L98.7188979,128.135442 L98.7191418,128.135938 L98.7191418,128.135938 L98.7191418,128.135938 L98.7191418,128.135938 L98.7191418,128.135938 Z M71.5849955,128.135938 C71.2793857,128.135938 71.0047516,128.018611 70.8118248,127.805987 C70.6535321,127.631235 70.5401174,127.398561 70.4649955,127.093611 C70.3420687,126.594106 70.3759711,126.097324 70.3793857,126.049799 C70.5076784,125.995096 70.6384101,125.965145 70.7603613,125.962175 L70.7876784,125.96168 C71.4001174,125.96168 71.8828004,126.500789 72.0896296,127.035195 C72.2069467,127.338908 72.2296296,127.594353 72.1564589,127.794353 C72.0832882,127.997324 71.8515809,128.133462 71.5857272,128.133462 L71.5857272,128.133462 L71.5849955,128.135938 L71.5849955,128.135938 L71.5849955,128.135938 L71.5849955,128.135938 L71.5849955,128.135938 Z M64.631337,127.843858 C60.7930443,127.70673 58.801093,126.599551 57.8059711,125.694601 C57.2457272,125.185195 56.9342638,124.680244 56.7718248,124.346334 C56.618654,124.030987 56.5606052,123.78965 56.5503613,123.742868 L56.5554833,123.74064 C56.556215,123.74064 56.918654,123.608957 57.5030443,123.597324 L57.5928004,123.596334 C58.8871906,123.596334 61.5223126,124.148066 64.6298735,127.842126 L64.6298735,127.844601 L64.631337,127.843858 L64.631337,127.843858 L64.631337,127.843858 L64.631337,127.843858 L64.631337,127.843858 Z M105.6728,127.841383 C108.687435,124.257472 111.264264,123.643363 112.531825,123.596086 C112.56963,123.594848 112.607191,123.594106 112.643776,123.594106 C112.695483,123.594106 112.745971,123.595343 112.794264,123.596086 C113.360361,123.607472 113.716947,123.729254 113.753044,123.742126 L113.753044,123.742868 C113.7528,123.742868 113.699386,123.999551 113.531337,124.345591 C113.368898,124.679502 113.057922,125.184452 112.497435,125.693858 C111.502069,126.598809 109.50963,127.706235 105.671825,127.843116 L105.674264,127.84064 L105.6728,127.841383 L105.6728,127.841383 L105.6728,127.841383 L105.6728,127.841383 L105.6728,127.841383 Z M68.7996296,127.450294 C65.7115809,126.973066 63.9620687,125.627769 63.0381662,124.58272 C62.0696296,123.487423 61.7796296,122.467373 61.7667028,122.419848 C61.7723126,122.418116 62.1496296,122.318363 62.7179223,122.303759 C62.7591418,122.302522 62.8020687,122.302027 62.8457272,122.302027 C62.8898735,122.302027 62.9347516,122.302522 62.9806052,122.303759 C64.533776,122.338165 67.3547516,123.052027 68.7988979,127.448561 L68.801337,127.448561 L68.7996296,127.450294 L68.7996296,127.450294 L68.7996296,127.450294 L68.7996296,127.450294 L68.7996296,127.450294 Z M101.504508,127.450294 C102.948898,123.052274 105.769874,122.338413 107.3228,122.304007 C107.368654,122.302769 107.413776,122.302274 107.457922,122.302274 C107.501825,122.302274 107.544264,122.302769 107.585971,122.304007 C108.15402,122.318611 108.531581,122.418363 108.535239,122.419601 L108.537435,122.420096 C108.534996,122.428759 108.2528,123.466878 107.265727,124.582967 C106.338898,125.627522 104.590117,126.974056 101.502313,127.449304 C101.502313,127.449304 104.590117,126.974056 101.502313,127.449304 L101.504508,127.450294 L101.504508,127.450294 L101.504508,127.450294 L101.504508,127.450294 L101.504508,127.450294 Z M117.358166,125.945343 C115.640117,125.945343 114.415483,125.597819 114.403288,125.594106 L114.400361,125.593363 L114.403776,125.587918 C114.414752,125.571581 115.747435,123.603017 118.317191,123.081482 C118.989142,122.945096 119.692069,122.876037 120.405727,122.876037 C120.465239,122.876037 120.524264,122.876532 120.582557,122.877522 C122.061581,122.900541 123.130605,123.205244 123.141337,123.208462 L123.144264,123.219106 C123.143776,123.219106 123.156215,123.331977 123.134996,123.474799 C123.113288,123.618611 123.051825,123.844353 122.883288,124.101779 C122.585971,124.555244 121.892313,125.181977 120.275971,125.592126 C119.356459,125.827274 118.375971,125.946086 117.363776,125.946086 L117.363776,125.946086 L117.358166,125.945343 L117.358166,125.945343 L117.358166,125.945343 L117.358166,125.945343 L117.358166,125.945343 Z M52.9459711,125.945343 C51.9340199,125.945343 50.9523126,125.826532 50.0284101,125.592126 C48.4115809,125.18173 47.7179223,124.555244 47.4208491,124.101779 C47.2520687,123.844353 47.1908491,123.618611 47.1693857,123.474551 C47.148654,123.336928 47.1596296,123.227274 47.1618248,123.208957 L47.1693857,123.206235 C47.1735321,123.205244 48.2425565,122.900541 49.7215809,122.877522 C49.7798735,122.876532 49.838654,122.876037 49.8984101,122.876037 C50.6123126,122.876037 51.3149955,122.945096 51.9871906,123.081482 C54.5569467,123.603017 55.8896296,125.571581 55.9025565,125.591383 L55.903776,125.593611 L55.9006052,125.594353 C55.8859711,125.596829 54.6615809,125.945839 52.9445077,125.945839 L52.9445077,125.945839 L52.9459711,125.945343 L52.9459711,125.945343 L52.9459711,125.945343 L52.9459711,125.945343 L52.9459711,125.945343 Z M110.189874,123.301779 C109.923288,123.301779 109.701825,123.167621 109.625971,122.960195 C109.550849,122.75574 109.570849,122.503017 109.685239,122.209205 C109.879874,121.708215 110.331581,121.181977 110.903044,121.135195 C110.91402,121.134205 110.925483,121.133957 110.936947,121.133957 L111.014508,121.135938 C111.137678,121.138908 111.269386,121.169353 111.395483,121.223561 L111.395483,121.223809 C111.395483,121.225542 111.438654,121.738908 111.309874,122.259452 C111.232557,122.572819 111.119142,122.808215 110.963288,122.979254 C110.773044,123.18965 110.499874,123.303512 110.190117,123.303512 L110.190117,123.303512 L110.189874,123.301779 L110.189874,123.301779 L110.189874,123.301779 L110.189874,123.301779 L110.189874,123.301779 Z M60.1142638,123.301779 C59.8047516,123.301779 59.5301174,123.187175 59.3406052,122.979007 C59.1847516,122.807967 59.071337,122.572324 58.9942638,122.259205 C58.8708491,121.760443 58.9052394,121.268611 58.908654,121.223314 C59.0369467,121.168611 59.1676784,121.13866 59.2896296,121.13569 L59.3169467,121.135195 C59.9281662,121.135195 60.4115809,121.674551 60.6191418,122.208957 C60.7332882,122.503017 60.7532882,122.755492 60.6784101,122.959948 C60.6028004,123.167868 60.3808491,123.301532 60.1149955,123.301532 L60.1149955,123.301532 L60.1142638,123.301779 L60.1142638,123.301779 L60.1142638,123.301779 L60.1142638,123.301779 L60.1142638,123.301779 Z M54.7240199,122.551779 C54.7008491,122.546086 53.266215,122.171581 51.8052394,121.258462 C50.4530443,120.41366 48.7988979,118.919353 48.5971906,116.597571 L48.5971906,116.596334 L48.6006052,116.595344 C48.6008491,116.595344 48.7264589,116.564403 48.9123126,116.557225 C48.9379223,116.556235 48.9652394,116.55574 48.993776,116.55574 C49.3976784,116.55574 50.2245077,116.671086 51.2247516,117.442868 C52.4979223,118.428017 53.6735321,120.145839 54.7247516,122.554254 C54.7247516,122.554254 53.6735321,120.145839 54.7247516,122.554254 L54.7240199,122.551779 L54.7240199,122.551779 L54.7240199,122.551779 L54.7240199,122.551779 L54.7240199,122.551779 Z M115.580117,122.551779 C116.630117,120.143611 117.807191,118.425046 119.07963,117.442868 C119.980117,116.747571 120.737191,116.577522 121.213532,116.557225 C121.243288,116.555987 121.271337,116.555492 121.29841,116.555492 C121.331581,116.555492 121.363044,116.556235 121.393044,116.557225 C121.577191,116.564403 121.702557,116.594848 121.707435,116.596334 L121.707191,116.601037 C121.505483,118.919601 119.851581,120.413908 118.499386,121.258462 C117.040849,122.166878 115.609142,122.543116 115.577435,122.550541 C115.577435,122.550541 115.609142,122.543116 115.577435,122.550541 L115.580117,122.551779 L115.580117,122.551779 L115.580117,122.551779 L115.580117,122.551779 L115.580117,122.551779 Z M58.2435321,122.420591 C58.2345077,122.416878 57.2120687,122.001532 55.9340199,120.91465 C54.7432882,119.901779 53.0691418,118.078017 51.8569467,115.139898 C51.8576784,115.13965 52.1354833,114.989403 52.5608491,114.962175 C52.5854833,114.960442 52.6103613,114.959947 52.6354833,114.959947 C52.6720687,114.959947 52.7098735,114.961185 52.7484101,114.962175 C53.3364589,114.979007 54.2320687,115.227027 55.2249955,116.314403 C56.3654833,117.56366 57.3835321,119.616383 58.2503613,122.416136 L58.2528004,122.424056 L58.2454833,122.421581 L58.2435321,122.420591 L58.2435321,122.420591 L58.2435321,122.420591 L58.2435321,122.420591 L58.2435321,122.420591 Z M112.055727,122.413165 C112.921337,119.617373 113.939386,117.564403 115.079874,116.315145 C116.072557,115.227769 116.96841,114.979749 117.544996,114.963413 C117.595239,114.961928 117.632557,114.96069 117.669386,114.96069 C117.694752,114.96069 117.719142,114.961185 117.743532,114.962918 C118.150849,114.98866 118.422557,115.127274 118.448166,115.140888 C117.235239,118.079007 115.561825,119.902769 114.370849,120.915393 C113.093044,122.002274 112.070361,122.417621 112.060361,122.421829 L112.052069,122.425046 L112.054508,122.41267 L112.055727,122.413165 L112.055727,122.413165 L112.055727,122.413165 L112.055727,122.413165 L112.055727,122.413165 Z M121.180117,122.150789 C120.733532,122.150789 120.443776,122.049056 120.319386,121.848561 C120.161825,121.594601 120.352313,121.268858 120.414752,121.175046 C120.72841,120.701779 121.459874,120.224304 122.386459,120.224304 L122.426703,120.224551 C122.620605,120.227522 122.8228,120.254254 123.011093,120.302027 L123.011581,120.304254 C123.012557,120.31069 123.072557,120.765145 122.876947,121.224799 C122.757435,121.502027 122.354996,122.150541 121.179386,122.150541 L121.179386,122.150541 L121.180117,122.150789 L121.180117,122.150789 L121.180117,122.150789 L121.180117,122.150789 L121.180117,122.150789 Z M49.1240199,122.150789 C47.9481662,122.150789 47.5457272,121.503512 47.4271906,121.225047 C47.2325565,120.767373 47.2915809,120.311928 47.2920687,120.307472 L47.2928004,120.302522 C47.4830443,120.254254 47.6842638,120.227522 47.8776784,120.224799 L47.9179223,120.224551 C48.8445077,120.224551 49.5759711,120.702027 49.8896296,121.175294 C49.9518248,121.269106 50.1425565,121.594601 49.9847516,121.848809 C49.8579223,122.049304 49.5701174,122.150789 49.123776,122.150789 L49.123776,122.150789 L49.1240199,122.150789 L49.1240199,122.150789 L49.1240199,122.150789 L49.1240199,122.150789 L49.1240199,122.150789 Z M123.784996,118.816631 C123.08963,118.816631 122.63402,118.771829 122.62963,118.771334 L122.62841,118.770096 C122.628654,118.764898 122.653776,117.895096 123.410361,117.05772 C124.123288,116.268858 125.653044,115.308462 128.893044,115.211928 L128.895483,115.21168 L128.894996,115.216383 C128.894508,115.219848 128.798166,115.971829 128.456947,116.759947 C128.143288,117.483957 127.54963,118.387423 126.502313,118.580739 C125.446215,118.771334 124.443776,118.813413 123.785239,118.813413 L123.785239,118.813413 L123.784996,118.816631 L123.784996,118.816631 L123.784996,118.816631 L123.784996,118.816631 L123.784996,118.816631 Z M46.5191418,118.816631 C45.8625565,118.816631 44.8579223,118.775789 43.8018248,118.580987 C42.7545077,118.38767 42.1608492,117.483957 41.8474345,116.760195 C41.506215,115.971829 41.4098735,115.219849 41.4088979,115.212175 L41.4118248,115.212175 C44.651337,115.30871 46.181337,116.269353 46.8942638,117.057967 C47.6303613,117.872324 47.6740199,118.717868 47.676215,118.771334 L47.6740199,118.771581 C47.6691418,118.771581 47.2130443,118.816136 46.5179223,118.816136 L46.5179223,118.816136 L46.5191418,118.816631 L46.5191418,118.816631 L46.5191418,118.816631 L46.5191418,118.816631 L46.5191418,118.816631 Z M120.409386,115.395839 C120.407435,115.378017 120.227678,113.514155 120.227678,111.66168 C120.227678,109.810938 122.171825,109.070591 122.254508,109.040146 L122.257191,109.039155 C122.252069,109.076779 122.1628,109.715641 122.07402,110.464155 C122.005239,111.046086 121.889386,112.096829 121.889386,112.597571 C121.889386,113.11465 121.534508,113.746086 121.150849,114.351037 C120.785239,114.927522 120.415483,115.391878 120.412069,115.396581 L120.409874,115.399304 L120.412313,115.396829 L120.409386,115.395839 L120.409386,115.395839 L120.409386,115.395839 L120.409386,115.395839 L120.409386,115.395839 Z M49.8923126,115.395839 C49.8879223,115.390393 49.5179223,114.926037 49.1525565,114.349304 C48.7688979,113.744106 48.4140199,113.11267 48.4140199,112.595839 C48.4140199,112.096829 48.2984101,111.044848 48.2293857,110.462423 C48.1420687,109.723561 48.053776,109.091136 48.0464589,109.037423 L48.0496296,109.038413 C48.1318248,109.068858 50.0759711,109.809205 50.0759711,111.659947 C50.0759711,113.51366 49.8959711,115.376284 49.8942638,115.394848 L49.8940199,115.397571 L49.8915809,115.397571 L49.8923126,115.395839 L49.8923126,115.395839 L49.8923126,115.395839 L49.8923126,115.395839 L49.8923126,115.395839 Z M122.731581,115.086185 C122.684508,114.969601 122.694752,114.841383 122.730605,114.645591 C122.793532,114.301284 122.950361,113.849304 123.224264,113.223561 C123.660361,112.226532 124.221581,111.201779 124.276459,111.102027 C124.289874,111.08569 125.059874,110.101779 126.038166,109.122324 C126.605483,108.554502 127.138166,108.095591 127.621093,107.757472 C128.232557,107.329749 129.448166,107.169601 129.448166,107.169601 C129.448166,107.169601 129.539343,107.997939 129.4728,108.943858 C129.380849,110.248066 129.062313,111.224551 128.526215,111.846334 C127.938166,112.528264 126.931825,113.301037 125.692313,114.022324 C124.575971,114.671829 123.566215,115.117868 122.991581,115.214898 C122.972069,115.214898 122.952557,115.217373 122.930605,115.217373 C122.891581,115.220096 122.856947,115.21267 122.825727,115.197324 C122.789142,115.179502 122.751337,115.1347 122.731581,115.086185 L122.731581,115.086185 Z M47.3728004,115.220096 C47.3523126,115.220096 47.3320687,115.218116 47.3118248,115.214898 C46.7371906,115.117621 45.7274345,114.671829 44.611093,114.022324 C43.3715809,113.301037 42.3649955,112.528264 41.7769467,111.846334 C41.2408492,111.224551 40.9225565,110.248066 40.8306052,108.943858 C40.7654833,108.018363 40.8435321,107.247324 40.8518248,107.170839 C40.9523126,107.136928 41.0591418,107.120343 41.1725565,107.120343 C41.6028004,107.127522 42.0620687,107.324056 42.6820687,107.757472 C43.1652394,108.095343 43.6979223,108.554749 44.2649955,109.122324 C45.2435321,110.101779 46.0132882,111.08569 46.0208491,111.095343 L46.028654,111.105244 C46.0932882,111.222819 46.6474345,112.23668 47.0791418,113.223561 C47.3532882,113.850294 47.5101174,114.302027 47.5728004,114.645839 C47.608654,114.841631 47.6191418,114.970096 47.5718248,115.08668 C47.5520687,115.134947 47.5145077,115.179749 47.4779223,115.197571 C47.443776,115.212423 47.4096296,115.219848 47.3706052,115.219848 L47.3706052,115.219848 L47.3728004,115.220096 L47.3728004,115.220096 L47.3728004,115.220096 L47.3728004,115.220096 L47.3728004,115.220096 Z" id="leave" fill="#007F39"></path>
                <path d="M67.0839844,108.173828 C67.0839844,108.173828 68.5937492,101.494629 60.7622062,102.602051 C58.7769549,102.882776 56.9408209,103.814553 55.0791013,103.676758 C52.5173813,103.487151 50.2710354,101.759762 48.1591794,100.796387 C45.7513114,99.6979785 43.5699765,99.294126 42.2026365,98.0541992 C40.7322214,96.7208023 39.9253611,94.3983088 38.7148439,92.2368164 C37.964285,90.8966228 35.4033203,90.4868164 35.4033203,85.9199219 C35.4033203,81.3530273 32.7182436,77.8110057 33.4125977,76.4536133 C34.6035157,74.1254883 38.4248047,86.4345703 45.4091793,75.1611328 C48.7015631,69.8469156 51.8183572,69.9301758 60.7622068,73.1918945 C69.7060564,76.4536133 66.2617188,57.5854492 66.2617188,57.5854492 C66.2617188,57.5854492 86.7567591,63.5650261 97.2519548,61.4272461 C99.8006445,60.9081002 107.101564,60.715332 110.898927,57.5854492 C114.015627,57.5854492 119.106935,57.5854492 126.353029,53.0234375 C128.909345,51.4140266 129.801271,51.0029297 132.03467,48.5532227 C135.860842,48.5532227 139.349285,46.4224532 140.432131,45.5800781 C145.874025,41.3466797 146.796262,43.2537574 148.250002,42.5791016 C150.619803,41.4793171 152.216797,40.0771484 152.216797,40.0771484 C152.216797,40.0771484 154.558595,42.9077148 147.384279,45.0107422 C144.735457,45.7871988 144.101351,48.2856693 141.825685,49.9248047 C137.937727,52.7252558 132.748253,55.1448204 129.801271,57.5854492 C125.611617,61.0552331 125.961877,63.3214802 124.414064,63.0068359 C119.833498,62.0756836 118.839655,65.2394055 117.93799,67.480957 C114.848634,75.1611328 129.469288,81.4192327 126.353027,84.3793945 C115.360353,81.1499023 116.475396,87.4332937 114.015627,85.3876953 C109.593263,81.7099609 104.061525,84.3044203 104.061525,87.4667969 C104.061525,94.0761719 101.063225,93.0546806 96.4653337,94.7617188 C90.6144207,96.9339607 88.1506814,99.6435547 85.5620134,99.6435547 C77.5864274,99.6435547 75.2807345,100.730962 72.356447,102.602051 C69.6224138,104.351406 73.0361328,108.173828 73.0361328,108.173828 L67.0839844,108.173828 Z" id="yellow" fill="#F2C500"></path>
            </g>
        </g>
    </g>
</svg>