<?xml version="1.0" encoding="UTF-8" standalone="no"?>
<svg width="180px" height="180px" viewBox="0 0 180 180" version="1.1" xmlns="http://www.w3.org/2000/svg" xmlns:xlink="http://www.w3.org/1999/xlink">
    <!-- Generator: Sketch 3.8.3 (29802) - http://www.bohemiancoding.com/sketch -->
    <title>djibouti</title>
    <desc>Created with Sketch.</desc>
    <defs></defs>
    <g id="Page-1" stroke="none" stroke-width="1" fill="none" fill-rule="evenodd">
        <g id="flags" transform="translate(-2070.000000, -1530.000000)">
            <g id="djibouti" transform="translate(2070.000000, 1530.000000)">
                <circle id="white" fill="#FFFFFF" cx="90" cy="90" r="90"></circle>
                <path d="M180,90 L90,90 L26.3603888,153.639611 C42.647185,169.926407 65.147185,180 90,180 C139.70563,180 180,139.70563 180,90 L180,90 Z" id="green" fill="#1AAF5D"></path>
                <path d="M180,90 L90,90 L26.3603888,26.3603888 C42.647185,10.0735925 65.147185,0 90,0 C139.70563,0 180,40.2943701 180,90 L180,90 Z" id="blue" fill="#2C97DE"></path>
                <polygon id="star" fill="#E94B35" points="33.2246927 101.505321 21.3431804 107.994679 23.6123467 94.2499998 14 84.5159646 27.2839382 82.5106411 33.2246934 70.005321 39.1654521 82.5106442 52.4493894 84.5159746 42.8370387 94.2500025 45.1062055 107.994679"></polygon>
            </g>
        </g>
    </g>
</svg>