<?xml version="1.0" encoding="UTF-8" standalone="no"?>
<svg width="180px" height="180px" viewBox="0 0 180 180" version="1.1" xmlns="http://www.w3.org/2000/svg" xmlns:xlink="http://www.w3.org/1999/xlink">
    <!-- Generator: Sketch 3.8.3 (29802) - http://www.bohemiancoding.com/sketch -->
    <title>dominican_republic</title>
    <desc>Created with Sketch.</desc>
    <defs></defs>
    <g id="Page-1" stroke="none" stroke-width="1" fill="none" fill-rule="evenodd">
        <g id="flags" transform="translate(-2610.000000, -1530.000000)">
            <g id="dominican_republic" transform="translate(2610.000000, 1530.000000)">
                <circle id="white" fill="#FFFFFF" cx="90" cy="90" r="90"></circle>
                <path d="M120,5.12116698 L120,60 L174.878833,60 C165.840282,34.4275953 145.572405,14.159718 120,5.12117078 L120,5.12116698 Z M60,174.878833 L60,120 L5.12116698,120 C14.159718,145.572405 34.4275953,165.840282 59.9999996,174.878829 L60,174.878833 Z" id="red" fill="#E94B35"></path>
                <path d="M5.12116698,60 L60,60 L60,5.12116698 C34.4275953,14.159718 14.159718,34.4275953 5.12117078,59.9999996 L5.12116698,60 Z M120,174.878833 L120,120 L174.878833,120 C165.840282,145.572405 145.572405,165.840282 120,174.878829 L120,174.878833 Z" id="blue" fill="#227FBB"></path>
                <g id="emblem" transform="translate(60.000000, 60.000000)">
                    <path id="flag" stroke="#000000" stroke-width="0.1" fill="#00873F"></path>
                    <path d="M16.6527513,15.6769341 C16.6878396,15.911139 16.6703008,35.584461 16.6703008,37.620252 C16.6703008,39.565965 16.6703008,40.7550127 17.635272,42.1242181 C18.0037189,42.664693 18.0914397,42.6466785 18.2493459,42.8448525 C18.7406089,43.4754072 19.9863009,44.0699311 20.8810954,44.2681051 C21.758346,44.4482628 24.9866197,44.3762011 26.1095026,44.3762011 C27.548191,44.3762011 28.214899,44.3041377 29.179872,45.2769933 C29.4781351,45.5652471 29.5483189,45.7093722 29.7764035,46.0696912 C29.899218,45.9796114 29.899218,45.961597 29.9693964,45.8354863 C30.2852071,45.2589771 30.8115549,44.8085818 31.4080846,44.5743733 C32.1625207,44.2681051 33.4257549,44.3762011 34.3030072,44.3762011 C35.4258829,44.3762011 37.8295495,44.4662809 38.8296108,44.2500906 C39.268236,44.1419946 39.6366829,43.9798513 39.9875838,43.8177081 C40.338481,43.6555668 40.6542919,43.4393764 40.9350072,43.2231861 C41.2332757,42.9889794 41.4613585,42.7367565 41.7245334,42.4304863 C42.9877729,40.9712029 42.9175945,39.1516006 42.9175945,37.2419202 L42.9175945,16.5056646 C42.9175945,15.5688381 42.8123206,15.8030446 43.2860361,15.3166169 L46.3915009,12.0377298 L13.2139368,12.0557462 C13.2665739,12.2359044 13.4244782,12.3439987 13.6174728,12.5421729 C13.775378,12.7043155 13.8981939,12.8304263 14.0560991,12.9925698 C14.3543618,13.316855 14.6175351,13.5870924 14.9158031,13.8933627 C15.143887,14.1455853 16.5123946,15.6048688 16.6527531,15.6769341 C16.6527531,15.6769341 16.5123946,15.6048688 16.6527531,15.6769341 L16.6527513,15.6769341 L16.6527513,15.6769341 L16.6527513,15.6769341 L16.6527513,15.6769341 L16.6527513,15.6769341 Z" id="flag" stroke="#000000" stroke-width="0.1"></path>
                    <path d="M32.5137874,30.9778785 L42.8969262,30.9778785 L42.9273225,39.4227009 C42.4571766,43.1108845 39.746328,44.366922 37.3142143,44.3549475 C35.6688991,44.3723311 35.1090558,44.3434188 32.5137874,44.3250544 L32.5137874,30.9778785 C32.5137874,30.9778785 32.5137874,35.4025686 32.5137874,30.9778785 L32.5137874,30.9778785 L32.5137874,30.9778785 L32.5137874,30.9778785 L32.5137874,30.9778785 L32.5137874,30.9778785 Z" id="flag" fill="#002D62"></path>
                    <path d="M27.011591,30.9778785 L16.628454,30.9778785 L16.5980577,39.4227009 C17.0682036,43.1108845 19.7790504,44.366922 22.2111657,44.3549475 C23.8564811,44.3723311 24.4163225,44.3434188 27.011591,44.3250544 L27.011591,30.9778785 C27.011591,30.9778785 27.011591,35.4025686 27.011591,30.9778785 L27.011591,30.9778785 L27.011591,30.9778785 L27.011591,30.9778785 L27.011591,30.9778785 L27.011591,30.9778785 Z" id="flag" fill="#CE1126"></path>
                    <polygon id="flag" fill="#CE1126" points="32.5137874 25.4424345 32.5137874 12.0362853 42.9273225 12.0362853 46.4949549 12.0362853 42.9273225 15.4959372 42.9273225 25.4424345 32.5137874 25.4424345 32.5137874 25.4424345 32.5137874 25.4424345"></polygon>
                    <polygon id="flag" fill="#002D62" points="27.011591 25.4424345 27.011591 12.0362853 16.5980577 12.0362853 13.030424 12.0362853 16.5980577 15.4959372 16.5980577 25.4424345 27.011591 25.4424345 27.011591 25.4424345 27.011591 25.4424345"></polygon>
                    <polygon id="flag" fill="#EAC102" points="29.2487874 15.3303063 29.2487874 16.8312489 27.7434612 16.8312489 27.7434612 18.1008489 29.2487874 18.1008489 29.2487874 23.473722 30.4878938 23.473722 30.4878938 18.1008489 32.0122055 18.1008489 32.0122055 16.8312489 30.4878938 16.8312489 30.4878938 15.3303063 29.2487874 15.3303063 29.2487874 15.3303063 29.2487874 15.3303063"></polygon>
                    <path d="M20.6141532,15.1241982 L20.7311964,33.2029632 L20.7326379,33.2029632 C20.7326379,33.2165946 20.7311964,33.2300574 20.7311964,33.2437142 C20.7311964,35.6212386 22.0965225,37.5490659 23.7800865,37.5490659 C25.4509478,37.5490659 26.8077983,35.6504828 26.8281821,33.2977287 L26.8281821,33.2437142 L26.7048162,25.0834984 L20.6141532,15.1241982 L20.6141532,15.1241982 L20.6141532,15.1241982 L20.6141532,15.1241982 L20.6141532,15.1241982 Z" id="flag" stroke="#000000" stroke-width="0.1" fill="#FFFFFF"></path>
                    <polygon id="flag" stroke="#000000" stroke-width="0.1" fill="#002D62" points="20.6166144 15.2144773 23.9900126 20.6128224 23.9628848 30.3989383 20.6829441 26.4837154 20.6166144 15.2144773 20.6166144 15.2144773 20.6166144 15.2144773"></polygon>
                    <path d="M19.766355,35.9437197 C19.766355,38.5642695 21.6109334,40.6533408 23.8854902,40.6533408 C26.1428667,40.6533408 27.9760163,38.5959571 28.0035621,36.0464157 C28.0035621,36.0270289 27.8368829,27.1451311 27.8368829,27.1451311 L19.6082234,18.7099867 L19.766355,35.9437197 L19.766355,35.9437197 L19.766355,35.9437197 L19.766355,35.9437197 L19.766355,35.9437197 Z" id="flag" stroke="#000000" stroke-width="0.1" fill="#FFFFFF"></path>
                    <polygon id="flag" fill="#002D62" points="19.6115676 18.8078193 24.1691153 23.4791076 24.1324612 32.9051729 19.7011604 28.6624677 19.6115676 18.8078193 19.6115676 18.8078193 19.6115676 18.8078193"></polygon>
                    <path d="M26.0802054,25.4327166 L27.8421279,27.238606 L27.9593946,33.4320036 C27.3261243,34.6283655 26.0392954,33.9799233 26.0392954,33.9799233 L26.0802054,25.4327166 L26.0802054,25.4327166 L26.0802054,25.4327166 L26.0802054,25.4327166 L26.0802054,25.4327166 Z" id="flag" fill="#CE1126"></path>
                    <path d="M27.9677604,34.3359843 L28.0003171,36.0771753 L28.0003171,36.1355855 C27.9986955,36.2783529 27.991218,36.418974 27.9786036,36.5583662 C26.2955856,37.8241922 25.8279729,35.9478363 25.8279729,35.9478363 C27.0877711,35.8248617 27.6865009,35.0837058 27.9677604,34.3359843 C27.9677604,34.3359843 27.6865009,35.0837058 27.9677604,34.3359843 L27.9677604,34.3359843 L27.9677604,34.3359843 L27.9677604,34.3359843 L27.9677604,34.3359843 L27.9677604,34.3359843 Z" id="flag" fill="#002D62"></path>
                    <path d="M19.7207604,31.1910307 C22.0302504,33.8279238 24.006101,35.2517619 24.006101,35.2517619 C24.5252253,39.4019673 26.9651045,38.0234302 27.844283,37.3761625 C27.3478793,39.3222598 25.7630865,40.744548 23.8851405,40.744548 C21.6095352,40.744548 19.7642559,38.6554042 19.7642559,36.0778405 C19.7642559,36.0630489 19.7656973,36.0480327 19.7656973,36.0332701 L19.7642559,36.0332701 L19.7207604,31.1910307 L19.7207604,31.1910307 L19.7207604,31.1910307 L19.7207604,31.1910307 L19.7207604,31.1910307 Z" id="flag" fill="#CE1126"></path>
                    <g id="flag" transform="translate(17.550000, 12.900000)" fill="#EAC102">
                        <path d="M2.73789217,2.36701771 C2.55436668,1.9549985 2.60650978,1.69248667 2.76225675,1.43095764 L1.1592345,0.097317015 L1.87037265,2.27092035 C2.14970735,2.12701577 2.38189677,2.12297607 2.67881221,2.42252503 L2.51998425,2.5717485 L9.68255805,12.390886 L10.0145845,12.1621167 L2.8160052,2.29362825 L2.73789217,2.36701771 L2.73789217,2.36701771 Z" id="path10045_11-4-8-7"></path>
                        <path d="M1.86459293,5.52806426 C1.5908446,5.11929827 1.60287707,4.85115603 1.72657723,4.57037666 L0.0838158432,3.51342677 L0.993180486,5.45316174 C1.25546538,5.27454689 1.48536225,5.25331196 1.83660397,5.56416358 L1.7409308,5.68755994 L9.80708083,13.7226351 L10.0807694,13.4623186 L1.97407309,5.38686004 L1.86459293,5.52806426 L1.86459293,5.52806426 Z" id="path10045_11-12-8"></path>
                    </g>
                    <path d="M39.0715135,33.5649808 C39.0715135,35.8027742 37.7061874,37.5867226 36.0226216,37.5867226 C34.3517604,37.5867226 32.9949117,35.8298358 32.9745279,33.6526737 L33.0978937,26.0514928 L39.1885567,16.5 L39.0715135,33.5649808 L39.0715135,33.5649808 Z" id="flag" stroke="#000000" stroke-width="0.1" fill="#FFFFFF"></path>
                    <polygon id="flag" fill="#002D62" points="39.1860937 16.35 35.8126972 21.6509927 35.8398252 30.4365951 39.1197657 27.0472202 39.1860937 16.35 39.1860937 16.35 39.1860937 16.35"></polygon>
                    <path d="M39.1052577,28.854765 C37.3958253,31.2881293 35.9333496,32.6020695 35.9333496,32.6020695 C35.5491063,36.4319401 33.7431693,35.1598024 33.0924252,34.5624942 C33.4598379,36.3583885 34.6328685,37.6708894 36.0228883,37.6708894 C37.7072361,37.6708894 39.073081,35.7429988 39.073081,33.3643849 C39.073081,33.3507354 39.0716397,33.3368791 39.0716397,33.3232495 L39.073081,33.3232495 L39.1052577,28.854765 L39.1052577,28.854765 L39.1052577,28.854765 L39.1052577,28.854765 L39.1052577,28.854765 Z" id="flag" stroke="#000000" stroke-width="0.1" fill="#AA241E"></path>
                    <path d="M40.1944864,18.7476435 L40.0363549,35.9813764 L40.0349134,35.9813764 C40.0349134,35.9961316 40.0363549,36.0107401 40.0363549,36.0255372 C40.0363549,38.6019262 38.1917766,40.6909975 35.9172198,40.6909975 C33.6598432,40.6909975 31.8266937,38.6336139 31.7991477,36.0840724 L31.7991477,36.0255372 L31.9658271,27.1827879 L40.1944864,18.7476435 L40.1944864,18.7476435 L40.1944864,18.7476435 L40.1944864,18.7476435 L40.1944864,18.7476435 Z" id="flag" stroke="#000000" stroke-width="0.1" fill="#FFFFFF"></path>
                    <polygon id="flag" fill="#002D62" points="40.1911423 18.8454762 35.6335945 23.5167644 35.6702487 32.9428296 40.1015496 28.7001245 40.1911423 18.8454762 40.1911423 18.8454762 40.1911423 18.8454762"></polygon>
                    <path d="M33.7225046,25.4703733 L31.9605803,27.2762628 L31.8433136,33.4696603 C32.4765857,34.6660224 33.7634126,34.01758 33.7634126,34.01758 L33.7225046,25.4703733 L33.7225046,25.4703733 L33.7225046,25.4703733 L33.7225046,25.4703733 L33.7225046,25.4703733 Z" id="flag" fill="#CE1126"></path>
                    <path d="M31.8349478,34.3736411 L31.8023928,36.1148321 L31.8023928,36.1732424 C31.8040145,36.3160096 31.811492,36.4566308 31.8241064,36.5960229 C33.5071244,37.8618489 33.9747369,35.9854931 33.9747369,35.9854931 C32.7149388,35.8625184 32.116209,35.1213626 31.8349478,34.3736411 C31.8349478,34.3736411 32.116209,35.1213626 31.8349478,34.3736411 L31.8349478,34.3736411 L31.8349478,34.3736411 L31.8349478,34.3736411 L31.8349478,34.3736411 L31.8349478,34.3736411 Z" id="flag" fill="#002D62"></path>
                    <path d="M40.0819478,31.2286876 C37.7724576,33.8655807 35.796609,35.2894188 35.796609,35.2894188 C35.2774847,39.4396242 32.8376054,38.061087 31.958427,37.4138193 C32.4548307,39.3599166 34.0396235,40.7822049 35.9175693,40.7822049 C38.1931748,40.7822049 40.0384523,38.693061 40.0384523,36.1154973 C40.0384523,36.1007058 40.0370108,36.0856894 40.0370108,36.0709269 L40.0384523,36.0709269 L40.0819478,31.2286876 L40.0819478,31.2286876 L40.0819478,31.2286876 L40.0819478,31.2286876 L40.0819478,31.2286876 Z" id="flag" fill="#CE1126"></path>
                    <g id="Group" transform="translate(37.250000, 19.900000) scale(-1, 1) translate(-37.250000, -19.900000) translate(31.750000, 12.900000)" fill="#EAC102">
                        <path d="M2.73789217,2.36701771 C2.55436668,1.9549985 2.60650978,1.69248667 2.76225675,1.43095764 L1.1592345,0.097317015 L1.87037265,2.27092035 C2.14970735,2.12701577 2.38189677,2.12297607 2.67881221,2.42252503 L2.51998425,2.5717485 L9.68255805,12.390886 L10.0145845,12.1621167 L2.8160052,2.29362825 L2.73789217,2.36701771 L2.73789217,2.36701771 Z" id="path10045_11-4-8-7"></path>
                        <path d="M1.86459293,5.52806426 C1.5908446,5.11929827 1.60287707,4.85115603 1.72657723,4.57037666 L0.0838158432,3.51342677 L0.993180486,5.45316174 C1.25546538,5.27454689 1.48536225,5.25331196 1.83660397,5.56416358 L1.7409308,5.68755994 L9.80708083,13.7226351 L10.0807694,13.4623186 L1.97407309,5.38686004 L1.86459293,5.52806426 L1.86459293,5.52806426 Z" id="path10045_11-12-8"></path>
                    </g>
                    <path d="M31.0789761,33.0131293 L31.0861111,25.209177 C30.2993809,23.9602047 28.0214356,24.6880128 27.4543705,24.755017 C26.8873068,24.8220187 26.2644018,24.1316698 26.2644018,24.1316698 L26.2644018,24.1316698 L25.9746049,32.233605 C26.7294979,33.2821794 28.1390704,32.4853308 28.8380646,32.4162403 C30.1201266,32.2895136 31.0789761,33.0131293 31.0789761,33.0131293 L31.0789761,33.0131293 L31.0789761,33.0131293 L31.0789761,33.0131293 L31.0789761,33.0131293 L31.0789761,33.0131293 Z" id="book" fill="#ECF0F1" transform="translate(28.530358, 28.572400) rotate(-31.000000) translate(-28.530358, -28.572400) "></path>
                    <path d="M30.2653719,30.30998 L30.356169,22.5608606 C31.1428991,21.3118885 32.9958768,21.9956029 33.5629421,22.0626071 C34.1300058,22.1296088 34.7529108,21.4392599 34.7529108,21.4392599 L34.7529108,21.4392599 L35.0427077,29.5411951 C34.2878145,30.5897696 32.878242,29.7929209 32.1792479,29.7238306 C30.8971859,29.5971038 30.2653719,30.30998 30.2653719,30.30998 L30.2653719,30.30998 L30.2653719,30.30998 L30.2653719,30.30998 L30.2653719,30.30998 L30.2653719,30.30998 Z" id="book" fill="#ECF0F1" transform="translate(32.654040, 25.874620) rotate(-31.000000) translate(-32.654040, -25.874620) "></path>
                    <path d="M11.4664403,5.50258631 C9.9773868,6.42667944 9.6274627,6.73717622 10.4464423,8.22311835 C10.2528637,8.35618913 8.89782498,8.77018313 8.5627893,8.88846587 C7.94483055,9.11024837 7.30453474,9.35420976 6.72380656,9.61295664 C6.10584783,9.88648776 5.54745546,10.1378425 5.01139633,10.4631223 C4.37109924,10.8475466 4.10306968,11.1358644 3.61168342,11.6459636 L6.70146951,11.4093956 C6.60468019,11.6089992 6.38132478,11.8973158 6.25475739,12.0895286 C5.72613928,12.8509825 5.3985459,13.457188 4.93694409,14.2556063 C5.10073824,14.1742854 5.38365621,13.9525016 5.56234513,13.8342176 C6.18029878,13.398046 6.93227358,12.9618731 7.60979106,12.6144145 C9.82103494,11.4981086 13.7968106,11.4685376 15.4273225,9.50945814 C15.8442565,9.01414325 15.5911204,8.71843324 15.2411913,7.91262285 C16.4473255,7.51341434 16.9014864,7.23248984 18.3682029,6.89981544 C21.9121509,6.10879182 24.3541989,7.04767044 26.0666092,6.62628432 C26.6026696,6.49321482 27.1238403,6.19750482 27.1610658,5.63565581 L26.9079246,3.84660902 L32.6631141,3.83921307 C32.6704953,4.85202048 31.6952338,6.1531445 33.4820976,6.61888839 C35.0977173,7.04027451 38.3661935,6.11618012 41.1879539,6.89981163 L44.3149655,7.91261903 C44.3000757,8.06047403 44.076705,8.45968254 44.0097015,8.66668082 C43.8756943,9.02892494 43.890584,9.22113771 44.1213869,9.47988333 C44.4266381,9.82734195 44.8584642,10.1748018 45.3200699,10.4409408 C46.2358363,10.9658267 47.4345321,11.2984999 48.5662116,11.5720322 C51.8197856,12.3630559 52.1250495,12.5700542 54.6266562,14.2408157 C54.462857,13.7528942 53.2716186,12.0155973 52.8770166,11.4019984 L55.9519143,11.6459597 C55.4233052,10.8401493 53.8002279,9.98998373 52.862127,9.62034494 L49.1171553,8.25268935 C49.184159,8.07526335 49.2511752,8.03090685 49.3256237,7.86826635 C49.5266471,7.41730923 49.6755567,6.93677984 49.4000721,6.51539372 C48.8789077,5.72436881 45.7526471,4.18793066 44.9627048,3.9722864 C43.6134705,3.60396513 42.1950182,3.30356934 40.8623153,3.09041118 C39.5296122,2.87725302 36.9664743,2.69333999 36.9664743,2.69333999 C36.7830639,2.49936416 37.3195889,1.48229868 36.4974237,0.771223686 C36.0134837,0.38680068 35.3136303,0.253731177 34.5988873,0.179803676 C31.7399028,-0.0937287147 27.8460306,-0.0124078269 24.9572641,0.179803676 C24.1233948,0.231552291 23.5352193,0.320266565 23.0587215,0.771223686 C22.4779894,1.3182872 22.4035372,1.65096159 22.4556574,2.67855449 C18.599007,2.61201911 14.7051309,3.491757 11.4664403,5.50258631 Z" id="ribbon" fill="#227FBB"></path>
                    <path d="M47.951448,18.0889571 C47.8107192,17.9266232 47.623073,17.6392644 47.4823323,17.42282 C47.0914206,16.8276029 46.734714,16.1775515 46.406339,15.5282225 C46.328159,15.3478527 46.2790016,15.2954586 46.1382729,15.1692006 C46.0757241,15.3676077 46.3877292,16.4291624 46.4659092,16.7177529 C46.7942843,18.0164108 47.6714798,19.4989169 48.3125867,20.6713194 C48.1249523,20.5630973 47.4532859,19.8413051 47.124911,19.1919762 C46.8121671,18.5787204 46.5619722,17.9258133 46.3430516,17.2584486 C46.1866916,16.7894882 46.0310465,16.3424918 45.8590433,15.89157 C45.7964946,15.9817535 46.0139141,18.1100091 46.1233803,18.8675588 C45.6699078,18.6511158 44.3400021,17.8726788 44.3400021,17.8726788 C44.2461909,18.1432335 45.1069691,19.0087508 45.2633409,19.1530461 C45.4666184,19.3334159 46.342301,20.0208486 46.436124,20.2733675 C46.7801303,21.1752098 48.0929274,23.2839608 48.0929274,23.2839608 C48.0929274,23.2839608 46.0146408,21.0136149 45.1702565,20.2560651 C45.1858997,20.5266186 47.8263506,23.6648528 48.1859999,24.2961429 L49.0013735,25.8446954 C48.9075504,25.6643268 47.2961754,23.3747976 47.2961754,23.3747976 C46.858346,22.7795792 46.3735634,22.3658849 45.8106366,21.8608499 C45.3415328,21.4279667 45.0287772,21.1581552 44.4814814,20.8875977 C44.450219,21.0499331 46.9998015,23.5922977 47.2030909,23.8808884 C47.5783714,24.4580696 49.3922973,27.5965491 49.3922973,27.5965491 C49.0013735,27.4342124 47.1866853,25.1082932 46.7488679,24.6032582 C46.3892184,24.188408 46.2343121,23.9517353 45.7808514,23.6992151 C45.812114,23.9517353 47.044503,25.5409202 47.3259605,25.8836253 C47.4510581,26.027918 48.1413222,26.9477144 48.1413222,26.9477144 C48.5009715,27.4347107 49.1570067,28.296881 49.4071898,28.8379863 L49.7832329,29.7074249 C49.7675898,29.6172414 47.3899866,26.4397478 46.9052397,26.0609736 L45.6542646,25.2520929 C45.5917278,25.396391 46.4845308,26.2599495 46.4845308,26.2599495 C47.0474577,26.7649845 47.8114698,27.7387946 48.2492993,28.3881276 C48.5463879,28.7849403 48.766083,29.1664026 49.0162661,29.5992858 C48.8599061,29.4910637 47.6721947,28.2470159 47.3594628,27.9945012 L45.3415209,26.8741797 C45.3727953,27.0545483 46.0437111,27.5222021 46.2313574,27.6484559 C46.6222811,27.9370466 47.8591142,29.1305703 47.9998428,29.2748684 C48.2969435,29.5814922 49.0137202,30.1794132 49.656646,31.6712307 C50.2995719,33.1630482 50.6581649,35.4431243 50.6581649,35.4431243 C50.4392442,34.5052061 50.0170223,33.4735263 49.7199336,32.5536468 C49.4853818,31.8502047 48.968586,30.1404687 48.1711073,30.4470966 C47.8740068,30.5733519 47.7340167,30.9327876 47.6089191,31.2213728 C47.4212849,31.6181855 47.1695768,31.0760891 46.5441011,32.5190423 C46.2000948,33.3307052 45.8873512,35.0082834 45.9186137,35.1706146 C46.0749856,35.0984684 46.7652615,33.422277 47.203091,32.5925769 L46.6073885,35.6421003 C46.8106661,35.6060244 46.8754547,35.2053788 46.9536465,34.9889399 C47.2194728,34.2313902 47.4518085,33.475568 47.7019917,32.7180183 C48.5932935,33.4214589 48.876276,37.2090885 49.0013735,38.5618568 C48.9075504,38.0928977 48.5635323,37.0835765 48.3758859,36.6326547 L47.4674399,34.9370331 C46.9357874,35.0091849 46.8739653,35.7657435 46.7488679,36.2347026 C46.5925079,36.0002211 46.4346348,35.6060244 46.0749855,35.6421003 C45.7466223,35.6601375 45.6230022,36.0923618 45.5760848,36.5072133 C45.529179,36.9401019 45.8590433,39.0117155 45.8590433,39.0117155 L46.0452003,36.4163765 C46.3892184,36.5967449 47.0474696,38.2744053 46.9536465,38.9598087 C46.6096284,41.4669395 46.4033366,42.257913 45.2149341,44.3321606 C45.0116567,44.6928975 43.8262088,46.3911296 43.8262088,46.3911296 C44.4360413,45.2006967 44.6989247,44.7297153 45.1367541,43.3589084 C45.449486,42.3308012 45.7160748,41.2495871 45.8255291,40.149339 C45.8411604,39.9689651 45.8419109,39.8063142 45.8106366,39.6259457 C45.685551,39.6800534 45.6527754,39.8788646 45.6058698,40.0412 C44.5738391,43.6485842 44.4352668,43.7731605 42.7464981,46.983732 L43.059242,44.9290886 C42.9028701,44.9471258 42.7785113,45.4898631 42.7316057,45.6341556 C42.4970537,46.4277813 42.2617275,47.2016352 41.8864469,47.9050773 C41.9177213,47.688633 42.4784321,44.6392757 42.4784321,44.6392757 C42.2907977,44.6212425 42.2773706,45.0355902 42.1991906,45.2881104 C41.9959131,46.0276215 41.6995392,46.6789782 41.4024387,47.3643816 C41.4024387,47.3643816 41.5565826,45.6884349 41.4471164,45.4178774 C41.2907564,45.4719906 41.1187413,46.4090007 41.0561927,46.6074078 C40.6652688,47.8339221 40.1819756,48.6251517 39.6190605,49.7434425 C39.2887317,49.7325629 42.8246781,50.4831141 42.8246781,50.4831141 C44.372718,50.4109623 45.4026162,50.2681412 46.9350249,50.4485096 C47.1695768,50.4665469 48.1234631,50.6656128 48.2641917,50.5393464 C47.8107312,50.2507614 45.4048203,49.5271643 45.4048203,49.5271643 L49.5784542,49.4017229 L49.2024231,49.1681423 C48.5143988,48.8615144 46.6535436,48.7334625 45.9186135,48.6793535 C47.2946504,48.5350554 48.3140997,48.4119048 49.6901484,48.3938661 C50.049345,48.2781777 51.2736327,48.7237857 50.7363567,48.1040534 C50.2516218,47.7252792 48.6722241,47.6707604 48.1562148,47.6887991 L50.6283796,47.5633577 C51.0213527,47.4490506 53.5619043,48.1163726 52.6612142,47.4552186 C51.9575586,47.0584113 50.4072074,46.6947317 49.6566462,46.5684777 C50.0944755,46.2798815 52.9263255,45.0021372 53.9270817,44.695508 C55.0288811,44.5025186 55.8584801,43.9109834 54.41109,44.1721146 C53.5198001,44.2803368 52.4415311,44.5663944 51.6596955,44.6565779 C51.6596955,44.6565779 54.6918207,43.377761 54.7387263,43.233467 C54.7387263,43.233467 54.347052,43.232732 54.2063232,43.2507693 C54.6597957,42.9441414 55.9115214,42.6546608 56.380637,42.5283999 C56.9435639,42.3841074 58.4760083,41.9726873 58.5698433,41.8103561 C58.5698433,41.8103561 55.2569874,42.1707663 54.9286124,42.2429126 C54.6315119,42.2970272 54.0655707,42.4418886 53.8153875,42.4418886 C54.7379519,42.0090054 57.4931112,41.0347788 57.5869344,40.8544062 C57.3992882,40.7642213 57.2421657,40.8176009 56.9763395,40.8717084 C56.0694063,41.0340438 53.6277413,41.8982558 53.346272,41.970402 C56.4580068,40.6176338 55.2719396,41.014214 58.1491226,40.3829196 C58.4774856,40.3107734 58.7433357,40.3456271 58.7746101,40.0931067 L57.1178187,39.9849677 C56.5705232,40.0030049 56.0075724,40.1486082 55.5540999,40.1666414 L56.7864534,38.9944133 C57.1304595,38.6697522 56.9741115,38.5798953 57.5683128,38.5618568 C57.8028647,38.5438194 58.5221871,38.600139 58.6629159,38.5099499 C58.2407178,38.0229578 58.116359,38.2736757 57.7097921,38.0211611 C57.7097921,38.0211611 58.6011059,36.6701964 58.5698433,36.5980502 L57.0843045,37.822185 C56.8653839,38.0025536 55.4744069,38.2546586 54.9583976,38.3628807 C55.5682301,37.8217754 55.9577003,37.4988294 56.6300814,37.0479089 C56.9271821,36.8314646 58.4298533,36.0733571 58.4767589,35.892983 L56.4923312,36.4682832 C56.1014075,36.6306131 55.0216968,37.2077888 54.7871331,37.4242331 C55.6628037,36.3239796 58.4782482,33.8925303 58.5251657,33.7302005 C58.4469738,33.6941246 56.5533788,34.7558453 56.1311807,35.0624745 C55.4275251,35.5855467 54.6605345,36.1621467 54.0350588,36.7753983 C54.4103394,36.3244779 54.7558587,35.9098755 55.1780568,35.495031 C55.27188,35.3868089 57.2563314,33.4580166 57.6316121,33.0251334 C57.6316121,33.0251334 58.8200384,31.9799841 58.8043952,31.7274638 C57.9443678,32.2685747 57.1490693,32.8610041 56.3359593,33.4922945 C55.9294044,33.7989222 54.2547182,35.2779402 54.0201663,35.4041942 C54.5049012,34.5203906 55.0068044,33.601008 55.6322799,32.8434596 C56.3984843,31.8875028 57.3665484,30.8954133 58.242207,30.0837491 C58.4767589,29.8673048 58.6971687,29.5979805 58.9160894,29.4176121 C58.7128119,29.3087366 58.0374165,29.8702419 57.8810565,30.0145401 C56.9428371,30.7901285 56.0232036,31.651799 55.2413562,32.5536468 C55.1006274,32.7159765 52.8146076,36.0178487 52.4080407,36.7753983 C52.673867,35.4045914 53.5346807,34.3428832 54.1914306,33.5312244 L55.6918502,31.6712315 C55.8013046,31.5449721 57.4288707,29.1270933 57.6316121,27.6744093 C57.4614437,27.9549219 56.615856,29.0928624 56.4960485,29.2705428 L53.4505199,33.2197838 C53.587448,32.6670029 54.1856523,31.4832335 54.4594968,31.0094201 C54.8702574,30.2987013 57.2840912,26.643149 57.6092733,26.3075307 C57.6293246,26.2843941 58.4775095,25.2161831 58.7746101,25.0358147 C58.4931527,24.7111481 57.4439658,25.4487794 57.2406764,25.6111148 C55.9115453,26.6392164 54.9598749,28.0453338 53.9903811,29.4522165 C54.1154786,28.6946669 54.9107414,26.4759897 55.2860339,25.8446954 C55.5987657,25.3757363 57.0694119,22.7778696 57.0694119,22.7778696 C56.8661226,22.795907 54.3939456,26.5484391 53.5808357,28.2799884 C53.6277413,27.4142166 55.723887,23.519666 56.2242651,22.6178237 C55.9428077,22.5276402 55.1140188,23.6464071 54.97329,23.8808888 C54.6136407,24.3859182 54.2547182,24.8911899 53.9419743,25.4683712 C53.3790476,26.5325487 52.3633629,29.1840315 52.3633629,29.1840315 C52.4259117,28.0477008 53.425965,25.3399994 53.8637943,24.4561889 C54.1296206,23.9331167 56.2726601,20.7967608 56.2726601,20.7967608 C55.8817362,20.634431 53.5503,23.8422785 53.2531994,24.365352 C53.4095594,23.4995747 55.1765795,20.4006872 55.5987776,19.8235086 C55.7395064,19.6431389 55.85045,19.4603259 55.9599162,19.243883 C55.5220869,19.1717352 52.1288111,24.1880039 52.1288111,24.1880039 C52.2226343,23.3583078 52.6612262,21.6235196 52.895778,20.8659699 C53.2241411,19.8919745 53.6746589,19.0103094 54.0499514,18.0543525 C53.7372077,18.0002421 52.2702905,20.705924 52.2702905,20.705924 C52.3484705,20.0024861 53.31576,17.5503903 53.6441232,16.6485438 C53.4564888,16.7026542 53.3321181,17.0260902 53.1601149,17.3146809 C52.7222736,18.0902693 52.3305875,18.8482107 51.9240324,19.6418349 C51.9865812,18.8482107 52.4415549,18.0173852 52.7542986,17.3319831 C52.1757287,17.6205738 51.2054604,19.9491107 50.9709086,20.6886216 C50.8614543,20.995251 50.7512493,21.3537801 50.6730575,21.6964784 L50.5501998,22.0598258 C50.5189254,20.2741745 50.8443456,18.450033 51.0788856,16.7004507 C50.938157,16.7365251 50.469768,18.1607753 50.3603136,18.5215136 L49.9060905,20.6496917 C49.2337094,19.5855126 49.0646372,17.6213226 47.7355059,15.4027811 C47.3133078,14.6993418 47.1703154,14.6252438 46.6073885,14.1743206 C46.5761142,14.2284324 47.2165181,15.4555655 47.951448,18.0889571 Z" id="right-leaves" fill="#006300"></path>
                    <path d="M6.66666666,19.5176742 C6.66666666,19.8680663 6.34398898,20.1521148 5.945946,20.1521148 C5.54790291,20.1521148 5.22522522,19.8680663 5.22522522,19.5176742 C5.22522522,19.1672823 5.54790291,18.8832327 5.945946,18.8832327 C6.34398898,18.8832327 6.66666666,19.1672823 6.66666666,19.5176742 C6.66666666,19.5176742 6.66666666,19.1672823 6.66666666,19.5176742 L6.66666666,19.5176742 L6.66666666,19.5176742 L6.66666666,19.5176742 L6.66666666,19.5176742 L6.66666666,19.5176742 Z" id="fruit" fill="#FF0000"></path>
                    <path d="M15.704955,45.2329311 C15.704955,45.583323 15.3822773,45.8673715 14.9842343,45.8673715 C14.5861912,45.8673715 14.2635135,45.583323 14.2635135,45.2329311 C14.2635135,44.882539 14.5861912,44.5984894 14.9842343,44.5984894 C15.3822773,44.5984894 15.704955,44.882539 15.704955,45.2329311 C15.704955,45.2329311 15.704955,44.882539 15.704955,45.2329311 L15.704955,45.2329311 L15.704955,45.2329311 L15.704955,45.2329311 L15.704955,45.2329311 L15.704955,45.2329311 Z" id="fruit" fill="#FF0000"></path>
                    <path d="M16.4256758,45.7767376 C16.4256758,46.1271297 16.102998,46.4111782 15.704955,46.4111782 C15.3069119,46.4111782 14.9842342,46.1271297 14.9842342,45.7767376 C14.9842342,45.4263456 15.3069119,45.142296 15.704955,45.142296 C16.102998,45.142296 16.4256758,45.4263456 16.4256758,45.7767376 C16.4256758,45.7767376 16.4256758,45.4263456 16.4256758,45.7767376 L16.4256758,45.7767376 L16.4256758,45.7767376 L16.4256758,45.7767376 L16.4256758,45.7767376 L16.4256758,45.7767376 Z" id="fruit" fill="#FF0000"></path>
                    <path d="M6.3063063,38.0071002 C6.3063063,38.3574922 5.98362863,38.6415408 5.58558564,38.6415408 C5.18754255,38.6415408 4.86486486,38.3574922 4.86486486,38.0071002 C4.86486486,37.6567081 5.18754255,37.3726585 5.58558564,37.3726585 C5.98362863,37.3726585 6.3063063,37.6567081 6.3063063,38.0071002 C6.3063063,38.0071002 6.3063063,37.6567081 6.3063063,38.0071002 L6.3063063,38.0071002 L6.3063063,38.0071002 L6.3063063,38.0071002 L6.3063063,38.0071002 L6.3063063,38.0071002 Z" id="fruit" fill="#FF0000"></path>
                    <path d="M5.94594594,41.0886712 C5.94594594,41.4390633 5.62326825,41.7231118 5.22522528,41.7231118 C4.82718219,41.7231118 4.5045045,41.4390633 4.5045045,41.0886712 C4.5045045,40.7382792 4.82718219,40.4542296 5.22522528,40.4542296 C5.62326825,40.4542296 5.94594594,40.7382792 5.94594594,41.0886712 C5.94594594,41.0886712 5.94594594,40.7382792 5.94594594,41.0886712 L5.94594594,41.0886712 L5.94594594,41.0886712 L5.94594594,41.0886712 L5.94594594,41.0886712 L5.94594594,41.0886712 Z" id="fruit" fill="#FF0000"></path>
                    <path d="M6.3063063,42.3575534 C6.3063063,42.7079454 5.98362863,42.991994 5.58558564,42.991994 C5.18754255,42.991994 4.86486486,42.7079454 4.86486486,42.3575534 C4.86486486,42.0071615 5.18754255,41.7231119 5.58558564,41.7231119 C5.98362863,41.7231119 6.3063063,42.0071615 6.3063063,42.3575534 C6.3063063,42.3575534 6.3063063,42.0071615 6.3063063,42.3575534 L6.3063063,42.3575534 L6.3063063,42.3575534 L6.3063063,42.3575534 L6.3063063,42.3575534 L6.3063063,42.3575534 Z" id="fruit" fill="#FF0000"></path>
                    <path d="M8.2882883,35.288067 C8.2882883,35.638459 7.96561061,35.9225076 7.56756764,35.9225076 C7.16952453,35.9225076 6.84684684,35.638459 6.84684684,35.288067 C6.84684684,34.9376749 7.16952453,34.6536253 7.56756764,34.6536253 C7.96561061,34.6536253 8.2882883,34.9376749 8.2882883,35.288067 C8.2882883,35.288067 8.2882883,34.9376749 8.2882883,35.288067 L8.2882883,35.288067 L8.2882883,35.288067 L8.2882883,35.288067 L8.2882883,35.288067 L8.2882883,35.288067 Z" id="fruit" fill="#FF0000"></path>
                    <path d="M8.64864865,33.656647 C8.64864865,34.0070391 8.32597096,34.2910876 7.92792799,34.2910876 C7.52988489,34.2910876 7.2072072,34.0070391 7.2072072,33.656647 C7.2072072,33.306255 7.52988489,33.0222054 7.92792799,33.0222054 C8.32597096,33.0222054 8.64864865,33.306255 8.64864865,33.656647 C8.64864865,33.656647 8.64864865,33.306255 8.64864865,33.656647 L8.64864865,33.656647 L8.64864865,33.656647 L8.64864865,33.656647 L8.64864865,33.656647 L8.64864865,33.656647 Z" id="fruit" fill="#FF0000"></path>
                    <path d="M11.8960403,28.3654753 C13.1125569,27.2255381 13.0039305,26.8965288 13.0039305,26.8965288 C12.8392776,26.74962 12.110492,27.1586663 11.869914,26.9771808 C10.8226721,26.1871698 9.80599146,26.9523161 9.80599146,26.9523161 C8.6042229,27.890609 8.82596898,28.0160388 8.82596898,28.0160388 C8.9859722,28.3023528 9.16735842,28.5169402 9.35996527,28.6736233 C9.34367837,28.7116199 9.3615892,28.7265179 9.3615892,28.7265179 C9.85233946,30.0739653 11.155215,29.9258139 11.641749,29.6647122 C11.641749,29.6647122 11.155215,29.9258139 11.641749,29.6647122 C13.0093832,28.9307601 12.9622236,28.6276299 12.9622236,28.6276299 C12.8476037,28.4845215 12.1889979,28.6662735 12.0167874,28.4826978 C11.9770353,28.4403224 11.9367294,28.4013281 11.8960403,28.3654753 L11.8960403,28.3654753 L11.8960403,28.3654753 Z M5.08712243,24.1658314 C5.1741667,24.4321877 5.25914564,24.7953846 5.40294095,24.8729327 C6.37089608,25.3949458 6.3648171,26.604354 6.3648171,26.604354 C6.33673563,28.0494629 6.15761286,27.919739 6.15761286,27.919739 C5.81772204,27.9145681 5.54464885,27.7746146 5.32628874,27.568044 C5.57156664,29.0133169 5.36464755,29.2113235 5.36464755,29.2113235 C5.2057947,30.1170508 5.19586639,30.8021521 5.19586639,30.8021521 C4.4711004,30.4886307 3.85554574,30.7440923 3.85554574,30.7440923 C2.96199867,30.9066591 2.18759118,29.8848127 2.18759118,29.8848127 C0.99619498,28.0269104 1.39332704,27.4230924 1.39332704,27.4230924 C1.49261006,27.3534212 1.63160626,27.5856584 1.63160626,27.5856584 C2.0088817,27.9804633 2.68400619,28.073358 2.68400619,28.073358 C0.777772351,26.679932 2.02873833,23.5911693 2.02873833,23.5911693 C2.26701756,23.2892599 2.34644394,24.0324211 2.34644394,24.0324211 C2.60457979,24.845253 3.35913066,25.3329526 3.35913066,25.3329526 C3.75626272,25.959994 3.75626272,26.2154556 3.75626272,26.2154556 C3.95482876,25.1703858 4.17325135,25.4490708 4.17325135,25.4490708 C4.26994397,25.7883384 4.45758343,26.0862388 4.65331643,26.3589908 L4.65331643,26.3589908 C4.54780564,26.0148113 4.51143968,25.7504262 4.51143968,25.7504262 C4.62995573,24.2256788 4.84850966,23.9411502 4.91377943,23.8894917 C4.62747231,23.3550819 4.54226569,22.7333623 4.57110159,22.3603764 C4.57110159,22.3603764 4.51301446,23.1117202 4.57110159,22.3603764 C4.7343829,20.2483677 5.06266254,20.1713874 5.06266254,20.1713874 C5.25700647,20.2550637 5.35293229,21.1938198 5.61296428,21.3338754 C6.74488777,21.9435393 6.73836525,23.3575086 6.73836525,23.3575086 C6.70623279,25.047057 6.4967509,24.8955104 6.4967509,24.8955104 C5.84172229,24.8859155 5.38877826,24.5773312 5.08712243,24.1658314 L5.08712243,24.1658314 L5.08712243,24.1658314 Z M5.57498066,31.567042 C5.62614355,30.0605405 6.57542821,28.5421131 6.57542821,28.5421131 C7.68464649,30.9561018 7.47403522,31.6293909 7.47403522,31.6293909 C7.08089478,33.2387169 6.53681613,34.4210778 6.53681613,34.4210778 C6.37427581,33.4508971 5.99933823,33.1333704 5.77960413,32.7242658 C5.45743722,32.863642 5.24183921,33.0459483 4.94040342,33.0559173 C4.94040342,33.0559173 5.4562929,33.038856 4.94040342,33.0559173 C3.53432119,33.1024197 2.19335491,31.2406866 2.19335491,31.2406866 C4.28969511,30.6047943 4.76044387,30.9735112 4.76044387,30.9735112 C5.05875783,31.172198 5.33276237,31.3752601 5.57498066,31.567042 L5.57498066,31.567042 L5.57498066,31.567042 Z M12.1026834,38.472724 C12.0345925,38.6117229 11.9586891,38.7756608 11.8776133,38.9653093 C11.8776133,38.9653093 11.4843383,40.5960918 10.2737572,40.6043158 C10.9619012,41.2179589 11.057477,41.5541766 11.057477,41.5541766 C12.4670898,39.4330857 13.1889475,39.7452981 13.1889475,39.7452981 C13.1766962,40.0214079 12.7954294,40.7070927 12.7954294,40.7070927 C12.7160026,41.5199253 12.8947118,42.170191 12.8947118,42.170191 L12.8947118,42.4024282 C13.695583,41.97784 14.0439859,42.0254549 14.0439859,42.0254549 C13.4685229,44.946499 12.3496217,44.23412 12.0908121,44.4817815 C11.6539667,44.8998099 11.9217387,45.6305334 11.9217387,45.6305334 C11.9415951,46.0717854 11.9217387,45.6305334 11.9217387,45.6305334 C11.9302191,45.8189867 11.9287536,45.9253535 11.9242909,45.9853756 C12.7722065,45.9541896 13.0668922,46.1625866 13.0668922,46.1625866 C12.9405258,45.2758157 12.2946515,45.2593943 12.2946515,45.2593943 C12.1402039,44.9802249 12.4771816,44.9638034 12.4771816,44.9638034 C14.2041919,45.1608636 15.130881,46.4253336 15.130881,46.4253336 C15.7767546,47.4927441 15.5801845,48.5437323 15.5801845,48.5437323 C15.7346328,49.6111419 15.4116957,49.5618767 15.4116957,49.5618767 C14.7377403,49.8082022 14.6815773,50.3665392 14.6815773,50.3665392 C14.0216624,51.4175274 11.6487779,50.4158046 11.6487779,50.4158046 C10.9186595,50.1859013 11.0590665,49.9559972 11.0590665,49.9559972 C11.7189814,49.5618767 11.9436332,49.2498644 11.9436332,49.2498644 C10.6799671,47.9197077 10.497437,46.1954304 10.497437,46.1954304 C10.7785557,46.1296725 11.0318193,46.0820512 11.2594455,46.0487239 L11.2594455,46.0487239 C11.1571971,45.1741544 10.5913464,44.8873729 10.5913464,44.8873729 C9.8532448,44.2957498 9.83741709,44.0069619 9.61837258,43.1920374 C9.39084069,42.3455364 9.71116601,40.9761256 9.84362681,40.4779393 L9.84362681,40.4779393 C9.53571517,40.3587787 8.97244412,40.2628033 8.52184722,40.8696595 L8.18428504,40.6606449 C8.18428504,40.6606449 8.18428504,40.4284077 7.78715313,39.8245888 C7.78715313,39.8245888 7.56873046,39.5459038 7.3503078,38.5472817 C7.3503078,38.5472817 7.23116815,38.3847148 7.54887412,36.5268133 C7.54887412,36.5268133 7.70772631,35.8300998 7.92614898,36.4571412 L8.62113037,37.9899108 C8.62113037,37.9899108 8.75249833,37.436789 9.70977352,36.61798 C9.59823799,36.5157324 9.4618827,36.4136533 9.29522512,36.3177918 C9.29522512,36.3177918 9.21098034,36.0057795 9.66028395,35.7266109 C9.66028395,35.7266109 9.92705815,36.0222009 11.1766837,35.7922977 C11.1766837,35.7922977 12.1094833,35.8168008 12.8194506,36.6298032 C13.2162345,37.0841715 12.945817,37.0075023 13.8865467,37.9763823 C13.8865467,37.9763823 14.0550355,38.3212375 12.4263099,38.5182978 C12.4263099,38.5182978 12.2979434,38.5056104 12.1026834,38.472724 L12.1026834,38.472724 L12.1026834,38.472724 Z M10.9014445,38.1280247 C10.6407998,38.2421624 10.626647,38.2918201 10.626647,38.2918201 C10.636199,38.1879234 10.6452914,38.0889709 10.6539465,37.9947272 C10.7309584,38.0432287 10.8143072,38.0875574 10.9014445,38.1280247 L10.9014445,38.1280247 L10.9014445,38.1280247 Z M10.3287983,47.7903453 C10.1004478,47.9412999 9.99885199,48.0780293 9.59410347,48.1387016 C7.77522753,48.411354 6.7546097,45.60731 6.7546097,45.60731 C6.69503988,45.0499391 6.91385175,45.3441165 7.29073797,45.5028032 C7.78715313,45.7118169 7.93507395,45.5471969 8.49206234,45.4679675 C9.22675643,45.3634605 10.0508059,46.2111279 10.0508059,46.2111279 C10.5174361,46.6872155 10.5571488,47.6393906 10.5571488,47.6393906 C10.5075075,47.7903453 10.3287983,47.7903453 10.3287983,47.7903453 L10.3287983,47.7903453 Z M8.16905186,42.7304535 C6.26653197,41.7862062 5.13625257,42.8454056 5.13625257,42.8454056 C5.06604885,42.9849894 5.24857848,43.0506762 5.24857848,43.0506762 C6.44204118,43.2231047 6.05854379,43.1583008 6.55436709,43.9538693 C7.40383172,45.3168698 8.90619089,45.0294902 8.90619089,45.0294902 C9.21508676,45.1115984 9.52398336,45.5467731 9.52398336,45.5467731 C9.3976169,44.3315684 8.16905186,42.7304535 8.16905186,42.7304535 L8.16905186,42.7304535 Z M4.87649886,33.9207999 C4.51143967,33.6252099 4.5939807,34.2163906 4.5939807,34.2163906 C3.80769936,32.6070654 1.73137353,32.4833187 1.73137353,32.4833187 C1.5621082,32.4742635 1.46282518,32.3233096 1.46282518,32.3233096 C1.11533463,32.3233096 1.54225156,33.1361414 1.54225156,33.1361414 C2.16773454,35.0869385 2.76343264,35.3075645 2.76343264,35.3075645 C2.05461124,35.7814845 0.919617468,34.7516758 1.17490445,35.504967 C2.27694588,36.8635575 3.02156842,37.0493478 3.02156842,37.0493478 C4.41153064,37.444152 5.0270853,37.0493478 5.0270853,37.0493478 C5.34479091,37.722837 5.55328527,37.8157326 5.55328527,37.8157326 C6.81417952,38.2569846 7.09217194,39.1046518 7.09217194,39.1046518 C7.09217194,37.4905998 6.57290241,35.5002997 6.57290241,35.5002997 C6.17851749,34.8085972 4.87649886,33.9207999 4.87649886,33.9207999 L4.87649886,33.9207999 Z M6.66836958,40.3006764 C5.71306101,39.9717171 5.15926777,40.3355121 5.15926777,40.3355121 C4.66285276,40.5677502 3.75937729,39.894261 3.75937729,39.894261 C2.56798117,38.7330721 2.33963026,38.0131343 2.33963026,38.0131343 C2.3396302,37.8041205 3.39163458,37.8511518 3.39163458,37.8511518 C4.77821373,37.8121575 5.09413032,38.1446961 5.09413032,38.1446961 C5.810208,38.6209257 5.73643479,39.0572035 5.99273755,39.2326336 C6.61053003,39.6554916 6.70881523,39.8525518 6.70881523,39.8525518 C6.88432444,40.1317212 6.9611683,40.4015016 6.66836958,40.3006764 C6.66836958,40.3006764 6.9611683,40.4015016 6.66836958,40.3006764 L6.66836958,40.3006764 Z M20.0755145,45.9491048 C19.8087402,46.0312131 19.1067036,47.3285268 19.1067036,47.3285268 C18.2642594,45.4728761 17.1410004,45.1772852 17.1410004,45.1772852 C16.9163486,45.2922372 17.1690815,45.7192016 17.1690815,45.7192016 C17.5060592,46.704503 17.1129185,47.4763218 17.1129185,47.4763218 C16.986552,48.1988761 17.1269591,48.3630935 17.1269591,48.3630935 C15.7930895,47.5584309 15.7088447,47.6405391 15.7088447,47.6405391 C15.6948041,48.642262 16.7197778,50.5143351 16.7197778,50.5143351 C18.9382148,49.8246237 19.106703,49.873889 19.106703,49.873889 C19.9351067,49.726094 19.9140462,49.7096717 19.9140462,49.7096717 C20.580981,47.4763218 20.0755145,45.9491048 20.0755145,45.9491048 L20.0755145,45.9491048 Z M8.34313795,34.4831205 C8.79983964,33.7631837 8.34313795,32.4162044 8.34313795,32.4162044 C8.1644287,30.9763304 10.0110925,29.6061276 10.0110925,29.6061276 C10.5472209,30.7673157 10.4876512,31.4640293 10.4876512,31.4640293 C11.8974696,31.0692251 12.2151755,30.953106 12.2151755,30.953106 C12.2747452,31.8820577 11.520194,33.229037 11.520194,33.229037 C12.6718771,33.623841 13.069009,32.9735753 13.069009,32.9735753 C12.5130242,35.9694423 10.0706622,35.3656244 10.0706622,35.3656244 C9.05797571,34.5992397 8.34313795,34.4831205 8.34313795,34.4831205 L8.34313795,34.4831205 Z M8.97891984,26.1066011 C9.45074686,24.0590357 9.16553899,23.8539222 9.16553899,23.8539222 C8.95844452,23.853754 8.5906374,24.6956553 8.30523039,24.7217904 C7.06284909,24.8355577 6.65052639,26.164771 6.65052639,26.164771 C6.18067723,27.7628986 6.42205896,27.705519 6.42205896,27.705519 C7.91036368,28.3230384 8.8110679,26.83502 8.97891984,26.1066011 C8.97891984,26.1066011 8.8110679,26.83502 8.97891984,26.1066011 L8.97891984,26.1066011 Z M9.61559097,22.8659412 C10.126368,20.8311994 9.84514415,20.6186938 9.84514415,20.6186938 C9.6381036,20.6131194 9.25432499,21.445212 8.96849096,21.4638918 C7.72424847,21.5452056 7.28666664,22.8633271 7.28666664,22.8633271 C6.78644283,24.4487941 7.02885974,24.3977287 7.02885974,24.3977287 C8.50501162,25.0539372 9.43388324,23.5897971 9.61559097,22.8659412 C9.61559097,22.8659412 9.43388324,23.5897971 9.61559097,22.8659412 L9.61559097,22.8659412 Z M6.92644662,19.9699903 C6.38185139,18.0753781 8.02162421,15.5689773 8.02162421,15.5689773 C8.36624295,16.7457041 8.5551726,17.6709537 8.5551726,17.6709537 C9.85855209,16.1223639 11.0147102,15.8838072 11.0147102,15.8838072 C10.9880403,16.6063616 10.9701796,17.0797728 10.9701796,17.0797728 C11.840705,16.9812432 12.2057645,16.7513391 12.2057645,16.7513391 C12.0188298,18.2701035 10.3804682,19.8057738 10.3804682,19.8057738 C9.76267572,20.2655813 9.00447623,20.1013638 9.00447623,20.1013638 C7.81803359,20.4954844 7.54072914,21.4397326 7.54072914,21.4397326 C7.42489292,20.6186467 7.34273003,21.4182142 6.92644662,19.9699903 C6.92644662,19.9699903 7.34273003,21.4182142 6.92644662,19.9699903 L6.92644662,19.9699903 Z M9.31611107,26.3083512 C10.0508059,25.1703858 11.2223453,25.6580855 11.2223453,25.6580855 C12.2747452,25.7509803 13.1682922,24.4736723 13.1682922,24.4736723 C13.6448509,23.567945 13.9426997,23.3589312 13.9426997,23.3589312 C13.9029863,23.0570217 13.6448509,23.1034695 13.6448509,23.1034695 C13.0094393,23.2660364 13.0094393,23.28926 13.0094393,23.28926 C13.485998,21.2223437 13.2278619,21.129449 13.2278619,21.129449 C13.069009,21.129449 12.9697259,21.2687915 12.9697259,21.2687915 C12.6917335,22.2209666 11.5599075,22.1745188 11.5599075,22.1745188 C11.5003377,20.804316 11.2422016,20.9901065 11.2422016,20.9901065 C11.0634924,21.3384627 10.6862168,21.5474765 10.6862168,21.5474765 C9.57424713,22.848008 9.57424713,23.405379 9.57424713,23.405379 C9.63381689,24.9381485 9.31611107,26.3083512 9.31611107,26.3083512 L9.31611107,26.3083512 Z" id="left-leaves" fill="#006300"></path>
                    <path d="M23.7985686,53.8282002 C24.1220624,53.9697008 24.784055,54.362997 25.0512887,54.5221907 C25.0512887,54.5221907 25.9781159,56.7291435 25.9655103,56.6977871 C26.3171336,57.0161652 26.2608738,56.9454176 26.6546927,57.06923 L24.474626,58.2189348 C23.8417034,58.5196296 24.0948723,59.2271382 24.3902363,59.3686392 C24.7137302,59.4924569 25.3888476,59.138697 25.6279514,58.9971965 C26.7109524,58.3604354 27.6954986,57.7059909 28.6659797,56.9100411 C28.8206946,56.7862235 29.5380063,56.1494673 29.6786561,56.184839 L33.5324513,58.9795082 C33.81375,59.138697 34.3763477,59.598581 34.6857768,59.3155794 C34.8123614,59.2094499 35.0092706,58.96182 34.9389461,58.6788183 C34.8826859,58.3781237 34.7279714,58.3250637 34.5451274,58.2366225 C34.2497634,58.0774338 32.5057101,57.06923 32.4494502,57.06923 L32.9135936,56.9100411 C33.0542429,56.7862235 32.8116197,56.4192498 32.9944641,56.4899975 L33.9543995,54.4868142 L35.14992,53.9384943 C35.1414747,52.5323934 26.1503543,51.6576897 23.7985686,53.8282002 C23.7985686,53.8282002 26.1503543,51.6576897 23.7985686,53.8282002 L23.7985686,53.8282002 L23.7985686,53.8282002 L23.7985686,53.8282002 L23.7985686,53.8282002 L23.7985686,53.8282002 Z" id="branch" fill="#006300"></path>
                    <path d="M16.3433044,50.7207136 C15.1915432,51.1283782 14.0212011,51.4989825 12.943744,52.0548906 C12.6465173,52.2031359 12.2006744,52.5181486 11.9405977,52.6108006 C11.3275649,51.6842863 10.4916041,50.3130489 9.89715099,49.5162471 C9.56276433,49.0900495 9.09834594,48.6267933 8.52246216,48.3303081 C7.6122027,47.9041159 7.27781946,48.0338247 6.70193586,48.5341414 L6.29324973,47.7558724 C5.47586937,46.3105159 4.62133405,45.6434266 3.71106775,44.4760168 L2.89368883,43.5124459 C2.78222793,43.3827316 2.74507819,43.2900852 2.59646215,43.2159625 L3.06087964,44.9578042 L3.43241604,46.7552374 C2.93084379,46.4772834 2.46642648,46.1993329 1.94627262,45.9769668 C1.55616,45.8287287 0.553014054,45.6063625 0.0700167567,45.6619558 L0.664475134,46.1993329 C1.68619585,47.1073123 2.35496559,48.3117807 2.76365298,49.6644852 C3.20949549,51.1283782 4.2497964,52.6849177 5.34582829,53.7596755 C5.56874883,53.9820381 6.20036361,54.5564773 6.60905116,54.7047172 C7.83512289,55.1494441 7.77939351,54.6861879 8.22523549,54.4638235 C8.93115531,55.6868229 9.35842288,56.298319 10.2686823,57.428661 L10.8631423,58.0957504 C12.0334836,59.3372791 13.8725847,59.6708229 15.5445009,59.2816894 C16.2875748,59.0963854 16.7519928,58.8925522 17.3278756,58.5590067 C19.5013585,57.298954 18.4610577,56.3168502 18.2009856,55.316215 C18.9069009,55.0938507 21.671254,54.25258 22.6651765,54.0675354 C26.1654829,53.4158428 32.6530594,53.3299849 36.8021334,53.9378229 C37.1738397,53.9922762 41.3574432,55.113 41.7661315,55.3538937 C41.7661315,55.3538937 41.4959784,56.0279365 41.430445,56.3214127 C41.3607838,56.6334145 41.3960937,57.1631601 41.3960937,57.1631601 C41.4669261,57.8728168 42.0721909,58.2439975 42.6109135,58.5590067 C43.1867982,58.8925522 43.6512198,59.0963854 44.3942883,59.2816894 C45.1187838,59.4484603 45.8990143,59.485519 46.6420828,59.3743377 C48.2025387,59.1149148 49.0199188,58.2069372 49.6886829,57.3916024 C49.893027,57.1507087 50.060218,56.9468755 50.2645657,56.7059872 C50.4317568,56.4836193 50.6175225,56.2241964 50.7847135,55.9833045 C51.0819387,55.5385776 51.5092072,54.723252 51.7135549,54.4452942 C51.7135549,54.4452942 52.0301388,54.7417812 52.2555081,54.8157516 C52.4679784,54.885493 53.1625477,54.7603123 53.3483134,54.6861879 C53.8870414,54.4823529 54.2214234,54.0746919 54.5929621,53.7226168 C55.7447242,52.6108006 56.7107134,51.1654405 57.175137,49.5903679 C57.7324396,47.7373432 58.4940883,46.8664224 59.8501981,45.6619558 C59.8501981,45.6619558 59.2080486,45.6891118 58.8922414,45.7447051 C58.5764343,45.8002948 57.9553621,45.9954979 57.9553621,45.9954979 C57.6661369,46.1180737 57.4723639,46.2178623 57.2122918,46.3475728 C57.0079459,46.4772834 56.6921388,46.6811202 56.5063729,46.7552374 L56.8779099,44.9392749 C56.9893657,44.4389601 57.2680234,43.697748 57.3237531,43.2159625 L56.7478756,43.8459879 C56.3949135,44.2907166 55.9862253,44.6983794 55.6518378,45.1431063 C55.4846469,45.3469377 55.2803008,45.5322417 55.1131099,45.754606 C54.7787316,46.1993329 54.407191,46.5699354 54.0728089,47.0517244 C53.905618,47.3111455 53.7941568,47.5149807 53.6269657,47.7929347 C53.5155045,47.9782368 53.3483134,48.4044307 53.2368522,48.5341414 C50.7707352,47.1561063 49.662982,50.5132966 47.9981928,52.5737347 C46.4377369,51.739878 45.5088955,51.3136803 43.7441008,50.757774 C43.4097171,50.665122 42.4065729,50.4427594 42.202227,50.33158 C42.1051621,50.3262507 38.5797495,49.6088973 38.5797495,49.6088973 C37.9667098,49.5903679 37.0378702,49.4050659 36.3691063,49.3309432 C31.7992144,48.7935661 26.7648919,48.8120955 22.2135747,49.4977177 L20.0772414,49.8312598 C20.0772414,49.8312598 16.3285099,50.7459771 16.3433044,50.7207136 C16.3433044,50.7207136 16.3285099,50.7459771 16.3433044,50.7207136 L16.3433044,50.7207136 L16.3433044,50.7207136 L16.3433044,50.7207136 L16.3433044,50.7207136 L16.3433044,50.7207136 Z" id="ribbon" fill="#CE1126"></path>
                    <path d="M37.4215459,55.2937614 L36.2263819,55.917658 L36.9067009,57.2666302 C36.4102486,57.1823148 34.6082901,56.5584235 34.0198972,56.3729401 C34.1669928,55.9513831 34.2221568,55.9007946 34.1669928,55.3780713 L34.3692522,54.4169347 L35.8218558,54.9059311 C36.3734703,55.0745511 36.8331531,55.1925879 37.4215459,55.2937614 C37.4215459,55.2937614 36.8331531,55.1925879 37.4215459,55.2937614 L37.4215459,55.2937614 Z M21.739155,55.5044628 L22.9343188,56.1283594 L22.254,57.4773316 C22.7504523,57.3930163 24.5524108,56.7691251 25.1408035,56.5836417 C24.9937081,56.1620846 24.9385441,56.111496 24.9937081,55.5887728 L24.7914486,54.6276363 L23.338845,55.1166327 C22.7872306,55.2852525 22.3275477,55.4032894 21.739155,55.5044628 C21.739155,55.5044628 22.3275477,55.4032894 21.739155,55.5044628 L21.739155,55.5044628 Z" id="bow" fill="#CE1126"></path>
                    <path d="M28.5640231,56.5441375 C28.3038857,56.6898154 27.2445357,57.2507686 26.0780271,57.4164471 C26.0780271,57.4164471 24.7018072,57.3209619 25.0023567,55.5385722 C25.0023567,55.5385722 24.8916342,55.236203 24.8916342,54.8860913 C24.8916342,54.8860913 24.7334415,54.2654375 25.2238198,53.6766128 C25.2238198,53.6766128 25.4452828,53.3583299 26.8215027,53.8834967 C26.8215027,53.8834967 27.0033541,53.9749761 28.2867316,54.2623915 C28.3508794,54.099762 28.5281217,53.9718718 28.898409,53.9056859 C29.1882937,53.8602453 28.898409,53.9056859 28.898409,53.9056859 C29.1882937,53.8602453 29.9018343,53.8148067 30.1917099,53.8375269 C30.4906667,53.8665374 30.5623981,54.0714969 30.580993,54.328244 C30.6253996,54.3730778 30.8470674,54.4735717 31.8834558,53.9789837 C31.8834558,53.9789837 33.7184089,53.390159 34.0347856,53.7561843 C34.0347856,53.7561843 34.7149837,54.5518931 34.0822378,55.5544877 C34.0822378,55.5544877 34.1613351,55.5863148 34.2087874,56.397939 C34.2087874,56.397939 34.1771514,57.3209619 32.9907603,57.3846182 C32.9907603,57.3846182 32.0235897,57.2648629 30.7386631,56.4736647 C30.6243964,56.6548378 30.3652414,56.6393315 30.0356161,56.6545922 C29.6788486,56.6545922 29.0099008,56.8136229 28.6977207,56.6773124 C28.6278467,56.648835 28.586195,56.60251 28.5640231,56.5441375 L28.5640231,56.5441375 Z" id="bow" fill="#CE1126"></path>
                </g>
            </g>
        </g>
    </g>
</svg>