<?xml version="1.0" encoding="UTF-8" standalone="no"?>
<svg width="180px" height="180px" viewBox="0 0 180 180" version="1.1" xmlns="http://www.w3.org/2000/svg" xmlns:xlink="http://www.w3.org/1999/xlink">
    <!-- Generator: Sketch 3.8.3 (29802) - http://www.bohemiancoding.com/sketch -->
    <title>east_timor</title>
    <desc>Created with Sketch.</desc>
    <defs></defs>
    <g id="Page-1" stroke="none" stroke-width="1" fill="none" fill-rule="evenodd">
        <g id="flags" transform="translate(-180.000000, -1800.000000)">
            <g id="east_timor" transform="translate(180.000000, 1800.000000)">
                <path d="M20.9092899,32.3209718 C37.4186291,12.5665658 62.2417744,0 90,0 C139.70563,0 180,40.2943701 180,90 C180,139.70563 139.70563,180 90,180 C63.383195,180 39.4650516,168.445662 22.9876848,150.079102 L141.173441,90.2269184 L20.9092905,32.3209727 L20.9092905,32.3209727 L20.9092899,32.3209718 L20.9092899,32.3209718 L20.9092899,32.3209718 Z" id="red" fill="#E94B35"></path>
                <path d="M19.4616309,34.0984804 C20.0430958,33.3657549 20.6357359,32.6422987 21.2392938,31.9283694 L21.2392944,31.9283704 L142.296878,90.2163462 L23.3334842,150.462345 C22.060726,149.05983 20.8316152,147.616982 19.6482966,146.135945 L99.4275239,90.1826716 L19.4616325,34.0984817 L19.4616325,34.0984817 L19.4616309,34.0984804 L19.4616309,34.0984804 L19.4616309,34.0984804 Z" id="yello" fill="#F2C500"></path>
                <path d="M19.6058149,33.9172659 C7.33475986,49.2994082 0,68.7931411 0,90 C0,111.148123 7.29418676,130.592597 19.5039692,145.95483 L99.4275239,89.9003333 L19.6058149,33.9172659 L19.6058149,33.9172659 L19.6058149,33.9172659 L19.6058149,33.9172659 L19.6058149,33.9172659 Z" id="black" fill="#000000"></path>
                <polygon id="star" fill="#FFFFFF" transform="translate(35.092832, 88.428736) rotate(-30.000000) translate(-35.092832, -88.428736) " points="35.0928305 99.7430743 23.924912 105.614398 26.0577941 93.1787361 17.022757 84.3717518 29.5088728 82.5574116 35.0928311 71.2430743 40.6767929 82.5574143 53.1629078 84.3717609 44.1278669 93.1787385 46.2607494 105.614398"></polygon>
            </g>
        </g>
    </g>
</svg>