<?xml version="1.0" encoding="UTF-8" standalone="no"?>
<svg width="180px" height="180px" viewBox="0 0 180 180" version="1.1" xmlns="http://www.w3.org/2000/svg" xmlns:xlink="http://www.w3.org/1999/xlink">
    <!-- Generator: Sketch 3.8.3 (29802) - http://www.bohemiancoding.com/sketch -->
    <title>egypt</title>
    <desc>Created with Sketch.</desc>
    <defs></defs>
    <g id="Page-1" stroke="none" stroke-width="1" fill="none" fill-rule="evenodd">
        <g id="flags" transform="translate(-720.000000, -1800.000000)">
            <g id="egypt" transform="translate(720.000000, 1800.000000)">
                <path d="M174.873467,120 L5.12100983,120 C17.475726,154.955772 50.8118738,180 89.9972382,180 C129.182603,180 162.51875,154.955772 174.873463,120 L174.873467,120 L174.873467,120 Z" id="black" fill="#000000"></path>
                <path d="M5.12100983,120 L174.873467,120 C178.189905,110.616633 179.994476,100.519063 179.994476,90.0000004 C179.994476,79.4809374 178.189905,69.3833677 174.873463,60 L5.12100983,60.0000004 C1.80457108,69.3833677 0,79.4809374 0,90.0000004 C0,100.519063 1.80457108,110.616633 5.12101363,120 L5.12100983,120 L5.12100983,120 Z" id="white" fill="#FFFFFF"></path>
                <path d="M5.12100983,60 L174.873467,60 C162.51875,25.0442275 129.182603,0 89.9972382,0 C50.8118738,0 17.475726,25.0442275 5.12101363,59.9999996 L5.12100983,60 L5.12100983,60 Z" id="red" fill="#E94B35"></path>
                <g id="emblem" transform="translate(69.000000, 61.000000)">
                    <path d="M21.243,29.52 L41.7894,48.5937 L40.32663,13.9527 C40.111716,8.7027 35.54943,9.9072 32.23533,11.80101 C28.87803,13.9527 25.04793,13.9527 21.00153,12.53211 C16.95603,13.9527 13.12563,13.9527 9.76833,11.80101 C6.45453,9.90732 1.89273,8.70261 1.67733,13.9527 L0.21366,48.5937 L21.24306,29.52 L21.243,29.52 L21.243,29.52 Z" id="Shape" fill="#FFFFFF"></path>
                    <path d="M21.1133621,29.6596474 L41.6597621,48.7333474 L41.9993224,49.0485691 L41.9797753,48.5856611 L40.5170053,13.9446611 C40.4140563,11.4297794 39.3166276,10.1470863 37.4573983,10.0079129 C35.9802304,9.89733878 34.0823339,10.5260962 32.1407918,11.6355714 C28.9860031,13.6571802 25.2920548,13.8364595 21.0646488,12.3523229 L21.001523,12.330161 L20.9383987,12.3523272 C16.7119205,13.8364683 13.0176399,13.6571693 9.87114627,11.6405849 C7.92140692,10.5261122 6.02375476,9.89737663 4.54670872,10.0079239 C2.68758879,10.147067 1.59013675,11.4297307 1.48694517,13.9448889 L0.0232848604,48.5856562 L0.00404247622,49.0410699 L0.341672904,48.7348386 L21.3710729,29.6611386 L21.7367653,29.329455 L21.24306,29.329455 L21.243,29.329455 L20.7576751,29.329455 L21.1133621,29.6596474 L21.1133621,29.6596474 L21.1133621,29.6596474 Z M21.3726379,29.3803526 L21.243,29.52 L21.243,29.710545 L21.24306,29.710545 L21.24306,29.52 L21.1150471,29.3788614 L0.0856470957,48.4525614 L0.40403514,48.6017438 L1.86770514,13.9607438 C1.963353,11.6294572 2.91957324,10.5118603 4.57515128,10.3879511 C5.96029968,10.2842817 7.79232508,10.8912736 9.67378982,11.9664475 C12.919784,14.0470934 16.7350123,14.2322625 21.0646613,12.7118928 L20.9384112,12.7118971 C25.2689788,14.2322513 29.0838617,14.0471026 32.3381463,11.9614351 C34.2114117,10.891259 36.0436778,10.2842444 37.4289512,10.3879396 C39.0846326,10.5118764 40.0408224,11.6294871 40.1362445,13.9604936 L41.5990247,48.6017389 L41.9190379,48.4540526 L21.3726379,29.3803526 L21.3726379,29.3803526 L21.3726379,29.3803526 Z" id="Shape" fill="#C09300"></path>
                    <g id="wing-right" transform="translate(0.000000, 12.600000)" fill="#C09300">
                        <path d="M4.041,0.147 L2.62074,33.843 L0.21033,35.9934 L1.67385,1.3524 C2.36232,0.87894 3.56781,0.14727 4.041,0.14727 L4.041,0.147 L4.041,0.147 Z" id="Shape"></path>
                        <path d="M6.927,2.559 L5.72187,30.7455 L3.31218,33.21162 L4.77534,0.66462 C5.24907,1.13772 6.66948,2.29956 6.92697,2.55774 L6.927,2.559 L6.927,2.559 Z" id="Shape"></path>
                        <path d="M9.552,4.71 L8.60565,28.2186 L6.66897,30.11136 L7.87428,3.28986 C8.34672,3.76332 9.29361,4.45188 9.552,4.70988 L9.552,4.71 L9.552,4.71 Z" id="Shape"></path>
                        <path d="M12.393,5.916 L11.44611,25.9521 L9.55215,27.48789 L10.49904,5.18469 C10.97277,5.399604 11.91948,5.91597 12.393,5.91597 L12.393,5.916 L12.393,5.916 Z" id="Shape"></path>
                        <path d="M15.018,5.916 L14.32878,22.6131 L12.39246,24.50697 L13.12422,6.13137 C13.59702,6.131187 14.80233,6.131187 15.018,5.91591 L15.018,5.916 L15.018,5.916 Z" id="Shape"></path>
                    </g>
                    <g id="wing-left" transform="translate(34.000000, 30.600000) scale(-1, 1) translate(-34.000000, -30.600000) translate(26.000000, 12.600000)" fill="#C09300">
                        <path d="M4.041,0.147 L2.62074,33.843 L0.21033,35.9934 L1.67385,1.3524 C2.36232,0.87894 3.56781,0.14727 4.041,0.14727 L4.041,0.147 L4.041,0.147 Z" id="Shape"></path>
                        <path d="M6.927,2.559 L5.72187,30.7455 L3.31218,33.21162 L4.77534,0.66462 C5.24907,1.13772 6.66948,2.29956 6.92697,2.55774 L6.927,2.559 L6.927,2.559 Z" id="Shape"></path>
                        <path d="M9.552,4.71 L8.60565,28.2186 L6.66897,30.11136 L7.87428,3.28986 C8.34672,3.76332 9.29361,4.45188 9.552,4.70988 L9.552,4.71 L9.552,4.71 Z" id="Shape"></path>
                        <path d="M12.393,5.916 L11.44611,25.9521 L9.55215,27.48789 L10.49904,5.18469 C10.97277,5.399604 11.91948,5.91597 12.393,5.91597 L12.393,5.916 L12.393,5.916 Z" id="Shape"></path>
                        <path d="M15.018,5.916 L14.32878,22.6131 L12.39246,24.50697 L13.12422,6.13137 C13.59702,6.131187 14.80233,6.131187 15.018,5.91591 L15.018,5.916 L15.018,5.916 Z" id="Shape"></path>
                    </g>
                    <polygon id="tail" fill="#C09300" points="19.8965561 33.2834398 16.9942517 46.4960465 18.1009853 47.6030256 19.2577371 46.7487722 20.3407522 39.042976 19.8894946 46.7109358 21.000768 48.1248228 22.1122449 46.7109456 21.6625963 39.0051572 22.7445693 46.7487317 23.9002966 47.6030305 25.0080411 46.496093 22.105333 33.2834353"></polygon>
                    <g id="leg-left" transform="translate(8.400000, 27.300000)">
                        <polygon id="Shape" fill="#FFFFFF" points="0.42 20.5635 8.2965 21.76881 11.6529 6.49161 6.144 0.25191"></polygon>
                        <polygon id="Shape" fill="#C09300" points="11.5693187 6.12751161 11.8464921 6.4414543 8.43479062 21.9703678 0.193657811 20.7092595 5.96568 0.25191 6.27767619 0.133890097 6.34043217 0.204971157 6.22831305 0.61022804 0.650195554 20.4040669 8.15479637 21.5664163 11.4563649 6.55505106 11.5693187 6.12751161"></polygon>
                        <polygon id="Shape" fill="#C09300" points="4.86936398 9.19050256 8.79277731 5.44325539 8.52952269 5.16762461 5.00493253 8.51698684 4.42730274 7.10963858 4.07469726 7.25436142"></polygon>
                        <polygon id="Shape" fill="#C09300" points="7.46789553 10.7754112 10.125297 7.29709649 9.82242304 7.06570351 7.7462726 9.79120582 7.01750099 2.95579595 6.63849901 2.99620405"></polygon>
                        <polygon id="Shape" fill="#C09300" points="8.84395388 8.43803723 10.1369539 12.9005372 10.5030461 12.7944628 9.21004612 8.33196277 8.84395388 8.43803723"></polygon>
                        <path d="M8.05251636,15.0755022 L8.37086364,15.2850978 L10.9861736,11.3127978 L10.6678264,11.1032022 L8.05251636,15.0755022 L8.05251636,15.0755022 Z M8.37675381,15.1462816 L7.56837401,10.6907209 L5.78813006,13.1140466 L5.03319898,10.426235 L2.27411417,13.2561979 L3.66653955,18.3640463 L5.40528621,15.5151609 L6.34565708,18.3795418 L8.32924457,15.2941596 L8.00863543,15.0880404 L6.45688389,17.4963878 L5.50720181,14.6036448 L3.79745548,17.396415 L2.69634496,13.3693339 L4.8463472,11.170514 L5.62931229,13.9581362 L7.35246797,11.6357078 L8.00278684,15.2197242 L8.09684164,15.6646584 L8.84090619,19.1845184 L9.21381381,19.1056816 L8.37675381,15.1462816 L8.37675381,15.1462816 Z" id="Shape" fill="#C09300"></path>
                        <polygon id="Shape" fill="#C09300" points="3.62481713 18.3123092 4.66589242 21.7667808 6.09763747 19.3578911 6.9092007 21.8288473 7.2713193 21.7099127 6.19266115 18.425736 4.78170853 20.8301705 3.75718094 17.4306071 1.94175298 19.9804686 2.25224702 20.2015314"></polygon>
                    </g>
                    <g id="leg-right" transform="translate(27.600000, 38.300000) scale(-1, 1) translate(-27.600000, -38.300000) translate(21.600000, 27.300000)">
                        <polygon id="Shape" fill="#FFFFFF" points="6.144 0.252 0.42 20.5635 8.2965 21.76881 11.6529 6.49161 6.144 0.25191"></polygon>
                        <polygon id="Shape" fill="#C09300" points="11.5779138 6.13724695 11.8464921 6.4414543 8.43479062 21.9703678 0.193657811 20.7092595 5.96568 0.25191 6.27767619 0.133890097 6.35674131 0.223443835 6.22831305 0.61022804 0.650195554 20.4040669 8.15479637 21.5664163 11.4563649 6.55505106 11.5779138 6.13724695"></polygon>
                        <polygon id="Shape" fill="#C09300" points="4.86936398 9.19050256 8.79277731 5.44325539 8.52952269 5.16762461 5.00493253 8.51698684 4.42730274 7.10963858 4.07469726 7.25436142"></polygon>
                        <polygon id="Shape" fill="#C09300" points="7.46789553 10.7754112 10.125297 7.29709649 9.82242304 7.06570351 7.7462726 9.79120582 7.01750099 2.95579595 6.63849901 2.99620405"></polygon>
                        <polygon id="Shape" fill="#C09300" points="8.84395388 8.43803723 10.1369539 12.9005372 10.5030461 12.7944628 9.21004612 8.33196277 8.84395388 8.43803723"></polygon>
                        <path d="M8.05251636,15.0755022 L8.37086364,15.2850978 L10.9861736,11.3127978 L10.6678264,11.1032022 L8.05251636,15.0755022 L8.05251636,15.0755022 Z M8.37675381,15.1462816 L7.56837401,10.6907209 L5.78813006,13.1140466 L5.03319898,10.426235 L2.27411417,13.2561979 L3.66653955,18.3640463 L5.40528621,15.5151609 L6.34565708,18.3795418 L8.32924457,15.2941596 L8.00863543,15.0880404 L6.45688389,17.4963878 L5.50720181,14.6036448 L3.79745548,17.396415 L2.69634496,13.3693339 L4.8463472,11.170514 L5.62931229,13.9581362 L7.35246797,11.6357078 L8.00278684,15.2197242 L8.09684164,15.6646584 L8.84090619,19.1845184 L9.21381381,19.1056816 L8.37675381,15.1462816 L8.37675381,15.1462816 Z" id="Shape" fill="#C09300"></path>
                        <polygon id="Shape" fill="#C09300" points="3.62481713 18.3123092 4.66589242 21.7667808 6.09763747 19.3578911 6.9092007 21.8288473 7.2713193 21.7099127 6.19266115 18.425736 4.78170853 20.8301705 3.75718094 17.4306071 1.94175298 19.9804686 2.25224702 20.2015314"></polygon>
                    </g>
                    <g id="footer" transform="translate(2.400000, 46.200000)">
                        <path d="M33.6639,9.3228 C35.08452,9.06516 35.08452,8.33352 35.08452,7.38621 C36.50514,6.91293 35.77299,5.23509 36.76281,5.23509 C35.77299,5.493822 35.55807,3.55686 34.35294,3.81561 C34.35294,2.13666 32.67429,1.92174 31.25394,2.3943 C28.41309,3.34158 23.37744,3.55686 18.59994,3.55686 C13.82274,3.341586 8.82984,3.341586 5.94624,2.3943 C4.52598,1.92174 2.84814,2.136657 2.84814,3.81561 C1.64265,3.556875 1.42752,5.49384 0.43791,5.23509 C1.42755,5.23509 0.695772,6.91293 2.1162,7.38621 C2.1162,8.33349 2.1162,9.06516 3.57954,9.3228 C6.89304,10.26972 12.61794,10.743 18.59994,10.743 C24.5829,10.743 30.3072,10.26972 33.6639,9.3228 L33.6639,9.3228 Z" id="Shape" fill="#FFFFFF"></path>
                        <path d="M35.4213478,7.63605798 C35.9171968,7.40581735 36.1954627,7.02063109 36.3615854,6.4762143 C36.3821895,6.40869058 36.4584678,6.10760767 36.4698567,6.06061489 C36.5695802,5.65116088 36.9784424,5.15339358 36.9784424,5.15339358 C36.9784424,5.15339358 36.3410878,4.84098683 36.0378014,4.45686625 C36.0110358,4.42296685 35.9047286,4.28666551 35.9195688,4.30564243 C35.3654717,3.59709201 35.0880615,3.42956059 34.6809496,3.4238189 C34.4518619,1.92557508 32.8811003,1.47705604 31.1413467,2.0558838 C28.6955875,2.87142086 24.4744324,3.200205 18.59994,3.200205 C18.2051282,3.18205174 17.7737085,3.16424441 17.2803931,3.14518556 C16.9181958,3.13119236 16.6984846,3.12303648 15.951784,3.09561975 C10.2772885,2.88726835 7.97816714,2.68639783 6.05755167,2.05546007 C4.17591111,1.4293832 2.66096192,2.86398928 2.54541247,3.42956066 C2.07242799,3.44685505 1.72539086,3.73766471 1.28114803,4.3056157 C1.29608158,4.2865236 1.18940552,4.42326984 1.16255886,4.45726245 C0.859461497,4.84103723 0.17365723,5.28259272 0.17365723,5.28259272 C0.17365723,5.28259272 0.63109356,5.65118526 0.730850711,6.06060787 C0.742245204,6.10760447 0.818558164,6.40871296 0.839169517,6.4762413 C1.02887096,7.09775425 1.41108399,7.63499903 1.76292075,7.63499902 C1.79993203,8.91765674 2.15540367,9.43420296 3.51769745,9.67405246 C6.70729776,10.5875721 12.3177677,11.099655 18.59994,11.099655 C24.8769986,11.099655 30.4917129,10.5882438 33.7607326,9.66605826 C35.1396348,9.41763736 35.5437012,8.21037572 35.4213478,7.63605798 L35.4213478,7.63605798 Z M18.59994,10.386345 C12.3785513,10.386345 6.82558799,9.87951093 3.67754035,8.9798733 C2.6060264,8.78925966 2.472855,8.54643439 2.472855,7.38621 L2.472855,7.12911397 L2.22894219,7.04784335 C1.83584356,6.91686472 1.64923885,6.68681458 1.5214076,6.26800501 C1.50460298,6.21294854 1.43569255,5.9404446 1.42388562,5.89174766 C1.2536815,5.19319707 1.26574923,5.38389015 1.26574923,5.38389015 C1.26574923,5.38389015 1.56103245,5.10361061 1.72234038,4.8993663 C1.75074154,4.86340541 1.85927893,4.72427317 1.8429987,4.74508695 C2.24190163,4.23510165 2.4466528,4.09421597 2.77329543,4.16432346 L3.204795,4.25693646 L3.204795,3.81561 C3.204795,2.62675741 4.34310981,2.23677315 5.83364023,2.73271407 C7.84760032,3.39431902 10.1679539,3.59704455 15.9256109,3.80844941 C16.6718074,3.83584764 16.8912929,3.84399513 17.2528555,3.85796381 C17.7447524,3.87696787 18.1746974,3.89471432 18.5838844,3.91315343 C24.552186,3.913515 28.8229736,3.58086501 31.3667596,2.73264085 C32.8572686,2.23673855 33.996285,2.62682422 33.996285,3.81561 L33.996285,4.2569695 L34.4278101,4.16431798 C34.754248,4.09422943 34.9588429,4.23505285 35.3576718,4.74505439 C35.3414938,4.72436684 35.4496496,4.86303835 35.4779603,4.89889463 C35.9434542,5.48845553 35.9384907,5.39289457 35.9384907,5.39289457 C35.9384907,5.39289457 35.8245463,5.69580295 35.7768057,5.89182068 C35.7650049,5.94051246 35.6961286,6.21298233 35.6793308,6.26803201 C35.5515412,6.68682385 35.3649475,6.91685874 34.9717915,7.04783878 L34.727865,7.12910298 L34.727865,7.38621 C34.727865,8.54740005 34.5982318,8.79087915 33.6002561,8.97186945 C30.3745672,9.88014121 24.8170245,10.386345 18.59994,10.386345 L18.59994,10.386345 Z" id="Shape" fill="#C09300"></path>
                        <g id="left" transform="translate(2.400000, 0.000000)">
                            <path d="M13.8345,1.920369 C13.9954704,1.920369 14.8104489,2.39294394 14.8104489,2.39294394 C14.8104489,2.39294394 15.5472079,2.64910942 15.6914059,3.0298095 C15.952641,3.71950171 15.324609,5.26699241 15.324609,5.26699241 C15.324609,5.26699241 14.3803251,3.70429486 13.575729,3.814239 C11.897799,4.028784 9.272229,3.814239 7.851729,3.555504 C6.646599,3.340227 4.021329,2.867124 2.342529,2.392944 C1.8110164,2.16148726 0.50636118,3.1469938 0.45344241,2.85120185 C0.407224469,2.5928645 0.260428949,1.79577786 0.643798823,1.34296872 C1.20764895,0.676989168 2.43090297,0.36993469 2.815689,0.457284 C4.279389,0.930384 6.173289,1.404204 8.067189,1.662024 C10.00332,1.920369 12.1554,2.13528 13.8345,1.920369 L13.8345,1.920369 Z" id="Shape" fill="#FFFFFF"></path>
                            <path d="M6.91562745,3.57980394 C4.94457516,3.21800051 3.46491283,2.90776181 2.26644106,2.56767081 C1.41614401,2.19739363 1.12787,1.57806308 1.4245179,0.98521257 C1.67965494,0.475321464 2.31068882,0.147221468 2.87430138,0.27594614 C4.49137063,0.798618452 6.35697785,1.23687714 8.09239472,1.47312323 C10.5986692,1.80754454 12.3821734,1.91412522 13.8103053,1.73133607 L13.8345,1.729794 C14.3922619,1.729794 14.8921945,2.19793461 14.9591328,2.74721896 C15.0359948,3.37793473 14.5472993,3.87382461 13.5998997,4.003275 C12.3673454,4.16087297 10.452904,4.09555494 8.86668859,3.90049194 C8.78117291,4.05831094 8.64632803,4.20110782 8.44948143,4.37376747 C8.13221304,4.6520524 7.83867187,5.118 7.83867187,5.118 C7.83867187,5.118 7.57106331,4.62702413 7.3185115,4.30134583 C7.28648115,4.26014499 7.26842731,4.23692095 7.25395736,4.21816315 C7.07323939,3.98389338 6.96060347,3.78899265 6.91562745,3.57980394 L6.91562745,3.57980394 Z M8.97827837,3.53004278 C10.5224688,3.71529638 12.3701426,3.77626369 13.5499276,3.62541866 C14.306601,3.52202293 14.6296379,3.19423033 14.5807819,2.79332654 C14.5366198,2.43094019 14.3454341,2.11094395 13.8345,2.110944 C12.8683589,2.20954439 10.5794013,2.18950169 8.04148278,1.85085732 C6.28231167,1.6113782 4.39484291,1.16798391 2.77350043,0.643130591 C2.40351991,0.559142242 1.94449275,0.797808996 1.7653776,1.15577043 C1.57391571,1.53840683 1.75604104,1.92968658 2.39433055,2.20954435 C3.54080064,2.53336684 4.98592016,2.83705615 6.90563712,3.19043099 C6.91222286,3.14242885 6.92142043,3.09266603 6.9332266,3.04073336 L6.928485,3.08298 C6.928485,2.50443996 7.48751666,1.945845 8.06631,1.945845 C8.62173876,1.945845 8.987925,2.66329995 8.987925,3.34155 C8.987925,3.40906149 8.98481357,3.47152365 8.97827837,3.53004278 L8.97827837,3.53004278 Z" id="Shape" fill="#C09300"></path>
                            <path d="M7.61971051,4.06777682 C7.58720951,4.02596932 7.56970384,4.00345043 7.55574792,3.98535899 C7.29709905,3.65006521 7.22849646,3.46127952 7.3048934,3.12522664 L7.309635,3.08298 C7.309635,2.71501 7.69795334,2.326995 8.06631,2.326995 C8.34165695,2.326995 8.606775,2.84643084 8.606775,3.34155 C8.606775,3.66821666 8.51599683,3.80843049 8.19850791,4.08690889 C8.05676493,4.2112356 7.86536477,4.42966038 7.86536477,4.42966038 C7.86536477,4.42966038 7.91945611,4.4543139 7.61971051,4.06777682 L7.61971051,4.06777682 Z" id="Path" fill="#FFFFFF"></path>
                            <path d="M2.16014024,0.529328597 C0.662365827,0.264841862 -0.327746943,1.95682383 0.278745606,3.16834982 L0.457541529,3.52551151 L0.62268295,3.16183477 C0.682756207,3.02954061 0.82812474,2.94449431 1.22880419,2.78714745 C1.2289643,2.78708457 1.2289643,2.78708457 1.22912442,2.78702169 C1.73188796,2.58958639 1.92374304,2.47737342 2.04298713,2.21544154 C2.15451374,1.90099474 2.16169824,1.71733419 2.11671259,1.44834812 C2.10755825,1.39361088 2.10667614,1.38819884 2.10380955,1.36797035 C2.07972328,1.19800226 2.1108736,1.07702901 2.28407813,0.824913348 L2.4517672,0.580825981 L2.16014024,0.529328597 L2.16014024,0.529328597 L2.16014024,0.529328597 Z" id="Shape" fill="#C09300"></path>
                            <path d="M1.72642995,1.421449 C1.72994904,1.44628193 1.73092981,1.45229922 1.74078365,1.51121905 C1.77593824,1.72142154 1.77122461,1.84191821 1.68978527,2.0731786 C1.63584191,2.18986588 1.4903985,2.27493341 1.08980428,2.4322468 C0.586476372,2.62990372 0.516972526,2.71625669 0.516972526,2.71625669 C0.31648429,1.88439199 0.917216271,0.910415703 1.82103114,0.884238436 C1.77919917,0.96522217 1.68851889,1.15392428 1.72642995,1.421449 L1.72642995,1.421449 Z" id="Path" fill="#FFFFFF"></path>
                            <path d="M15.063105,5.82080174 L15.40778,5.34709508 C15.7845368,4.82929638 15.9988284,4.07161129 15.9390675,3.44146476 C15.8677595,2.68956025 15.4239628,2.203425 14.664,2.203425 L14.3021498,2.203425 L14.5068505,2.50180934 C14.6418635,2.69861272 14.6232494,2.76230773 14.4296566,2.92678159 C14.403107,2.94933774 14.3023869,3.03157003 14.2942202,3.03834276 C13.9990656,3.28311679 13.858185,3.48977013 13.858185,3.81549 C13.858185,4.03529301 13.9895132,4.20003641 14.2457354,4.39225711 C14.2880957,4.42403629 14.3333873,4.45632852 14.3928667,4.49755354 C14.4100348,4.50945269 14.5127856,4.58013223 14.5423347,4.60070348 C14.9142675,4.85963219 15.063105,5.02883766 15.063105,5.23497 L15.063105,5.82080174 L15.063105,5.82080174 Z" id="Shape" fill="#C09300"></path>
                            <path d="M14.7601053,4.28789152 C14.7294742,4.26656708 14.6262777,4.19558091 14.6099883,4.18429078 C14.5540943,4.1455508 14.5123284,4.11577236 14.4744665,4.08736798 C14.3077606,3.96230337 14.239335,3.87646751 14.239335,3.81549 C14.239335,3.63131814 14.321356,3.5110041 14.5375288,3.33173032 C14.5431625,3.32705825 14.6465002,3.2426888 14.6764381,3.21725399 C15.0038955,2.93905056 14.9748207,2.77833252 14.9748207,2.62653453 C15.3236992,2.7310255 15.5169299,3.02730552 15.55962,3.47745024 C15.5986663,3.8891721 15.4968964,4.37684107 15.3015645,4.78187626 C15.2579224,4.65871584 15.2306441,4.61546688 14.7601053,4.28789152 L14.7601053,4.28789152 Z" id="Path" fill="#FFFFFF"></path>
                            <path d="M2.55730244,1.31696267 L3.97930244,1.79096267 L4.42608072,1.93988877 L4.12423713,1.57839152 C3.88927194,1.29698994 3.13990812,1.057275 2.601,1.057275 L2.55730244,1.31696267 L2.55730244,1.31696267 Z" id="Shape" fill="#C09300"></path>
                            <path d="M4.92745807,2.0502605 L6.60745807,2.5242605 L6.70770699,2.27811028 C6.27349976,2.04173762 5.30925934,1.789275 4.965,1.789275 L4.92745807,2.0502605 L4.92745807,2.0502605 Z" id="Shape" fill="#C09300"></path>
                            <path id="Shape" fill="#C09300"></path>
                            <path id="Shape" fill="#C09300"></path>
                        </g>
                        <g id="right" transform="translate(26.800000, 3.000000) scale(-1, 1) translate(-26.800000, -3.000000) translate(18.800000, 0.000000)">
                            <path d="M13.8345,1.920369 C13.9954704,1.920369 14.8104489,2.39294394 14.8104489,2.39294394 C14.8104489,2.39294394 15.5472079,2.64910942 15.6914059,3.0298095 C15.952641,3.71950171 15.324609,5.26699241 15.324609,5.26699241 C15.324609,5.26699241 14.3803251,3.70429486 13.575729,3.814239 C11.897799,4.028784 9.272229,3.814239 7.851729,3.555504 C6.646599,3.340227 4.021329,2.867124 2.342529,2.392944 C1.8110164,2.16148726 0.50636118,3.1469938 0.45344241,2.85120185 C0.407224469,2.5928645 0.260428949,1.79577786 0.643798823,1.34296872 C1.20764895,0.676989168 2.43090297,0.36993469 2.815689,0.457284 C4.279389,0.930384 6.173289,1.404204 8.067189,1.662024 C10.00332,1.920369 12.1554,2.13528 13.8345,1.920369 L13.8345,1.920369 Z" id="Shape" fill="#FFFFFF"></path>
                            <path d="M6.91562745,3.57980394 C4.94457516,3.21800051 3.46491283,2.90776181 2.26644106,2.56767081 C1.41614401,2.19739363 1.12787,1.57806308 1.4245179,0.98521257 C1.67965494,0.475321464 2.31068882,0.147221468 2.87430138,0.27594614 C4.49137063,0.798618452 6.35697785,1.23687714 8.09239472,1.47312323 C10.5986692,1.80754454 12.3821734,1.91412522 13.8103053,1.73133607 L13.8345,1.729794 C14.3922619,1.729794 14.8921945,2.19793461 14.9591328,2.74721896 C15.0359948,3.37793473 14.5472993,3.87382461 13.5998997,4.003275 C12.3673454,4.16087297 10.452904,4.09555494 8.86668859,3.90049194 C8.78117291,4.05831094 8.64632803,4.20110782 8.44948143,4.37376747 C8.13221304,4.6520524 7.83867187,5.118 7.83867187,5.118 C7.83867187,5.118 7.57106331,4.62702413 7.3185115,4.30134583 C7.28648115,4.26014499 7.26842731,4.23692095 7.25395736,4.21816315 C7.07323939,3.98389338 6.96060347,3.78899265 6.91562745,3.57980394 L6.91562745,3.57980394 Z M8.97827837,3.53004278 C10.5224688,3.71529638 12.3701426,3.77626369 13.5499276,3.62541866 C14.306601,3.52202293 14.6296379,3.19423033 14.5807819,2.79332654 C14.5366198,2.43094019 14.3454341,2.11094395 13.8345,2.110944 C12.8683589,2.20954439 10.5794013,2.18950169 8.04148278,1.85085732 C6.28231167,1.6113782 4.39484291,1.16798391 2.77350043,0.643130591 C2.40351991,0.559142242 1.94449275,0.797808996 1.7653776,1.15577043 C1.57391571,1.53840683 1.75604104,1.92968658 2.39433055,2.20954435 C3.54080064,2.53336684 4.98592016,2.83705615 6.90563712,3.19043099 C6.91222286,3.14242885 6.92142043,3.09266603 6.9332266,3.04073336 L6.928485,3.08298 C6.928485,2.50443996 7.48751666,1.945845 8.06631,1.945845 C8.62173876,1.945845 8.987925,2.66329995 8.987925,3.34155 C8.987925,3.40906149 8.98481357,3.47152365 8.97827837,3.53004278 L8.97827837,3.53004278 Z" id="Shape" fill="#C09300"></path>
                            <path d="M7.61971051,4.06777682 C7.58720951,4.02596932 7.56970384,4.00345043 7.55574792,3.98535899 C7.29709905,3.65006521 7.22849646,3.46127952 7.3048934,3.12522664 L7.309635,3.08298 C7.309635,2.71501 7.69795334,2.326995 8.06631,2.326995 C8.34165695,2.326995 8.606775,2.84643084 8.606775,3.34155 C8.606775,3.66821666 8.51599683,3.80843049 8.19850791,4.08690889 C8.05676493,4.2112356 7.86536477,4.42966038 7.86536477,4.42966038 C7.86536477,4.42966038 7.91945611,4.4543139 7.61971051,4.06777682 L7.61971051,4.06777682 Z" id="Path" fill="#FFFFFF"></path>
                            <path d="M2.16014024,0.529328597 C0.662365827,0.264841862 -0.327746943,1.95682383 0.278745606,3.16834982 L0.457541529,3.52551151 L0.62268295,3.16183477 C0.682756207,3.02954061 0.82812474,2.94449431 1.22880419,2.78714745 C1.2289643,2.78708457 1.2289643,2.78708457 1.22912442,2.78702169 C1.73188796,2.58958639 1.92374304,2.47737342 2.04298713,2.21544154 C2.15451374,1.90099474 2.16169824,1.71733419 2.11671259,1.44834812 C2.10755825,1.39361088 2.10667614,1.38819884 2.10380955,1.36797035 C2.07972328,1.19800226 2.1108736,1.07702901 2.28407813,0.824913348 L2.4517672,0.580825981 L2.16014024,0.529328597 L2.16014024,0.529328597 L2.16014024,0.529328597 Z" id="Shape" fill="#C09300"></path>
                            <path d="M1.72642995,1.421449 C1.72994904,1.44628193 1.73092981,1.45229922 1.74078365,1.51121905 C1.77593824,1.72142154 1.77122461,1.84191821 1.68978527,2.0731786 C1.63584191,2.18986588 1.4903985,2.27493341 1.08980428,2.4322468 C0.586476372,2.62990372 0.516972526,2.71625669 0.516972526,2.71625669 C0.31648429,1.88439199 0.917216271,0.910415703 1.82103114,0.884238436 C1.77919917,0.96522217 1.68851889,1.15392428 1.72642995,1.421449 L1.72642995,1.421449 Z" id="Path" fill="#FFFFFF"></path>
                            <path d="M15.063105,5.82080174 L15.40778,5.34709508 C15.7845368,4.82929638 15.9988284,4.07161129 15.9390675,3.44146476 C15.8677595,2.68956025 15.4239628,2.203425 14.664,2.203425 L14.3021498,2.203425 L14.5068505,2.50180934 C14.6418635,2.69861272 14.6232494,2.76230773 14.4296566,2.92678159 C14.403107,2.94933774 14.3023869,3.03157003 14.2942202,3.03834276 C13.9990656,3.28311679 13.858185,3.48977013 13.858185,3.81549 C13.858185,4.03529301 13.9895132,4.20003641 14.2457354,4.39225711 C14.2880957,4.42403629 14.3333873,4.45632852 14.3928667,4.49755354 C14.4100348,4.50945269 14.5127856,4.58013223 14.5423347,4.60070348 C14.9142675,4.85963219 15.063105,5.02883766 15.063105,5.23497 L15.063105,5.82080174 L15.063105,5.82080174 Z" id="Shape" fill="#C09300"></path>
                            <path d="M14.7601053,4.28789152 C14.7294742,4.26656708 14.6262777,4.19558091 14.6099883,4.18429078 C14.5540943,4.1455508 14.5123284,4.11577236 14.4744665,4.08736798 C14.3077606,3.96230337 14.239335,3.87646751 14.239335,3.81549 C14.239335,3.63131814 14.321356,3.5110041 14.5375288,3.33173032 C14.5431625,3.32705825 14.6465002,3.2426888 14.6764381,3.21725399 C15.0038955,2.93905056 14.9748207,2.77833252 14.9748207,2.62653453 C15.3236992,2.7310255 15.5169299,3.02730552 15.55962,3.47745024 C15.5986663,3.8891721 15.4968964,4.37684107 15.3015645,4.78187626 C15.2579224,4.65871584 15.2306441,4.61546688 14.7601053,4.28789152 L14.7601053,4.28789152 Z" id="Path" fill="#FFFFFF"></path>
                            <path d="M2.55730244,1.31696267 L3.97930244,1.79096267 L4.42608072,1.93988877 L4.12423713,1.57839152 C3.88927194,1.29698994 3.13990812,1.057275 2.601,1.057275 L2.55730244,1.31696267 L2.55730244,1.31696267 Z" id="Shape" fill="#C09300"></path>
                            <path d="M4.92745807,2.0502605 L6.60745807,2.5242605 L6.70770699,2.27811028 C6.27349976,2.04173762 5.30925934,1.789275 4.965,1.789275 L4.92745807,2.0502605 L4.92745807,2.0502605 Z" id="Shape" fill="#C09300"></path>
                            <path id="Shape" fill="#C09300"></path>
                            <path id="Shape" fill="#C09300"></path>
                        </g>
                        <g id="text" transform="translate(3.900000, 3.600000)" fill="#C09300">
                            <path d="M0.702,1.374 C0.541782,1.343376 0.457644,1.216623 0.497967,1.06662 C0.54708,0.88392 0.69345,0.779403 0.831747,0.828294 C0.919683,0.85938 1.080666,1.021701 1.081299,1.079916 C1.082199,1.146741 0.997122,1.305687 0.960501,1.306053 C0.944691,1.306212 0.920241,1.320003 0.906135,1.336656 C0.876132,1.372104 0.782112,1.389303 0.702012,1.373994 L0.702,1.374 L0.702,1.374 Z" id="Shape"></path>
                            <path d="M17.181,2.55 C17.121393,2.52792 17.026437,2.39445 17.026545,2.332869 C17.027145,2.216718 17.198799,2.027529 17.305188,2.026449 C17.357736,2.026149 17.501613,2.100879 17.555421,2.156835 C17.652933,2.258202 17.631678,2.424669 17.509152,2.519205 C17.448864,2.56572 17.269077,2.58258 17.181012,2.549985 L17.181,2.55 L17.181,2.55 Z" id="Shape"></path>
                            <path d="M17.289,3.294 C17.162946,3.251373 17.116836,3.189672 17.106591,3.04992 C17.095941,2.9043 17.110071,2.881629 17.26395,2.797728 L17.373618,2.737935 L17.477556,2.784285 C17.62152,2.848476 17.68557,2.917674 17.690649,3.014511 C17.696109,3.118815 17.618739,3.225546 17.498613,3.279381 C17.393127,3.326655 17.386854,3.327093 17.289,3.294021 L17.289,3.294 L17.289,3.294 Z" id="Shape"></path>
                            <path d="M2.025,0.027 C1.921143,0.02373 1.778592,0.119187 1.69686,0.167625 C1.502124,0.21327 1.27545,0.332955 1.0875,0.205125 C0.902343,0.147888 0.6561,0.193005 0.62814,0.42075 C0.675657,0.616287 0.94959,0.72804 1.11564,0.598875 C1.23882,0.437601 1.575,0.343035 1.6125,0.617625 C1.475385,0.82527 1.491033,1.100295 1.378125,1.320765 C1.359765,1.458084 1.302597,1.588485 1.228125,1.705125 C1.089495,1.719045 0.942,1.702725 0.824985,1.7895 C0.637182,1.79976 0.445575,1.893111 0.337485,2.052 C0.216471,2.225454 0.100878,2.40162 0.06561,2.6145 C0.097785,2.831982 0.346872,2.894325 0.53436,2.905125 C0.734442,2.960202 0.93468,3.032424 1.13436,3.092625 C1.45995,3.165534 1.76496,3.283242 2.09061,3.355125 C2.56593,3.498399 3.06498,3.564342 3.54375,3.692625 C3.593916,3.709275 3.640965,3.723765 3.69375,3.730125 C3.892449,3.771444 3.99612,3.555258 4.0125,3.392625 C4.111092,3.044745 4.186344,2.690895 4.284375,2.342625 C4.351836,2.202948 4.43331,1.887465 4.1625,1.958265 C4.008045,2.050881 3.876954,2.190285 3.68436,2.202015 C3.422184,2.217285 3.571821,2.485569 3.675,2.595765 C3.69777,2.771925 3.642033,2.982405 3.525,3.120765 C3.369018,3.219636 3.17352,3.103935 3.00936,3.064515 C2.836953,3.067515 2.49234,2.97954 2.65311,2.745765 C2.710209,2.572692 2.715264,2.383275 2.78436,2.211405 C2.872419,2.02704 2.885019,1.825875 2.924985,1.630155 C2.816619,1.396956 2.631417,1.70691 2.484345,1.73328 C2.383038,1.803645 2.002725,1.833534 2.203095,2.01453 C2.375649,2.145618 2.243385,2.37354 2.212455,2.53953 C2.201385,2.770605 1.961112,2.825712 1.771815,2.773905 C1.583511,2.764815 1.321425,2.624661 1.48119,2.417655 C1.517535,2.245119 1.57779,2.075595 1.61244,1.902015 C1.68366,1.692684 1.743636,1.493175 1.81869,1.283265 C1.851243,1.097277 1.918029,0.920895 2.00619,0.758265 C2.01138,0.552636 2.149515,0.375705 2.146815,0.167625 C2.132745,0.065997 2.087256,0.028965 2.02494,0.027 L2.025,0.027 L2.025,0.027 Z M0.94686,2.202 C0.97137,2.19777 0.98883,2.2014 1.012485,2.21136 C1.087398,2.243235 1.089609,2.304174 1.012485,2.370735 C0.978771,2.399835 0.9405,2.427885 0.92811,2.426985 C0.787797,2.414925 0.74643,2.394063 0.74061,2.34261 C0.73545,2.297259 0.74982,2.284245 0.843735,2.239485 C0.890403,2.217225 0.922356,2.206227 0.94686,2.201985 L0.94686,2.202 L0.94686,2.202 Z" id="Shape"></path>
                            <path d="M0.636,3.708 C0.487212,3.568119 0.511137,3.466074 0.731187,3.30204 C0.825339,3.231861 0.88245,3.239799 0.990117,3.338031 C1.155828,3.48921 1.162461,3.584916 1.016187,3.714471 C0.943884,3.778503 0.912252,3.791634 0.828096,3.792474 C0.740055,3.793374 0.715116,3.782454 0.635988,3.708009 L0.636,3.708 L0.636,3.708 Z" id="Shape"></path>
                            <path id="Shape"></path>
                            <path d="M28.284,4.008 C28.215897,3.951318 28.202184,3.925695 28.201404,3.853563 C28.200504,3.730371 28.271451,3.640047 28.425219,3.570417 C28.629768,3.477771 28.713162,3.490509 28.790199,3.626142 C28.892673,3.806529 28.887735,3.880167 28.765029,4.001742 C28.697295,4.06884 28.684614,4.072752 28.52955,4.074312 C28.377282,4.075212 28.359864,4.071162 28.284,4.008006 L28.284,4.008 L28.284,4.008 Z" id="Shape"></path>
                            <path d="M2.766,4.353 C2.656833,4.32387 2.60025,4.241952 2.598822,4.110975 C2.597622,4.010826 2.604852,3.994857 2.674908,3.94002 C2.720274,3.904518 2.791962,3.874107 2.848476,3.866397 C2.928546,3.855447 2.957802,3.862437 3.022224,3.907722 C3.18738,4.023816 3.222462,4.138638 3.126834,4.250082 C3.024975,4.368798 2.928411,4.396341 2.765994,4.352991 L2.766,4.353 L2.766,4.353 Z" id="Shape"></path>
                            <path d="M9.342,4.647 C9.31779,4.616814 9.264252,4.598964 9.25875,4.5609 C9.26835,4.394439 9.2763,4.22589 9.329325,4.06644 C9.358185,3.909537 9.332925,3.74568 9.387621,3.59283 C9.443715,3.314784 9.443667,3.02805 9.508272,2.75175 C9.511272,2.609469 9.524742,2.46705 9.565995,2.33013 C9.613317,2.113626 9.570075,1.88727 9.633813,1.67331 C9.626973,1.592952 9.719535,1.378347 9.800787,1.505478 C9.91875,1.678413 10.074204,1.819008 10.227027,1.960068 C10.35834,2.035824 10.237797,2.147403 10.147053,2.184993 C10.02249,2.234085 9.992214,2.371251 10.001055,2.491653 C9.983595,2.616018 9.933663,2.733708 9.928596,2.860653 C9.902256,3.047379 9.907416,3.237033 9.883137,3.423603 C9.828504,3.606306 9.849405,3.801513 9.831168,3.989853 C9.833568,4.10943 9.776742,4.218033 9.784593,4.337973 C9.770073,4.459749 9.764643,4.606269 9.662454,4.689693 C9.56379,4.739508 9.421167,4.730904 9.341994,4.647009 L9.342,4.647 L9.342,4.647 Z" id="Shape"></path>
                            <path d="M18.252,1.707 C18.107334,1.816389 17.977941,1.945581 17.84886,2.07264 C17.671107,2.20731 17.994891,2.285634 18.03636,2.40078 C18.083508,2.576694 18.0807,2.76396 18.09261,2.94453 C18.146379,3.109956 18.170115,3.28605 18.158235,3.46017 C18.142665,3.64686 17.899221,3.607515 17.792595,3.713295 C17.645067,3.775461 17.586228,3.920436 17.473845,4.022655 C17.39997,4.16748 17.3802,4.345545 17.37072,4.510155 C17.38131,4.644519 17.279976,4.794948 17.37072,4.913295 C17.38242,4.930005 17.39628,4.952895 17.40822,4.969545 C17.438565,5.013105 17.51097,4.978305 17.55822,4.988295 C17.709324,4.979835 17.86677,5.002485 18.00822,4.94142 C18.37122,4.878591 18.73755,4.873605 19.10508,4.857045 C19.329855,4.864215 19.54611,4.78596 19.77072,4.79142 C19.946763,4.830342 20.025945,4.639542 20.023845,4.500795 C19.924173,4.304718 20.010345,4.072245 19.930095,3.872655 C19.859613,3.670917 19.887387,3.444255 19.855095,3.235155 C19.850655,3.07065 19.641891,3.009639 19.536345,3.13203 C19.433913,3.235572 19.268478,3.256239 19.189485,3.385155 C19.100508,3.565872 19.37772,3.566106 19.42386,3.703905 C19.476627,3.843165 19.459335,3.998082 19.470735,4.144545 C19.505001,4.322256 19.311978,4.332405 19.189485,4.350795 C19.02846,4.411131 18.802485,4.451562 18.711345,4.257045 C18.654075,4.113201 18.66192,3.959187 18.64572,3.807045 C18.64179,3.539499 18.577455,3.276525 18.561345,3.010185 C18.545925,2.681145 18.489135,2.354205 18.467595,2.025825 C18.464595,1.889178 18.446415,1.666425 18.25197,1.707075 L18.252,1.707 L18.252,1.707 Z M18.0645,4.182 L18.15825,4.19136 L18.16761,4.30386 L18.17697,4.41636 L18.055095,4.45386 C17.990559,4.47294 17.93412,4.48215 17.93322,4.48197 C17.93232,4.481715 17.90682,4.46604 17.87697,4.44447 C17.811093,4.39689 17.827935,4.328961 17.91447,4.23822 C17.96325,4.187136 17.986107,4.17723 18.06447,4.18197 L18.0645,4.182 L18.0645,4.182 Z" id="Shape"></path>
                            <path d="M9.075,1.398 C8.960946,1.438512 8.816265,1.605939 8.7,1.60425 C8.436,1.62294 8.472846,1.880007 8.6625,1.96989 C8.68749,2.047854 8.664,2.146257 8.67186,2.23239 C8.708724,2.46927 8.559255,2.65986 8.587485,2.89803 C8.574225,3.159123 8.4954,3.41334 8.48436,3.67617 C8.410248,3.947151 8.409408,4.2258 8.362485,4.50117 C8.331192,4.748139 8.152596,4.660983 7.996845,4.59492 C7.995645,4.487853 7.988685,4.383234 7.987485,4.27617 C8.052396,4.031037 7.855182,3.95949 7.659345,3.92931 C7.453512,3.94878 7.352505,3.772362 7.396845,3.59181 C7.485309,3.486501 7.707645,3.51579 7.846845,3.49806 C8.141235,3.559086 8.129325,3.16452 7.978095,3.02931 C7.874679,2.838609 7.618635,2.756532 7.546845,2.56056 C7.575525,2.300634 7.402932,2.0409 7.190595,1.9137 C6.864045,1.89078 6.617475,2.172618 6.496845,2.44806 C6.361095,2.487315 6.225672,2.528031 6.093705,2.57931 C5.881038,2.632554 5.577795,3.00141 5.868705,3.14181 C6.031977,3.186774 6.528765,3.300156 6.309345,3.52617 C6.185673,3.7383 5.949045,3.741912 5.737485,3.685545 C5.52039,3.685734 5.278665,3.579924 5.287485,3.329295 C5.24319,3.10434 5.250474,2.861925 5.14686,2.654295 C5.102319,2.402508 4.81662,2.461404 4.8,2.691795 C4.579977,2.852004 4.60929,3.111135 4.7625,3.301155 C4.858128,3.519828 4.7634,3.774435 4.66875,3.976155 C4.611477,4.238646 4.32198,4.247574 4.11561,4.332405 C4.014357,4.371717 3.62706,4.309035 3.76875,4.52928 C3.994686,4.609014 4.2645,4.680759 4.5,4.62303 C4.746885,4.592388 4.96125,4.423578 5.08125,4.21053 C5.247048,4.042521 5.53185,4.130475 5.74689,4.126155 C5.97873,4.125555 6.21567,4.288884 6.44064,4.182405 C6.505857,4.013091 6.80721,3.733665 6.9,4.02303 C6.88422,4.281825 7.112796,4.42074 7.35,4.38867 C7.609125,4.37385 7.513335,4.571958 7.509375,4.72617 C7.526505,5.006514 7.707291,5.15358 7.940625,5.26992 C8.020098,5.29137 8.104125,5.28414 8.184375,5.26992 C8.408754,5.199381 8.650455,5.09925 8.718735,4.84806 C8.809818,4.643847 8.811948,4.41285 8.87811,4.2012 C8.931276,3.86223 8.99991,3.5232 9.00936,3.17934 C9.092211,2.86785 9.068412,2.53854 9.131235,2.22309 C9.170928,1.98855 9.200475,1.75407 9.224985,1.51995 C9.197475,1.394745 9.143418,1.373769 9.074985,1.398075 L9.075,1.398 L9.075,1.398 Z M7.04064,2.64486 C7.086072,2.65041 7.11132,2.706087 7.11564,2.804235 C7.12044,2.913462 7.177524,3.00246 7.24689,3.01986 C7.301625,3.03357 7.296933,3.091506 7.23753,3.13236 C7.203009,3.15609 7.14126,3.17046 7.03128,3.16986 C6.857868,3.16896 6.750351,3.124032 6.65628,3.029235 L6.60003,2.972985 L6.684405,2.916735 C6.726939,2.884242 6.803907,2.816958 6.853155,2.766735 C6.938637,2.67954 6.995223,2.639316 7.040655,2.64486 L7.04064,2.64486 L7.04064,2.64486 Z" id="Shape"></path>
                            <path d="M26.85,0.282 C26.679861,0.2898 26.50881,0.317388 26.35314,0.357 C26.04108,0.33759 25.88442,0.66513 26.18439,0.82575 C26.364888,1.28604 26.64651,0.730698 26.93439,0.7695 C27.36564,0.853368 27.40209,1.31919 27.46875,1.6695 C27.49302,2.01651 27.593067,2.35398 27.69375,2.682 C27.982416,3.00285 27.477534,3.20406 27.2625,2.953875 C27.079116,2.754573 26.68638,2.510025 26.46564,2.785125 C26.19456,2.899923 26.183433,3.262215 25.95939,3.366375 C25.59666,3.476784 25.551,3.030735 25.35939,2.841375 C25.183218,2.594094 24.8463,2.572437 24.57189,2.485125 C24.443151,2.22453 24.510246,1.781445 24.24375,1.603875 C24.02001,1.69515 23.60982,2.114535 23.953125,2.307015 C24.288435,2.595216 23.806779,2.727345 23.653125,2.925765 C23.433651,3.170133 23.398578,3.506565 23.3625,3.816405 C22.98471,4.025103 22.91118,3.580098 22.86564,3.300765 C22.83621,2.967315 22.5549,3.065202 22.35939,3.188265 C22.073643,3.304023 21.93096,3.575355 21.73125,3.788265 C21.70728,3.982566 21.74241,4.195275 21.74061,4.397625 C21.805548,4.641051 22.10133,4.526715 22.28436,4.510125 C22.578,4.387314 22.69821,4.69836 22.462485,4.875765 C22.302942,5.078574 21.796545,4.972644 21.843735,5.297625 C22.00692,5.316705 22.176885,5.310585 22.340595,5.297625 C22.667745,5.208228 23.019015,4.977435 23.053095,4.613265 C23.096175,4.295805 23.553375,4.353633 23.803095,4.285125 C24.115335,4.195119 24.491535,4.172013 24.562455,4.566375 C24.775284,4.789872 25.237035,5.041575 25.471815,4.735125 C25.710168,4.589556 25.824735,4.333845 25.809315,4.060125 C25.760706,3.824742 26.189955,3.816183 26.296815,3.947625 C26.453238,4.205013 26.942115,4.129059 27.178065,3.985125 C27.428895,3.799962 27.483345,3.473625 27.843705,3.469485 C28.378395,3.309429 28.933965,3.217119 29.456205,3.019485 C29.879325,2.927295 29.393235,2.660175 29.287455,2.503845 C28.965345,2.344551 28.685025,2.996415 28.321815,2.672595 C28.041123,2.45778 28.060179,2.049615 27.956175,1.735095 C27.885033,1.327905 27.903012,0.858285 27.609315,0.535095 C27.407589,0.320622 27.133515,0.268995 26.849955,0.28197 L26.85,0.282 L26.85,0.282 Z M24.80625,3.12264 C24.843969,3.12174 24.886521,3.14043 24.95625,3.17889 C25.087773,3.251469 25.181439,3.371772 25.18125,3.469515 C25.181121,3.533298 25.1649,3.537606 25.06875,3.582015 C25.009593,3.609315 24.94233,3.638565 24.91875,3.638265 C24.864456,3.637665 24.731436,3.531201 24.73125,3.488265 C24.731055,3.470445 24.71382,3.402318 24.69375,3.34764 C24.658467,3.251436 24.66393,3.252711 24.7125,3.188265 C24.743541,3.147033 24.768531,3.123669 24.80625,3.12264 L24.80625,3.12264 L24.80625,3.12264 Z M26.76561,3.225765 C26.877297,3.218445 26.943678,3.253305 26.99061,3.338265 C27.045144,3.436953 27.00807,3.51255 26.868735,3.57264 C26.807688,3.59898 26.746635,3.620415 26.737485,3.619515 C26.728305,3.618615 26.677953,3.588756 26.624985,3.55389 C26.543949,3.500559 26.532135,3.474729 26.531235,3.413265 C26.530335,3.318642 26.636019,3.234255 26.76561,3.225765 L26.76561,3.225765 L26.76561,3.225765 Z M24.08436,3.253875 C24.117072,3.248775 24.146853,3.265875 24.187485,3.30075 C24.241482,3.347118 24.25854,3.384411 24.27186,3.478875 C24.28128,3.544527 24.27981,3.629427 24.27186,3.666375 C24.25728,3.734205 24.2559,3.7311 24.10311,3.732 C23.911023,3.7338 23.8932,3.71283 23.89686,3.535125 C23.89926,3.422079 23.9004,3.391665 23.962485,3.328875 C24.010617,3.280191 24.051648,3.25896 24.08436,3.253875 L24.08436,3.253875 L24.08436,3.253875 Z M22.43436,3.685125 C22.494213,3.699195 22.55073,3.744408 22.56561,3.816375 C22.58529,3.911625 22.56801,3.955044 22.49061,3.9945 C22.42398,4.02843 22.270407,4.03974 22.22811,4.01325 C22.2144,4.00467 22.18614,3.98235 22.17186,3.957 C22.15146,3.920658 22.15521,3.90318 22.18122,3.882 C22.19937,3.86724 22.218837,3.846045 22.21872,3.835125 C22.2186,3.824205 22.23891,3.786177 22.265595,3.75075 C22.309419,3.69258 22.374492,3.671061 22.434345,3.685125 L22.43436,3.685125 L22.43436,3.685125 Z M25.20936,4.041375 C25.262742,4.041075 25.307949,4.059645 25.34061,4.08825 C25.396188,4.136943 25.39431,4.208367 25.33125,4.257 C25.290723,4.28832 25.069755,4.28544 24.99375,4.257 C24.959934,4.24437 24.947061,4.22739 24.946875,4.191375 C24.946275,4.149102 24.958125,4.123074 25.03125,4.08825 C25.092525,4.05897 25.155993,4.041729 25.209375,4.041375 L25.20936,4.041375 L25.20936,4.041375 Z" id="Shape"></path>
                            <path d="M20.058,5.487 C20.02926,5.46825 19.986699,5.451903 20.02956,5.420529 C20.081391,5.329788 20.184915,5.298381 20.276862,5.264607 C20.441199,5.193411 20.583072,5.072499 20.688972,4.929087 C20.703972,4.829193 20.816124,4.775022 20.815629,4.670565 C20.816529,4.528104 20.824959,4.382085 20.790249,4.242765 C20.751738,4.115055 20.654808,4.017168 20.542302,3.95058 C20.465301,3.890133 20.340102,3.873444 20.311671,3.766374 C20.295921,3.663537 20.3877,3.585171 20.41983,3.493569 C20.486805,3.367116 20.543157,3.234477 20.6151,3.111069 C20.692836,3.024729 20.812776,3.106389 20.852994,3.189786 C20.909739,3.273099 20.960031,3.362565 20.988222,3.45903 C21.078897,3.558555 21.159294,3.675291 21.191922,3.80757 C21.236439,3.900738 21.30687,3.988272 21.302709,4.097397 C21.302799,4.222317 21.373236,4.333611 21.368811,4.459287 C21.372801,4.627413 21.372741,4.802757 21.311259,4.961517 C21.269256,5.049549 21.185085,5.102409 21.129342,5.181285 C21.033651,5.269947 20.928231,5.354982 20.805432,5.40213 C20.718648,5.42973 20.668314,5.529825 20.55963,5.505528 C20.405256,5.508228 20.24865,5.529228 20.09547,5.504328 C20.10516,5.520588 20.048571,5.476878 20.057991,5.487138 L20.058,5.487 L20.058,5.487 Z" id="Shape"></path>
                            <path d="M18.003,5.622 C17.930196,5.547126 17.91444,5.515371 17.913636,5.441904 C17.912736,5.367663 17.927016,5.338203 17.998296,5.266197 C18.129783,5.133372 18.19404,5.130165 18.421026,5.245047 C18.637938,5.354841 18.711276,5.364783 18.730686,5.287053 C18.749436,5.211987 18.874341,5.143305 18.992991,5.142813 C19.068009,5.142213 19.110462,5.157123 19.17054,5.203917 C19.245948,5.262666 19.249587,5.271819 19.251507,5.407722 C19.252707,5.546619 19.250907,5.551887 19.164381,5.628495 C19.081212,5.701722 19.067832,5.70624 18.964758,5.695923 C18.833604,5.682753 18.754896,5.622702 18.733539,5.519391 C18.718059,5.444388 18.691713,5.426481 18.67197,5.477481 C18.6657,5.493861 18.633378,5.514036 18.600288,5.522361 C18.539232,5.537781 18.435648,5.602947 18.362043,5.672379 C18.334233,5.698599 18.285465,5.710944 18.206454,5.711745 C18.099765,5.712645 18.084915,5.706255 18.002976,5.622 L18.003,5.622 L18.003,5.622 Z" id="Shape"></path>
                            <path d="M12.057,2.952 C11.857602,2.9541 11.64285,3.12186 11.61636,3.31764 C11.661978,3.543318 11.849454,3.76449 11.72886,4.002 C11.812128,4.30593 11.500419,4.42122 11.28822,4.24575 C11.16009,3.954348 11.095173,3.63501 10.90386,3.37389 C10.662627,3.305604 10.55751,3.69096 10.38822,3.82389 C10.472145,4.050405 10.71696,4.25361 10.74447,4.53639 C10.80303,4.810836 10.636086,5.11557 10.39761,5.25825 C10.191858,5.454666 9.90999,5.384472 9.65697,5.427 C9.34971,5.606571 9.882516,5.672265 10.02261,5.680125 C10.33692,5.712063 10.66323,5.670615 10.89447,5.436375 C11.125203,5.326251 11.107383,4.927215 11.38197,4.883235 C11.85849,4.861965 12.33075,4.9563 12.80697,4.96761 C13.061778,5.028618 13.45602,4.937316 13.63197,5.126985 C13.63257,5.459235 13.914204,5.664135 14.18511,5.792625 C14.33472,5.834241 14.49234,5.648841 14.64447,5.6145 C14.934063,5.522208 14.846016,5.1639 15.01947,5.02386 C15.51459,4.99707 16.01436,5.00274 16.51011,4.99575 C16.604499,4.99815 16.632312,4.863786 16.69761,4.80825 C16.68672,4.616607 16.67982,4.42647 16.650735,4.23639 C16.555278,3.994431 16.666125,3.68301 16.49136,3.47703 C16.242327,3.409212 16.0305,3.637095 15.77886,3.655155 C15.501012,3.778893 15.26691,4.035465 15.25386,4.348905 C15.089361,4.617879 14.82555,4.301031 14.91636,4.07703 C14.90598,3.979407 14.93748,3.865743 14.907,3.77703 C14.754906,3.594588 14.48859,3.65421 14.27886,3.62703 C13.97334,3.63921 13.67505,3.573165 13.3695,3.580155 C13.101621,3.559935 12.8229,3.603465 12.56325,3.53328 C12.25374,3.52449 12.296373,3.22182 12.2445,3.00828 C12.189603,2.967567 12.123465,2.951361 12.057,2.95203 L12.057,2.952 L12.057,2.952 Z M12.657,4.05825 C12.759924,4.06035 12.856968,4.07385 12.957,4.08636 C13.086246,4.10763 13.22397,4.041912 13.35075,4.08636 C13.643703,4.136184 13.93683,4.124415 14.232,4.151985 C14.309955,4.150785 14.365737,4.207398 14.4195,4.25511 C14.4201,4.460181 14.419698,4.66878 14.4195,4.87386 C14.41053,4.951161 14.44239,5.05332 14.372625,5.108235 C14.350215,5.123625 14.325135,5.140395 14.297625,5.145735 C14.21643,5.124735 14.130432,5.071365 14.091375,4.995735 C14.078955,4.888509 14.096745,4.784523 14.100735,4.676985 C14.098635,4.649175 14.112855,4.605885 14.100735,4.583235 C14.036901,4.538034 13.964574,4.508535 13.88511,4.508235 C13.630275,4.499505 13.38051,4.480755 13.12575,4.470735 C12.91368,4.457355 12.69576,4.488855 12.48825,4.433235 C12.407715,4.403955 12.302883,4.414005 12.253875,4.33011 C12.183624,4.248429 12.284961,4.151025 12.357,4.114485 C12.452481,4.071075 12.554076,4.056252 12.657,4.058235 L12.657,4.05825 L12.657,4.05825 Z M16.0413,4.13325 C16.088898,4.13265 16.104105,4.14825 16.125675,4.236375 C16.139445,4.29267 16.155555,4.361535 16.163175,4.386375 C16.174065,4.421808 16.156635,4.43325 16.106925,4.452 C15.958725,4.507938 15.811227,4.502391 15.760065,4.43325 C15.736845,4.401888 15.763935,4.302897 15.80694,4.2645 C15.893778,4.186947 15.989916,4.133427 16.041315,4.13325 L16.0413,4.13325 L16.0413,4.13325 Z" id="Shape"></path>
                        </g>
                    </g>
                    <g id="shield" transform="translate(11.700000, 15.300000)">
                        <path d="M9.294,21.669 C19.0866,14.1372 18.2469,3.1041 18.2469,3.1041 C17.98851,3.155769 17.74305,3.181605 17.48466,3.181605 C15.43053,3.181605 10.53126,2.006475 9.38826,0.513825 C8.1639,1.864845 3.15726,3.181605 1.11606,3.181605 C0.857673,3.181605 0.59931,3.155775 0.35385,3.1041 C0.35385,3.1041 -0.49881,14.1369 9.29385,21.669 L9.294,21.669 L9.294,21.669 Z" id="Shape" fill="#FFFFFF"></path>
                        <path d="M14.8258937,15.9121555 C16.4615134,13.3448068 17.4892026,10.5987875 18.0257829,7.82149091 C18.3791553,5.99246385 18.4745613,4.42616932 18.4282898,3.26884054 C18.4248319,3.18235285 18.4041451,2.89671086 18.4041451,2.89671086 C18.4041451,2.89671086 17.7282444,3.009075 17.48466,3.009075 C15.0164695,3.009075 10.491734,1.67107923 9.52524137,0.408931218 L9.3994055,0.244601469 L9.26041743,0.397967851 C8.19075336,1.57828864 3.42252837,3.009075 1.11606,3.009075 C0.867828728,3.009075 0.196983846,2.89476424 0.196983846,2.89476424 C0.196983846,2.89476424 0.175687312,3.18449696 0.172084111,3.27318809 C0.124914463,4.43424729 0.219524827,6.00212711 0.57199283,7.83120183 C1.10661637,10.6055427 2.13181736,13.3482844 3.76420409,15.9126395 C5.16089767,18.1067386 6.95577938,20.0883167 9.18866288,21.8057562 L9.39918489,21.805758 C11.6322669,20.0882236 13.4279236,18.1064776 14.8258937,15.9121555 L14.8258937,15.9121555 Z M9.29385,21.49647 C7.22686085,19.8126717 5.23928903,17.5873135 4.05529096,15.7273429 C2.4476734,13.2018983 1.43763023,10.4997086 0.910819117,7.76590902 C0.563739685,5.96479741 0.470710879,4.42312712 0.516859702,3.28719508 C0.695598377,3.35413501 0.844260486,3.354135 1.11606,3.354135 C3.51040981,3.354135 8.20320553,2.07608693 9.3654874,0.753086063 C10.6000262,2.07608692 15.0032287,3.354135 17.48466,3.354135 C17.7513833,3.354135 18.0835053,3.28262546 18.0835053,3.28262546 C18.1287728,4.41484462 18.0349621,5.95494951 17.6869881,7.75603495 C17.1582369,10.4928086 16.1457167,13.1982959 14.534875,15.7267518 C13.158155,17.8877187 11.3903862,19.8126717 9.29385,21.49647 L9.29385,21.49647 Z M17.21169,3.782565 C14.9577822,3.782565 10.8885535,2.66561618 9.44869953,1.42857536 L9.36460473,1.35632587 L9.27623771,1.42328254 C7.72604968,2.59787728 3.48075309,3.782565 1.38639,3.782565 C1.31615807,3.782565 1.24194488,3.77460341 1.15630744,3.7588747 L0.99581312,3.72939732 L0.994147159,3.89256769 C0.990356002,4.26388743 1.00568964,4.65894886 1.03778109,5.14607918 C1.13398831,6.60580781 1.38914871,8.09004057 1.7887051,9.53915964 C3.0259437,14.0250945 5.55898732,17.8510158 9.20714679,20.756592 L9.29271916,20.8247461 L9.3782914,20.7565919 C13.0292683,17.848761 15.5654526,14.0193292 16.8054168,9.52991795 C17.2056125,8.08114896 17.4615909,6.59704164 17.5587209,5.13747038 C17.5903406,4.66132036 17.6058496,4.27507749 17.6032555,3.91102129 L17.6032556,3.75887476 C17.6032556,3.75887476 17.2941253,3.782565 17.21169,3.782565 L17.21169,3.782565 Z" id="Shape" fill="#C09300"></path>
                        <path d="M6.11408914,17.3363551 C7.05112203,18.4761287 8.11477635,19.5263973 9.29872763,20.4780481 C10.4052027,19.5843622 11.4074717,18.6063263 12.3000013,17.5487477 L12.3000013,17.5487477 L12.3000891,3.1311046 C11.0926529,2.73045738 10.0074788,2.23292373 9.35352591,1.70662427 C8.64955682,2.26098457 7.43568416,2.78342986 6.11409,3.19435223 L6.11409,17.3363561 L6.11408914,17.3363551 L6.11408914,17.3363551 Z" id="Path" fill="#FFFFFF"></path>
                    </g>
                    <g id="head" transform="translate(14.400000, 0.000000)">
                        <path d="M11.1856139,14.3228987 C11.4824166,14.3854559 11.799179,14.4337131 12.1157657,14.4696124 C12.2264444,14.4821628 12.5176061,14.5079519 12.5395796,14.5093737 L13.5671993,14.5758682 L12.6251617,14.1599489 C11.5067499,13.6661584 10.338803,9.70933037 10.4754826,6.61884152 C10.587138,3.86199986 10.1925169,2.25281909 9.49303615,1.55320455 C8.89196438,0.952132779 6.99329789,0.379031678 5.57477811,0.300236191 C5.17700388,0.280676332 4.92240614,0.426525172 4.82047361,0.685491328 C4.7754143,0.799967438 4.77753965,0.789118052 4.77753965,0.789118052 C3.33905944,0.44567439 2.18298918,0.416052258 1.6051869,0.801109357 C1.29148541,1.01024924 1.08462476,1.56248204 1.02338443,2.16377598 C0.996712709,2.42565478 1.00440134,2.66154507 1.04923329,2.82181083 C1.1204845,3.07652048 1.33061043,3.20036604 1.55008594,3.0247818 C2.31209235,2.4151721 3.04114234,2.74888908 3.75558645,3.78562274 C4.26798127,4.52572675 4.18051046,6.70556438 3.46061033,9.08669123 C3.18495595,10.0027683 2.72369762,10.9828767 2.1286987,11.9864539 C1.77353639,12.5855017 1.39277425,13.1558979 1.01207171,13.6783254 C0.878905248,13.861066 0.75532614,14.0246725 0.644539894,14.1667491 C0.5783681,14.2516104 0.531380565,14.3101806 0.506781401,14.3400702 L0.260889233,14.638845 L0.647838,14.638845 C0.917836102,14.638845 1.21828946,14.5889816 1.54467868,14.4962865 C1.88092421,14.4007923 2.23609065,14.2624133 2.59984961,14.0923465 C2.85212149,13.9744028 3.22859435,13.769126 3.22859435,13.769126 L2.92859351,15.0132147 L2.83872281,15.3859041 L3.18479236,15.2209496 C3.49980156,15.0708 3.81461376,14.893237 4.12616831,14.6939231 C4.47861908,14.4684464 4.8088355,14.2271099 5.10781267,13.9856838 C5.21259412,13.901072 5.36596698,13.7829769 5.36596698,13.7829769 L6.43205974,14.9115535 L6.58042638,15.0671879 L6.71004745,14.8956272 C6.78791269,14.7925682 7.12061809,14.4178701 7.1853054,14.3500126 C7.33871061,14.1890893 7.50343152,14.0253399 7.66819184,13.8675822 C7.76701488,13.7729593 7.76784087,13.7829773 7.76784087,13.7829773 C7.76784087,13.7829773 7.82130452,13.8301414 7.85207684,13.8562205 C8.02717477,14.0046137 8.22977783,14.152681 8.45787329,14.290849 C9.00892289,14.6246454 9.61877672,14.8479472 10.276132,14.9086413 C10.513642,14.9230186 10.5505916,14.752353 10.5151194,14.533687 C10.4981015,14.4287811 10.459601,14.2935518 10.4038548,14.1320934 C10.388276,14.0869725 10.5736071,14.1939059 11.1856139,14.3228987 L11.1856139,14.3228987 Z" id="Path" fill="#FFFFFF"></path>
                        <path d="M3.37154779,13.2647999 C3.21812037,13.3526579 2.66177929,13.6600632 2.44510639,13.7613635 C2.0978252,13.9237265 1.76031398,14.0552267 1.4448605,14.1448159 C1.14856643,14.2289639 1.04829782,14.2413781 1.04829782,14.2413781 C1.04829782,14.2413781 1.21635208,14.0183875 1.30735641,13.8935048 C1.69446795,13.3622825 2.08151989,12.7824639 2.44298406,12.1727868 C3.05189686,11.1457412 3.52520823,10.1400219 3.81036059,9.19237973 C4.41116284,7.20517833 4.58913757,5.34961081 4.32987678,4.24840602 L4.32987678,4.24840602 C4.36171456,4.21077799 4.40048835,4.17126613 4.44753,4.1301 C4.64748,3.953673 5.48259,4.14189 5.48259,4.14189 C4.35339,2.21289 3.07131,1.754139 2.50671,1.78944 C1.9849902,1.81468035 1.66193573,2.36370126 1.52032124,2.67412762 C1.47484044,2.71197472 1.43032074,2.75361513 1.38687407,2.79912105 C1.38687407,2.79912105 1.3644271,2.42119416 1.38687407,2.20079652 C1.42080734,1.86761956 1.5087734,1.55135265 1.62157532,1.33818455 C1.79868808,1.22455197 2.0618037,1.11484688 2.437536,1.083966 C3.307926,1.025166 3.566736,1.154526 4.237056,1.683846 C4.907496,2.213154 5.436786,2.47191 5.766126,2.413086 C5.871996,2.401326 5.930823,2.589513 6.03666,2.718906 C6.119013,2.813001 6.09549,2.895348 6.41307,2.895348 C6.61302,2.895348 6.718857,2.507208 6.84825,2.401338 C7.01292,2.271942 7.318755,2.213151 7.51872,2.166072 C7.94214,2.060232 8.14209,2.07198 8.45967,2.036712 C8.61324357,2.01867839 9.14114458,2.0006271 9.51115529,2.17946817 L9.51115529,2.17946817 C9.9541409,2.94268493 10.2009303,4.36910555 10.1104406,6.60337718 C9.96771605,9.83052201 11.0192878,13.2432461 11.9607726,14.0826518 C11.7211119,14.0513305 11.4843846,14.0124733 11.2609675,13.9653836 C10.7421034,13.8560225 10.357256,13.7136244 10.177745,13.5524584 L10.177745,13.5524584 L10.1792244,13.5514511 C9.80040288,12.9950829 9.48861053,12.0354034 9.24501143,10.7937831 C9.09955859,10.0524125 8.98714051,9.25685062 8.90381527,8.46111362 C8.87463807,8.18247802 8.85119069,7.92379311 8.83295822,7.69176117 C8.82204453,7.55287025 8.81530788,7.45398009 8.81222948,7.4017813 L8.43177052,7.4242187 C8.43499037,7.47881587 8.44189474,7.58016811 8.45300939,7.72161656 C8.47149083,7.95681692 8.49523374,8.21876227 8.52476776,8.50080541 C8.60918886,9.30700769 8.72313526,10.1133851 8.87102133,10.8671579 C9.12384847,12.1558134 9.44871858,13.1557455 9.86419557,13.7659489 L9.86808478,13.7633008 C9.9266526,13.9162058 10.1573439,14.5276935 10.1573439,14.5276935 C9.61981049,14.4550246 9.11177354,14.2597718 8.64717337,13.9783419 C8.43641171,13.8506738 8.24928446,13.7139166 8.08830125,13.5774854 C8.04891307,13.5441044 7.98842725,13.486077 7.93096821,13.4294336 C7.8145055,13.0460748 7.72940677,11.9490718 7.67821677,10.3969115 C7.654748,9.68530206 7.63965438,8.92253201 7.63126853,8.15971549 C7.62833308,7.89269321 7.62644608,7.64475483 7.62539789,7.42227502 C7.62476935,7.28886604 7.62456,7.19365051 7.62456,7.143 L7.24344,7.143 C7.24344,7.19423052 7.24365066,7.29004191 7.24428212,7.42407061 C7.24533394,7.64732028 7.24722697,7.8960519 7.25017155,8.16390499 C7.2585858,8.92930384 7.27373236,9.69474915 7.29730387,10.409474 C7.34754591,11.9328906 7.42689925,13.0021508 7.54937102,13.4785778 L7.54937102,13.4785778 C7.49026454,13.5334509 7.43696752,13.5831293 7.41550527,13.6036793 C7.24701142,13.7650119 7.07847817,13.9325512 6.92084615,14.0979083 C6.85394765,14.1680854 6.79031513,14.2365349 6.73042444,14.3029025 C6.60837744,14.4381481 6.55235465,14.5082231 6.55235465,14.5082231 L5.59347164,13.5023694 L5.59347164,13.5023694 C5.89583917,12.8781118 6.13833536,11.8457829 6.33372057,10.5067702 C6.44726008,9.72866199 6.53745614,8.89586728 6.60675966,8.06319812 C6.63100797,7.77185906 6.6509176,7.5012979 6.66678345,7.25840381 C6.67631764,7.11244268 6.68239351,7.00796699 6.685304,6.95187433 L6.304696,6.93212567 C6.30187093,6.98657225 6.29589336,7.08935762 6.28647392,7.23356198 C6.27075041,7.47427705 6.25100587,7.74259466 6.22695291,8.03158659 C6.1582528,8.85700595 6.06886912,9.68229977 5.95659429,10.4517409 C5.75776946,11.8143259 5.50842166,12.8502836 5.21214513,13.4121401 C5.09117893,13.5188567 4.93640497,13.6544765 4.87826906,13.7014216 C4.58917188,13.9348695 4.26962669,14.1684071 3.92927109,14.3861461 C3.62987929,14.5776789 3.37920671,14.7031458 3.37920671,14.7031458 L3.66822737,13.5045913 C4.15701032,12.9457523 4.58042897,11.889056 4.95353958,10.4668135 C5.14707743,9.72907585 5.31428043,8.93971462 5.45487194,8.15050119 C5.50406012,7.87438232 5.54642102,7.61794127 5.58189888,7.38769209 C5.60323127,7.24924617 5.61755846,7.15006996 5.62482071,7.09668757 L5.24717929,7.04531243 C5.24021043,7.09653811 5.22620284,7.19350204 5.20522417,7.32965231 C5.17018361,7.55706346 5.12830468,7.81058676 5.07965901,8.08366027 C4.94072524,8.86356794 4.775556,9.64332782 4.58489401,10.3701032 C4.22338243,11.7481319 3.81280183,12.7687342 3.37154779,13.2647999 L3.37154779,13.2647999 Z M11.1856139,14.3228987 C11.4824166,14.3854559 11.799179,14.4337131 12.1157657,14.4696124 C12.2264444,14.4821628 12.5176061,14.5079519 12.5395796,14.5093737 L13.5671993,14.5758682 L12.6251617,14.1599489 C11.5067499,13.6661584 10.338803,9.70933037 10.4754826,6.61884152 C10.587138,3.86199986 10.1925169,2.25281909 9.49303615,1.55320455 C8.89196438,0.952132779 6.99329789,0.379031678 5.57477811,0.300236191 C5.17700388,0.280676332 4.92240614,0.426525172 4.82047361,0.685491328 C4.7754143,0.799967438 4.77753965,0.789118052 4.77753965,0.789118052 C3.33905944,0.44567439 2.18298918,0.416052258 1.6051869,0.801109357 C1.29148541,1.01024924 1.08462476,1.56248204 1.02338443,2.16377598 C0.996712709,2.42565478 1.00440134,2.66154507 1.04923329,2.82181083 C1.1204845,3.07652048 1.33061043,3.20036604 1.55008594,3.0247818 C2.31209235,2.4151721 3.04114234,2.74888908 3.75558645,3.78562274 C4.26798127,4.52572675 4.18051046,6.70556438 3.46061033,9.08669123 C3.18495595,10.0027683 2.72369762,10.9828767 2.1286987,11.9864539 C1.77353639,12.5855017 1.39277425,13.1558979 1.01207171,13.6783254 C0.878905248,13.861066 0.75532614,14.0246725 0.644539894,14.1667491 C0.5783681,14.2516104 0.531380565,14.3101806 0.506781401,14.3400702 L0.260889233,14.638845 L0.647838,14.638845 C0.917836102,14.638845 1.21828946,14.5889816 1.54467868,14.4962865 C1.88092421,14.4007923 2.23609065,14.2624133 2.59984961,14.0923465 C2.85212149,13.9744028 3.22859435,13.769126 3.22859435,13.769126 L2.92859351,15.0132147 L2.83872281,15.3859041 L3.18479236,15.2209496 C3.49980156,15.0708 3.81461376,14.893237 4.12616831,14.6939231 C4.47861908,14.4684464 4.8088355,14.2271099 5.10781267,13.9856838 C5.21259412,13.901072 5.36596698,13.7829769 5.36596698,13.7829769 L6.43205974,14.9115535 L6.58042638,15.0671879 L6.71004745,14.8956272 C6.78791269,14.7925682 7.12061809,14.4178701 7.1853054,14.3500126 C7.33871061,14.1890893 7.50343152,14.0253399 7.66819184,13.8675822 C7.76701488,13.7729593 7.76784087,13.7829773 7.76784087,13.7829773 C7.76784087,13.7829773 7.82130452,13.8301414 7.85207684,13.8562205 C8.02717477,14.0046137 8.22977783,14.152681 8.45787329,14.290849 C9.00892289,14.6246454 9.61877672,14.8479472 10.276132,14.9086413 C10.513642,14.9230186 10.5505916,14.752353 10.5151194,14.533687 C10.4981015,14.4287811 10.459601,14.2935518 10.4038548,14.1320934 C10.388276,14.0869725 10.5736071,14.1939059 11.1856139,14.3228987 L11.1856139,14.3228987 Z" id="Shape" fill="#C09300"></path>
                        <circle id="eye" fill="#FFFFFF" cx="6.2472" cy="2.0016" r="0.3528"></circle>
                    </g>
                </g>
            </g>
        </g>
    </g>
</svg>