<?xml version="1.0" encoding="UTF-8" standalone="no"?>
<svg width="180px" height="180px" viewBox="0 0 180 180" version="1.1" xmlns="http://www.w3.org/2000/svg" xmlns:xlink="http://www.w3.org/1999/xlink">
    <!-- Generator: Sketch 3.8.3 (29802) - http://www.bohemiancoding.com/sketch -->
    <title>el_salvador</title>
    <desc>Created with Sketch.</desc>
    <defs></defs>
    <g id="Page-1" stroke="none" stroke-width="1" fill="none" fill-rule="evenodd">
        <g id="flags" transform="translate(-990.000000, -1800.000000)">
            <g id="el_salvador" transform="translate(990.000000, 1800.000000)">
                <circle id="white" fill="#FFFFFF" cx="90" cy="90" r="90"></circle>
                <path d="M174.873467,120 L5.12100983,120 C17.475726,154.955772 50.8118738,180 89.9972382,180 C129.182603,180 162.51875,154.955772 174.873463,120 L174.873467,120 L174.873467,120 Z" id="blue" fill="#227FBB"></path>
                <path d="M5.12100983,60 L174.873467,60 C162.51875,25.0442275 129.182603,0 89.9972382,0 C50.8118738,0 17.475726,25.0442275 5.12101363,59.9999996 L5.12100983,60 L5.12100983,60 Z" id="blue" fill="#227FBB"></path>
                <g id="emblem" transform="translate(61.000000, 61.000000)">
                    <g id="leaves" transform="translate(39.000000, 33.500000) scale(-1, 1) translate(-39.000000, -33.500000) translate(25.000000, 15.000000)" fill="#1F601A">
                        <path d="M26.8803107,37 C26.6898754,37 26.2685083,36.166354 26.0783988,36.0190341 C25.8879604,35.8845226 22.680297,34.3389181 20.6009644,34.0164313 C18.5213813,33.6939135 15.327767,32.4708423 14.661491,32.1483245 C11.2091975,30.5085698 7.34936982,27.4713204 6.49295294,26.2211456 C5.59581397,24.9176928 4.6446086,21.8799169 4.22326026,20.2540082 C4.03282184,19.5010536 3,16.4235669 3,14.3268293 C3,11.8944402 3.28533029,9.8917445 3.66586882,8.30579436 C4.03280618,6.71984422 6.79188441,2.07009859 8.47702715,0 C8.47702715,0 4.68517406,5.80575459 4.03268088,8.02360675 C3.38040697,10.3083662 3.18995289,13.0902838 3.23076895,14.6762339 C3.27157875,15.9800274 4.37242841,20.7511664 5.97625227,24.2588421 C7.25392351,27.0678633 8.36836182,27.4037936 10.3664068,28.9761145 C11.3043305,29.7155947 13.0982639,30.8845515 14.6068294,31.6375061 C16.1154262,32.3766766 19.3230739,33.3172813 20.1791776,33.4518083 C21.0219056,33.5997725 25.3167391,34.8494268 25.8874749,35.1319242 C26.459119,35.4140746 28,36.9999994 28,36.9999994 L26.8803107,37 L26.8803107,37 L26.8803107,37 Z" id="Shape"></path>
                        <path d="M6.62139563,26 C6.73779671,25.613494 6.78728737,25.323712 6.97020445,25.202828 C7.13610002,25.0698722 7.71811692,24.5625017 7.83410826,24.23673 C7.95050934,23.8985999 7.83410826,23.645058 7.83410826,23.475826 C7.83410826,23.3066078 8,22.727002 8,22.727002 C8,22.727002 7.71770718,22.014446 7.48491267,21.8814819 C7.25250493,21.7606118 6.67090543,21.1686475 6.55449286,21 C6.55449286,21 6.62061061,21.3381579 6.43809178,21.5073622 C6.27180179,21.6762908 6.20568021,22.0990342 6.20568021,22.3407743 C6.20568021,22.5943135 6.32168687,23.1862944 6.20568021,23.4757981 C6.08927913,23.8018482 5.92338739,24.0677763 6.03939405,24.4418961 C6.13956247,24.7440644 6.6214186,25.9999443 6.6214186,25.9999443 L6.6214186,25.9999443 L6.62139563,26 L6.62139563,26 L6.62139563,26 Z" id="Shape"></path>
                        <path d="M5.19440868,23.2086527 C5.19440868,22.6949172 5.07901181,22.3817793 4.9632226,22.256709 C4.84742957,22.1316357 4.10385992,21.4674549 4.78165937,20.6534292 C5.07901181,20.302672 5.12863467,20.3277612 5.29403913,19.9516262 C5.52522522,19.4755099 5.98838589,19.4755099 6.05417133,19 C6.05417133,19 6.21958341,19.5635673 6.26921008,20.0393949 C6.33498027,20.5155111 6.21958341,20.6910196 6.16996054,20.9537193 C6.10379419,21.2170023 6.33498027,21.5176043 6.33498027,21.9056631 C6.33498027,22.3065697 6.26921008,22.4570179 6.26921008,22.6949172 C6.26844823,22.8205881 6.05338282,24.4740231 6.5,24.9999711 C6.5,24.9999711 5.19440868,23.7349184 5.19440868,23.2086527 L5.19440868,23.2086527 L5.19440868,23.2086527 Z" id="Shape"></path>
                        <path d="M17.6457965,32.7878765 C17.3825801,32.7598626 16.7825819,32.6202251 16.4461642,32.4942368 C16.1536626,32.396243 15.5829496,32.1022681 15.085792,31.5989854 C14.1493727,30.6477384 14.2372116,30.144101 14.0761681,30.1021286 C13.7397403,30.0464683 14.6025941,29.962475 15.0125873,30.0184706 C15.4075754,30.0604656 15.9636407,30.3401079 16.3293605,30.6757491 C16.7097144,31.0117222 17.2950818,31.3893455 17.4997244,31.5293504 C17.7043703,31.6830045 17.8508099,31.7389968 18.0700867,32.0189647 C18.2897242,32.2986071 19.0888891,32.7660576 18.9918717,32.9418754 C18.8948544,33.1176933 18.0115162,32.843872 17.6457965,32.7878765 L17.6457965,32.7878765 L17.6457965,32.7878765 Z" id="Shape"></path>
                        <path d="M17.4060529,32.7650985 C17.1538092,32.5845753 16.7612337,32.2099573 16.5086701,31.9464571 C16.2704602,31.6826147 15.2748374,31.1830419 15.1068063,30.8643154 C14.9948847,30.6421309 14.37781,29.7960522 14.0133119,29.1298187 C13.8308948,28.7829834 15.5835621,29.2409109 15.5835621,29.2409109 C17.0138296,29.8099307 16.3686873,29.4075461 17.1538124,29.9904476 C17.6305682,30.3511615 17.9529616,30.6563293 18.0792757,30.9201812 C18.26136,31.3364412 18.4718545,32.0575493 18.6823134,32.4324935 C18.8784282,32.8067661 20,34 20,34 C20,34 17.6446246,32.9594939 17.4060529,32.7650985 L17.4060529,32.7650985 L17.4060529,32.7650985 Z" id="Shape"></path>
                        <path d="M18.4304204,32.3436898 C17.8578098,31.5427086 17.8578098,31.7872895 17.6162292,31.5155503 C17.3237143,31.1761971 16.8656873,30.8096857 16.4843476,30.1174001 C16.5222382,30.1853333 15.9753864,28.271201 16.0008638,28.0402306 C16.0135878,27.9046833 16.6750028,28.1353377 17.2091189,28.3795838 C17.6671253,28.5833866 17.9341833,28.9770657 18.3285696,29.2352257 C18.7993293,29.5609998 18.8629788,30.3752159 19.0791114,30.7556507 C19.3843708,31.3120823 19.4225429,31.5974006 19.4225429,31.8684827 C19.4098189,32.289342 19.6386696,32.4252272 19.7659744,32.7781595 C19.9190527,33.1987059 21,34 21,34 C21,34 19.2318877,33.5112137 18.4304204,32.3436898 L18.4304204,32.3436898 L18.4304204,32.3436898 Z" id="Shape"></path>
                        <path d="M16.3285671,32.3167936 C16.1058549,32.2891195 16.0191249,32.187653 15.7220935,32.1230837 C15.4746026,32.0769631 15.2515965,31.9388181 14.6451229,32.0310613 C14.385244,32.0769631 13.3206499,32.2522328 13.0604799,32.159981 C12.800601,32.0585145 13.4442442,32.7039881 13.7413041,32.8326932 C14.0507463,32.9618317 14.5584186,33.026401 14.9917404,32.9895058 C15.4247768,32.9618317 16.0191535,32.9895058 16.2418914,32.9895058 C16.4522156,32.9895058 16.5760981,33.026401 16.8855402,32.9618317 C17.1828855,32.8974813 18,32.832912 18,32.832912 C18,32.832912 16.5391795,32.3536909 16.3285671,32.3167936 L16.3285671,32.3167936 L16.3285671,32.3167936 Z" id="Shape"></path>
                        <path d="M17.4427131,33 C17.1439002,33 16.2879291,33.0563707 15.9347306,33.1268324 C15.5951214,33.1832031 14.5219364,33.0704617 14.2091928,33.2395737 C13.883173,33.3942572 12.4567894,33.6056424 12.0763808,33.5069953 C11.6959722,33.4224425 12.8371667,34.5629475 13.2855535,34.6897734 C14.7391472,35.1122127 14.3043811,35.0558421 15.2419228,34.8025148 C15.8126767,34.647497 16.6278514,34.6052207 16.9130718,34.562941 C17.1982859,34.5065704 17.1438971,34.3374616 17.5246251,34.1687033 C17.9046892,33.9999255 18.5431082,33.5774765 19.5350387,33.4647352 C18.4888759,33.2323627 17.7415228,33 17.4427131,33 L17.4427131,33 L17.4427131,33 Z" id="Shape"></path>
                        <path d="M16.9940249,33.0906818 C16.0860446,33.3192219 16.1113383,33.2849418 15.7535115,33.3420762 C15.3313596,33.3992105 14.973238,33.2049505 14.2825539,33.4560738 C13.9372265,33.581771 12.4662689,34.1185714 12.0569113,34.0957303 C11.6859659,34.0728892 13.2337481,34.9747974 13.6559,34.9176683 C15.0116503,34.7462625 16.2908708,35.1573657 16.9175541,34.9290888 C17.4802071,34.7348288 17.8130645,34.5979716 18.094391,34.5179751 C18.3757175,34.4265606 18.5293372,34.1983048 18.7082506,34.0840202 C18.8871669,33.9585941 20,33.3992079 20,33.3992079 C20,33.3992079 18.3118051,32.7710115 16.9940249,33.0906818 L16.9940249,33.0906818 L16.9940249,33.0906818 Z" id="Shape"></path>
                        <path d="M9.9074881,28.8212034 C9.739562,28.6845744 9.3072914,28.3619213 9.0790219,28.1507722 C8.88706517,27.9771763 8.69480964,27.592437 8.10664895,27.4433856 C7.85461724,27.3812822 7.24240662,27.2570727 7.06247488,27.0337872 C6.89426375,26.7977905 7.09823435,27.8653977 7.29047881,28.1504862 C7.4827205,28.4361667 7.89095222,28.7339636 8.28686845,28.883015 C8.68308903,29.0317719 9.1871635,29.3298834 9.3673719,29.4289364 C9.5593287,29.5158817 9.6554619,29.6152493 9.9555326,29.6649331 C10.255631,29.7270365 10.3877783,29.6401055 10.9999834,29.9999914 C10.9999834,29.9999914 10.0876966,28.9578411 9.9074881,28.8212034 L9.9074881,28.8212034 L9.9074881,28.8212034 Z" id="Shape"></path>
                        <path d="M10.026913,29.533506 C9.7621724,29.4027042 9.2721464,29.2141204 8.95438201,29.097857 C8.6233724,28.9961253 7.76258262,28.3134078 7.41832774,28.3134078 C7.07407287,28.3134078 6.42529892,28.2843244 6.13405563,28.037624 C5.82955792,27.7760238 6.09429847,28.9525303 6.42530197,29.2864374 C7.52435397,30.3605161 6.76955685,30.0414686 7.68305303,30.2449521 C8.23935426,30.3754025 8.98087559,30.7096845 9.2456283,30.7965332 C9.5236233,30.8837332 9.5501291,30.6951495 9.9473834,30.7242162 C10.344955,30.7387412 11.0865069,30.6515478 11.9999725,31 C11.9999725,31 10.2916657,29.6788562 10.026913,29.533506 L10.026913,29.533506 L10.026913,29.533506 Z" id="Shape"></path>
                        <path d="M10.9073254,29.4450518 C9.9537876,29.2845822 9.9932602,29.2475491 9.6359621,29.1614387 C9.2120522,29.0379995 9.119278,29.0379995 8.33776476,29.0009692 C7.95363268,28.9762955 6.44363307,29.4327008 6.0860297,29.2354994 C5.75492451,29.0626873 6.45691269,29.6669467 6.88079204,29.8150737 C7.48997552,30.0249189 7.41075572,30.3949324 8.07293556,30.5921508 C8.77489321,30.801996 9.5166592,31.0609213 9.9272895,30.9871562 C10.2451455,30.925438 10.4837513,30.7896535 10.9338541,30.7526232 C11.3707078,30.7029547 13.0066319,30.4268798 12.9999798,30.0989995 C12.9933277,29.7711192 12.2980221,29.6669439 10.9073254,29.4450518 L10.9073254,29.4450518 L10.9073254,29.4450518 Z" id="Shape"></path>
                        <path d="M12.6907839,28.8144823 C12.5174364,28.6262873 12.2963296,28.3577549 12.2489413,27.9275878 C12.2015639,27.5111962 11.870271,26.8131344 11.6491861,26.5846159 C11.4284612,26.3429688 10.9862585,25.2685139 11.0968192,25 C11.0968192,25 9.9450607,25.9669163 10.0078693,26.5846159 C10.0552468,27.189221 10.0552468,27.0416529 10.0078693,27.3236327 C9.944697,27.6056095 10.2759717,28.5321929 10.4970639,28.8144823 C10.7177888,29.0964591 10.6076137,29.9423707 10.8283386,30.1171493 C11.0498163,30.3053443 12.0678894,31.301114 12.6276043,30.9096275 C13.1873192,30.518141 13.0378499,29.2174389 12.6907839,28.8144823 L12.6907839,28.8144823 L12.6907839,28.8144823 Z" id="Shape"></path>
                        <path d="M11.9890361,30.996863 C12.0949019,31.0460674 11.4073972,30.5021682 11.0765645,30.3660702 C10.7592626,30.2423253 9.4765852,29.8961387 9.3839423,29.5994358 C9.2916225,29.2900806 8.23358581,28.2641874 8.19418211,28.0043302 C8.15447976,27.8066347 7.95597712,27.3985856 8.00891157,27.1881979 C8.04861392,26.9781293 8.14124767,26.4586941 8.28650197,26.1620197 C8.41852114,25.8529495 8.73612474,25.1361265 9.0666526,25 C9.0666526,25 9.3310079,25.8161323 9.4236325,26.1128067 C9.5162663,26.4218769 9.6085861,26.7680493 9.7541604,26.9289391 C9.8861796,27.102182 10.3490253,27.9177016 10.3887337,28.2270853 C10.4416682,28.5237882 10.6663241,29.5128357 10.7192616,29.72291 C10.7592748,29.933275 11.6188119,30.811267 11.9890483,30.9968915 C11.9890483,30.9968915 11.6188119,30.811267 11.9890483,30.9968915 L11.9890361,30.996863 L11.9890361,30.996863 L11.9890361,30.996863 Z" id="Shape"></path>
                        <path d="M6.99834121,25.935489 C7.04051793,26.1657715 6.26792987,25.7055129 5.87458912,25.7055129 C5.48124837,25.7055129 4.31534223,25.8459362 4.0204257,25.5775812 C3.72551565,25.3089198 3.29001437,24.8233777 3.13535236,24.7338161 C2.99475789,24.6442603 2.46082267,23.8388771 2.3065168,23.4045325 C2.16592557,22.9570777 1.14061066,22.1517004 1,22.0624333 C1,22.0624333 2.40494102,21.8065668 3.28965823,22.3307913 C4.16068022,22.8678077 4.21691801,22.7398877 4.41341031,22.8166338 C4.60990586,22.9061866 6.11323549,24.0691713 6.21165971,24.50384 C6.31007422,24.9512948 6.94239481,25.7054982 6.99830883,25.9354713 C6.99830883,25.9354713 6.94239481,25.7054982 6.99830883,25.9354713 L6.99834121,25.935489 L6.99834121,25.935489 L6.99834121,25.935489 Z" id="Shape"></path>
                        <path d="M5.4917543,25.2628396 C5.20649635,25.3120232 3.87474555,24.415023 3.7934786,23.8622801 C3.73908142,23.5674612 3.10056433,23.1496973 2.99176996,22.9655629 C2.65210856,22.4494317 2.46173407,21.3070794 2,21 C2,21 3.27703418,21.2948189 3.60341728,21.3439742 C4.21506461,21.4300442 4.73116454,21.5158226 4.96237606,21.9827673 C5.2068377,22.4497149 5.39724037,22.8428728 5.58730169,22.8794844 C5.77736614,22.9286681 6.04934892,23.5185607 6.14455183,24.1202041 C6.23910021,24.710125 7,26 7,26 C7,26 5.77701852,25.2259447 5.4917543,25.2628396 L5.4917543,25.2628396 L5.4917543,25.2628396 Z" id="Shape"></path>
                        <path d="M3.84953397,19.9666162 C4.05715994,20.2995944 4.04329459,18.0376005 4.12647715,17.8018422 C4.22319304,17.5657577 4.47274392,17.0800483 4.66650134,16.8859283 C4.8605908,16.6915044 4.8605908,16.025564 4.95730669,15.831476 C5.04048925,15.6370522 4.99889637,14.3329782 4.8605908,14 C4.8605908,14 4.47272476,14.2913048 4.27864808,14.5270662 C4.08488746,14.7631507 3.75216041,14.8603642 3.65545729,15.1516722 C3.55840937,15.4433063 3.36464875,15.4433063 3.22602392,15.7346079 C3.07385298,16.026242 2.93521538,16.4977522 3.0322633,16.8862481 C3.12930802,17.2747759 3.07385298,17.4136341 3.07385298,17.7604917 C3.07385298,18.0931181 3.55874139,19.5364181 3.84955312,19.9665842 C3.84955312,19.9665842 3.55874139,19.5364181 3.84955312,19.9665842 L3.84953397,19.9666162 L3.84953397,19.9666162 L3.84953397,19.9666162 Z" id="Shape"></path>
                        <path d="M4.60048647,19.0277619 C4.8558647,18.7966437 5.11159629,18.7966437 5.21690833,18.6685404 C5.32185316,18.527303 5.27672488,18.3603828 5.38202652,18.1809347 C5.48732817,18.0011761 5.71261973,17.7061616 5.74272027,17.5520828 C5.84802192,17.0644771 6.16355273,16.5258075 5.8931502,16 C5.8931502,16 5.32186702,16.1666127 5.17179736,16.2564905 C5.00632235,16.3463683 4.54034082,16.705569 4.49520214,17.0647905 C4.43538906,17.4625095 4.3902573,17.5138691 4.22478229,17.73214 C4.07470917,17.9501122 3.86408855,18.6174647 4.11983746,19.02775 C4.3902573,19.4257943 4.43538906,19.8232176 4.43538906,19.8232176 C4.5179291,19.4254956 4.33006662,19.2457371 4.60048647,19.0277619 L4.60048647,19.0277619 L4.60048647,19.0277619 Z" id="Shape"></path>
                        <path d="M3.34926016,11.4409069 C3.79837653,11.0747804 3.91076653,10.3782391 4.90538108,10 C4.90538108,10 4.85721605,10.2952203 4.90538108,10.496153 C4.96959496,10.6968081 5.08159308,11.2757131 4.90538108,11.4763464 C4.74483714,11.6888229 4.18331229,12.0549467 4.18331229,12.2204399 C4.18331229,12.3859167 3.79837653,12.7990401 3.52586774,12.8817867 C3.23688864,12.9527065 3.01249683,12.9999864 3.01249683,12.9999864 C3.01249683,12.9999864 2.90012161,11.8073057 3.34926016,11.4409069 L3.34926016,11.4409069 L3.34926016,11.4409069 Z" id="Shape"></path>
                        <path d="M3.2331817,11.9393857 C3.46635573,11.699922 3.58864614,11.5743329 3.69979598,11.42593 C3.81069238,11.2663778 3.93297,10.867099 4.19948386,10.7072602 C4.46601819,10.547708 4.97709752,10 4.97709752,10 C4.97709752,10 5.08799392,10.9809578 4.82173606,11.5058231 C4.54409186,12.0189896 4.54409186,12.2929764 4.24422794,12.4068615 C3.93322855,12.5324375 3.8887635,12.6123516 3.77786965,12.6919949 C3.65559203,12.7719064 3.46689586,12.8860649 3.31125537,12.8860649 C3.15536402,12.8860649 3,12.9999553 3,12.9999553 C3,12.9999553 3.00000512,12.1788547 3.2331817,11.9393857 L3.2331817,11.9393857 L3.2331817,11.9393857 Z" id="Shape"></path>
                        <path d="M3.95424415,19.9546937 C4.00321198,20.1916904 4.1743062,19.4217307 3.28152144,19.4217307 C2.38873667,19.4217307 1.66676704,19.0902082 1.36128897,18.7942693 C1.06776389,18.5101461 0.89639058,18.3087057 0.7739569,18.1783779 C0.63958715,18.0601634 0.30905851,17.5627595 0.26037259,17.3141926 C0.22364813,17.0771986 -0.033152481,16.1656112 0.00358608,16 C0.00358608,16 0.48071938,16.0826664 0.6885437,16.2485641 C0.89636239,16.4144591 1.28780057,16.4144591 1.495935,16.5445304 C1.70375368,16.663026 1.87513263,16.9945376 2.00980121,17.1130496 C2.13192761,17.2433965 2.51112242,17.2433965 2.68252393,17.4801012 C2.85361815,17.7286626 3.1471404,18.261631 3.19610824,18.5101706 C3.2328327,18.758732 3.53857295,19.0073044 3.74670738,19.1257891 C3.95423569,19.256417 3.91751123,19.7419806 3.95423569,19.954691 C3.95423569,19.954691 3.91751123,19.7419806 3.95423569,19.954691 L3.95424415,19.9546937 L3.95424415,19.9546937 L3.95424415,19.9546937 Z" id="Shape"></path>
                        <path d="M3.07309801,19.1709139 C2.7683599,19.1709139 1.98099296,18.2852146 1.9301545,17.906152 C1.89202711,17.512677 1.62541639,16.7820163 1.4474964,16.6276578 C1.26986616,16.4870153 0.96513097,16.1498135 1.00326714,15.5597791 C1.05380122,14.9694209 1.05380122,14 1.05380122,14 C1.05380122,14 1.23173584,14.5903583 1.48562085,14.7306606 C1.75221694,14.8713031 2.2348809,15.0682026 2.32385553,15.2650858 C2.41251992,15.4616484 2.76837746,15.4616484 2.90789788,16.0520034 C3.03468965,16.6283055 3.03468965,16.5861047 3.12365843,16.7826641 C3.21262428,16.9795635 3.42839654,17.2186638 3.5173419,17.6121064 C3.60630775,18.0045774 4,20 4,20 C4,20 3.39053842,19.1709139 3.07309801,19.1709139 L3.07309801,19.1709139 L3.07309801,19.1709139 Z" id="Shape"></path>
                        <path d="M3.88782351,13.9512208 C3.86106379,14.1904806 4.26673243,13.4850005 3.37349419,13.2328286 C2.46672015,12.9809587 1.8443851,12.4516911 1.64153518,12.0866589 C1.43838274,11.7339087 1.3303583,11.4820562 1.23555466,11.3307531 C1.1546143,11.1671419 0.96500702,10.60005 1.00563626,10.3481975 C1.03273905,10.0963276 1.0733527,9.15130311 1.16815946,9 C1.16815946,9 1.61477858,9.21434462 1.7634229,9.42838727 C1.92594611,9.65503997 2.31839083,9.76850714 2.49413794,9.94504195 C2.65665803,10.1212603 2.72405323,10.4866089 2.81887246,10.6505134 C2.9136761,10.8015174 3.29256319,10.9149933 3.38737618,11.1923707 C3.48217983,11.4820649 3.60407067,12.0866589 3.56344143,12.3385404 C3.53633863,12.5904103 3.75272747,12.9056295 3.92878335,13.0947366 C4.10452735,13.2709549 3.90136867,13.736882 3.88782975,13.9512208 C3.88782975,13.9512208 3.90136867,13.736882 3.88782975,13.9512208 L3.88782351,13.9512208 L3.88782351,13.9512208 L3.88782351,13.9512208 Z" id="Shape"></path>
                        <path d="M3.19007163,12.9932073 C2.91775202,12.8965719 2.47194069,12.1103363 2.44717165,11.7517326 C2.41029203,11.3379077 2.36072542,10.6482949 2.23681173,10.469152 C2.11318911,10.2896848 1.89013078,9.6967234 2.06362249,9.18625352 C2.24920196,8.67578365 2.53420572,8 2.53420572,8 C2.53420572,8 2.78174202,8.42762224 2.91804023,8.6899307 C3.14079322,9.18660323 3.36382587,9.22767734 3.40100797,9.42093551 C3.42580554,9.62768582 3.6981223,9.75194456 3.79725554,10.1519403 C3.9335623,10.6900049 3.78487102,10.6624102 3.80964006,10.8691478 C3.84681644,11.0620944 3.98282929,11.3519912 3.95804598,11.7244241 C3.94534757,12.0961893 4.13123237,13.1582032 3.80905222,13.9999682 C3.80905222,13.9999682 3.46238839,13.0753873 3.19007163,12.9932073 L3.19007163,12.9932073 L3.19007163,12.9932073 Z" id="Shape"></path>
                        <path d="M3.50035373,8 C3.54224845,7.8801842 3.83517703,7.7480718 4.18392449,7.66398695 C4.51874779,7.58020079 5.04905618,6.9199126 5.28608869,6.75205819 C5.50918417,6.57190442 5.63486832,6.30795896 5.92779046,6.16413906 C6.22070618,6.02001494 6.40224137,5.50386746 6.5,5 C6.5,5 5.67676946,5.16785718 5.43970479,5.20388959 C5.20264656,5.2519282 4.71423288,5.5038647 4.51871563,5.70775706 C4.3235489,5.91193152 4.12806702,6.24793904 3.93254976,6.33171413 C3.73738303,6.41578516 3.5,6.91993749 3.5,7.25564631 C3.50032157,7.57993252 3.50032157,7.99999723 3.50032157,7.99999723 L3.50032157,7.99999723 L3.50035373,8 L3.50035373,8 L3.50035373,8 Z" id="Shape"></path>
                        <path d="M3.53762549,8.13870688 C3.53762549,7.83224803 3.36322788,7.01478665 3.76536309,6.35768056 C4.04676197,5.90513159 5.07909128,5.04383847 5.34708875,5 C5.34708875,5 5.53458502,5.80285303 5.49433752,6.05087854 C5.44099753,6.31350901 5.19952177,7.32088215 4.98487975,7.42282427 C4.77055592,7.52544263 4.2342706,8.73703645 3.59098402,9 C3.59098402,9 3.53762549,8.401334 3.53762549,8.13870688 L3.53762549,8.13870688 L3.53762549,8.13870688 Z" id="Shape"></path>
                        <path d="M3.44100046,7.9727257 C3.35845265,8.16116273 3.41363065,7.31904618 3.22050023,7.10515158 C3.02759641,6.87896861 3,6.57728218 3,6.22497326 C3,5.87295409 3.055178,5.62162359 3.09174309,5.39544352 C3.11933315,5.18154312 3.60629304,4.2639347 3.56971949,4 C3.56971949,4 3.84538713,4.85499891 3.91874602,5.09375419 C4.01990463,5.39544352 3.85459088,5.70967908 3.89137621,5.96132832 C3.91874602,6.22525722 4.07508264,6.70309231 3.95553136,6.96702701 C3.85459088,7.19320997 3.56971949,7.67103638 3.4409814,7.9727257 C3.4409814,7.9727257 3.56971949,7.67103638 3.4409814,7.9727257 L3.44100046,7.9727257 L3.44100046,7.9727257 L3.44100046,7.9727257 Z" id="Shape"></path>
                        <path d="M6.40860302,3.87499359 C6.40860302,3.87499359 7.29559089,3.83710386 7.45912356,3.66168169 C7.62238991,3.48655672 7.902752,3.26099867 8.06601566,3.17330779 C8.22928201,3.09842571 8.5096441,2.69774559 8.55637156,2.52233495 C8.59113873,2.3472071 8.88319479,2.0088859 9,2.0088859 C9,2.0088859 8.55637156,1.95876446 8.06628467,2.09659699 C7.58789982,2.22160051 6.89922793,2.484728 6.73566836,2.83528957 C6.57184516,3.17361654 6,4 6,4 L6.40860302,3.87499359 L6.40860302,3.87499359 L6.40860302,3.87499359 Z" id="Shape"></path>
                        <path d="M6.09984952,3.92090288 C6.18892802,4.20893083 6.83424264,3.63287493 6.9787109,3.42897039 C7.13460276,3.21274195 7.36844697,2.88868284 7.36844697,2.88868284 C7.36844697,2.88868284 7.73564353,2.40875613 7.83585332,2.21655308 C8.06942315,1.76036128 8.01374877,0.932350077 7.91353385,1.00441239 C7.79131279,1.08850261 7.36845723,1.34049111 7.25709307,1.38854187 C7.13460789,1.42457856 6.9121796,1.50838108 6.83422726,1.71258715 C6.75628004,1.92852789 6.67833539,2.21655308 6.55611176,2.34867193 C6.44502711,2.46851114 5.74404836,2.88865518 6.09983413,3.92090288 C6.09983413,3.92090288 5.74404836,2.88865518 6.09983413,3.92090288 L6.09984952,3.92090288 L6.09984952,3.92090288 L6.09984952,3.92090288 Z" id="Shape"></path>
                        <path d="M7.19444222,2.40006382 C7.53808187,2.16938092 7.35787751,1.84631954 7.53808187,1.68463461 C7.68512911,1.53451229 8.09468688,1.16524838 7.98000075,0.923013509 C7.86571451,0.6807813 7.65274537,0 7.65274537,0 C7.65274537,0 7.2435724,0.276885438 6.96545852,0.484735666 C6.67096792,0.680773322 6.62182265,0.842436975 6.50716669,1.08467184 C6.39288045,1.32690405 6.16352704,1.48856505 6.04883713,1.68460802 C5.93416232,1.88064568 6.04883713,2.2845442 6.11397433,2.52677907 C6.16312338,2.76901128 6.11397433,2.99997341 6.11397433,2.99997341 C6.11397433,2.99997341 6.89995539,2.60764812 7.19444222,2.40006382 L7.19444222,2.40006382 L7.19444222,2.40006382 Z" id="Shape"></path>
                    </g>
                    <g id="leaves" transform="translate(7.000000, 15.000000)" fill="#1F601A">
                        <path d="M26.8803107,37 C26.6898754,37 26.2685083,36.166354 26.0783988,36.0190341 C25.8879604,35.8845226 22.680297,34.3389181 20.6009644,34.0164313 C18.5213813,33.6939135 15.327767,32.4708423 14.661491,32.1483245 C11.2091975,30.5085698 7.34936982,27.4713204 6.49295294,26.2211456 C5.59581397,24.9176928 4.6446086,21.8799169 4.22326026,20.2540082 C4.03282184,19.5010536 3,16.4235669 3,14.3268293 C3,11.8944402 3.28533029,9.8917445 3.66586882,8.30579436 C4.03280618,6.71984422 6.79188441,2.07009859 8.47702715,0 C8.47702715,0 4.68517406,5.80575459 4.03268088,8.02360675 C3.38040697,10.3083662 3.18995289,13.0902838 3.23076895,14.6762339 C3.27157875,15.9800274 4.37242841,20.7511664 5.97625227,24.2588421 C7.25392351,27.0678633 8.36836182,27.4037936 10.3664068,28.9761145 C11.3043305,29.7155947 13.0982639,30.8845515 14.6068294,31.6375061 C16.1154262,32.3766766 19.3230739,33.3172813 20.1791776,33.4518083 C21.0219056,33.5997725 25.3167391,34.8494268 25.8874749,35.1319242 C26.459119,35.4140746 28,36.9999994 28,36.9999994 L26.8803107,37 L26.8803107,37 L26.8803107,37 Z" id="Shape"></path>
                        <path d="M6.62139563,26 C6.73779671,25.613494 6.78728737,25.323712 6.97020445,25.202828 C7.13610002,25.0698722 7.71811692,24.5625017 7.83410826,24.23673 C7.95050934,23.8985999 7.83410826,23.645058 7.83410826,23.475826 C7.83410826,23.3066078 8,22.727002 8,22.727002 C8,22.727002 7.71770718,22.014446 7.48491267,21.8814819 C7.25250493,21.7606118 6.67090543,21.1686475 6.55449286,21 C6.55449286,21 6.62061061,21.3381579 6.43809178,21.5073622 C6.27180179,21.6762908 6.20568021,22.0990342 6.20568021,22.3407743 C6.20568021,22.5943135 6.32168687,23.1862944 6.20568021,23.4757981 C6.08927913,23.8018482 5.92338739,24.0677763 6.03939405,24.4418961 C6.13956247,24.7440644 6.6214186,25.9999443 6.6214186,25.9999443 L6.6214186,25.9999443 L6.62139563,26 L6.62139563,26 L6.62139563,26 Z" id="Shape"></path>
                        <path d="M5.49441173,23.2086527 C5.49441173,22.6949172 5.37901486,22.3817793 5.26322565,22.256709 C5.14743262,22.1316357 4.40386297,21.4674549 5.08166242,20.6534292 C5.37901486,20.302672 5.42863772,20.3277612 5.59404218,19.9516262 C5.82522827,19.4755099 6.28838894,19.4755099 6.35417438,19 C6.35417438,19 6.51958646,19.5635673 6.56921313,20.0393949 C6.63498332,20.5155111 6.51958646,20.6910196 6.46996359,20.9537193 C6.40379724,21.2170023 6.63498332,21.5176043 6.63498332,21.9056631 C6.63498332,22.3065697 6.56921313,22.4570179 6.56921313,22.6949172 C6.56845128,22.8205881 6.35338587,24.4740231 6.80000305,24.9999711 C6.80000305,24.9999711 5.49441173,23.7349184 5.49441173,23.2086527 L5.49441173,23.2086527 L5.49441173,23.2086527 Z" id="Shape"></path>
                        <path d="M17.6457965,32.7878765 C17.3825801,32.7598626 16.7825819,32.6202251 16.4461642,32.4942368 C16.1536626,32.396243 15.5829496,32.1022681 15.085792,31.5989854 C14.1493727,30.6477384 14.2372116,30.144101 14.0761681,30.1021286 C13.7397403,30.0464683 14.6025941,29.962475 15.0125873,30.0184706 C15.4075754,30.0604656 15.9636407,30.3401079 16.3293605,30.6757491 C16.7097144,31.0117222 17.2950818,31.3893455 17.4997244,31.5293504 C17.7043703,31.6830045 17.8508099,31.7389968 18.0700867,32.0189647 C18.2897242,32.2986071 19.0888891,32.7660576 18.9918717,32.9418754 C18.8948544,33.1176933 18.0115162,32.843872 17.6457965,32.7878765 L17.6457965,32.7878765 L17.6457965,32.7878765 Z" id="Shape"></path>
                        <path d="M17.4060529,32.7650985 C17.1538092,32.5845753 16.7612337,32.2099573 16.5086701,31.9464571 C16.2704602,31.6826147 15.2748374,31.1830419 15.1068063,30.8643154 C14.9948847,30.6421309 14.37781,29.7960522 14.0133119,29.1298187 C13.8308948,28.7829834 15.5835621,29.2409109 15.5835621,29.2409109 C17.0138296,29.8099307 16.3686873,29.4075461 17.1538124,29.9904476 C17.6305682,30.3511615 17.9529616,30.6563293 18.0792757,30.9201812 C18.26136,31.3364412 18.4718545,32.0575493 18.6823134,32.4324935 C18.8784282,32.8067661 20,34 20,34 C20,34 17.6446246,32.9594939 17.4060529,32.7650985 L17.4060529,32.7650985 L17.4060529,32.7650985 Z" id="Shape"></path>
                        <path d="M18.4304204,32.3436898 C17.8578098,31.5427086 17.8578098,31.7872895 17.6162292,31.5155503 C17.3237143,31.1761971 16.8656873,30.8096857 16.4843476,30.1174001 C16.5222382,30.1853333 15.9753864,28.271201 16.0008638,28.0402306 C16.0135878,27.9046833 16.6750028,28.1353377 17.2091189,28.3795838 C17.6671253,28.5833866 17.9341833,28.9770657 18.3285696,29.2352257 C18.7993293,29.5609998 18.8629788,30.3752159 19.0791114,30.7556507 C19.3843708,31.3120823 19.4225429,31.5974006 19.4225429,31.8684827 C19.4098189,32.289342 19.6386696,32.4252272 19.7659744,32.7781595 C19.9190527,33.1987059 21,34 21,34 C21,34 19.2318877,33.5112137 18.4304204,32.3436898 L18.4304204,32.3436898 L18.4304204,32.3436898 Z" id="Shape"></path>
                        <path d="M16.3285671,32.3167936 C16.1058549,32.2891195 16.0191249,32.187653 15.7220935,32.1230837 C15.4746026,32.0769631 15.2515965,31.9388181 14.6451229,32.0310613 C14.385244,32.0769631 13.3206499,32.2522328 13.0604799,32.159981 C12.800601,32.0585145 13.4442442,32.7039881 13.7413041,32.8326932 C14.0507463,32.9618317 14.5584186,33.026401 14.9917404,32.9895058 C15.4247768,32.9618317 16.0191535,32.9895058 16.2418914,32.9895058 C16.4522156,32.9895058 16.5760981,33.026401 16.8855402,32.9618317 C17.1828855,32.8974813 18,32.832912 18,32.832912 C18,32.832912 16.5391795,32.3536909 16.3285671,32.3167936 L16.3285671,32.3167936 L16.3285671,32.3167936 Z" id="Shape"></path>
                        <path d="M17.4427131,33 C17.1439002,33 16.2879291,33.0563707 15.9347306,33.1268324 C15.5951214,33.1832031 14.5219364,33.0704617 14.2091928,33.2395737 C13.883173,33.3942572 12.4567894,33.6056424 12.0763808,33.5069953 C11.6959722,33.4224425 12.8371667,34.5629475 13.2855535,34.6897734 C14.7391472,35.1122127 14.3043811,35.0558421 15.2419228,34.8025148 C15.8126767,34.647497 16.6278514,34.6052207 16.9130718,34.562941 C17.1982859,34.5065704 17.1438971,34.3374616 17.5246251,34.1687033 C17.9046892,33.9999255 18.5431082,33.5774765 19.5350387,33.4647352 C18.4888759,33.2323627 17.7415228,33 17.4427131,33 L17.4427131,33 L17.4427131,33 Z" id="Shape"></path>
                        <path d="M16.9940249,33.0906818 C16.0860446,33.3192219 16.1113383,33.2849418 15.7535115,33.3420762 C15.3313596,33.3992105 14.973238,33.2049505 14.2825539,33.4560738 C13.9372265,33.581771 12.4662689,34.1185714 12.0569113,34.0957303 C11.6859659,34.0728892 13.2337481,34.9747974 13.6559,34.9176683 C15.0116503,34.7462625 16.2908708,35.1573657 16.9175541,34.9290888 C17.4802071,34.7348288 17.8130645,34.5979716 18.094391,34.5179751 C18.3757175,34.4265606 18.5293372,34.1983048 18.7082506,34.0840202 C18.8871669,33.9585941 20,33.3992079 20,33.3992079 C20,33.3992079 18.3118051,32.7710115 16.9940249,33.0906818 L16.9940249,33.0906818 L16.9940249,33.0906818 Z" id="Shape"></path>
                        <path d="M9.9074881,28.8212034 C9.739562,28.6845744 9.3072914,28.3619213 9.0790219,28.1507722 C8.88706517,27.9771763 8.69480964,27.592437 8.10664895,27.4433856 C7.85461724,27.3812822 7.24240662,27.2570727 7.06247488,27.0337872 C6.89426375,26.7977905 7.09823435,27.8653977 7.29047881,28.1504862 C7.4827205,28.4361667 7.89095222,28.7339636 8.28686845,28.883015 C8.68308903,29.0317719 9.1871635,29.3298834 9.3673719,29.4289364 C9.5593287,29.5158817 9.6554619,29.6152493 9.9555326,29.6649331 C10.255631,29.7270365 10.3877783,29.6401055 10.9999834,29.9999914 C10.9999834,29.9999914 10.0876966,28.9578411 9.9074881,28.8212034 L9.9074881,28.8212034 L9.9074881,28.8212034 Z" id="Shape"></path>
                        <path d="M10.026913,29.533506 C9.7621724,29.4027042 9.2721464,29.2141204 8.95438201,29.097857 C8.6233724,28.9961253 7.76258262,28.3134078 7.41832774,28.3134078 C7.07407287,28.3134078 6.42529892,28.2843244 6.13405563,28.037624 C5.82955792,27.7760238 6.09429847,28.9525303 6.42530197,29.2864374 C7.52435397,30.3605161 6.76955685,30.0414686 7.68305303,30.2449521 C8.23935426,30.3754025 8.98087559,30.7096845 9.2456283,30.7965332 C9.5236233,30.8837332 9.5501291,30.6951495 9.9473834,30.7242162 C10.344955,30.7387412 11.0865069,30.6515478 11.9999725,31 C11.9999725,31 10.2916657,29.6788562 10.026913,29.533506 L10.026913,29.533506 L10.026913,29.533506 Z" id="Shape"></path>
                        <path d="M10.9073254,29.4450518 C9.9537876,29.2845822 9.9932602,29.2475491 9.6359621,29.1614387 C9.2120522,29.0379995 9.119278,29.0379995 8.33776476,29.0009692 C7.95363268,28.9762955 6.44363307,29.4327008 6.0860297,29.2354994 C5.75492451,29.0626873 6.45691269,29.6669467 6.88079204,29.8150737 C7.48997552,30.0249189 7.41075572,30.3949324 8.07293556,30.5921508 C8.77489321,30.801996 9.5166592,31.0609213 9.9272895,30.9871562 C10.2451455,30.925438 10.4837513,30.7896535 10.9338541,30.7526232 C11.3707078,30.7029547 13.0066319,30.4268798 12.9999798,30.0989995 C12.9933277,29.7711192 12.2980221,29.6669439 10.9073254,29.4450518 L10.9073254,29.4450518 L10.9073254,29.4450518 Z" id="Shape"></path>
                        <path d="M12.6907839,27.8144823 C12.5174364,27.6262873 12.2963296,27.3577549 12.2489413,26.9275878 C12.2015639,26.5111962 11.870271,25.8131344 11.6491861,25.5846159 C11.4284612,25.3429688 10.9862585,24.2685139 11.0968192,24 C11.0968192,24 9.9450607,24.9669163 10.0078693,25.5846159 C10.0552468,26.189221 10.0552468,26.0416529 10.0078693,26.3236327 C9.944697,26.6056095 10.2759717,27.5321929 10.4970639,27.8144823 C10.7177888,28.0964591 10.6076137,28.9423707 10.8283386,29.1171493 C11.0498163,29.3053443 12.0678894,30.301114 12.6276043,29.9096275 C13.1873192,29.518141 13.0378499,28.2174389 12.6907839,27.8144823 L12.6907839,27.8144823 L12.6907839,27.8144823 Z" id="Shape"></path>
                        <path d="M12.9890361,30.996863 C13.0949019,31.0460674 12.4073972,30.5021682 12.0765645,30.3660702 C11.7592626,30.2423253 10.4765852,29.8961387 10.3839423,29.5994358 C10.2916225,29.2900806 9.2335858,28.2641874 9.1941821,28.0043302 C9.1544798,27.8066347 8.95597712,27.3985856 9.0089116,27.1881979 C9.0486139,26.9781293 9.1412477,26.4586941 9.286502,26.1620197 C9.4185211,25.8529495 9.7361247,25.1361265 10.0666526,25 C10.0666526,25 10.3310079,25.8161323 10.4236325,26.1128067 C10.5162663,26.4218769 10.6085861,26.7680493 10.7541604,26.9289391 C10.8861796,27.102182 11.3490253,27.9177016 11.3887337,28.2270853 C11.4416682,28.5237882 11.6663241,29.5128357 11.7192616,29.72291 C11.7592748,29.933275 12.6188119,30.811267 12.9890483,30.9968915 C12.9890483,30.9968915 12.6188119,30.811267 12.9890483,30.9968915 L12.9890361,30.996863 L12.9890361,30.996863 L12.9890361,30.996863 Z" id="Shape"></path>
                        <path d="M6.99834121,25.935489 C7.04051793,26.1657715 6.26792987,25.7055129 5.87458912,25.7055129 C5.48124837,25.7055129 4.31534223,25.8459362 4.0204257,25.5775812 C3.72551565,25.3089198 3.29001437,24.8233777 3.13535236,24.7338161 C2.99475789,24.6442603 2.46082267,23.8388771 2.3065168,23.4045325 C2.16592557,22.9570777 1.14061066,22.1517004 1,22.0624333 C1,22.0624333 2.40494102,21.8065668 3.28965823,22.3307913 C4.16068022,22.8678077 4.21691801,22.7398877 4.41341031,22.8166338 C4.60990586,22.9061866 6.11323549,24.0691713 6.21165971,24.50384 C6.31007422,24.9512948 6.94239481,25.7054982 6.99830883,25.9354713 C6.99830883,25.9354713 6.94239481,25.7054982 6.99830883,25.9354713 L6.99834121,25.935489 L6.99834121,25.935489 L6.99834121,25.935489 Z" id="Shape"></path>
                        <path d="M5.4917543,25.2628396 C5.20649635,25.3120232 3.87474555,24.415023 3.7934786,23.8622801 C3.73908142,23.5674612 3.10056433,23.1496973 2.99176996,22.9655629 C2.65210856,22.4494317 2.46173407,21.3070794 2,21 C2,21 3.27703418,21.2948189 3.60341728,21.3439742 C4.21506461,21.4300442 4.73116454,21.5158226 4.96237606,21.9827673 C5.2068377,22.4497149 5.39724037,22.8428728 5.58730169,22.8794844 C5.77736614,22.9286681 6.04934892,23.5185607 6.14455183,24.1202041 C6.23910021,24.710125 7,26 7,26 C7,26 5.77701852,25.2259447 5.4917543,25.2628396 L5.4917543,25.2628396 L5.4917543,25.2628396 Z" id="Shape"></path>
                        <path d="M4.34953397,19.9666162 C4.55715994,20.2995944 4.54329459,18.0376005 4.62647715,17.8018422 C4.72319304,17.5657577 4.97274392,17.0800483 5.16650134,16.8859283 C5.3605908,16.6915044 5.3605908,16.025564 5.45730669,15.831476 C5.54048925,15.6370522 5.49889637,14.3329782 5.3605908,14 C5.3605908,14 4.97272476,14.2913048 4.77864808,14.5270662 C4.58488746,14.7631507 4.25216041,14.8603642 4.15545729,15.1516722 C4.05840937,15.4433063 3.86464875,15.4433063 3.72602392,15.7346079 C3.57385298,16.026242 3.43521538,16.4977522 3.5322633,16.8862481 C3.62930802,17.2747759 3.57385298,17.4136341 3.57385298,17.7604917 C3.57385298,18.0931181 4.05874139,19.5364181 4.34955312,19.9665842 C4.34955312,19.9665842 4.05874139,19.5364181 4.34955312,19.9665842 L4.34953397,19.9666162 L4.34953397,19.9666162 L4.34953397,19.9666162 Z" id="Shape"></path>
                        <path d="M4.60048647,19.0277619 C4.8558647,18.7966437 5.11159629,18.7966437 5.21690833,18.6685404 C5.32185316,18.527303 5.27672488,18.3603828 5.38202652,18.1809347 C5.48732817,18.0011761 5.71261973,17.7061616 5.74272027,17.5520828 C5.84802192,17.0644771 6.16355273,16.5258075 5.8931502,16 C5.8931502,16 5.32186702,16.1666127 5.17179736,16.2564905 C5.00632235,16.3463683 4.54034082,16.705569 4.49520214,17.0647905 C4.43538906,17.4625095 4.3902573,17.5138691 4.22478229,17.73214 C4.07470917,17.9501122 3.86408855,18.6174647 4.11983746,19.02775 C4.3902573,19.4257943 4.43538906,19.8232176 4.43538906,19.8232176 C4.5179291,19.4254956 4.33006662,19.2457371 4.60048647,19.0277619 L4.60048647,19.0277619 L4.60048647,19.0277619 Z" id="Shape"></path>
                        <path d="M3.34926016,11.4409069 C3.79837653,11.0747804 3.91076653,10.3782391 4.90538108,10 C4.90538108,10 4.85721605,10.2952203 4.90538108,10.496153 C4.96959496,10.6968081 5.08159308,11.2757131 4.90538108,11.4763464 C4.74483714,11.6888229 4.18331229,12.0549467 4.18331229,12.2204399 C4.18331229,12.3859167 3.79837653,12.7990401 3.52586774,12.8817867 C3.23688864,12.9527065 3.01249683,12.9999864 3.01249683,12.9999864 C3.01249683,12.9999864 2.90012161,11.8073057 3.34926016,11.4409069 L3.34926016,11.4409069 L3.34926016,11.4409069 Z" id="Shape"></path>
                        <path d="M3.35419153,11.9393861 C3.58736556,11.6999224 3.70965597,11.5743333 3.82080581,11.4259304 C3.93170221,11.2663782 4.05397983,10.8670994 4.32049369,10.7072606 C4.58702802,10.5477084 5.09810735,10.0000004 5.09810735,10.0000004 C5.09810735,10.0000004 5.20900375,10.9809582 4.94274589,11.5058235 C4.66510169,12.01899 4.66510169,12.2929768 4.36523777,12.4068619 C4.05423838,12.5324379 4.00977333,12.612352 3.89887948,12.6919953 C3.77660186,12.7719068 3.58790569,12.8860653 3.4322652,12.8860653 C3.27637385,12.8860653 3.12100983,12.9999557 3.12100983,12.9999557 C3.12100983,12.9999557 3.12101495,12.1788551 3.35419153,11.9393861 L3.35419153,11.9393861 L3.35419153,11.9393861 Z" id="Shape"></path>
                        <path d="M3.95424415,19.9546937 C4.00321198,20.1916904 4.1743062,19.4217307 3.28152144,19.4217307 C2.38873667,19.4217307 1.66676704,19.0902082 1.36128897,18.7942693 C1.06776389,18.5101461 0.89639058,18.3087057 0.7739569,18.1783779 C0.63958715,18.0601634 0.30905851,17.5627595 0.26037259,17.3141926 C0.22364813,17.0771986 -0.033152481,16.1656112 0.00358608,16 C0.00358608,16 0.48071938,16.0826664 0.6885437,16.2485641 C0.89636239,16.4144591 1.28780057,16.4144591 1.495935,16.5445304 C1.70375368,16.663026 1.87513263,16.9945376 2.00980121,17.1130496 C2.13192761,17.2433965 2.51112242,17.2433965 2.68252393,17.4801012 C2.85361815,17.7286626 3.1471404,18.261631 3.19610824,18.5101706 C3.2328327,18.758732 3.53857295,19.0073044 3.74670738,19.1257891 C3.95423569,19.256417 3.91751123,19.7419806 3.95423569,19.954691 C3.95423569,19.954691 3.91751123,19.7419806 3.95423569,19.954691 L3.95424415,19.9546937 L3.95424415,19.9546937 L3.95424415,19.9546937 Z" id="Shape"></path>
                        <path d="M3.07309801,19.1709139 C2.7683599,19.1709139 1.98099296,18.2852146 1.9301545,17.906152 C1.89202711,17.512677 1.62541639,16.7820163 1.4474964,16.6276578 C1.26986616,16.4870153 0.96513097,16.1498135 1.00326714,15.5597791 C1.05380122,14.9694209 1.05380122,14 1.05380122,14 C1.05380122,14 1.23173584,14.5903583 1.48562085,14.7306606 C1.75221694,14.8713031 2.2348809,15.0682026 2.32385553,15.2650858 C2.41251992,15.4616484 2.76837746,15.4616484 2.90789788,16.0520034 C3.03468965,16.6283055 3.03468965,16.5861047 3.12365843,16.7826641 C3.21262428,16.9795635 3.42839654,17.2186638 3.5173419,17.6121064 C3.60630775,18.0045774 4,20 4,20 C4,20 3.39053842,19.1709139 3.07309801,19.1709139 L3.07309801,19.1709139 L3.07309801,19.1709139 Z" id="Shape"></path>
                        <path d="M2.88782351,13.9512208 C2.86106379,14.1904806 3.26673243,13.4850005 2.37349419,13.2328286 C1.46672015,12.9809587 0.8443851,12.4516911 0.64153518,12.0866589 C0.43838274,11.7339087 0.3303583,11.4820562 0.23555466,11.3307531 C0.1546143,11.1671419 -0.034992981,10.60005 0.00563626,10.3481975 C0.03273905,10.0963276 0.0733527,9.15130311 0.16815946,9 C0.16815946,9 0.61477858,9.21434462 0.7634229,9.42838727 C0.92594611,9.65503997 1.31839083,9.76850714 1.49413794,9.94504195 C1.65665803,10.1212603 1.72405323,10.4866089 1.81887246,10.6505134 C1.9136761,10.8015174 2.29256319,10.9149933 2.38737618,11.1923707 C2.48217983,11.4820649 2.60407067,12.0866589 2.56344143,12.3385404 C2.53633863,12.5904103 2.75272747,12.9056295 2.92878335,13.0947366 C3.10452735,13.2709549 2.90136867,13.736882 2.88782975,13.9512208 C2.88782975,13.9512208 2.90136867,13.736882 2.88782975,13.9512208 L2.88782351,13.9512208 L2.88782351,13.9512208 L2.88782351,13.9512208 Z" id="Shape"></path>
                        <path d="M2.79007011,12.9932073 C2.5177505,12.8965719 2.07193917,12.1103363 2.04717013,11.7517326 C2.01029051,11.3379077 1.9607239,10.6482949 1.83681021,10.469152 C1.71318759,10.2896848 1.49012926,9.6967234 1.66362097,9.18625352 C1.84920044,8.67578365 2.1342042,8 2.1342042,8 C2.1342042,8 2.3817405,8.42762224 2.51803871,8.6899307 C2.7407917,9.18660323 2.96382435,9.22767734 3.00100645,9.42093551 C3.02580402,9.62768582 3.29812078,9.75194456 3.39725402,10.1519403 C3.53356078,10.6900049 3.3848695,10.6624102 3.40963854,10.8691478 C3.44681492,11.0620944 3.58282777,11.3519912 3.55804446,11.7244241 C3.54534605,12.0961893 3.73123085,13.1582032 3.4090507,13.9999682 C3.4090507,13.9999682 3.06238687,13.0753873 2.79007011,12.9932073 L2.79007011,12.9932073 L2.79007011,12.9932073 Z" id="Shape"></path>
                        <path d="M4.00035373,8 C4.04224845,7.8801842 4.33517703,7.7480718 4.68392449,7.66398695 C5.01874779,7.58020079 5.54905618,6.9199126 5.78608869,6.75205819 C6.00918417,6.57190442 6.13486832,6.30795896 6.42779046,6.16413906 C6.72070618,6.02001494 6.90224137,5.50386746 7,5 C7,5 6.17676946,5.16785718 5.93970479,5.20388959 C5.70264656,5.2519282 5.21423288,5.5038647 5.01871563,5.70775706 C4.8235489,5.91193152 4.62806702,6.24793904 4.43254976,6.33171413 C4.23738303,6.41578516 4,6.91993749 4,7.25564631 C4.00032157,7.57993252 4.00032157,7.99999723 4.00032157,7.99999723 L4.00032157,7.99999723 L4.00035373,8 L4.00035373,8 L4.00035373,8 Z" id="Shape"></path>
                        <path d="M3.53762549,8.13870688 C3.53762549,7.83224803 3.36322788,7.01478665 3.76536309,6.35768056 C4.04676197,5.90513159 5.07909128,5.04383847 5.34708875,5 C5.34708875,5 5.53458502,5.80285303 5.49433752,6.05087854 C5.44099753,6.31350901 5.19952177,7.32088215 4.98487975,7.42282427 C4.77055592,7.52544263 4.2342706,8.73703645 3.59098402,9 C3.59098402,9 3.53762549,8.401334 3.53762549,8.13870688 L3.53762549,8.13870688 L3.53762549,8.13870688 Z" id="Shape"></path>
                        <path d="M3.44100046,7.9727257 C3.35845265,8.16116273 3.41363065,7.31904618 3.22050023,7.10515158 C3.02759641,6.87896861 3,6.57728218 3,6.22497326 C3,5.87295409 3.055178,5.62162359 3.09174309,5.39544352 C3.11933315,5.18154312 3.60629304,4.2639347 3.56971949,4 C3.56971949,4 3.84538713,4.85499891 3.91874602,5.09375419 C4.01990463,5.39544352 3.85459088,5.70967908 3.89137621,5.96132832 C3.91874602,6.22525722 4.07508264,6.70309231 3.95553136,6.96702701 C3.85459088,7.19320997 3.56971949,7.67103638 3.4409814,7.9727257 C3.4409814,7.9727257 3.56971949,7.67103638 3.4409814,7.9727257 L3.44100046,7.9727257 L3.44100046,7.9727257 L3.44100046,7.9727257 Z" id="Shape"></path>
                        <path d="M6.40860302,3.87499359 C6.40860302,3.87499359 7.29559089,3.83710386 7.45912356,3.66168169 C7.62238991,3.48655672 7.902752,3.26099867 8.06601566,3.17330779 C8.22928201,3.09842571 8.5096441,2.69774559 8.55637156,2.52233495 C8.59113873,2.3472071 8.88319479,2.0088859 9,2.0088859 C9,2.0088859 8.55637156,1.95876446 8.06628467,2.09659699 C7.58789982,2.22160051 6.89922793,2.484728 6.73566836,2.83528957 C6.57184516,3.17361654 6,4 6,4 L6.40860302,3.87499359 L6.40860302,3.87499359 L6.40860302,3.87499359 Z" id="Shape"></path>
                        <path d="M6.09984952,3.92090288 C6.18892802,4.20893083 6.83424264,3.63287493 6.9787109,3.42897039 C7.13460276,3.21274195 7.36844697,2.88868284 7.36844697,2.88868284 C7.36844697,2.88868284 7.73564353,2.40875613 7.83585332,2.21655308 C8.06942315,1.76036128 8.01374877,0.932350077 7.91353385,1.00441239 C7.79131279,1.08850261 7.36845723,1.34049111 7.25709307,1.38854187 C7.13460789,1.42457856 6.9121796,1.50838108 6.83422726,1.71258715 C6.75628004,1.92852789 6.67833539,2.21655308 6.55611176,2.34867193 C6.44502711,2.46851114 5.74404836,2.88865518 6.09983413,3.92090288 C6.09983413,3.92090288 5.74404836,2.88865518 6.09983413,3.92090288 L6.09984952,3.92090288 L6.09984952,3.92090288 L6.09984952,3.92090288 Z" id="Shape"></path>
                        <path d="M7.19444222,2.40006382 C7.53808187,2.16938092 7.35787751,1.84631954 7.53808187,1.68463461 C7.68512911,1.53451229 8.09468688,1.16524838 7.98000075,0.923013509 C7.86571451,0.6807813 7.65274537,0 7.65274537,0 C7.65274537,0 7.2435724,0.276885438 6.96545852,0.484735666 C6.67096792,0.680773322 6.62182265,0.842436975 6.50716669,1.08467184 C6.39288045,1.32690405 6.16352704,1.48856505 6.04883713,1.68460802 C5.93416232,1.88064568 6.04883713,2.2845442 6.11397433,2.52677907 C6.16312338,2.76901128 6.11397433,2.99997341 6.11397433,2.99997341 C6.11397433,2.99997341 6.89995539,2.60764812 7.19444222,2.40006382 L7.19444222,2.40006382 L7.19444222,2.40006382 Z" id="Shape"></path>
                    </g>
                    <path d="M37.2425501,19.3986741 C37.2278022,19.3326107 37.2181397,19.293335 37.2181397,19.293335 L35.9023438,20.7016602 L24.7935791,20.7016602 L23.0315533,19 C22.9942707,19.7990044 22.9849511,20.0451244 23.0315533,20.5490681 C23.0501946,20.7336652 23.5135498,21.7785645 23.5135498,21.7785645 L23.2456976,22 L36.4848633,22 C36.4848633,22 36.5453665,21.9360426 36.6350439,21.8326445 L36.6801428,21.9509319 C36.7296734,21.792698 36.8631617,21.5803909 36.997971,21.3770288 C37.0612201,21.2893048 37.1228186,21.1979228 37.1776702,21.1068708 C37.2713017,20.9632006 37.3418448,20.8433658 37.3483887,20.7785645 C37.3493726,20.7679249 37.3503315,20.7574291 37.3512658,20.7470683 C37.3562808,20.731726 37.3608258,20.7165815 37.3648682,20.7016602 C37.3960274,20.5866455 37.3956377,20.4153264 37.3797197,20.2314112 C37.3817622,20.0034937 37.3696019,19.7488094 37.3483887,19.2941895 L37.2425501,19.3986741 L37.2425501,19.3986741 Z M30.0022685,37.0296619 C29.9974131,37.0586252 30.000647,37.0916148 30.0091553,37.1262574 C30.0030503,37.1256683 29.9964057,37.1253662 29.9891977,37.1253662 L29.9763306,37.1512646 L29.9763306,37.1512646 C29.9497183,37.249744 29.904685,37.3224648 29.8528698,37.3997612 L29.828518,37.4487755 C29.8779045,37.3714392 30.019559,37.1598669 29.9977315,37.0296619 C29.9986324,37.0200122 29.9993905,37.0101299 30,37 L26,37 L26.0001325,37.0000179 C26.3626244,37.1685575 26.0001325,37.0000179 26.0001325,37.0000179 C26.3626244,37.1685575 26.487421,37.5062349 27.5376478,37.8436131 C27.6175426,37.8436131 27.6970295,37.8514082 27.7761069,37.8635177 C27.5535923,37.9204187 27.4671086,37.9637306 27.1742462,38.0225982 C26.3564837,38.1583315 27.3084292,38.0539231 26.4638146,38.1374594 C25.7265341,38.2105525 25.4048717,38.3564909 24.6810002,38.3147228 C23.7022335,38.2729546 23.125954,37.9495052 22.7371847,37.7304737 C22.5627746,37.6364773 21.4769518,37.4174651 20.8870749,37 L17,37 C17.5494305,37.2712405 17.9650488,37.3652128 18.4879702,37.6991175 C18.5547373,37.7513289 18.8901423,37.8763833 18.9703246,37.9183991 C19.5063461,38.2105356 20.712881,38.3251396 21.2626514,38.6277121 C21.5709047,38.7947847 22.4557773,38.9409853 22.8176976,38.9618573 C23.7025393,39.0033754 24.5736631,39.0451435 25.4719447,38.8887619 C25.820456,38.826112 25.874123,38.7843439 26.2092253,38.7425758 C26.3967355,38.7216917 26.7724016,38.6068305 26.9599149,38.5757532 C27.3352504,38.5026602 27.0669091,38.5235443 27.5630124,38.4086807 C28.0859338,38.2938267 28.313702,38.2000972 28.8634724,38.1270042 C28.9842247,38.1165633 29.0915588,38.033027 29.1985746,37.9703748 C29.2522386,37.9494907 29.4266549,37.8348916 29.4665854,37.8139955 C29.6141712,37.7095752 29.6007529,37.7409001 29.6812535,37.6051548 C29.7085829,37.5765677 29.9713217,37.3623621 30.046434,37.2300124 L30.046434,37.2300124 C30.0870603,37.3198005 30.1437831,37.4054008 30.171482,37.4487755 C30.1849144,37.462714 30.2013348,37.4801131 30.218737,37.4986631 C30.2465424,37.5325811 30.2760326,37.5638697 30.307012,37.5928162 C30.3111273,37.5971622 30.3150531,37.6012914 30.3187465,37.6051548 C30.3992471,37.7409001 30.3858288,37.7095752 30.5334146,37.8139955 C30.5733451,37.8348916 30.7477614,37.9494907 30.8014254,37.9703748 C30.9084412,38.033027 31.0157753,38.1165633 31.1365276,38.1270042 C31.686298,38.2000972 31.9140662,38.2938267 32.4369876,38.4086807 C32.9330909,38.5235443 32.6647496,38.5026602 33.0400851,38.5757532 C33.2275984,38.6068305 33.6032645,38.7216917 33.7907747,38.7425758 C34.125877,38.7843439 34.179544,38.826112 34.5280553,38.8887619 C35.4263369,39.0451435 36.2974607,39.0033754 37.1823024,38.9618573 C37.5442227,38.9409853 38.4290953,38.7947847 38.7373486,38.6277121 C39.287119,38.3251396 40.4936539,38.2105356 41.0296754,37.9183991 C41.1098577,37.8763833 41.4452627,37.7513289 41.5120298,37.6991175 C42.0349512,37.3652128 42.4505695,37.2712405 43,37 C43,37 43.6703613,35.6972104 44.2491521,34.3956403 L45.1393213,35.9999081 L45.1393413,36 C45.300255,35.893862 45.572268,35.5878216 45.6589217,35.321994 C45.8322149,34.7900323 45.7950792,34.803362 45.9185665,34.2184799 C45.9925386,33.8861264 45.9925386,33.5138758 46.0671008,33.1682233 C46.1286962,32.8225707 46.5863961,31.7190566 46.5987671,31.2669505 C46.6479858,29.8181209 47.0936056,28.8340531 46.9821814,27.2518041 C46.9079157,26.0285373 46.6482794,24.3668005 46.7720518,23.0901844 C46.8091846,22.7445319 46.7596808,22.3453461 46.7473098,22 L43.8284469,24.0476235 C43.9398482,26.1481674 43.8903387,26.7333253 43.8903387,28.7672514 C43.9027097,29.2592854 43.4945249,31.2533756 43,32.1444115 L43.4337901,32.9261904 L43.4337901,32.9261904 C41.6895452,34.4558576 39.1129251,37 39.1129251,37 C38.5230481,37.4174651 37.4372254,37.6364773 37.2628153,37.7304737 C36.874046,37.9495052 36.2977665,38.2729546 35.3189998,38.3147228 C34.5951283,38.3564909 34.2734659,38.2105525 33.5361854,38.1374594 C32.6915708,38.0539231 33.6435163,38.1583315 32.8257538,38.0225982 C32.5328914,37.9637306 32.4464077,37.9204187 32.2238931,37.8635177 C32.3029705,37.8514082 32.3824574,37.8436131 32.4623522,37.8436131 C33.512579,37.5062349 33.6373756,37.1685575 33.9998675,37.0000179 C33.9998675,37.0000179 33.6373756,37.1685575 33.9998675,37.0000179 L34,37 L30,37 C30.0006095,37.0101299 30.0013676,37.0200121 30.0022685,37.0296619 L30.0022685,37.0296619 Z M29.6284463,28.5919674 L39,26.026417 C39.4570724,24.9078414 39.941066,22.6182549 39.9141448,22.0921143 C39.8202953,19.9343284 39.846882,19.2896401 39.6454095,17.0790854 L42.4682358,14 C42.4820093,14.3816028 42.5624229,14.7763674 42.5355017,15.1711321 C42.4682451,16.5658338 42.7907887,18.2634097 42.9253175,19.5527559 C43.0998842,21.1974115 42.9118723,22.0659422 42.9253175,23.6186771 L42.9253175,24.5180664 L41.3173828,25.3566895 C41.3173828,25.3566895 41.5519386,26.6970341 41.3173828,27.2099609 C41.0841926,27.7199018 40.4580078,28.8811035 40.4580078,28.8811035 L30.6439606,29.1632729 C30.67106,29.1987779 30.6815569,29.2306747 30.6738281,29.2585449 C30.4534093,30.0533877 20.822998,30.270752 20.822998,30.270752 C20.822998,30.270752 19.4394702,27.8041498 19.0502787,27.1779785 C18.7609446,26.7124682 19.0502786,25.4930213 19.0502786,25.4930213 L18.1552511,24.9211245 C18.1150427,24.421065 18.0746825,23.8685704 18.0746825,23.6186771 C18.0881277,22.0659422 17.9001158,21.1974115 18.0746825,19.5527559 C18.2092113,18.2634097 18.5317549,16.5658338 18.4644983,15.1711321 C18.4375771,14.7763674 18.5179907,14.3816028 18.5317642,14 L21.3545905,17.0790854 C21.153118,19.2896401 21.1797047,19.9343284 21.0858552,22.0921143 C21.058934,22.6182549 21.5429276,24.9078414 22,26.026417 C22,26.026417 27.3201214,27.5974755 29.6284463,28.5919674 L29.6284463,28.5919674 L29.6284463,28.5919674 Z M30.3331014,8.7424309 C30.3737381,8.47144326 30.4000015,8.27645438 30.4000015,8.27645438 C30.3606638,7.85993922 30.2167688,7.33585038 30.0201196,7 L29.7582356,7.36272831 C29.6798863,7.55096678 29.7323265,7.61821427 29.5356773,7.92716503 C29.3521517,8.2361994 28.4484959,10.8694942 28.4091642,11.407053 C28.3832581,11.7159945 28.4091642,13.7044944 28.5271531,14 L28.527138,13.9999071 L29.4832281,12.387912 C29.3783477,12.3610031 29.3652391,11.9982748 29.5353573,11.6086376 C29.6009,11.447277 29.9548758,10.6680336 30.0856623,10.1039065 C30.1725025,9.76404077 30.2687321,9.17089581 30.3315586,8.75270992 C30.4556316,8.98869097 30.8756608,9.88480459 30.3000031,10.2286313 L31.008146,11 C30.9656772,10.8553108 30.9656772,10.9397221 31.2230384,10.6506324 C31.4549989,10.3903351 30.5227515,9.01594844 30.3331014,8.7424309 L30.3331014,8.7424309 L30.3331014,8.7424309 Z M30.5105058,39.8752333 C30.6520639,40.196627 30.8649157,40.7107531 30.6098327,41 L30.6098327,40.9892844 C30.7372026,40.9892844 30.8507177,40.9571203 30.9642426,40.9249538 C31.0068103,40.9142382 31.0490415,40.903498 31.0632329,40.8713463 C31.1058007,40.817993 31.1625598,40.7751059 31.219319,40.7429419 C31.3044578,40.7000548 31.4037847,40.7322263 31.4889234,40.6893318 C31.5173194,40.6679006 31.5314912,40.6464472 31.5456826,40.6464472 C31.7156203,40.5821167 31.8859109,40.5070655 31.9568517,40.3679406 C31.9994194,40.271446 32.0136108,40.1642284 31.9852476,40.0570157 C31.971066,39.9822189 31.9284884,39.9286113 31.9001088,39.8642807 C31.8433497,39.7677861 31.7865905,39.6712914 31.7298313,39.5750585 C31.6730754,39.4785639 31.5879367,39.3927898 31.5315141,39.296305 C31.5031508,39.2429517 31.4747549,39.2000647 31.4321871,39.1571776 C31.4037912,39.1142931 31.3612398,39.071406 31.3328602,39.0285189 C31.304497,38.9856319 31.2335333,38.9534678 31.1909623,38.9105808 C31.1342031,38.8676937 31.120015,38.8676937 31.077444,38.835784 C31.0632623,38.8250684 30.992645,38.8143281 31.0068332,38.7928969 C30.97847,38.7928969 30.9358859,38.7714657 30.9216977,38.7607329 C30.8081794,38.5784641 30.7088525,38.4822263 30.5956707,38.2999625 C30.5389148,38.2249114 30.5247233,38.085784 30.5247233,38 L30.0000359,38 C30.1844657,38.6110899 30.2408883,39.232446 30.5105058,39.8752333 L30.5105058,39.8752333 Z M29.9999638,38.0004741 C29.8287512,38.6110899 29.7715661,39.232446 29.4856609,39.8752333 C29.3569963,40.196627 29.1428801,40.7107531 29.3998834,41 L29.3855954,40.9892844 L29.3998834,40.9892844 C29.2715579,40.9892844 29.1571911,40.9571203 29.0285265,40.9249538 C28.9999505,40.9142382 28.9570469,40.903498 28.9284544,40.8713463 C28.8859064,40.817993 28.8430193,40.7751059 28.7715364,40.7429419 C28.7000568,40.7000548 28.6003238,40.7322263 28.5145463,40.6893318 C28.4859373,40.6679006 28.4716591,40.6464472 28.4434057,40.6464472 C28.271854,40.5821167 28.114936,40.5070655 28.0434728,40.3679406 C28.0005824,40.271446 27.9862878,40.1642284 28.0148639,40.0570157 C28.0291519,39.9822189 28.0717065,39.9286113 28.1006414,39.8642807 C28.1578231,39.7677861 28.214669,39.6712914 28.271854,39.5750585 C28.329039,39.4785639 28.4001795,39.3927898 28.4716591,39.296305 C28.5002681,39.2429517 28.5288442,39.2000647 28.5717313,39.1571776 C28.6003073,39.1142931 28.6285772,39.071406 28.6714643,39.0285189 C28.7000732,38.9856319 28.7715364,38.9534678 28.8144268,38.9105808 C28.8716118,38.8676937 28.8859064,38.8676937 28.9284544,38.835784 C28.9427424,38.8250684 29.0142319,38.8143281 28.999934,38.7928969 C29.0285101,38.7928969 29.0710745,38.7714657 29.0710745,38.7607329 C29.1997424,38.5784641 29.2998146,38.4822263 29.4138553,38.2999625 C29.4710403,38.2249114 29.485335,38.085784 29.485335,38 L30,38 L30,38.0004938 L29.9999638,38.0004741 L29.9999638,38.0004741 Z M14.3410783,35.1219971 C14.1677851,34.5900354 14.2049207,34.6033651 14.0814335,34.018483 C14.0074614,33.6861295 14.0074614,33.3138789 13.9328992,32.9682264 C13.8713038,32.6225738 13.4136039,31.5190597 13.4012329,31.0669536 C13.3520142,29.618124 12.9063944,28.6340562 13.0178186,27.0518072 C13.0920843,25.8285404 13.3517206,24.1668036 13.2279482,22.8901875 C13.1908154,22.5445349 13.2403192,22.1453492 13.2526902,21.8000031 L16.1715531,23.8476266 C16.0601518,25.9481705 16.1096613,26.5333284 16.1096613,28.5672545 C16.0972903,29.0592885 16.5054751,31.0533787 17,31.9444146 C17,31.9444146 18.6771496,34.6232204 18.4003906,35.1219969 C17.9640424,35.9083857 14.8606787,35.7999112 14.8606787,35.7999112 C14.699745,35.6938651 14.427732,35.3878247 14.3410783,35.1219971 L14.3410783,35.1219971 Z" id="flag" stroke="#262626" stroke-width="0.1" fill="#00209F"></path>
                    <path d="M18.5184937,14.0823975 L18.5184937,13.6585693 L17.5184937,13.1611328 L17.8911133,14.0823975 L18.3498535,14.2410278 L24.7906579,21 L25,20.8254609 L18.5184937,14.0823975 L18.5184937,14.0823975 Z M30.2286369,7.01857084 L30.5122333,6.70360516 L30.1019384,5.66480717 L29.7624024,6.59877143 L29.9971684,7.0236139 L30.2609837,16.3562485 L30.5333447,16.3666178 L30.2286369,7.01857084 L30.2286369,7.01857084 Z M11.8649549,20.953483 L11.7552601,20.5440965 L10.6605883,20.3224287 L11.258952,21.115861 L11.7431176,21.1503554 L21.7138077,27.0120184 L21.8708425,26.7892448 L11.8649549,20.953483 L11.8649549,20.953483 Z M42,14.0823975 L42,13.6585693 L43,13.1611328 L42.6273804,14.0823975 L42.1686401,14.2410278 L35.7278357,21 L35.5184937,20.8254609 L42,14.0823975 L42,14.0823975 Z M48.7116499,20.953483 L48.8213447,20.5440965 L49.9160166,20.3224287 L49.3176528,21.115861 L48.8334872,21.1503554 L38.8627972,27.0120184 L38.7057623,26.7892448 L48.7116499,20.953483 L48.7116499,20.953483 Z" id="arrow" fill="#FFCC00"></path>
                    <g id="triangle" transform="translate(16.000000, 13.000000)">
                        <polygon id="Shape" stroke="#000000" fill="#FFFFFF" points="0 23 28 23 13.993624 0"></polygon>
                        <polygon id="Shape" stroke="#007E93" fill="#007E93" points="4.14692019 16 4.14692019 16 0 23 28 23 23.8396903 16 4.14692019 16"></polygon>
                        <g id="mountain" transform="translate(2.000000, 13.000000)" fill="#FFCC00">
                            <path d="M1.0749607,4.98166206 C1.21608639,5.01219402 1.55559791,4.72199273 1.65463119,4.64562063 C1.79575688,4.55397201 1.86648749,4.32521804 1.97965908,4.20301284 C2.09249188,4.06554167 2.43201968,3.89788326 2.58728041,3.79097217 C3.26562584,3.3330984 3.576864,3.0734361 4.04300455,2.40208489 C4.67926083,1.45577022 5.42833036,0.67752199 6.36096981,0.113067784 C6.65770481,-0.0702259417 7.11003934,-0.00913037801 7.43509003,0.143247987 C7.53377801,0.189070539 7.66109442,0.311268701 7.77427904,0.402551502 C8.17002126,0.738230628 8.70727683,0.982623435 9.35731307,1.19645263 C9.9790727,1.39466058 10.1205535,1.8372719 10.615329,2.31041164 C10.8554782,2.53916562 11.1242428,2.73775346 11.4209843,2.89013182 C11.4492935,2.9053978 11.5196723,3.027603 11.5479652,3.04287601 C11.8305554,3.27199581 12.141774,3.4553036 12.3819297,3.68404702 C12.8342903,4.12665482 13.2583417,4.56961436 13.6820347,5.04240236 C13.7527686,5.11841215 13.7810583,5.27115633 13.8517921,5.33225542 C14.17682,5.66793454 14.4880484,6.01925953 14.8834649,6.217471 C15.2792071,6.43131427 15.6325344,6.70626365 16,6.95030823 C12.2399928,7.10305241 8.77741129,6.84338308 5.00372189,6.9655742 C4.90469838,6.98084018 4.87640548,6.9655742 4.31087982,6.9655742 C4.0282929,6.95030823 3.85851922,6.98084018 3.57594859,6.98084018 C2.43110427,6.9655742 1.34284574,6.9655742 0,6.95030823 L1.0751301,4.98170076 L1.0749607,4.98166206 L1.0749607,4.98166206 L1.0749607,4.98166206 Z" id="Shape"></path>
                            <path d="M15.6152794,7 C15.3239733,6.77949713 15.0323679,6.54360832 14.7145383,6.35460275 C14.3436861,6.15022212 14.0520777,5.78794876 13.7478318,5.44181939 C13.6815553,5.37881754 13.655044,5.22131653 13.5887644,5.14293961 C13.1914163,4.65506513 12.7940682,4.19831075 12.3705293,3.74228177 C12.1455028,3.50640022 11.8538883,3.31740916 11.5890811,3.08114313 C11.5625546,3.06540174 11.4966107,2.93939077 11.4700995,2.92364212 C11.1920474,2.7665147 10.9401799,2.56175685 10.7151778,2.32586804 C10.4106175,1.99511011 10.2515592,1.69621219 10,1.45998243 L10.013248,1.44424104 C10.1590583,1.31823733 10.3178083,1.19261083 10.4901146,1.09810804 C10.7151442,0.940980619 11.0727209,0.988230197 11.3245853,1.12959084 C11.404119,1.1611099 11.5101609,1.25559455 11.5893802,1.33397147 C11.8939405,1.63322847 12.317806,1.83762361 12.8211991,2.0265929 C13.3113442,2.19984619 13.4306371,2.57746923 13.814432,2.97085906 C14.0000076,3.17561327 14.1985321,3.34887019 14.437118,3.4748739 C14.450366,3.4906153 14.5030802,3.58475175 14.5295914,3.61625267 C14.7549355,3.80525461 14.99321,3.96275925 15.192052,4.167129 C15.5363776,4.54514014 15.8677605,4.92278856 16.1985329,5.33152081 C16.2515554,5.39452266 16.2648095,5.52052638 16.3310891,5.58352823 C16.5826269,5.86665937 16.8341769,6.16592362 17.1390333,6.33878882 C17.4435966,6.51204211 17.7083916,6.74828274 18,6.952667 C17.2053038,6.99991658 16.4238555,6.99991658 15.6424073,6.99991658 L15.6152703,6.99991658 L15.6152794,7 L15.6152794,7 L15.6152794,7 Z" id="Shape"></path>
                            <path d="M12,2.46808667 C12.1148609,2.49686413 12.244462,2.54007011 12.3740597,2.58326283 C12.9065311,2.74162839 13.0361255,3.08680212 13.4530628,3.44638779 C13.6546638,3.6335474 13.8703318,3.79191627 14.1295207,3.90709243 C14.1439127,3.92148116 14.201179,4.00752843 14.2299796,4.03632247 C14.4747831,4.20908339 14.7336337,4.35305359 14.9496466,4.53986177 C15.3237063,4.88539024 15.6837056,5.23058719 16.0430417,5.6041969 C16.100643,5.66178498 16.1150449,5.77695782 16.1870448,5.8345459 C16.460304,6.09334746 16.7335765,6.36689581 17.0647587,6.52490663 C17.3524199,6.65447815 17.59723,6.84163775 17.8560873,7 C18.5613623,7 19.265941,6.98561127 20,6.9568106 C19.7119972,6.78404636 19.4531366,6.58250466 19.1366781,6.43884942 C18.8342734,6.29488253 18.6042068,6.05012159 18.3450179,5.80574523 C18.28742,5.76255583 18.273018,5.66177835 18.2157617,5.60419027 C17.8845563,5.25899333 17.5536959,4.95702889 17.2084202,4.64027787 C17.0215594,4.46751695 16.7911512,4.33828691 16.5755032,4.17990477 C16.5467191,4.16551604 16.4891013,4.07912729 16.4747027,4.06472861 C16.2442978,3.94989725 16.0430417,3.82032573 15.8558461,3.64755486 C15.4817864,3.31676986 15.3665839,3.00002879 14.8773218,2.8564067 C14.3880596,2.71243982 13.9707907,2.52528022 13.669089,2.29527933 C13.5826871,2.22329588 13.4818867,2.13691377 13.4098835,2.10811973 C13.1506813,1.99294688 12.8054189,1.94975416 12.5753456,2.07934226 C12.3740863,2.19485991 12.1725019,2.32443143 12.0000298,2.46807009 C12.0000298,2.46807009 12.1725019,2.32443143 12.0000298,2.46807009 L12,2.46808667 L12,2.46808667 L12,2.46808667 Z" id="Shape"></path>
                            <path d="M16.0006006,3.55583345 C16.0909828,3.66942793 16.1813651,3.7833635 16.3101903,3.91154593 C16.4780442,4.08244928 16.6584935,4.21062515 16.8650848,4.32422619 C16.8779893,4.33845993 16.9296431,4.42391817 16.955467,4.43816175 C17.1488386,4.59482152 17.355418,4.72265958 17.5229687,4.89357605 C17.8328557,5.20689886 18.1295111,5.50562715 18.4261962,5.84710588 C18.4775348,5.90407367 18.4904482,6.00376565 18.5420931,6.04648984 C18.7745083,6.28826348 18.9807874,6.53037163 19.2519311,6.67277469 C19.4323893,6.77212887 19.5873298,6.88606443 19.7551778,7 L19.7422733,7 C20.4905572,7 21.2385142,7 22,6.97149971 C21.7934117,6.82908025 21.6126561,6.6727583 21.3805234,6.55881945 C21.1613308,6.43064358 20.9934769,6.23159414 20.7997901,6.04643737 C20.761362,6.00371317 20.7484485,5.93250508 20.7094049,5.8755373 C20.4643884,5.60527978 20.2322943,5.36315522 19.9869597,5.10714456 C19.8452359,4.96472839 19.6773701,4.8650364 19.5224563,4.73687037 C19.4966473,4.72263663 19.457895,4.66600009 19.4449846,4.65175978 C19.2774369,4.56630811 19.1353949,4.45237254 18.9933857,4.32419667 C18.7225453,4.05394243 18.6450825,3.79758084 18.2967495,3.68364528 C17.9352147,3.55580721 17.6256548,3.42763134 17.4064563,3.22823098 C17.341898,3.17160428 17.2773397,3.1146365 17.2256919,3.08615261 C17.0323203,3.00070094 16.7869976,2.95797674 16.6191495,3.05768512 C16.3870435,3.19976349 16.1933597,3.35642325 16,3.54156691 L16,3.55580065 L16.0005947,3.55580065 L16.0006006,3.55583345 L16.0006006,3.55583345 L16.0006006,3.55583345 Z" id="Shape"></path>
                            <path d="M22.4021223,7 C22.2602649,6.90039521 22.1058186,6.81353776 21.9381835,6.73883417 C21.7192543,6.62678021 21.5516073,6.45277001 21.3581559,6.29092799 C21.3197745,6.25357763 21.3068797,6.1913232 21.2678836,6.1415208 C21.0231649,5.90525903 20.7913528,5.69361462 20.5463164,5.46977621 C20.4047648,5.34527022 20.237103,5.25811746 20.0823478,5.14607497 C20.0565404,5.13363154 20.017868,5.08411873 20.0049732,5.07166956 C19.8376291,4.99696597 19.6957598,4.89736118 19.5539232,4.78530722 C19.3220993,4.58639582 19.2318209,4.39964687 19,4.27512654 L19.0125919,4.28756997 C19.1286597,4.20071253 19.2576194,4.1135569 19.3865761,4.05130534 C19.5410224,3.96415258 19.7473746,4.00150294 19.9146919,4.06374877 C19.9533822,4.0761922 20.017862,4.1384495 20.0694471,4.17580273 C20.2628896,4.31246257 20.5076083,4.42451652 20.8300075,4.51166068 C21.1263112,4.59851813 21.1908059,4.78527568 21.4226269,4.9844824 C21.5386918,5.08408719 21.6676514,5.17094463 21.809203,5.2331962 C21.8220918,5.24563963 21.8478933,5.29545062 21.8736828,5.30789979 C22.0026455,5.39505255 22.1570918,5.46975614 22.2731478,5.5818101 C22.4794851,5.76827234 22.6855313,5.95502702 22.8918418,6.1539499 C22.9305321,6.19130026 22.9305321,6.25355469 22.9692194,6.27845589 C23.1239746,6.41541104 23.2784328,6.56452005 23.4589657,6.65167281 C23.6520993,6.7512776 23.8197344,6.86333156 24,6.9626439 C23.4589657,6.98753076 22.9308499,6.98753076 22.4024074,6.98753076 L22.4024074,6.9999742 L22.4021104,6.9999742 L22.4021223,7 L22.4021223,7 L22.4021223,7 Z" id="Shape"></path>
                        </g>
                    </g>
                    <g id="rainbow" transform="translate(25.500000, 15.000000)">
                        <path d="M4.37189102,2.98771472 L4.46414484,2.98773193 C5.89403102,2.98773193 7.0631917,3.29638425 7.77996409,3.92560963 L8.1098245,3.54985424 C7.28521581,2.82596376 6.00400934,2.48773193 4.46414484,2.48773193 L4.36895744,2.48773193 C2.87920033,2.50519721 1.69889904,2.82564249 0.792322539,3.52405903 L1.09746605,3.92014922 C1.90692968,3.29654736 2.98448861,3.00399607 4.37189102,2.98771472 L4.37189102,2.98771472 Z" id="Shape" fill="#346DA6"></path>
                        <path d="M4.40338516,2.54374499 L4.49563898,2.54376221 C5.92552516,2.54376221 7.09468584,2.85241453 7.81145824,3.4816399 L8.14131864,3.10588451 C7.31670995,2.38199403 6.03550348,2.04376221 4.49563898,2.04376221 L4.40045158,2.04376221 C2.91069447,2.06122749 1.73039318,2.38167276 0.82381668,3.0800893 L1.12896019,3.47617949 C1.93842382,2.85257764 3.01598275,2.56002634 4.40338516,2.54374499 L4.40338516,2.54374499 Z" id="Shape" fill="#57BB63"></path>
                        <path d="M4.37036514,2.09495349 L4.46261896,2.0949707 C5.89250514,2.0949707 7.06166582,2.40362302 7.77843822,3.0328484 L8.10829862,2.65709301 C7.28368993,1.93320253 6.00248346,1.5949707 4.46261896,1.5949707 L4.36743156,1.5949707 C2.87767445,1.61243598 1.69737316,1.93288126 0.790796661,2.6312978 L1.09594017,3.02738799 C1.9054038,2.40378613 2.98296273,2.11123484 4.37036514,2.09495349 L4.37036514,2.09495349 Z" id="Shape" fill="#E5B731"></path>
                        <path d="M4.39907409,1.70060508 L4.49208884,1.70062256 C5.92496291,1.71808198 7.08602749,2.02170908 7.7993883,2.63959238 L8.12674381,2.26165274 C7.30639632,1.55110206 6.03805585,1.2194215 4.4951316,1.20064108 L4.39611826,1.20062256 C2.93249814,1.21791115 1.7604358,1.54666248 0.813958218,2.24995653 L1.11217389,2.65128858 C1.96573043,2.01704087 3.03644322,1.71671704 4.39907409,1.70060508 L4.39907409,1.70060508 Z" id="Shape" fill="#CE6F2D"></path>
                        <path d="M4.43600804,1.24998253 L4.52902278,1.25 C5.96189685,1.26745942 7.12296144,1.57108652 7.83632225,2.18896982 L8.16367775,1.81103018 C7.34333027,1.1004795 6.0749898,0.768798944 4.53206555,0.750018518 L4.43305221,0.75 C2.96943209,0.767288592 1.79736975,1.09603992 0.850892165,1.79933398 L1.14910784,2.20066603 C2.00266438,1.56641831 3.07337717,1.26609448 4.43600804,1.24998253 L4.43600804,1.24998253 Z" id="Shape" fill="#CA4638"></path>
                    </g>
                    <path d="M29.9939165,11 L14,37 L46,37 L29.9939165,11 L29.9939165,11 Z M16,36 L44,36 L29.993624,13 L16,36 L16,36 Z" id="Shape" fill="#FFCC00"></path>
                    <path d="M29.6004876,49.4333646 C29.5986157,49.59859 29.6018875,49.7385555 29.6142926,49.8130281 C29.649364,50.0922489 30.0117141,49.9939546 30.3740373,49.9277685 C30.4627147,49.9161575 30.5027856,49.8167648 30.5123131,49.6718659 C30.6257145,49.7612057 30.6995824,49.8744814 30.6995824,50.1387838 C30.6995824,50.7080495 31.0192183,51.7372698 31.6588514,51.9671209 C31.6588514,51.9671209 31.810867,51.5400454 32.0242137,51.4633359 C32.0242137,51.4633359 32.6638434,52 32.8619293,52 C32.8619293,52 32.4962161,51.5071663 32.4962161,51.2773152 C32.4962161,51.0472067 32.1765802,50.1716377 31.8565864,49.9525107 C31.605802,49.7631462 31.1274613,49.3655191 30.4646024,49.1273166 L30.4646024,49.1273166 C30.4560359,49.0787127 30.4467148,49.0299771 30.436924,48.9817767 L30.436924,48.9817767 C31.3963399,49.0921046 31.6138845,48.6721686 31.7715058,48.5082424 C31.9420681,48.3429781 32.3689108,46.5263483 31.9054578,46.1488421 C31.4420048,45.7831536 30.6740461,46.1960643 30.4180579,46.2787019 C30.2149062,46.3474923 30.1162335,47.6218416 30.1146415,48.0775278 C30.0120652,47.9671223 29.9597604,47.9890513 29.9144286,48.0539697 L29.9144286,48.0539697 C29.909666,47.5795232 29.8109254,46.346341 29.6111737,46.2787019 C29.3551856,46.1960643 28.5872268,45.7831536 28.1237738,46.1488421 C27.6603209,46.5263483 28.0871635,48.3429781 28.2577258,48.5082424 C28.4163751,48.6732376 28.6357315,49.0975925 29.611172,48.9795504 C29.611172,48.9795504 29.6122027,48.9790743 29.614127,48.9781447 C29.6133107,48.9969724 29.6125136,49.0159022 29.6117401,49.0348873 C28.7925583,49.2458475 28.2070952,49.7356925 27.9199526,49.9525107 C27.5999588,50.1716377 27.2803229,51.0472067 27.2803229,51.2773152 C27.2803229,51.5071663 26.9146097,52 26.9146097,52 C27.1126956,52 27.7523252,51.4633359 27.7523252,51.4633359 C27.965672,51.5400454 28.1176875,51.9671209 28.1176875,51.9671209 C28.7573207,51.7372698 29.0769566,50.7080495 29.0769566,50.1387838 C29.0769566,49.6597543 29.3196055,49.6768324 29.6004876,49.4333646 L29.6004876,49.4333646 Z M29.8608774,48.1462949 C29.8146312,48.2305614 29.7582956,48.3221271 29.649663,48.333898 C29.649663,48.333898 29.6443581,48.4116368 29.6372158,48.5321446 C29.4434507,48.471037 29.1972144,48.5321376 28.9283485,48.4019855 C28.5869205,48.2367103 28.4770924,48.0835275 28.5015143,47.918236 C28.5503299,47.6706005 28.5259361,46.7624188 28.7819102,46.6797731 C29.0381906,46.5971355 29.4406255,46.4793626 29.4406255,46.4793626 C29.4406255,46.4793626 29.7425452,47.7852346 29.8608774,48.1462949 L29.8608774,48.1462949 L29.8608774,48.1462949 Z M30.3369125,48.5537709 C30.2925495,48.3836286 30.2573456,48.2680794 30.2573456,48.2680794 C30.2249708,48.2186805 30.1958171,48.1773059 30.169427,48.1430111 C30.2885001,47.7773901 30.5886061,46.4793626 30.5886061,46.4793626 C30.5886061,46.4793626 30.991041,46.5971355 31.2473214,46.6797731 C31.5032955,46.7624188 31.4789018,47.6706005 31.5277174,47.918236 C31.5521392,48.0835275 31.4423112,48.2367103 31.1008831,48.4019855 C30.8058267,48.5448159 30.5380233,48.4573184 30.3369125,48.5537709 L30.3369125,48.5537709 L30.3369125,48.5537709 Z" id="ribbon" fill="#00209F"></path>
                    <g id="text" transform="translate(0.000000, 0.318681)" fill="#F2C500">
                        <path d="M16.6163802,52.8296703 L16.863633,54.6626374 C16.3790176,54.5043956 15.9339626,54.7879121 15.7196769,55.1901099 C15.3768198,55.8758242 15.6801165,56.3934066 16.3394571,56.7230769 L17.2262703,57.178022 L18.874622,53.9736264 L18.2152813,53.643956 L17.5559407,54.9296703 L17.5427538,54.9296703 L17.4009956,53.2318681 L16.6163802,52.8296703 L16.6163802,52.8296703 L16.6163802,52.8296703 Z M16.863633,55.2494505 C16.9691275,55.2593407 17.0845121,55.3054945 17.2031934,55.3648352 L17.285611,55.4043956 L16.8240725,56.2813187 L16.7416549,56.2384615 C16.4416549,56.0835165 16.240556,55.8956044 16.4119846,55.5395604 C16.5273692,55.3153846 16.685611,55.2362637 16.863633,55.2494505 L16.863633,55.2494505 L16.863633,55.2494505 Z" id="Shape"></path>
                        <polygon id="Shape" points="13.5660116 52.7030949 14.5241491 53.3473068 15.0674686 52.5463025 14.0663837 51.8748224 14.4096225 51.3601345 16.011631 52.4474552 14.0091204 55.4231008 12.4071118 54.3494143 12.7506915 53.8483605 13.7517764 54.5062066 14.195226 53.8483605 13.2224319 53.2041486"></polygon>
                        <path d="M13.0922044,50.3142857 L12.218578,51.3263736 L11.9383582,51.0989011 C11.3680286,50.5978022 10.7911055,50.6208791 10.2900066,51.1912088 C9.76253407,51.8208791 9.95703956,52.3714286 10.5603363,52.8725275 L11.3119846,53.5186813 L13.6394571,50.789011 L13.0922044,50.3142857 L13.0922044,50.3142857 L13.0922044,50.3142857 Z M11.2691275,51.4813187 C11.3944022,51.4912088 11.5328637,51.5769231 11.6812154,51.7054945 L11.7966,51.7879121 L11.1471495,52.5428571 L11.0416549,52.4571429 C10.7713253,52.2296703 10.6163802,52.0153846 10.8900066,51.6857143 C11.0251714,51.5274725 11.1438527,51.4681319 11.2691275,51.4813187 L11.2691275,51.4813187 L11.2691275,51.4813187 Z" id="Shape"></path>
                        <path d="M8.67362637,51.1879121 L8.18723077,50.6442527 L9.6747033,49.2856154 C10.0036286,48.9993 10.4470879,48.5415495 10.0322637,48.0840989 C9.61743956,47.6263187 9.11673626,48.0125209 8.78815385,48.3131538 L7.30031868,49.6574835 L6.81392308,49.1281319 L8.40161538,47.6835824 C9.0598022,47.096967 9.80353846,46.9395165 10.4757033,47.6692747 C11.1478681,48.413011 10.9191429,49.1567473 10.2613055,49.7433626 L8.67361319,51.1879121 L8.67362637,51.1879121 L8.67362637,51.1879121 Z" id="Shape"></path>
                        <path d="M7.35594066,44.3934066 C7.15154505,44.3769231 6.93725934,44.4263736 6.71638022,44.578022 C6.40319341,44.8054945 6.15923736,45.2142857 6.34714945,45.6296703 C6.08670989,45.5142857 5.7966,45.5934066 5.58231429,45.7516484 C4.9955011,46.1538462 5.00868791,46.6516484 5.40758901,47.2252747 L5.92187473,47.967033 L8.88890769,45.9362637 L8.23945714,45 C7.9987978,44.6505495 7.6955011,44.4197802 7.35594066,44.3934066 L7.35594066,44.3934066 L7.35594066,44.3934066 Z M7.34605055,45.1648352 C7.56033626,45.1450549 7.71857802,45.3197802 7.87022637,45.5340659 L7.96253407,45.6494505 L7.2009956,46.1637363 L7.13835824,46.0813187 C6.95374286,45.810989 6.75923736,45.4912088 7.11857802,45.2472527 C7.20429231,45.1912088 7.27352308,45.1714286 7.34605055,45.1648352 L7.34605055,45.1648352 L7.34605055,45.1648352 Z M6.2944022,46.2065934 C6.42627033,46.2032967 6.53835824,46.2923077 6.64385275,46.4538462 L6.6966,46.5230769 L5.9944022,47.0076923 L5.94495165,46.9384615 C5.78670989,46.7076923 5.74055604,46.4934066 6.02736923,46.3087912 C6.12956703,46.232967 6.21528132,46.2065934 6.2944022,46.2065934 L6.2944022,46.2065934 L6.2944022,46.2065934 Z" id="Shape"></path>
                        <polygon id="Shape" points="5.75604961 41.9764548 6.28505328 41.6901383 7.12900501 43.2342019 3.96827626 44.9521004 3.61038074 44.3078885 6.24210581 42.893349"></polygon>
                        <polygon id="Shape" points="5.69878633 40.347178 5.69878633 40.347178 5.98510274 41.0186582 2.6948499 42.4638744 2.40887434 41.7923942"></polygon>
                        <path d="M2.00769231,37.856044 C1.83624396,38.1137308 1.80761209,38.456967 1.89350769,38.7572637 C2.12221978,39.4154505 2.82334286,39.6015495 3.42393626,39.4154505 C3.99624396,39.2293451 4.43932088,38.6430659 4.22493626,37.9995495 C4.13938352,37.6992593 3.88168352,37.4558901 3.61003516,37.3270549 L4.39672747,37.069711 C4.61112527,37.2984231 4.7829033,37.5274912 4.86881538,37.8134473 C5.19773736,38.8148868 4.61147143,39.8159637 3.6672989,40.1308978 C2.69450769,40.4455022 1.60751868,40.0163703 1.2642989,38.9723374 C1.1784033,38.6863615 1.16408901,38.4000297 1.20737802,38.1140736 L2.00768571,37.8560473 L2.00769231,37.856044 L2.00769231,37.856044 Z" id="Shape"></path>
                        <path d="M3.72956703,33.0494505 L0.350446154,35.1 L0.452643956,35.6571429 L4.33616044,36.4384615 L4.19110549,35.6868132 L3.3998967,35.5120879 L3.16253407,34.232967 L3.87462198,33.810989 L3.72956703,33.0494505 L3.72956703,33.0494505 L3.72956703,33.0494505 Z M2.63506154,34.5428571 L2.79000659,35.4098901 L1.43176484,35.2450549 L1.43176484,35.221978 L2.63506154,34.5428571 L2.63506154,34.5428571 L2.63506154,34.5428571 Z" id="Shape"></path>
                        <path d="M1.83396264,26.3340659 C0.904292308,26.3373626 0.172424176,26.9835165 0.0933032967,28.0021978 L0.0108857143,29.0307692 L3.58451209,29.3208791 L3.66692967,28.289011 C3.75264396,27.2307692 3.03396264,26.4296703 2.01857802,26.343956 C1.95594066,26.3373626 1.8966,26.3307692 1.83396264,26.3340659 L1.83396264,26.3340659 L1.83396264,26.3340659 Z M1.6987978,27.1582418 C1.77791868,27.1516484 1.86033626,27.1483516 1.94605055,27.1582418 C2.58890769,27.2010989 3.00758901,27.5571429 2.93506154,28.3714286 L2.93506154,28.4769231 L0.782314286,28.2989011 L0.792204396,28.1967033 C0.841654945,27.5340659 1.15154505,27.1945055 1.6987978,27.1582418 L1.6987978,27.1582418 L1.6987978,27.1582418 Z" id="Shape"></path>
                        <polygon id="Shape" points="2.79506065 23.5104092 2.56634837 24.6406773 3.52448581 24.840758 3.76785477 23.6678832 4.35412172 23.7824098 3.96827626 25.6847097 0.449311134 24.9409687 0.835497446 23.0529846 1.43608022 23.1814862 1.19305212 24.3543609 1.96542474 24.5118349 2.20845284 23.3819076"></polygon>
                        <polygon id="Shape" points="4.29685843 19.0619383 3.86806551 20.1492589 4.76893967 20.4924978 5.21238927 19.3765455 5.78468125 19.5912828 5.08354688 21.393372 1.72239664 20.0919957 2.43750598 18.2895656 3.00979796 18.5043029 2.56634837 19.6342302 3.29577353 19.9202058 3.7249073 18.833226"></polygon>
                        <polygon id="Shape" points="6.45684313 16.8736628 7.00050347 17.1453225 6.1994992 18.7186994 2.99548214 17.0737434 3.32440517 16.4302132 5.98510274 17.7891936"></polygon>
                        <path d="M6.98571429,12.1549451 C6.75665934,12.1692527 6.55658242,12.2405011 6.41340659,12.4266066 C6.27025055,12.6266868 6.27025055,12.8986945 6.45635604,13.0418374 C6.94242198,13.3993978 7.62922418,12.0547385 8.60168571,12.7841538 C9.17399341,13.2132857 9.30246593,13.8854505 8.84471538,14.5006813 C8.54442198,14.9155055 8.08667143,15.0443407 7.60027582,15.0010549 L7.5286978,14.3575385 C7.81467363,14.4430912 8.15823626,14.3858242 8.34400549,14.1284835 C8.52977143,13.8997714 8.44421538,13.5991319 8.2155033,13.442011 C7.91521319,13.2132989 7.62888791,13.442011 7.35723956,13.6134593 C6.92810769,13.8851176 6.52759121,14.0282835 6.08415165,13.6993549 C5.59775604,13.3417945 5.48322857,12.6839703 5.85543956,12.1832341 C6.05551978,11.9115725 6.45636264,11.6395747 6.78527473,11.5966187 L6.9856978,12.1549484 L6.98571429,12.1549451 L6.98571429,12.1549451 Z" id="Shape"></path>
                        <path d="M8.5922044,9.0032967 L8.19000659,9.40549451 L9.82846813,13.021978 L10.3625341,12.4648352 L10.0328637,11.7230769 L10.929567,10.7967033 L11.6812154,11.1065934 L12.218578,10.5494505 L8.5922044,9.0032967 L8.5922044,9.0032967 L8.5922044,9.0032967 Z M9.15923736,10.0252747 L10.3031934,10.5494505 L9.74605055,11.1362637 L9.14934725,10.0351648 L9.15923736,10.0252747 L9.15923736,10.0252747 L9.15923736,10.0252747 Z" id="Shape"></path>
                        <polygon id="Shape" points="13.7517764 8.54867205 14.1379628 9.02075329 12.7646665 10.1367056 10.5048119 7.33284983 11.0771039 6.87542527 12.9507722 9.19254314"></polygon>
                        <polygon id="Shape" points="14.6243598 4.38617669 15.2965217 3.97169959 16.0402627 7.86219436 15.682708 8.09124749 12.4930068 5.74515712 13.1508528 5.31602335 15.2106268 6.88974109 15.2249426 6.87542527"></polygon>
                        <path d="M17.8427538,2.63736264 L17.3284681,2.88461538 L17.5130835,6.85054945 L18.2152813,6.53076923 L18.1823143,5.6967033 L19.3559407,5.17252747 L19.9328637,5.74945055 L20.6449516,5.42967033 L17.8427538,2.63736264 L17.8427538,2.63736264 L17.8427538,2.63736264 Z M17.9878088,3.81098901 L18.874622,4.72747253 L18.129567,5.05714286 L17.9878088,3.83076923 L17.9878088,3.81098901 L17.9878088,3.81098901 L17.9878088,3.81098901 Z" id="Shape"></path>
                        <path d="M21.8515451,1.39120879 C21.6669297,1.39120879 21.4691275,1.42417582 21.274622,1.48351648 L20.285611,1.77362637 L21.2944022,5.21208791 L22.2735231,4.93516484 C23.3020945,4.63516484 23.8064901,3.67252747 23.5196769,2.7 C23.285611,1.8956044 22.6460505,1.38461538 21.8515451,1.39120879 L21.8515451,1.39120879 L21.8515451,1.39120879 Z M21.8284681,2.14285714 C22.2768198,2.15934066 22.5768198,2.41978022 22.7251714,2.93736264 C22.9130835,3.55054945 22.718578,4.05824176 21.9339626,4.28571429 L21.8284681,4.32527473 L21.2317648,2.25494505 L21.3339626,2.21538462 C21.518578,2.16593407 21.6801165,2.13626374 21.8284681,2.14285714 L21.8284681,2.14285714 L21.8284681,2.14285714 Z" id="Shape"></path>
                        <path d="M26.1669297,0.349450549 C26.1009956,0.352747253 26.0284681,0.362637363 25.9625341,0.369230769 C24.8878088,0.514285714 24.2515451,1.48021978 24.3933033,2.48241758 C24.5218747,3.4978022 25.3922044,4.25274725 26.4669297,4.11098901 C27.5515451,3.96593407 28.1812154,3.01318681 28.052644,1.9978022 C27.9306659,1.05824176 27.1592374,0.31978022 26.1669297,0.349450549 L26.1669297,0.349450549 L26.1669297,0.349450549 Z M26.0845121,1.15384615 C26.6548418,1.08131868 27.1361604,1.55274725 27.2086879,2.08021978 C27.2647319,2.56813187 26.9218747,3.24065934 26.3614352,3.32637363 C25.8042923,3.3989011 25.2900066,2.82527473 25.2174791,2.33736264 C25.1614352,1.80989011 25.4976989,1.22637363 26.0845121,1.15384615 L26.0845121,1.15384615 L26.0845121,1.15384615 Z" id="Shape"></path>
                        <path d="M29.1438527,0.184615385 L29.1042923,3.78131868 L29.8328637,3.78131868 L29.8460505,2.33736264 L29.8559407,2.33736264 L30.7427538,3.8010989 L31.6262703,3.81098901 L30.5878088,2.28791209 C31.0889077,2.21538462 31.3592374,1.75714286 31.3592374,1.2989011 C31.3724242,0.524175824 30.8614352,0.210989011 30.1328637,0.194505495 L29.1438527,0.184615385 L29.1438527,0.184615385 L29.1438527,0.184615385 Z M29.885611,0.824175824 L29.9878088,0.824175824 C30.3306659,0.824175824 30.6009956,0.906593407 30.5878088,1.30879121 C30.5878088,1.70769231 30.3306659,1.81318681 29.9581385,1.81318681 L29.8757209,1.81318681 L29.885611,0.824175824 L29.885611,0.824175824 L29.885611,0.824175824 Z" id="Shape"></path>
                        <polygon id="Shape" points="37.5678488 3.27056522 36.4362173 2.98458966 36.2078458 3.92875213 37.3803797 4.22904352 37.2235874 4.81565132 35.3488966 4.34357009 36.2248885 0.853236603 38.0961708 1.32531784 37.9530126 1.92624147 36.7804787 1.62560923 36.5964181 2.39798185 37.711007 2.66998245"></polygon>
                        <polygon id="Shape" points="40.90139 4.90154625 41.8012416 2.65566663 42.4727217 2.92732637 41.1161273 6.33176493 40.6287077 6.13134344 39.7288561 3.07048458 39.7118134 3.07048458 38.8119618 5.33033917 38.1404817 5.07299525 39.5141188 1.63992505 39.9981298 1.82603072 40.8877559 4.90154625"></polygon>
                        <polygon id="Shape" points="45.1756851 7.90514182 44.8484663 8.42017052 43.3589392 7.49032387 45.2779409 4.44343998 45.8914761 4.82996714 44.3031017 7.36148148"></polygon>
                        <path d="M48.6570396,6.67582418 L45.1955011,8.62417582 L45.7922044,9.10549451 L46.5042923,8.70659341 L47.5031934,9.54065934 L47.2559407,10.3120879 L47.8625341,10.7967033 L49.0987978,7.03516484 L48.6570396,6.67582418 L48.6570396,6.67582418 L48.6570396,6.67582418 Z M48.1196769,7.71758242 L47.707589,8.91098901 L47.0812154,8.40659341 L48.1196769,7.71758242 L48.1196769,7.71758242 L48.1196769,7.71758242 Z" id="Shape"></path>
                        <path d="M54.0438527,12.3 L50.2130835,13.2791209 L50.6548418,13.8989011 L51.4592374,13.710989 L52.2108857,14.7527473 L51.7691275,15.4417582 L52.2306659,16.0714286 L54.3834132,12.7549451 L54.0438527,12.3 L54.0438527,12.3 L54.0438527,12.3 Z M53.2724242,13.167033 L52.5603363,14.2153846 L52.085611,13.556044 L53.2724242,13.167033 L53.2724242,13.167033 L53.2724242,13.167033 Z" id="Shape"></path>
                        <polygon id="Shape" points="54.2900911 20.0490482 53.9594638 19.3908613 55.8205205 18.1181166 53.4004651 18.3754606 53.2879836 18.1610641 54.9479371 16.4015815 54.9479371 16.3872657 52.800564 17.1027159 52.4733452 16.444529 56.0488919 15.3428925 56.2908975 15.8009988 54.5900416 17.6889829 57.0919017 17.4169823 57.3339073 17.8890635"></polygon>
                        <polygon id="Shape" points="56.6215248 22.0658747 56.2465866 20.964579 55.3331009 21.2791862 55.7182646 22.4234294 55.1319977 22.6238508 54.5184625 20.7784734 57.9235828 19.6342302 58.5507521 21.4649511 57.9644851 21.6653725 57.5793214 20.5211294 56.8362621 20.7784734 57.2077917 21.865794"></polygon>
                        <path d="M58.9064901,22.8 L55.4053912,23.5417582 L55.5471495,24.2505495 L56.9614352,23.9538462 L56.9812154,23.9538462 L55.7449516,25.1571429 L55.9394571,26.0142857 L57.1955011,24.6725275 C57.3834132,25.1472527 57.8779187,25.2989011 58.3196769,25.2 C59.0779187,25.0417582 59.2823143,24.4879121 59.1240725,23.756044 L58.9064901,22.8 L58.9064901,22.8 L58.9064901,22.8 Z M58.4647319,23.6637363 L58.4845121,23.756044 C58.5570396,24.0989011 58.5339626,24.3857143 58.1350615,24.4582418 C57.7493473,24.543956 57.5976989,24.3098901 57.5251714,23.9538462 L57.5053912,23.8714286 L58.4647319,23.6637363 L58.4647319,23.6637363 L58.4647319,23.6637363 Z" id="Shape"></path>
                        <polygon id="Shape" points="56.0761602 27.4585081 56.0761602 27.4585081 55.9909469 26.7430579 59.5664936 26.3282399 59.6517069 27.0436901"></polygon>
                        <path d="M58.8659341,30.932967 C59.1093033,30.7325473 59.2378022,30.417956 59.2378022,30.1033187 C59.2234945,29.4021758 58.5942857,29.016 57.9793846,29.0306374 C57.3784615,29.0306374 56.7778681,29.4597692 56.7921758,30.1459121 C56.7921758,30.4465451 56.9496495,30.7611429 57.1783516,30.9615824 L56.3487033,30.9758901 C56.2198615,30.703889 56.1199912,30.4322308 56.1199912,30.1319341 C56.1053209,29.0735934 56.9639473,28.2865714 57.9507165,28.2722308 C58.9804418,28.2579231 59.8816615,28.9873516 59.9102769,30.088978 C59.9102769,30.3749538 59.8386956,30.6752308 59.7098538,30.9186264 L58.8658978,30.9329341 L58.8659341,30.932967 L58.8659341,30.932967 Z" id="Shape"></path>
                        <path d="M56.2196769,31.6087912 L56.1372593,32.3703297 L56.8460505,32.7626374 L56.6911055,34.0483516 L55.8900066,34.232967 L55.807589,35.0076923 L59.6383582,34.0681319 L59.7108857,33.4912088 L56.2196769,31.6087912 L56.2196769,31.6087912 L56.2196769,31.6087912 Z M57.4229736,33.0791209 L58.5471495,33.5967033 L58.5471495,33.6065934 L57.3207758,33.8835165 L57.4229736,33.0791209 L57.4229736,33.0791209 L57.4229736,33.0791209 Z" id="Shape"></path>
                        <path d="M56.3472527,41.9208791 C56.6475429,41.8063549 56.8909121,41.5776264 57.0054396,41.2913407 C57.2627835,40.6334835 56.8336484,40.0329231 56.2613736,39.8038681 C55.7034066,39.5894703 54.9886154,39.746944 54.7309451,40.3761758 C54.6164176,40.6768088 54.645389,41.0200549 54.7882088,41.2917033 L54.0015165,40.9914099 C53.9872088,40.6911198 54.0015165,40.4047945 54.1157011,40.1188385 C54.5022396,39.1460473 55.6031736,38.7315527 56.5190637,39.1034538 C57.4775473,39.475322 58.0351846,40.5050473 57.6343385,41.5207945 C57.5201538,41.7927956 57.3483626,42.0358385 57.1336352,42.2219374 L56.3473055,41.9209615 L56.3472527,41.9208791 L56.3472527,41.9208791 Z" id="Shape"></path>
                        <polygon id="Shape" points="53.9730979 44.2090411 54.5184625 43.1932995 53.6595132 42.719514 53.0868804 43.7932006 52.5585584 43.4932501 53.4720442 41.7923942 56.6351589 43.5068842 55.7182646 45.2077401 55.1763086 44.9077895 55.7625755 43.8511456 55.0604186 43.479616 54.5048284 44.4953575"></polygon>
                        <polygon id="Shape" points="51.556451 47.0415285 53.516355 48.456068 53.0868804 49.0559691 50.1248689 46.8847362 50.4282279 46.4688957 53.6152024 46.3530057 53.6288365 46.3530057 51.6552983 44.9077895 52.0847729 44.3215226 55.0604186 46.4961639 54.760468 46.9256386 51.5700851 47.0244859"></polygon>
                        <polygon id="Shape" points="51.3280795 50.0717106 51.8564015 49.5297546 52.2858761 49.9455951 50.7418126 51.5612377 50.312338 51.1453972 50.8270258 50.6000326 48.6660186 48.5276471 49.1670723 47.9993251"></polygon>
                        <path d="M47.6053912,49.5857143 L47.0383582,50.0373626 L47.9647319,51.1615385 L47.9647319,51.1714286 L46.3394571,50.643956 L45.6570396,51.2010989 L47.440556,51.6857143 C47.1108857,52.0714286 47.1933033,52.5857143 47.4933033,52.9417582 C47.9779187,53.5285714 48.5845121,53.4461538 49.1416549,52.9747253 L49.8933033,52.3450549 L47.6053912,49.5857143 L47.6053912,49.5857143 L47.6053912,49.5857143 Z M48.2944022,51.6032967 L48.9240725,52.3648352 L48.8515451,52.4175824 C48.5812154,52.6450549 48.3372593,52.7505495 48.0801165,52.4472527 C47.8229736,52.1340659 47.9581385,51.8934066 48.2449516,51.6659341 L48.2944022,51.6032967 L48.2944022,51.6032967 L48.2944022,51.6032967 Z" id="Shape"></path>
                        <path d="M45.3603363,51.4483516 L44.7009956,51.8604396 L44.8460505,52.6648352 L43.7416549,53.343956 L43.1053912,52.8593407 L42.4460505,53.2714286 L45.607589,55.6516484 L46.0823143,55.3549451 L45.3603363,51.4483516 L45.3603363,51.4483516 L45.3603363,51.4483516 Z M44.9482484,53.3340659 L45.2680286,54.5307692 L45.2482484,54.5307692 L44.2592374,53.7659341 L44.9482484,53.3340659 L44.9482484,53.3340659 L44.9482484,53.3340659 Z" id="Shape"></path>
                        <polygon id="Shape" points="40.4719153 54.850468 40.2128672 54.3051034 41.8012416 53.54841 43.3453051 56.8103721 42.6874591 57.1103226 41.4160778 54.4209934"></polygon>
                    </g>
                </g>
            </g>
        </g>
    </g>
</svg>