<?xml version="1.0" encoding="UTF-8" standalone="no"?>
<svg width="180px" height="180px" viewBox="0 0 180 180" version="1.1" xmlns="http://www.w3.org/2000/svg" xmlns:xlink="http://www.w3.org/1999/xlink">
    <!-- Generator: Sketch 3.8.3 (29802) - http://www.bohemiancoding.com/sketch -->
    <title>equatorial_guinea</title>
    <desc>Created with Sketch.</desc>
    <defs></defs>
    <g id="Page-1" stroke="none" stroke-width="1" fill="none" fill-rule="evenodd">
        <g id="flags" transform="translate(-1530.000000, -1800.000000)">
            <g id="equatorial_guinea" transform="translate(1530.000000, 1800.000000)">
                <path d="M174.873467,120 L5.12100983,120 C17.475726,154.955772 50.8118738,180 89.9972382,180 C129.182603,180 162.51875,154.955772 174.873463,120 L174.873467,120 L174.873467,120 Z" id="red" fill="#E94B35"></path>
                <path d="M174.873467,120 C178.189905,110.616633 179.994476,100.519063 179.994476,90 C179.994476,79.480937 178.189905,69.3833673 174.873463,59.9999996 L5.12100983,60 C1.80457108,69.3833673 0,79.480937 0,90 C0,100.519063 1.80457108,110.616633 5.12101363,120 L174.873467,120 L174.873467,120 Z" id="white" fill="#FFFFFF"></path>
                <path d="M5.12100983,60 L174.873467,60 C162.51875,25.0442275 129.182603,0 89.9972382,0 C50.8118738,0 17.475726,25.0442275 5.12101363,59.9999996 L5.12100983,60 L5.12100983,60 Z" id="green" fill="#1AAF5D"></path>
                <path d="M21.2651774,148.102234 L60,90 L21.2651774,31.8977662 C7.99888757,47.5759459 0,67.8538522 0,90 C0,112.146148 7.99888757,132.424054 21.2651774,148.102234 L21.2651774,148.102234 Z" id="blue" fill="#227FBB"></path>
                <g id="emblem" transform="translate(68.000000, 65.000000)">
                    <path d="M7,8 L35,8 L35,36.6457755 C35,46.2848076 22.1331593,38.8591829 21.0365535,44 C19.1357702,38.7163824 7.07310705,46.3562079 7.07310705,36.0745736 C7.07310705,26.0785403 7,8 7,8 L7,8 L7,8 L7,8 Z" id="shield" stroke="#000000" stroke-width="0.5" fill="#FFFFFF"></path>
                    <path d="M40.9226784,38.6604803 C41.1674104,39.5790183 41.5295221,40.6797369 42,41.4140127 C40.8771009,47.2851695 30.7898089,47.9248872 28.9999998,47.9922885 L29,47.9922885 L29,49.2653061 C29,51.5782313 14,51.5782313 14,49.2653061 L14,47.9906216 C12.1015171,47.9146897 2.17709561,47.239808 1,41.4140127 C1.36205803,40.8476662 1.63835408,40.0633217 1.84126746,39.3127144 L1.84126746,39.3127144 C-0.96226296,37.5662858 1.45544569,35.6436052 1.73260634,30.5 C2.23502553,33.74 5.89550817,35.108 5.46486315,37.196 C3.95760559,37.268 3.2398639,34.964 2.5221222,37.484 L2.49626382,37.6292626 C2.9367226,38.7885546 4.28205658,41.277037 8.01837572,42.7452229 C11.7084495,44.1464968 16.9179655,43.2356688 16.9179655,43.2356688 C16.9179655,43.2356688 17.2797375,44.3566879 16.4838392,44.4267516 C14.5302707,44.7070064 14.02379,44.9872611 14.3132075,45.8280255 L14.3132075,46.3274654 C16.2791246,47.3100282 26.8924505,47.521227 28.7291094,46.3684061 L28.7291094,45.8280255 C28.946665,44.9872611 28.4390353,44.7070064 26.481035,44.4267516 C25.6833312,44.3566879 26.1184424,43.2356688 26.1184424,43.2356688 C26.1184424,43.2356688 31.3397764,44.1464968 35.0382213,42.7452229 C38.2631415,41.4622658 39.6271645,39.400217 40.1850063,38.1267885 L39.8912337,36.984 C39.1773235,34.464 38.4634132,36.768 37.0355927,36.696 C36.6072466,34.608 40.1767978,33.24 40.676535,30 C40.9448354,35.0058973 43.355819,36.897469 40.9226784,38.6604803 L40.9226784,38.6604803 L40.9226784,38.6604803 Z" id="ribbon" stroke="#000000" stroke-width="0.1" fill="#FFFFFF"></path>
                    <path d="M19.73306,19.2408992 C19.8966849,17.9494893 20.0953531,17 20.0953531,17 L21.4244282,17 C21.3275744,17.8857139 21.3550993,18.7404263 21.3898357,19.5631141 C22.4515942,18.3887199 23.25,18 23.25,18 L24,18.6955287 C21.1875,20.2952449 21.4375,22.5904897 21.6875,26.5550035 C21.75,28.0156139 21.75,29.8935415 22.0625,31.7019163 C22.5,33.9971611 23.375,35.9446416 23.4375,37.405252 C23.5,38.3094393 22.5,37.8225692 22.5,37.8225692 C22.5,37.8225692 22.1875,38.1703336 21.625,37.8921221 C21.5900585,37.8748401 21.5570463,37.7907309 21.5258586,37.6481637 L21.5258586,37.6481637 C20.3752882,38.5967227 19.8000031,37.3268504 19.8000031,37.3268504 C19.8000031,37.3268504 19.7952675,37.1739237 19.7870174,36.897025 C19.7508481,37.2511226 19.7144919,37.4395185 19.6819317,37.4753678 C18.5647597,38.7737257 18.130304,37.270364 18.0682389,37.1336947 L18.130304,37.4070332 C17.0751971,37.9537102 16.9510669,36.8603562 17.013132,36.723687 C19.309541,31.5985902 20.3025827,20.3233772 18.1923691,19.093354 L18.3164993,18 C18.9167202,18.2033392 19.4825942,18.8982929 19.73306,19.2408992 L19.73306,19.2408992 L19.73306,19.2408992 Z" id="trunk" fill="#73452B"></path>
                    <path d="M24.9878658,13.5654877 C25.4078374,13.077866 25.4078374,13.077866 26.1777854,13.077866 C26.3177759,12.0329625 28.0676577,12.0329625 28.2076482,13.356507 C29.6075536,13.077866 29.8875347,13.9137889 29.3275725,14.7497117 C30.6574827,14.4014105 31.8474023,14.7497117 31.4974259,16.2822369 C33.8772651,16.909179 32.9673266,18.5810247 31.9173975,18.9293259 C31.777407,19.9742294 30.7974732,20.3225306 29.4675631,19.9045692 C27.7876766,21.0887932 26.8077428,20.6708318 26.0377948,19.4866078 C24.1479225,19.7652487 24.007932,19.3472873 23.1679888,18.3023837 C21.6980881,18.9293259 21.418107,18.9293259 20.1581921,18.1630633 C20.0881969,19.1383066 19.7382205,18.8596656 19.1082631,18.7900054 C19.1782584,20.0438896 18.6882915,20.6011715 17.5683672,20.1832101 C18.4083104,21.924716 16.238457,22.6909786 15.188528,21.2281137 C14.2085942,21.2977739 14.1385989,21.019133 13.648632,20.6708318 C13.2286604,22.0640365 11.6887645,21.8550558 11.4087834,21.0887932 C9.44891583,20.8101522 9.65890164,19.7652487 11.2687928,19.6955885 C11.4087834,18.5810247 12.3887172,18.7900054 13.0186746,18.9293259 C13.0886699,18.2327235 13.5086415,18.372044 13.8586178,18.5113645 C13.648632,18.0237428 13.7886226,17.7451019 14.41858,17.6057814 C13.5086415,16.4215574 14.0686037,16.0035959 14.9785422,15.5856345 C14.4885753,14.4710708 15.3285185,14.540731 15.9584759,14.4710708 C15.8884807,13.2868467 16.238457,13.077866 17.4983719,12.9385456 C17.3583813,12.5205841 17.5683672,12.172283 18.2683199,12.172283 C17.8483482,10.9880589 18.4083104,10.716384 19.6682253,10.9183987 C19.8782111,9.19779087 23.5879604,10.0128156 23.3079793,12.3812637 C24.3579084,12.5205841 24.7078847,12.7295648 24.9878658,13.5654877 L24.9878658,13.5654877 L24.9878658,13.5654877 L24.9878658,13.5654877 Z" id="leaves" fill="#009A3B"></path>
                    <path d="M20,3.65932642 L18.4057971,3.72409326 L17.6086957,5 L16.7391304,3.78238342 L15.1449275,3.84067358 L15.8695652,2.55829016 L15,1.34067358 L16.6666667,1.27590674 L17.3913043,0 L18.2608696,1.21761658 L19.8550725,1.15932642 L19.1304348,2.44170984 L20,3.65932642 L20,3.65932642 L20,3.65932642 Z M13,4.22 L11.5135135,4.58 L11.1081081,6 L10.027027,4.93333333 L8.60810811,5.28 L9.01351351,3.86 L8,2.78 L9.41891892,2.42666667 L9.82432432,1 L10.9054054,2.06666667 L12.3918919,1.72 L11.9189189,3.14666667 L13,4.22 L13,4.22 L13,4.22 Z M6,5.67727931 L4.7012987,6.39363242 L4.63636364,8 L3.4025974,7.11722142 L2.1038961,7.82633864 L2.23376623,6.21997106 L1,5.32995658 L2.2987013,4.60636758 L2.42857143,3 L3.5974026,3.88277858 L4.8961039,3.17366136 L4.83116883,4.78002894 L6,5.67727931 L6,5.67727931 L6,5.67727931 Z M22,3.65932642 L23.6176471,3.72409326 L24.3529412,5 L25.2352941,3.78238342 L26.8529412,3.84067358 L26.1176471,2.55829016 L27,1.34067358 L25.3823529,1.27590674 L24.5735294,0 L23.6911765,1.21761658 L22.0735294,1.15932642 L22.8088235,2.44170984 L22,3.65932642 L22,3.65932642 L22,3.65932642 Z M28,4.22 L29.4189189,4.58 L29.8243243,6 L30.9054054,4.93333333 L32.3243243,5.28 L31.9189189,3.86 L33,2.78 L31.5135135,2.42666667 L31.1081081,1 L30.027027,2.06666667 L28.6081081,1.72 L29.0135135,3.14666667 L28,4.22 L28,4.22 L28,4.22 Z M35,5.67727931 L36.2987013,6.39363242 L36.3636364,8 L37.5974026,7.11722142 L38.8961039,7.82633864 L38.8311688,6.21997106 L40,5.32995658 L38.7012987,4.60636758 L38.6363636,3 L37.4025974,3.88277858 L36.1038961,3.17366136 L36.2337662,4.78002894 L35,5.67727931 L35,5.67727931 L35,5.67727931 Z" id="stars" fill="#F2C500"></path>
                </g>
            </g>
        </g>
    </g>
</svg>