<?xml version="1.0" encoding="UTF-8" standalone="no"?>
<svg width="180px" height="180px" viewBox="0 0 180 180" version="1.1" xmlns="http://www.w3.org/2000/svg" xmlns:xlink="http://www.w3.org/1999/xlink">
    <!-- Generator: Sketch 3.8.3 (29802) - http://www.bohemiancoding.com/sketch -->
    <title>eritrea</title>
    <desc>Created with Sketch.</desc>
    <defs></defs>
    <g id="Page-1" stroke="none" stroke-width="1" fill="none" fill-rule="evenodd">
        <g id="flags" transform="translate(-1800.000000, -1800.000000)">
            <g id="eritrea" transform="translate(1800.000000, 1800.000000)">
                <path d="M180,90 L35.9947307,162.002635 C51.0375294,173.303433 69.7367307,180 90,180 C139.70563,180 180,139.70563 180,90 L180,90 Z" id="blue" fill="#2C97DE"></path>
                <path d="M35.9947307,17.9973653 L180,90 C180,40.2943701 139.70563,0 90,0 C69.7367307,0 51.0375294,6.69656732 35.9947389,17.9973592 L35.9947307,17.9973653 Z" id="green" fill="#1AAF5D"></path>
                <path d="M35.9947307,162.002635 L180,90 L35.9947307,17.9973653 C14.1376902,34.4173152 0,60.5576394 0,90 C0,119.442361 14.1376902,145.582685 35.9947389,162.002641 L35.9947307,162.002635 Z" id="red" fill="#E94B35"></path>
                <path d="M44.9966115,122 L57.222787,121.950682 C57.3326488,119.987747 55.725367,118.1723 53.2784509,117.457394 C65.2488978,117.208918 75.6480676,112.703888 77.5377175,109.813265 C75.6677014,108.997842 73.505497,110.310223 71.9641337,110.008195 C75.6237558,108.308771 86.5881373,101.178508 84.8055438,93.5343788 C83.4198584,97.7801253 79.2221374,101.293116 77.434404,102.236303 C81.5302062,95.9876949 87.1229643,89.4821537 82.2707341,84.4444671 C82.5157072,87.3642081 80.4240902,90.5775278 79.5003053,90.8189564 C81.8761583,84.2166567 84.1430869,75.9271391 78.9954011,70.4624809 C79.6714098,72.4376286 79.3983865,78.0093806 78.4675844,78.2597387 C78.181007,73.7702112 77.4185063,64.3270724 72.7126093,64.4614117 C74.2072192,65.798219 74.861255,69.4469573 74.8944498,73.1323371 C73.8219973,70.6076219 72.6032116,68.7066896 69.9964083,66.842394 C67.8874942,62.7788962 64.1353051,59.4119838 60.3826471,57 C60.803867,59.9577905 61.1526268,62.291332 65.2629229,65.3590351 C63.1198858,65.2251667 60.9773106,61.1433506 58.6870075,61.0301484 C56.8651442,60.9418416 55.4355154,62.6887103 52.4584505,61.6835222 C52.7880384,62.6708606 54.1769957,63.1081653 54.4701169,63.8385709 C53.832443,64.2810421 52.3186657,63.769522 51.0601438,63.110984 C52.7913103,65.4802226 55.4738501,66.8733932 57.7510655,66.4032101 C60.4593165,65.8799487 63.3629886,66.1566104 66.1324846,67.7400174 C65.4251469,68.1049858 62.672015,68.1026357 60.9053193,67.8804628 C62.5111949,69.514127 63.5883256,70.5968202 66.3807273,70.5789705 C68.8748632,70.5625336 70.1824731,69.2421632 70.8229526,70.0599361 C72.3872262,71.9223525 73.4400427,73.7838294 74.7485877,75.9764567 C71.8580102,76.2972718 72.7294376,72.6917473 69.5102028,70.8476492 C67.7014294,74.6091212 71.5905955,79.0681157 74.2380749,80.9216073 C74.2736064,83.7488168 74.6850105,86.1143017 75.8785446,88.2670003 C76.6831206,89.7846481 77.7233205,91.3379931 77.3310837,94.763148 C75.7462434,93.603423 74.1974034,89.6921144 74.7672886,86.5873036 C72.7836677,87.1307648 72.0080771,90.6352994 72.9430862,92.3995492 C73.6415388,93.7424626 74.1076395,96.3127393 73.3021306,97.4616603 C72.5171906,98.532139 72.4349102,98.4123596 72.4451947,100.709733 C72.4732449,102.084585 71.7088762,103.710269 70.4639106,104.843688 C70.7238439,103.875136 71.0202416,102.208589 70.7322581,101.166762 C69.7481633,102.844113 67.2792721,104.579707 66.5018134,106.382941 C65.7383775,108.190403 65.5448291,111.321049 61.8501442,112.042998 C57.0970274,112.990883 55.4565531,113.81852 52.3981406,115.075943 C52.0587324,112.741933 53.074618,107.874754 55.017101,108.152353 C56.9137634,108.491489 62.6640673,106.161706 60.607049,101.294527 C60.2007871,102.828616 58.8454932,104.325593 57.3803351,104.391823 C58.9633051,102.328368 61.7884328,100.191638 60.4125677,96.7340711 C59.6477302,98.2038072 58.4448423,99.9675861 56.6206399,100.960091 C58.5762082,97.1948608 56.8478472,96.0684874 54.525751,99.1695399 C53.6487126,100.365902 53.1190301,102.763321 52.5617639,105.808012 C51.649665,103.331677 51.7099725,100.071861 50.6291036,97.4250212 C49.5000795,94.5625809 52.1274541,93.8068135 53.3640055,94.0365008 C56.3915623,94.8486384 61.4513613,94.8481675 61.0754864,89.8226954 C59.7678788,91.5225897 57.474768,92.0477325 54.9984001,91.4356911 C57.7795822,89.3952551 59.9754524,85.55722 56.8763639,83.5534185 C56.7730458,85.6784075 55.1363122,88.060798 52.9511952,89.1580513 C52.4397472,87.36515 52.4397472,85.4623361 52.8782664,83.3763363 C51.6580815,84.66664 50.767018,87.3515272 50.0582809,90.4037307 C50.0049837,87.3867557 50.5730031,85.2129177 50.994223,83.5900552 C51.6328344,81.2194084 53.2200114,82.7619493 55.6496328,82.9366838 C57.9894925,83.0700812 61.2110663,81.7708526 60.5953606,78.5829016 C59.7963978,79.8440852 58.1563922,80.3349368 56.4808552,80.2015394 C58.4981372,78.9737051 62.0128346,76.7918818 60.0853142,73.4357734 C59.2755959,74.7068192 59.0133258,75.7942057 56.6697255,76.1840719 C57.2835586,74.7655326 57.3854774,72.7598542 59.2045375,71.9651 C55.9595892,71.3159532 54.1017256,73.4555023 53.1573671,76.8064418 C52.7744797,74.4832357 52.3186657,73.6278866 52.2279666,71.9284609 C53.9820434,69.9711583 54.1657738,66.1420504 50.3682373,65.2857593 C50.1428981,67.2609094 50.2097517,67.7315634 50.6417248,69.3398635 C48.8591313,68.275962 46.3467632,67.6888183 44.6740339,69.1933142 C45.8072627,70.4220881 47.5613395,71.5038394 50.264917,70.1637448 C49.6263056,72.2628942 47.9652623,71.9035655 45.682907,71.1031692 C47.0779418,73.7359177 48.8385624,74.2037576 50.7815095,73.9003213 C51.798799,76.5950706 51.8436799,78.6425546 48.8708174,82.5670197 C49.0082631,80.1282636 48.8357569,78.3114064 46.9073013,76.3395461 C45.2546723,74.7133962 43.9115332,76.4090658 46.4940269,80.0244548 C44.9274188,78.8652007 43.154177,76.5124036 42.6202852,74.1600728 C42.103695,77.0661933 42.5688605,80.4913529 44.1700626,82.4115455 C43.4127064,83.2246181 42.5515612,82.3251156 41.2776125,80.3358741 C41.7596109,86.7019117 44.4627197,87.9302147 48.0956977,86.5112113 C48.1990158,90.0054128 48.1990158,93.2408069 48.4056519,97.4616603 C46.2873908,94.4000587 43.6020432,92.1163081 42.103695,91.545606 C41.6389936,93.2581857 43.3954094,95.4893267 44.376701,96.7350084 C42.8788146,96.4235891 39.624517,93.9326943 39.624517,93.9326943 C39.2972636,96.7697706 42.9480073,99.3992317 45.306568,100.575394 C42.5347306,100.454206 41.3117401,99.3992317 39.521199,97.6692708 C39.5557953,105.540275 48.009208,104.173404 49.5935795,102.962482 C49.8002179,106.837623 50.0947453,111.317288 50.3013837,115.192435 C47.9115009,114.773449 48.0994361,114.051495 46.0545702,113.861263 C40.3790677,113.639088 35.8770036,107.016118 34.3861321,102.144241 C33.9583638,102.946041 34.297772,103.78495 33.9064727,104.769943 C32.9850199,102.378628 31.8078454,99.2902564 30.2290826,97.8529325 C30.6311351,99.2470426 30.6736792,100.6637 30.5338945,103.269206 C29.9920572,101.581055 29.4880883,101.063429 29.4516216,99.081704 C29.4862179,97.5603002 30.9125726,96.4376805 30.8335664,94.2976628 C30.7751269,92.735393 29.35672,89.3492203 29.1482113,86.7277468 C28.4614471,89.4257881 28.0304092,92.2699078 26.9785256,93.940211 C27.5011955,91.0589836 27.3336409,89.070684 28.2178779,87.1317021 C29.2393746,85.0903243 30.1079988,83.2678342 29.4277807,81.2076648 C28.7756106,82.0033632 29.0000124,82.7262499 27.3614567,84.6595966 C27.0055465,82.5571529 29.4801406,79.1921196 31.8817094,77.8393441 C33.5754809,76.942658 35.7105703,73.735449 34.3197449,71.5371888 C32.7269592,72.6865784 32.011676,74.2394525 29.761578,76.8928717 C31.3665208,70.5893036 35.5366579,68.9401375 40.5291392,68.9185317 C41.6338513,68.9133605 43.8610437,68.5126972 44.4860964,67.0439007 C43.0789092,67.5897097 41.4150605,67.6592272 39.9344734,67.3614284 C41.0120705,65.7719153 43.2813382,65.9785886 45.3958586,65.9691951 C47.0545628,65.9612075 49.6440713,65.7352763 50.690815,63.3618107 C48.6674555,64.2425239 45.5118001,64.4257146 43.5249074,63.8019318 C46.6847675,62.1569927 51.634236,61.9799104 54.1727864,59.8211034 C51.2794034,57.6514946 44.0391608,60.3265174 39.466036,63.4778293 C40.7441917,62.3035443 42.7642747,60.2203608 43.8788071,58.5387849 C41.3776609,57.3339669 35.0523273,64.3745155 32.8732877,68.5577902 C30.8036459,69.732073 29.9756954,71.572886 29.1720545,72.8575568 C30.2748986,69.1134614 30.391773,66.3966353 31.3118219,63.3134303 C24.2172576,65.7672174 27.1661804,78.937537 25.6229951,82.0883803 C25.8046208,78.6096739 25.6575432,74.1408126 24.2320755,71.8363958 C22.0468665,73.511397 21.8705255,83.3697615 23.9221213,91.5770785 C23.1812672,89.3806951 21.7829605,87.3303901 21.3343452,84.6572465 C18.1002425,90.5836316 23.2302149,97.5753289 27.5198941,103.098227 C24.2904667,101.408197 21.0974118,97.7730773 19,94.725574 C19.5789128,105.33266 30.6035536,107.53656 32.3150863,110.143471 C29.9920572,109.057027 25.5509532,106.907142 23.6664433,109.159891 C26.7342993,109.87151 29.1814061,110.693978 31.1533386,111.992738 C34.0144643,115.581826 39.4323725,117.15161 48.8680119,117.548049 C46.3841627,118.237122 44.9601449,120.173281 44.9966115,122 L44.9966115,122 Z" id="emblem" fill="#F2C500"></path>
            </g>
        </g>
    </g>
</svg>