<?xml version="1.0" encoding="UTF-8" standalone="no"?>
<svg width="180px" height="180px" viewBox="0 0 180 180" version="1.1" xmlns="http://www.w3.org/2000/svg" xmlns:xlink="http://www.w3.org/1999/xlink">
    <!-- Generator: Sketch 3.8.3 (29802) - http://www.bohemiancoding.com/sketch -->
    <title>ethiopia</title>
    <desc>Created with Sketch.</desc>
    <defs></defs>
    <g id="Page-1" stroke="none" stroke-width="1" fill="none" fill-rule="evenodd">
        <g id="flags" transform="translate(-2340.000000, -1800.000000)">
            <g id="ethiopia" transform="translate(2340.000000, 1800.000000)">
                <path d="M174.873467,120 L5.12100983,120 C17.475726,154.955772 50.8118738,180 89.9972382,180 C129.182603,180 162.51875,154.955772 174.873463,120 L174.873467,120 L174.873467,120 Z" id="red" fill="#E94B35"></path>
                <path d="M5.12100983,120 L174.873467,120 C178.189905,110.616633 179.994476,100.519063 179.994476,90 C179.994476,79.480937 178.189905,69.3833673 174.873463,59.9999996 L5.12100983,60 C1.80457108,69.3833673 0,79.480937 0,90 C0,100.519063 1.80457108,110.616633 5.12101363,120 L5.12100983,120 L5.12100983,120 Z" id="yellow" fill="#F2C500"></path>
                <path d="M5.12100983,60 L174.873467,60 C162.51875,25.0442275 129.182603,0 89.9972382,0 C50.8118738,0 17.475726,25.0442275 5.12101363,59.9999996 L5.12100983,60 L5.12100983,60 Z" id="green" fill="#1AAF5D"></path>
                <circle id="Oval" fill="#227FBB" cx="89.8333333" cy="89.8333333" r="41.3333333"></circle>
                <path d="M59.1195415,78.9811896 L83.2027888,78.9811896 L88.6480986,62.2222429 L90.1003307,66.6917596 L82.1871623,91.0459939 L79.837401,89.3387893 L82.3052554,81.7435037 L62.9215391,81.7435037 L59.1195415,78.9811896 L59.1195415,78.9811896 L59.1195415,78.9811896 L59.1195415,78.9811896 L59.1195415,78.9811896 Z M71.1611672,116.041496 L78.6032936,93.1369707 L64.347282,82.779371 L69.0468088,82.779371 L89.7637608,97.8311152 L87.4139995,99.5383156 L80.953059,94.8441711 L74.9631564,113.279186 L71.1611672,116.041496 L71.1611672,116.041496 L71.1611672,116.041496 L71.1611672,116.041496 L71.1611672,116.041496 Z M110.128671,116.041496 L90.6449192,101.885719 L76.3889076,112.243319 L77.8411438,107.773804 L98.5580876,92.7220603 L99.4556169,95.4843703 L92.9946806,100.178515 L108.676443,111.571982 L110.128671,116.041496 L110.128671,116.041496 L110.128671,116.041496 L110.128671,116.041496 L110.128671,116.041496 Z M122.170297,78.9811896 L102.686545,93.1369707 L108.131851,109.895915 L104.329857,107.133605 L96.4166889,82.779371 L99.321153,82.779371 L101.789016,90.3746565 L117.47077,78.9811896 L122.170297,78.9811896 L122.170297,78.9811896 L122.170297,78.9811896 L122.170297,78.9811896 L122.170297,78.9811896 Z M90.6449192,56.0766641 L98.0870539,78.9811896 L115.708449,78.9811896 L111.906452,81.7435037 L86.2989008,81.7435037 L87.1964259,78.9811896 L95.1825856,78.9811896 L89.192683,60.5461787 L90.6449192,56.0766641 L90.6449192,56.0766641 L90.6449192,56.0766641 L90.6449192,56.0766641 L90.6449192,56.0766641 Z" id="star" fill="#F2C500"></path>
                <path d="M69.5000396,63.3379267 L79.3419705,75.9350236 L81.1180629,74.5473882 L71.2761321,61.9502911 L69.5000396,63.3379267 L69.5000396,63.3379267 L69.5000396,63.3379267 L69.5000396,63.3379267 L69.5000396,63.3379267 Z M108.895248,61.3534032 L99.9560202,74.6063527 L101.824583,75.866714 L110.76381,62.6137645 L108.895248,61.3534032 L108.895248,61.3534032 L108.895248,61.3534032 L108.895248,61.3534032 L108.895248,61.3534032 Z M122.95643,98.2072209 L107.589753,93.8008972 L106.968496,95.9674788 L122.335173,100.373803 L122.95643,98.2072209 L122.95643,98.2072209 L122.95643,98.2072209 L122.95643,98.2072209 L122.95643,98.2072209 Z M92.2515111,122.968656 L91.6936097,106.992449 L89.441089,107.071109 L89.9989905,123.047316 L92.2515111,122.968656 L92.2515111,122.968656 L92.2515111,122.968656 L92.2515111,122.968656 L92.2515111,122.968656 Z M59.2136449,101.418247 L74.2355199,95.9507319 L73.4646429,93.8327646 L58.4427678,99.30028 L59.2136449,101.418247 L59.2136449,101.418247 L59.2136449,101.418247 L59.2136449,101.418247 L59.2136449,101.418247 Z" id="glow" fill="#F2C500"></path>
            </g>
        </g>
    </g>
</svg>