<?xml version="1.0" encoding="UTF-8" standalone="no"?>
<svg width="180px" height="180px" viewBox="0 0 180 180" version="1.1" xmlns="http://www.w3.org/2000/svg" xmlns:xlink="http://www.w3.org/1999/xlink">
    <!-- Generator: Sketch 3.8.3 (29802) - http://www.bohemiancoding.com/sketch -->
    <title>europe</title>
    <desc>Created with Sketch.</desc>
    <defs></defs>
    <g id="Page-1" stroke="none" stroke-width="1" fill="none" fill-rule="evenodd">
        <g id="flags" transform="translate(-2610.000000, -1800.000000)">
            <g id="europe" transform="translate(2610.000000, 1800.000000)">
                <circle id="blue" fill="#227FBB" cx="90" cy="90" r="90"></circle>
                <path d="M89.9999998,57.1445312 L85.2977184,59.771176 L86.195774,54.2078536 L82.3915478,50.267887 L87.6488597,49.4562084 L90.0000001,44.3945312 L92.3511419,49.4562097 L97.6084534,50.267891 L93.8042257,54.2078547 L94.7022815,59.7711761 L89.9999998,57.1445312 L89.9999998,57.1445312 L89.9999998,57.1445312 L89.9999998,57.1445312 L89.9999998,57.1445312 Z M106.427734,61.5463293 L101.042117,61.4699297 L104.601517,57.100979 L103.276944,51.7867547 L108.235749,53.7124764 L112.802734,50.5045056 L112.308044,56.0636186 L116.455168,59.395211 L111.190629,60.9052058 L109.186707,66.1722113 L106.427734,61.5463293 L106.427734,61.5463293 L106.427734,61.5463293 L106.427734,61.5463293 L106.427734,61.5463293 Z M118.453671,73.5722655 L113.827789,70.8132926 L119.094795,68.8093704 L120.604793,63.5448306 L123.936383,67.691957 L129.495495,67.1972657 L126.287523,71.7642534 L128.213242,76.7230595 L122.89902,75.3984834 L118.53007,78.9578833 L118.453671,73.5722655 L118.453671,73.5722655 L118.453671,73.5722655 L118.453671,73.5722655 L118.453671,73.5722655 Z M122.855469,89.9999998 L120.228824,85.2977184 L125.792146,86.195774 L129.732113,82.3915478 L130.543792,87.6488597 L135.605469,90.0000001 L130.54379,92.3511419 L129.732109,97.6084534 L125.792145,93.8042257 L120.228824,94.7022815 L122.855469,89.9999998 L122.855469,89.9999998 L122.855469,89.9999998 L122.855469,89.9999998 L122.855469,89.9999998 Z M118.453671,106.427734 L118.53007,101.042117 L122.899021,104.601517 L128.213245,103.276944 L126.287524,108.235749 L129.495494,112.802734 L123.936381,112.308044 L120.604789,116.455168 L119.094794,111.190629 L113.827789,109.186707 L118.453671,106.427734 L118.453671,106.427734 L118.453671,106.427734 L118.453671,106.427734 L118.453671,106.427734 Z M106.427735,118.453671 L109.186707,113.827789 L111.19063,119.094795 L116.455169,120.604793 L112.308043,123.936383 L112.802734,129.495495 L108.235747,126.287523 L103.276941,128.213242 L104.601517,122.89902 L101.042117,118.53007 L106.427735,118.453671 L106.427735,118.453671 L106.427735,118.453671 L106.427735,118.453671 L106.427735,118.453671 Z M90.0000002,122.855469 L94.7022816,120.228824 L93.804226,125.792146 L97.6084522,129.732113 L92.3511403,130.543792 L89.9999999,135.605469 L87.6488581,130.54379 L82.3915466,129.732109 L86.1957743,125.792145 L85.2977185,120.228824 L90.0000002,122.855469 L90.0000002,122.855469 L90.0000002,122.855469 L90.0000002,122.855469 L90.0000002,122.855469 Z M73.5722658,118.453671 L78.9578834,118.53007 L75.3984832,122.899021 L76.7230564,128.213245 L71.7642514,126.287524 L67.1972655,129.495494 L67.6919563,123.936381 L63.5448316,120.604789 L68.8093713,119.094794 L70.8132928,113.827789 L73.5722658,118.453671 L73.5722658,118.453671 L73.5722658,118.453671 L73.5722658,118.453671 L73.5722658,118.453671 Z M61.5463295,106.427735 L66.1722113,109.186707 L60.905205,111.19063 L59.3952069,116.455169 L56.0636167,112.308043 L50.5045055,112.802734 L53.7124767,108.235747 L51.7867576,103.276941 L57.1009801,104.601517 L61.4699298,101.042117 L61.5463295,106.427735 L61.5463295,106.427735 L61.5463295,106.427735 L61.5463295,106.427735 L61.5463295,106.427735 Z M57.1445312,90.0000002 L59.771176,94.7022816 L54.2078536,93.804226 L50.267887,97.6084522 L49.4562084,92.3511403 L44.3945312,89.9999999 L49.4562097,87.6488581 L50.267891,82.3915466 L54.2078547,86.1957743 L59.7711761,85.2977185 L57.1445312,90.0000002 L57.1445312,90.0000002 L57.1445312,90.0000002 L57.1445312,90.0000002 L57.1445312,90.0000002 Z M61.5463293,73.5722658 L61.4699297,78.9578834 L57.100979,75.3984832 L51.7867547,76.7230564 L53.7124764,71.7642514 L50.5045056,67.1972655 L56.0636186,67.6919563 L59.395211,63.5448316 L60.9052058,68.8093713 L66.1722113,70.8132928 L61.5463293,73.5722658 L61.5463293,73.5722658 L61.5463293,73.5722658 L61.5463293,73.5722658 L61.5463293,73.5722658 Z M73.5722655,61.5463295 L70.8132926,66.1722113 L68.8093704,60.905205 L63.5448306,59.3952069 L67.691957,56.0636167 L67.1972657,50.5045055 L71.7642534,53.7124767 L76.7230595,51.7867576 L75.3984834,57.1009801 L78.9578833,61.4699298 L73.5722655,61.5463295 L73.5722655,61.5463295 L73.5722655,61.5463295 L73.5722655,61.5463295 L73.5722655,61.5463295 Z" id="stars" fill="#F2C500"></path>
            </g>
        </g>
    </g>
</svg>