<?xml version="1.0" encoding="UTF-8" standalone="no"?>
<svg width="180px" height="180px" viewBox="0 0 180 180" version="1.1" xmlns="http://www.w3.org/2000/svg" xmlns:xlink="http://www.w3.org/1999/xlink">
    <!-- Generator: Sketch 3.8.3 (29802) - http://www.bohemiancoding.com/sketch -->
    <title>falkland_islands</title>
    <desc>Created with Sketch.</desc>
    <defs></defs>
    <g id="Page-1" stroke="none" stroke-width="1" fill="none" fill-rule="evenodd">
        <g id="flags" transform="translate(-180.000000, -2070.000000)">
            <g id="falkland_islands" transform="translate(180.000000, 2070.000000)">
                <circle id="blue" fill="#227FBB" cx="90" cy="90" r="90"></circle>
                <g id="emblem" transform="translate(101.000000, 70.000000)">
                    <g id="g1148" transform="translate(0.000000, 56.000000)">
                        <path d="M5.08026472,2.3470254 C5.46659327,1.93887547 6.14251371,0 7.20507175,0 C8.26732073,0 12.2273429,2.55110037 12.2273429,2.55110037 L13,10 C13,10 10.0057992,6.22444981 8.75038595,6.22444981 C7.49466363,6.22444981 5.46659327,8.87742441 5.3698566,8.87742441 C5.273429,8.87742441 3.8245424,5.9181741 4.01770668,5.51002416 C4.21087095,5.10187422 4.98352805,2.75517534 5.08026472,2.3470254 C5.08026472,2.3470254 4.98352805,2.75517534 5.08026472,2.3470254 L5.08026472,2.3470254 L5.08026472,2.3470254 L5.08026472,2.3470254 Z" id="path1096" fill="#F1A06E"></path>
                        <path d="M43,9 C43,9 44.9051075,6.01934181 46.4928664,6.23224597 C48.0802867,6.44515012 49.562037,8.36128753 49.6680456,8.46756929 C49.7737156,8.57419169 52.1021803,6.01934181 51.9965103,5.91271941 C51.8905017,5.80643765 49.562037,0.270929585 48.2919653,0.0580254281 C47.0218936,-0.154878728 44.4817503,0.270929585 44.4817503,0.483833741 C44.4817503,0.696737897 43,9 43,9 L43,9 L43,9 L43,9 Z" id="path1097" fill="#F1A06E"></path>
                        <path d="M39,5.75998563 C39,5.96253132 39.6219512,13.4567217 42.3170732,16.0898156 C45.0121951,18.7229095 49.3658537,20.3432749 50.9208976,19.9381836 C52.4756098,19.5330922 56,11.9377911 56,11.9377911 C56,11.9377911 52.2682927,15.5836134 49.469678,14.9759763 C46.6707317,14.3683393 45.0121951,9.81089933 44.4940683,7.58289679 C43.9756098,5.35489426 44.3902439,1 44.3902439,1 L39,5.75998563 L39,5.75998563 L39,5.75998563 Z" id="path1098" fill="#F1A06E"></path>
                        <path d="M11.108004,2 C11.108004,2.10520984 12.534741,13.3808725 7.235432,14.8561708 C1.93612294,16.331469 0,12.327088 0,12.327088 C0,12.327088 2.8534741,20.546607 3.872572,20.652154 C4.89166989,20.7573639 7.84689073,22.0219053 11.3118236,18.9660989 C14.7767564,15.9099552 16,11.2733035 16,9.06018746 C16,6.84740864 15.6941076,4.95059657 15.6941076,4.95059657 L11.108004,2 L11.108004,2 L11.108004,2 Z" id="path1094" fill="#F1A06E"></path>
                        <path d="M5.50281111,3 C5.70362563,3.30477001 5.11049986,4.27502501 5.60337902,5.43946111 C6.01400455,6.40971611 13.6359599,14.9940171 28.0946054,14.3841519 C42.5535723,13.7742866 51.4016207,6.67643053 51.4016207,4.54206468 C52.6065079,5.96508367 52.9959274,7.26905694 54,7.87892222 C54,8.89536435 53.9546962,9.82235957 52.7951129,11.4366323 C51.544922,13.176456 44.4611496,20.4828046 28.8978635,19.9747462 C13.3345774,19.4663625 5.80419354,15.095824 3.29417268,11.0300555 C1.51254624,8.0243141 2.08896424,7.6756338 2.08896424,7.6756338 C3.72889595,6.42207605 4.56556957,4.96522987 5.50281111,3 C5.50281111,3 4.56556957,4.96522987 5.50281111,3 L5.50281111,3 L5.50281111,3 L5.50281111,3 Z" id="path1092" fill="#F1A06E"></path>
                        <path d="M6,16.641093 C6,16.9486338 5.55558189,19 5.4442996,19 C5.33337284,19 3,15.3075408 3,15.3075408 L4.66674567,15 C4.66674567,15 6,17.0513662 6,16.641093 C6,16.641093 6,17.0513662 6,16.641093 L6,16.641093 L6,16.641093 L6,16.641093 Z" id="path1101" fill="#AF693F"></path>
                        <path d="M53.0637904,14.6800243 L51.9217266,13.8083893 C52.4195313,15.0575195 50.0880127,16.5046881 50.0880127,16.5046881 C49.7914551,18.2106457 50.9809047,19.0804417 50.7825195,18.7583008 C50.9809047,18.4365033 53.0637904,14.6800243 53.0637904,14.6800243 L53.0637904,14.6800243 L53.0637904,14.6800243 Z" id="path1102" fill="#AF693F"></path>
                        <path d="M3.30734122,20 C3.20744764,19.4617352 2.40957553,16.2311124 4.00531974,16.0157376 C5.60106395,15.8003627 6,16.9847521 6,16.9847521 C6,16.9847521 5.30202148,14.9388633 5.00265987,13.3233796 C4.70361741,11.7082406 4.90308543,10.8467412 4.90308543,10.8467412 C4.90308543,10.8467412 3.1078732,8.8005078 2.21010751,9.01588265 C1.31266097,9.2312575 0.11585281,10.9542563 0.01595922,11.6003808 C-0.083615215,12.2465054 0.31532084,13.1080048 0.31532084,13.1080048 L3.30734122,20 L3.30734122,20 L3.30734122,20 Z" id="path1100" fill="#DD8B59"></path>
                        <path d="M52.8450968,18 C52.8450968,18 53.2521601,16.2268989 51.9293672,16.0182791 C50.6062488,15.8096593 49.6905192,16.8527582 50.0975825,16.5396616 C50.5046458,16.2268989 51.1152407,15.4965628 51.2168437,13.7234616 C51.3187723,11.9500267 51.1152407,11.0114046 51.1152407,11.0114046 C51.1152407,11.0114046 51.623907,8.71625338 53.761152,9.02934993 C55.8980714,9.34244648 56,11.0114046 56,11.6372639 C56,12.2631232 55.7964684,12.575886 55.7964684,12.575886 L52.8450968,18 L52.8450968,18 L52.8450968,18 Z" id="path1103" fill="#DD8B59"></path>
                        <polygon id="path1122" fill="#000000" transform="translate(46.483481, 12.992027) rotate(-29.855962) translate(-46.483481, -12.992027) " points="45.4834809 12.2835497 45.7225519 12.2835497 45.7780164 11.8050464 45.8334809 11.7469446 46.2493279 11.7469446 46.2493279 14.1793112 46.1905847 14.2507977 45.9651749 14.2730042 45.9651749 14.4920267 47.0015137 14.4920267 47.0015137 14.2730042 46.7763771 14.2507977 46.7173607 14.1793112 46.7173607 11.7469446 47.1334809 11.7469446 47.1853935 11.8050464 47.2441366 12.2835497 47.4834809 12.2835497 47.4834809 11.4920267 45.4834809 11.4920267 45.4834809 12.2835497"></polygon>
                        <polygon id="path1123" fill="#000000" transform="translate(43.821286, 14.387508) rotate(-25.807909) translate(-43.821286, -14.387508) " points="42.3212864 13.1065309 42.5688478 13.1290416 42.637129 13.2005281 42.637129 15.5747929 42.5688478 15.6462794 42.3212864 15.6684859 42.3212864 15.8875084 43.5291572 15.8875084 43.5291572 15.6684859 43.2728505 15.6462794 43.2045693 15.5747929 43.2045693 14.4480438 44.4380035 14.4480438 44.4380035 15.5747929 44.374095 15.6462794 44.1177882 15.6684859 44.1177882 15.8875084 45.3212864 15.8875084 45.3212864 15.6684859 45.073725 15.6462794 45.0054438 15.5747929 45.0054438 13.2005281 45.073725 13.1290416 45.3212864 13.1065309 45.3212864 12.8875084 44.1177882 12.8875084 44.1177882 13.1065309 44.374095 13.1290416 44.4380035 13.2005281 44.4380035 14.1797412 43.2045693 14.1797412 43.2045693 13.2005281 43.2728505 13.1290416 43.5291572 13.1065309 43.5291572 12.8875084 42.3212864 12.8875084 42.3212864 13.1065309"></polygon>
                        <path d="M40.9887239,15.7969288 L41.3303441,15.8186935 L41.4041981,15.8792817 L41.4041981,16.7610464 C41.2841399,16.7695759 41.196461,16.7739876 41.1502568,16.7739876 C40.4397305,16.7739876 40.0057019,16.3201641 40.0057019,15.5419288 C40.0057019,14.7854582 40.4302713,14.3360464 41.1182413,14.3360464 C41.2521244,14.3360464 41.3765483,14.357517 41.5013361,14.4051641 L41.5704605,14.4828111 L41.6581394,14.9410464 L41.99503,14.9410464 L41.99503,14.2063406 C41.6534098,14.1110464 41.3259784,14.0636935 41.0211033,14.0636935 C39.9966065,14.0636935 39.3366502,14.6557523 39.3366502,15.5419288 C39.3366502,16.4410464 39.991877,17.0636935 40.9610742,17.0636935 C41.2979648,17.0636935 41.639585,17.0031053 41.99503,16.8863406 L41.99503,15.8792817 L42.068884,15.8186935 L42.3366502,15.7969288 L42.3366502,15.5851641 L40.9887239,15.5851641 L40.9887239,15.7969288 L40.9887239,15.7969288 L40.9887239,15.7969288 Z" id="path1124" fill="#000000" transform="translate(40.836650, 15.563694) rotate(-15.673478) translate(-40.836650, -15.563694) "></path>
                        <polygon id="path1125" fill="#000000" transform="translate(38.751888, 16.077393) rotate(-8.319759) translate(-38.751888, -16.077393) " points="39.2518875 17.5773927 39.2518875 17.3583702 39.0277905 17.3361637 38.9742708 17.2646772 38.9742708 14.8815906 39.0277905 14.8189259 39.2518875 14.7964152 39.2518875 14.5773927 38.2518875 14.5773927 38.2518875 14.7964152 38.4725572 14.8189259 38.5260768 14.8815906 38.5260768 17.2646772 38.4725572 17.3361637 38.2518875 17.3583702 38.2518875 17.5773927 39.2518875 17.5773927"></polygon>
                        <polygon id="path1128" fill="#000000" transform="translate(32.000000, 17.500000) rotate(-4.047387) translate(-32.000000, -17.500000) " points="31 19 33 19 33 18.1999594 32.7466608 18.1999594 32.6832526 18.6738998 32.6348158 18.7453863 31.7708792 18.7453863 31.7708792 17.5827418 32.2549538 17.5827418 32.3072068 17.6454066 32.3444885 17.967248 32.5640687 17.967248 32.5640687 16.9299331 32.3444885 16.9299331 32.3072068 17.2520787 32.2549538 17.3144393 31.7708792 17.3144393 31.7708792 16.2503549 32.5121092 16.2503549 32.560546 16.3084567 32.6163217 16.7020888 32.8769999 16.7020888 32.8769999 16 31 16 31 16.2190225 31.2272127 16.2415332 31.2868046 16.3041979 31.2868046 18.6872845 31.2272127 18.758771 31 18.7809775 31 19"></polygon>
                        <polygon id="path1129" fill="#000000" points="27.6814453 16.3570108 27.9290067 16.3795215 27.9972879 16.451008 27.9972879 18.8252728 27.9290067 18.8967593 27.6814453 18.9189658 27.6814453 19.1379883 28.8889798 19.1379883 28.8889798 18.9189658 28.6330094 18.8967593 28.5647282 18.8252728 28.5647282 17.6985237 29.7978261 17.6985237 29.7978261 18.8252728 29.7339176 18.8967593 29.4779471 18.9189658 29.4779471 19.1379883 30.6814453 19.1379883 30.6814453 18.9189658 30.4338839 18.8967593 30.3656027 18.8252728 30.3656027 16.451008 30.4338839 16.3795215 30.6814453 16.3570108 30.6814453 16.1379883 29.4779471 16.1379883 29.4779471 16.3570108 29.7339176 16.3795215 29.7978261 16.451008 29.7978261 17.4302211 28.5647282 17.4302211 28.5647282 16.451008 28.6330094 16.3795215 28.8889798 16.3570108 28.8889798 16.1379883 27.6814453 16.1379883 27.6814453 16.3570108"></polygon>
                        <polygon id="path1130" fill="#000000" transform="translate(26.576816, 17.626447) rotate(1.611478) translate(-26.576816, -17.626447) " points="25.5768162 16.9179702 25.8158872 16.9179702 25.8713517 16.4394669 25.9268162 16.3813651 26.3429364 16.3813651 26.3429364 18.8137317 26.28392 18.8852182 26.0585102 18.9074247 26.0585102 19.1264472 27.0951222 19.1264472 27.0951222 18.9074247 26.8697124 18.8852182 26.810696 18.8137317 26.810696 16.3813651 27.2268162 16.3813651 27.2787288 16.4394669 27.3377452 16.9179702 27.5768162 16.9179702 27.5768162 16.1264472 25.5768162 16.1264472 25.5768162 16.9179702"></polygon>
                        <polygon id="path1131" fill="#000000" transform="translate(23.000000, 17.500000) rotate(3.667395) translate(-23.000000, -17.500000) " points="22 19 24 19 24 18.1999594 23.7466608 18.1999594 23.6832526 18.6738998 23.6348158 18.7453863 22.7708792 18.7453863 22.7708792 17.5827418 23.2549538 17.5827418 23.3072068 17.6454066 23.3444885 17.967248 23.5640687 17.967248 23.5640687 16.9299331 23.3444885 16.9299331 23.3072068 17.2520787 23.2549538 17.3144393 22.7708792 17.3144393 22.7708792 16.2503549 23.5121092 16.2503549 23.560546 16.3084567 23.6163217 16.7020888 23.8769999 16.7020888 23.8769999 16 22 16 22 16.2190225 22.2272127 16.2415332 22.2868046 16.3041979 22.2868046 18.6872845 22.2272127 18.758771 22 18.7809775 22 19"></polygon>
                        <polygon id="path1134" fill="#000000" transform="translate(17.816491, 16.580229) rotate(18.837905) translate(-17.816491, -16.580229) " points="18.3164911 18.0802286 18.3164911 17.8612061 18.0923941 17.8389996 18.0388744 17.7675131 18.0388744 15.3844265 18.0923941 15.3217618 18.3164911 15.2992511 18.3164911 15.0802286 17.3164911 15.0802286 17.3164911 15.2992511 17.5371608 15.3217618 17.5906804 15.3844265 17.5906804 17.7675131 17.5371608 17.8389996 17.3164911 17.8612061 17.3164911 18.0802286 18.3164911 18.0802286"></polygon>
                        <path d="M15.9203308,17.3524138 C16.6365586,17.3524138 17.0774466,16.9806491 17.0774466,16.4662373 C17.0774466,16.2112373 16.9377116,15.9777079 16.6843989,15.8177079 C16.4269562,15.6535902 16.1953265,15.5885902 16.0600658,15.5065314 C15.8287803,15.3682961 15.706254,15.2385902 15.706254,15.0397667 C15.706254,14.8018255 15.9027779,14.6291785 16.2214838,14.6291785 C16.3612188,14.6291785 16.4617178,14.6506491 16.5401897,14.6894726 L16.6014528,14.7500608 L16.6757946,15.1997667 L16.9900262,15.1997667 L16.9900262,14.4994726 C16.7150305,14.4041785 16.4400348,14.3524138 16.1691692,14.3524138 C15.544836,14.3524138 15.1387097,14.7241785 15.1387097,15.2038844 C15.1387097,15.4159432 15.2433389,15.6277079 15.444337,15.7962373 C15.6363865,15.9562373 15.8418589,16.0297667 16.0163556,16.1162373 C16.3264571,16.2718255 16.483745,16.4274138 16.483745,16.6606491 C16.483745,16.8985902 16.2741425,17.0715314 15.9203308,17.0715314 C15.7850701,17.0715314 15.6584137,17.0497667 15.5362317,17.0109432 L15.4794428,16.9462373 L15.4095753,16.4274138 L15.0774466,16.4274138 L15.0774466,17.2097667 C15.3483122,17.3047667 15.6408608,17.3524138 15.9203308,17.3524138 L15.9203308,17.3524138 L15.9203308,17.3524138 Z" id="path1135" fill="#000000" transform="translate(16.077447, 15.852414) rotate(18.837905) translate(-16.077447, -15.852414) "></path>
                        <polygon id="path1136" fill="#000000" transform="translate(13.819749, 14.802907) rotate(26.524270) translate(-13.819749, -14.802907) " points="14.8197488 16.3029067 14.8197488 15.5028661 14.5667031 15.5028661 14.5032949 15.9768065 14.4548581 16.048293 13.5909215 16.048293 13.5909215 14.8856485 14.0749961 14.8856485 14.1272491 14.9483133 14.1642372 15.2701547 14.384111 15.2701547 14.384111 14.2328398 14.1642372 14.2328398 14.1272491 14.5549854 14.0749961 14.6173459 13.5909215 14.6173459 13.5909215 13.5532616 14.331858 13.5532616 14.3802948 13.6113634 14.4363641 14.0049955 14.6970422 14.0049955 14.6970422 13.3029067 12.8197488 13.3029067 12.8197488 13.5219292 13.0469615 13.5444398 13.1065534 13.6071046 13.1065534 15.9901912 13.0469615 16.0616777 12.8197488 16.0838842 12.8197488 16.3029067 14.8197488 16.3029067"></polygon>
                        <path d="M11.3433269,12 L10,12 L10,12.2190225 L10.280706,12.2415332 L10.3543279,12.3130197 L10.3543279,14.6872845 L10.280706,14.758771 L10,14.7809775 L10,15 L11.3433269,15 C11.8035542,15 12.1484526,14.9330765 12.4338733,14.7186169 C12.8066973,14.4411884 13,14.0299128 13,13.5024336 C13,12.5633746 12.4110251,12 11.3433269,12 L11.3433269,12 L11.3433269,12 L11.3433269,12 Z M11.4462191,12.4034336 C11.9869698,12.4034336 12.4507566,12.7310091 12.4507566,13.4035992 C12.4507566,14.0761893 11.9869698,14.4034336 11.4462191,14.4034336 L10.7460315,14.4155861 L10.7460315,12.4155861 L11.4462191,12.4034336 L11.4462191,12.4034336 L11.4462191,12.4034336 Z" id="path1141" fill="#000000" transform="translate(11.500000, 13.500000) rotate(34.360856) translate(-11.500000, -13.500000) "></path>
                        <path d="M19.0016342,15.8933589 L19.2695808,15.9156368 L19.3422018,15.9776539 L19.3422018,18.3361085 L19.2695808,18.4068561 L19.0016342,18.428833 L19.0016342,18.6455917 L20.2816247,18.6455917 L20.2816247,18.428833 L20.0047346,18.4068561 L19.9321136,18.3361085 L19.9321136,17.3405239 L20.0093852,17.3405239 C20.467649,17.3405239 20.5857029,17.5307899 20.7262943,17.9510608 C20.7989154,18.1633037 20.8396976,18.3626012 21.0758054,18.5396208 C21.1849159,18.6236148 21.3526955,18.6766002 21.548021,18.6766002 C21.6886125,18.6766002 21.842798,18.6633538 22.0016342,18.6413769 L22.0016342,18.428833 L21.9426073,18.428833 C21.638529,18.428833 21.5025882,18.3626012 21.4070718,18.1190488 C21.3208567,17.8980754 21.2847251,17.6590387 21.1437759,17.464257 C21.0396738,17.3227618 20.8851305,17.2387678 20.6672674,17.1899971 C21.1802653,17.0969715 21.4482118,16.8404738 21.4482118,16.4334492 C21.4482118,15.9421296 21.0851067,15.6766002 20.3814339,15.6766002 L19.0016342,15.6766002 L19.0016342,15.8933589 L19.0016342,15.8933589 L19.0016342,15.8933589 Z M20.1018814,15.9436835 C20.6016782,15.9436835 20.8645795,16.1192223 20.8645795,16.4321281 C20.8645795,16.7834654 20.6016782,16.9436835 20.0502764,16.9436835 C19.9933889,16.9436835 19.9316254,16.9436835 19.8645795,16.9397884 L19.8645795,15.9436835 L20.1018814,15.9436835 L20.1018814,15.9436835 L20.1018814,15.9436835 Z" id="path1144" fill="#000000" transform="translate(20.501634, 17.176600) rotate(9.453992) translate(-20.501634, -17.176600) "></path>
                        <path d="M35,15 L35,15.2167587 L35.2679466,15.2390366 L35.3405676,15.3010537 L35.3405676,17.6595083 L35.2679466,17.7302559 L35,17.7522328 L35,17.9689915 L36.2799905,17.9689915 L36.2799905,17.7522328 L36.0031004,17.7302559 L35.9304794,17.6595083 L35.9304794,16.6639237 L36.007751,16.6639237 C36.4660148,16.6639237 36.5840687,16.8541897 36.7246601,17.2744606 C36.7972812,17.4867035 36.8384212,17.686001 37.0741712,17.8630206 C37.1832817,17.9470146 37.3510613,18 37.5463868,18 C37.6869783,18 37.8411638,17.9867536 38,17.9647767 L38,17.7522328 L37.9409731,17.7522328 C37.6368948,17.7522328 37.500954,17.686001 37.4054376,17.4424486 C37.3192225,17.2214752 37.2830909,16.9824385 37.1424994,16.7876568 C37.0380396,16.6461616 36.8834963,16.5621676 36.6659909,16.5133969 C37.1786311,16.4203713 37.4465776,16.1638736 37.4465776,15.756849 C37.4465776,15.2655294 37.0834725,15 36.3797997,15 L35,15 L35,15 L35,15 Z M36.1043436,15.2125062 C36.6041404,15.2125062 36.8670417,15.388045 36.8670417,15.7009508 C36.8670417,16.0522881 36.6041404,16.2125062 36.0527386,16.2125062 C35.9958511,16.2125062 35.9340876,16.2125062 35.8670417,16.2086111 L35.8670417,15.2125062 L36.1043436,15.2125062 L36.1043436,15.2125062 L36.1043436,15.2125062 Z" id="path1147" fill="#000000" transform="translate(36.500000, 16.500000) rotate(-8.319759) translate(-36.500000, -16.500000) "></path>
                    </g>
                    <path d="M28.1868037,70 C28.1868037,70 2.85947921,63.1150355 3.00058744,36.9204967 L3.00058744,0.000323861165 L52.6261084,0 L52.9994038,36.7213221 C53.140512,62.9158609 28.1868037,70 28.1868037,70 L28.1868037,70 L28.1868037,70 L28.1868037,70 Z" id="path700" fill="#FFFFFF"></path>
                    <path d="M37.4859673,64.4266397 C40.8614838,61.9972258 44.5305039,58.5412786 47.3350744,53.7849121 L47.3350743,53.7849121 C46.858658,53.450573 45.6969139,52.8172009 43.6350817,52.7203266 C40.8126269,52.5873936 39.6441619,56.2661681 36.6483282,56.9202367 C33.6524944,57.5743053 30.5598761,53.9908957 28.2886444,53.9908957 C25.9536374,53.9908957 22.6110458,57.4038044 19.8802478,56.9202367 C17.1497703,56.4366691 14.7186198,53.5635195 12.3909839,53.9908957 C10.8413934,54.2752407 9.845049,54.6852802 9.3521918,54.9275749 C12.2411737,59.3602941 15.8842617,62.5708115 19.1944066,64.8213302 C23.3997592,64.5027002 25.0883764,61.1143652 28.3686758,61.002836 C31.7484695,60.887924 33.0075169,64.3026375 37.4859673,64.4266397 L37.4859673,64.4266397 L37.4859673,64.4266397 Z M28.2331856,69.3388164 C28.1986249,69.3501247 28.1808594,69.3556641 28.1808594,69.3556641 C28.1808594,69.3556641 28.1781474,69.3548533 28.1727808,69.3532179 C28.1921089,69.3488687 28.2122508,69.3440649 28.2331856,69.3388164 L28.2331856,69.3388164 L28.2331856,69.3388164 Z M49.8390385,48.5026506 C50.5748755,46.5049347 51.1546387,44.334122 51.5276083,41.9782161 L51.5276089,41.9782129 C49.7186108,41.6853589 47.1079529,38.6668757 44.922824,38.6668757 C41.9607403,38.6668757 40.3759148,42 36.9656528,42 C34.3272713,42 30.1451286,38.6668757 27.8715136,38.6668757 C25.5430393,38.6668757 22.1879574,42 19.9143424,42 C17.6410483,42 14.2307862,38.6668757 11.9571712,38.6668757 C9.9678873,38.6668757 5.82857553,41.0595032 4.42142021,41.7970758 C4.83723023,44.5657156 5.54258529,47.0790787 6.45567649,49.356898 C7.59066819,48.4974744 10.5844144,46.0213842 12.5210982,46.0001493 C14.9221237,45.9738195 16.9331268,49.4397087 20.3398141,49.4397087 C23.7465014,49.4397087 24.8819571,46.026479 28.2886444,46.026479 C31.6748211,46.026479 32.8311078,49.4397087 37.3732507,49.4397087 C40.779938,49.4397087 41.9153937,46.026479 44.752911,46.1867049 C46.558673,46.2886707 48.5961111,47.5782899 49.8390385,48.5026506 L49.8390385,48.5026506 L49.8390385,48.5026506 L49.8390385,48.5026506 Z M4.00298042,35.3334371 L4.18654997,1 L51.81281,1 L51.998542,35.4199059 L51.9066429,35.3720092 C50.9332906,35.410894 48.333086,32 44.922824,32 C41.5125619,32 39.2389469,35.3334379 36.2399695,35.1898147 C33.2409921,35.0461915 31.2817757,32 27.8715136,32 C24.4612516,32 23.3246045,35.3334379 19.9143424,35.3334379 C16.5040804,35.3334379 15.3674333,32 11.9571712,32 C8.54790282,32 7.41092465,35.3314956 4.00298042,35.3334371 L4.00298042,35.3334371 L4.00298042,35.3334371 L4.00298042,35.3334371 Z" id="path703" fill-opacity="0.996081" fill="#0072C4"></path>
                    <g id="sheep" transform="translate(9.000000, 4.000000)">
                        <path d="M0.401077194,4.63755333 C0.440864052,4.63755333 0.734131696,4.36384725 1.00269299,4.12245827 C1.37778038,3.9377891 1.72463193,3.67826297 2.1058157,3.50414633 C2.38977835,3.34256081 2.95096556,3.21724959 3.20861755,3.09193837 C3.54648498,2.9181515 3.82210523,2.71798331 4.11120167,2.37040956 C4.14585474,1.90939618 4.2116314,1.57831075 4.2116314,1.03089858 C4.61046256,0.842272213 4.96437308,0.65925188 5.31443325,0.515473744 C5.81626104,0.376642103 5.92503317,0.179441815 6.41755597,0.103265784 C6.73456738,-0.00555711682 7.25853463,4.89114286e-05 7.72089642,4.89114286e-05 C8.21983645,4.89114286e-05 8.53460183,0.348611962 8.9828457,0.431053553 C9.51419277,0.641774262 9.7622189,0.787530997 10.1860773,1.15258237 C10.4254402,1.45036139 10.57432,1.69240991 10.9824562,1.91665104 C11.3055639,2.07955562 11.6081366,2.32622087 11.9851491,2.4317461 C12.3990608,2.66752906 12.7664475,2.80405233 13.087951,3.15327492 C13.3825021,3.35904913 13.5041087,3.66474255 13.7899965,3.87447396 C14.1211258,4.14455262 14.4352495,4.38759043 14.7926895,4.59600277 C15.2223234,4.87894232 15.6481069,5.09394999 16.3440561,5.03228368 C16.7124054,5.01084886 17.1089905,4.9692983 17.5472877,5.04976129 C18.0378853,5.04976129 18.516611,5.04118737 18.9510579,5.15297817 C19.4625115,5.15297817 19.8764232,5.22091004 20.354828,5.25586527 C20.8030719,5.33830687 21.259979,5.35908215 21.7585982,5.35908215 C22.1933659,5.47054318 22.6717708,5.46196925 23.1623684,5.46196925 L24.5661386,5.46196925 L25.9699087,5.46196925 C26.4807207,5.46196925 26.9979498,5.48241477 27.3736789,5.56518613 C27.8796779,5.56518613 28.3147665,5.51868907 28.7774491,5.46196925 C29.3219515,5.46196925 29.7371466,5.36402864 30.281649,5.35908215 L31.9863875,5.35908215 C32.424043,5.47680874 32.983305,5.5576015 33.289728,5.77129011 C33.691126,5.88374044 33.8910229,6.07071797 34.292421,6.18349806 C34.5998065,6.33848826 35.0666604,6.58383443 35.2951139,6.90469711 C35.578114,7.19555105 35.8688148,7.61204597 36.0972683,8.03843388 C36.3764181,8.43415352 36.4826233,8.88659298 36.6988841,9.37794486 C36.8134318,9.84885124 36.8933263,10.296674 36.8994227,10.8206727 C37.0081949,11.2675061 36.9998524,11.7591878 36.9998524,12.2634006 C36.8853048,12.7333177 36.8602776,13.2563271 36.6988841,13.7061284 C36.6815576,14.2090221 36.5792027,14.6640997 36.4983455,15.0459692 C36.409146,15.4677404 36.3042242,15.7391381 36.2978069,16.2825931 L36.2978069,17.7253209 C36.2625121,18.1985357 36.1572695,18.5461094 36.0972683,19.0648319 C35.8546968,19.514963 35.6223929,20.0412701 35.3955437,20.6107766 C35.0618474,20.8393047 34.7724301,21.1644544 34.5933893,21.4351926 C34.3793745,21.5651205 34.2555219,21.7623208 34.292421,21.8474005 C34.6931773,21.9845833 34.5933893,22.2586192 34.5933893,22.7747035 C34.6453689,23.172072 34.684514,23.664743 34.7939279,24.1145443 C34.8305061,24.6065557 34.9376739,24.9073026 35.0945753,25.2479513 C35.2527602,25.4510874 35.2835629,25.3511682 34.8940367,25.3511682 C34.6042986,25.57442 34.3110309,25.4576827 34.1923121,25.0418473 C33.9584039,24.7645138 33.881397,24.4288116 33.7912349,23.9084403 C33.7357258,23.4312684 33.6580773,22.9662978 33.4902666,22.6718164 C33.4389287,22.0910979 33.2817064,22.0970337 32.6881122,22.0535045 C32.4057538,21.8074988 32.0329125,21.7441836 31.4848806,21.7441836 C30.9390948,21.7441836 30.8932115,21.6894424 30.8832648,22.2596085 L30.8832648,23.7023363 C30.7889315,24.1204801 30.5819756,24.4594799 30.4821876,24.8357433 C30.1831445,25.0510808 30.0275265,25.4125047 29.6800332,25.6601592 C29.5144686,26.1280977 29.2738222,26.20955 28.7774491,26.2784712 C28.6038629,26.0654421 28.3208628,25.7874491 28.1758333,25.5572721 C28.4565874,25.0942802 28.7017257,25.0243697 28.8778788,24.5267522 C29.090931,24.1165229 29.2160671,23.8504014 29.3790649,23.4962323 C29.1650501,23.1724018 28.9728539,23.0263153 28.7774491,22.5685996 C28.6125262,22.3192962 28.3840726,21.7827663 28.276263,21.4351926 C27.9470589,21.3224125 27.4285463,21.3042753 27.1731403,21.1258717 C26.6867139,21.0147404 26.5506685,21.5380797 25.9702296,21.5380797 L24.5664594,21.5380797 C23.9455919,21.5380797 23.7906157,21.8787283 23.2627981,21.8474005 C23.1078219,21.8968655 22.7317719,21.8256359 22.1596754,21.8474005 C21.74063,21.9908489 21.2359144,21.9502876 20.7559052,21.9502876 C20.2473393,21.9440221 19.8311816,21.8289336 19.4525648,21.7441836 C18.9918073,21.6201915 18.5336167,21.4945505 18.0487946,21.4351926 C17.4600133,21.4351926 17.2408647,21.4813598 16.845563,21.7441836 C16.5327228,21.9265444 16.0793451,22.3433691 15.7424403,22.5685996 C15.5999777,22.9105673 15.5258586,23.4893073 15.3413631,23.9084403 C15.234837,24.3104255 15.0615717,24.5653349 14.9402859,24.9389602 C14.8045614,25.2875233 14.6762167,25.6463091 14.6396384,26.1755841 C14.6056271,26.8700721 14.4512926,26.7849923 14.0380227,26.587792 C13.8657199,26.3002358 13.5910622,25.9839898 13.4364069,25.6601592 C13.5275316,25.1358307 13.6302074,24.8749855 13.6369455,24.3206483 C13.5394035,23.9206417 13.3115916,23.9335026 13.0353297,24.2174314 C13.0353297,24.7569292 13.0606777,25.1730943 12.8347911,25.4540553 C12.7218477,25.8797837 12.54024,26.0637933 12.2331753,26.2784712 C12.083012,26.6610002 11.7496366,26.8361061 11.4310209,27 C11.3800039,26.9825224 11.4310209,26.8618279 11.4310209,26.587792 C11.1906954,26.1165559 11.4136944,25.725453 11.4136944,25.1450642 C11.4197907,24.6246929 11.3896297,24.2797572 11.5433225,23.8052234 C11.5433225,23.3056274 11.3074891,22.8304341 11.2304823,22.4657124 C11.0440616,22.0828537 10.9365729,21.8935678 10.4283279,21.7441836 C10.0712088,21.6046925 9.55654652,21.4160661 9.32520519,21.1258717 C9.03418358,20.7548845 8.84840463,20.6022027 8.42294194,20.4046727 C7.96154273,20.240449 7.73758123,20.0900755 7.42024895,19.8892478 C7.1102965,19.5532159 6.85842002,19.4074592 6.71820343,18.9619448 C6.50900157,18.6450393 6.47306505,18.0564064 6.31712624,17.622104 C6.28311489,17.1696646 6.15124071,16.7492125 6.01647877,16.3854802 C5.95679849,15.9330407 5.88428373,15.6019553 5.71551045,15.1488563 C5.6596805,14.7251065 5.53518614,14.2819005 5.41486298,13.8093453 C5.41486298,13.3051325 5.42320539,12.8131211 5.31443325,12.3666175 L5.31443325,10.9238896 C5.24223936,10.5073947 5.21560783,9.89765666 5.11389466,9.58404884 C5.11389466,9.02344602 5.05325178,8.70687031 4.91335606,8.34742497 C4.6839399,7.9833629 4.66532992,7.82012855 4.31174027,7.72911303 C4.05633431,8.04931617 3.63536369,8.17990365 3.10850869,8.24453786 C2.74048025,8.16209627 2.22100507,8.10834435 1.80484737,7.93521701 C1.40280759,7.83793593 1.12782907,7.68162667 0.802154388,7.52300905 C0.624076114,7.25358993 0.41134477,6.94855604 0.200538597,6.69859313 C0.138291417,6.16041442 0.0189308436,5.88341067 0,5.35908215 C0,4.96567087 0.00962585266,5.17441298 0.401077194,4.63755333 C0.401077194,4.63755333 0.00962585266,5.17441298 0.401077194,4.63755333 L0.401077194,4.63755333 L0.401077194,4.63755333 L0.401077194,4.63755333 Z" id="path1019" fill="#BCBCBC"></path>
                        <path d="M6.09859246,8.58189801 C6.12272149,8.55724417 6.14652445,8.53225262 6.17065348,8.50726106 C6.00696738,8.67679838 6.06696387,8.59506923 6.45889753,8.43262411 C6.67801518,8.295846 7.09473,8.05504897 7.25156867,7.91016548 C7.43970987,7.82472138 7.7393663,7.71327254 7.89979172,7.53731847 C8.10064956,7.32522796 8.30118134,7.14927389 8.54834083,6.9402229 C8.83365027,6.70043904 9.09972171,6.62174941 9.41307299,6.41776427 C9.8206579,6.38770686 9.96836668,6.2147923 10.3495401,6.34312732 C10.7072366,6.42350557 10.8555975,6.42586964 11.1422112,6.11921648 C11.4314335,5.93583249 11.7496758,5.75751435 11.8628214,5.44748396 L11.8628214,5 C11.8572782,5.48767308 11.7685877,5.64572779 11.4304553,5.82066869 C11.1947082,6.0881459 10.900921,6.39074637 10.7819062,6.64167511 C10.5530065,6.96994259 10.5044224,7.1536643 10.2774791,7.31340763 C10.0912943,7.54846336 9.77174771,7.67274569 9.70131704,8.05943938 C9.80402844,8.23708207 9.71012087,8.3343465 9.91717401,8.35798717 C10.1258575,8.53562985 10.3430187,8.45997974 10.6377841,8.35798717 C10.9309192,8.02195204 11.0626507,7.80479568 11.2142722,7.46268153 C11.4562146,7.13542722 11.5915328,6.97973658 11.7186993,6.71631206 C11.9691195,6.5363053 12.1282407,6.39614995 12.2231264,6.11921648 C12.5130008,5.95136778 12.7513565,5.77440054 12.9434105,5.59675785 C13.1589414,5.45964201 13.2730652,5.34819318 13.5919596,5.29821006 C13.5873947,5.69908815 13.5273982,5.88855117 13.3757766,6.11921648 C13.3040416,6.53495441 13.3183886,6.73184735 13.4478376,7.01485984 C13.6548907,7.14150625 13.618045,7.25194191 13.7360816,7.53731847 C13.8534661,7.29044242 13.9131365,6.790949 13.9522647,6.49240122 L13.9522647,6.41776427 C13.9522647,6.7440054 13.9822629,7.17696724 13.8802037,7.38804458 C13.8850947,7.82303276 13.982589,8.01722391 14.0963867,8.35798717 C14.217684,8.52245863 14.3034398,8.62917933 14.4566918,8.7311719 C14.4710387,8.30057413 14.5796194,8.01688619 14.6008138,7.61195542 C14.7012427,7.92434988 14.6676577,8.33738602 14.7449358,8.65653495 C14.7710212,9.00776765 14.899492,9.27997298 15.0331799,9.55217832 C15.197192,9.65248227 15.2529496,9.94866599 15.3210978,9.70145221 C15.4916314,9.17629179 15.4958703,8.60182371 15.6093419,8.05943938 C15.6298842,7.78419453 15.6520568,7.37453563 15.7534639,7.16413374 L15.6093419,8.05943938 C15.6298842,7.78419453 15.6520568,7.37453563 15.7534639,7.16413374 L15.7534639,7.08949679 C15.8206339,7.48260723 15.8842172,7.86220871 15.8975859,8.28335022 C15.8975859,8.61938534 15.8757394,8.96149949 15.969647,9.25363053 C16.2093069,9.14387031 16.3482118,8.8861871 16.474074,8.58189801 C16.6661281,8.22120905 16.7975334,8.061128 17.0505622,7.76122931 L16.474074,8.58189801 C16.6661281,8.22120905 16.7975334,8.061128 17.0505622,7.76122931 L17.0505622,7.68659237 C17.0107819,8.03073286 16.9785011,8.35494765 16.9785011,8.7311719 C16.9785011,9.07531239 16.9745883,9.46538332 17.0505622,9.70145221 C17.1353398,10.0972644 17.25142,10.1705505 17.2667452,10.5967579 C17.2667452,10.804458 17.2393555,11.0165485 17.3388062,11.1192165 C17.6492229,11.1995947 17.6502011,11.0206011 17.6991113,10.5967579 C17.7030241,10.1155015 17.827256,9.78723404 17.8429072,9.32826748 C17.8429072,8.76190476 17.9237721,9.39716312 17.9870293,9.62681527 C18.1324555,9.95913543 18.177779,10.2546437 18.2032123,10.5967579 C18.2032123,10.804458 18.1761487,11.0165485 18.2752733,11.1192165 C18.5537353,11.0050659 18.6639463,10.6828774 18.8517614,10.5221209 C18.9952313,10.1685241 19.1435922,10.0124958 19.2841275,9.77608916 C19.6574753,9.69875042 19.6392155,9.54677474 19.6444325,9.10435664 C19.6444325,8.74738264 19.6160646,8.37149612 19.7164936,8.05943938 C19.8319216,7.73522459 19.9408283,7.37419791 20.0047376,7.08949679 C20.1394037,7.00979399 20.28483,7.20702465 20.3647166,7.38804458 C20.5225335,7.62850388 20.5088386,7.97939885 20.5088386,8.35798717 C20.5782911,8.68828099 20.71687,8.94630193 20.8691437,9.25363053 C21.0497853,9.59844647 21.1965159,9.80749747 21.3735708,10 C21.4495446,10.2360689 21.4456318,10.6261398 21.4456318,10.9699426 C21.7263763,10.6541709 21.7801775,10.183384 21.8059369,9.70145221 C21.768113,9.37352246 21.7612656,8.96521445 21.6618148,8.65653495 C21.6504025,8.32792975 21.5910581,7.98851739 21.5176928,7.76122931 C21.2744461,7.64539007 21.2359701,7.54272205 21.4456318,7.23877069 C21.6774661,7.04018913 21.9278863,7.11685241 22.310364,7.16413374 C22.5037222,7.36440392 22.5832828,7.47146234 22.598608,7.91016548 C22.598608,8.30766633 22.6155635,8.61330632 22.74273,8.8804458 C22.8835914,9.0952381 23.0234745,9.24282337 23.102709,9.62681527 C23.2132461,9.72036474 23.2986759,9.87166498 23.4630141,9.70145221 C23.5533349,9.48294495 23.606484,9.03208376 23.6791971,8.80580885 C23.7496278,8.52245863 23.8764682,8.38331645 24.0395022,8.28335022 C24.0395022,8.69875042 24.0346112,8.95339412 24.1836242,9.25363053 C24.3248116,9.58696386 24.422632,9.71225937 24.5439293,10.0746369 C24.6975073,10.1806822 24.7170714,10.4093212 24.9042344,10.5221209 C24.9482535,10.1715637 24.9762954,9.77034786 24.9762954,9.32826748 L24.9762954,8.28335022 C25.0027069,7.92772712 25.089767,7.72779466 25.1924784,7.46268153 C25.4246388,7.74907126 25.4086614,7.86761229 25.4086614,8.28335022 C25.6457128,8.19587977 25.6854931,8.02735562 25.7686404,7.76122931 C25.9378697,7.61364404 25.9841713,7.5447484 26.0568845,7.91016548 C26.107425,8.30057413 26.2036151,8.65214455 26.2730675,9.02971969 C26.4214284,9.2019588 26.5926141,9.61904762 26.7774946,9.77608916 C26.904335,9.98953056 27.0468267,10.1958798 27.2098607,10.3731847 C27.3220281,10.6187099 27.350722,10.7470449 27.6422268,10.8206687 C27.6422268,10.3157717 27.6591823,9.80918609 27.5701658,9.32826748 C27.5701658,8.89935832 27.4756061,8.74636947 27.4260437,8.35798717 C27.3060507,8.10064168 27.235294,7.72137791 27.2819217,7.61195542 C27.619402,7.94360014 27.7720018,8.13610267 27.9304708,8.50726106 C28.099374,8.86592367 28.2418657,9.10705843 28.3625108,9.47754137 C28.5291316,9.61904762 28.824223,10.0439041 28.9389989,10.2239108 C29.1962665,10.4515366 29.3214766,10.6886187 29.5875481,10.8953056 C29.7251487,11.0236407 30.0160013,11.0952381 30.0919751,11.0445795 C30.0786064,10.6068896 30.0114364,10.2313408 29.8757921,9.85072611 C29.8709011,9.43296184 29.774385,9.20601148 29.6596091,8.95508274 C29.376256,8.71293482 29.1613773,8.54778791 29.01106,8.20871327 C28.8995447,8.11415062 28.8776982,8.04356636 28.8669379,7.83586626 C29.2810442,8.17527862 29.5702665,8.47787909 29.8757921,8.8804458 C30.0821931,9.14555893 30.187187,9.26578858 30.4522802,9.40290442 C30.5957501,9.56231003 31.0140953,9.76089159 31.3166863,9.85072611 C31.4983061,10.0891591 31.7409007,10.2262749 32.0372964,10.2985478 L31.3166863,9.85072611 C31.4983061,10.0891591 31.7409007,10.2262749 32.0372964,10.2985478 L32.0372964,10.3731847 C32.0011029,9.90645052 31.8279608,9.56534954 31.6049303,9.17899358 C31.4171152,8.77068558 31.2452774,8.61938534 30.9563812,8.35798717 C30.767914,8.06247889 30.556948,7.88821344 30.2360972,7.68659237 C30.0371957,7.45491388 29.7394957,7.07024654 29.5875481,6.9402229 C29.894704,6.74907126 30.2556612,7.06957109 30.5964022,7.23877069 C30.8774728,7.54069571 31.1402835,7.93414387 31.3166863,8.13407633 C31.5087403,8.5177305 31.6557969,8.75481256 31.9652354,9.10435664 C32.2756521,9.28672746 32.491183,9.46707194 32.7579066,9.70145221 C33.1707086,9.81458967 33.0060443,9.66497805 32.9020286,9.32826748 C32.7595369,8.90712597 32.8863773,8.9003715 33.1902726,9.17899358 C33.3908044,9.32049983 33.6141609,9.556231 33.9105567,9.70145221 C34.0387014,9.86592367 34.2320597,9.95710908 34.4149838,9.85072611 C34.4912837,9.7453563 34.4870448,9.75717663 34.4870448,9.62681527 C34.3354232,9.16379601 34.1945619,8.80310706 33.8384957,8.65653495 C33.6754617,8.45052347 33.4100424,8.20533604 33.1902726,7.98480243 C33.0468027,7.76629517 32.8795299,7.64032421 32.7579066,7.38804458 L33.1902726,7.98480243 C33.0468027,7.76629517 32.8795299,7.64032421 32.7579066,7.38804458 L32.6858455,7.38804458 C33.1208202,7.4039176 33.2757024,7.51334009 33.6223126,7.68659237 C33.8691461,7.77575144 34.1358696,8.00911854 34.2708618,8.20871327 C34.411397,8.39344816 34.6363839,8.59202972 34.7752888,8.80580885 C34.996689,8.97467072 35.2412399,9.16683553 35.495899,9.32826748 C35.7355589,9.63964877 35.7785999,9.84228301 35.784143,10.2985478 C35.9223958,10.5096251 35.947177,10.9412361 36,11.1938534 C35.947177,11.6041878 35.8053374,11.2819993 35.784143,11.0445795 C35.7231683,10.7149612 35.5963279,10.7321851 35.351777,10.8206687 C35.351777,11.2715299 35.4019914,11.3947991 35.56796,11.7163121 C35.5229626,12.0243161 35.4195991,12.2495778 35.2797159,12.4626815 C35.1114649,12.5619723 35.0752713,12.2431611 34.9194109,12.0894968 C34.9027814,11.6278284 34.7717021,11.5771699 34.4870448,11.3431273 C34.4870448,11.1688619 34.4870448,11.5741304 34.4870448,11.6416751 C34.6477963,11.9601486 34.8173516,12.250591 34.8473499,12.6865924 C34.958539,13.0192503 34.9914719,13.2293144 34.9914719,13.656535 C34.9914719,14.021952 34.9973411,14.3779129 34.9194109,14.7014522 C34.9194109,15.106383 34.8519148,15.279973 34.8473499,15.6717325 L34.8473499,16.7163121 L34.8473499,17.7612293 C34.7919183,18.0253293 34.7752888,18.3694698 34.7752888,18.7311719 L34.8473499,17.7612293 C34.7919183,18.0253293 34.7752888,18.3694698 34.7752888,18.7311719 L34.7752888,18.8058088 C34.6383403,18.4309355 34.4893273,18.0915231 34.4149838,17.6865924 C34.1815191,17.4576157 34.0331582,17.2215468 33.9105567,16.9402229 C33.8554512,16.6200608 33.820888,16.2289767 33.7664347,15.9699426 C33.6650275,15.7071935 33.5574251,15.4265451 33.3340686,15.5970956 C33.2457042,16.1533266 33.3572194,16.4846336 33.5502516,17.0148598 C33.6633972,17.3664303 33.6510066,17.6426883 33.7664347,17.9851402 C33.9333814,18.3796015 34.0677214,18.4363391 33.7664347,18.8804458 C33.6177477,19.1171901 33.5381871,19.1921648 33.4781906,19.4775414 C33.2117931,19.6156704 33.1449492,19.6771361 33.1182116,20 C33.0285429,19.7095576 32.8107296,19.3694698 32.6858455,19.0297197 C32.5567226,18.672408 32.3972754,18.3053023 32.3255405,17.9851402 C32.1507681,17.7352246 31.9456713,17.3309693 31.7490524,17.1641337 C31.5680847,16.922999 31.3082085,16.5211077 31.1725643,16.2684904 C30.8967108,15.9500169 30.8357361,15.7656197 30.5964022,15.5970956 C30.5347754,15.4481594 30.4614101,15.2620736 30.3081582,15.3731847 C30.3081582,15.7301587 30.2797903,16.1057075 30.3802192,16.4177643 C30.4529323,16.8578183 30.580751,17.1019926 30.5964022,17.5373185 L30.5964022,18.3583249 C30.4232602,17.9378588 30.2383796,17.5626478 30.0919751,17.1641337 C29.9344843,16.9412361 29.7805803,16.5072611 29.5875481,16.3431273 C29.4649465,16.0536981 29.3694086,15.8135765 29.227243,15.5970956 C29.1903973,15.3802769 29.0935551,15.382641 29.01106,15.2239108 C29.015951,15.6470787 29.145726,15.7953394 29.227243,16.1192165 C29.3677783,16.4035799 29.4127756,16.8801081 29.371365,17.0148598 C29.1897452,16.4917258 29.0254069,15.9199595 28.7948769,15.4478217 C28.5764114,15.1411685 28.363163,14.7470449 28.2183888,14.4775414 C28.0041622,14.2212091 27.7837403,14.212766 27.5701658,14.0297197 C27.3755032,13.9341439 27.1893184,13.8274232 27.0657387,13.656535 C27.1224745,14.0499831 27.2705093,14.295846 27.3539827,14.6268153 C27.4012626,15.0020263 27.5678833,15.3026005 27.6422268,15.5970956 C27.5620141,16.1077339 27.4456078,15.4555893 27.3539827,15.2239108 C27.2780089,14.8037825 27.1374736,14.5704154 26.9936777,14.3282675 C26.8006454,14.1921648 26.6248948,13.9506923 26.4171896,13.8058088 C26.2150274,13.7254306 26.2730675,13.820331 26.2730675,14.1043566 C26.2730675,14.566025 26.2900231,14.8709895 26.4171896,15.1492739 C26.5609855,15.3681189 26.5613116,15.6534954 26.5613116,16.0445795 C26.5485949,16.412023 26.4892506,16.7068558 26.4892506,17.0894968 L26.4892506,17.6865924 C26.3239341,17.369132 26.1667694,17.1891253 26.0568845,16.790949 C25.8067904,16.4522121 25.732773,16.2033097 25.5524574,15.8210064 C25.3926841,15.7544748 25.1324819,15.6994259 24.9762954,15.8210064 C25.0043372,16.1985816 25.1729143,16.3647416 25.1924784,16.790949 C24.9052126,17.0824046 24.9570574,17.1654846 24.7601123,16.7163121 C24.5957741,16.3762242 24.4043722,16.3920973 24.1836242,16.1938534 C23.8220149,16.1472476 23.9367908,15.9179331 23.8233192,15.5970956 C23.8233192,15.3096927 23.8520131,15.019588 23.7512581,14.7760892 C23.3563899,14.7760892 23.1297727,14.7619048 22.8868521,15 C22.7724022,15.2364066 22.8128346,15.6632894 22.8868521,15.9699426 L22.8868521,17.0148598 C22.8046829,17.276258 22.641975,17.2904424 22.598608,17.6119554 C22.459377,17.9304289 22.4134014,18.2819993 22.310364,18.5075988 C22.0537485,18.7369132 22.1652637,18.7659574 22.0221199,18.3583249 L22.0221199,17.0148598 L22.0221199,15.9699426 C22.0221199,15.5643364 22.0811382,15.366768 22.0941809,15 C21.9448418,14.6906451 21.9040833,14.6325566 21.4456318,14.6268153 C21.3341166,14.8196555 21.3765054,15.1776427 21.4456318,15.3731847 C21.4456318,15.7348869 21.4622613,16.0793651 21.5176928,16.3431273 C21.5176928,16.739615 21.5649727,16.9797366 21.5897538,17.3134076 C21.576059,17.7088821 21.5017155,18.0243161 21.3015098,18.209051 C21.0416336,18.276258 21.2731419,18.440054 21.0132657,18.5075988 C20.7527374,18.3782506 20.4465597,18.2022965 20.2209207,17.9851402 C19.9408283,17.8966565 19.6767133,17.8358663 19.2841275,17.8358663 C18.806438,17.8297872 18.7982863,17.7723742 18.6355784,17.3880446 C18.4894999,16.9770348 18.4206996,16.6193853 18.3473343,16.1938534 C18.1888653,15.8446471 18.1516936,15.6065518 18.0590903,15.2239108 C17.9381191,14.9959473 17.8089962,14.8237082 17.6270503,14.7014522 C17.5227085,15.0786896 17.4245621,15.3944613 17.4108672,15.8210064 C17.3264156,15.9956096 17.308808,16.4403918 17.2667452,16.6416751 C17.121971,16.4208038 17.0652352,15.9864911 16.9785011,15.6717325 C16.8418787,15.2191827 16.7251464,14.9253631 16.257891,15.0746369 C15.773028,15.080716 15.7593331,15.0945626 15.7534639,15.5970956 C15.9621474,15.9209726 16.1851779,16.2353934 16.329952,16.4924012 L16.329952,17.5373185 C16.329952,17.9685917 16.3553853,18.0935495 16.041708,18.209051 C15.9223671,17.7612293 15.6690123,17.3336711 15.3931589,16.9402229 C15.355335,16.6359338 15.2607753,16.7163121 14.9611188,16.7163121 C14.7605871,16.7163121 14.5558164,16.688281 14.4566918,16.790949 C14.4566918,17.0509963 14.4782122,17.412023 14.4566918,17.4626815 C14.2828975,17.4944276 14.2127929,17.4609929 14.0963867,17.3134076 C13.9705245,17.530564 14.0654102,17.8365417 14.0963867,18.134414 C14.0047616,18.4663965 13.8955288,18.7696724 13.7360816,18.9550827 C13.704127,18.855792 13.632066,18.8804458 13.7360816,18.8804458 C13.2414366,18.6923337 12.85472,18.5761567 12.4393095,18.4329618 C12.1892154,18.4650456 12.0075955,18.6930091 11.8628214,18.8804458 C11.4966471,19.0023641 11.3345913,19.0992908 10.9260282,19.1043566 C10.5340945,19.1043566 10.3433448,19.1654846 9.98923502,19.1789936 C9.73457597,19.2364066 9.40198668,19.2536305 9.05276792,19.2536305 C8.85908357,19.1965552 8.52062506,19.1948666 8.40421881,19.1043566 C8.55290579,18.8844985 8.71854829,18.7733874 8.83658489,18.4329618 C9.03385598,18.2938197 9.2187365,18.1155015 9.41307299,17.9105032 C9.60317059,17.7764269 9.82587499,17.498818 9.98923502,17.3134076 C10.1017285,16.9540696 10.2562847,16.8919284 10.4936621,16.7163121 C10.9221154,16.7328605 11.0055888,16.8676123 11.4304553,16.9402229 C11.8452137,17.0959135 12.0747655,17.141844 12.2951874,16.865586 C12.6391891,16.7213779 12.931346,16.4961162 13.3037155,16.4177643 C13.5922857,16.2749071 13.7771662,16.1361027 14.0243257,15.9699426 C14.3308295,15.787234 14.476908,15.5994596 14.7449358,15.3731847 C14.8215618,15.0688956 15.038723,14.8338399 14.9611188,14.4775414 C14.5711416,14.376562 14.323656,14.4170888 14.0963867,14.6268153 C13.781079,14.8841608 13.7214086,14.9912192 13.3757766,15.2239108 C13.0774244,15.3080041 12.9499318,15.4380277 12.5831054,15.5224586 C12.2821447,15.6264775 11.9192311,15.5970956 11.5745773,15.5970956 C11.2595957,15.5970956 10.8415766,15.566025 10.6377841,15.6717325 C10.9583089,15.4579534 11.3433951,15.2357312 11.6466383,15.1492739 C11.9374909,14.9557582 12.0473758,14.8578183 12.4393095,14.8507261 C12.6212554,14.6149949 12.8087444,14.6092536 12.8713495,14.2536305 C12.9932989,13.8122256 12.6056041,13.9520432 12.2951874,14.1043566 C12.0023784,14.157717 11.6792451,14.363053 11.4304553,14.4775414 C11.1901432,14.5606214 10.8389681,14.6224249 10.4936621,14.6268153 C10.4026892,14.4924012 10.5647449,14.3850051 10.6377841,14.1789936 C10.9742862,14.0607903 11.0284135,14.0172239 11.0701502,13.656535 C10.6886507,13.7088821 10.5428984,13.8331645 10.2054181,13.8804458 C9.83761344,13.9756839 9.45611396,14.0178994 9.05276792,14.0297197 L8.04391374,14.0297197 C7.68980397,14.0162107 7.49905423,13.9550827 7.10744664,13.9550827 C6.82050686,13.8064843 6.81920259,13.7359 6.81920259,13.2833502 C7.04516767,13.0260047 7.26493746,13.0597771 7.68360868,13.0597771 C8.00608986,12.9027356 8.2568361,12.8193178 8.47627982,12.6865924 C8.73713417,12.630868 8.91516726,12.5204323 8.83658489,12.3880446 L7.82773071,12.3880446 C7.4393838,12.2252617 7.81012304,12.1506248 8.04391374,12.0148598 C8.39443677,12.0148598 8.75604611,12.035461 8.98070691,12.1641337 C9.41405119,12.1475853 9.56502065,12.0118203 9.91717401,11.7163121 C10.1933535,11.4910503 10.3286717,11.34718 10.6377841,11.1938534 C10.8598364,10.9510301 11.0694981,10.8172915 11.2142722,10.5967579 C11.510668,10.3174603 11.7069609,10.1624451 11.8628214,9.92536305 C12.0535711,9.82134414 12.1699774,9.68693009 12.0790044,9.55217832 C11.6274003,9.60655184 11.4448023,9.76933468 11.1422112,10 C10.9664606,10.1732523 10.7959271,10.3286052 10.5657231,10.4478217 C10.2412855,10.6386356 10.0391234,10.7159743 9.62925603,10.7460317 C9.25949499,10.7460317 8.97516376,10.684566 8.62040185,10.6713948 C8.22912033,10.630868 8.58942539,10.5406957 8.69246286,10.3731847 C8.84375838,10.2684904 8.96179497,10.0361364 8.83658489,9.85072611 C8.53529812,9.74670719 8.17271058,9.77608916 7.82773071,9.77608916 L6.81920259,9.77608916 C6.43835525,9.76156704 6.27727769,9.67510976 6.02653145,9.55217832 C5.94892728,9.3427896 6.04055237,9.40290442 6.3147755,9.40290442 C6.66203785,9.38939547 6.90821914,9.34245187 7.25156867,9.25363053 C7.59035325,9.15805471 7.63274208,9.04626815 7.68360868,8.65653495 C7.35134546,8.65653495 6.97506306,8.66058764 6.74714158,8.58189801 L6.09859246,8.58189801 L6.09859246,8.58189801 L6.09859246,8.58189801 Z" id="path1022" fill="#FEFEFE"></path>
                        <path d="M0.20055834,6.23108758 C0.138305031,5.73046922 0.0189327073,5.47279801 0,4.98506322 C0,4.61910874 0.00962680031,4.81328241 0.401116679,4.31389106 C0.440907454,4.31389106 0.73420397,4.05928736 1.0027917,3.8347453 C1.37791602,3.66296449 1.72480172,3.42155111 2.10602301,3.25958634 C2.39001362,3.10927814 2.95125608,2.99271259 3.20893344,2.87614704 C3.54683413,2.71448903 3.82248151,2.5282909 4.11160641,2.20497488 C4.14626289,1.77613636 4.21204603,1.46815791 4.21204603,0.958950512 C4.61091645,0.783488686 4.96486181,0.613241635 5.31495645,0.479498005 C5.81683364,0.350355647 5.92561648,0.166918283 6.41818777,0.0960586998 C6.73523039,-0.00516927673 7.25924922,4.54978217e-05 7.72165653,4.54978217e-05 C8.22064568,4.54978217e-05 8.53544205,0.324281774 8.98373005,0.400969635 C9.51512942,0.596983808 9.76317998,0.732567946 10.1870801,1.07214179 C10.4264665,1.34913835 10.575361,1.57429391 10.9835374,1.78288489 C11.306677,1.9344201 11.6092794,2.16387018 11.9863291,2.26203065 C11.989538,2.60804628 12.0700822,2.54822974 11.79989,2.54822974 C11.7713305,2.90283441 11.6785923,2.88074831 11.303468,2.88719009 C11.0159476,2.74424392 10.8108967,2.55191076 10.6652112,2.34485354 C10.807046,1.99270288 10.7130243,2.62982563 10.6652112,2.75160595 C10.4829437,2.88872385 10.3744818,3.03473753 10.1687892,2.88719009 C10.0535885,2.55651203 9.95635777,2.32798221 9.95635777,1.93840787 C9.90244769,1.51478413 9.77280678,1.82214908 9.67268806,2.00619994 C9.57674095,2.34792105 9.62038244,2.47154188 9.74360548,2.75160595 C9.38195869,2.75160595 9.10470684,2.7203173 8.82167891,2.68381388 C8.55854637,2.62399735 8.2630036,2.6976177 7.97066976,2.81939802 C7.59939616,3.03259027 7.71491777,3.03412403 7.89975233,3.2939425 C8.22738444,3.38228692 8.46292015,3.54823945 8.75076148,3.70069492 C9.07807269,3.64118514 9.4198241,3.57462008 9.74360548,3.49731871 C10.0815062,3.38964895 10.3908474,3.45805453 10.7361286,3.49731871 C10.9074856,3.57922135 11.1327528,3.59578593 11.2325506,3.70069492 C11.2325506,3.91020616 11.2508415,4.12922669 11.1616332,4.24303147 C11.0140222,4.33260289 10.8741127,4.58076481 10.6652112,4.64947714 C10.3526611,4.81328241 10.0247081,4.91635089 9.67268806,4.98843748 C9.23819847,5.0034683 9.07935626,5.09058571 8.75076148,5.25960576 C8.6968514,5.60224712 8.58742677,5.69887383 8.25433948,5.80194231 C7.92285665,5.93415218 7.65940322,6.00531852 7.26181637,6.00531852 C7.06446696,6.00531852 6.86294594,6.03077889 6.76539436,5.93752645 C7.08115341,5.6080754 7.17613784,5.45285917 7.33273379,5.12402162 C7.39402442,4.98690372 7.52238176,4.89886606 7.40365122,4.78506127 C6.98360184,4.80009209 6.87385631,4.79763808 6.83631179,5.19181369 C6.78881958,5.54887237 6.63864149,5.6086889 6.33988979,5.73415024 C6.42043402,5.40347219 6.43391154,5.14948199 6.55264208,4.85285334 C6.30170348,4.90500109 5.97471316,4.92064541 5.6307155,4.92064541 C5.41603785,5.0451865 5.32650861,5.09365323 5.41796321,5.32739783 C5.13300992,5.41819625 4.78612422,5.36236749 4.4254401,5.32739783 C4.12412125,5.31236701 4.290344,5.18751917 4.07085296,5.05622955 C3.92709274,4.79825159 3.76183267,4.73536754 3.4325961,4.7172692 C3.26926138,4.90408083 2.96665896,4.9813822 2.79433924,5.12402162 C2.48371448,5.22310234 2.28604418,5.14089295 2.01456841,4.98843748 C1.66030216,4.99856028 1.70779437,5.10285577 1.80181612,5.32739783 C1.93691222,5.41359498 1.7934729,5.50746092 2.01456841,5.53077403 C2.21833568,5.69979408 2.39258077,5.73415024 2.79433924,5.73415024 C3.10175506,5.66083665 3.44029754,5.66635817 3.78718324,5.66635817 C4.13727788,5.67617422 4.07085296,5.75194183 4.07085296,6.07311059 C3.842056,6.22127154 3.50864782,6.20869473 3.14892638,6.20869473 C2.80685408,6.16973729 2.54436332,6.08875491 2.29823813,6.00531852 C1.96611352,5.98261891 1.70041383,5.92464289 1.44722898,6.00531852 C1.33299095,6.12096381 0.988993285,6.1715778 1.37631155,6.20869473 C1.52873589,6.33998434 2.34926017,6.2764868 2.40766276,6.49980185 C2.60116144,6.69642952 2.55816174,6.95440749 2.2273207,6.95440749 C2.02644146,6.85839428 1.87144998,6.88201415 1.7308987,6.95440749 C1.49472119,7.01084975 1.21426041,6.96974506 0.802233359,6.99796619 L0.802233359,6.99796619 C1.3403715,7.03845738 0.411385266,6.46360518 0.20055834,6.23108758 C0.20055834,6.23108758 0.411385266,6.46360518 0.20055834,6.23108758 L0.20055834,6.23108758 L0.20055834,6.23108758 L0.20055834,6.23108758 Z" id="path1023" fill="#FEFEFE"></path>
                        <path d="M6,1.11111111 C6.05226337,1.11111111 6.15884774,1.28481649 6.36337449,1.38888889 C6.49423868,1.60206134 6.61481481,1.75263952 6.63621399,2 C6.74773663,1.72850679 6.9382716,1.51030669 7,1.22222222 C6.85843621,1.07591755 6.84897119,1.0072901 6.45432099,1 C6.45432099,1.15007541 6.48436214,1.0520362 6,1.11111111 C6,1.11111111 6.48436214,1.0520362 6,1.11111111 L6,1.11111111 L6,1.11111111 L6,1.11111111 Z" id="path1026" fill="#BCBCBC"></path>
                        <path d="M4.03998993,3.6469275 C3.85390949,3.6469275 4.36807912,3.51594465 4.539469,3.47042012 C4.6765809,3.26622531 4.78544173,3.12166497 5.03894807,3 C5.455934,3.02262915 5.66047181,3.10755502 5.8714132,3.29391274 C6.22172657,3.36153397 6.34791473,3.47947178 6.78712483,3.52925591 C6.95022773,3.62669438 7.17096282,3.63787584 6.78712483,3.70576329 C6.52608486,3.80320176 6.19799567,3.82343488 5.78816668,3.82343488 C5.35875029,3.84526535 5.05213191,3.91208791 4.78920854,3.99994226 C4.23209726,3.99994226 4.32137067,4.0129873 4.03998993,3.6469275 C4.03998993,3.6469275 4.32137067,4.0129873 4.03998993,3.6469275 L4.03998993,3.6469275 L4.03998993,3.6469275 L4.03998993,3.6469275 Z" id="path1024" fill="#C4C4C2"></path>
                        <path d="M7.00007977,1.01983745 L7.00007977,1.07749407 C7.00007977,0.92200382 6.99304162,1.00131428 7.11118202,1.30812055 C7.29467668,1.50143981 7.33338652,1.70884711 7.33338652,2 C7.62496707,1.89199167 7.86828602,1.67649679 8,1.48109042 C8,1.02583792 7.8758269,1.05270955 7.00007977,1.01983745 C7.00007977,1.01983745 7.8758269,1.05270955 7.00007977,1.01983745 L7.00007977,1.01983745 L7.00007977,1.01983745 L7.00007977,1.01983745 Z" id="path1027" fill="#BCBCBC"></path>
                        <path d="M10.0366072,9.68823406 L10.118934,9.68823406 C9.87679636,9.68823406 10.0131385,9.70363977 10.4482413,9.41944497 C10.7298661,9.21511661 10.9604556,8.91308362 11.3538362,8.79227043 C11.7349237,8.46672346 12.0280966,8.31428802 12.4237123,8.16550129 C12.6166774,8.0690129 12.7869188,7.90157716 13,8.07590493 C12.9389068,8.51780555 12.8685006,8.68483587 12.5060391,8.88186679 C12.3186618,9.13727724 12.0236263,9.28646937 11.7654703,9.41944497 C11.4976288,9.54755561 11.2029658,9.55404222 11.1068558,9.86742679 C10.6590873,10.0818905 10.6039545,10.0458087 10.0366072,9.68823406 C10.0366072,9.68823406 10.6039545,10.0458087 10.0366072,9.68823406 L10.0366072,9.68823406 L10.0366072,9.68823406 L10.0366072,9.68823406 Z" id="path1028" fill="#BCBCBC"></path>
                        <path d="M11,11.7583369 C11.1371707,11.6676002 11.6190089,11.2474098 11.8460021,11.0857278 C12.1029361,10.7894631 12.3626552,10.5629257 12.6154114,10.4128142 C12.8396194,10.1241616 13.1268423,9.93081312 13.3078798,9.67260915 C13.5216433,9.4463762 13.6790066,9.25485462 13.9234072,9 C13.9234072,9.29413329 13.8913775,9.68417961 14,9.87448325 C14,10.2809718 13.9463851,10.3921091 13.7695254,10.6819796 C13.5947546,10.9200875 13.4645468,11.0778112 13.077057,11.2203105 C12.7275154,11.382297 12.5179297,11.4392358 12.2307067,11.6237542 C12.011721,11.7415902 11.7836834,11.8588173 11.5382384,11.960211 C11.3182082,12.0427267 11.4191714,12.0067974 11,11.7583369 C11,11.7583369 11.4191714,12.0067974 11,11.7583369 L11,11.7583369 L11,11.7583369 L11,11.7583369 Z" id="path1029" fill="#BCBCBC"></path>
                        <path d="M9.03428497,12.8801904 L9.11121665,12.8801904 C8.88494702,12.8801904 9.01200612,12.8903169 9.41894335,12.7035086 C9.74720838,12.4522102 10.0086368,12.364802 10.4190551,12.2323573 C10.7313072,12.2139696 11.1090035,12.1545427 11.3422352,12.0556756 C11.5281244,12.0306257 11.6576203,11.944017 11.8034772,12.0556756 C12.0450635,12.3056416 12.111552,12.376261 11.7265455,12.5268269 C11.5423968,12.6464801 11.2176129,12.7669329 10.9575769,12.8212965 C10.7654217,12.9425486 10.3852887,12.9500103 10.0343968,12.9979782 C9.72005602,12.9979782 9.54530624,13.02516 9.41894335,12.8801904 L10.0343968,12.9979782 C9.72005602,12.9979782 9.54530624,13.02516 9.03428497,12.8801904 C9.03428497,12.8801904 9.54530624,13.02516 9.03428497,12.8801904 L9.03428497,12.8801904 L9.03428497,12.8801904 L9.03428497,12.8801904 Z" id="path1030" fill="#BCBCBC"></path>
                        <path d="M12.000109,13.6666667 L12.000109,13.5833333 C12.000109,13.8159879 11.9898864,13.6926848 12.1674556,13.25 C12.4809465,12.7839367 12.5990735,12.5267722 13.0041886,12.4166667 C13.1938733,12.1881599 13.5225087,12.1289593 13.9245949,12 C14.0752825,12.2503771 13.9594272,12.5422323 13.9245949,12.8333333 C13.815176,13.1444193 13.5168295,13.3638763 13.3388818,13.5833333 C13.078018,13.7598039 12.9716279,13.9294872 12.5858221,14 C12.266652,14 12.4358916,13.9920814 12.000109,13.6666667 C12.000109,13.6666667 12.4358916,13.9920814 12.000109,13.6666667 L12.000109,13.6666667 L12.000109,13.6666667 L12.000109,13.6666667 Z" id="path1031" fill="#BCBCBC"></path>
                    </g>
                    <path d="M13.1526063,28.0004817 L13.4430395,28.0004817 C12.5326429,28.0004817 13.0767125,27.9416185 14.6044441,29.1252458 C15.2444487,28.6088407 15.2368921,28.5391594 15.7661772,29.4065163 C16.0717236,29.9003307 16.1614162,29.356244 16.6371485,28.8442934 C16.8664725,29.8659673 17.0133319,30.9372772 17.7988816,29.9690574 C18.6961365,29.9690574 19.635445,29.8968307 20.1220193,30.250328 C20.7101138,31.3082744 20.5175868,30.0708748 20.9933191,30.5315985 C22.2720141,30.6801883 22.2477018,29.4695158 23.6404016,29.1564273 C24.5061162,30.204192 24.8852565,29.3979255 25.9638679,28.875475 C26.7648592,29.0924733 27.5198543,30.2694188 27.6722989,29.1252458 C28.3280736,28.0892538 28.3852403,28.1773895 28.834032,29.1252458 C29.4717368,29.6814233 29.7404861,28.847157 30.2858699,28.5630228 C31.2580328,29.1137913 32.3422295,29.1901544 33.7707406,28.8442934 C34.0125493,29.7810134 34.6223278,29.3746984 35.2225785,29.1252458 C36.5071872,29.6480145 36.9553218,29.8080587 38.417016,29.1252458 C39.1411279,28.2967067 38.7311045,29.1484729 39.2879873,29.6877869 C40.3708697,29.3622894 40.0718943,29.2932445 41.3210202,29.4065163 C42.5763885,29.4065163 42.6779087,29.3772438 43.0632914,28.5630228 C43.6940967,29.1739272 43.9221065,29.6142874 44.8055625,28.8442934 C46.1591655,28.8827931 45.7405999,29.0097467 46.5481622,28.5630228 C47.1454559,29.8440129 47.2857444,28.9184292 48,29.4065163 C47.5295244,30.5618256 46.8067266,31.103685 45.9672956,31.6563626 C45.4087701,32.5523557 45.0595273,33.5199391 43.9345912,33.906527 C43.1138872,34.7172481 42.2393019,35.187199 41.3210202,35.8751028 C40.062038,36.1799186 38.6762376,36.1563733 37.2552829,36.1563733 L33.1898741,36.1563733 L29.1241367,36.1563733 L25.0587279,36.1563733 C24.1913706,36.5760519 22.7727158,36.7761867 21.5738572,36.9998668 C20.2350386,36.9998668 18.7174919,37.0151394 17.7988816,36.7185962 C17.1762899,36.1159645 16.0842082,35.4423788 15.475744,34.7500205 C14.8600517,34.2692515 14.8423103,33.3309406 14.3140108,32.7814448 C13.8280936,31.9767692 13.6779488,30.7177335 13.1526063,29.9690574 L13.1526063,28.0004817 C13.1526063,28.0004817 13.1526063,28.6565676 13.1526063,28.0004817 L13.1526063,28.0004817 L13.1526063,28.0004817 L13.1526063,28.0004817 Z" id="grass" fill-opacity="0.996081" fill="#005120"></path>
                    <g id="ship" transform="translate(7.000000, 33.000000)">
                        <path d="M13.0062491,19.9364311 L8,18 L8.08045267,18.5754658 L4.31448228,16.9090866 C3.98749575,15.4826109 3.66653927,14.0932078 3.66653927,14.0932078 L3,14 C3,14.1224744 3.23501562,15.2832664 3.4989382,16.5482219 L0,15 C0.210402426,15.190367 0.105020144,15.5714286 0.105020144,15.6664482 C0.105020144,15.7087521 1.78128088,16.4452348 3.64634724,17.2515785 C3.93972619,18.6458308 4.22224345,19.9585743 4.22224345,19.9585743 C4.22224345,19.9585743 5,20.0517821 5,19.9585743 C5,19.9187432 4.75480628,18.8345619 4.47470172,17.6090092 L4.47470172,17.6090092 C5.96969545,18.2529421 7.4462539,18.8832557 8.16639565,19.1902031 L8.28377499,20.0297998 L10.2701999,20.7677645 C10.2701999,20.7677645 11.216225,30.2708459 22.0947001,29.9940695 C31.4727114,29.7554687 35.0156481,22.7974822 35.8145872,20.8825967 L39.9080633,21 L40,20.1251075 L31,20 L31.093601,20.3816794 C30.8615582,20.617115 30.41063,21.0771232 29.7845315,21.6085531 C29.7979973,20.3944016 29.8294673,17.5557422 29.8643137,14.4044196 C31.4787035,14.1412596 33,13.8786061 33,13.8233151 C33,13.70593 33,13 32.904331,13 C32.8602985,13 31.4242198,13.297034 29.8731268,13.6072499 C29.8946931,11.6561047 29.9170624,9.62928332 29.9369014,7.825704 L29.9369014,7.825704 L33.882547,6.6207142 C33.882547,6.6207142 34.0660673,6 33.9743071,6 C33.9278141,6 31.9282651,6.66400049 29.9429153,7.27875907 C29.9506941,6.57099829 29.9580058,5.90453917 29.9646315,5.2989973 L29.9646315,5.2989973 C31.3601665,4.95209806 32.7299672,4.59758847 32.7299672,4.55280396 C32.7299672,4.46256812 33.2718349,3.91959734 32.8203821,4.01014433 C32.6022765,4.05385925 31.2896164,4.45592394 29.9697634,4.82960327 C29.9880818,3.15260547 30,2.04444561 30,2 L29.2223921,2 L29.1901335,5.04610498 C28.0736216,5.34893772 27.1162144,5.5716285 27.0400463,5.45734038 C27.0400463,5.45734038 26.9499421,6 27.0400463,6 C27.0773531,6 28.0526023,5.76902565 29.1854186,5.49132438 L29.1639624,7.51739017 C27.5242185,8.01367095 26.078157,8.408472 26,8.27607071 C26,8.27607071 26.183205,8.58642781 26,8.27607071 L26.0917602,9 L29.1581788,8.06352383 L29.0978381,13.7613664 C27.5214016,14.0725537 26.0445113,14.3488733 26,14.29407 C26,14.29407 26.095669,14.4118599 26,14.29407 L26.095669,15 C26.095669,15 27.5291085,14.780158 29.0897016,14.5296721 L29.0897016,14.5296721 L29.0081674,22.2287728 C27.4667063,23.3847139 25.2570479,24.5994165 22.7566248,24.5505876 C22.4411554,24.544427 22.1399953,24.5337522 21.8523303,24.5189191 C21.8860876,23.1877957 21.9188007,18.4790421 21.9448207,13.6243889 L25,13.3334862 L24.8056763,13 L21.9469495,13.2240911 C21.9586521,11.0064684 21.9689291,8.77695123 21.9772436,6.84253212 C23.9826344,6.24628567 26,5.64283081 26,5.64283081 L26,5 L21.9806605,6.03836342 C21.9836302,5.33128875 21.9863004,4.67397223 21.9886409,4.08370573 L21.9886409,4.08370573 C23.4037078,3.55742221 24.9135599,3 24.9604169,3 C25.0494789,3 24.9604169,2 24.9604169,2 C24.9604169,2 23.4786019,2.59792634 21.9921409,3.18841984 C21.99721,1.87254216 22,1.05974953 22,1.04227447 C22,0.947156912 21.2543703,1.04227447 21.2543703,1.04227447 C21.2543703,1.04227447 21.244527,1.98298766 21.2287581,3.49074512 C20.0697775,3.94812915 19.0722491,4.33333333 19,4.33333333 L19.5337595,5 C19.5337595,5 20.2802535,4.72030433 21.2195619,4.37010429 C21.213583,4.94185005 21.2070162,5.56988149 21.20001,6.24003808 L18.1199211,7.03575378 C18.1199211,7.03575378 17.9324154,8 18.0263296,8 C18.0663386,8 19.5292765,7.56924294 21.1912706,7.07601314 C21.1714284,8.9741739 21.1488141,11.1382794 21.1263625,13.2884156 L21.1263625,13.2884156 L18,13.5334862 L18,14 L21.1220364,13.7027314 C21.0723536,18.4612125 21.0243965,23.0627319 21.0101082,24.4606447 L21.0101082,24.4606447 C17.626844,24.1626598 16.3730718,23.2265916 15.4728498,22.4287406 C14.8476754,21.8742954 14.2565776,21.1533249 13.8843405,20.666157 C13.9249939,19.7884495 13.9513579,17.3570069 13.9684552,14.5725171 L16.9026709,14.2220948 L17,13 C17,13 15.5536953,13.26736 13.9742445,13.551975 C13.9824659,11.981979 13.9880629,10.3488767 13.9918733,8.85292988 C15.9295412,8.29792077 17.8543046,7.75009215 17.9023326,7.75009215 C18,7.75009215 18,7 18,7 C18,7 15.9969111,7.62047655 13.9934235,8.2102616 C13.9958596,7.1413525 13.9973934,6.16255555 13.998359,5.3537874 L15.8816813,4.55573958 C15.8816813,4.55573958 16.1478983,4 15.8816813,4 C15.785448,4 14.9818694,4.29037613 13.9991053,4.65068807 C14,3.68542493 14,3.0958498 14,3.0958498 L13.1425762,3 L13.1267114,4.970948 C11.5833346,5.53715185 9.97734076,6.11884699 10.0249072,5.99974519 C10.0249072,5.99974519 9.93606644,6.22219391 10.0249072,5.99974519 C9.93606644,6.44426042 10.1134427,7 10.1134427,7 L13.120636,5.72571785 L13.098535,8.47141031 C11.533494,8.92363169 10.1600282,9.29388261 10,9.24990785 L10,10 C10,10 11.4415865,9.5844412 13.0933906,9.11051118 L13.0563151,13.7165389 C11.5606504,13.9831301 10.1720061,14.2220948 10,14.2220948 L10.3889818,15 L13.0485408,14.682379 L13.0062491,19.9364311 L13.0062491,19.9364311 L13.0062491,19.9364311 Z M39.6889243,16.7980587 L39.4941246,17.2978137 L39.4941246,18.5794599 C39.4941246,18.5794599 39.7192376,19.6795885 39.810729,20 L32,19.9680323 C32,19.9680323 32.0245615,18.639503 32.0389224,17.9063448 C31.5454762,17.9648159 31.175598,18 31,18 L31,17.4616911 C31,17.4616911 39.5909288,16 39.8741319,16 C39.8951265,16 39.9130083,16.0042266 39.9281235,16.0120532 C39.9751129,16.0041669 40,16 40,16 L39.9755204,16.0628019 C40.0666171,16.2463609 39.8741319,16.7690883 39.8741319,16.7690883 C39.8741319,16.7690883 39.8086716,16.7793717 39.6889243,16.7980587 L39.6889243,16.7980587 L39.6889243,16.7980587 L39.6889243,16.7980587 Z" id="path723" fill="#DD8B59"></path>
                        <path d="M12.6569336,7.1609375 C13.4514492,6.91684091 14.1780626,6.14407891 14.3545204,6.14407891 C14.5312819,6.14407891 15.1490361,6.55081326 15.5022554,6.22525783 C15.8554747,5.89998232 15.771282,4.50485625 15.5948242,4.58603516 C15.4180627,4.667494 10.2475586,6.94804688 10.2475586,6.94804688 C10.2475586,6.94804688 11.8624179,7.4050341 12.6569336,7.1609375 L12.6569336,7.1609375 L12.6569336,7.1609375 Z M28.0170262,6.76791921 C28.5253644,6.56300572 29.0340525,6.15282605 29.0340525,6.15282605 C29.0340525,6.15282605 29.4409329,7.17809888 30.1525364,6.9728327 C30.8644898,6.76791921 31.2713703,5.64001329 31.2713703,5.64001329 C31.2713703,5.64001329 31.9829738,5.84527947 32.2880466,5.74264638 C32.5934694,5.64001329 32.4892578,4.553125 32.4892578,4.553125 L27.1999023,5.84462891 C27.1999023,5.84462891 27.508688,6.9728327 28.0170262,6.76791921 L28.0170262,6.76791921 L28.0170262,6.76791921 Z M26.2569336,14.7636719 C26.1675335,14.9486654 27.456555,15.6662152 27.9029411,15.6662152 C28.3493271,15.6662152 28.5281273,15.0182603 28.6172202,15.2032538 C28.7066203,15.3885657 28.7066203,16.2215141 29.8675926,15.9438646 C30.7543471,15.7317951 30.7958984,15.0012695 30.7958984,15.0012695 C30.7958984,15.0012695 31.2851246,15.181444 31.474951,15.2032538 C32.2786302,15.2959098 32.7449522,13.7805664 32.6558594,13.7805664 C32.5664593,13.7805664 26.2569336,14.7636719 26.2569336,14.7636719 L26.2569336,14.7636719 L26.2569336,14.7636719 Z M26.0543937,10.3865596 C26.3450703,11.7868807 26.7327503,13 26.8297536,13 C26.926757,13 27.9924603,11.1334404 29.1551669,11.04 C30.3178735,10.9465596 32.4496134,12.0668807 32.4496134,12.0668807 C32.4496134,12.0668807 32.1589367,9.82655963 32.2559401,8.8 C32.3526101,7.77311927 33.6363281,6.34921875 33.6363281,6.34921875 L26.8255859,8.45029297 C26.8255859,8.45029297 25.763717,8.98655963 26.0543937,10.3865596 L26.0543937,10.3865596 L26.0543937,10.3865596 Z M11.7383296,15.6409304 C12.4769768,15.4062814 12.5876953,14.9476562 12.5876953,14.9476562 C12.5876953,14.9476562 12.8459829,16.109422 13.8615433,15.9925007 C14.8767863,15.8751762 15.4306129,14.4688948 15.4306129,14.4688948 C15.4306129,14.4688948 15.5230232,15.5236059 16.1692601,15.1720355 C16.815497,14.8204652 16.9060547,13.8951172 16.9060547,13.8951172 L10.4154297,15.0143555 C10.4154297,15.0143555 11,15.8751762 11.7383296,15.6409304 L11.7383296,15.6409304 L11.7383296,15.6409304 Z M10.0615218,11.5293939 C10.3629786,13.1175756 11.0664931,14 11.1667482,14 C11.2673491,14 12.0711187,12.5001518 13.276946,12.2354548 C14.483119,11.9704543 16.5933167,13.0295457 16.5933167,13.0295457 C16.5933167,13.0295457 16.1438029,11.3981918 16.4456055,10.074707 C16.7470623,8.75091871 17.387793,7.82294922 17.387793,7.82294922 C17.387793,7.82294922 10.9658923,9.67651523 10.6644354,9.67651523 C10.6644354,9.67651523 9.76006498,9.94121218 10.0615218,11.5293939 L10.0615218,11.5293939 L10.0615218,11.5293939 Z M20.6791992,5.63984375 C21.0763052,5.42739934 21.4813148,4.91346227 21.4813148,4.91346227 C21.4813148,4.91346227 21.4421162,5.89816162 22.2363281,5.68535156 C23.0301986,5.47290716 23.0693973,4.91346227 23.0693973,4.91346227 C23.0693973,4.91346227 23.6648855,5.2323117 24.1610119,4.91346227 C24.6574798,4.59461283 25.1383237,2.85185547 24.9399414,2.85185547 C24.7415591,2.85185547 19.5942383,4.86611328 19.5942383,4.86611328 C19.5942383,4.86611328 20.2824347,5.85228815 20.6791992,5.63984375 L20.6791992,5.63984375 L20.6791992,5.63984375 Z M18.0557455,10.4624812 C18.3536465,11.7748871 18.9494485,13 19.0488628,13 C19.148277,13 20.637782,11.6 21.9288002,11.3375188 C23.2194768,11.0750376 25.106297,12.2125564 25.0072244,12.2125564 C24.9078102,12.2125564 24.510495,10.8998495 24.510495,9.93751881 C24.510495,8.97488712 25.7191406,5.74199219 25.7191406,5.74199219 L18.2960938,7.84414062 C18.2960938,7.84414062 17.7578445,9.15007525 18.0557455,10.4624812 L18.0557455,10.4624812 L18.0557455,10.4624812 Z M19.4867187,14.8553711 C20.1571814,14.8553711 20.7246119,13.9971724 20.7246119,13.9971724 C20.7246119,13.9971724 20.6286903,15.0851103 21.6828396,14.9946568 C22.7366592,14.9038913 23.1200162,13.906407 23.1200162,13.906407 C23.1200162,13.906407 23.2159378,14.4506878 24.0782438,14.1787034 C24.9405498,13.906407 24.6281483,13.2578125 24.5322266,13.2578125 C24.4366346,13.2578125 18.3517578,13.965918 18.3517578,13.965918 C18.3517578,13.965918 18.8159264,14.8553711 19.4867187,14.8553711 L19.4867187,14.8553711 L19.4867187,14.8553711 Z" id="path746" fill="#FECF3E"></path>
                        <path d="M9.05750852,4.2670153 C9.65700066,4.1697847 13.0841858,5.24166825 12.9984178,4.94930589 C12.9126497,4.65694354 12.9846802,3.02746582 12.9846802,3.02746582 C12.9846802,3.02746582 8.45772165,4.36458118 9.05750852,4.2670153 L9.05750852,4.2670153 L9.05750852,4.2670153 Z M18.1698071,2.21822966 C18.2635164,2.21822966 21.2589925,3.20234054 21.1652832,2.98339844 C21.071574,2.76483253 21.1342773,0.982421875 21.1342773,0.982421875 C21.1342773,0.982421875 18.0760979,2.21822966 18.1698071,2.21822966 L18.1698071,2.21822966 L18.1698071,2.21822966 Z M26.0692479,3.15475872 C26.6553311,3.27035376 29.0135498,4.18220887 29.0135498,3.95141602 C29.0135498,3.72022593 29.0419922,2.03051758 29.0419922,2.03051758 C29.0419922,2.03051758 25.4831647,3.03916368 26.0692479,3.15475872 L26.0692479,3.15475872 L26.0692479,3.15475872 Z" id="path776" fill-opacity="0.99607801" fill="#FF0000"></path>
                    </g>
                </g>
                <g id="UK-corner">
                    <path d="M58.6665316,5.60442783 L41.3956444,14.2398718 C16.4947453,30.2482972 0,58.1978704 0,90 L18,90 L18,64.0623044 L69.8753928,90 L90,90 L90,79.937694 L47.124612,58.5 L90,58.5 L90,31.5 L47.1246106,31.5 L90,10.062306 L90,0 C78.9808284,0 68.424181,1.98030051 58.6665316,5.60442783 L58.6665316,5.60442783 Z" id="white" fill="#FFFFFF"></path>
                    <path d="M17.9934072,35.9999997 L90,36 L90,54 L12,53.9999997 L12,89.9999997 L0,89.9999998 C4.3896494e-08,69.7390927 6.69500614,51.041889 17.9934072,35.9999997 L17.9934072,35.9999997 L17.9934072,35.9999997 Z M75.9120161,1.09619155 L24.8567236,27.9002201 C23.7407294,29.0705605 22.6559518,30.2709324 21.6037269,31.5 L30,31.5 L90,0 L89.9925529,0 C85.2024043,0.000387862029 80.4996778,0.374999182 75.9120161,1.09619155 L75.9120161,1.09619155 L75.9120161,1.09619155 Z M28,58.5 L40,58.5 L90,84 L90,90 L28,58.5 L28,58.5 Z" id="red" fill="#E94B35"></path>
                </g>
            </g>
        </g>
    </g>
</svg>