<?xml version="1.0" encoding="UTF-8" standalone="no"?>
<svg width="180px" height="180px" viewBox="0 0 180 180" version="1.1" xmlns="http://www.w3.org/2000/svg" xmlns:xlink="http://www.w3.org/1999/xlink">
    <!-- Generator: Sketch 3.8.3 (29802) - http://www.bohemiancoding.com/sketch -->
    <title>fiji</title>
    <desc>Created with Sketch.</desc>
    <defs></defs>
    <g id="Page-1" stroke="none" stroke-width="1" fill="none" fill-rule="evenodd">
        <g id="flags" transform="translate(-450.000000, -2070.000000)">
            <g id="fiji" transform="translate(450.000000, 2070.000000)">
                <circle id="blue" fill="#2C97DE" cx="90" cy="90" r="90"></circle>
                <g id="UK-corner">
                    <path d="M90,90 L90,0 C40.2943725,0 0,40.2943725 0,90 L90,90 Z" id="blue" fill="#227FBB"></path>
                    <path d="M58.6665316,5.60442783 L41.3956444,14.2398718 C16.4947453,30.2482972 0,58.1978704 0,90 L18,90 L18,64.0623044 L69.8753928,90 L90,90 L90,79.937694 L47.124612,58.5 L90,58.5 L90,31.5 L47.1246106,31.5 L90,10.062306 L90,0 C78.9808284,0 68.424181,1.98030051 58.6665316,5.60442783 L58.6665316,5.60442783 Z" id="white" fill="#FFFFFF"></path>
                    <path d="M17.9934072,35.9999997 L90,36 L90,54 L12,53.9999997 L12,89.9999997 L0,89.9999998 C4.3896494e-08,69.7390927 6.69500614,51.041889 17.9934072,35.9999997 L17.9934072,35.9999997 L17.9934072,35.9999997 Z M75.9120161,1.09619155 L24.8567236,27.9002201 C23.7407294,29.0705605 22.6559518,30.2709324 21.6037269,31.5 L30,31.5 L90,0 L89.9925529,0 C85.2024043,0.000387862029 80.4996778,0.374999182 75.9120161,1.09619155 L75.9120161,1.09619155 L75.9120161,1.09619155 Z M28,58.5 L40,58.5 L90,84 L90,90 L28,58.5 L28,58.5 Z" id="red" fill="#E94B35"></path>
                </g>
                <g id="shield" transform="translate(98.000000, 70.000000)">
                    <path d="M0,0 L0,57.1878607 C0,75.8928585 33.9999984,87 33.9999984,87 C33.9999984,87 68,75.8928585 68,57.1878607 L68,0 L0,0 L0,0 L0,0 L0,0 L0,0 Z" id="shield-border" fill="#000000"></path>
                    <path d="M1,1 L1,56.8731972 C1,75.1481951 33.9999984,86 33.9999984,86 C33.9999984,86 67,75.1481951 67,56.8731972 L67,1 L1,1 L1,1 L1,1 L1,1 L1,1 Z" fill="#FFFFFF"></path>
                    <polygon id="cross" fill="#E94B35" points="29.4257426 23 29.4257426 45.6307701 1 45.6307701 1 54.8205127 29.4257426 54.8205127 29.4257426 84.2506668 33.9999967 86 38.5742542 84.2506668 38.5742542 54.8205127 67 54.8205127 67 45.6307701 38.5742542 45.6307701 38.5742542 23 67 23 67 1 1 1 1 23"></polygon>
                    <path d="M5.50046245,10 C7.43320854,10 9,11.5670499 9,13.5007663 C9,15.432567 7.43320854,17 5.50046245,17 C3.56740806,17 2,15.432567 2,13.4996169 C2.0006166,11.5651341 3.56740806,10 5.50046245,10 C5.50046245,10 3.56740806,10 5.50046245,10 L5.50046245,10 L5.50046245,10 L5.50046245,10 L5.50046245,10 L5.50046245,10 Z" id="jade" fill="#FFFFFF"></path>
                    <path d="M65,18.2626299 L64.4635096,16.7828528 C64.4635096,16.7828528 62.9948103,16.1838723 62.8829063,15.4039328 C62.6214727,13.3245266 61.8790141,12.5452357 60.7664614,12.2478534 C59.6516382,11.9507954 58.9101527,12.4340011 58.9101527,12.4340011 C58.5747651,12.9168826 56.9030168,12.9168826 55.9750246,12.9532041 C55.0467049,12.9911471 55.0308112,12.5501002 55.0308112,12.5501002 C54.3097603,12.555289 54.0064843,12.0253842 54.0064843,12.0253842 C53.5345414,11.0829708 53.1832602,10.7304576 52.9500458,10.6111155 C54.1547166,10.628952 55.0619497,10.0731032 56.4216675,8.64651125 C57.9065847,7.0866323 58.9665912,7.68982873 58.9665912,7.68982873 C58.2458646,9.14625625 59.2062928,9.01750948 59.2062928,9.01750948 C61.1741811,8.01607368 59.4657803,5.49043184 58.8718783,5.60199075 C58.2779762,5.71290106 58.1083363,5.3130402 58.1083363,5.3130402 C58.1265004,5.76641042 57.4489137,5.94672076 57.4489137,5.94672076 C57.9571848,3.06207974 56.2354852,2.29738233 56.2354852,2.29738233 C55.9750246,2.55714595 55.8258193,3.07667321 55.8258193,3.07667321 C55.3438213,4.82205127 53.7469968,4.56228765 51.9633446,3.70775937 C50.1813142,2.85420398 45.4278275,4.59958205 43.9429102,5.19337381 C42.4560468,5.78748987 39.7456999,6.71595836 37.294516,5.34190283 C34.8443053,3.96719869 34.2484571,4.22728662 33.283488,4.48769884 C32.3172246,4.74713817 30.6107699,5.15672801 29.9798909,4.82172698 C29.3477145,4.48769884 28.6276367,4.4669437 28.6276367,4.4669437 C28.7995471,4.37095115 28.5309776,3.96784729 28.5309776,3.96784729 C27.788519,2.96576289 28.6276367,2.35154029 28.6276367,2.35154029 C28.6276367,2.35154029 27.245217,2.74069928 27.7950061,5.09965135 L28.0476821,5.45346174 C28.0476821,5.45346174 28.2328913,6.19545821 28.6425572,6.41857603 L28.6276367,6.58104991 C28.6276367,6.58104991 28.9772961,6.41857603 29.0872539,6.90080888 C29.200131,7.38336603 29.7197547,6.93810328 29.9425896,6.53013494 C29.9425896,6.53013494 29.5705494,8.68380565 32.2452168,9.2033329 C32.2452168,9.2033329 31.9461575,8.86898047 32.0580615,8.64618695 C32.1689924,8.42339343 31.72462,8.23627281 31.7622457,7.90321758 C31.7988983,7.57016234 31.0947141,7.42130903 31.6503417,7.16024821 C32.2066181,6.90048458 32.4680517,6.38030873 33.6558525,7.0859837 C34.8436566,7.79165867 35.7732705,7.64377825 35.7732705,7.64377825 C35.7732705,7.64377825 35.0486517,6.15686661 35.4479381,6.15783951 C35.8472245,6.15848811 37.6435267,8.38188313 38.5277304,8.27194572 C39.4122584,8.1629812 41.1206593,7.16024821 41.9750219,7.53157074 C41.9750219,7.53157074 42.0483271,7.0859837 45.3159235,6.52883774 C48.5844929,5.97169179 52.6156313,4.34338572 54.1274704,5.77030201 C54.1274704,5.77030201 54.3042462,6.90048458 54.9348009,7.19786691 C54.9348009,7.19786691 54.8219238,9.53671244 50.7761893,8.23627281 L49.3084631,7.85035681 C49.3084631,7.85035681 49.0830333,7.13981736 41.387607,9.11869082 C41.387607,9.11869082 40.9348013,9.27662451 40.6376882,9.50006663 C40.3396019,9.72188726 39.9309091,9.38818342 38.4083661,9.94468078 C36.8871207,10.5027996 31.2036989,12.3594123 27.7142407,11.6903831 L27.7096996,11.6997878 C26.9409679,11.470184 26.2208901,11.5888775 26.1916977,11.4675896 C26.154072,11.3190606 26.6007149,11.5052083 26.6007149,11.5052083 C26.3412274,11.2075017 26.2293234,11.1835036 26.2293234,11.1835036 C23.2951685,10.8617988 23.8138191,9.53671244 23.8138191,9.53671244 L23.9633488,9.94532938 C24.4463199,9.31456751 23.7761934,7.82927737 23.7761934,7.82927737 L23.7479742,7.83414186 C23.7405139,7.78841567 23.7320806,7.74301379 23.720728,7.69890911 L23.9633488,7.53157074 C25.3749608,6.34301433 27.0094077,6.1202208 27.0094077,6.1202208 C26.0431411,4.93263729 24.0000014,5.56404775 24.0000014,5.56404775 C24.0376271,4.11605201 23.4437251,2.44493845 23.4437251,2.44493845 C21.437238,2.66773197 20.2870596,4.33819693 20.2870596,4.33819693 C20.2127813,2.85355538 18.3181982,2 18.3181982,2 C19.0230311,2.85355538 18.5786587,4.89534288 18.5786587,4.89534288 L18.652937,4.93263729 C18.5355189,4.9297186 18.4667548,4.93263729 18.4667548,4.93263729 L18.424588,5.37044115 L18.3551751,5.34125423 C18.3551751,5.34125423 17.6503422,5.60069355 16.8336053,7.45730623 C16.8336053,7.45730623 16.7508936,7.896083 16.4349676,8.29172797 C16.4323727,8.2404887 16.4378868,8.19411392 16.4313997,8.14060456 C16.4313997,8.14060456 15.5189767,9.33597126 13.4106408,8.14060456 C13.4106408,8.14060456 10.5458987,6.44127697 9.53908721,6.50419101 C8.5322757,6.56678075 7.87025821,7.03896032 7.93448136,7.32207349 C7.93448136,7.32207349 5.63574644,7.13300708 4.84949931,8.45420185 C4.84949931,8.45420185 3.11871766,9.08366651 4.59812079,10.4998809 C4.59812079,10.4998809 4.79630437,11.1154007 5.22672927,11.445213 C5.22672927,11.445213 5.1657497,10.1522322 5.47908086,10.5323109 C5.47908086,10.5323109 5.56049507,10.6597604 5.71521449,10.7489427 C5.75640813,10.9302259 5.89523395,11.4338625 6.20272664,11.6903831 L6.42426409,11.6200102 C6.45799747,11.2976569 6.52773474,10.8903371 6.59941816,10.7191072 C6.63315154,10.7236474 6.66007336,10.7275389 6.67239902,10.7285118 C6.66266824,10.7379165 6.65358618,10.7434296 6.64417975,10.7518614 L7.05319693,11.381326 L7.52481547,11.1296699 C7.74570421,11.0975643 8.02854558,11.3187363 8.02854558,11.3187363 L8.56373856,10.8780138 C8.56049497,10.8731493 8.55725137,10.8721764 8.55400778,10.8669876 C9.08109177,10.955197 9.22510733,9.93365461 9.22510733,9.93365461 C9.69867203,10.0581855 10.1414226,9.91873684 10.5183282,9.69043024 C10.7479746,10.5374996 12.6243936,11.4458616 12.6243936,11.4458616 C12.6243936,11.4458616 12.6568296,11.4429429 12.7051591,11.4390513 C12.546223,11.5405569 12.4518344,11.6167672 12.4518344,11.6167672 C13.3055483,12.2118562 14.9026939,12.0630029 14.9026939,12.0630029 C14.2348379,12.3234151 14.3282534,13.5593192 14.3282534,13.5593192 C13.9380491,13.719523 13.8997747,14.1047904 13.8997747,14.1047904 C15.1998071,14.6233447 16.0879031,14.1939726 16.0879031,14.1939726 C16.1592621,14.6168587 16.0541697,14.6619363 16.0541697,14.6619363 C15.534546,15.7755796 15.3117111,16.8522528 15.3117111,16.8522528 C15.3230637,16.8571173 15.3363624,16.8597117 15.3473906,16.8636033 C15.331497,16.8927902 15.3117111,16.9210043 15.2993854,16.9511641 C15.2993854,16.9511641 13.0334108,17.7375895 12.0262749,18.8392338 C12.0262749,18.8392338 11.931562,18.524015 11.6480719,18.524015 C11.3649062,18.524015 10.4836217,17.8011522 10.0742802,17.6746755 C9.66591173,17.549496 9.06746867,17.8011522 8.90983002,17.6127344 C8.76743625,17.4408558 8.83133505,16.1517667 8.55887317,15.9438909 C8.55984625,15.9438909 8.56406292,15.9448638 8.56406292,15.9448638 L8.28057282,15.1584383 C8.09179566,15.5670553 7.30522417,15.4723599 7.30522417,15.4723599 C7.27408567,15.4911693 7.15309962,15.5793787 6.98183787,15.7071525 C6.82484793,15.7155843 6.64417975,15.6614263 6.64417975,15.6614263 C6.56341427,15.6779656 6.48362186,15.9046507 6.42491281,16.1248498 C6.39344995,16.1481994 6.36133838,16.1725218 6.32955116,16.1968442 L6.32955116,15.9759965 C6.17288558,16.1018246 5.85793262,15.9130825 5.73143246,15.9130825 C5.66980418,15.9130825 5.59357973,16.0933928 5.53162708,16.2785676 C5.21148438,16.3379144 4.78722231,16.353805 4.78722231,16.353805 C4.66137087,16.4167191 4.75511073,17.3922109 4.75511073,17.3922109 C3.84301216,17.8961718 4.28316783,18.650816 4.28316783,18.650816 C4.78689795,21.1054363 8.97275574,20.0037921 9.28770869,20.3193351 C9.60168857,20.6342296 10.3263074,20.6961708 10.7041861,20.6961708 C11.0810917,20.6961708 11.5527102,21.6090729 12.0885519,21.703444 C12.6240693,21.7981393 12.0885519,20.9799325 14.5705499,20.3871137 C17.0515748,19.7942948 17.8786912,18.7769684 17.8786912,18.7769684 C18.6558563,18.6271421 18.872204,17.682783 18.9302643,17.3014072 C18.9377246,17.4771773 18.9584836,17.6717568 18.9867028,17.8932531 C19.0986068,18.7474571 18.5082728,19.05846 18.5082728,19.05846 L20.6584511,18.4131047 C21.5118406,18.1903112 21.4009097,17.4470175 21.4009097,17.4470175 C22.2176466,19.7865116 23.7035369,19.9350406 23.7035369,19.9350406 C24.0006501,19.0435423 23.9639975,18.7834543 23.9639975,18.7834543 L24.6321778,18.7471328 C24.659424,18.2434962 24.2147273,17.8754167 23.957186,17.7041867 L25.003245,18.3385159 L25.4109647,18.2642514 C25.4109647,18.6355739 25.9682141,18.9689535 25.9682141,18.9689535 L26.0434655,18.4873692 C26.5264366,19.1184554 27.4174518,18.8953375 27.4174518,18.8953375 C27.3996121,18.78313 27.3723659,18.6670309 27.3386325,18.5486617 C29.241649,19.722949 32.2812207,18.2272813 32.2812207,18.2272813 C33.0979544,18.4127804 33.209534,17.9298989 33.209534,17.9298989 C34.1378506,18.0408093 34.3532252,17.4064801 34.3532252,17.4064801 C36.53811,17.2174137 38.0758978,15.664345 38.0758978,15.664345 C39.1517978,15.5900805 39.1868287,14.8208429 39.1868287,14.8208429 C39.1868287,14.8208429 40.2656479,15.0335832 41.3058685,13.7337921 C43.7191023,10.2813033 47.3282491,12.0788935 47.3282491,12.0788935 L45.2416452,12.2108833 C39.7833256,12.1742375 42.0460566,15.8858414 42.0460566,15.8858414 L42.3824173,15.8501684 C42.9023653,15.9614031 44.6840714,17.3724287 44.0272437,18.4234823 C44.0168642,18.4419673 44.0025924,18.4588309 43.9905911,18.4756944 C42.877714,19.9989276 40.8167345,18.5460674 40.2293197,17.2608698 C39.6344446,15.9617274 38.4456675,16.2591097 38.4456675,16.2591097 C38.4456675,16.2591097 35.363929,16.7789612 36.6263357,19.2293657 L36.6723947,19.2306629 C36.6957486,19.8286705 37.0710324,20.5100231 38.1702864,21.1871597 C38.7878666,22.0604973 40.8177076,22.1516254 42.3084633,21.8286234 C43.002268,21.6771757 46.6636367,20.1033519 46.6636367,20.1033519 C46.9322063,19.3062246 47.8420343,19.4897779 48.6587712,18.3388402 C49.4755082,17.1879025 47.5072954,16.7789612 47.06195,16.1485237 C46.6156315,15.5164646 47.173854,15.6283478 47.173854,15.6283478 C48.9555601,16.5937864 49.1041167,13.5116472 49.1041167,13.5116472 C49.290299,15.2933468 50.8494945,15.7762282 50.8494945,15.7762282 C51.8157611,14.8120868 51.1109281,12.843591 51.1109281,12.843591 C53.4135554,16.9647847 54.8079763,16.3087275 54.8079763,16.3087275 C53.5682748,15.5414356 54.1923422,14.5143802 54.1923422,14.5143802 C55.3052225,18.8953375 59.8744731,15.0715262 59.8744731,15.0715262 C59.6516382,15.7019637 59.8754462,16.072962 60.2834903,16.4815789 C60.6915344,16.8901958 61.1745055,17.0760193 60.9526437,17.8186643 C60.7291601,18.5609851 58.6136882,18.4131047 58.6136882,18.4131047 C58.6136882,18.4131047 56.5329228,18.3021944 56.7197538,20.0472482 C56.8287385,20.4548922 58.2036979,20.6034212 58.723646,20.4925109 C58.723646,20.4925109 58.5092445,20.53921 59.2779762,20.6420128 C59.5355175,20.6750913 59.8465782,20.6806044 60.1631529,20.6702268 C61.0493028,20.6429857 61.9931886,20.4925109 61.9931886,20.4925109 C63.1800195,20.2333959 62.9951347,19.8234817 62.9951347,19.8234817 C64.813169,19.4884807 65,18.2626299 65,18.2626299 L65,18.2626299 L65,18.2626299 L65,18.2626299 L65,18.2626299 L65,18.2626299 Z" id="licon" fill="#FFD100"></path>
                    <g id="banana-tree" transform="translate(3.000000, 24.000000)">
                        <path d="M12.4604644,9.20435689 C12.4604644,9.20435689 11.9348122,9.92936026 12.5083064,10.4596783 C12.5083064,10.4596783 11.8866655,11.3744538 12.3659994,12.1473608 C12.3659994,12.1473608 11.9823495,12.9669432 12.0783381,13.8353505 C12.0783381,13.8353505 11.7428349,15.1852509 12.4604644,15.8132186 C12.4604644,15.8132186 13.2268501,16.1992115 13.5623534,15.8614294 C13.5623534,15.8614294 14.2318362,14.8490041 13.800649,13.7865256 C13.800649,13.7865256 14.2793734,12.9190396 13.7531118,11.8095787 C13.7531118,11.8095787 13.8969424,11.1825321 13.46606,10.4599853 C13.46606,10.4599853 13.7531118,9.97695684 13.5132925,9.59157809 C13.5132925,9.59157809 12.5567578,8.5779245 12.4604644,9.20435689 C12.4604644,9.20435689 12.5567578,8.5779245 12.4604644,9.20435689 L12.4604644,9.20435689 L12.4604644,9.20435689 L12.4604644,9.20435689 L12.4604644,9.20435689 L12.4604644,9.20435689 Z" id="path1751" fill="#964B36"></path>
                        <path d="M14.2129755,8.70912199 C14.1218145,8.88421273 14.0748765,9 14.0748765,9 C14.1345496,8.3371504 14.0748765,9 14.0748765,9 C14.0866544,8.86917075 14.0519096,8.70826113 13.988548,8.53424196 C14.054477,9.45952038 13.8181925,10.313808 13.7270911,9.88694962 C13.575336,9.17619829 11.2012685,7.04243528 11.2012685,7.04243528 L11,6 C11,6 11.4480933,6.05245242 12.0491686,6.27503306 C11.2280957,4.91023232 9.36704957,2.08169043 7.9616071,1.92714773 C6.10533931,1.72400111 6,0 6,0 C6,0 6.21169151,0.811617606 7.69690831,0.811617606 C9.18178749,0.811617606 12.0455313,2.78947126 12.3632374,4.31129464 C12.4508228,4.7307432 12.538511,5.01919233 12.6195886,5.21699202 C13.1369837,3.44692158 14.4392122,0.419575696 17.3051341,0.348827776 C21.3588327,0.248710085 20.0254652,0.647279878 21,0 C21,0 18.2806493,1.39436062 16.5858346,1.59269503 C14.8926539,1.7916631 13.5063439,4.97546902 13.5576524,5.57395736 C13.5857915,5.90324056 13.3015142,6.3995989 12.9634205,6.71142805 L12.9634205,6.71142805 C13.013835,6.74166422 13.0643311,6.77313959 13.1147886,6.80590219 C15.6090381,4.7696222 17,7.23427551 17,7.23427551 C15.930592,6.72359816 15.1205009,7.39237964 14.6270446,8.04822781 C14.8156304,8.10505811 15.0586996,8.21626087 15.3710273,8.4033515 C16.7295009,9.2187879 15.4644373,12 15.4644373,12 C15.8755776,10.6972491 14.701358,9.24146409 14.2129755,8.70912199 L14.2129755,8.70912199 Z M10.5199302,6.21066604 C10.5199302,6.21066604 12.0225059,11.400312 9.71107734,13 C9.71107734,13 9.76845845,10.3341621 8.38211626,8.73354784 C6.99650972,7.13231604 9.76845845,5.38781939 10.5199302,6.21066604 C10.5199302,6.21066604 9.76845845,5.38781939 10.5199302,6.21066604 L10.5199302,6.21066604 Z" id="path1761" fill="#00A651"></path>
                        <path d="M6.72059148,15.4722892 C6.72059148,15.4722892 6.74779453,16.2313253 7.2192176,16.4616179 C7.2192176,16.4616179 6.96918107,17.0881239 7.3859087,17.4829604 C7.3859087,17.4829604 7.3019844,18.7356282 7.6903513,19 C7.6903513,19 8.6334869,18.9342513 8.9648433,18.6041308 C8.9648433,18.6041308 9.1593161,17.7814114 8.6334869,16.9555938 C8.6334869,16.9555938 8.7156749,16.1645439 8.1889775,15.736661 C8.1889775,15.736661 8.3553791,14.6805508 7.6900619,14.2857143 C7.6900619,14.2857143 7.5798028,13.427883 7.1633646,13.0000001 C7.163654,12.9996558 6.36029574,14.3511188 6,14.2533563 C6,14.2533563 6.1936047,15.2746988 6.72059148,15.4722892 L6.72059148,15.4722892 Z" id="path1781" fill="#964B36"></path>
                        <path d="M4.83644288,9.02110466 L4.96417881,7.1867296 C4.96417881,7.1867296 5.35723237,4.9689687 3.53935967,3.5623318 C2.90135716,3.06858526 2.27537275,2.95457115 1.73150458,3.01461334 C1.27584265,2.95154781 0.826460687,3.09003061 0.464529525,3.48025827 C0.171930208,3.66508835 7.18591853e-14,3.8327064 7.18591853e-14,3.8327064 C0.147793843,3.69453031 0.292250501,3.59056241 0.4327047,3.51547956 C0.415325219,3.53521915 0.398159033,3.5555599 0.38121553,3.5765076 C-0.84288413,5.0934576 1.27253302,7 1.27253302,7 C1.27253302,7 0.99432855,5.1420399 2.05185993,4.4572168 C2.19924669,4.36175333 2.34341443,4.33001679 2.48239438,4.34608891 L2.48239438,4.34608891 C2.8658383,5.20935861 3.33707713,7.40883854 3.51560322,8.28172864 C2.08799498,7.74764766 0.507248921,7.90563153 0.15247029,9.3419143 C-0.42857732,11.6894566 0.83836861,12.6491985 0.83836861,12.6491985 C0.36351593,12.1698371 0.78695144,10.9434059 0.78695144,10.9434059 C2.1151561,8.16350179 3.8598516,9.29639217 5.07815549,10.7134623 C4.70521211,10.3472224 4.29421486,10.0201991 4,10 C4,10 4.68421053,10.046974 4,10 C4,10 4.99932953,11.890117 5.36875629,11.9837714 C5.48115442,12.0115375 5.58372406,12.0009113 5.67200081,11.972734 L5.67200081,11.972734 C5.82550685,12.0097342 5.95843813,12.0168777 5.9918998,11.9442729 C6.04292766,12.0226324 6.09090032,12.0980179 6.13559668,12.1695785 C5.05743533,11.9354453 3.20254122,11.7645714 2,12.9314689 C2,12.9314689 2.33387913,12.9792763 2.78325598,13.0651296 L2.78325598,13.0651296 C2.76255578,13.0700297 2.74179043,13.075215 2.72095958,13.0806885 C1.39157719,13.4302372 2.30764812,16 2.30764812,16 C2.6629726,13.3984299 5.17337707,14.1283406 5.46886393,14.3499976 C5.76404234,14.5726485 6,14.7943055 6,14.7943055 C5.79183269,14.5033996 5.57384771,14.235252 5.3448831,13.9997791 C5.7459619,13.9874957 6.42020836,13.465 6.77154106,12.9871733 C6.83717311,13.0056281 6.90587362,13.0076201 6.96171656,12.9699052 C7.00938129,12.9382579 7.0140465,12.8293046 6.96718623,12.6402521 C6.99779238,12.5538112 7.00821653,12.475274 6.99323129,12.4095064 C6.99323129,12.4095064 7.1197641,12.9648364 6.99323129,12.4095064 C6.99323129,12.4095064 6.95502732,12.3951587 6.88464202,12.3718345 C6.71173834,11.8827503 6.33535546,11.0929847 5.69477063,9.9826448 C5.4896955,9.62753404 5.19092785,9.30163979 4.83644288,9.02110466 L4.83644288,9.02110466 Z M5.063002,7.9786605 C4.98479849,8.5098173 5.00149498,8.9006325 5.00149498,8.9006325 L6.02722458,10 L6.0808665,9.7799159 C5.7022784,8.1861464 7,5 7,5 C6.88181083,5.36002798 6.67737291,5.42782201 6.57497481,5.43807824 C7.99015373,3.13459995 11,2.4570696 11,2.4570696 C7.699809,0.2950338 5,6.5051067 5,6.5051067 L5.04997878,8 L5.063002,7.9786605 L5.063002,7.9786605 L5.063002,7.9786605 Z" id="path1791" fill="#00A651"></path>
                        <path d="M18.4701974,6.83486426 C18.1044179,8.00131321 18,9 18,9 L19.9994393,8.573179 C19.9994393,8.573179 21.098431,2.5526658 22.7984635,3.0265793 C24.4965869,3.5013984 23.8974551,6.1085267 23.8974551,6.1085267 C23.8974551,6.1085267 22.1983772,2.7899244 20.8486601,5.3025718 L21.8976976,3.3115312 L21.5483366,3.2635361 C20.3348811,3.4557084 19.5224303,4.43198319 18.9851582,5.5261863 C18.8352935,3.89508235 17.5864839,3.04763834 16.8871674,2.3643601 C16.1047862,1.600511 14.1466532,2.2119146 15.4189569,2.6196252 C16.5353433,2.97680271 18.1027905,6.07972045 18.4701974,6.83486426 L18.4701974,6.83486426 Z M17.1127535,12.5661872 C16.4675313,13.5059952 16,14.5205033 16,14.5205033 C16.4072527,15.2171266 16,14.5205033 16,14.5205033 C16.4072527,15.2171266 17.3234902,14.9494568 17.3234902,14.9494568 C17.3234902,14.9494568 16.9671036,15.0555018 17.832475,13.5565512 C18.6971985,12.0569187 19.6630061,13.2888814 19.6630061,13.2888814 C20.2740471,12.805712 19.8674425,11.6279651 19.8674425,11.6279651 C19.724862,11.3866762 19.5720587,11.2227106 19.4125094,11.1230023 C19.5660749,10.9895013 19.7429149,10.7573065 19.8791484,10.3542037 C19.918013,10.2383492 19.9820051,10.1308009 20.0640128,10.0313397 C20.4656241,10.1514492 22.8466671,10.9085989 22.9286767,12 C22.9286767,12 23.3943492,9.84177747 21.9459235,9.06807659 C21.9807653,9.05953177 22,9.0553152 22,9.0553152 C22,9.0553152 21.9589235,9.04659038 21.8832736,9.03607089 C21.8577886,9.02362907 21.8317436,9.01159968 21.8051271,9 C21.8051652,9.00003739 21.7709075,9.00555254 21.7118062,9.01675101 C21.2220662,8.97324893 20.1727785,8.97261219 19.0703627,9.554522 C17.9379433,10.1522669 17.3416806,11.7814808 17.1127535,12.5661872 L17.1127535,12.5661872 L17.1127535,12.5661872 Z M20.5804877,16 C20.5804877,16 21.7729406,12.3293502 20.1369812,12 C20.1371983,12 20.4441578,13.1513301 20,13.6994331 C20,13.6994331 20.8863618,14.4655909 20.5804877,16 Z" id="path1827" fill="#00A651"></path>
                        <path d="M15.7178489,15.731036 C15.7178489,15.731036 14.6938811,16.9475283 15.0918693,17.5559234 C15.0918693,17.5559234 16.1169245,18.2110952 16.5725449,17.9298391 C16.5725449,17.9298391 17.7665095,16.5736126 17.4254286,15.8242915 C17.4254286,15.8242915 18.2224924,14.93613 17.9390436,14.3748095 C17.9390436,14.3748095 16.7439916,14.4212883 16.458368,14 C16.458368,14 15.4909449,15.4977484 15.7178489,15.731036 Z" id="path1851" fill="#964B36"></path>
                    </g>
                    <g id="coconut" transform="translate(39.000000, 23.000000)">
                        <path d="M14.3076797,19.7275333 C14.3076797,19.7198169 14.1076889,18.6213527 14.0942279,18.5885169 C14.0617121,18.508448 14.0408187,16.6345279 13.9743073,15.0872192 C13.9156865,13.7234779 13.8087486,12.6589185 13.8087486,12.6589185 L12.4333169,12 C12.4333169,12 12.3168887,14.5759552 12.3464891,14.9346027 C12.3741161,15.2942568 12.4921888,17.7517844 12.4333169,18.0510488 C12.3741161,18.3506487 12.2294031,19.8483127 12.2294031,19.8483127 C12.2294031,19.8483127 11.5568163,20.3277396 11.2937017,20.8662142 C11.0296004,21.4056953 11.0888012,21.5855223 11,21.5855223 L11.6535109,21.4815179 L11.1667489,21.8129935 C11.2670613,21.7744078 11.8422957,22.0139569 11.9383325,21.999195 C11.9899688,21.9914785 12.2250475,21.7879654 12.2434379,21.8220379 C12.3159486,21.9550504 12.5305674,21.6159035 12.5428683,21.7994802 C12.5428683,21.7994802 12.6972824,21.7051269 12.7302229,21.6814443 C12.7428539,21.6889282 12.9225784,21.8566522 12.9730769,21.8706536 C13.0200146,21.8827102 13.4220606,21.925881 13.5055774,21.8535408 C13.6023662,21.7679772 13.8691021,21.9079904 13.8797844,21.8862106 C13.9108605,21.8706536 14.2154702,21.7127498 14.2698532,21.7251954 C14.3167909,21.7364743 14.4770266,21.8274828 14.5129583,21.8589858 C14.5773763,21.6991336 14.7201317,21.6516846 14.8110938,21.5742885 C14.9059404,21.4953366 15.4057464,21.4533327 15.455277,21.4467209 C15.5472102,21.4331086 15.6495021,21.613181 15.7414353,21.6470175 C15.792905,21.6676306 16.0314782,21.7318072 15.9965176,21.5210057 C15.962852,21.3203202 15.8129749,21.4591666 15.7809278,21.3183755 C15.7637712,21.2382569 15.7987317,21.1243018 15.7780144,21.03446 C15.7602104,20.9523967 15.4488028,20.6253104 15.4141628,20.5599709 C15.3678725,20.6004192 15.2154058,20.5743612 15.1636124,20.4954093 C15.0509618,20.3262268 14.9862201,20.5969189 14.8823097,20.5541371 C14.8033248,20.5238009 14.5424158,19.9680264 14.4948306,20.0053633 C14.4515739,20.0391761 14.4526013,20.1074888 14.4563356,20.1760371 C14.3980888,20.0541006 14.3057063,19.7684641 14.3076797,19.7275333 Z" id="path1583" fill="#964B36"></path>
                        <path d="M24.4977355,7.4513039 L24.3471824,6.7926965 L23.9966361,6.8934247 C23.9966361,6.8934247 22.2248535,4.96215534 19.3464355,4.96215534 C16.4680176,4.96215534 14.6288523,6.2351401 14.6288523,6.2351401 L14.9171998,6.8769595 C14.9171998,6.8769595 20.9402806,4.8665925 21.341224,12.4718944 C21.341224,12.4718944 20.3013687,10.2029667 18.2509766,9.02615356 C16.2005844,7.84934044 13.8260056,8.6690853 13.8260056,8.6690853 C13.8260056,8.6690853 19.2880242,11.8139326 17.5837758,16.9352513 L17.2823507,17.5938587 C17.2823507,17.5938587 16.8440897,15.2669716 15.8307257,13.4365606 C14.8084631,11.5900765 13.2087097,10.2397203 12.673254,10.1916275 C10.8729668,10.0299317 8.76460747,12.7253454 8.27056646,13.4365606 C7.0216487,15.2344869 6.4115844,18 6.4115844,18 C6.4115844,18 4.8582082,15.0601571 6.7126906,12.2200739 C8.5649403,9.381931 11.0701183,8.6206582 11.0701183,8.6206582 C11.0701183,8.6206582 7.83105469,8.62065792 5.50890398,9.45849609 C3.18675327,10.2963343 2.1023209,13.4365606 2.1023209,13.4365606 C2.1023209,13.4365606 1.9533627,8.1635072 5.5089038,7.1484737 C9.0669966,6.1347347 11.3712245,7.453241 11.3712245,7.453241 C11.3712245,7.453241 10.1182642,5.39183998 6.41126537,4.96215534 C2.70426655,4.5324707 0,6.8956846 0,6.8956846 C0,6.8956846 3.1329079,-1.2523227 11.0589544,4.0636726 L12.1734301,5.628511 L12.0225581,0 L12.3230263,2.433942 L12.5233385,1.5716182 L12.4735794,2.8394375 L13.2741902,1.0644259 C13.2741902,1.0644259 12.3233453,4.005883 12.6732537,5.0703089 C12.6732537,5.0703089 13.0247569,1.6733149 14.2279058,1.2671737 L13.2250691,4.157621 L13.225069,5.77798891 C13.225069,5.77798891 19.036996,-2.3855149 24.9988349,5.777989 C24.9988349,5.777989 25.048594,6.5899487 24.4977355,7.4513039 Z" id="path1885" fill="#00A651"></path>
                    </g>
                    <g id="bird" transform="translate(6.000000, 56.000000)">
                        <path d="M3.07814791,4.06090107 C3.04466035,4.02862354 3.03056641,4.01804691 3.03056641,4.01804691 L2.94710223,4.00000001 C2.94710223,4.00000001 2.79368441,4.18812874 2.66658692,4.43147839 L2.66658692,4.43147839 C2.30475493,4.48339943 1.63440556,4.61153344 1.43562168,4.86688509 C1.15811742,5.22197817 1.4555907,5.47467198 1.05774234,5.60178942 C1.05774234,5.60178942 2.01236745,5.38743637 2.52016961,5.13192844 C2.52663722,5.15381213 2.53476398,5.17512234 2.54469697,5.19575031 C2.75668964,5.63789841 3.21177572,5.67573861 3.10419261,6.00000001 C3.10419261,6.00000001 3.45250385,5.30958683 3.49563583,4.82084302 C3.75326469,5.31949835 3.9339379,5.92240789 3.9339379,5.92240789 C3.9339379,5.92240789 4.0453524,6.39423689 3.9788028,5.01088559 C3.91616185,3.72219571 3.17975514,4.01430769 3.07814791,4.06090107 L3.07814791,4.06090107 Z M2.76639878,2.57114633 C3.08053717,2.33784637 3.52047643,2.22053822 3.52047643,2.22053822 L3.57737899,2.28599713 C3.57737899,2.28599713 3.61302661,2.41054471 3.63613276,2.88990116 C3.65122428,3.18742551 3.18613546,3.54770698 2.82932928,3.77916674 C2.80467214,3.95972994 2.77870424,4.08273909 2.77870424,4.08273909 C2.78393391,3.99157051 2.75665202,3.92043514 2.70820919,3.85559227 C2.54744524,3.95430462 2.43076716,4.01547728 2.43076716,4.01547728 C2.55168219,3.92687597 2.55873789,3.81919053 2.53412896,3.68567485 C2.3966089,3.57072991 2.22451423,3.43656001 2.0816287,3.2059503 C1.78472122,2.73082149 2.16084338,1.96981136 2.16084338,1.96981136 L2.23939852,1.99068839 C2.23939852,1.99068839 2.34418649,2.07339955 2.69186131,2.45868351 C2.72073285,2.49071188 2.74541315,2.52859668 2.76639878,2.57114633 L2.76639878,2.57114633 L2.76639878,2.57114633 Z M2.47117758,3.67336523 C2.47117758,3.67336523 1.56159533,3.28805045 1.18365904,3.63055979 C0.802679121,3.97273294 0.887159427,4.43591218 0.539255178,4.42589583 C0.539255178,4.42589583 1.89246444,4.67010622 2.1620267,4.27534649 C2.428843,3.88021927 2.47581979,3.76046564 2.47581979,3.76046564 L2.47117758,3.67336523 L2.47117758,3.67336523 Z" id="path2003" fill="#00A651"></path>
                        <path d="M14.8391056,5.26809072 C15.6742904,4.80893892 16.2318545,2.6217344 16.2318545,2.6217344 C16.0320541,3.2134149 14.4951026,3.8031512 14.4951026,3.8031512 C15.6308087,3.1129653 17,0 17,0 C16.6327696,1.1149905 13.6595875,2.0323221 11.7544149,3.0812103 C9.8492424,4.1297744 10.8521907,7.1471506 10.8521907,7.1471506 C10.3181876,6.7861801 9.2818847,5.1806067 9.0820876,3.769452 C8.880309,2.3602414 8.3126211,1.8035562 7.0094818,1.6392726 C5.7056819,1.4749889 4.9375364,2.9169266 4.9375364,2.9169266 L3,3.9016566 L4.9702305,3.9664628 C4.9702305,3.9664628 6.375415,4.4265867 6.375415,5.508202 C6.375415,6.5907894 5.1389847,10.9182227 7.1762545,13.3448904 C8.5943185,15.0311475 13.8266905,16 13.8266905,16 L16.0975956,21 C16.0975956,21 16.6026548,20.1653613 16.7350098,20.3373289 C16.8673647,20.5099775 17.1347086,20.2682013 17.1347086,20.2682013 C17.1347086,20.2682013 17.5018125,20.0975959 17.7003449,20.2682013 C17.9015113,20.4405094 17.9350939,20.2334673 17.9350939,20.2334673 L18.2347033,20.0274467 L18.6676555,20.1313083 C18.6676555,20.1313083 18.4338943,19.5796499 18.6008195,19.751277 C18.7667571,19.9232446 19.2665452,20.0611592 19.2665452,20.0611592 C19.2665452,20.0611592 19.1332025,19.4424164 19.3333812,19.6140435 C19.5329013,19.7866921 19.9668412,19.8558197 19.9668412,19.8558197 C19.9668412,19.8558197 20.4333759,19.9937343 20.1996147,19.9246067 C19.9668412,19.8558197 19.5997373,19.3031397 19.5997373,19.3031397 C19.7334092,19.5449159 20.5993135,19.649462 20.4333759,19.6140435 C20.2664507,19.5793094 19.4002171,18.6489818 19.4002171,18.6489818 C20.4333759,19.5438943 21,19.3031397 21,19.3031397 C19.8009036,19.0981407 16.6023256,15.4452769 16.6023256,15.4452769 C16.435397,13.8951849 14.7621933,11 14.7621933,11 C11.2257172,11.9075664 14.9350677,11.0209796 14.9350677,11.0209796 C16.258131,10.9197034 17.3229553,9.5920101 17.3229553,9.5920101 C16.8064836,10.307336 14.839106,9.4564145 14.839106,9.4564145 C16.9674825,9.2175239 18.258024,7.4137317 18.258024,7.4137317 C17.8384705,8.2303338 14.9675863,8.4682149 14.9675863,8.4682149 C18.0316691,8.0257627 19.2906485,5.165805 19.2906485,5.165805 C18.9673755,5.8128283 16.1296507,6.8006914 16.1296507,6.8006914 C19.6451648,5.2007974 20,2 20,2 C19.5804465,3.9414066 15.5809789,5.27032088 14.8391056,5.50820208 C14.1967479,5.71504858 11,8.9449867 11,8.9449867 L14.8391056,5.26809072 L14.8391056,5.26809072 Z" id="path2025" stroke="#000000" stroke-width="0.1" fill="#FFFFFF"></path>
                        <path d="M6.5,3.85485837 C6.77614239,3.85485837 6.89074707,3.70357162 6.89074707,3.42742923 C6.89074707,3.15128684 6.77614239,3.0792847 6.5,3.0792847 C6.22385761,3.0792847 6.07128906,3.15128684 6.07128906,3.42742923 C6.07128906,3.70357162 6.22385761,3.85485837 6.5,3.85485837 L6.5,3.85485837 Z" id="circle2053" fill="#000000"></path>
                    </g>
                    <g id="banana" transform="translate(41.000000, 56.000000)">
                        <path d="M12.2034311,2.4929431 C12.2034311,2.4929431 14.5309361,-0.6976893 16.5946683,0.1402441 C18.6587323,0.9788675 19.9998264,1.382483 19.9998264,1.382483 C19.9998264,1.382483 20.0389776,3.5313044 18.9414171,3.5313044 C17.846511,3.5313044 16.7967283,1.3852428 15.7987047,2.0230933 C14.7990222,2.6599089 13.9781744,3.5323393 13.9134754,3.8331536 C13.8491082,4.1343129 11.2697748,4.2019271 12.2034311,2.4929431 C12.2034311,2.4929431 11.2697748,4.2019271 12.2034311,2.4929431 L12.2034311,2.4929431 L12.2034311,2.4929431 L12.2034311,2.4929431 L12.2034311,2.4929431 L12.2034311,2.4929431 Z" id="path1575" fill="#964B36"></path>
                        <path d="M6,4.9602308 C6,4.9602308 6.060375,0.8249798 9.4629609,1.0057592 C10.1076911,1.0650871 9.8001852,1.8201983 9.8001852,1.8201983 C9.8001852,1.8201983 10.5362599,1.3083006 10.8725456,2.1218079 C10.8725456,2.1218079 11.9458445,1.6394189 12.0678458,2.6961397 C12.0678458,2.6961397 13.2328022,2.5458008 13.0792056,3.4807595 C13.0792056,3.4807595 13.8759682,3.2999801 13.8462499,3.9640804 C13.8462499,3.9640804 14.7653266,3.6015898 14.6727307,4.5374803 C14.6727307,4.5374803 15.6844034,3.8733801 15.5320581,5.0801291 C15.5320581,5.0801291 16.5743874,4.3567009 16.9407043,5.5637606 C17.3085852,6.7705097 15.8993134,9.3362104 14.5197598,10 L6,4.9602308 L6,4.9602308 Z" id="path1909" fill="#FFF200"></path>
                        <path d="M3.98914599,16.1497672 C3.98914599,16.1497672 2.91340039,15.4331479 2.06939069,17.1350312 C1.22448279,18.8365643 0.527179287,21.5941126 0.0325698873,21.9688842 C-0.461740213,22.3429553 4.83315569,19.246011 4.89153879,17.9528739 C4.89153879,17.9528739 5.24004079,16.2846149 4.68764709,16.317889 C4.13495399,16.3536149 4.10561279,16.4219144 3.98914599,16.1497672 C3.98914599,16.1497672 4.10561279,16.4219144 3.98914599,16.1497672 L3.98914599,16.1497672 L3.98914599,16.1497672 L3.98914599,16.1497672 L3.98914599,16.1497672 L3.98914599,16.1497672 Z" id="path1931" fill="#964B36"></path>
                        <path d="M4.0692216,10.1327609 C4.0692216,10.1327609 3.4449868,6.2326629 5.9456518,5.0058255 C5.9456518,5.0058255 6.4076465,4.9132519 6.6698048,5.466166 C6.6698048,5.466166 7.9870316,4.9445311 8.0202248,5.9868531 C8.0202248,5.9868531 8.6776528,5.4961814 8.8426025,6.1710525 C8.8426025,6.1710525 10.2577153,5.8955433 9.9945409,6.8775187 C9.9945409,6.8775187 11.1789951,6.5707304 11.080093,7.5214267 C11.080093,7.5214267 12.2655633,7.1226966 12.0670817,7.9517518 C12.0670817,7.9517518 13.3172448,7.6762426 13.0218934,8.6275708 C13.0218934,8.6275708 14.5694402,8.4746505 14.1084616,9.4872732 C14.1084616,9.4872732 15.2604,9.2114481 14.9965482,10.0401873 C14.9965482,10.0401873 16.5109018,10.286313 15.8189259,11.1763467 C15.1279661,12.0657486 13.3832925,13.4167546 11.6738443,14 L4.0692216,10.1327609 L4.0692216,10.1327609 Z" id="path1935" fill="#00A651"></path>
                        <path d="M2.2560002,14.1801454 C2.2560002,14.1801454 1.2805204,10.8594061 3.1379142,10.0118048 C3.1379142,10.0118048 3.4820679,9.9173044 3.5452005,10.2630535 C3.5452005,10.2630535 3.9550769,9.7295936 4.2700924,10.2004832 C4.2700924,10.2004832 5.2128727,9.7615238 5.4343225,10.4507643 C5.4343225,10.4507643 6.0627348,9.9173044 6.3780741,10.7000777 C6.3780741,10.7000777 6.9757295,10.4507643 6.9757295,11.0767894 C6.9757295,11.0767894 7.7935396,10.7320079 7.7935396,11.4844637 C7.7935396,11.4844637 8.5786503,11.1712898 8.4219519,12.016956 C8.4219519,12.016956 9.6179102,12.2046667 9.271814,12.7687667 C9.271814,12.7687667 10.3431258,13.0500103 9.9322782,13.4899373 C9.9322782,13.4899373 11.0955371,13.3647968 10.466801,14.1478927 C10.466801,14.1478927 11.3477438,13.866649 10.8449492,14.8387458 C10.3408595,15.8095524 8.7690194,16.8748595 7.6679219,17 L2.2560002,14.1801454 L2.2560002,14.1801454 Z" id="path1953" fill="#00A651"></path>
                        <path d="M3.4466675,16.3367702 C3.4466675,16.3367702 1.2395164,14.5347068 2.2776898,14 C2.2776898,14 2.7441105,14.1115784 2.9120908,14.506305 C2.9120908,14.506305 3.4466675,13.8588606 3.7488943,14.5341272 C3.7488943,14.5341272 4.5519641,14.3092315 4.5519641,14.7607617 C4.5519641,14.7607617 5.2527999,14.7607617 5.1863651,15.1551986 C5.1863651,15.1551986 5.9233443,15.098395 5.7897862,15.4928319 C5.7897862,15.4928319 6.5925117,15.4079164 6.5584337,15.7742413 C6.5584337,15.7742413 7.2616791,15.8020634 7.1949001,16.1956308 C7.1949001,16.1956308 8.3976115,16.3645924 7.8630348,16.8726363 C7.8630348,16.8726363 5.7557082,17.2378019 4.2845036,16.7314969 C4.2845036,16.7312071 3.5134465,16.505442 3.4466675,16.3367731 C3.4466675,16.3367731 3.5134465,16.505442 3.4466675,16.3367731 L3.4466675,16.3367702 L3.4466675,16.3367702 L3.4466675,16.3367702 L3.4466675,16.3367702 L3.4466675,16.3367702 Z" id="path1977" fill="#00A651"></path>
                    </g>
                </g>
            </g>
        </g>
    </g>
</svg>