<?xml version="1.0" encoding="UTF-8" standalone="no"?>
<svg width="180px" height="180px" viewBox="0 0 180 180" version="1.1" xmlns="http://www.w3.org/2000/svg" xmlns:xlink="http://www.w3.org/1999/xlink">
    <!-- Generator: Sketch 3.8.3 (29802) - http://www.bohemiancoding.com/sketch -->
    <title>french_polynesia</title>
    <desc>Created with Sketch.</desc>
    <defs></defs>
    <g id="Page-1" stroke="none" stroke-width="1" fill="none" fill-rule="evenodd">
        <g id="flags" transform="translate(-1530.000000, -2070.000000)">
            <g id="french_polynesia" transform="translate(1530.000000, 2070.000000)">
                <circle id="white" fill="#FFFFFF" cx="90" cy="90" r="90"></circle>
                <path d="M170.644801,130.000007 C155.917774,159.634374 125.337212,180 90,180 C54.662788,180 24.0822257,159.634374 9.35519916,130.000007 L170.644804,130 L170.644801,130.000007 Z M170.644801,49.9999927 C155.917774,20.3656263 125.337212,0 90,0 C54.662788,0 24.0822257,20.3656263 9.35519916,49.9999927 L170.644804,50 L170.644801,49.9999927 Z" id="red" fill="#E94B35"></path>
                <g id="emblem" transform="translate(56.000000, 55.000000)">
                    <g id="sun" transform="translate(0.000000, 0.790960)" fill="#FF9C10">
                        <path d="M0.44757791,39.301236 L12.2463256,39.3938842 L12.2463256,31.8932062 L0.159545709,31.3159726 C0.0933855885,32.2054967 0.0596976744,33.1043554 0.0596976744,34.0112994 C0.0596976744,35.8096479 0.192150365,37.5762065 0.44757791,39.301236 L0.44757791,39.301236 L0.44757791,39.301236 Z M0.403368762,29.0291694 L12.4380698,30.1834068 L12.3422767,24.8665706 L2.49884233,21.003637 C1.50434598,23.5444428 0.792518265,26.2333249 0.403368762,29.0291694 L0.403368762,29.0291694 L0.403368762,29.0291694 Z M7.78488767,11.8576068 L13.3030535,16.6091412 C13.3030535,16.6091412 12.4387102,17.2795989 12.5062674,17.9048927 C12.5173767,18.4818983 13.5510953,18.5511864 13.5346093,19.1278757 C13.5174907,19.7538023 12.6194953,19.8412825 12.6023767,20.4179718 C12.5573465,20.988096 13.4670442,21.6077345 13.4670442,21.6077345 L12.0545814,23.0655932 L3.39710451,18.9108994 C4.58455316,16.3743381 6.06185953,14.0081226 7.78488767,11.8576068 L7.78488767,11.8576068 L7.78488767,11.8576068 Z M67.8212827,31.0696215 L54.2144628,32.0833333 L54.3102558,39.3937853 L67.5385514,39.3940691 C67.8030529,37.6396024 67.9403023,35.8419214 67.9403023,34.0112994 C67.9403023,33.0205486 67.9001008,32.0394464 67.8212827,31.0696215 L67.8212827,31.0696215 L67.8212827,31.0696215 Z M59.804585,11.3548899 C57.6681669,12.9708799 55.5316787,14.5868334 53.3954186,16.2028249 C53.4062116,16.6757797 53.877507,17.0395028 54.0074977,17.4922486 C54.309216,18.1275085 53.7095312,18.6890508 53.3384093,19.1379605 C53.0376753,19.5520282 53.6858893,19.7630565 53.9013465,20.0077401 C54.3757256,20.4949322 53.9625307,21.2582881 53.4572116,21.5416893 C54.0659302,21.9060056 54.3734326,22.5878136 54.5073372,23.2595763 C57.7562765,21.5688967 61.0052158,19.8782563 64.2541551,18.187577 C63.03293,15.7269084 61.5357711,13.4349917 59.804585,11.3548899 L59.804585,11.3548899 L59.804585,11.3548899 Z M9.55183628,9.81939511 C11.2751153,11.7095797 13.9392093,14.6367232 13.9392093,14.6367232 C14.099713,14.0408927 15.4192372,13.9502881 16.7634628,14.045322 C18.1083605,14.1400237 19.1801512,13.9562638 19.1801512,14.9058079 C19.1801512,15.8550395 18.4978581,15.7201808 18.4978581,16.3849831 C18.4978581,17.0497853 19.5201512,16.9939831 19.5201512,17.847548 C19.5201512,18.7020621 18.7788721,18.5276949 18.7750767,19.1893729 C18.7727047,19.7362825 19.5483791,19.7654294 19.5483791,19.7654294 L24.9982628,24.9877458 L25.0220628,19.4094972 L15.5545161,4.72958964 C13.3669795,6.18769155 11.3531243,7.89761299 9.55183628,9.81939511 L9.55183628,9.81939511 L9.55183628,9.81939511 Z M17.9065121,3.29676298 C19.858285,7.26429931 24.7211628,17.0436158 24.7211628,17.0436158 C24.7211628,17.0436158 24.8064909,2.84073446 26.0892279,2.07983051 L25.1313125,0.337010478 C22.592862,1.04125107 20.1722685,2.04050217 17.9065121,3.29676298 L17.9065121,3.29676298 L17.9065121,3.29676298 Z M41.6721692,0.029094172 C40.7255097,3.30235639 39.7788107,6.57546094 38.8321512,9.84903955 C39.7180488,9.95450226 40.6127233,9.9829452 41.5030093,9.93360508 C42.3035116,10.0023237 41.6799279,10.7531192 41.7225663,11.1972435 C41.7186128,13.2113452 41.7146988,15.2256051 41.7107849,17.2393904 C44.3800069,12.5236751 47.0493862,7.80756657 49.7182956,3.09184904 C49.083955,2.75062923 48.4378141,2.42941835 47.7806665,2.12903189 C46.5320771,1.59747951 45.2500962,1.14386232 43.9626919,0.71610791 C43.3132942,0.486777724 42.6546683,0.283896838 41.9893603,0.106072085 C41.8838214,0.0799050783 41.7780902,0.0542448917 41.6721692,0.029094172 L41.6721692,0.029094172 L41.6721692,0.029094172 Z M51.6229316,4.19833538 L41.735,19.4042373 C41.7308884,21.3651469 41.7267767,23.326096 41.7226651,25.2870056 C43.9344047,23.1821017 46.157293,21.0881921 48.3621535,18.9763277 C48.7806302,18.3836215 47.0338605,18.0933785 47.9069884,17.3711525 C48.6978837,17.1216164 48.8320256,15.843452 47.9991047,15.5978588 C47.3128581,14.5899379 48.6199209,14.0558023 49.4433535,14.1661412 C50.5901814,14.2185068 51.7715233,13.9163994 52.8927721,14.2350141 C53.5101488,14.8255056 54.0788186,13.3431667 54.684493,13.0094605 C55.8425246,11.8442002 57.0018863,10.6801597 58.1477173,9.50286602 C56.1973676,7.47384573 54.0066096,5.68940259 51.6229316,4.19833538 L51.6229316,4.19833538 L51.6229316,4.19833538 Z M25.0216279,30.0644068 L19.2594186,29.8985147 L19.2594186,27.6196785 L25.0216279,30.0643791 L25.0216279,30.0644068 L25.0216279,30.0644068 Z M19.2594186,26.480209 C19.2594186,26.480209 19.308563,23.0631907 19.2594186,22.6826893 C19.2102742,22.3021878 18.5869698,22.777391 18.6830791,22.017887 C18.714786,20.4355311 22.9002651,24.906 25.0454279,26.3618418 L24.9975353,29.4001582 L19.2594186,26.480209 L19.2594186,26.480209 Z M67.3951163,28.8344633 C67.2338377,27.6476271 67.0647114,26.4637571 66.7897581,25.2998588 C66.4216251,23.7416271 65.9513814,22.2085085 65.3813279,20.714661 C65.339243,20.6043893 65.2762481,20.503174 65.2330721,20.3933333 L54.3115605,24.9658757 L54.4103977,30.379209 L67.3952349,28.8343842 L67.3951163,28.8344633 L67.3951163,28.8344633 Z M41.7330233,30.2305085 L47.2066279,29.9934418 L47.3024209,27.8090068 L41.7327465,30.2304927 L41.7330233,30.2305085 L41.7330233,30.2305085 Z M41.705586,26.5758362 C41.705586,26.5758362 46.890586,21.9475311 47.9951907,21.0928983 C47.9951907,22.0424463 47.3953674,22.7778023 47.3953674,22.7778023 L47.3953674,26.3859266 L41.7292279,29.0441864 L41.705586,26.5758362 L41.705586,26.5758362 Z" id="Shape"></path>
                    </g>
                    <g id="water" transform="translate(1.186047, 42.316384)" fill="#083D9C">
                        <path d="M45.9811873,24.6411006 C44.7080724,23.9135848 42.0363005,22.5697021 39.793801,22.6504912 C36.7277352,22.7609234 34.6580431,25.7588471 32.1856326,25.5372664 C29.7133443,25.3160357 28.7231588,22.5487553 25.1628959,22.5487553 C25.0516354,22.5487553 24.9434527,22.5424884 24.8321149,22.5487553 C22.8658336,22.659716 20.9049026,23.720908 19.5815487,24.6128035 C23.6477982,26.3835282 28.1195774,27.3628814 32.8139535,27.3628814 C37.4832635,27.3628814 41.9323474,26.393959 45.9811873,24.6411006 L45.9811873,24.6411006 L45.9811873,24.6411006 Z M54.4517263,19.3573855 C52.8879385,18.1157812 50.238782,16.4317341 47.3155795,16.3703165 C42.6675455,16.2718972 43.9535817,18.3241332 40.3934002,18.6167662 C36.8334223,18.9100748 35.9428171,16.4677387 32.6793819,16.5652017 C29.4163538,16.6626524 27.5367031,18.6167662 25.0651069,18.7148396 C22.5928593,18.8122903 19.4281902,16.2718769 17.5489466,16.3702758 C16.2281379,16.4387697 12.5133015,17.8587982 10.4224398,18.6965718 C11.1142435,19.3211396 11.8309793,19.9172451 12.5709143,20.4831077 L52.8294476,20.6556185 C53.3831746,20.2394532 53.9241716,19.8064648 54.4517263,19.3573855 L54.4517263,19.3573855 L54.4517263,19.3573855 Z M6.97969405,15.1065816 L58.4986189,15.2855907 C59.0377807,14.6447861 59.5546148,13.9835944 60.0478785,13.3032924 C58.8832998,12.0983917 56.7019496,10.8820696 54.6330676,10.7015132 C51.8632188,10.7989599 49.8861047,13.5346126 47.6115522,13.632686 C45.3368776,13.7301367 42.7660674,10.7989762 40.1943209,10.8973751 C37.6233886,10.9948218 34.9531202,13.632686 32.3817807,13.632686 C29.8108484,13.632686 27.9316048,10.7989762 24.6685767,10.7989762 C21.4052229,10.7989762 19.9216138,13.9253597 17.4492033,13.7301489 C14.9762637,13.5346126 12.8007623,10.604091 10.427688,10.604091 C8.95579485,10.604091 6.87527647,11.956767 5.3184915,12.9376611 C5.84472527,13.6834252 6.39898913,14.406943 6.97969405,15.1065816 L6.97969405,15.1065816 L6.97969405,15.1065816 Z M63.7417519,6.87156015 C62.9981498,6.29599035 62.1885848,5.84119994 61.4519617,5.80655359 C59.3243778,5.7065269 57.1974046,8.3075953 54.9694668,8.20756047 C52.7408369,8.10753378 53.0446263,7.50733292 51.9307999,6.90684721 C51.3232619,8.10749308 49.0946728,9.40853189 49.0946728,9.40853189 L62.4983417,9.40856357 C62.9450499,8.58290356 63.3600824,7.73665777 63.7417519,6.87156015 L63.7417519,6.87156015 L63.7417519,6.87156015 Z M1.68692872,6.4111266 C2.23504654,6.0687194 2.79629803,5.83121348 3.32059701,5.80655359 C5.4481809,5.7065269 7.5754798,8.3075953 9.80309189,8.20756047 C12.031681,8.10753378 11.7278917,7.50733292 12.8417181,6.90684721 C13.4492561,8.10749308 15.6778452,9.40853189 15.6778452,9.40853189 L3.12956414,9.40856155 C2.6039079,8.43697994 2.12211293,7.43689316 1.68692872,6.4111266 L1.68692872,6.4111266 L1.68692872,6.4111266 Z M0.103848378,1.82386741 C0.958060517,2.40274049 2.04387735,2.93460025 3.10796076,2.88900122 C5.38251322,2.79125341 7.95336411,-0.627478269 11.118766,0.446689585 C11.21741,2.49825415 12.0085162,4.15874608 12.0085162,4.15874608 L0.79051618,4.06958466 C0.537874453,3.33205203 0.308678705,2.58316467 0.103848378,1.82386741 L0.103848378,1.82386741 L0.103848378,1.82386741 Z M65.6871016,1.19668379 C64.7979582,1.9372574 63.304667,2.9512529 61.8517488,2.88900122 C59.5767892,2.79125341 57.0060198,-0.627478269 53.8409436,0.446689585 C53.7422996,2.49825415 52.9508677,4.15874608 52.9508677,4.15874608 L64.839215,4.06426235 C65.1604067,3.12612032 65.4436667,2.16961271 65.6871016,1.19668379 L65.6871016,1.19668379 L65.6871016,1.19668379 Z M26.1879305,9.70967002 L38.7710462,9.70226365 C38.8690389,9.6044955 35.95385,5.40901056 32.4815239,5.70498051 C28.6132377,5.80501127 25.9855943,9.70971072 26.1879305,9.70971072 L26.1879305,9.70967002 L26.1879305,9.70967002 L26.1879305,9.70967002 Z M35.5442514,3.96406435 C35.5442514,3.96406435 35.6435427,2.10771055 32.3798266,2.10771055 C29.1164728,2.10771055 29.4133412,4.25706361 29.3144122,4.15894955 L35.5442514,3.96406435 L35.5442514,3.96406435 L35.5442514,3.96406435 Z" id="Shape"></path>
                    </g>
                    <g id="red" transform="translate(13.441860, 0.000000)">
                        <path d="M26.7488872,12.4609492 L26.7488872,12.059578 L26.3481391,12.0794012 C23.811434,12.2048807 21.2187313,9.81981904 20.568897,6.97604845 C19.9789976,4.39456207 21.1438081,2.35613204 24.0893222,1.57030364 C24.6624833,1.41739103 25.2155831,1.24198133 25.2139123,0.913402585 C25.2122415,0.584823842 24.6995647,0.321865787 24.082655,0.259147535 C20.4553673,-0.109621384 17.9993009,0.125272399 16.3579568,0.913402553 C14.8415422,1.64154491 14.2107011,2.53754629 13.3380202,4.62317998 L13.3080741,4.69474852 L13.4042031,26.8943101 L13.4054715,27.1872213 L13.6885832,27.2620082 L26.2694964,30.5853867 L26.7488872,30.7120228 L26.7488872,30.2160339 L26.7488872,12.4609492 L26.7488872,12.4609492 Z" id="Shape" fill="#630810"></path>
                        <path d="M25.9851129,29.7614799 L14.1679704,26.5907829 L14.0425672,4.91817595 C14.8487509,2.99146523 15.3868442,2.22719597 16.6884736,1.60218784 C18.4431921,0.759618299 21.945142,0.655014114 23.3341329,1.0059488 C20.3966026,2.01581566 19.1798847,4.32612713 19.8243276,7.14630424 C20.5507891,10.3254068 23.0592805,12.7367128 25.9851129,12.8081136 L25.9851129,29.7614799 L25.9851129,29.7614799 Z" id="Path" fill="#CE1126"></path>
                        <path d="M5.04359523,42.0715979 C5.00495672,41.5646576 4.97446006,40.8339313 4.95182972,39.9001787 C4.91181502,38.2491288 4.99497862,23.4204762 4.99497862,23.4204762 L4.76594771,23.3173209 C4.68617168,23.2813899 4.55205979,23.2049771 4.42097071,23.0989902 C4.24301026,22.9551074 4.14314159,22.8091504 4.13512731,22.684144 C4.1330251,22.6507377 4.50016331,22.3886251 4.51739303,22.3774242 C5.01196805,22.055906 5.24735442,21.784456 5.24735442,21.2983898 C5.24735442,20.7677685 4.99259483,20.5570317 4.4174744,20.3313146 C4.10165438,20.2073406 4.05377965,20.1680904 4.05041439,20.0583542 C4.0512896,19.9707312 4.46369104,19.7354731 4.49070102,19.7221329 C5.0479219,19.4465952 5.28680012,19.2245335 5.24606078,18.730679 C5.20171916,18.2180791 4.92658104,17.9977164 4.29429071,17.7161077 C3.89198124,17.5370547 3.79935377,17.4649082 3.79243072,17.3786904 C3.78531558,17.2865378 3.89607199,17.1177015 4.10811959,16.9353671 C4.19283582,16.8625217 4.47349213,16.6728126 4.49376442,16.6615253 C5.01850147,16.3230874 4.84285752,15.7332208 4.24750598,15.7256742 C4.18087656,15.7249102 3.81788039,15.7198514 3.76898919,15.7188896 C4.27291905,15.7297003 2.27062735,15.7461503 1.60815166,15.7595258 C0.801919743,15.7603128 0.57548206,15.801425 0.578209316,16.2572745 C0.579287256,16.4374476 0.645574968,16.528551 0.795238311,16.6762831 C0.804897817,16.685818 1.24121527,17.1780302 1.2380494,17.301669 C1.23512856,17.4204559 1.15713538,17.5462288 0.920823178,17.8136175 C0.824201595,17.9229454 0.830609513,17.9156648 0.798233482,17.9534617 C0.574749979,18.2143638 0.455014413,18.4127663 0.420265998,18.6655378 C0.402068309,19.0171425 0.560998124,19.2462943 0.871245993,19.5190624 C0.928191622,19.5691287 0.887306962,19.5350461 1.09207016,19.7046567 C1.38570765,19.9478841 1.48906512,20.0736867 1.49112713,20.1635247 C1.49134017,20.172655 1.43192303,20.2248885 1.18286071,20.3546223 C0.639098087,20.6379756 0.432590328,20.8210818 0.465753857,21.2436333 C0.502069777,21.6960829 0.695202216,22.0064523 1.05230503,22.3452393 C1.06132297,22.3537947 1.25301255,22.5304984 1.29597208,22.5739259 C1.38376564,22.6626758 1.4063999,22.703184 1.40580369,22.7257766 C1.40552528,22.736066 1.29794928,22.8273568 1.00665639,22.9856141 C0.918612139,23.0331847 0.871187303,23.0588915 0.827551096,23.0831712 C0.405983752,23.3177357 0.210969581,23.4907345 0.208289482,23.8316558 C0.223335365,24.1290147 0.340929952,38.1423269 0.357524,40.4534664 C0.363331932,41.2623674 0.368650394,42.0134891 0.373365966,42.687571 C0.375987869,43.0631288 0.375987869,43.0631288 0.377723344,43.313497 C0.37898725,43.4964554 0.37898725,43.4964554 0.37925131,43.5349639 C1.32144144,48.3962369 4.52104551,51.7310489 8.1955265,51.9872361 C11.9714157,52.2504935 15.2573144,49.2687009 16.7948837,43.6409833 C16.8209131,43.5457121 16.9995992,42.5394519 16.7948837,42.4514619 C16.5698953,42.3547583 15.9553361,43.1842758 15.8861656,43.2718598 C14.6450268,44.8433949 12.6177008,45.5809966 10.3411296,45.4253006 C8.03351576,45.2674815 5.92450867,44.1914789 5.15354086,42.7817449 C5.15354086,42.7817449 5.06343449,42.3318906 5.04359523,42.0715979 L5.04359523,42.0715979 Z" id="Shape" fill="#630810"></path>
                        <path d="M4.4834824,43.1484359 C5.39510946,44.815369 7.74339899,46.013452 10.2890336,46.1875494 C13.0715912,46.3778502 15.0459863,45.3563015 15.7162332,44.5620767 C14.1709772,49.1258202 11.3715193,51.4427867 8.24863083,51.2250568 C4.94715787,50.994876 2.00916533,47.9327307 1.13593847,43.4591338 C1.14274354,43.4911911 1.14274354,43.4911911 1.14147945,43.308207 C1.13974379,43.0578118 1.13974379,43.0578118 1.13712168,42.6822246 C1.1324058,42.0080974 1.127087,41.2569289 1.12127872,40.447979 C1.10468358,38.1366874 1.08749147,35.825393 1.07060964,33.6681666 C1.06400209,32.8238273 1.05755857,32.0183155 1.05131138,31.2571142 C1.01447184,26.7683295 0.987045256,24.1075668 0.971517003,23.8144442 C1.01152624,23.861481 1.08329075,23.8151406 1.19881453,23.750862 C1.23815251,23.7289739 1.28115525,23.7056641 1.37117914,23.6570112 C1.92536385,23.3559267 2.15815586,23.1583753 2.16930539,22.7461907 C2.17660561,22.4695602 2.05895444,22.259002 1.83887064,22.0365207 C1.78127003,21.9782926 1.57543369,21.7885481 1.57788648,21.7908751 C1.34449973,21.5694588 1.2453491,21.4101209 1.22713165,21.1831586 C1.27815735,21.1717835 1.34679702,21.1306583 1.49509771,21.0533729 C2.04956208,20.7645712 2.26472192,20.5754247 2.25469692,20.1458405 C2.24548917,19.7446754 2.04855427,19.5049741 1.57919008,19.1161878 C1.38630224,18.9564139 1.42359194,18.9874997 1.37546164,18.9451838 C1.22892289,18.8163477 1.17959824,18.7452293 1.18005092,18.7356847 C1.1860527,18.7031865 1.2437754,18.6075397 1.37821405,18.4505915 C1.40668309,18.4173558 1.40074073,18.4241074 1.49304197,18.319668 C1.84830792,17.9176825 1.99263089,17.6849453 2.00158315,17.3208438 C2.01109946,16.9492043 1.57919006,16.5305617 1.63964558,16.4379675 C2.30942821,16.4245143 3.53484578,16.4379675 3.53484578,16.4379675 C3.3728903,16.5234761 2.99975922,17.0339655 3.03101688,17.4387018 C3.06983136,17.9221086 3.32526581,18.1210637 3.94305559,18.3960253 C4.36880918,18.5856303 4.47418816,18.6700301 4.48500196,18.7950317 C4.4894614,18.8491273 4.12583398,19.0502607 4.09862578,19.0637078 C3.54216302,19.3391436 3.29026606,19.570047 3.28682866,20.0674269 C3.30303979,20.6048438 3.55988586,20.81542 4.1274055,21.0381991 C4.44315181,21.1621199 4.48358,21.1955621 4.48358,21.2983898 C4.48358,21.4441575 4.3960166,21.5451365 4.10120163,21.7367927 C4.08588945,21.746747 3.9999119,21.8021648 3.97489092,21.8184989 C3.54549997,22.098812 3.34725042,22.3251995 3.37289039,22.7325962 C3.39726871,23.1128521 3.6129634,23.4280875 3.94086542,23.6931996 C4.1309597,23.8468928 4.22349083,23.911839 4.22349083,23.911839 C4.22349083,23.911839 4.21705093,24.3540888 4.21339619,24.6203841 C4.20295499,25.3811623 4.19251411,26.2228429 4.18276934,27.1217025 C4.15974406,29.2455612 4.14420812,31.349076 4.13960753,33.3148844 C4.13330134,36.0094889 4.14806718,38.2594857 4.18827966,39.9186964 C4.25550448,42.6924654 4.4834824,43.1484359 4.4834824,43.1484359 L4.4834824,43.1484359 Z" id="Path" fill="#CE1126"></path>
                        <path d="M27.9738274,42.0715979 C27.9351889,41.5646576 27.9046922,40.8339313 27.8820619,39.9001787 C27.8420472,38.2491288 27.9252108,23.4204762 27.9252108,23.4204762 L27.6961799,23.3173209 C27.6164038,23.2813899 27.4822919,23.2049771 27.3512029,23.0989902 C27.1732424,22.9551074 27.0733737,22.8091504 27.0653595,22.684144 C27.0632573,22.6507377 27.4303955,22.3886251 27.4476252,22.3774242 C27.9422002,22.055906 28.1775866,21.784456 28.1775866,21.2983898 C28.1775866,20.7677685 27.922827,20.5570317 27.3477066,20.3313146 C27.0318865,20.2073406 26.9840118,20.1680904 26.9806465,20.0583542 C26.9815218,19.9707312 27.3939232,19.7354731 27.4209332,19.7221329 C27.9781541,19.4465952 28.2170323,19.2245335 28.1762929,18.730679 C28.1319513,18.2180791 27.8568132,17.9977164 27.2245229,17.7161077 C26.8222134,17.5370547 26.7295859,17.4649082 26.7226629,17.3786904 C26.7155477,17.2865378 26.8263042,17.1177015 27.0383518,16.9353671 C27.123068,16.8625217 27.4037243,16.6728126 27.4239966,16.6615253 C27.9487336,16.3230874 27.7730897,15.7332208 27.1777381,15.7256742 C27.1111087,15.7249102 26.7481125,15.7198514 26.6992213,15.7188896 C27.2031512,15.7297003 25.2008595,15.7461503 24.5383838,15.7595258 C23.7321519,15.7603128 23.5057142,15.801425 23.5084415,16.2572745 C23.5095194,16.4374476 23.5758071,16.528551 23.7254705,16.6762831 C23.73513,16.685818 24.1714474,17.1780302 24.1682816,17.301669 C24.1653607,17.4204559 24.0873675,17.5462288 23.8510553,17.8136175 C23.7544338,17.9229454 23.7608417,17.9156648 23.7284656,17.9534617 C23.5049821,18.2143638 23.3852466,18.4127663 23.3504982,18.6655378 C23.3323005,19.0171425 23.4912303,19.2462943 23.8014782,19.5190624 C23.8584238,19.5691287 23.8175391,19.5350461 24.0223023,19.7046567 C24.3159398,19.9478841 24.4192973,20.0736867 24.4213593,20.1635247 C24.4215723,20.172655 24.3621552,20.2248885 24.1130929,20.3546223 C23.5693302,20.6379756 23.3628225,20.8210818 23.395986,21.2436333 C23.4323019,21.6960829 23.6254344,22.0064523 23.9825372,22.3452393 C23.9915551,22.3537947 24.1832447,22.5304984 24.2262042,22.5739259 C24.3139978,22.6626758 24.3366321,22.703184 24.3360358,22.7257766 C24.3357574,22.736066 24.2281814,22.8273568 23.9368885,22.9856141 C23.8488443,23.0331847 23.8014195,23.0588915 23.7577833,23.0831712 C23.3362159,23.3177357 23.1412017,23.4907345 23.1385216,23.8316558 C23.1535675,24.1290147 23.2711621,38.1423269 23.2877562,40.4534664 C23.2935641,41.2623674 23.2988826,42.0134891 23.3035981,42.687571 C23.30622,43.0631288 23.30622,43.0631288 23.3079555,43.313497 C23.3092194,43.4964554 23.3092194,43.4964554 23.3094835,43.5349639 C24.2516736,48.3962369 27.4512777,51.7310489 31.1257587,51.9872361 C34.9016478,52.2504935 38.1875465,49.2687009 39.7251158,43.6409833 C39.7511452,43.5457121 39.9298314,42.5394519 39.7251159,42.4514619 C39.5001275,42.3547583 38.8855683,43.1842758 38.8163977,43.2718598 C37.575259,44.8433949 35.547933,45.5809966 33.2713618,45.4253006 C30.9637479,45.2674815 28.8547408,44.1914789 28.083773,42.7817449 C28.083773,42.7817449 27.9936666,42.3318906 27.9738274,42.0715979 L27.9738274,42.0715979 Z" id="Shape" fill="#630810" transform="translate(31.480344, 33.861092) scale(-1, 1) translate(-31.480344, -33.861092) "></path>
                        <path d="M27.8090648,43.1484359 C28.7206919,44.815369 31.0689814,46.013452 33.614616,46.1875494 C36.3971736,46.3778502 38.3715687,45.3563015 39.0418156,44.5620767 C37.4965596,49.1258202 34.6971017,51.4427867 31.5742132,51.2250568 C28.2727403,50.994876 25.3347477,47.9327307 24.4615209,43.4591338 C24.4683259,43.4911911 24.4683259,43.4911911 24.4670618,43.308207 C24.4653262,43.0578118 24.4653262,43.0578118 24.4627041,42.6822246 C24.4579882,42.0080974 24.4526694,41.2569289 24.4468611,40.447979 C24.430266,38.1366874 24.4130739,35.825393 24.396192,33.6681666 C24.3895845,32.8238273 24.383141,32.0183155 24.3768938,31.2571142 C24.3400542,26.7683295 24.3126277,24.1075668 24.2970994,23.8144442 C24.3371086,23.861481 24.4088731,23.8151406 24.5243969,23.750862 C24.5637349,23.7289739 24.6067376,23.7056641 24.6967615,23.6570112 C25.2509462,23.3559267 25.4837383,23.1583753 25.4948878,22.7461907 C25.502188,22.4695602 25.3845368,22.259002 25.164453,22.0365207 C25.1068524,21.9782926 24.9010161,21.7885481 24.9034689,21.7908751 C24.6700821,21.5694588 24.5709315,21.4101209 24.552714,21.1831586 C24.6037397,21.1717835 24.6723794,21.1306583 24.8206801,21.0533729 C25.3751445,20.7645712 25.5903043,20.5754247 25.5802793,20.1458405 C25.5710716,19.7446754 25.3741367,19.5049741 24.9047725,19.1161878 C24.7118846,18.9564139 24.7491743,18.9874997 24.701044,18.9451838 C24.5545053,18.8163477 24.5051806,18.7452293 24.5056333,18.7356847 C24.5116351,18.7031865 24.5693578,18.6075397 24.7037964,18.4505915 C24.7322655,18.4173558 24.7263231,18.4241074 24.8186244,18.319668 C25.1738903,17.9176825 25.3182133,17.6849453 25.3271655,17.3208438 C25.3366819,16.9492043 24.9047725,16.5305617 24.965228,16.4379675 C25.6350106,16.4245143 26.8604282,16.4379675 26.8604282,16.4379675 C26.6984727,16.5234761 26.3253416,17.0339655 26.3565993,17.4387018 C26.3954138,17.9221086 26.6508482,18.1210637 27.268638,18.3960253 C27.6943916,18.5856303 27.7997706,18.6700301 27.8105844,18.7950317 C27.8150438,18.8491273 27.4514164,19.0502607 27.4242082,19.0637078 C26.8677454,19.3391436 26.6158485,19.570047 26.6124111,20.0674269 C26.6286222,20.6048438 26.8854683,20.81542 27.4529879,21.0381991 C27.7687342,21.1621199 27.8091624,21.1955621 27.8091624,21.2983898 C27.8091624,21.4441575 27.721599,21.5451365 27.426784,21.7367927 C27.4114718,21.746747 27.3254943,21.8021648 27.3004733,21.8184989 C26.8710824,22.098812 26.6728328,22.3251995 26.6984728,22.7325962 C26.7228511,23.1128521 26.9385458,23.4280875 27.2664478,23.6931996 C27.4565421,23.8468928 27.5490732,23.911839 27.5490732,23.911839 C27.5490732,23.911839 27.5426333,24.3540888 27.5389786,24.6203841 C27.5285374,25.3811623 27.5180965,26.2228429 27.5083517,27.1217025 C27.4853265,29.2455612 27.4697905,31.349076 27.4651899,33.3148844 C27.4588837,36.0094889 27.4736496,38.2594857 27.5138621,39.9186964 C27.5810869,42.6924654 27.8090648,43.1484359 27.8090648,43.1484359 L27.8090648,43.1484359 Z" id="Path" fill="#CE1126" transform="translate(31.669458, 33.835548) scale(-1, 1) translate(-31.669458, -33.835548) "></path>
                    </g>
                    <g id="cross" transform="translate(18.976744, 32.429379)" fill="#630810">
                        <path d="M17.3953488,8.30508475 L22.7516973,8.44162101 C22.7516973,8.44162101 25.2425403,10.0849938 26.4883721,11.8644068 L20.8827958,11.8644068 C19.5126065,11.0425379 18.2675952,10.2219634 17.3953488,8.30508475 L17.3953488,8.30508475 Z" id="Shape"></path>
                        <path d="M2.3720937,8.30508475 L7.72844214,8.44162101 C7.72844214,8.44162101 10.2192852,10.0849938 11.465117,11.8644068 L5.85954063,11.8644068 C4.48935132,11.0425379 3.24434005,10.2219634 2.3720937,8.30508475 L2.3720937,8.30508475 Z" id="Shape" transform="translate(6.918605, 10.084746) scale(-1, 1) translate(-6.918605, -10.084746) "></path>
                        <polygon id="Shape" points="28.7056274 8.02241615 28.7093029 6.91839967 0.282535428 6.82369798 0.278859921 7.92771445"></polygon>
                        <polygon id="Shape" points="2.9545326 1.48468067 2.06560817 0.304534504 1.18415927 0.968911823 2.6877964 2.96515756 2.6877964 2.96515756 1.20150509 4.74369513 2.04826235 5.45178509 3.36972198 3.87048971 4.54553369 5.43151069 5.42698259 4.76713337 4.09651478 3.00078919 5.69792514 1.08449696 4.85116788 0.376406996 4.06467844 1.31754216 4.09777244 0.367240983 2.9947857 0.328804215 2.9545326 1.48468067"></polygon>
                        <polygon id="Shape" points="8.48941632 1.48468067 7.60049189 0.304534504 6.71904299 0.968911823 8.22268012 2.96515756 8.22268012 2.96515756 6.73638881 4.74369513 7.58314607 5.45178509 8.9046057 3.87048971 10.0804174 5.43151069 10.9618663 4.76713337 9.6313985 3.00078919 11.2328089 1.08449696 10.3860516 0.376406996 9.59956217 1.31754216 9.63265616 0.367240983 8.52966942 0.328804215 8.48941632 1.48468067"></polygon>
                        <polygon id="Shape" points="14.0243 1.48468067 13.1353756 0.304534504 12.2539267 0.968911823 13.7575638 2.96515756 13.7575638 2.96515756 12.2712725 4.74369513 13.1180298 5.45178509 14.4394894 3.87048971 15.6153011 5.43151069 16.49675 4.76713337 15.1662822 3.00078919 16.7676926 1.08449696 15.9209353 0.376406996 15.1344459 1.31754216 15.1675399 0.367240983 14.0645531 0.328804215 14.0243 1.48468067"></polygon>
                        <polygon id="Shape" points="19.5591838 1.48468067 18.6702593 0.304534504 17.7888104 0.968911823 19.2924476 2.96515756 19.2924476 2.96515756 17.8061563 4.74369513 18.6529135 5.45178509 19.9743731 3.87048971 21.1501848 5.43151069 22.0316338 4.76713337 20.7011659 3.00078919 22.3025763 1.08449696 21.455819 0.376406996 20.6693296 1.31754216 20.7024236 0.367240983 19.5994369 0.328804215 19.5591838 1.48468067"></polygon>
                        <polygon id="Shape" points="25.0940675 1.48468067 24.2051431 0.304534504 23.3236942 0.968911823 24.8273313 2.96515756 24.8273313 2.96515756 23.34104 4.74369513 24.1877972 5.45178509 25.5092569 3.87048971 26.6850686 5.43151069 27.5665175 4.76713337 26.2360497 3.00078919 27.83746 1.08449696 26.9907028 0.376406996 26.2042133 1.31754216 26.2373073 0.367240983 25.1343206 0.328804215 25.0940675 1.48468067"></polygon>
                    </g>
                </g>
            </g>
        </g>
    </g>
</svg>