<?xml version="1.0" encoding="UTF-8" standalone="no"?>
<svg width="180px" height="180px" viewBox="0 0 180 180" version="1.1" xmlns="http://www.w3.org/2000/svg" xmlns:xlink="http://www.w3.org/1999/xlink">
    <!-- Generator: Sketch 3.8.3 (29802) - http://www.bohemiancoding.com/sketch -->
    <title>gambia</title>
    <desc>Created with Sketch.</desc>
    <defs></defs>
    <g id="Page-1" stroke="none" stroke-width="1" fill="none" fill-rule="evenodd">
        <g id="flags" transform="translate(-2070.000000, -2070.000000)">
            <g id="gambia" transform="translate(2070.000000, 2070.000000)">
                <ellipse id="white" cx="89.9972382" cy="90" rx="89.9972382" ry="90"></ellipse>
                <path d="M174.873467,120 L5.12100983,120 C17.475726,154.955772 50.8118738,180 89.9972382,180 C129.182603,180 162.51875,154.955772 174.873463,120 L174.873467,120 L174.873467,120 Z" id="green" fill="#1AAF5D"></path>
                <path d="M5.12100983,60 L174.873467,60 C162.51875,25.0442275 129.182603,0 89.9972382,0 C50.8118738,0 17.475726,25.0442275 5.12101363,59.9999996 L5.12100983,60 L5.12100983,60 Z" id="red" fill="#E94B35"></path>
                <path d="M3.51755828,115 L176.476918,115 C178.767239,107.062752 179.994476,98.6746991 179.994476,90 C179.994476,81.3253009 178.767239,72.9372476 176.476918,65 L3.51755828,65 C1.22723777,72.9372476 0,81.3253009 0,90 C0,98.6746991 1.22723777,107.062752 3.51755828,115 L3.51755828,115 Z" id="blue" fill="#227FBB"></path>
            </g>
        </g>
    </g>
</svg>