<?xml version="1.0" encoding="UTF-8" standalone="no"?>
<svg width="180px" height="180px" viewBox="0 0 180 180" version="1.1" xmlns="http://www.w3.org/2000/svg" xmlns:xlink="http://www.w3.org/1999/xlink">
    <!-- Generator: Sketch 3.8.3 (29802) - http://www.bohemiancoding.com/sketch -->
    <title>georgia</title>
    <desc>Created with Sketch.</desc>
    <defs></defs>
    <g id="Page-1" stroke="none" stroke-width="1" fill="none" fill-rule="evenodd">
        <g id="flags" transform="translate(-2340.000000, -2070.000000)">
            <g id="georgia" transform="translate(2340.000000, 2070.000000)">
                <circle id="white" fill="#FFFFFF" cx="90" cy="90" r="90"></circle>
                <path d="M80,80 L0.549287698,80 C0.186333089,83.2833385 0,86.619909 0,90 C0,93.380091 0.186333089,96.7166615 0.549287698,100 L80,100 L80,179.450712 C83.2833385,179.813667 86.619909,180 90,180 C93.380091,180 96.7166615,179.813667 100,179.450712 L100,100 L179.450712,100 C179.813667,96.7166615 180,93.380091 180,90 C180,86.619909 179.813667,83.2833385 179.450712,80 L100,80 L100,0.549287698 C96.7166615,0.186333089 93.380091,0 90,0 C86.619909,0 83.2833385,0.186333089 80,0.549287698 L80,80 Z" id="red-cross" fill="#E94B35"></path>
                <path d="M36.2625454,35.3980316 C36.0501489,31.0772105 35.5384401,26.7674631 34.7274189,22.5 C38.8030152,23.0085091 34.7274189,22.5 34.7274189,22.5 C38.8030152,23.0085091 42.9260124,23.0085091 47.0016086,22.5 C46.1905875,26.7674631 45.6788787,31.0772105 45.4664822,35.3980316 C49.7873033,35.1856351 54.0970506,34.6739263 58.3645138,33.8629051 C57.8560047,37.9385014 57.8560047,42.0614986 58.3645138,46.1370949 C54.0970506,45.3260737 49.7873033,44.8143649 45.4664822,44.6019684 C45.6788787,48.9227895 46.1905875,53.2325369 47.0016086,57.5 C42.9260124,56.9914909 38.8030152,56.9914909 34.7274189,57.5 C35.5384401,53.2325369 36.0501489,48.9227895 36.2625454,44.6019684 C31.9417243,44.8143649 27.6319769,45.3260737 23.3645138,46.1370949 C23.8730229,42.0614986 23.3645138,46.1370949 23.3645138,46.1370949 C23.8730229,42.0614986 23.8730229,37.9385014 23.3645138,33.8629051 C27.6319769,34.6739263 31.9417243,35.1856351 36.2625454,35.3980316 C36.2625454,35.3980316 31.9417243,35.1856351 36.2625454,35.3980316 L36.2625454,35.3980316 Z M135.533518,35.3980316 C135.321121,31.0772105 134.809412,26.7674631 133.998391,22.5 C138.073988,23.0085091 133.998391,22.5 133.998391,22.5 C138.073988,23.0085091 142.196985,23.0085091 146.272581,22.5 C145.46156,26.7674631 144.949851,31.0772105 144.737455,35.3980316 C149.058276,35.1856351 153.368023,34.6739263 157.635486,33.8629051 C157.126977,37.9385014 157.126977,42.0614986 157.635486,46.1370949 C153.368023,45.3260737 149.058276,44.8143649 144.737455,44.6019684 C144.949851,48.9227895 145.46156,53.2325369 146.272581,57.5 C142.196985,56.9914909 138.073988,56.9914909 133.998391,57.5 C134.809412,53.2325369 135.321121,48.9227895 135.533518,44.6019684 C131.212697,44.8143649 126.902949,45.3260737 122.635486,46.1370949 C123.143995,42.0614986 122.635486,46.1370949 122.635486,46.1370949 C123.143995,42.0614986 123.143995,37.9385014 122.635486,33.8629051 C126.902949,34.6739263 131.212697,35.1856351 135.533518,35.3980316 C135.533518,35.3980316 131.212697,35.1856351 135.533518,35.3980316 L135.533518,35.3980316 Z M35.3980316,135.398032 C35.1856351,131.077211 34.6739263,126.767463 33.8629051,122.5 C37.9385014,123.008509 33.8629051,122.5 33.8629051,122.5 C37.9385014,123.008509 42.0614986,123.008509 46.1370948,122.5 C45.3260737,126.767463 44.8143649,131.077211 44.6019684,135.398032 C48.9227895,135.185635 53.2325368,134.673926 57.5,133.862905 C56.9914909,137.938502 56.9914909,142.061498 57.5,146.137095 C53.2325368,145.326074 48.9227895,144.814365 44.6019684,144.601968 C44.8143649,148.922789 45.3260737,153.232537 46.1370948,157.5 C42.0614986,156.991491 37.9385014,156.991491 33.8629051,157.5 C34.6739263,153.232537 35.1856351,148.922789 35.3980316,144.601968 C31.0772105,144.814365 26.7674631,145.326074 22.5,146.137095 C23.0085091,142.061498 22.5,146.137095 22.5,146.137095 C23.0085091,142.061498 23.0085091,137.938502 22.5,133.862905 C26.7674631,134.673926 31.0772105,135.185635 35.3980316,135.398032 C35.3980316,135.398032 31.0772105,135.185635 35.3980316,135.398032 L35.3980316,135.398032 Z M135.398032,135.398032 C135.185635,131.077211 134.673926,126.767463 133.862905,122.5 C137.938502,123.008509 133.862905,122.5 133.862905,122.5 C137.938502,123.008509 142.061498,123.008509 146.137095,122.5 C145.326074,126.767463 144.814365,131.077211 144.601968,135.398032 C148.922789,135.185635 153.232537,134.673926 157.5,133.862905 C156.991491,137.938502 156.991491,142.061498 157.5,146.137095 C153.232537,145.326074 148.922789,144.814365 144.601968,144.601968 C144.814365,148.922789 145.326074,153.232537 146.137095,157.5 C142.061498,156.991491 137.938502,156.991491 133.862905,157.5 C134.673926,153.232537 135.185635,148.922789 135.398032,144.601968 C131.077211,144.814365 126.767463,145.326074 122.5,146.137095 C123.008508,142.061498 122.5,146.137095 122.5,146.137095 C123.008508,142.061498 123.008508,137.938502 122.5,133.862905 C126.767463,134.673926 131.077211,135.185635 135.398032,135.398032 C135.398032,135.398032 131.077211,135.185635 135.398032,135.398032 L135.398032,135.398032 Z" id="crosses" fill="#E94B35"></path>
            </g>
        </g>
    </g>
</svg>