<?xml version="1.0" encoding="UTF-8" standalone="no"?>
<svg width="180px" height="180px" viewBox="0 0 180 180" version="1.1" xmlns="http://www.w3.org/2000/svg" xmlns:xlink="http://www.w3.org/1999/xlink">
    <!-- Generator: Sketch 3.8.3 (29802) - http://www.bohemiancoding.com/sketch -->
    <title>gibraltar</title>
    <desc>Created with Sketch.</desc>
    <defs></defs>
    <g id="Page-1" stroke="none" stroke-width="1" fill="none" fill-rule="evenodd">
        <g id="flags" transform="translate(-450.000000, -2340.000000)">
            <g id="gibraltar" transform="translate(450.000000, 2340.000000)">
                <circle id="white" fill="#FFFFFF" cx="90" cy="90" r="90"></circle>
                <path d="M174.878833,120 L5.12116698,120 C17.4762623,154.955772 50.8134331,180 90,180 C129.186567,180 162.523738,154.955772 174.878829,120 L174.878833,120 Z" id="red" fill="#E94B35"></path>
                <g id="castle" transform="translate(36.000000, 12.000000)">
                    <polygon id="Rectangle" fill="#000000" points="93.5126953 66 89.8457031 23.0664062 79.8427734 23.0664062 76.5537109 66 64.1230469 66 64.1230469 10.2636719 44.6269531 10.2636719 46.0712891 66 31.0009766 66 29.9599609 25.9482422 16.1015625 25.9482422 16.1015625 66 10 66 10 98 97 98 97 66 93.5126953 66"></polygon>
                    <path d="M35,93 L6.3505175,93 L0,97.3697164 L0,102 L35,102 L35,93 L35,93 L35,93 Z M73,93 L101.649482,93 L108,97.3697164 L108,102 L73,102 L73,93 L73,93 L73,93 Z" id="Shape" fill="#E94B35"></path>
                    <polygon id="Shape" fill="#E94B35" points="34.2271201 94 27 97.6143617 27 103 54.5 103 82 103 82 97.6143617 74.7728799 94 54.5 94 34.2271201 94"></polygon>
                    <path d="M32,52 L38,52 L38,93 L29.7129557,93 L29.7129557,82.1780133 C29.7129557,77.9466157 26.4056114,74.5133928 22.35609,74.5133928 C18.2496791,74.5133928 14.999217,78.111897 14.9992242,82.1780133 L14.9992242,93 L6,93 L6,52 L14,52 L14,15 L32,15 L32,52 L32,52 L32,52 Z M27.858209,52 L18.3503259,52 L18.3503259,33.8609389 C18.3503259,31.186378 20.1858316,28.9976344 22.7537313,28.8635961 C22.8365636,28.8592725 22.916129,28.8635961 23,28.8635961 C25.6839738,28.8635938 27.858209,31.100102 27.858209,33.8609389 L27.858209,52 L27.858209,52 L27.858209,52 Z" id="Shape" fill="#E94B35"></path>
                    <path d="M48.018116,55 L48.018116,32.21108 C48.018116,29.9532483 49.4895727,26.8190743 54,26.8190743 C58.5104273,26.8190743 59.981884,29.9532483 59.981884,32.21108 L59.981884,55 L55,55 L48.018116,55 L48.018116,55 L48.018116,55 Z M67,55 L67,9 L54,9 L41,9 L41,55 L35,55 L35,96 L44.4050344,96 L44.4050344,80.6515239 C44.4050344,73.4217701 49.0888238,70.0184013 55,70.0184013 C60.6816036,70.0184013 65.5949656,73.4217701 65.5949656,80.6515239 L65.5949656,96 L75,96 L75,55 L67,55 L67,55 L67,55 Z M53,12 L54.5,12 L56,12 L56,23 L54.5,23 L53,23 L53,12 L53,12 L53,12 Z M47,15 L50,15 L50,24 L47,24 L47,15 L47,15 L47,15 Z M59,15 L62,15 L62,24 L59,24 L59,15 L59,15 L59,15 Z" id="Shape" fill="#E94B35"></path>
                    <path d="M40,5 L40,10 L54.5,10 L69,10 L69,5 L54.5,5 L40,5 L40,5 L40,5 Z M12,12 L12,15 L33,15 L33,12 L12,12 L12,12 L12,12 Z M96,12 L96,15 L75,15 L75,12 L96,12 L96,12 L96,12 Z" id="Shape" fill="#E94B35"></path>
                    <path d="M37,0 L37,5 L54.5,5 L72,5 L72,0 L67.6024484,0 L67.6024484,2.75423729 L62.6411083,2.75423729 L62.6411083,0 L56.9806701,0 L56.9806701,2.75423729 L54.5,2.75423729 L52.0193299,2.75423729 L52.0193299,0 L46.3588917,0 L46.3588917,2.75423729 L41.3975516,2.75423729 L41.3975516,0 L37,0 L37,0 L37,0 Z M9,6 L9,12 L35,12 L35,6 L30.9946572,6 L30.9946572,9.05119454 L26.1558326,9.05119454 L26.1558326,6 L18.7702582,6 L18.7702582,9.05119454 L13.9314336,9.05119454 L13.9314336,6 L9,6 L9,6 L9,6 Z M99,6 L99,12 L73,12 L73,6 L77.0053428,6 L77.0053428,9.05119454 L81.8441674,9.05119454 L81.8441674,6 L89.2297418,6 L89.2297418,9.05119454 L94.0685664,9.05119454 L94.0685664,6 L99,6 L99,6 L99,6 Z" id="Shape" fill="#E94B35"></path>
                    <path d="M76,52 L73,52 L73,93 L78.2870443,93 L78.2870443,82.1780133 C78.2870443,77.9466157 81.5943886,74.5133928 85.64391,74.5133928 C89.7503209,74.5133928 93.000783,78.111897 93.0007758,82.1780133 L93.0007758,93 L102,93 L102,52 L94,52 L94,15 L76,15 L76,52 L76,52 L76,52 Z M80.141791,52 L89.6496741,52 L89.6496741,33.8609389 C89.6496741,31.186378 87.8141684,28.9976344 85.2462687,28.8635961 C85.1634364,28.8592725 85.083871,28.8635961 85,28.8635961 C82.3160262,28.8635938 80.141791,31.100102 80.141791,33.8609389 L80.141791,52 L80.141791,52 L80.141791,52 Z" id="Shape" fill="#E94B35"></path>
                    <polygon id="Shape" fill="#E94B35" points="104 49 104 52 78.1069336 52 78.1069336 55.0751953 29.1914062 55.0751953 29.1914063 52 4 52 4 49 104 49"></polygon>
                    <polygon id="Path" fill="#E94B35" points="28 45.4071856 18.5264091 45.4071856 18.5264091 41 10.1136537 41 10.1136537 45.4071856 4.40655988 45.4071856 4.40655988 41 1 41 1 49 28 49 28 52 54 52 80 52 80 49 107 49 107 41 103.59344 41 103.59344 45.4071856 97.8863463 45.4071856 97.8863463 41 89.4735909 41 89.4735909 45.4071856 80 45.4071856 80 41 75.0755865 41 75.0755865 45.2343096 68.5247611 45.2343096 68.5247611 41 59.7376194 41 59.7376194 45.2343096 54 45.2343096 48.2623806 45.2343096 48.2623806 41 39.4752389 41 39.4752389 45.2343096 32.9244135 45.2343096 32.9244135 41 28 41 28 45.4071856"></polygon>
                    <path d="M56,104.740365 C55.5900929,104.906663 55.1303101,105 54.6438709,105 C53.5637678,105 52.597013,104.50705 52.0335484,103.779343 C52.0224508,103.766798 52.0006768,103.743114 51.9896774,103.732394 C51.9869539,103.729525 51.9704093,103.712098 51.967742,103.685446 C52.1908451,102.837829 52.8732809,102.223196 53.6787096,102.13615 C53.7449935,102.128984 53.8080834,102.13615 53.8761291,102.13615 C53.8860193,102.13615 53.9084672,102.13624 53.9419355,102.13615 C53.9442379,102.135594 53.9619266,102.136293 53.9858064,102.13615 C53.9911131,102.144263 54.0023581,102.173003 54.007742,102.183099 C54.0096091,102.186096 54.0277471,102.203996 54.0516129,102.230047 C54.0704528,102.245153 54.0936518,102.263579 54.1174193,102.276995 C54.1256601,102.28136 54.1523617,102.296346 54.1612904,102.30047 C54.1891642,102.312466 54.2357095,102.314516 54.2709678,102.323944 C54.3625563,102.346314 54.4883431,102.370892 54.6438709,102.370892 C54.9061281,102.370892 55.070044,102.344015 55.1703226,102.30047 C55.188966,102.291373 55.2211637,102.263639 55.2361291,102.253521 C55.2454016,102.24658 55.2719207,102.237326 55.28,102.230047 C55.2837764,102.226336 55.2983627,102.210351 55.3238709,102.183099 C55.3392784,102.163478 55.3532189,102.132717 55.367742,102.112676 C55.3699811,102.109221 55.3875085,102.092905 55.3896774,102.065728 C55.3935662,102.056932 55.4079909,102.028417 55.4116129,102.018779 C55.4454575,101.921516 55.4703054,101.78449 55.4879777,101.646777 L55.4879777,101.646777 C55.4661262,101.651558 55.4435077,101.655869 55.4210527,101.659325 C55.4192421,101.659117 55.3968843,101.659389 55.3947368,101.659325 C55.0841768,101.531335 54.7357643,101.457886 54.3684211,101.457886 C54.3313516,101.457886 54.2944168,101.458086 54.2631579,101.457886 C54.2534905,101.458029 54.2243452,101.457786 54.2105263,101.457886 C54.1960084,101.456854 54.1707873,101.458079 54.1578948,101.457886 C54.1266357,101.458086 54.0897011,101.457886 54.0526316,101.457886 C52.7465263,101.457886 51.6842105,102.350942 51.6842105,103.539421 L51.6842105,108.774842 L53,108 L56,109.766639 L56,104.740365 L56,104.740365 L56,104.740365 Z M58,101.408451 C58,100.58883 57.6561077,100.113029 57.2980645,99.6478874 C57.1794346,99.4937756 57.0490839,99.3415357 56.908266,99.1896871 C56.9912955,99.1235898 57.0722709,99.0582013 57.1495727,98.9941291 C57.9241436,98.3521202 58.6259897,97.7359392 59.542735,97.0684932 C61.0261402,95.9884837 62.6062291,94.9359856 63.965812,94.109589 C65.325388,93.2831924 64.9467696,93.5317618 65.4145508,93.3803711 L65.4145508,90.1357422 C64.4971012,90.4326696 64.2376273,90.9416567 62.8119658,91.8082192 C61.3862974,92.6747816 59.7555897,93.7650486 58.2179487,94.8845401 C57.0779829,95.7144986 56.1257778,96.5432548 55.1837607,97.3502935 C55.128303,97.3978043 55.0693033,97.4456758 55.0081584,97.4937293 C54.0980437,96.7797739 53.0294986,96.0375119 51.8580645,95.2816901 C49.5547073,93.7955495 46.8978079,92.3013979 44.4897986,91.1557205 L44.3770535,94.0056928 C46.4343109,95.0307701 48.6601172,96.2927396 50.5858064,97.5352113 C51.5165268,98.1357216 52.3766643,98.7300724 53.115047,99.2855161 C52.9760099,99.4240631 52.8294373,99.5625578 52.7264957,99.6986302 C52.5718425,99.9030501 52.4193581,100.096361 52.2943286,100.317696 C50.9356978,100.900143 50,102.139152 50,103.539421 L50,109.766639 L42.9632353,113.910448 L41,113.910448 L41,117.089552 L42.9632353,117.089552 L52,122.41112 L52,146 L41,146 L41,152 L44.4936709,152 L44.4936709,148.988326 L49.2459313,148.988326 L49.2459313,152 L52,152 L52,154 L49.2459313,154 L49.2459313,157 L44.4936709,157 L44.4936709,154 L41,154 L41,160 L52,160 L52,164 L55,164 L55,121.82224 L63.0367647,117.089552 L65,117.089552 L65,113.910448 L63.0367647,113.910448 L58,110.944399 L58,103.805158 C58,103.531896 57.97429,103.258986 57.90625,103.000311 C57.82431,103.059149 57.77385,103.136688 57.71875,103.195425 C57.6694976,103.24501 57.6177272,103.293623 57.5635509,103.341182 C57.9097905,102.687573 58,101.992816 58,101.408451 L58,101.408451 L58,101.408451 Z M56.2920221,112.679454 L53.5,111 L51.7775421,112.036091 C52.0637391,112.921327 52.9752492,113.54423 54.0526316,113.544218 C54.0904927,113.544218 54.1269643,113.544032 54.1578948,113.544218 C54.1707537,113.544039 54.1956716,113.545171 54.2105263,113.544218 C54.2244043,113.544311 54.2535157,113.544082 54.2631579,113.544218 C54.2940884,113.544032 54.33056,113.544218 54.3684211,113.544218 C55.1586126,113.54423 55.8610024,113.207856 56.2920221,112.679454 L56.2920221,112.679454 L56.2920221,112.679454 L56.2920221,112.679454 Z M57.6599156,113.502268 L61,115.511392 L53.5,120 L46,115.511392 L50.3557649,112.891317 C50.9910124,114.126942 52.4089646,114.99906 54.0526316,114.999055 C54.1108379,114.999055 54.1528843,115.001182 54.2105263,114.999055 C54.2681684,115.001182 54.3102148,114.999055 54.3684211,114.999055 C55.7222069,114.999061 56.9234185,114.402731 57.6599156,113.502268 L57.6599156,113.502268 L57.6599156,113.502268 L57.6599156,113.502268 Z" id="Shape" fill="#F2C500"></path>
                </g>
            </g>
        </g>
    </g>
</svg>