<?xml version="1.0" encoding="UTF-8" standalone="no"?>
<svg width="180px" height="180px" viewBox="0 0 180 180" version="1.1" xmlns="http://www.w3.org/2000/svg" xmlns:xlink="http://www.w3.org/1999/xlink">
    <!-- Generator: Sketch 3.8.3 (29802) - http://www.bohemiancoding.com/sketch -->
    <title>greece</title>
    <desc>Created with Sketch.</desc>
    <defs></defs>
    <g id="Page-1" stroke="none" stroke-width="1" fill="none" fill-rule="evenodd">
        <g id="flags" transform="translate(-720.000000, -2340.000000)">
            <g id="greece" transform="translate(720.000000, 2340.000000)">
                <circle id="white" fill="#FFFFFF" cx="90" cy="90" r="90"></circle>
                <path d="M0.549287698,100 L179.450712,100 C179.813667,96.7166615 180,93.380091 180,90 C180,86.619909 179.813667,83.2833385 179.450712,80 L90,80 L90,85 L90,0 C79.480937,0 69.3833673,1.80462645 59.9999996,5.12117078 L60,40 L90,40 L90,60 L60,60 L60,90 L40,90 L40,60 L5.12117067,60 C1.8046264,69.3833676 0,79.4809371 0,90 C0,91.6900455 0.0465832723,93.3692109 0.138535871,95.0362822 C0.230488469,96.7033535 0.367810393,98.3583307 0.549287698,100 Z M90,40 L164.844511,40 C168.974656,46.1701163 172.362066,52.8794197 174.878829,60 L90,60 L90,40 L90,40 Z M90,0 C111.432968,0 131.116084,7.49200111 146.573345,20 L90,20 L90,0 L90,0 Z M164.84451,140.000001 C168.974656,133.829885 172.362065,127.120581 174.878829,120 L174.878833,120 L5.12117078,120 C7.63793466,127.120581 11.0253444,133.829885 15.1554897,140.000001 L164.844517,140 L164.84451,140.000001 L164.84451,140.000001 Z M146.573345,160 C131.116084,172.507999 111.432968,180 90,180 C68.5670321,180 48.8839158,172.507999 33.4266546,160 L146.573345,160 L146.573345,160 Z M15.1554904,39.9999979 C21.7279435,30.1812636 30.1812655,21.7279418 40,15.155489 L40,40 L15.1554915,40 L15.1554904,39.9999979 L15.1554904,39.9999979 Z" id="blue" fill="#227FBB"></path>
                <path d="M40,59.9999998 L5.12117078,59.9999996 C7.63793452,52.8794194 11.025344,46.1701161 15.155489,40 L40,40 L40,15.155489 C46.1701161,11.025344 52.8794194,7.63793452 59.9999996,5.12117078 L60,5.12116698 L60,40 L90,40 L90,60 L60,59.9999999 L60,100 L40,100 L40,59.9999998 L40,59.9999998 Z" id="cross" fill="#FFFFFF"></path>
            </g>
        </g>
    </g>
</svg>