<?xml version="1.0" encoding="UTF-8" standalone="no"?>
<svg width="180px" height="180px" viewBox="0 0 180 180" version="1.1" xmlns="http://www.w3.org/2000/svg" xmlns:xlink="http://www.w3.org/1999/xlink">
    <!-- Generator: Sketch 3.8.3 (29802) - http://www.bohemiancoding.com/sketch -->
    <title>grenada</title>
    <desc>Created with Sketch.</desc>
    <defs></defs>
    <g id="Page-1" stroke="none" stroke-width="1" fill="none" fill-rule="evenodd">
        <g id="flags" transform="translate(-1260.000000, -2340.000000)">
            <g id="grenada" transform="translate(1260.000000, 2340.000000)">
                <path d="M12.0719486,44.9749036 C4.4060906,58.2183749 0.0182516584,73.5967178 0.0182516584,90 C0.0182516584,106.403282 4.4060906,121.781625 12.0719486,135.025096 L90,90 L12.0719486,44.9749036 L12.0719486,44.9749036 L12.0719486,44.9749036 L12.0719486,44.9749036 L12.0719486,44.9749036 Z" id="green" fill="#1AAF5D"></path>
                <path d="M167.923477,135.032999 C175.592164,121.787743 179.981748,106.406545 179.981748,90 C179.981748,73.5934552 175.592164,58.2122573 167.923477,44.9670014 L89.9817483,90 L167.923477,135.032999 L167.923477,135.032999 L167.923477,135.032999 L167.923477,135.032999 L167.923477,135.032999 Z" id="green" fill="#1AAF5D"></path>
                <polygon id="yellow" fill="#F2C500" points="12.1153846 45 167.884659 44.999975 90 90 167.884615 135 12.1153413 135.000025 90 90 12.1153846 45 12.1153846 45 12.1153846 45"></polygon>
                <path d="M167.959589,135.000025 C152.398162,161.901074 123.312698,180 90,180 C56.6873022,180 27.6018377,161.901074 12.0404109,135.000025 L167.959604,135 L167.959604,135 L167.959589,135.000025 L167.959589,135.000025 L167.959589,135.000025 Z M167.959589,44.9999749 C152.398162,18.0989265 123.312698,0 90,0 C56.6873022,0 27.6018377,18.0989265 12.0404109,44.9999749 L167.959604,45 L167.959604,45 L167.959589,44.9999749 L167.959589,44.9999749 L167.959589,44.9999749 Z" id="red" fill="#E94B35"></path>
                <path d="M15.1739078,88.3323023 C17.7631612,93.1555341 22.799673,98.4041761 27.1980695,100.249537 C27.2687796,95.3515705 25.5309214,89.0738957 23.1543731,84.0724515 L15.1739078,88.3323023 L15.1739078,88.3323023 Z M91,108 C100.941126,108 109,100.388841 109,91 C109,81.6111588 100.941126,74 91,74 C81.058874,74 73,81.6111588 73,91 C73,100.388841 81.058874,108 91,108 L91,108 Z" id="shape" fill="#E94B35"></path>
                <path d="M90.9999996,98.75 L80.4198663,103.848781 L82.4404915,93.0493905 L73.8809826,85.40122 L85.7099344,83.8256087 L91.0000002,74 L96.2900692,83.8256111 L108.11902,85.4012278 L99.5595078,93.0493926 L101.580133,103.848781 L90.9999996,98.75 L90.9999996,98.75 Z M48.4999997,38.25 L41.7404701,41.8036958 L43.0314251,34.2768479 L37.56285,28.9463048 L45.1202359,27.8481515 L48.5000001,21 L51.8797664,27.8481532 L59.4371518,28.9463103 L53.9685744,34.2768494 L55.2595296,41.803696 L48.4999997,38.25 L48.4999997,38.25 Z M91.4999997,38.25 L84.7404701,41.8036958 L86.0314251,34.2768479 L80.56285,28.9463048 L88.1202359,27.8481515 L91.5000001,21 L94.8797664,27.8481532 L102.437152,28.9463103 L96.9685744,34.2768494 L98.2595296,41.803696 L91.4999997,38.25 L91.4999997,38.25 Z M134.5,38.25 L127.74047,41.8036958 L129.031425,34.2768479 L123.56285,28.9463048 L131.120236,27.8481515 L134.5,21 L137.879766,27.8481532 L145.437152,28.9463103 L139.968574,34.2768494 L141.25953,41.803696 L134.5,38.25 L134.5,38.25 Z M48.4999997,156.25 L41.7404701,159.803696 L43.0314251,152.276848 L37.56285,146.946305 L45.1202359,145.848151 L48.5000001,139 L51.8797664,145.848153 L59.4371518,146.94631 L53.9685744,152.276849 L55.2595296,159.803696 L48.4999997,156.25 L48.4999997,156.25 Z M90.4999997,156.25 L83.7404701,159.803696 L85.0314251,152.276848 L79.56285,146.946305 L87.1202359,145.848151 L90.5000001,139 L93.8797664,145.848153 L101.437152,146.94631 L95.9685744,152.276849 L97.2595296,159.803696 L90.4999997,156.25 L90.4999997,156.25 Z M134.5,156.25 L127.74047,159.803696 L129.031425,152.276848 L123.56285,146.946305 L131.120236,145.848151 L134.5,139 L137.879766,145.848153 L145.437152,146.94631 L139.968574,152.276849 L141.25953,159.803696 L134.5,156.25 L134.5,156.25 Z M10.6535344,72 C14.4069171,79.8240983 0.919114331,98.4904079 23.3905456,102.865234 C20.6184808,99.0825329 18.8311831,92.8393508 19.5072404,87.8264091 C24.2218201,89.6200304 29.182448,94.8686724 31.1870498,98.8813254 C37.0680583,77.5245838 16.1022342,78.8238095 10.6535344,72 C10.6535344,72 16.1022342,78.8238095 10.6535344,72 L10.6535344,72 Z" id="stars" fill="#F2C500"></path>
            </g>
        </g>
    </g>
</svg>