<?xml version="1.0" encoding="UTF-8" standalone="no"?>
<svg width="180px" height="180px" viewBox="0 0 180 180" version="1.1" xmlns="http://www.w3.org/2000/svg" xmlns:xlink="http://www.w3.org/1999/xlink">
    <!-- Generator: Sketch 3.8.3 (29802) - http://www.bohemiancoding.com/sketch -->
    <title>guam</title>
    <desc>Created with Sketch.</desc>
    <defs></defs>
    <g id="Page-1" stroke="none" stroke-width="1" fill="none" fill-rule="evenodd">
        <g id="flags" transform="translate(-1530.000000, -2340.000000)">
            <g id="guam" transform="translate(1530.000000, 2340.000000)">
                <circle id="red" fill="#E94B35" cx="90" cy="90" r="90"></circle>
                <circle id="blue" fill="#227FBB" cx="90" cy="90" r="85"></circle>
                <g id="emblem" transform="translate(55.000000, 37.000000)">
                    <path d="M35.6141967,0 C35.6141967,0 0,24.391601 0,53.1525677 C0,81.9181399 35.6141967,107 35.6141967,107 C35.6141967,107 71,83.9866256 71,53.1525677 C71,22.3208148 35.6141967,0 35.6141967,0" id="Shape" fill="#E94B35"></path>
                    <path d="M65.774178,63 C66.555898,59.9187134 67,56.7192696 67,53.4202084 C67,25.6191334 35.7285428,5 35.7285428,5 C35.7285428,5 4,26.3164771 4,53.4202084 C4,56.6752541 4.45189486,59.8468925 5.24920044,62.9189136 L65.774178,63" id="Shape" fill="#2C97DE"></path>
                    <path d="M34.9742614,102 C34.9742614,102 59.28314,85.7412043 65,63 L5,63 C10.8043762,85.3030816 34.9742614,102 34.9742614,102" id="Shape" fill="#227FBB"></path>
                    <path d="M66,56 C60.6704328,59.6605723 30.6767761,57.902706 30.6767761,57.902706 L29,62 L64.9320224,62 C65.0816419,61.4381866 65.2183692,60.876369 65.3421913,60.307973 L66,56" id="Shape" fill="#9C8431"></path>
                    <path d="M33.9984404,83.3431677 C33.5404092,80.1522877 19.4682427,76.735285 12,77.0162301 C14.3315592,80.6753461 16.973649,84.0238287 19.6312684,87 C23.424909,82.9274615 34.1485291,84.3961356 33.9984404,83.3431677" id="Shape" fill="#F2C500"></path>
                    <path d="M62,72 C60.2236466,72.0641541 56.9999982,72.3505457 54.791773,73.5121427 C51.606684,75.1915407 44.4755758,77.0267312 41.2879156,76.1079884 C38.1028222,75.1915407 33.0951111,78.0943945 33.704366,78.703834 C34.7146468,79.7233873 42.0462701,78.5526184 42.0462701,85.1212764 C42.0462701,90.619976 33.5526951,88.1776367 30.2133639,90.4687648 C28.2005071,91.8457316 26.7969096,93.3418346 26,94.3041061 C31.2133643,99.1773309 35.2956271,102 35.2956271,102 C35.2956271,102 44.9742904,95.5252757 53.5449844,85.0410871 L57.5758316,79.6386121 C59.2005141,77.2352243 60.7069383,74.6852023 62,72" id="Shape" fill="#F2C500"></path>
                    <polygon id="Shape" fill="#000000" points="24 70 25 70 25 56 24 56 24 70"></polygon>
                    <path d="M27.9889694,72.7760009 C27.9889694,72.7760009 27.4573731,72.8580026 26.6119976,72.9520023 L26.6119976,72 L25.7510688,72 L25.7510688,73.0340001 C24.869386,73.1120024 23.801006,73.1759994 22.6807522,73.1759994 C21.4904909,73.1759994 20.2898548,73.1000006 19.2992635,73.0119999 L19.2992635,72.0260034 L18.3501624,72.0260034 L18.3501624,72.9180003 C17.5307238,72.8279999 17.0017168,72.7500015 17.0017168,72.7500015 C17.0017168,72.7500015 16.7424007,74 22.5977762,74 C28.4505492,74 27.991563,72.7760009 27.991563,72.7760009 L27.9889694,72.7760009 L27.9889694,72.7760009 Z M22.4270946,69.7477492 C27.0849882,69.7477492 30.9920237,69 30.9920237,69 C30.9920237,69 31.5901635,72 22.4270946,72 C13.2640213,72 14.0148882,69.4504536 14.0148882,69.4504536 C14.0148882,69.4504536 17.7717424,69.7477492 22.4270946,69.7477492 L22.4270946,69.7477492 Z" id="Shape" fill="#7B4800"></path>
                    <path d="M37.9550925,26.0001645 C38.0110693,24.1539117 38.0379464,22.0560214 37.8931734,21.6013284 L37.3487806,21.9966768 L37.5106302,19.6245868 L36.6964938,20.1351493 L36.5370969,17.3112289 L35.7205078,18.2126266 L35.5071681,15.4451839 L34.9088283,16.4075768 L34.3104885,13.6943531 L33.6606502,14.5415275 L33.0623104,12.7929554 L32.5743216,13.4684379 L31.2182451,12 L31.2182451,12.0045175 L31.8165849,13.4684379 L31,13.6401342 L32.8465137,15.5603981 L31.3800947,15.6168758 L33.1726614,17.0830593 L32.3021252,17.3699654 L33.9328507,19.0643185 L33.0623104,19.5138857 L34.7445302,21.2647166 L33.6067031,21.7142882 L35.5071681,23.5238555 L34.4208395,23.582592 L35.5586666,25.10299 L34.9152633,25.3160958 C33.4254062,23.4561683 29.3330411,18.7816111 26,19.0079365 L26,19.012451 L26.8961616,20.136727 L26.4468133,20.4798834 L27.9649647,21.3264751 L27.6273122,21.9450542 L29.1454679,22.5094472 L28.5818717,22.9632241 L29.9324643,23.7488626 L29.0337635,24.0355757 L30.6610801,24.8234714 L30.4376756,25.5549282 L31.841579,25.895823 L31.2246719,26.4015199 L32.8519928,27.7041458 L34.7077924,29 L35.7135099,28.6503417 L35.7135099,28.6503417 C35.7219001,28.7362669 35.7245446,28.8163891 35.7205078,28.8893033 L37.1165329,28.962326 L37.5333723,29.6312821 L33.6886229,28.894792 L33.7068406,28.894792 C33.7068406,28.894792 28.8074682,25.9832382 22.1248425,27.3784559 C15.4422122,28.7760025 14,33.0245436 14,33.0245436 L16.2466291,31.9787125 L16.303904,32.9104072 L18.3214469,31.6293259 L18.3787173,32.5610206 L20.1072952,30.9328815 L20.391057,31.9787125 L21.9478146,30.581166 L22.0649637,31.3381696 L24.5979585,29.7077017 L24.5979585,30.7558571 L26.6155013,29.8218335 L26.4436855,30.8140919 L30.2470856,30.1176475 C30.2470856,30.1176475 21.2579475,33.1433332 20.1072952,40.4222176 L21.8332737,38.3305555 L22.0076933,39.3158274 L23.1010707,37.1053757 L23.3900357,37.97884 L24.3688678,35.9407551 L24.6552334,37.1612772 L26.1521212,34.9484967 L26.2692703,36.2319114 L27.9952444,33.8444353 L27.9952444,35.0043982 L29.8409714,32.9663087 L29.7836965,34.4849782 C29.7836965,34.4849782 31.5695493,32.9663087 32.1422716,32.9663087 L30.0127872,35.7637307 L30.7052626,35.9966566 C30.7052626,35.9966566 29.205771,37.2195076 29.0912256,37.4524335 C28.9766803,37.6830261 30.0726615,37.4524335 30.0726615,37.4524335 C30.0726615,37.4524335 28.7449902,38.8476512 28.6877153,39.257597 C28.6304448,39.6675429 29.552002,39.257597 29.552002,39.257597 C29.552002,39.257597 28.3414798,40.8275058 28.169664,41.414476 C27.9952444,41.9967841 28.8022562,41.5286079 28.8022562,41.5286079 C28.8022562,41.5286079 28.0551186,43.3920018 27.9952444,43.916084 C27.9379695,44.435504 28.8595311,43.7972899 28.8595311,43.7972899 L29.3801906,47 L30.3017478,43.1614092 L30.8770739,44.0348736 L30.8770739,41.295682 L31.3951252,41.759205 L31.3378592,39.9586992 L32.0277307,40.6551436 L31.6840946,38.442363 L32.4312366,39.3111697 L32.3166912,37.4524335 L33.0638332,38.211766 L33.0638332,35.7637307 L33.7563086,36.3996159 L33.8708539,34.7178996 L34.6778657,35.1231878 C34.6778657,35.1231878 34.7924111,33.0851028 35.7165765,33.1433332 C36.6355343,33.1969058 37.7887904,34.1891642 37.3280096,34.6526827 L38.1350259,34.4267478 L37.9632101,36.3996159 L38.710352,35.9360974 L38.5958067,37.3918743 L39.2284033,37.100718 L38.999317,38.961783 L39.7490628,38.5029223 L39.8037295,40.7669466 L40.6654168,40.1310614 L40.6081419,42.8050315 L41.4724331,42.1109205 L41.4724331,44.3213721 L42.2794537,43.7437173 L43.1463443,45.8959386 L42.9719291,42.6932285 L43.6071295,43.2149819 L42.4512651,40.9462953 L43.3181601,40.8275058 L42.3939947,39.3111697 L43.2582858,39.3763866 L41.9930926,37.8600505 L42.8547799,37.6876883 L40.9517735,36.2878129 L41.9904888,35.8825247 L40.0302164,34.5991101 L40.7799622,34.3079538 L39.4002236,32.8521769 L40.8398364,33.4344894 L41.2980134,32.5027902 L43.0265913,33.9026656 L43.0265913,32.5027902 L44.5234791,34.5991101 L44.6979031,33.3156954 L45.8511548,34.9484967 L46.0802455,34.1938219 L46.8872618,35.821961 L47.2881683,34.6037678 L48.0951801,36.3507009 L48.3242708,35.1231878 L49.0740166,37.0471454 L49.766492,36.2878129 L50.1127274,38.2699963 L50.7999951,37.5106638 L51.4325918,39.257597 L52.239608,38.6170541 L52.9320833,40.5992421 C52.9320833,40.5992421 54.6132637,31.2216242 41.2468824,29.9594753 L43.2246528,30 L43.0502318,28.888665 L44.8387438,28.9975749 L44.6643183,28.0551648 L46.4502264,28.6108301 L46.1039794,27.7217639 L48.1788666,28.6686229 L47.8326151,27.8306738 L49.4467106,28.7197444 L49.2176122,27.77733 L50.7718225,28.555264 L50.5427241,27.77733 L52.0396664,28.8330989 L51.8652365,27.8862399 L54,28.7753105 C51.292495,23.7231749 40.2281775,26.4459485 40.2281775,26.4459485 C40.4572759,26.1103253 43.7427258,24.9989903 43.7427258,24.9989903 L42.4150101,24.3299661 L44.4898884,24.1099197 L43.4537512,23.1675096 L44.8960162,22.8896747 L46.7366016,22.667406 L45.4713616,21.8339058 L47.9471643,21.6649809 L46.9110271,21.058194 L48.9859143,20.3336037 L47.9471643,19.8890663 L49.7356808,19 C43.5977709,19.1728326 39.6888598,22.6383739 37.9550925,26.0001645 L37.9550925,26.0001645 Z" id="Shape" fill="#1AAF5D"></path>
                    <path d="M36.9962521,31.9135615 C37.1536526,31.969536 37.3232214,32 37.5,32 C38.3263476,32 39,31.3295048 39,30.5 C39,29.6731449 38.3263476,29 37.5,29 C36.6706578,29 36,29.6731449 36,30.5 C36,30.6767918 36.030464,30.8463608 36.0864356,31.0037551 C36.0576055,31.0012689 36.028422,31 35.9989366,31 C35.817412,31 35.6471882,31.0484644 35.5004832,31.1332138 C35.3533099,31.0484249 35.1823767,31 35,31 C34.4474896,31 34,31.444444 34,31.9979801 C34,32.5494925 34.4474896,33 35,33 C35.1816806,33 35.3520048,32.9512884 35.4987968,32.8662917 C35.6458831,32.9513693 35.8167161,33 35.9989366,33 C36.5527163,33 37,32.5542947 37,32.0009441 C37,31.9715 36.9987336,31.9423553 36.9962521,31.9135615 L36.9962521,31.9135615 Z M35.4790458,33.0762546 L36.6092926,33 C36.0811604,44.0175402 36.5761095,59.8136626 38.0380513,65.6621108 C40.5205182,75.5959185 47.758705,79.4224799 49.4808676,80.3745007 C50.4580328,80.9105888 50.0829822,83.1450581 48.1235481,82.9925533 C46.169209,82.8377338 39.3392428,77.6755727 36.9817913,68.4326682 C33.8232143,56.0310066 35.3565779,34.3679534 35.4790458,33.0762546 L35.4790458,33.0762546 Z M35.0000018,29 C35.5522394,29 36,29.4452813 36,29.9981135 C36,30.5509421 35.5522394,31 35.0000018,31 C34.4477643,31 34,30.5509421 34,29.9981135 C34,29.4452813 34.4477643,29 35.0000018,29 L35.0000018,29 Z" id="Shape" fill="#7B4800"></path>
                    <path d="M19.9797727,49.8917122 L18.6523383,49.8917122 C18.5486727,49.3060493 18.2983578,48.8942572 17.9013894,48.6677682 C17.6788888,48.5373662 17.4336275,48.4755985 17.1630853,48.4755985 C16.6396993,48.4755985 16.214921,48.7295403 15.8811635,49.253431 C15.5448814,49.7704641 15.3780048,50.5574506 15.3780048,51.5983744 C15.3780048,52.6530269 15.5600508,53.3942572 15.9216225,53.8380813 C16.2831855,54.2704641 16.6953234,54.4900866 17.1580317,54.4900866 C17.6106199,54.4900866 17.9797741,54.3185077 18.2705436,53.9707706 C18.5587885,53.6276083 18.7357809,53.1723429 18.8065744,52.6072707 L17.3097345,52.6072707 L17.3097345,51.1820031 L20,51.1820031 L20,55.7712281 L19.1074598,55.7712281 L18.9709264,54.702847 C18.7104957,55.1100688 18.4778792,55.3960338 18.2705436,55.5653298 C17.9140342,55.8558739 17.4766154,56 16.9557541,56 C16.1011395,56 15.3982322,55.6065068 14.8546145,54.8195248 C14.2857159,54.0325383 14,52.9527204 14,51.5846458 C14,50.2005596 14.2882449,49.0864268 14.8647303,48.2514013 C15.4361579,47.4163713 16.1972183,47 17.1453912,47 C17.9646004,47 18.6245284,47.2768199 19.1226292,47.8281679 C19.6182053,48.3772241 19.9064502,49.0658361 19.9797727,49.8917122 L19.9797727,49.8917122 Z M26,52.3967114 L26,47 L27.3200201,47 L27.3200201,52.3967114 C27.3200201,52.9976499 27.3736028,53.4366164 27.4734519,53.7159624 C27.6317597,54.2065726 27.9727223,54.4553982 28.503656,54.4553982 C29.0272777,54.4553982 29.3706805,54.2065726 29.5289799,53.7159624 C29.6312733,53.4366164 29.6775439,52.9976499 29.6775439,52.3967114 L29.6775439,47 L31,47 L31,52.3967114 C31,53.326288 30.8977108,54.0516416 30.6931324,54.5751147 C30.3083309,55.523472 29.5801266,56 28.5012201,56 C27.4247411,56 26.6916733,55.5281661 26.3068676,54.5751147 C26.1022934,54.0563357 26,53.326288 26,52.3967114 L26,52.3967114 Z M41.2649007,47 L39,56 L40.3907285,56 L40.8278146,54.1504854 L43.1589404,54.1504854 L43.5695364,56 L45,56 L42.7483444,47 L41.2649007,47 L41.2649007,47 Z M42.0082645,49 L43,52 L41,52 L42.0082645,49 L42.0082645,49 Z M54.0145442,54.0762395 L55.1353049,47 L57,47 L57,56 L55.7917166,56 L55.7917166,49.9157273 C55.7917166,49.737559 55.7941358,49.4919723 55.7966007,49.1765645 C55.7990199,48.861152 55.8014848,48.6179772 55.8014848,48.4494381 L54.6248045,56 L53.3654731,56 L52.1985152,48.4494381 C52.1985152,48.6179772 52.2009344,48.861152 52.2033993,49.1765645 C52.2058185,49.4919723 52.2082834,49.737559 52.2082834,49.9157273 L52.2082834,56 L51,56 L51,47 L52.8865758,47 L54.0146314,54.0762395 L54.0145442,54.0762395 L54.0145442,54.0762395 Z" id="Shape" fill="#E94B35"></path>
                    <path d="M18.5050045,57 C18.5050045,57 26.0226584,59.6352139 29,68.8529887 C29,68.8529887 22.108596,67.5386746 18.1918749,69 L16,69 C16,68.9954295 19.760154,63.8787731 18.5050045,57" id="Shape" fill="#FFFFFF"></path>
                </g>
            </g>
        </g>
    </g>
</svg>