<?xml version="1.0" encoding="UTF-8" standalone="no"?>
<svg width="180px" height="180px" viewBox="0 0 180 180" version="1.1" xmlns="http://www.w3.org/2000/svg" xmlns:xlink="http://www.w3.org/1999/xlink">
    <!-- Generator: Sketch 3.8.3 (29802) - http://www.bohemiancoding.com/sketch -->
    <title>guernsey</title>
    <desc>Created with Sketch.</desc>
    <defs></defs>
    <g id="Page-1" stroke="none" stroke-width="1" fill="none" fill-rule="evenodd">
        <g id="flags" transform="translate(-2070.000000, -2340.000000)">
            <g id="guernsey" transform="translate(2070.000000, 2340.000000)">
                <circle id="white" fill="#FFFFFF" cx="90" cy="90" r="90"></circle>
                <path d="M75,1.24437643 L75,75 L1.24437643,75 C0.425981881,79.8781271 0,84.8893168 0,90 C0,95.1106832 0.425981881,100.121873 1.24437643,105 L75,105 L75,178.755624 C79.8781271,179.574018 84.8893168,180 90,180 C95.1106832,180 100.121873,179.574018 105,178.755624 L105,105 L178.755624,105 C179.574018,100.121873 180,95.1106832 180,90 C180,84.8893168 179.574018,79.8781271 178.755624,75 L105,75 L105,1.24437643 C100.121873,0.425981881 95.1106832,0 90,0 C84.8893168,0 79.8781271,0.425981881 75,1.24437643 L75,1.24437643 Z" id="red-cross" fill="#E94B35"></path>
                <polygon id="yellow" fill="#F2C500" points="30 103.333333 36.6666667 96.6666667 83.3333333 96.6666667 83.3333333 143.333333 76.6666667 150 103.333333 150 96.6666667 143.333333 96.6666667 96.6666667 143.333333 96.6666667 150 103.333333 150 76.6666667 143.333333 83.3333333 96.6666667 83.3333333 96.6666667 36.6666667 103.333333 30 76.6666667 30 83.3333333 36.6666667 83.3333333 83.3333333 36.6666667 83.3333333 30 76.6666667"></polygon>
            </g>
        </g>
    </g>
</svg>