<?xml version="1.0" encoding="UTF-8" standalone="no"?>
<svg width="180px" height="180px" viewBox="0 0 180 180" version="1.1" xmlns="http://www.w3.org/2000/svg" xmlns:xlink="http://www.w3.org/1999/xlink">
    <!-- Generator: Sketch 3.8.3 (29802) - http://www.bohemiancoding.com/sketch -->
    <title>guinea_bissau</title>
    <desc>Created with Sketch.</desc>
    <defs></defs>
    <g id="Page-1" stroke="none" stroke-width="1" fill="none" fill-rule="evenodd">
        <g id="flags" transform="translate(-2610.000000, -2340.000000)">
            <g id="guinea_bissau" transform="translate(2610.000000, 2340.000000)">
                <path d="M60,174.879484 L60,90 L179.994476,90 C179.994476,139.70563 139.701343,180 89.9972382,180 C79.479186,180 69.3825591,178.19561 59.9999996,174.87948 L60,174.879484 Z" id="green" fill="#1AAF5D"></path>
                <path d="M60,5.12051622 L60,90 L179.994476,90 C179.994476,40.2943701 139.701343,0 89.9972382,0 C79.479186,0 69.3825591,1.80439039 59.9999996,5.12052001 L60,5.12051622 Z" id="yellow" fill="#F2C500"></path>
                <path d="M60,174.879484 L60,5.12051622 C25.0443384,17.4750916 0,50.812745 0,90 C0,129.187255 25.0443384,162.524908 59.9999996,174.87948 L60,174.879484 Z" id="red" fill="#E94B35"></path>
                <polygon id="star" fill="#000000" points="8 78.5920861 25.4461175 78.5920861 30.8352353 62 36.2243442 78.5920861 53.6704617 78.5920861 39.5582896 88.8450912 44.9474074 105.437175 30.8352353 95.1841615 16.7230632 105.437175 22.1121721 88.8450912 8 78.5920861 8 78.5920861 8 78.5920861"></polygon>
            </g>
        </g>
    </g>
</svg>