<?xml version="1.0" encoding="UTF-8" standalone="no"?>
<svg width="180px" height="180px" viewBox="0 0 180 180" version="1.1" xmlns="http://www.w3.org/2000/svg" xmlns:xlink="http://www.w3.org/1999/xlink">
    <!-- Generator: Sketch 3.8.3 (29802) - http://www.bohemiancoding.com/sketch -->
    <title>haiti</title>
    <desc>Created with Sketch.</desc>
    <defs></defs>
    <g id="Page-1" stroke="none" stroke-width="1" fill="none" fill-rule="evenodd">
        <g id="flags" transform="translate(-450.000000, -2610.000000)">
            <g id="haiti" transform="translate(450.000000, 2610.000000)">
                <path d="M180,90 C180,139.70563 139.70563,180 90,180 C40.2943701,180 0,139.70563 0,90 L180,90 L180,90 Z" id="red" fill="#E94B35"></path>
                <path d="M180,90 C180,40.2943701 139.70563,0 90,0 C40.2943701,0 0,40.2943701 0,90 L180,90 L180,90 Z" id="blue" fill="#227FBB"></path>
                <g id="emblem" transform="translate(37.000000, 46.000000)">
                    <rect id="Background" fill="#FFFFFF" x="0" y="0" width="106" height="88"></rect>
                    <g id="Small-flag" transform="translate(0.000000, 60.000000)">
                        <path d="M8,2.76175323 C8,2.76175323 5.41790816,2.72393751 4.95741718,2.89156693 C4.7716082,2.95920503 5.60688052,3.76888681 5.43346733,4.07843257 C4.78836456,5.22995034 0.39902721,5.07215801 0.05203041,4.8202224 C-0.541631661,4.38919603 4.14017296,4.01940812 4.17089934,3.72608192 C4.2061695,3.38938206 3.47853963,2.50598127 3.59136067,1.96432869 C3.73774129,1.26155511 5.64044649,1 5.64044649,1 L8,2.76175323 L8,2.76175323 L8,2.76175323 Z" id="path3430" stroke="#D20014" fill="#D20014"></path>
                        <path d="M11,5.35343996 L5.51589388,0.1436672 C5.51589388,0.1436672 5.27429403,-0.150254516 5.07217507,0.10271365 C4.87426101,0.3504182 5.14612854,0.63510754 5.14612854,0.63510754 L10.8035469,6 L11,5.35343996 L11,5.35343996 L11,5.35343996 Z" id="path3426" fill="#503200"></path>
                        <path d="M17,9.7826079 C16.8923084,9.673913 12.0461542,5.28260958 12.0461542,5.28260958 L11.7230771,4 C11.7230771,4 10.9746158,4.53043511 10.6999989,4.80434607 C10.4253842,5.07825926 10,5.82608647 10,5.82608647 L11.356922,5.89130432 L15.643078,10 L17,9.7826079 L17,9.7826079 L17,9.7826079 Z" id="path3428" fill="#F1B517"></path>
                    </g>
                    <g id="Small-flag" transform="translate(91.500000, 64.000000) scale(-1, 1) translate(-91.500000, -64.000000) translate(83.000000, 59.000000)">
                        <path d="M8,2.76175323 C8,2.76175323 5.41790816,2.72393751 4.95741718,2.89156693 C4.7716082,2.95920503 5.60688052,3.76888681 5.43346733,4.07843257 C4.78836456,5.22995034 0.39902721,5.07215801 0.05203041,4.8202224 C-0.541631661,4.38919603 4.14017296,4.01940812 4.17089934,3.72608192 C4.2061695,3.38938206 3.47853963,2.50598127 3.59136067,1.96432869 C3.73774129,1.26155511 5.64044649,1 5.64044649,1 L8,2.76175323 L8,2.76175323 L8,2.76175323 Z" id="path3430" stroke="#D20014" fill="#D20014"></path>
                        <path d="M11,5.35343996 L5.51589388,0.1436672 C5.51589388,0.1436672 5.27429403,-0.150254516 5.07217507,0.10271365 C4.87426101,0.3504182 5.14612854,0.63510754 5.14612854,0.63510754 L10.8035469,6 L11,5.35343996 L11,5.35343996 L11,5.35343996 Z" id="path3426" fill="#503200"></path>
                        <path d="M17,9.7826079 C16.8923084,9.673913 12.0461542,5.28260958 12.0461542,5.28260958 L11.7230771,4 C11.7230771,4 10.9746158,4.53043511 10.6999989,4.80434607 C10.4253842,5.07825926 10,5.82608647 10,5.82608647 L11.356922,5.89130432 L15.643078,10 L17,9.7826079 L17,9.7826079 L17,9.7826079 Z" id="path3428" fill="#F1B517"></path>
                    </g>
                    <path d="M74.3327603,64 L52.7006385,64.6449879 L31.1661346,64.8965332 C31.1661346,64.8965332 20.1025102,69.1002032 15.5798134,70.0435367 C11.0704345,70.9840942 11.6568183,72.5060737 8.16736248,73.3071755 C5.37239425,73.9488384 5.0500418,74.1511664 3.41011788,74.2617576 C2.41774338,74.3286815 1.19545565,75.1130446 0,75.9774254 L0,88 L106,88 L106,76.5643644 C104.851006,75.9211639 103.756059,75.4786898 102.635437,75.0873421 C101.078272,74.543542 100.028885,73.9488384 97.2339145,73.3071755 C93.7444591,72.5060737 94.3308432,70.9840962 89.8214637,70.0435367 C85.2987664,69.1002011 74.3327624,63.9999979 74.3327603,64 C74.3327603,64 74.3327624,63.9999979 74.3327603,64 L74.3327603,64 L74.3327603,64 L74.3327603,64 Z" id="land" stroke="#016A16" stroke-width="0.1" fill="#016A16"></path>
                    <path d="M12.4926758,73.0030998 C11.8189422,73.0920386 11.6941211,73.9016253 11.9467773,74.6448806 C9.0120828,75.5054936 6.39032283,76.6271317 3.80273438,77.3854407 C3.6985863,76.8458429 5.08496094,75.2837037 5.08496094,75.2837058 C5.45170333,75.4682496 5.72607402,76.3441577 5.72607422,76.3441556 C5.81775977,74.5448518 7.51611308,73.3480634 7.51611328,73.3480654 C6.50757166,73.2096581 3.4394963,74.4504099 3.07275391,74.9579049 C3.07275391,74.9579049 4.26047616,74.8194996 4.44384766,74.9579049 C4.44384766,74.9579049 2.10498739,77.5922729 2,78.3756198 C2.36381272,79.2316087 6.39892537,79.8704687 6.39892578,79.8704707 C6.33524487,80.0920664 5.21191386,80.9309206 5.21191406,80.9309206 C6.81682561,81.2986447 9.2372696,80.1127296 9.9599609,79.3913518 C9.9599609,79.3913518 8.07213953,79.228986 6.60205078,77.9859364 C6.60205078,77.9859364 6.90519534,78.7599247 6.72265625,79.1294335 C6.72265625,79.1294335 4.42922144,78.4396617 4.18994141,78.0434307 C4.19602845,78.0091242 9.6150358,76.5451965 12.2387695,75.7628247 C12.3359449,76.2518091 12.8569053,77.1756566 13.4829102,76.9574278 C13.8912586,76.8150751 13.7618916,75.9708854 13.6098633,75.3731413 C13.7575246,75.5054016 13.9490343,75.5839516 14.1621094,75.5839536 C14.6234201,75.5839536 15.0000004,75.2113519 15,74.7470926 C15,74.2828312 14.6234199,73.9038433 14.1621094,73.9038433 C13.7931948,73.9038433 13.4857147,74.1448143 13.375,74.478786 C13.270533,73.9628442 12.9979758,72.9363962 12.4926758,73.0030998 C12.4926758,73.0030998 12.9979758,72.9363962 12.4926758,73.0030998 L12.4926758,73.0030998 L12.4926758,73.0030998 L12.4926758,73.0030998 Z" id="Anchor-left" fill="#F1B517"></path>
                    <g id="Banner" transform="translate(11.000000, 77.000000)" fill="#FFFFFF">
                        <g id="g3765">
                            <g id="g3753">
                                <path d="M3.31764541,6.11143953 L0.0465952,4.09566538 C13.5358935,5.45384436 16.2906444,0.284668532 19.550231,0.00817742156 C21.5539528,-0.163761917 21.8668431,2.44628559 17.9841554,1.20466339 L18.9882578,3.93440275 C18.9882578,3.93440275 9.4122218,9.8528051 0,7.40808599 L3.31764541,6.11143953 L3.31764541,6.11143953 L3.31764541,6.11143953 Z" id="path3741"></path>
                            </g>
                            <g id="use3757" transform="translate(72.000000, 4.000000) scale(-1, 1) translate(-72.000000, -4.000000) translate(61.000000, 0.000000)">
                                <path d="M3.48948719,5.94349399 L0.401706403,3.9751904 C15.9021102,4.51468715 12.3730352,1.00121774 20.1283841,0.0152890576 C22.1324169,-0.238425351 23.6388562,2.77022057 18.5573546,1.29153261 L19.5646332,4.20323601 L17.1268239,4.20606273 C11.8468147,8.26782129 4.72099743,8.63041659 0,7.32657472 L3.48948719,5.94349399 L3.48948719,5.94349399 L3.48948719,5.94349399 Z" id="path3763"></path>
                            </g>
                            <path d="M18,1 L18.0000021,4.66666716 C18.0000021,4.66666716 26.6190884,8 41.999999,8 C57.4470936,8 66,4.66666716 66,4.66666716 L66,1 C66,1 59.476538,4.13333349 41.999999,4.13333349 C24.5897353,4.13333349 18,1 18,1 L18,1 L18,1 L18,1 Z" id="path3745"></path>
                        </g>
                    </g>
                    <path d="M32.3556025,32.2115958 L44,45.414798 L44.7480469,56.9726562 L37.9244368,50.1420653 L37.3710439,55.3314461 C40.4933278,56.8846767 42.7134001,57.9840365 42.7740879,58 L67.2020869,61.0835103 L66,58.5075306 C66.0262163,58.5006346 66.3648343,58.2992882 66.9371931,57.952305 L66.3952644,53.6045708 L64.5397139,55.7480469 L62,45.414798 L73.8292349,32.0020147 L71.8496491,31.9397902 L71,30.9789763 C73.1713289,28.5924404 75.2167836,31.3199085 75.2167836,31.3199085 L80,34.8222298 L79.3391611,36 C79.1384417,35.9239646 78.0438031,34.9674903 76.9807646,34.0128523 C78.2257996,36.7639342 78.0016757,39.7019691 77.9534351,40.1908969 L80.5188735,37.9926405 L79.2719229,37.9498292 L78.56418,37.0548748 C80.1109003,34.2145113 82.6464797,37.2097097 82.6464797,37.2097097 L86.5483499,40.5418201 L86.56418,41.8314197 C86.2422976,41.6982377 83.4621898,39.2448337 82.4665166,38.3612257 C83.6141834,41.4674646 82.6071504,46.8486726 82.24637,48.5285567 C82.9635701,48.085365 83.617029,47.6814489 84.1808915,47.3328531 L83.8048247,46.8624558 C85.3547809,43.8463763 88.0998174,47.2465603 88.0998174,47.2465603 L92.8048247,50.9558636 L92.560071,52.6147918 C92.1433931,52.4401986 87.6831394,48.0496919 87.6831394,48.0496919 L86.9495667,48.0241867 C87.2217147,50.3409195 86.326815,52.754189 85.8339384,53.221315 C85.7967167,55.0178623 86.4956509,55.9840208 85.0579348,59.7360752 C84.6339099,62.175608 83.5990042,64.4231415 82.0925459,65.7580948 C80.3061699,73.2390969 73.4422611,73.927561 70.5220839,68.189201 L70.5220838,68.1892011 L49.0032539,69.5143223 L38.9453125,62.7805996 L32.708752,66.7033444 C29.93746,72.9601725 22.7427471,72.4439518 20.9074541,64.7580948 C19.4009958,63.4231415 18.3660901,61.175608 17.9420652,58.7360752 C16.5043491,54.9840208 17.2032833,54.0178623 17.1660616,52.221315 C16.832954,51.9056108 16.3162163,50.7009765 16.1002235,49.2379911 C14.7472598,50.5517733 12.7146618,52.4996754 12.439929,52.6147918 L12.1951753,50.9558636 L16.0001229,47.9561436 C15.994638,46.9477196 16.172125,45.9053899 16.6638176,45 C16.6638176,45 17.3454625,45.3406768 18.4884846,45.9117321 C19.3643233,45.4489532 20.4266551,45.3669825 21.1951753,46.8624558 L20.965886,47.1492588 C21.2215876,47.2769698 21.4855956,47.4088238 21.757033,47.5443816 C21.4804763,46.2600037 20.8100425,42.7388853 21.0515291,39.7671607 C19.831337,40.8441129 17.781494,42.6338367 17.5078815,42.7470466 L17.5237115,41.457447 L21.2728122,38.2557984 C21.4766046,37.3502554 21.8099536,36.5628877 22.3226821,36 L23.2888419,36.8278768 C24.0282467,36.6128213 24.8559126,36.7732402 25.5078815,37.9705016 L25.1501864,38.4228139 L32.5596347,44.7717747 L28.054141,40.2616717 C28.054141,40.2616717 27.4849135,35.6348174 30.0378968,32.2963693 L29.7832165,32 C29.7832165,32 25.9297531,34.8981314 25.6608389,35 L25,33.8222298 L29.7832164,30.3199085 C29.7832164,30.3199085 31.8286711,27.5924404 34,29.9789763 L33.1503509,30.9397902 L32.3556025,32.2115958 L32.3556025,32.2115958 L32.3556025,32.2115958 Z" id="path3038" stroke="#000000" stroke-width="0.1" fill="#0A328C"></path>
                    <path d="M51,57.158983 L65.0733334,43.5 C68.9093358,43.6434218 65.8655051,49.8133827 65.6723265,50.5878614 L65.3326609,50.9553021 L69.219488,48.5 C73.8675894,49.1505982 70.2136008,55.9735242 69.9364614,56.7251965 L65.5985371,60.1769556 L70.0284772,57.5 C74.5407152,58.1528359 69.9328435,66.784669 69.6638049,67.5389267 L56.1182668,72.5 L56.0912028,71.0073393 L50.8817332,72 L37.3361951,67.0389267 C37.0671565,66.284669 32.4592848,57.6528359 36.9715228,57 L38.2123132,57.7497936 L37.524717,57.2251965 C37.2648989,56.4735242 33.8392845,49.6505982 38.1968796,49 L44.5235979,54.3919574 L41.3276735,51.0878614 C41.1344949,50.3133827 38.0906642,44.1434218 41.9266666,44 L51,53.9022213 L51,57.158983 L51,57.158983 L51,57.158983 Z" id="path3019" stroke="#000000" stroke-width="0.1" fill="#D20014"></path>
                    <g id="Anchor-right" transform="translate(90.000000, 70.000000)" fill="#F1B517">
                        <path d="M2.04623553,4.60084052 L10.1999214,8.41986551 C10.1999214,8.41986551 9.59962209,9.40421326 10.0318376,10 L11.2804622,9.97409623 C11.0883664,8.18673379 13,7.71732182 13,7.71732182 C12.5667176,6.74772353 11.4132716,5.88099819 11.1731519,4.01592222 C11.3955747,3.94315702 12.8677941,4.53046248 12.8677941,4.53046248 C12.6932284,3.87489576 9.33140188,0.235960292 8.32271366,0 C8.32271366,0 9.81370104,3.12908357 9.28101134,5.00117876 C9.28101134,5.00117876 9.84517942,4.20874956 10.2582274,4.15747084 C10.2582274,4.15747084 10.6401491,6.44305092 10.4374809,6.89713128 L2.75619547,3.26500616 C2.73232925,3.25642398 2.70501065,3.24587486 2.67460003,3.23364359 L2.9163858,2.70756557 C3.23386163,2.19985361 2.57774309,1.64378605 2.11211187,2.29656065 L1.79339866,2.86202272 C1.03765116,2.56052147 0.140161514,2.28900153 0.0188264703,2.7728345 C-0.118469643,3.32031214 0.521311652,3.80694615 1.08821347,4.12862488 C0.716469991,5.040556 1.61411994,5.27911125 2.02745165,4.64171052 C2.02745165,4.64171052 1.60415054,5.29448511 2.02745165,4.64171052 L2.04623553,4.60084052 L2.04623553,4.60084052 L2.04623553,4.60084052 Z" id="path3723"></path>
                    </g>
                    <path d="M27.64179,36 C27.7910432,34.9319379 29.641791,32.2617786 29.9104472,32.1675372 C31.299999,32.6225118 32.5925492,33.494822 34,30.031411 C32.7761196,31.7277455 30.2985065,30 30.2985065,30 L29.2238794,30.9738207 L29.2537316,31.4450255 L26,34.7434552 L27.64179,36 L27.64179,36 L27.64179,36 Z M19.7287262,43.7347349 C19.7740306,42.6358238 21.9037454,39.6982757 22.2030785,39.6082032 C23.9292174,40.3724726 25.3761936,41.3591645 26.6643161,37.9177256 C25.3006855,39.5390211 22.5333288,37.7347349 22.5333288,37.7347349 L21.3359942,38.6654777 L21.3760898,39.2688075 L17.6643161,42.530552 L19.7287262,43.7347349 L19.7287262,43.7347349 L19.7287262,43.7347349 Z M14.5161333,55.2787248 C14.6472656,54.0105059 16.5654639,50.4180665 16.8631556,50.3164828 C18.4599029,51.4266891 19.8842889,52.0458283 21.4438517,48.3125831 C19.87071,49.8253078 17.3423147,48.2787248 17.3423147,48.2787248 L16.1515459,49.3284158 L16.1846244,49.8363322 L12.4438517,53.845083 L14.5161333,55.2787248 L14.5161333,55.2787248 L14.5161333,55.2787248 Z M77.35821,37 C77.2089568,35.9319379 75.358209,33.2617786 75.0895528,33.1675372 C73.700001,33.6225118 72.4074508,34.494822 71,31.031411 C72.2238804,32.7277455 74.7014935,31 74.7014935,31 L75.7761206,31.9738207 L75.7462684,32.4450255 L79,35.7434552 L77.35821,37 L77.35821,37 L77.35821,37 Z M85.3433353,43.8191081 C85.2980309,42.5370451 83.168316,39.1099056 82.8689829,39.004821 C81.142844,39.8964687 79.6958678,41.0476093 78.4077454,37.0325972 C79.7713759,38.9241086 82.5387326,36.8191081 82.5387326,36.8191081 L83.7360672,37.9049746 L83.6959716,38.6088594 L87.4077454,42.414228 L85.3433353,43.8191081 L85.3433353,43.8191081 L85.3433353,43.8191081 Z M90.4401715,53.5710965 C90.3090392,52.3028776 88.3908408,48.7104382 88.0931492,48.6088545 C86.4964018,49.7190608 85.0720158,50.3382 83.512453,46.6049548 C85.0855948,48.1176795 87.6139901,46.5710965 87.6139901,46.5710965 L88.8047589,47.6207875 L88.7716803,48.1287039 L92.512453,52.1374546 L90.4401715,53.5710965 L90.4401715,53.5710965 L90.4401715,53.5710965 Z" id="path3046" stroke="#D20014" stroke-width="0.1" fill="#D20014"></path>
                    <path d="M49.9811293,15.498862 L50.2265061,15.5331826 L51.0084634,24.1809893 L52.6334634,24.1809893 L53.2697234,17.2307766 L53.6625765,17.3689321 L53.5521488,18.4951457 L54.4723941,18.6893206 L53.1104298,20.3980585 L53.8098175,20.2427187 C53.9570565,20.786408 53.441719,22.6504858 53.441719,22.6504858 L54.8036813,21.0194177 C54.9141111,22.2621358 53.4785283,24.2427199 53.4785283,24.2427199 L55.4662579,23.5825252 L53.3312893,27.0776705 L55.2085891,25.4077676 L53.29448,28.5922338 C54.2147253,28.8252441 55.7239266,26.3398071 55.7239266,26.3398071 L54.3619643,30.2621366 L56.7914109,27.5048548 C57.1227002,27.8932047 56.8282222,31 56.8282222,31 C57.9325157,28.9805816 58.0061362,28.7475733 57.7852767,26.1067967 L58.705522,27.23301 C58.8895702,25.058252 57.674847,23.6213596 57.674847,23.6213596 L58.9263815,24.8252438 C58.6687127,23.5825252 56.8282222,21.5242724 56.8282222,21.5242724 L59,22.572815 C58.9669026,22.2785041 58.9028313,22.0079008 58.8162893,21.7597706 L58.8162893,21.7597706 L59.3797152,21.2455691 L59.2531325,22.7312885 L59.7462107,22.7041189 L59.9252229,25.0730334 L60.407287,23.2617624 C60.6857656,23.5530807 60.9635004,26 60.9635004,26 C61.6976721,23.2033536 61.3439396,22.8686139 62.9863475,25.299625 C63.1428469,23.7148757 61.9393292,20.7992082 60.1243006,18.404557 L60.6029948,17.9185238 C61.0395109,18.1869255 61.334652,19.5716186 61.334652,19.5716186 L61.8974641,18.1634267 L62.0100282,20.0001985 L62.5165593,18.7144582 L63.0793714,20.4287787 L63.1919334,18.7144582 C63.6094698,18.8383359 64.5426837,21.5920676 64.5426837,21.5920676 C64.7514519,21.6540064 65.1054978,20.0614244 65.1054978,20.0614244 L65.6683099,21.5308419 L66.005998,20.1838758 L66.231122,21.5920676 C66.838447,20.6423382 67.2029492,20.7448565 67.5255913,21.6532933 L67.6381533,20.4900044 L68.1643201,22 L68.5949345,20.4900044 C68.5949345,20.4900044 69.1308808,20.7393012 70,21.2866522 C68.4485394,18.6155857 63.7355189,16.0291296 60.0829828,14.7789114 L60.0829828,14.7789114 L60.4458597,13.8852295 L61.4777083,15.2440675 L61.7643311,14.132291 L62.9681535,15.6764248 C63.5987259,15.2440673 64.6878991,15.9852518 64.6878991,15.9852518 L65.3184715,14.8117099 L66.0063706,16.6029053 L66.7515921,15.9234863 L68.3566886,18.27057 L68.5859869,15.9234863 L69.6178355,19.3823465 L70.3057325,17.2823243 L70.5923574,20 L71.4522302,18.0852741 C71.4522302,18.0852741 72.5987259,19.629408 73,19.8147041 C72.4521834,14.8884621 70.1910812,15.3675981 65.9490439,12.7116877 C65.9490439,12.7116877 65.8538553,12.6807422 65.6788923,12.631757 L65.5585824,11.9440485 L67.504086,12.878572 L67.2179838,11.3210328 L69.3923712,14 L69.3351507,12.3801595 L71.1089908,14 L70.3079025,12.00635 L72.5395104,13.9376985 L72.4250674,12.442461 C72.4250674,12.442461 73.6839235,14.0623017 75,13.6884922 C72.7481159,9.19972974 64.5050204,9.52159313 59.0300363,10.9350284 L59.0300363,10.9350284 C60.2122928,10.1309371 61.9919575,9.25720906 63.3987669,9.37256585 C63.6917753,9.39659228 63.2611146,8.93742562 63.5981016,8.69862367 L64.8949118,9.30168671 C64.8949118,9.30168671 64.7533921,8.12564334 64.2974685,7.6098313 C64.5929774,7.63152017 66.0897468,8.87873492 66.2879745,8.80231824 C66.2879745,8.80231824 65.8646442,8.0710395 65.481013,7.76537315 C65.7783545,7.65074832 68.4398744,8.90601281 68.4398744,8.90601281 C68.4398744,8.90601281 67.7905757,7.93595179 67.4799998,7.54434507 C67.9755689,7.62076156 68.9331451,8.28458644 70,8.07645666 C68.3985401,6.89317983 61.7119939,2.74903367 53.199112,11.0938523 L53.199112,11.0938523 L49.9295767,11.220816 C41.3554491,2.70723907 34.6095209,6.88722373 33,8.07645666 C34.0668549,8.28458644 35.0244311,7.62076156 35.5200002,7.54434507 C35.2094243,7.93595179 34.5601256,8.90601281 34.5601256,8.90601281 C34.5601256,8.90601281 37.2216455,7.65074832 37.518987,7.76537315 C37.1353558,8.0710395 36.7120255,8.80231824 36.7120255,8.80231824 C36.9102532,8.87873492 38.4070226,7.63152017 38.7025315,7.6098313 C38.38298,7.97135788 38.2178777,8.65721935 38.1476991,9.03517282 C33.830945,8.80858479 29.5309335,9.63682689 28,12.6884922 C29.3160765,13.0623017 30.5749326,11.442461 30.5749326,11.442461 L30.4604896,12.9376985 L32.6920975,11.00635 L31.8910092,13 L33.6648493,11.3801595 L33.6076288,13 L35.7820162,10.3210328 L35.495914,11.878572 L37.4414176,10.9440485 L37.3211077,11.631757 C37.1461447,11.6807422 37.0509561,11.7116877 37.0509561,11.7116877 C32.8089188,14.3675981 30.5478166,13.8884621 30,18.8147041 C30.4012741,18.629408 31.5477698,17.0852741 31.5477698,17.0852741 L32.4076426,19 L32.6942675,16.2823243 L33.3821645,18.3823465 L34.4140131,14.9234863 L34.6433114,17.27057 L36.2484079,14.9234863 L36.9936294,15.6029053 L37.6815285,13.8117099 L38.3121009,14.9852518 C38.3121009,14.9852518 39.4012741,14.2440673 40.0318465,14.6764248 L41.2356689,13.132291 L41.5222917,14.2440675 L42.5541403,12.8852295 L42.9170172,13.7789114 C39.2644811,15.0291296 34.5514606,17.6155857 33,20.2866522 C33.8691192,19.7393012 34.4050655,19.4900044 34.4050655,19.4900044 L34.8356799,21 L35.3618467,19.4900044 L35.4744087,20.6532933 C35.7970508,19.7448565 36.161553,19.6423382 36.768878,20.5920676 L36.994002,19.1838758 L37.3316901,20.5308419 L37.8945022,19.0614244 C37.8945022,19.0614244 38.2485481,20.6540064 38.4573163,20.5920676 C38.4573163,20.5920676 39.3905302,17.8383359 39.8080666,17.7144582 L39.9206286,19.4287787 L40.4834407,17.7144582 L40.9899718,19.0001985 L41.1025359,17.1634267 L41.665348,18.5716186 C41.665348,18.5716186 41.9604891,17.1869255 42.3970052,16.9185238 L42.8756994,17.404557 C41.0606708,19.7992082 39.8571531,22.7148757 40.0136525,24.299625 C41.6560604,21.8686139 41.3023279,22.2033536 42.0364996,25 C42.0364996,25 42.3142344,22.5530807 42.592713,22.2617624 L43.0747771,24.0730334 L43.2537893,21.7041189 L43.7468675,21.7312885 L43.6202848,20.2455691 L44.1837107,20.7597706 C44.0971687,21.0079008 44.0330974,21.2785041 44,21.572815 L46.1717778,20.5242724 C46.1717778,20.5242724 44.3312873,22.5825252 44.0736185,23.8252438 L45.325153,22.6213596 C45.325153,22.6213596 44.1104298,24.058252 44.294478,26.23301 L45.2147233,25.1067967 C44.9938638,27.7475733 45.0674843,27.9805816 46.1717778,30 C46.1717778,30 45.8772998,26.8932047 46.2085891,26.5048548 L48.6380357,29.2621366 L47.2760734,25.3398071 C47.2760734,25.3398071 48.7852747,27.8252441 49.70552,27.5922338 L47.7914109,24.4077676 L49.6687107,26.0776705 L47.5337421,22.5825252 L49.5214717,23.2427199 C49.5214717,23.2427199 48.0858889,21.2621358 48.1963187,20.0194177 L49.558281,21.6504858 C49.558281,21.6504858 49.0429435,19.786408 49.1901825,19.2427187 L49.8895702,19.3980585 L48.5276059,17.6893206 L49.4478512,17.4951457 L49.3374235,16.3689321 L50,16.1359224 L49.9811293,15.498862 L49.9811293,15.498862 L49.9811293,15.498862 Z" id="path3811" fill="#016A16"></path>
                    <path d="M25.0937501,63.2920274 L25.3080848,65.5979591 L35.8098305,67.6741391 L36.8085489,69.5224837 L48.9835939,72.9705606 L48.8799367,74.357194 L66.9236298,71.5224837 L67.9223482,69.6741391 L78.4240939,67.5979591 L78.7851286,63.7137455 L87.4539723,62.6950971 L88.4539723,62.5486021 L87.7267021,57.5486021 L86.4539723,57.9749595 L86.5622019,58.5799638 L65.8799367,60.8897886 L65.4078793,64.991702 L66.9236302,64.991702 L64.7302365,68.6936864 L54.3580746,70.6542959 L54.0054898,65.8490247 L88.4539744,46.2805078 L89.0093632,47.3414347 L90.991163,46.6296864 C90.8515328,46.1879214 90.6918782,45.7392619 90.478387,45.2753652 L90.7517831,45.0902589 L92.0109966,45.2503176 L94.9284452,41.7873399 L90.6067904,43.1256753 L90.3067157,44.1164422 L89.9782384,44.3388409 C89.7436002,43.956052 89.4620756,43.56049 89.1172976,43.1481168 L87.5050598,44.4678512 L88.0121207,45.4364601 L57.9796081,61.8784101 L53.2940197,64.4436371 C53.32486,63.8291338 53.3563934,63.1951795 53.388197,62.5486021 L84.5497009,35.6616872 L85.2973199,36.5971487 L87.1069005,35.520332 C86.885543,35.1133262 86.6432134,34.7033734 86.345129,34.2887358 L86.5781822,34.0548639 L87.844801,33.9717126 L90.0478805,30.0156842 L86.0609931,32.1540413 L85.9554789,33.1838619 L85.6754723,33.4648509 C85.3721055,33.133866 85.0202766,32.799289 84.6031486,32.460279 L83.2723493,34.0633956 L83.9549133,34.9174568 L53.498597,60.2730183 C53.5621256,58.944013 53.624791,57.5961138 53.683242,56.283428 L75.6232234,30.0561183 L76.5079765,30.8631093 L78.1268269,29.5164693 C77.8445249,29.1491023 77.541048,28.7821054 77.1817699,28.4192034 L77.3753682,28.1517533 L78.6133851,27.8714829 L80.1704818,23.6195222 L76.5671924,26.3552391 L76.6240768,27.388887 L76.3914739,27.7102192 C76.0400646,27.4307663 75.6402278,27.1553467 75.1752025,26.8857637 L74.1115703,28.6773261 L74.9193354,29.4140958 L63.6191734,42.3677931 L65.8799367,37.247178 L64.7302367,36.9917021 L60.2486451,46.2315256 L58.2103693,48.5680591 L62.8799367,35.1035886 L61.1840596,34.9917021 L56.1553229,50.9238173 L53.7974241,53.6267438 C53.8023002,53.5084043 53.8071167,53.3907287 53.8118706,53.2737641 L57.8799367,36.0289122 L56.466145,35.9917021 L53.9965338,47.610584 C54.0025847,47.2553411 54.0056896,46.9402656 54.0054899,46.6711454 C54.0025942,42.7729104 51.7886496,6.02059074 51.7886496,6.02059074 C51.7886496,6.02059074 49.4783068,42.7830384 49.578244,46.6711454 C49.5864318,46.9896981 49.5950759,47.3725909 49.6040839,47.8102343 L47.2937284,35.9917021 L45.8799367,36.0289122 L48.8825008,51.4349133 L48.4103249,50.9052189 L43.5758138,34.9917021 L41.8799367,35.1035886 L45.9623967,48.1590942 L45.3756458,47.5008677 L41.0296366,36.9917021 L39.8799367,37.247178 L42.1220695,43.8509541 L29.2528827,29.4140958 L30.0606478,28.6773261 L28.9970156,26.8857637 C28.5319903,27.1553467 28.1321536,27.4307663 27.7807442,27.7102192 L27.5481414,27.388887 L27.6050257,26.3552391 L24.0017363,23.6195222 L25.558833,27.8714829 L26.7968499,28.1517533 L26.9904482,28.4192034 C26.6311701,28.7821054 26.3276932,29.1491023 26.0453913,29.5164693 L27.6642417,30.8631093 L28.5489947,30.0561183 L49.7210828,54.8940949 C49.7394805,56.1619973 49.757883,57.4833298 49.7757837,58.8055915 L22.7413934,35.9174568 L23.4239573,35.0633956 L22.0931581,33.460279 C21.6760301,33.799289 21.3242011,34.133866 21.0208343,34.4648509 L20.7408277,34.1838619 L20.6353136,33.1540413 L16.6484262,31.0156842 L18.8515057,34.9717126 L20.1181245,35.0548639 L20.3511777,35.2887358 C20.0530933,35.7033734 19.8107637,36.1133262 19.5894062,36.520332 L21.3989867,37.5971487 L22.1466058,36.6616872 L49.8046004,60.9657564 C49.8179734,61.9823518 49.8308758,62.9821663 49.8430696,63.9405284 L15.2407755,43.2622105 L15.8461612,42.197914 L14.2809636,40.8227173 C13.9735233,41.1653843 13.7128848,41.4973462 13.4886828,41.8207797 L13.1175784,41.5501624 L12.8522638,40.5495266 L8.57994886,39.0611828 L11.374764,42.6238685 L12.6387964,42.5078532 L12.9372623,42.725502 C12.6620554,43.2439802 12.4615132,43.7443128 12.2867347,44.2367691 L14.2424876,45.0172476 L14.7737436,44.0832747 L49.8671207,65.8490255 C49.8690898,66.0067578 49.8710316,66.1626547 49.8729446,66.3165788 L48.3234156,67.164902 L47.1410689,69.7328585 L40.6896281,67.7591796 L39.0511907,64.8687663 L40.1394302,64.9917021 L40.8799367,60.8897901 L15.771707,58.0230638 L15.8799367,57.4180595 L14.6072069,56.9917021 L13.8799367,61.9917021 L14.9017383,61.9917021 L25.0937501,63.2920274 L25.0937501,63.2920274 L25.0937501,63.2920274 Z" id="path3013" fill="#F1B517"></path>
                    <path d="M80.3769335,61.1958025 C79.4428981,60.3442636 78.2599048,59.7612065 76.9504118,59.5690892 L76.9504118,59.5690892 L76.3300137,65.0557355 C76.3812725,65.0736487 76.4306277,65.0956178 76.4776945,65.1212582 L80.3769335,61.1958025 L80.3769335,61.1958025 L80.3769335,61.1958025 Z M81.6354492,62.7602432 C82.038534,63.4594942 82.3152212,64.2406693 82.4342286,65.0724863 L82.4342286,65.0724863 L76.9739051,65.77206 C76.9704965,65.7574391 76.9667672,65.7429416 76.9627249,65.728575 L81.6354492,62.7602432 L81.6354492,62.7602432 L81.6354492,62.7602432 Z M72.087423,71.189858 C72.9382229,71.8324653 73.951798,72.2707996 75.0549872,72.431701 L75.0549872,72.431701 L75.5890656,66.9119349 C75.5835631,66.9094515 75.5780871,66.9069197 75.5726381,66.9043402 L72.087423,71.189858 L72.087423,71.189858 L72.087423,71.189858 Z M70.7599325,69.8452041 C70.1449827,69.0088575 69.7253587,68.0201349 69.5685143,66.9464888 L69.5685143,66.9464888 L74.9953541,66.3555067 L70.7599325,69.8452041 L70.7599325,69.8452041 L70.7599325,69.8452041 Z M79.3126145,71.5928202 C78.598004,72.01722 77.7952472,72.3085678 76.9385713,72.4326371 L76.9385713,72.4326371 L76.3438077,66.9393294 C76.3467616,66.938248 76.3497089,66.937153 76.3526496,66.9360445 L79.3126145,71.5928202 L79.3126145,71.5928202 L79.3126145,71.5928202 Z M80.7842527,70.398717 C81.6456168,69.462426 82.2359082,68.2729106 82.4302264,66.9550685 L76.8671637,66.4983603 C76.8617723,66.5077214 76.8562336,66.516987 76.8505509,66.5261539 L80.7842527,70.398717 L80.7842527,70.398717 L80.7842527,70.398717 Z M72.1205808,60.7852668 C72.9680549,60.153579 73.9745175,59.7235121 75.068724,59.5663108 L75.068724,59.5663108 L75.7325128,65.0361759 C75.6564736,65.057233 75.5840734,65.0870471 75.5164662,65.1244645 L72.1205808,60.7852668 L72.1205808,60.7852668 L72.1205808,60.7852668 Z M70.7399479,62.1821295 C70.1324248,63.0174196 69.7189293,64.0027802 69.5658692,65.0718032 L75.0277999,65.7648677 C75.0323799,65.7458632 75.0375025,65.7270703 75.0431507,65.7085062 L70.7399479,62.1821295 L70.7399479,62.1821295 L70.7399479,62.1821295 Z M84,65.9999989 C84,70.4160125 80.4159926,74 76.0000011,74 C71.5840074,74 68,70.4160125 68,65.9999989 C68,61.5840074 71.5840074,58 76.0000011,58 C80.4159926,58 84,61.5840074 84,65.9999989 C84,65.9999989 84,61.5840074 84,65.9999989 L84,65.9999989 L84,65.9999989 L84,65.9999989 Z" id="use3874" fill="#F1B517"></path>
                    <path d="M27.3769335,61.1958025 C26.4428981,60.3442636 25.2599048,59.7612065 23.9504118,59.5690892 L23.9504118,59.5690892 L23.3300137,65.0557355 C23.3812725,65.0736487 23.4306277,65.0956178 23.4776945,65.1212582 L27.3769335,61.1958025 L27.3769335,61.1958025 L27.3769335,61.1958025 Z M28.6354492,62.7602432 C29.038534,63.4594942 29.3152212,64.2406693 29.4342286,65.0724863 L29.4342286,65.0724863 L23.9739051,65.77206 C23.9704965,65.7574391 23.9667672,65.7429416 23.9627249,65.728575 L28.6354492,62.7602432 L28.6354492,62.7602432 L28.6354492,62.7602432 Z M19.087423,71.189858 C19.9382229,71.8324653 20.951798,72.2707996 22.0549872,72.431701 L22.0549872,72.431701 L22.5890656,66.9119349 C22.5835631,66.9094515 22.5780871,66.9069197 22.5726381,66.9043402 L19.087423,71.189858 L19.087423,71.189858 L19.087423,71.189858 Z M17.7599325,69.8452041 C17.1449827,69.0088575 16.7253587,68.0201349 16.5685143,66.9464888 L16.5685143,66.9464888 L21.9953541,66.3555067 L17.7599325,69.8452041 L17.7599325,69.8452041 L17.7599325,69.8452041 Z M26.3126145,71.5928202 C25.598004,72.01722 24.7952472,72.3085678 23.9385713,72.4326371 L23.9385713,72.4326371 L23.3438077,66.9393294 C23.3467616,66.938248 23.3497089,66.937153 23.3526496,66.9360445 L26.3126145,71.5928202 L26.3126145,71.5928202 L26.3126145,71.5928202 Z M27.7842527,70.398717 C28.6456168,69.462426 29.2359082,68.2729106 29.4302264,66.9550685 L23.8671637,66.4983603 C23.8617723,66.5077214 23.8562336,66.516987 23.8505509,66.5261539 L27.7842527,70.398717 L27.7842527,70.398717 L27.7842527,70.398717 Z M19.1205808,60.7852668 C19.9680549,60.153579 20.9745175,59.7235121 22.068724,59.5663108 L22.068724,59.5663108 L22.7325128,65.0361759 C22.6564736,65.057233 22.5840734,65.0870471 22.5164662,65.1244645 L19.1205808,60.7852668 L19.1205808,60.7852668 L19.1205808,60.7852668 Z M17.7399479,62.1821295 C17.1324248,63.0174196 16.7189293,64.0027802 16.5658692,65.0718032 L22.0277999,65.7648677 C22.0323799,65.7458632 22.0375025,65.7270703 22.0431507,65.7085062 L17.7399479,62.1821295 L17.7399479,62.1821295 L17.7399479,62.1821295 Z M31,65.9999989 C31,70.4160125 27.4159926,74 23.0000011,74 C18.5840074,74 15,70.4160125 15,65.9999989 C15,61.5840074 18.5840074,58 23.0000011,58 C27.4159926,58 31,61.5840074 31,65.9999989 C31,65.9999989 31,61.5840074 31,65.9999989 L31,65.9999989 L31,65.9999989 L31,65.9999989 Z" id="use3874" fill="#F1B517"></path>
                    <g id="Drum" transform="translate(46.700012, 64.000000)">
                        <path d="M10,11.4034099 C10,12.2847287 7.75999919,13 4.99999898,13 C2.23999878,13 0,12.2847287 0,11.4034099 L6.63256838e-08,1.87045087 C6.63256838e-08,1.87045087 -1.90734858e-06,0.0747079863 4.99999905,0.0747070277 C10,0.0747070277 10.0000001,1.87045087 10.0000001,1.87045087 L10,11.4034099 L10,11.4034099 L10,11.4034099 Z" id="path2539" fill="#0A328C"></path>
                        <path d="M10,2 L10,10.2480311 C10,11.2151192 7.75999919,12 4.99999898,12 C2.23999878,12 0,11.2151192 0,10.2480311 L0,2 C0,2.96708594 2.23999878,3.75196886 4.99999898,3.75196886 C7.75999919,3.75196886 10,2.96708594 10,2 C10,2 10,2.96708594 10,2 L10,2 L10,2 L10,2 Z" id="path2499" fill="#F1B517"></path>
                        <path d="M0,2 L0,3.19793103 L2.42693774,10.7765517 L4.36467598,4.94827586 L6.49301144,11 L8.05033596,5.28793909 L10,9.1279086 L10,7.00275862 L8.18932656,3.27862069 C7.98621601,3.33463768 7.76963659,3.38266417 7.54129606,3.42758621 L6.41677255,7.64827586 L4.83481576,3.65724138 C4.56989682,3.65434152 4.30633799,3.64850406 4.05336722,3.63241379 L2.46505718,7.64827586 L0.6480305,2.81310345 C0.23737332,2.57212292 0,2.29646124 0,2 C0,2 0,2.29646124 0,2 L0,2 L0,2 L0,2 Z" id="path3288" fill="#D20014"></path>
                        <path d="M5.50000078,3 C3.56700389,3 2,2.55228437 2,2 C2,1.44771563 3.56700389,1 5.50000078,1 C7.43299611,1 9,1.44771563 9,2 C9,2.55228437 7.43299611,3 5.50000078,3 L5.50000078,3 L5.50000078,3 L5.50000078,3 Z" id="use3273" fill="#FFFFFF"></path>
                    </g>
                    <path d="M36,30 L39.3064525,39 L41,39 L36,30 L36,30 L36,30 Z M40,28 L41.6595753,37 L43,37 L40,28 L40,28 L40,28 Z M44,28 L44.9655174,38 L46,37.9206354 L44,28 L44,28 L44,28 Z M69,30 L65.6935475,39 L64,39 L69,30 L69,30 L69,30 Z M63,28 L61.3404247,37 L60,37 L63,28 L63,28 L63,28 Z M58,28 L57.0344826,38 L56,37.9206354 L58,28 L58,28 L58,28 Z" id="path2970" fill="#ECF0F1"></path>
                    <g id="Hat-on-pole" transform="translate(49.000000, 1.000000)">
                        <path d="M2.43826066,6.68493097 C1.5397242,6.29227909 -0.493108249,5.09375124 0.109959309,4.37830566 L1.04127791,2.90599153 C2.36065158,0.146160513 1.01728784,1.21541591 0.876927851,0.353980397 C0.74214362,-0.473230447 5.92205897,0.17275282 5.99919227,2.04714153 C6.02043937,2.56345848 5.61497735,2.26044546 5.67049216,5.21261684 L4.68438941,6.97939384 C3.94683861,7.04321762 3.07347195,6.96251208 2.43826066,6.68493097 C2.43826066,6.68493097 3.07347195,6.96251208 2.43826066,6.68493097 L2.43826066,6.68493097 L2.43826066,6.68493097 L2.43826066,6.68493097 Z" id="path3710" fill="#0A328C"></path>
                        <path d="M4.10677669,7 C4.80319955,6.57630269 5.25906905,5.31274634 4.83839192,4.5621302 C3.69550886,3.05678456 2.95580192,3.67793444 1.03872435,3 C0.656401819,3.42330676 -0.148634898,4.23785648 0.0239074782,4.8461537 C2.5459709,6.08044239 1.56670612,5.02917904 2.40118588,5.18294344 C2.85103,5.26583352 3.14172312,5.82028682 4.10677669,7 C4.10677669,7 3.14172312,5.82028682 4.10677669,7 L4.10677669,7 L4.10677669,7 L4.10677669,7 Z" id="path3712" fill="#D20014"></path>
                    </g>
                </g>
            </g>
        </g>
    </g>
</svg>