<?xml version="1.0" encoding="UTF-8" standalone="no"?>
<svg width="180px" height="180px" viewBox="0 0 180 180" version="1.1" xmlns="http://www.w3.org/2000/svg" xmlns:xlink="http://www.w3.org/1999/xlink">
    <!-- Generator: Sketch 3.8.3 (29802) - http://www.bohemiancoding.com/sketch -->
    <title>honduras</title>
    <desc>Created with Sketch.</desc>
    <defs></defs>
    <g id="Page-1" stroke="none" stroke-width="1" fill="none" fill-rule="evenodd">
        <g id="flags" transform="translate(-720.000000, -2610.000000)">
            <g id="honduras" transform="translate(720.000000, 2610.000000)">
                <path d="M174.873467,120 L5.12100983,120 C17.475726,154.955772 50.8118738,180 89.9972382,180 C129.182603,180 162.51875,154.955772 174.873463,120 L174.873467,120 L174.873467,120 Z" id="blue" fill="#2C97DE"></path>
                <path d="M5.12100983,120 L174.873467,120 C178.189905,110.616633 179.994476,100.519063 179.994476,90.0000004 C179.994476,79.4809374 178.189905,69.3833677 174.873463,60 L5.12100983,60.0000004 C1.80457108,69.3833677 0,79.4809374 0,90.0000004 C0,100.519063 1.80457108,110.616633 5.12101363,120 L5.12100983,120 L5.12100983,120 Z" id="white" fill="#FFFFFF"></path>
                <path d="M5.12100983,60 L174.873467,60 C162.51875,25.0442275 129.182603,0 89.9972382,0 C50.8118738,0 17.475726,25.0442275 5.12101363,59.9999996 L5.12100983,60 L5.12100983,60 Z" id="blue" fill="#2C97DE"></path>
                <path d="M57.510565,78 L51.6327131,81.0901703 L52.7552827,74.5450852 L48,69.9098303 L54.5716399,68.9549143 L57.5105653,63 L60.4494925,68.9549158 L67.021132,69.909835 L62.2658473,74.5450864 L63.3884171,81.0901704 L57.510565,78 L57.510565,78 L57.510565,78 L57.510565,78 L57.510565,78 Z M121.510565,78 L115.632713,81.0901703 L116.755282,74.5450852 L112,69.9098303 L118.57164,68.9549143 L121.510565,63 L124.449492,68.9549158 L131.021132,69.909835 L126.265847,74.5450864 L127.388417,81.0901704 L121.510565,78 L121.510565,78 L121.510565,78 L121.510565,78 L121.510565,78 Z M57.510565,114 L51.6327131,117.09017 L52.7552827,110.545085 L48,105.90983 L54.5716399,104.954914 L57.5105653,99 L60.4494925,104.954916 L67.021132,105.909835 L62.2658473,110.545086 L63.3884171,117.09017 L57.510565,114 L57.510565,114 L57.510565,114 L57.510565,114 L57.510565,114 Z M121.510565,114 L115.632713,117.09017 L116.755282,110.545085 L112,105.90983 L118.57164,104.954914 L121.510565,99 L124.449492,104.954916 L131.021132,105.909835 L126.265847,110.545086 L127.388417,117.09017 L121.510565,114 L121.510565,114 L121.510565,114 L121.510565,114 L121.510565,114 Z M89.510565,96 L83.6327131,99.0901703 L84.7552827,92.5450852 L80,87.9098303 L86.5716399,86.9549143 L89.5105653,81 L92.4494925,86.9549158 L99.0211322,87.909835 L94.2658473,92.5450864 L95.3884171,99.0901704 L89.510565,96 L89.510565,96 L89.510565,96 L89.510565,96 L89.510565,96 Z" id="stars" fill="#2C97DE"></path>
            </g>
        </g>
    </g>
</svg>