<?xml version="1.0" encoding="UTF-8" standalone="no"?>
<svg width="180px" height="180px" viewBox="0 0 180 180" version="1.1" xmlns="http://www.w3.org/2000/svg" xmlns:xlink="http://www.w3.org/1999/xlink">
    <!-- Generator: Sketch 3.8.3 (29802) - http://www.bohemiancoding.com/sketch -->
    <title>hongkong</title>
    <desc>Created with Sketch.</desc>
    <defs></defs>
    <g id="Page-1" stroke="none" stroke-width="1" fill="none" fill-rule="evenodd">
        <g id="flags" transform="translate(-990.000000, -2610.000000)">
            <g id="hongkong" transform="translate(990.000000, 2610.000000)">
                <path d="M90,180 C139.705627,180 180,139.705627 180,90 C180,40.2943725 139.705627,0 90,0 C40.2943725,0 0,40.2943725 0,90 C0,139.705627 40.2943725,180 90,180 Z" id="red" fill="#E94B35"></path>
                <path d="M86.7636093,90.5733919 C64.2587075,111.650592 32.479829,86.4796755 43.3745721,59.3998691 C44.4774833,66.2091273 49.798292,68.8728926 56.0644976,67.2249122 C63.0802344,65.3790093 71.0940234,72.4880715 71.723764,78.26959 C72.6749045,86.9769778 80.6556386,91.8134049 87.628846,88.7532823 C84.6154928,90.9036035 80.5274056,92.0386594 76.2846596,91.8432812 C70.4596329,91.5707705 64.9826686,88.8592351 61.2687893,84.4040368 L60.663959,84.9068583 C64.5235155,89.5312743 70.2026377,92.3434225 76.2479129,92.6265541 C80.5468992,92.8254658 84.5754743,91.7695053 87.6837526,89.6804148 L86.7636093,90.5733919 Z M90.2166556,88.154972 C87.2693016,85.8443882 85.0201254,82.3392953 83.8808418,78.1892493 C82.2820231,72.3523584 83.2015898,66.0821907 86.4070022,60.9825112 L87.0721167,61.4023586 C83.9826232,66.3111997 83.0962747,72.3580128 84.637134,77.9821528 C85.7623988,82.0776193 88.1051896,85.6148697 91.081444,87.816253 C86.0162548,82.1299687 88.1497878,73.0453013 96.1370871,69.4499821 C101.441037,67.0644757 105.72576,57.2460885 101.80222,51.1441417 C98.298534,45.6938799 99.1877051,39.8103413 105.322876,36.657234 C76.2017989,34.6638386 62.0830476,72.6655628 89.0830444,87.5558085 C89.0830444,87.5558085 90.0800214,88.0857874 90.2166556,88.154972 Z M88.916756,93.7117899 C102.007945,121.628452 68.2487827,144.073699 45.8610247,125.344068 C52.6778323,126.399314 56.8554441,122.162073 57.2244856,115.693303 C57.6369095,108.450525 66.8744264,103.02578 72.5675778,104.213449 C81.1427143,105.999591 88.2086123,99.9040002 87.4531023,92.326456 C88.5670019,95.856811 88.3832159,100.095565 86.8863195,104.070281 C84.8271142,109.526 80.5558157,113.896992 75.1710185,116.052369 L75.4623274,116.782977 C81.0530769,114.541344 85.4825341,110.009179 87.619901,104.347273 C89.137537,100.320162 89.3781571,96.1624493 88.3518248,92.5607365 L88.916756,93.7117899 Z M92.5669095,92.6338433 C123.162625,88.8100794 134.077184,127.852935 109.346041,143.357189 C112.456149,137.200109 109.717246,131.917584 103.67912,129.567645 C96.9182757,126.937266 94.6135861,116.475526 97.5024066,111.428027 C101.850992,103.824536 98.2372229,95.2208268 90.7970847,93.5977696 C94.4988657,93.6293278 98.4733668,95.1139655 101.79098,97.7658535 C106.343348,101.410184 109.180504,106.823141 109.566396,112.610436 L110.351265,112.559155 C109.946982,106.549333 107.005415,100.936153 102.281105,97.1537715 C98.9200694,94.4659678 95.0402057,92.9523208 91.2976191,92.8154304 C91.4488242,92.7910904 92.5669095,92.6338433 92.5669095,92.6338433 Z M146.095486,88.5457115 C141.200831,83.6851808 135.330484,84.6576422 131.229676,89.6740697 C126.63882,95.2911831 115.976927,94.250218 112.069164,89.9430234 C106.181602,83.4576651 96.8822714,84.2358712 93.0395231,90.8103109 C94.21345,87.2994599 96.8536128,83.978263 100.400907,81.6425038 C105.27363,78.4391047 111.298388,77.4135042 116.921679,78.8348718 L117.115446,78.0725703 C111.274836,76.5999296 105.02739,77.6629581 99.9702393,80.9872235 C96.375369,83.3531813 93.7368613,86.5754083 92.4501479,90.0925182 C97.3709188,58.5081957 138.89504,59.8458247 146.095486,88.5457115 Z M91.1679727,59.3765019 L89.384678,62.1762013 L88.7386473,58.9184838 L85.5219231,58.0872661 L88.4212832,56.4637093 L88.2191362,53.1501562 L90.6548239,55.4063112 L93.7443204,54.1884674 L92.355424,57.2037493 L94.4645657,59.7659567 L91.1679727,59.3765019 L91.1679727,59.3765019 L91.1679727,59.3765019 L91.1679727,59.3765019 L91.1679727,59.3765019 Z M120.114073,82.1042382 L116.900332,81.2733788 L119.798971,79.652277 L119.595483,76.3361302 L122.035529,78.5918789 L125.124439,77.3756814 L123.731377,80.3893483 L125.844322,82.9512997 L122.547426,82.562154 L120.762382,85.3598326 L120.114073,82.1042382 L120.114073,82.1042382 L120.114073,82.1042382 L120.114073,82.1042382 L120.114073,82.1042382 Z M107.443548,116.656872 L107.240641,113.343673 L109.67813,115.599495 L112.769092,114.381221 L111.377763,117.398907 L113.488961,119.960809 L110.192313,119.567202 L108.408689,122.368419 L107.759991,119.112632 L104.547632,118.279485 L107.443548,116.656872 L107.443548,116.656872 L107.443548,116.656872 L107.443548,116.656872 L107.443548,116.656872 Z M70.6666327,115.283838 L73.7549705,114.067028 L72.362782,117.082304 L74.476589,119.645516 L71.1766546,119.2548 L69.3925374,122.05434 L68.7481593,118.797411 L65.5328735,117.966707 L68.4288526,116.343665 L68.2285487,113.031073 L70.6666327,115.283838 L70.6666327,115.283838 L70.6666327,115.283838 L70.6666327,115.283838 L70.6666327,115.283838 Z M62.7193781,82.4437909 L59.4214702,82.0515125 L57.6369128,84.8539386 L56.98877,81.5947766 L53.7749269,80.7630856 L56.6733268,79.1437992 L56.4697954,75.829179 L58.9083063,78.0818714 L61.996871,76.867724 L60.6077741,79.8826221 L62.7193781,82.4437909 Z" id="emblem" fill="#FFFFFF"></path>
            </g>
        </g>
    </g>
</svg>