<?xml version="1.0" encoding="UTF-8" standalone="no"?>
<svg width="180px" height="180px" viewBox="0 0 180 180" version="1.1" xmlns="http://www.w3.org/2000/svg" xmlns:xlink="http://www.w3.org/1999/xlink">
    <!-- Generator: Sketch 3.8.3 (29802) - http://www.bohemiancoding.com/sketch -->
    <title>iceland</title>
    <desc>Created with Sketch.</desc>
    <defs></defs>
    <g id="Page-1" stroke="none" stroke-width="1" fill="none" fill-rule="evenodd">
        <g id="flags" transform="translate(-1530.000000, -2610.000000)">
            <g id="iceland" transform="translate(1530.000000, 2610.000000)">
                <circle id="blue" fill="#227FBB" cx="90" cy="90" r="90"></circle>
                <path d="M59.9999996,5.12117078 C48.8214053,9.07223656 38.6564375,15.1690819 30,22.916803 L30,157.083197 C38.6564376,164.830918 48.8214054,170.927763 59.9999996,174.878829 L60,5.12116698 L60,5.12116698 L59.9999996,5.12117078 L59.9999996,5.12117078 L59.9999996,5.12117078 Z" id="white" fill="#FFFFFF"></path>
                <path d="M178.755624,105 C179.574018,100.121873 180,95.1106832 180,90 C180,84.8893168 179.574018,79.8781271 178.755624,75 L1.24437643,75 C0.425981881,79.8781271 0,84.8893168 0,90 C0,95.1106832 0.425981881,100.121873 1.24437643,105 L178.755624,105 L178.755624,105 L178.755624,105 L178.755624,105 L178.755624,105 Z" id="white" fill="#FFFFFF"></path>
                <path d="M36,82 L36,17.9934086 C40.9607673,14.2672316 46.3191084,11.0417472 51.9999956,8.39198295 L52,82 L180,82 L180,98 L52,98 L52,171.608019 C46.3191084,168.958253 40.9607673,165.732768 36,162.006591 L36,98 L0,98 L0,82 L36,82 Z" id="red-cross" fill="#E94B35"></path>
            </g>
        </g>
    </g>
</svg>