<?xml version="1.0" encoding="UTF-8" standalone="no"?>
<svg width="180px" height="180px" viewBox="0 0 180 180" version="1.1" xmlns="http://www.w3.org/2000/svg" xmlns:xlink="http://www.w3.org/1999/xlink">
    <!-- Generator: Sketch 3.8.3 (29802) - http://www.bohemiancoding.com/sketch -->
    <title>india</title>
    <desc>Created with Sketch.</desc>
    <defs></defs>
    <g id="Page-1" stroke="none" stroke-width="1" fill="none" fill-rule="evenodd">
        <g id="flags" transform="translate(-1800.000000, -2610.000000)">
            <g id="india" transform="translate(1800.000000, 2610.000000)">
                <path d="M174.873467,120 L5.12100983,120 C17.475726,154.955772 50.8118738,180 89.9972382,180 C129.182603,180 162.51875,154.955772 174.873463,120 L174.873467,120 L174.873467,120 Z" id="green" fill="#1AAF5D"></path>
                <path d="M5.12100983,120 L174.873467,120 C178.189905,110.616633 179.994476,100.519063 179.994476,90 C179.994476,79.480937 178.189905,69.3833673 174.873463,59.9999996 L5.12100983,60 C1.80457108,69.3833673 0,79.480937 0,90 C0,100.519063 1.80457108,110.616633 5.12101363,120 L5.12100983,120 L5.12100983,120 Z" id="white" fill="#FFFFFF"></path>
                <path d="M5.12100983,60 L174.873467,60 C162.51875,25.0442275 129.182603,0 89.9972382,0 C50.8118738,0 17.475726,25.0442275 5.12101363,59.9999996 L5.12100983,60 L5.12100983,60 Z" id="orange" fill="#E87E04"></path>
                <path d="M94.550417,113.013095 C95.8738063,112.790488 97.1579526,112.452067 98.392102,112.008599 L98.392102,112.008599 C98.2953232,111.91587 98.2153637,111.802401 98.1596742,111.671205 C97.9398269,111.153277 98.1814689,110.555193 98.6993967,110.335345 C99.2173246,110.115498 99.8154095,110.35714 100.035257,110.875068 C100.095107,111.016065 100.120755,111.163003 100.115938,111.306632 C101.361336,110.737851 102.545788,110.058546 103.656785,109.281242 C103.502977,109.215958 103.363103,109.111849 103.252945,108.970853 C102.90654,108.527474 102.985152,107.887227 103.428531,107.540821 C103.871911,107.194415 104.512158,107.273028 104.858564,107.716407 C104.974771,107.865145 105.043148,108.036038 105.065969,108.210561 L105.065969,108.210561 C106.149494,107.318204 107.148129,106.326281 108.047915,105.248768 L108.047915,105.248768 C107.847081,105.241258 107.646438,105.174396 107.473765,105.044278 C107.024408,104.705663 106.934634,104.066885 107.273249,103.617528 C107.611864,103.16817 108.250641,103.078396 108.699999,103.417011 C108.880443,103.552985 109.002904,103.737361 109.062927,103.938438 C109.905018,102.764779 110.637037,101.506625 111.243857,100.179119 C111.020674,100.255053 110.770223,100.25431 110.534491,100.159068 C110.012806,99.9482936 109.760762,99.3545171 109.971537,98.8328312 C110.182312,98.3111453 110.776088,98.0591021 111.297774,98.2698769 C111.540716,98.3680317 111.725182,98.5492456 111.831664,98.7675586 L111.831664,98.7675586 C112.353332,97.3832726 112.742569,95.9339428 112.983908,94.4350555 L112.983908,94.4350555 C112.777659,94.5986773 112.508492,94.6827636 112.226541,94.6481444 C111.668078,94.5795738 111.270943,94.0712633 111.339513,93.5128009 C111.408084,92.9543386 111.916394,92.5572028 112.474857,92.6257734 C112.761094,92.6609189 113.00495,92.811585 113.165442,93.0253152 C113.235508,92.3019685 113.271362,91.5685953 113.271362,90.826838 C113.271362,90.01896 113.228831,89.2210274 113.14589,88.4351622 C112.990686,88.67267 112.737635,88.8444776 112.434603,88.887066 C111.877422,88.9653726 111.362258,88.5771686 111.283951,88.019988 C111.205645,87.4628074 111.593849,86.9476433 112.151029,86.8693367 C112.457618,86.8262484 112.751486,86.9244083 112.96685,87.1142463 L112.96685,87.1142463 C112.70792,85.5529782 112.288419,84.0460361 111.72591,82.6110027 L111.72591,82.6110027 C111.64408,82.8962419 111.438934,83.1434606 111.144498,83.2684411 C110.626571,83.4882885 110.028486,83.2466465 109.808638,82.7287186 C109.588791,82.2107907 109.830433,81.6127058 110.348361,81.3928585 C110.642238,81.268115 110.961922,81.2919496 111.223674,81.4305296 C110.56652,80.0010962 109.764063,78.6524547 108.83525,77.4035765 C108.826145,77.6954633 108.692258,77.9813238 108.444146,78.1751699 C108.000767,78.5215757 107.36052,78.4429632 107.014114,77.999584 C106.667708,77.5562047 106.746321,76.9159575 107.1897,76.5695517 C107.434772,76.3780801 107.739992,76.3164598 108.022491,76.3745157 L108.022491,76.3745157 C107.030053,75.1902749 105.918016,74.109889 104.704994,73.1519944 L104.704994,73.1519944 C104.756333,73.4240075 104.697288,73.7158574 104.517571,73.9543502 C104.178956,74.4037075 103.540178,74.4934818 103.090821,74.1548668 C102.641463,73.8162518 102.551689,73.1774741 102.890304,72.7281167 C103.066487,72.4943141 103.323929,72.3578566 103.59367,72.328436 C102.358092,71.4702396 101.032407,70.7329422 99.6336897,70.1336413 C99.7279086,70.3691171 99.7348739,70.6398969 99.6323615,70.8936239 C99.4215867,71.4153098 98.8278102,71.667353 98.3061243,71.4565782 C97.7844384,71.2458035 97.5323952,70.6520269 97.74317,70.130341 C97.8422405,69.8851331 98.0259268,69.6994967 98.2469709,69.5934919 L98.2469709,69.5934919 C96.8813407,69.113412 95.4553899,68.7616573 93.9835519,68.5526781 L93.9835519,68.5526781 C94.0967653,68.7408022 94.1502697,68.966755 94.1214375,69.2015746 C94.052867,69.760037 93.5445564,70.1571727 92.986094,70.0886022 C92.4276317,70.0200316 92.0304959,69.511721 92.0990665,68.9532587 C92.1263539,68.7310207 92.223279,68.5343306 92.3652903,68.3823702 C91.8481427,68.3467452 91.3261833,68.3286385 90.8,68.3286385 C89.8986145,68.3286385 89.0096246,68.3817741 88.1359848,68.4850875 C88.2527015,68.6256358 88.3330658,68.7993103 88.3603591,68.9935126 C88.4386657,69.5506932 88.0504617,70.0658573 87.4932811,70.1441639 C86.9361005,70.2224705 86.4209364,69.8342665 86.3426298,69.2770859 C86.3170791,69.0952831 86.3411957,68.9179536 86.4046437,68.7588137 L86.4046437,68.7588137 C85.0490568,69.02794 83.7373521,69.4191441 82.4814379,69.9205032 L82.4814379,69.9205032 C82.590763,70.0176747 82.6807844,70.1400281 82.7417342,70.2836169 C82.9615816,70.8015448 82.7199396,71.3996297 82.2020117,71.619477 C81.6840838,71.8393243 81.0859989,71.5976824 80.8661516,71.0797545 C80.8108683,70.9495152 80.7847664,70.8142073 80.7849012,70.6811197 C79.5947228,71.2753591 78.4646064,71.9722088 77.4061106,72.7600966 C77.496218,72.8194481 77.5783579,72.8942387 77.648463,72.9839691 C77.9948688,73.4273483 77.9162563,74.0675955 77.4728771,74.4140013 C77.0294978,74.7604072 76.3892506,74.6817947 76.0428448,74.2384155 C75.981419,74.1597941 75.9333573,74.0749825 75.8983238,73.9867167 L75.8983238,73.9867167 C74.9320425,74.8444491 74.0401109,75.7842702 73.2334314,76.7952643 L73.2334314,76.7952643 C73.3008874,76.8257593 73.3660451,76.864127 73.4276433,76.9105446 C73.8770006,77.2491596 73.9667749,77.8879373 73.6281599,78.3372947 C73.2895449,78.786652 72.6507672,78.8764263 72.2014098,78.5378113 C72.1491119,78.498402 72.1016846,78.454927 72.0592364,78.4081579 C71.3601189,79.4635827 70.7475681,80.5814802 70.2317242,81.7516983 C70.2771261,81.7630766 70.3222854,81.7777215 70.366917,81.7957538 C70.8886029,82.0065286 71.1406461,82.6003052 70.9298713,83.121991 C70.7190966,83.6436769 70.12532,83.8957201 69.6036341,83.6849453 C69.5680457,83.6705667 69.5337121,83.6544056 69.5006947,83.6366067 L69.5006947,83.6366067 C69.1032862,84.8170892 68.8010374,86.0413979 68.6030817,87.3003885 L68.6030817,87.3003885 C68.6268968,87.3016387 68.6508358,87.3037271 68.6748677,87.3066778 C69.2333301,87.3752484 69.6304658,87.883559 69.5618953,88.4420213 C69.4933247,89.0004837 68.9850141,89.3976194 68.4265518,89.3290489 C68.4102659,89.3270492 68.3941172,89.3246756 68.3781133,89.3219377 C68.3453034,89.8193272 68.3286385,90.3211341 68.3286385,90.826838 C68.3286385,91.5845668 68.3660528,92.3335465 68.4391326,93.0720265 C68.4483092,93.0704833 68.4575341,93.0690593 68.4668057,93.0677563 C69.0239863,92.9894496 69.5391504,93.3776536 69.617457,93.9348342 C69.6957636,94.4920148 69.3075596,95.0071789 68.750379,95.0854856 C68.7439612,95.0863876 68.7375489,95.0872276 68.7311428,95.0880063 L68.7311428,95.0880063 C68.9687837,96.3290875 69.308275,97.5339318 69.7405708,98.6934825 L69.7405708,98.6934825 C69.7459862,98.6910734 69.7514326,98.6887061 69.75691,98.6863811 C70.2748379,98.4665338 70.8729228,98.7081758 71.0927701,99.2261036 C71.3126175,99.7440315 71.0709755,100.342116 70.5530476,100.561964 C70.5481879,100.564027 70.5433212,100.566049 70.5384478,100.568031 C71.0823818,101.700048 71.7181702,102.779468 72.4361366,103.796605 C72.4430838,103.790879 72.4501257,103.785228 72.4572622,103.779652 C72.9006414,103.433247 73.5408886,103.511859 73.8872944,103.955238 C74.2337003,104.398618 74.1550878,105.038865 73.7117086,105.385271 C73.7027079,105.392303 73.693626,105.39916 73.6844672,105.405842 L73.6844672,105.405842 C74.4966747,106.360712 75.3871887,107.246764 76.3460648,108.054042 L76.3460648,108.054042 C76.3580031,108.035915 76.3705927,108.018049 76.3838377,108.000472 C76.7224527,107.551115 77.3612305,107.46134 77.8105878,107.799955 C78.2599451,108.13857 78.3497194,108.777348 78.0111044,109.226706 C77.9941301,109.249232 77.9764016,109.270854 77.9579805,109.291563 C78.9880464,110.011019 80.0811336,110.646283 81.2272904,111.187392 C81.2383204,111.145022 81.2522064,111.10288 81.2690469,111.061198 C81.4798217,110.539512 82.0735983,110.287469 82.5952842,110.498244 C83.11697,110.709019 83.3690132,111.302795 83.1582385,111.824481 C83.1382762,111.873889 83.1148784,111.920879 83.0884317,111.965286 L83.0884317,111.965286 C84.2740999,112.398983 85.5064798,112.735535 86.7759602,112.965321 L86.7759602,112.965321 C86.7697795,112.893147 86.7712488,112.819202 86.7810929,112.744428 C86.8545343,112.186585 87.3662911,111.793901 87.9241338,111.867342 C88.4819766,111.940783 88.8746614,112.45254 88.80122,113.010383 C88.7910252,113.087821 88.772384,113.162075 88.7463459,113.232343 C89.4226926,113.293692 90.1076902,113.325037 90.8,113.325037 C90.8,113.325037 78.3894091,113.325037 90.8,113.325037 C91.4151076,113.325037 92.0244428,113.300293 92.6270669,113.251745 C92.5850694,113.161998 92.5555595,113.064555 92.5410494,112.96131 C92.4627427,112.404129 92.8509467,111.888965 93.4081273,111.810658 C93.9653079,111.732352 94.480472,112.120556 94.5587787,112.677736 C94.574901,112.792452 94.5712482,112.905387 94.550417,113.013095 L94.550417,113.013095 Z M91.5313815,94.9631422 C91.8754402,94.8687538 92.2013095,94.7303961 92.5025712,94.5544873 L92.5025712,94.5544873 L94.7701854,99.856155 L101.487859,110.094325 L95.9801814,99.1575635 L92.5225016,94.5427739 C92.8268515,94.3627372 93.1057582,94.1442426 93.3525315,93.8939799 L96.9209906,98.4356552 L106.059599,106.586306 L97.9089483,97.4476975 L93.3671154,93.8791146 L93.3671154,93.8791146 C93.6124456,93.6277751 93.8255554,93.3448438 93.9997687,93.0369969 L93.9997687,93.0369969 L98.6308566,96.5068883 L109.567618,102.014566 L99.3294481,95.2968923 L94.0087067,93.0211199 C94.1789549,92.7171116 94.3113689,92.3890503 94.3995724,92.0433123 L99.7832586,94.2012967 L111.772851,96.6906631 L100.144876,92.8517215 L94.4032668,92.0287178 L94.4032668,92.0287178 C94.4833123,91.7100105 94.5258216,91.3764014 94.5258216,91.0328638 C94.5258216,91.0162545 94.5257222,90.9996684 94.5255241,90.983106 L94.5255242,90.983106 L100.299663,91.6760027 L112.525015,90.9774111 L100.299663,90.2788196 L94.5253724,90.9717344 C94.5200721,90.6112777 94.4679718,90.2621558 94.3748767,89.9301739 L100.144876,89.1031007 L111.772851,85.2641592 L99.7832586,87.7535255 L94.3726594,89.9222976 C94.2758121,89.5796038 94.1352593,89.255253 93.9574022,88.9556462 L93.9574022,88.9556462 L99.3294481,86.65793 L109.567618,79.9402559 L98.6308566,85.4479339 L93.9549029,88.9514416 C93.7743478,88.6481205 93.5555294,88.3702308 93.3051051,88.1244301 L97.9089483,84.5071247 L106.059599,75.3685165 L96.9209906,83.5191671 L93.3036733,88.1230255 L93.3036733,88.1230255 C93.0532927,87.877508 92.7713602,87.6640502 92.4645206,87.4892968 L92.4643853,87.4896132 L95.9801814,82.7972588 L101.487859,71.8604975 L94.7701854,82.0986672 L92.4645206,87.4892968 C91.8705214,87.1509982 91.183181,86.9577465 90.4507042,86.9577465 C89.7181981,86.9577465 89.030832,87.1510137 88.4368165,87.4893374 L84.921227,82.7972588 L79.413549,71.8604975 L86.1312231,82.0986672 L88.4370232,87.4896132 L88.4368165,87.4893374 C88.1300045,87.6640833 87.8480964,87.877527 87.5977351,88.1230255 L87.5977351,88.1230255 L83.9804178,83.5191671 L74.8418096,75.3685165 L82.9924602,84.5071247 L87.5963034,88.1244301 C87.3458791,88.3702308 87.1270606,88.6481205 86.9465056,88.9514417 L82.2705519,85.4479339 L71.3337906,79.9402559 L81.5719603,86.65793 L86.9440062,88.9556462 L86.9440062,88.9556462 C86.7661492,89.255253 86.6255964,89.5796038 86.5287491,89.9222976 L86.5287491,89.9222976 L81.1181498,87.7535255 L69.1285577,85.2641592 L80.7565322,89.1031007 L86.5265318,89.9301739 C86.4334367,90.2621558 86.3813364,90.6112777 86.3760361,90.9717344 L80.6017459,90.2788196 L68.3763938,90.9774111 L80.6017459,91.6760027 L86.3758844,90.983106 L86.3758844,90.983106 C86.3756863,90.9996684 86.3755869,91.0162545 86.3755869,91.0328638 C86.3755869,91.3764014 86.4180962,91.7100105 86.4981417,92.0287178 L86.4981417,92.0287178 L80.7565322,92.8517215 L69.1285577,96.6906631 L81.1181498,94.2012967 L86.5018361,92.0433123 C86.5900396,92.3890503 86.7224536,92.7171115 86.8927017,93.0211199 L81.5719603,95.2968923 L71.3337906,102.014566 L82.2705519,96.5068883 L86.9016397,93.0369968 L86.9016397,93.0369968 C87.075853,93.3448438 87.2889628,93.6277751 87.5342931,93.8791146 L87.5342931,93.8791146 L82.9924602,97.4476975 L74.8418096,106.586306 L83.9804178,98.4356552 L87.5488769,93.89398 C87.7956503,94.1442426 88.074557,94.3627373 88.3789069,94.5427739 L84.921227,99.1575635 L79.413549,110.094325 L86.1312231,99.856155 L88.3988373,94.5544874 L88.3988373,94.5544874 C88.700099,94.7303961 89.0259683,94.8687538 89.3700269,94.9631421 L89.3700269,94.9631421 L87.2268186,100.309966 L84.7374523,112.299558 L88.5763939,100.671583 L89.3937224,94.9695655 C89.7270045,95.0588254 90.0771348,95.1068884 90.4383214,95.1079628 L90.4383192,95.1079812 C90.2621905,95.1079812 88.2986532,95.1079812 90.4507042,95.1079812 C90.4548332,95.1079812 90.4589608,95.1079751 90.463087,95.1079628 L91.1492958,100.826369 L90.4507042,113.051722 L89.7521127,100.826369 L90.4383192,95.1079812 L90.463087,95.1079628 C90.8242736,95.1068884 91.1744039,95.0588254 91.507686,94.9695655 L92.3250146,100.671583 L96.1639562,112.299558 L93.6745898,100.309966 L91.5313815,94.9631422 L91.5313815,94.9631422 Z M90.8,115.6 C104.496662,115.6 115.6,104.496662 115.6,90.8 C115.6,77.1033375 104.496662,66 90.8,66 C77.1033375,66 66,77.1033375 66,90.8 C66,104.496662 77.1033375,115.6 90.8,115.6 C90.8,115.6 77.1033375,115.6 90.8,115.6 L90.8,115.6 Z M84.7374523,69.6552646 L87.2268186,81.6448567 L89.4083462,87.0872781 L88.5763939,81.2832391 L84.7374523,69.6552646 L84.7374523,69.6552646 Z M90.4507042,68.9031007 L89.7521127,81.1284528 L90.4507042,86.950049 L91.1492958,81.1284528 L90.4507042,68.9031007 L90.4507042,68.9031007 Z M96.1639562,69.6552646 L92.3250146,81.2832391 L91.4930622,87.0872781 L93.6745898,81.6448567 L96.1639562,69.6552646 L96.1639562,69.6552646 Z" id="emblem" fill="#227FBB"></path>
            </g>
        </g>
    </g>
</svg>