<?xml version="1.0" encoding="UTF-8" standalone="no"?>
<svg width="180px" height="180px" viewBox="0 0 180 180" version="1.1" xmlns="http://www.w3.org/2000/svg" xmlns:xlink="http://www.w3.org/1999/xlink">
    <!-- Generator: Sketch 3.8.3 (29802) - http://www.bohemiancoding.com/sketch -->
    <title>iran</title>
    <desc>Created with Sketch.</desc>
    <defs></defs>
    <g id="Page-1" stroke="none" stroke-width="1" fill="none" fill-rule="evenodd">
        <g id="flags" transform="translate(-2340.000000, -2610.000000)">
            <g id="iran" transform="translate(2340.000000, 2610.000000)">
                <path d="M174.873467,120 L5.12100983,120 C17.475726,154.955772 50.8118738,180 89.9972382,180 C129.182603,180 162.51875,154.955772 174.873463,120 L174.873467,120 L174.873467,120 Z" id="red" fill="#E94B35"></path>
                <path d="M5.12100983,120 L174.873467,120 C178.189905,110.616633 179.994476,100.519063 179.994476,90 C179.994476,79.480937 178.189905,69.3833673 174.873463,59.9999996 L5.12100983,60 C1.80457108,69.3833673 0,79.480937 0,90 C0,100.519063 1.80457108,110.616633 5.12101363,120 L5.12100983,120 L5.12100983,120 Z" id="white" fill="#FFFFFF"></path>
                <path d="M174.873467,60 C162.51875,25.0442275 129.182603,0 89.9972382,0 C50.8118738,0 17.475726,25.0442275 5.12101363,59.9999996 L174.873467,60 L174.873467,60 Z" id="green" fill="#1AAF5D"></path>
                <g id="bottom" transform="translate(5.000000, 120.000000)" fill="#FFFFFF">
                    <path d="M11,6.9 L11,4.9 L6,4.9 L6,1.9 L9,1.9 L9,2.9 L7,2.9 L7,3.9 L11,3.9 L11,1.9 L16,1.9 L16,6.9 L15,6.9 L15,2.9 L14,2.9 L14,6.9 L13,6.9 L13,2.9 L12,2.9 L12,6.9 L11,6.9 L11,6.9 Z M1.40470541,7 L1.83284611,6.00000003 L10,6 L10,7 L1.40470541,7 L1.40470541,7 Z M17,4.9 L17,1.9 L18,1.9 L18,3.9 L21,3.9 L21,1.9 L26,1.9 L26,4.9 L23.0206909,4.9 L23.0206909,3.9 L25,3.9 L25,2.9 L22,2.9 L22,4.9 L17,4.9 L17,4.9 Z M32,6.9 L32,4.9 L27,4.9 L27,1.9 L30,1.9 L30,2.9 L28,2.9 L28,3.9 L32,3.9 L32,1.9 L37,1.9 L37,6.9 L36,6.9 L36,2.9 L35,2.9 L35,6.9 L34,6.9 L34,2.9 L33,2.9 L33,6.9 L32,6.9 L32,6.9 Z M17,7 L17,6 L31,6 L31,7 L17,7 L17,7 Z M38,4.9 L38,1.9 L39,1.9 L39,3.9 L42,3.9 L42,1.9 L47,1.9 L47,4.9 L44.0206909,4.9 L44.0206909,3.9 L46,3.9 L46,2.9 L43,2.9 L43,4.9 L38,4.9 L38,4.9 Z M53,6.9 L53,4.9 L48,4.9 L48,1.9 L51,1.9 L51,2.9 L49,2.9 L49,3.9 L53,3.9 L53,1.9 L58,1.9 L58,6.9 L57,6.9 L57,2.9 L56,2.9 L56,6.9 L55,6.9 L55,2.9 L54,2.9 L54,6.9 L53,6.9 L53,6.9 Z M38,7 L38,6 L52,6 L52,7 L38,7 L38,7 Z M59,4.9 L59,1.9 L60,1.9 L60,3.9 L63,3.9 L63,1.9 L68,1.9 L68,4.9 L65.0206909,4.9 L65.0206909,3.9 L67,3.9 L67,2.9 L64,2.9 L64,4.9 L59,4.9 L59,4.9 Z M74,6.9 L74,4.9 L69,4.9 L69,1.9 L72,1.9 L72,2.9 L70,2.9 L70,3.9 L74,3.9 L74,1.9 L79,1.9 L79,6.9 L78,6.9 L78,2.9 L77,2.9 L77,6.9 L76,6.9 L76,2.9 L75,2.9 L75,6.9 L74,6.9 L74,6.9 Z M59,7 L59,6 L73,6 L73,7 L59,7 L59,7 Z M80,4.9 L80,1.9 L81,1.9 L81,3.9 L84,3.9 L84,1.9 L89,1.9 L89,4.9 L86.0206909,4.9 L86.0206909,3.9 L88,3.9 L88,2.9 L85,2.9 L85,4.9 L80,4.9 L80,4.9 Z M95,6.9 L95,4.9 L90,4.9 L90,1.9 L93,1.9 L93,2.9 L91,2.9 L91,3.9 L95,3.9 L95,1.9 L100,1.9 L100,6.9 L99,6.9 L99,2.9 L98,2.9 L98,6.9 L97,6.9 L97,2.9 L96,2.9 L96,6.9 L95,6.9 L95,6.9 Z M80,7 L80,6 L94,6 L94,7 L80,7 L80,7 Z M101,4.9 L101,1.9 L102,1.9 L102,3.9 L105,3.9 L105,1.9 L110,1.9 L110,4.9 L107.020691,4.9 L107.020691,3.9 L109,3.9 L109,2.9 L106,2.9 L106,4.9 L101,4.9 L101,4.9 Z M116,6.9 L116,4.9 L111,4.9 L111,1.9 L114,1.9 L114,2.9 L112,2.9 L112,3.9 L116,3.9 L116,1.9 L121,1.9 L121,6.9 L120,6.9 L120,2.9 L119,2.9 L119,6.9 L118,6.9 L118,2.9 L117,2.9 L117,6.9 L116,6.9 L116,6.9 Z M101,7 L101,6 L115,6 L115,7 L101,7 L101,7 Z M122,4.9 L122,1.9 L123,1.9 L123,3.9 L126,3.9 L126,1.9 L131,1.9 L131,4.9 L128.020691,4.9 L128.020691,3.9 L130,3.9 L130,2.9 L127,2.9 L127,4.9 L122,4.9 L122,4.9 Z M137,6.9 L137,4.9 L132,4.9 L132,1.9 L135,1.9 L135,2.9 L133,2.9 L133,3.9 L137,3.9 L137,1.9 L142,1.9 L142,6.9 L141,6.9 L141,2.9 L140,2.9 L140,6.9 L139,6.9 L139,2.9 L138,2.9 L138,6.9 L137,6.9 L137,6.9 Z M122,7 L122,6 L136,6 L136,7 L122,7 L122,7 Z M143,4.9 L143,1.9 L144,1.9 L144,3.9 L147,3.9 L147,1.9 L152,1.9 L152,4.9 L149.020691,4.9 L149.020691,3.9 L151,3.9 L151,2.9 L148,2.9 L148,4.9 L143,4.9 L143,4.9 Z M158,6.9 L158,4.9 L153,4.9 L153,1.9 L156,1.9 L156,2.9 L154,2.9 L154,3.9 L158,3.9 L158,1.9 L163,1.9 L163,6.9 L162,6.9 L162,2.9 L161,2.9 L161,6.9 L160,6.9 L160,2.9 L159,2.9 L159,6.9 L158,6.9 L158,6.9 Z M143,7 L143,6 L157,6 L157,7 L143,7 L143,7 Z M164,4.9 L164,1.9 L165,1.9 L165,3.9 L167.277474,3.9 L167.743229,4.9 L164,4.9 L164,4.9 Z M164,7 L164,6 L167.982552,6.00000003 L168.422396,7 L164,7 L164,7 Z" id="Rectangle" transform="translate(84.913551, 4.450000) scale(1, -1) translate(-84.913551, -4.450000) "></path>
                    <g id="Group" transform="translate(19.000000, 6.000000)">
                        <rect id="Rectangle-460" x="0" y="0" width="1" height="1"></rect>
                        <rect id="Rectangle-461" x="21" y="0" width="1" height="1"></rect>
                        <rect id="Rectangle-462" x="42" y="0" width="1" height="1"></rect>
                        <rect id="Rectangle-463" x="63" y="0" width="1" height="1"></rect>
                        <rect id="Rectangle-464" x="84" y="0" width="1" height="1"></rect>
                        <rect id="Rectangle-465" x="105" y="0" width="1" height="1"></rect>
                        <rect id="Rectangle-466" x="126" y="0" width="1" height="1"></rect>
                    </g>
                    <path d="M0.817382812,1 L0.480957031,0 L5,0 L5,1 L0.817382812,1 L0.817382812,1 Z M6,1 L6,0 L16,0 L16,1 L6,1 L6,1 Z M17,1 L17,0 L26,0 L26,1 L17,1 L17,1 Z M27,1 L27,0 L37,0 L37,1 L27,1 L27,1 Z M38,1 L38,0 L47,0 L47,1 L38,1 L38,1 Z M48,1 L48,0 L58,0 L58,1 L48,1 L48,1 Z M59,1 L59,0 L68,0 L68,1 L59,1 L59,1 Z M69,1 L69,0 L79,0 L79,1 L69,1 L69,1 Z M80,1 L80,0 L89,0 L89,1 L80,1 L80,1 Z M90,1 L90,0 L100,0 L100,1 L90,1 L90,1 Z M101,1 L101,0 L110,0 L110,1 L101,1 L101,1 Z M111,1 L111,0 L121,0 L121,1 L111,1 L111,1 Z M122,1 L122,0 L131,0 L131,1 L122,1 L122,1 Z M132,1 L132,0 L142,0 L142,1 L132,1 L132,1 Z M143,1 L143,0 L152,0 L152,1 L143,1 L143,1 Z M153,1 L153,0 L163,0 L163,1 L153,1 L153,1 Z M164,1 L164,0 L168.749512,0 L168.223633,1 L164,1 L164,1 Z" id="Rectangle-19"></path>
                </g>
                <g id="top" transform="translate(6.000000, 52.000000)" fill="#FFFFFF">
                    <g id="Group-3" transform="translate(18.000000, 5.000000)">
                        <rect id="Rectangle-460" x="0" y="0" width="1" height="1"></rect>
                        <rect id="Rectangle-461" x="21" y="0" width="1" height="1"></rect>
                        <rect id="Rectangle-462" x="42" y="0" width="1" height="1"></rect>
                        <rect id="Rectangle-463" x="63" y="0" width="1" height="1"></rect>
                        <rect id="Rectangle-464" x="84" y="0" width="1" height="1"></rect>
                        <rect id="Rectangle-465" x="105" y="0" width="1" height="1"></rect>
                        <rect id="Rectangle-466" x="126" y="0" width="1" height="1"></rect>
                    </g>
                    <path d="M0.832641602,6 L4,6 L4,3 L2.04638672,3 L1.56958008,4 L3,4 L3,5 L1.16210937,5 L0.832641602,6 L0.832641602,6 Z M10,1 L10,3 L5,3 L5,6 L8,6 L8,5 L6,5 L6,4 L10,4 L10,6 L15,6 L15,1 L14,1 L14,5 L13,5 L13,1 L12,1 L12,5 L11,5 L11,1 L10,1 L10,1 Z M2.95849609,0.9 L2.45202637,1.9 L9,1.9 L9,0.9 L2.95849609,0.9 L2.95849609,0.9 Z M0.71105957,7 L0.275756836,8 L4,8 L4,7 L0.71105957,7 L0.71105957,7 Z M5,7 L5,8 L15,8 L15,7 L5,7 L5,7 Z M16,3 L16,6 L17,6 L17,4 L20,4 L20,6 L25,6 L25,3 L22.0206909,3 L22.0206909,4 L24,4 L24,5 L21,5 L21,3 L16,3 L16,3 Z M31,1 L31,3 L26,3 L26,6 L29,6 L29,5 L27,5 L27,4 L31,4 L31,6 L36,6 L36,1 L35,1 L35,5 L34,5 L34,1 L33,1 L33,5 L32,5 L32,1 L31,1 L31,1 Z M16,0.9 L16,1.9 L30,1.9 L30,0.9 L16,0.9 L16,0.9 Z M16,7 L16,8 L25,8 L25,7 L16,7 L16,7 Z M26,7 L26,8 L36,8 L36,7 L26,7 L26,7 Z M37,3 L37,6 L38,6 L38,4 L41,4 L41,6 L46,6 L46,3 L43.0206909,3 L43.0206909,4 L45,4 L45,5 L42,5 L42,3 L37,3 L37,3 Z M52,1 L52,3 L47,3 L47,6 L50,6 L50,5 L48,5 L48,4 L52,4 L52,6 L57,6 L57,1 L56,1 L56,5 L55,5 L55,1 L54,1 L54,5 L53,5 L53,1 L52,1 L52,1 Z M37,0.9 L37,1.9 L51,1.9 L51,0.9 L37,0.9 L37,0.9 Z M37,7 L37,8 L46,8 L46,7 L37,7 L37,7 Z M47,7 L47,8 L57,8 L57,7 L47,7 L47,7 Z M58,3 L58,6 L59,6 L59,4 L62,4 L62,6 L67,6 L67,3 L64.0206909,3 L64.0206909,4 L66,4 L66,5 L63,5 L63,3 L58,3 L58,3 Z M73,1 L73,3 L68,3 L68,6 L71,6 L71,5 L69,5 L69,4 L73,4 L73,6 L78,6 L78,1 L77,1 L77,5 L76,5 L76,1 L75,1 L75,5 L74,5 L74,1 L73,1 L73,1 Z M58,0.9 L58,1.9 L72,1.9 L72,0.9 L58,0.9 L58,0.9 Z M58,7 L58,8 L67,8 L67,7 L58,7 L58,7 Z M68,7 L68,8 L78,8 L78,7 L68,7 L68,7 Z M79,3 L79,6 L80,6 L80,4 L83,4 L83,6 L88,6 L88,3 L85.0206909,3 L85.0206909,4 L87,4 L87,5 L84,5 L84,3 L79,3 L79,3 Z M94,1 L94,3 L89,3 L89,6 L92,6 L92,5 L90,5 L90,4 L94,4 L94,6 L99,6 L99,1 L98,1 L98,5 L97,5 L97,1 L96,1 L96,5 L95,5 L95,1 L94,1 L94,1 Z M79,0.9 L79,1.9 L93,1.9 L93,0.9 L79,0.9 L79,0.9 Z M79,7 L79,8 L88,8 L88,7 L79,7 L79,7 Z M89,7 L89,8 L99,8 L99,7 L89,7 L89,7 Z M100,3 L100,6 L101,6 L101,4 L104,4 L104,6 L109,6 L109,3 L106.020691,3 L106.020691,4 L108,4 L108,5 L105,5 L105,3 L100,3 L100,3 Z M115,1 L115,3 L110,3 L110,6 L113,6 L113,5 L111,5 L111,4 L115,4 L115,6 L120,6 L120,1 L119,1 L119,5 L118,5 L118,1 L117,1 L117,5 L116,5 L116,1 L115,1 L115,1 Z M100,0.9 L100,1.9 L114,1.9 L114,0.9 L100,0.9 L100,0.9 Z M100,7 L100,8 L109,8 L109,7 L100,7 L100,7 Z M110,7 L110,8 L120,8 L120,7 L110,7 L110,7 Z M121,3 L121,6 L122,6 L122,4 L125,4 L125,6 L130,6 L130,3 L127.020691,3 L127.020691,4 L129,4 L129,5 L126,5 L126,3 L121,3 L121,3 Z M136,1 L136,3 L131,3 L131,6 L134,6 L134,5 L132,5 L132,4 L136,4 L136,6 L141,6 L141,1 L140,1 L140,5 L139,5 L139,1 L138,1 L138,5 L137,5 L137,1 L136,1 L136,1 Z M121,0.9 L121,1.9 L135,1.9 L135,0.9 L121,0.9 L121,0.9 Z M121,7 L121,8 L130,8 L130,7 L121,7 L121,7 Z M131,7 L131,8 L141,8 L141,7 L131,7 L131,7 Z M142,3 L142,6 L143,6 L143,4 L146,4 L146,6 L151,6 L151,3 L148.020691,3 L148.020691,4 L150,4 L150,5 L147,5 L147,3 L142,3 L142,3 Z M157,1 L157,3 L152,3 L152,6 L155,6 L155,5 L153,5 L153,4 L157,4 L157,6 L162,6 L162,1 L161,1 L161,5 L160,5 L160,1 L159,1 L159,5 L158,5 L158,1 L157,1 L157,1 Z M142,0.9 L142,1.9 L156,1.9 L156,0.9 L142,0.9 L142,0.9 Z M142,7 L142,8 L151,8 L151,7 L142,7 L142,7 Z M152,7 L152,8 L162,8 L162,7 L152,7 L152,7 Z M163,3 L163,6 L164,6 L164,4 L166.18335,4 L165.825317,3 L163,3 L163,3 Z M163,0.9 L163,1.9 L165.341797,1.9 L164.862671,0.9 L163,0.9 L163,0.9 Z M163,7 L163,8 L167.65564,8 L167.205933,7 L163,7 L163,7 Z" id="Rectangle"></path>
                </g>
                <path d="M67.9701377,110.532779 C50.4332831,100.052989 55.9644481,71.9638247 76.9537484,70.1686481 C59.5690677,80.3940217 59.5435072,97.2621433 67.9701377,110.532779 C67.9701377,110.532779 59.5435072,97.2621433 67.9701377,110.532779 L67.9701377,110.532779 L67.9701377,110.532779 L67.9701377,110.532779 Z M112.029863,110.532779 C129.566717,100.052989 124.035552,71.9638247 103.046251,70.1686481 C120.430932,80.3940217 120.456493,97.2621433 112.029863,110.532779 C112.029863,110.532779 120.456493,97.2621433 112.029863,110.532779 L112.029863,110.532779 L112.029863,110.532779 L112.029863,110.532779 Z M90.0592623,66.0750461 C86.3251208,69.8365444 79.9096872,66.0974136 82.1150771,62 C85.9744718,68.1796044 90.0592623,63.1866855 90.0592623,63.1866855 C90.0592623,63.1866855 94.1440528,68.1795373 98.0034475,62 C100.208837,66.0973464 93.7934038,69.8365444 90.0592623,66.0750461 C90.0592623,66.0750461 93.7934038,69.8365444 90.0592623,66.0750461 C90.0592623,66.0750461 93.7934038,69.8365444 90.0592623,66.0750461 L90.0592623,66.0750461 L90.0592623,66.0750461 L90.0592623,66.0750461 Z M87.3778198,114.866672 C87.3778198,114.866672 81.2202535,116.618772 73.3338653,114.049719 C79.6483972,114.527502 84.50665,112.566891 84.7715592,112.448565 C84.7715592,112.448565 69.3336796,105.015173 69.6344078,89.8795757 C70.5365922,74.5649038 79.6587295,69.9073628 79.6587295,69.9073628 C79.6587295,69.9073628 63.4194094,91.0429534 87.2770758,108.708562 L86.2245273,86.8555996 L86.2245273,70.802062 C87.577804,70.5109489 90.0588112,67.9585036 90.0588112,67.9585036 C90.0588112,67.9585036 92.5398185,70.5109489 93.8930951,70.802062 L93.8930951,86.8555996 L92.8405466,108.708562 C116.697311,91.0429534 100.457991,69.9060194 100.457991,69.9060194 C100.457991,69.9060194 109.580128,74.5631574 110.482312,89.8782323 C110.783041,105.014233 95.345161,112.447223 95.345161,112.447223 C96.7485089,113.074049 100.557832,114.148897 107.374287,114.148897 C99.0540412,116.746077 92.7389005,114.865328 92.7389005,114.865328 L90.0574579,118 L87.3778198,114.866672 L87.3778198,114.866672 L87.3778198,114.866672 L87.3778198,114.866672 L87.3778198,114.866672 Z" id="Shape" fill="#E94B35"></path>
            </g>
        </g>
    </g>
</svg>