<?xml version="1.0" encoding="UTF-8" standalone="no"?>
<svg width="180px" height="180px" viewBox="0 0 180 180" version="1.1" xmlns="http://www.w3.org/2000/svg" xmlns:xlink="http://www.w3.org/1999/xlink">
    <!-- Generator: Sketch 3.8.3 (29802) - http://www.bohemiancoding.com/sketch -->
    <title>iraq</title>
    <desc>Created with Sketch.</desc>
    <defs></defs>
    <g id="Page-1" stroke="none" stroke-width="1" fill="none" fill-rule="evenodd">
        <g id="flags" transform="translate(-2610.000000, -2610.000000)">
            <g id="iraq" transform="translate(2610.000000, 2610.000000)">
                <path d="M174.873467,120 L5.12100983,120 C17.475726,154.955772 50.8118738,180 89.9972382,180 C129.182603,180 162.51875,154.955772 174.873463,120 L174.873467,120 L174.873467,120 Z" id="black" fill="#000000"></path>
                <path d="M5.12100983,120 L174.873467,120 C178.189905,110.616633 179.994476,100.519063 179.994476,90 C179.994476,79.480937 178.189905,69.3833673 174.873463,59.9999996 L5.12100983,60 C1.80457108,69.3833673 0,79.480937 0,90 C0,100.519063 1.80457108,110.616633 5.12101363,120 L5.12100983,120 L5.12100983,120 Z" id="white" fill="#FFFFFF"></path>
                <path d="M5.12100983,60 L174.873467,60 C162.51875,25.0442275 129.182603,0 89.9972382,0 C50.8118738,0 17.475726,25.0442275 5.12101363,59.9999996 L5.12100983,60 L5.12100983,60 Z" id="red" fill="#E94B35"></path>
                <g id="emblem" transform="translate(19.000000, 66.000000)" fill="#1AAF5D">
                    <path d="M14.742091,47.2420909 L13,45.4841819 L14.7579089,43.742091 L16.515818,42 L18.257909,43.757909 L20,45.515818 L18.242091,47.2579089 L16.4841819,49 L14.7442001,47.2389274 L14.742091,47.2420909 L14.742091,47.2420909 L14.742091,47.2420909 L14.742091,47.2420909 L14.742091,47.2420909 Z M3.43071479,46.6711596 C2.81474919,46.440657 1.81510131,45.6811663 1.1597305,44.9471691 C-0.075311634,43.5630904 -0.356332977,42.9172578 0.473250323,43.3718899 C1.71036642,44.0506514 4.1607481,44.4914747 5.03284754,44.1940518 C8.24955678,43.093587 8.98062707,38.6949148 6.41202977,35.9044507 C5.90805792,35.357405 5.49534023,34.7211325 5.49534023,34.4906297 C5.49534023,34.260127 6.03145844,33.8288638 6.68579227,33.5325031 C7.60248181,33.1171732 8.05045679,32.6646655 8.63738698,31.5610142 C9.23261299,30.4403672 9.47734007,30.1960555 9.76354631,30.4393049 C10.1721161,30.7866524 11.5523353,34.1602778 11.5523353,34.8124837 C11.5523353,35.1566445 12.0511222,35.2320625 14.3086258,35.2320625 L17.0649163,35.2320625 L16.63457,34.1740868 C16.3981387,33.5930499 16.0082346,32.8101904 15.7686924,32.435225 C15.3808622,31.8276325 15.3787882,31.7203479 15.7510638,31.4484183 C15.9802362,31.2805869 16.7434528,30.7303545 17.4475616,30.2257978 C18.1506335,29.721241 18.8080783,29.0870929 18.9065912,28.8162257 C19.1502814,28.1448997 20.6746407,26.2084641 20.9577359,26.2084641 C21.0832105,26.2084641 21.1869083,28.2383755 21.1869083,30.7197322 L21.1869083,35.2310003 L55.5949127,35.2310003 L55.5949127,22.3058509 L54.6377809,21.6993205 L53.6806492,21.0927903 L52.7110737,21.8501565 L51.7414983,22.6075227 L51.7414983,31.8456904 L37.2901572,31.8456904 C29.3406753,31.8456904 22.8377792,31.7947036 22.8377792,31.7330945 C22.8377792,31.6343077 30.0292294,21.6855117 30.9085877,20.5669891 C31.091096,20.3343619 31.5432189,19.7002138 31.9123834,19.157417 C32.281548,18.6146203 32.6579714,18.1068768 32.7471516,18.0293344 C32.8384058,17.951792 33.2106813,17.4440487 33.5777719,16.9012519 C33.9438256,16.3584551 34.371061,15.7657337 34.5276448,15.5851556 C34.6842287,15.4035151 37.2891202,11.8270048 40.3170992,7.63652857 C43.3450783,3.44605237 45.9126387,0.00975565468 46.0246324,0.00019563302 C46.1355892,-0.00936438864 46.29321,0.332671945 46.3751313,0.758624026 C46.8293282,3.11888718 47.1777531,4.44029463 47.5375849,5.16685629 C47.9980037,6.09630284 47.7283891,6.4436503 46.5120126,6.48189039 C45.9364891,6.49994821 44.6101928,8.16764089 38.391429,16.6951803 C34.3036573,22.3005398 30.9179204,26.9870748 30.8671085,27.1102929 C30.8162965,27.233511 34.5017203,27.3344223 39.0561326,27.3344223 L47.3374479,27.3344223 L47.3415959,24.3028331 C47.3436698,22.6362027 47.436998,21.1405905 47.5479547,20.9801945 C48.0674813,20.2302639 53.542731,16.3117172 53.9243393,16.4158152 C54.1618076,16.4806109 55.6260221,17.5237155 57.1783799,18.7335894 L60,20.9345189 L60,39.7422684 L12.1848925,39.7422684 L11.7047713,41.5607969 C11.1282108,43.7404819 10.1855968,45.3125743 8.9194453,46.2005941 C7.71654951,47.0291294 5.010034,47.2628188 3.42345594,46.667973 C3.42345594,46.667973 5.010034,47.2628188 3.42345594,46.667973 L3.43071479,46.6711596 L3.43071479,46.6711596 L3.43071479,46.6711596 L3.43071479,46.6711596 L3.43071479,46.6711596 Z M63,24.103786 C63,13.6952293 63.0972097,9.14816871 63.3217974,9.01316097 C63.498339,8.9073149 64.2659601,9.45166616 65.0268769,10.2228303 C65.7877937,10.9939945 67.1442593,12.2328256 68.0426105,12.9748281 C69.4594131,14.1477754 69.6069035,14.3637878 69.1700188,14.6208424 C67.7096394,15.4784116 67.7465121,15.2083962 67.7465121,25.1028434 L67.7465121,34.4000163 L70.5857041,34.4000163 C73.1064506,34.4000163 73.5723865,34.3168515 74.7377847,33.6558536 C76.1847559,32.8360866 76.2808482,32.9440928 75.5646254,34.5803866 C75.2964609,35.1906217 74.9970105,36.400291 74.8964488,37.2675807 L74.7154378,38.8444711 L68.8571602,38.9222356 L63,39 L63,24.0951455 L63,24.103786 L63,24.103786 L63,24.103786 L63,24.103786 L63,24.103786 Z"></path>
                    <path d="M93.1303425,34.5025655 C93.2776402,30.5056447 93.702578,29.1493074 95.2115842,27.8619714 C96.3730104,26.8712376 98.0346128,26.4016174 99.95796,26.5221121 L101.398086,26.6127405 L101.484981,24.9773088 C101.59413,22.9052127 101.401265,22.165767 100.692329,21.9464049 C99.8413935,21.6837883 100.015184,20.8248777 101.046267,20.1997474 C101.550682,19.8938763 102.786287,18.8341413 103.790878,17.8444374 C104.79547,16.8547334 105.717405,16.0452566 105.83821,16.0452566 C105.959015,16.0452566 106.058626,19.9968632 106.058626,24.826948 L106.058626,33.6096693 L110.01129,33.6096693 L110.01129,24.5725704 C110.01129,16.7229102 109.953007,15.4788287 109.567278,15.1039564 C109.323548,14.8670867 109.005639,14.6724414 108.861521,14.6724414 C108.227822,14.6724414 108.676074,13.5735714 109.516412,13.0637864 C110.021888,12.7579153 111.250074,11.7043596 112.248307,10.7218647 C113.24548,9.73936981 114.167415,8.99889412 114.295639,9.07613428 C114.423862,9.15337444 114.528771,14.7043674 114.528771,21.4129329 L114.528771,33.6096693 L118.481436,33.6096693 L118.481436,8.63226083 L117.775679,8.03596678 C117.38783,7.7084685 117.069921,7.29034175 117.069921,7.10805497 C117.069921,6.92576819 117.948409,6.08745497 119.02188,5.24399242 C120.095352,4.40052985 121.24724,3.33770523 121.582105,2.88044347 C123.023291,0.912364171 122.999977,0.618851558 122.999977,20.0246697 L122.999977,38 L93,38 L93.1801482,34.4984461 L93.1303425,34.5025655 L93.1303425,34.5025655 L93.1303425,34.5025655 L93.1303425,34.5025655 L93.1303425,34.5025655 Z M101,31.9999999 L101,30 L99.8793566,30 C98.3747989,30 97,31.4064665 97,32.9468822 L97,34 L101,34 L101,32.0023094 L101,31.9999999 L101,31.9999999 L101,31.9999999 L101,31.9999999 L101,31.9999999 Z M126.001115,24.5999166 C126.001115,14.5387866 126.098046,10.1426323 126.323104,10.0126301 C126.500252,9.91070835 127.269015,10.4369572 128.029979,11.1826499 C128.792056,11.9283424 130.149088,13.1254027 131.047092,13.8430148 C132.465403,14.9766339 132.613584,15.1856775 132.175724,15.4342417 C130.713961,16.2631357 130.750728,16.0031313 130.750728,25.5671329 L130.750728,34.5549649 L133.650856,34.5549649 C136.28136,34.5549649 136.655714,34.4884037 137.681844,33.8373527 C138.304653,33.4431861 138.886239,33.1883818 138.97537,33.2715832 C139.064502,33.3547846 138.904065,33.9579947 138.617729,34.6121658 C138.331392,35.2663369 138.013861,36.4873175 137.912473,37.3255717 L137.727525,38.8502374 L131.863763,38.9251188 L126,39 L126,24.5957566 L126.001115,24.5999166 L126.001115,24.5999166 L126.001115,24.5999166 L126.001115,24.5999166 L126.001115,24.5999166 Z M103.52051,9.61271514 C102.983267,9.4073109 102.366008,9.04307663 102.149967,8.80423448 C101.818476,8.43880599 101.983079,8.40297968 103.187877,8.58330549 C105.352855,8.9057424 106.679961,8.52240074 107.887045,7.22190526 L108.948959,6.08023981 L110.424665,6.62718833 C111.236246,6.92812943 112.084405,7.10009578 112.310734,7.00933575 C112.895987,6.77407624 113.956758,5.01739227 113.850451,4.45850165 C113.721284,3.77660732 114.320254,3.88050365 114.690609,4.60300115 C115.417604,6.02172349 114.810632,7.82139905 113.421799,8.36954178 C112.741672,8.63823919 112.084405,8.64540445 110.982484,8.39939704 C109.629087,8.09606752 109.407331,8.1283112 108.814076,8.70869762 C107.488113,10.0103873 105.464876,10.3567084 103.521654,9.61629778 C103.521654,9.61629778 105.464876,10.3567084 103.521654,9.61629778 L103.52051,9.61271514 L103.52051,9.61271514 L103.52051,9.61271514 L103.52051,9.61271514 L103.52051,9.61271514 Z M108.435329,3.84022335 C107.675392,3.44657365 106.071475,1.4288942 106.011106,0.787191244 C105.957839,0.237160148 106.086863,0.0690950896 106.601773,0.0124742408 C107.503755,-0.0854888151 107.920418,0.370174206 108.614068,2.21349739 C109.182246,3.72338668 109.123061,4.19972081 108.436513,3.84022335 C108.436513,3.84022335 109.123061,4.19972081 108.436513,3.84022335 L108.435329,3.84022335 L108.435329,3.84022335 L108.435329,3.84022335 L108.435329,3.84022335 L108.435329,3.84022335 Z"></path>
                </g>
            </g>
        </g>
    </g>
</svg>