<?xml version="1.0" encoding="UTF-8" standalone="no"?>
<svg width="180px" height="180px" viewBox="0 0 180 180" version="1.1" xmlns="http://www.w3.org/2000/svg" xmlns:xlink="http://www.w3.org/1999/xlink">
    <!-- Generator: Sketch 3.8.3 (29802) - http://www.bohemiancoding.com/sketch -->
    <title>israel</title>
    <desc>Created with Sketch.</desc>
    <defs></defs>
    <g id="Page-1" stroke="none" stroke-width="1" fill="none" fill-rule="evenodd">
        <g id="flags" transform="translate(-720.000000, -2880.000000)">
            <g id="israel" transform="translate(720.000000, 2880.000000)">
                <ellipse id="white" fill="#FFFFFF" cx="89.9972382" cy="90" rx="89.9972382" ry="90"></ellipse>
                <path d="M29.906256,157 L150.08822,157 C157.420608,150.418928 163.666637,142.651618 168.524387,134 L11.4700893,134 C16.3278395,142.651618 22.5738685,150.418928 29.906256,157 L29.906256,157 Z M11.4700893,46 L168.524387,46 C163.666637,37.3483822 157.420608,29.5810724 150.08822,23 L29.906256,23 C22.5738685,29.5810724 16.3278395,37.3483822 11.4700893,46 L11.4700893,46 Z" id="blue" fill="#2C97DE"></path>
                <path d="M91.2617443,51.7216797 L57.0716521,109.777797 L125.451837,109.777797 L91.2617443,51.7216797 L91.2617443,51.7216797 L91.2617443,51.7216797 L91.2617443,51.7216797 L91.2617443,51.7216797 Z M91.2617443,60.57088 L65.1163797,104.966735 L117.407109,104.966735 L91.2617443,60.57088 L91.2617443,60.57088 L91.2617443,60.57088 L91.2617443,60.57088 L91.2617443,60.57088 Z" id="triangle" fill="#2C97DE"></path>
                <path d="M91.2617422,70.492711 L57.07165,128.548828 L125.451835,128.548828 L91.2617422,70.492711 L91.2617422,70.492711 L91.2617422,70.492711 L91.2617422,70.492711 L91.2617422,70.492711 Z M91.2617422,79.3419114 L65.1163776,123.737766 L117.407107,123.737766 L91.2617422,79.3419114 L91.2617422,79.3419114 L91.2617422,79.3419114 L91.2617422,79.3419114 L91.2617422,79.3419114 Z" id="triangle" fill="#2C97DE" transform="translate(91.261742, 99.520769) rotate(180.000000) translate(-91.261742, -99.520769) "></path>
            </g>
        </g>
    </g>
</svg>