<?xml version="1.0" encoding="UTF-8" standalone="no"?>
<svg width="180px" height="180px" viewBox="0 0 180 180" version="1.1" xmlns="http://www.w3.org/2000/svg" xmlns:xlink="http://www.w3.org/1999/xlink">
    <!-- Generator: Sketch 3.8.3 (29802) - http://www.bohemiancoding.com/sketch -->
    <title>jamaica</title>
    <desc>Created with Sketch.</desc>
    <defs></defs>
    <g id="Page-1" stroke="none" stroke-width="1" fill="none" fill-rule="evenodd">
        <g id="flags" transform="translate(-1260.000000, -2880.000000)">
            <g id="jamaica" transform="translate(1260.000000, 2880.000000)">
                <path d="M180,90 C180,80.4327716 178.507187,71.2142087 175.741783,62.5645342 L129.601074,90.3530273 L175.725716,117.485669 C178.501404,108.821465 180,99.5857404 180,90 L180,90 Z M0,90 C0,99.5672284 1.49281327,108.785791 4.25821678,117.435466 L50.3989258,89.6469727 L4.27428375,62.5143308 C1.49859586,71.1785353 0,80.4142597 0,90 L0,90 Z" id="black" fill="#000000"></path>
                <path d="M23.9788708,151.166036 C40.4168092,168.900357 63.9121736,180 90,180 C116.087826,180 139.583191,168.900357 156.021129,151.166036 L90,113.076923 L23.9788708,151.166036 L23.9788708,151.166036 L23.9788708,151.166036 Z M23.9788707,28.833964 C40.4168091,11.0996427 63.9121736,0 90,0 C116.087826,0 139.583191,11.0996427 156.021129,28.8339639 L90,66.9230769 L23.9788708,28.8339639 L23.9788707,28.833964 L23.9788707,28.833964 L23.9788707,28.833964 Z" id="green" fill="#1AAF5D"></path>
                <path d="M90,113.076923 L156.021129,151.166036 C164.862608,141.627272 171.662342,130.169065 175.725546,117.486201 L129.6,90.3530273 L175.74161,62.5639917 C171.680276,49.8611657 164.87427,38.3853103 156.021129,28.8339639 L90,66.9230769 L23.9788708,28.8339639 L23.9788709,28.8339639 C15.1372684,38.3728619 8.33746784,49.8312557 4.27428374,62.5143308 L50.3989258,89.6469727 L4.25821678,117.435466 C8.31952991,130.138508 15.1256039,141.614554 23.9788708,151.166036 L90,113.076923 L90,113.076923 L90,113.076923 Z" id="yellow" fill="#F2C500"></path>
            </g>
        </g>
    </g>
</svg>