<?xml version="1.0" encoding="UTF-8" standalone="no"?>
<svg width="180px" height="180px" viewBox="0 0 180 180" version="1.1" xmlns="http://www.w3.org/2000/svg" xmlns:xlink="http://www.w3.org/1999/xlink">
    <!-- Generator: Sketch 3.8.3 (29802) - http://www.bohemiancoding.com/sketch -->
    <title>jersey</title>
    <desc>Created with Sketch.</desc>
    <defs></defs>
    <g id="Page-1" stroke="none" stroke-width="1" fill="none" fill-rule="evenodd">
        <g id="flags" transform="translate(-1800.000000, -2880.000000)">
            <g id="jersey" transform="translate(1800.000000, 2880.000000)">
                <circle id="white" fill="#FFFFFF" transform="translate(90.000000, 90.000000) scale(1, -1) translate(-90.000000, -90.000000) " cx="90" cy="90" r="90"></circle>
                <path d="M158.397758,31.5017368 L99.8994949,90 L158.397758,148.498263 C155.358757,152.048197 152.048197,155.358757 148.498263,158.397758 L90,99.8994949 L31.5017368,158.397758 C27.9518032,155.358757 24.6412431,152.048197 21.6022419,148.498263 L80.1005051,90 L21.6022419,31.5017368 C24.6412431,27.9518032 27.9518032,24.6412431 31.5017368,21.6022419 L90,80.1005051 L148.498263,21.6022419 C152.048197,24.6412431 155.358757,27.9518032 158.397758,31.5017368 Z" id="cross" fill="#E94B35"></path>
                <g id="emblem" transform="translate(68.000000, 3.000000)">
                    <path d="M22.025,69.4554862 C4.61,58.7678287 2.496,39.5050277 6.352,23.9083533 C10.45678,20.1800021 29.114,17.8809349 37.6973,23.9083533 C41.553,39.5050277 39.439,58.7678287 22.025,69.4554862 Z" id="shield" fill="#E94B35"></path>
                    <path d="M37.8351,24.6539675 C38.5229,19.2762591 40.96377,13.8986705 43.84322,9.83419946 C40.83916,9.7715554 39.49289,11.3661317 39.46235,13.0231822 C38.71105,10.8972004 35.76928,11.0221788 34.86158,12.1790359 C38.14785,14.3988839 35.61288,18.3382665 32.64061,17.5254922 C31.24425,17.143823 30.50637,16.1710216 30.24494,14.7587026 C31.0675564,14.7065946 31.7189671,14.0440426 31.7564303,13.2213609 C31.7938934,12.3986792 31.2053915,11.6797649 30.3909097,11.5532401 C29.5764278,11.4267153 28.7972328,11.933166 28.5829174,12.7283748 C28.368602,13.5235836 28.7879135,14.3524658 29.55586,14.6516582 C28.61636,16.1837202 26.93174,16.6436296 25.72474,16.3060211 C24.15979,15.8683219 23.50254,14.4613781 23.50254,13.2107847 C23.50254,9.95918787 26.63121,9.45899447 27.57066,10.021802 C27.50966,7.83325602 24.06666,6.08236931 23.00266,7.89580018 C24.19166,5.7697884 24.12966,2.76826833 22.00066,0.767304906 C19.87366,2.76826833 19.81066,5.7697884 21.00066,7.89580018 C19.9366,6.08240928 16.49396,7.83335593 16.43166,10.0219019 C17.36986,9.45909438 20.49978,9.95925781 20.49978,13.2108846 C20.49978,14.461478 19.84258,15.8684318 18.27758,16.306121 C17.07059,16.6437295 15.38592,16.1838202 14.44524,14.6517581 C15.2131865,14.3525658 15.632498,13.5236835 15.4181826,12.7284747 C15.2038672,11.9332659 14.4246722,11.4268152 13.6101903,11.55334 C12.7957085,11.6798649 12.2072066,12.3987791 12.2446697,13.2214608 C12.2821329,14.0441425 12.9335436,14.7066945 13.75616,14.7588025 C13.49416,16.1711415 12.75516,17.143873 11.36016,17.5255322 C8.38816,18.3383065 5.85316,14.3989238 9.13816,12.1791058 C8.23116,11.0222387 5.29016,10.8972503 4.53816,13.0232521 C4.50616,11.3662316 3.16116,9.77165531 0.15716,9.83429938 C3.03539,13.8987904 5.47626,19.2763789 6.16528,24.6540674 C9.67022,22.4653417 15.61603,20.7770491 21.99918,20.7770491 C28.38439,20.7769492 34.3302,22.4652417 37.8351,24.6539675 Z" id="crown" fill="#F2C500"></path>
                    <g id="leopard" transform="translate(6.050000, 24.444444)" fill="#F2C500">
                        <path d="M29.068763,11.5676837 C28.6904446,11.6587498 28.6904446,12.1512413 28.4922404,12.1512413 C29.4759271,12.1238321 29.9539571,11.8503659 30.2518238,11.3488174 C30.0356279,11.5493613 30.2242955,11.932375 30.1521318,12.0234907 C30.8739648,11.7682277 31.2174893,11.1482734 30.9653,10.7288731 C31.1274224,10.9658136 31.5970759,11.0935643 31.7412066,11.1117676 C31.2355696,10.7105606 31.5970759,9.79882753 30.7839078,9.32482726 C31.0553571,9.30655446 31.5789859,9.61648689 31.7231165,9.98129728 C31.5969776,9.16067996 31.469659,8.63184144 30.8018995,8.17603452 C30.8736699,8.25806348 31.253463,8.33096597 31.4156837,8.17603452 C30.9832918,7.902459 30.8559731,7.44665208 30.8932347,7.15487328 C30.9433756,6.74662528 30.6758589,6.66243139 30.1702219,6.79018206 C29.7150208,6.90507226 28.6724823,6.97253264 28.0587277,6.97253264 C26.7951857,6.97253264 25.6937955,6.97253264 24.6464593,6.24315019 C26.2174735,6.89950104 28.2208697,5.51376775 28.2208697,4.36497501 C28.2208697,3.0884316 26.6678768,2.04907701 23.5270479,2.74206283 C20.386219,3.43492947 16.55958,3.14315068 16.55958,2.08559281 C16.55958,1.02791577 19.3028502,0.882080993 20.7117124,1.10094737 C22.1193851,1.31969457 23.1294892,1.46563859 25.7658608,0.517389772 C25.1160932,0.772652772 23.0213912,0.845565196 21.3614998,0.371564924 C19.700399,-0.102554518 15.6203319,-0.102554518 15.5842992,2.12210861 C15.5479225,4.34665256 19.9286092,4.14405295 23.7084107,3.58087349 C25.9099915,3.2525789 27.0654355,3.47144527 27.0654355,4.20082771 C27.0654355,4.89369436 25.0440082,5.18547316 23.4910153,5.00312258 C21.9392218,4.8209011 20.3501864,4.85729773 18.5089322,5.4043296 C16.9715518,5.86098065 15.9097926,5.4043296 14.2126691,5.6961084 C13.3899643,5.83732532 11.3961341,5.6961084 10.4124474,4.05487376 C9.80711839,4.49260651 7.98385593,5.40881835 7.67758323,6.30234809 C7.24401152,7.12284623 7.53345259,7.9389748 8.10997516,8.74126967 C8.83780541,9.75103027 7.74964856,9.59828361 6.97375182,9.63479941 C5.9095938,9.68475167 4.48510917,9.52063416 3.74163692,8.66835724 C3.0834141,7.91313468 2.20665541,7.30785828 1.50643218,7.86763145 C1.14610557,8.15576562 1.49168484,8.53502542 1.77670171,8.42886446 C2.05896574,8.32392499 2.39284546,8.53502542 2.69428103,8.66835724 C2.212633,8.45920326 1.68296764,8.62148355 1.47638694,8.80799516 C1.19176333,9.06580046 1.5373426,9.55824235 1.88233197,9.38427343 C2.1526015,9.2477836 2.70749464,9.15679699 3.06779176,9.49042446 C2.6774789,9.41455264 2.27143555,9.43064065 2.07690834,9.64207873 C1.8823418,9.85354661 2.03266633,10.1614531 2.45286712,10.1425249 C3.1279019,10.1122358 3.30083901,10.5899601 3.97704375,10.4918133 C3.56146378,10.5465324 3.32609628,10.7652697 3.21794914,10.929417 C3.84972507,10.6376382 4.5475494,11.4241628 5.36668533,11.2393891 C5.04715969,11.3722343 4.53188773,11.6894957 4.53670519,11.932375 C5.02317069,11.3670206 8.29128876,12.3699786 8.36335408,11.1300801 C8.45380441,11.3853431 8.43512445,11.7682277 8.18323993,12.0965223 C8.60117947,11.8411401 9.95242882,11.7500343 10.3667995,10.7652598 C10.4031763,11.0570386 10.3491027,11.4400522 10.09653,11.531158 C10.5301017,11.6743214 11.1006368,11.3482016 11.6843561,10.4736001 C11.9161842,10.1266256 11.9714376,9.89599113 11.9318164,9.63514699 C12.5106986,9.65719351 12.9299064,9.51042523 13.381519,9.1241443 C13.8511725,8.72305646 14.3568096,9.4524389 15.1507079,8.94179373 C15.945786,8.43127766 16.6316453,8.86890117 17.0640274,8.6136183 C17.4975991,8.3583553 18.093362,8.70468435 18.5629762,8.41307438 C19.0326298,8.12129558 19.76046,8.55587031 20.5375562,7.93591609 C21.7602579,8.38832666 23.1871415,9.22665071 26.6870877,8.57710251 C28.6928927,8.20476452 29.3222599,8.88707465 29.3222599,9.81713012 C29.3222599,10.4552777 28.9522983,10.5108409 28.6724922,10.5283192 C27.5566792,10.5976367 27.0774497,10.1063666 26.6366518,10.2638404 C26.3412135,10.3701205 26.161001,10.8554022 26.5884771,11.0222209 C26.2353276,11.2042041 26.280946,11.5454783 26.4611585,11.6705576 C26.6412726,11.7956368 27.1061087,11.6819781 27.4219966,11.5340677 C27.0160516,11.7198147 26.5956542,12.0534422 26.8358391,12.402244 C26.9811496,12.6139502 27.3486532,12.7933811 27.6921679,12.3416657 C28.0368623,11.8865937 28.6674584,11.507463 29.0686057,11.5676341 L29.068763,11.5676837 Z" id="body"></path>
                        <path d="M7.10381143,2.37916269 C6.88790369,1.24579996 7.13162123,1.10522002 7.90143829,1.51428748 C8.17338786,1.27178448 8.58164155,1.1304762 9.19060987,1.1304762 C9.64433596,1.13048233 9.98654844,1.2090942 10.2439153,1.34966971 C11.0531544,0.906648233 11.3124527,1.02526599 11.0927603,2.17849561 C11.0632916,2.33301893 11.0220035,2.50512193 10.9721749,2.68078212 C10.9950498,2.89723528 11.001343,3.12831483 10.9997729,3.3685801 C10.992672,4.71049344 10.4437424,4.24981578 10.131269,5.97232023 C10.0095153,6.64581301 9.60065227,6.68339108 9.18971291,6.68339108 C8.77777692,6.68339108 8.36991047,6.64575847 8.24714358,5.97232023 C7.93653056,4.24972852 7.3867289,4.71037345 7.37925426,3.36847102 C7.2595739,3.03571537 7.16029711,2.67535365 7.10381143,2.37916269 Z" id="head"></path>
                        <path d="M2.48948967,5.8250607 C3.1212656,5.98908883 3.14643439,6.80836548 4.59138832,7.19125998 C4.26586543,7.10019393 4.08575128,7.28252464 3.77822015,7.11836741 C4.37391425,7.59248686 5.04176216,8.14146517 6.45062444,8.15773193 C7.23616594,8.16683059 6.6932673,8.57714223 6.17917512,8.34007258 C6.71243884,8.89621105 7.76820071,8.44040412 8.43600929,9.45246869 C8.56214818,8.66836717 7.19048852,7.42833956 7.82222512,6.53493892 C5.87407238,6.4511224 5.71432922,5.36042524 4.5913195,4.49261644 C3.67727954,3.78700849 3.59561862,3.06976157 3.19205282,1.72685018 C3.008301,1.1187832 2.30327996,0.739662433 1.91290812,0.883669932 C1.57185137,1.00960325 1.44689226,1.3084131 1.73997101,1.53200657 C2.03304976,1.75571921 2.40773044,1.78605801 2.4882509,2.35286223 C2.10747465,1.89220904 1.53704765,1.72539034 1.26315027,2.01352451 C1.09621041,2.18895327 1.16345827,2.59829367 1.52260509,2.63541525 C2.1075828,2.69609285 1.68718537,3.27235125 2.35258523,3.83613649 C1.76288837,3.16620022 1.25240438,3.10554248 0.936516416,3.46949882 C0.747947131,3.68751114 0.936516416,4.07610596 1.34246145,4.03449562 C1.92979873,3.97411595 2.61080127,5.4790693 3.48999819,5.86013652 C3.0023529,5.56833786 2.68764473,5.77024232 2.48948967,5.8250607 Z" id="leg"></path>
                        <path d="M18.5631532,12.0878168 C19.5564552,12.0878168 20.0609026,11.851065 20.5305266,11.4688601 C20.3143307,11.5962617 20.2242736,11.9239651 20.2061835,12.1058584 C20.7298123,11.6508723 21.9753823,11.6145413 22.6251598,11.7419429 C23.2749274,11.8693446 23.3830746,11.5599207 23.6172525,11.1412756 C23.8527183,10.7226206 23.5268021,10.4859878 23.2028523,10.1584033 C22.8773294,9.83069994 22.8052641,9.37571384 22.8773294,8.61119484 C21.1441732,6.2814158 18.039377,7.40986024 18.0033443,8.42917265 C19.1227557,9.73962937 19.2668863,9.59405721 20.2061246,9.77607941 C21.1441535,9.95809169 21.7194865,9.95761587 21.0900799,10.4859878 C20.873884,10.66801 19.9706784,10.5825402 19.266847,10.6133894 C17.6922246,10.6823838 16.9715813,9.51668638 16.506755,10.1221912 C16.1236192,10.6201699 16.5185529,10.8400895 17.2994736,10.8135722 C16.7589345,10.8174472 16.0419386,10.7879967 16.1644497,11.2955613 C16.3710107,12.150794 17.1817701,11.136557 17.4976483,11.4884779 C17.2273787,11.4241426 16.8070796,11.5906906 16.7914474,11.8480317 C16.7767001,12.1054917 17.391959,12.4384093 18.0681932,11.8972001 C18.4381548,11.6004946 18.9101679,11.4894493 19.1948112,11.4870306 C18.8874963,11.5416511 18.9787332,12.0513668 18.5631532,12.0878168 Z" id="leg"></path>
                    </g>
                    <g id="leopard" transform="translate(7.700000, 38.888889)" fill="#F2C500">
                        <path d="M26.0616496,10.4430478 C25.7224676,10.5252602 25.7224676,10.9698706 25.5447673,10.9698706 C26.4266933,10.9451262 26.8552719,10.698247 27.1223248,10.2454601 C26.928494,10.4265067 27.0976442,10.7722829 27.0329458,10.8545402 C27.6801064,10.6240944 27.9880939,10.0644135 27.7619931,9.68578819 C27.9073442,9.89969285 28.3284129,10.0150233 28.4576335,10.0314568 C28.0043037,9.66925605 28.3284129,8.84616374 27.5993656,8.41824683 C27.8427339,8.40175056 28.3121942,8.68155066 28.4414148,9.01089338 C28.3283248,8.2700583 28.214177,7.79263464 27.6154961,7.38114228 C27.679842,7.4551962 28.0203461,7.52101095 28.1657854,7.38114228 C27.7781237,7.13416438 27.6639759,6.72267201 27.6973828,6.4592606 C27.7423368,6.09070338 27.5024942,6.014695 27.0491645,6.13002547 C26.6410531,6.23374579 25.7063635,6.29464752 25.1561007,6.29464752 C24.0232699,6.29464752 23.0358167,6.29464752 22.0968256,5.63617726 C23.505321,6.22871622 25.3014694,4.977707 25.3014694,3.94060244 C25.3014694,2.78816742 23.9091309,1.84986119 21.0932154,2.47547339 C18.2772998,3.100978 14.84652,2.83756658 14.84652,1.88282684 C14.84652,0.927979517 17.3060036,0.796323119 18.5691215,0.993910817 C19.8311728,1.19139093 20.7367834,1.32314595 23.100427,0.467087989 C22.5178766,0.697533753 20.639868,0.763357469 19.1516894,0.335440557 C17.6624267,-0.0925839401 14.0044355,-0.0925839401 13.9721304,1.91579249 C13.9395167,3.92406134 17.8670289,3.74115891 21.2558165,3.23273301 C23.2296475,2.93635595 24.2655629,3.13394365 24.2655629,3.79241391 C24.2655629,4.41791852 22.4532487,4.68132993 21.0609102,4.51670788 C19.6696471,4.35220239 18.2449947,4.38506045 16.594215,4.87890866 C15.215874,5.29116308 14.263952,4.87890866 12.742393,5.14232008 C12.0047956,5.26980758 10.2172237,5.14232008 9.33529769,3.66064993 C8.7925889,4.05582532 7.1579398,4.88296101 6.88335049,5.6896198 C6.49463102,6.4303473 6.75412991,7.16713003 7.27101221,7.891424 C7.92354968,8.80301344 6.94796077,8.66511715 6.25232922,8.6980828 C5.29825651,8.74317859 4.02113236,8.59501695 3.35457103,7.82560029 C2.76444023,7.14380214 1.97838071,6.59737206 1.35059437,7.10272284 C1.02754293,7.36284396 1.33737262,7.70523129 1.59290498,7.60939152 C1.84596929,7.5146545 2.14530972,7.70523129 2.4155623,7.82560029 C1.98373993,7.63678072 1.50886754,7.78328376 1.32365725,7.9516623 C1.06847747,8.18440319 1.37830716,8.62896879 1.68760797,8.47191351 C1.92991859,8.34869352 2.42740899,8.26655284 2.75043399,8.56774431 C2.40049832,8.49924891 2.03645946,8.5137728 1.86205575,8.70465441 C1.68761679,8.89556291 1.8223905,9.17353408 2.19912225,9.15644609 C2.80432584,9.12910173 2.9593729,9.56038065 3.56562543,9.47177594 C3.1930365,9.5211751 2.98201736,9.71864625 2.88505785,9.86683479 C3.45147765,9.60342337 4.07711326,10.3134803 4.81151098,10.1466707 C4.52503972,10.2666004 4.06307176,10.553017 4.06739086,10.7722829 C4.50353234,10.2618936 7.43356923,11.1673418 7.49817952,10.047989 C7.57927292,10.2784347 7.56252537,10.6240944 7.33669787,10.9204715 C7.71140228,10.6899181 8.92286722,10.6076699 9.29437196,9.71863729 C9.32698561,9.9820487 9.27850586,10.3278249 9.05206135,10.4100732 C9.44078081,10.5393179 9.95229509,10.2449043 10.4756296,9.45533346 C10.6834755,9.14209254 10.733013,8.93388088 10.6974906,8.69839658 C11.2164884,8.7182997 11.5923298,8.58580055 11.9972239,8.23707472 C12.4182926,7.87498152 12.8716224,8.53345178 13.5833933,8.07245267 C14.2962219,7.61157011 14.9111303,8.00664689 15.2987832,7.77618319 C15.6875027,7.54573743 16.2216349,7.8583956 16.6426684,7.59513659 C17.063737,7.33172518 17.7162745,7.72404959 18.4129814,7.16436869 C19.5091968,7.5727949 20.7884717,8.32961522 23.9263545,7.74321754 C25.7246624,7.40707908 26.2889226,8.0230535 26.2889226,8.86268691 C26.2889226,9.43879236 25.957233,9.48895358 25.7063723,9.50473262 C24.7059882,9.56731088 24.2763342,9.12380319 23.8811361,9.265967 C23.6162603,9.36191435 23.4546905,9.80001591 23.837945,9.95061613 C23.5213282,10.1149065 23.5622275,10.4230013 23.7237972,10.53592 C23.8852789,10.6488388 24.3020285,10.5462302 24.5852384,10.4127001 C24.2212876,10.5803883 23.8443796,10.8815797 24.0597179,11.1964703 C24.1899962,11.3875939 24.5194822,11.5495802 24.8274608,11.1417815 C25.1364972,10.7309526 25.7018593,10.3886818 26.0615085,10.443003 L26.0616496,10.4430478 Z" id="body"></path>
                        <path d="M6.36893439,2.1478552 C6.17536193,1.12468051 6.39386731,0.997768072 7.08404813,1.36706508 C7.32786498,1.14813877 7.69388553,1.0205688 8.23985712,1.0205688 C8.64664603,1.02057433 8.95345722,1.09154337 9.18419991,1.21845182 C9.90972463,0.818501877 10.142199,0.925587354 9.94523336,1.96669743 C9.91881317,2.10619765 9.88179624,2.26156841 9.83712233,2.42015052 C9.85763081,2.61555962 9.863273,2.82417311 9.86186537,3.04107926 C9.85549904,4.2525288 9.36335524,3.83663925 9.0832067,5.39167798 C8.97404824,5.9996923 8.60748135,6.03361695 8.23905295,6.03361695 C7.86973104,6.03361695 7.50405766,5.99964306 7.3939908,5.39167798 C7.11551016,3.83656047 6.62258453,4.25242048 6.61588313,3.04098078 C6.5085835,2.74057637 6.41957672,2.41524982 6.36893439,2.1478552 Z" id="head"></path>
                        <path d="M2.23195626,5.25873535 C2.79837606,5.4068163 2.82094118,6.14644105 4.11641711,6.4921097 C3.824569,6.4098973 3.66308736,6.57450141 3.38736979,6.42630392 C3.92144036,6.85432841 4.52020056,7.34993384 5.78331847,7.36461911 C6.48759705,7.37283317 6.00086034,7.7432534 5.53995011,7.52923219 C6.01804861,8.03130164 6.96459374,7.61980928 7.56331868,8.53347868 C7.67640872,7.82560925 6.44664488,6.70613988 7.01302942,5.89959764 C5.26640972,5.82392995 5.12319172,4.83927278 4.11635541,4.05583429 C3.29687131,3.41882711 3.22365807,2.77131253 2.86184046,1.55896197 C2.69709745,1.01001261 2.06500962,0.667750807 1.71502107,0.797757578 C1.40924605,0.911447382 1.29721375,1.18120628 1.55997401,1.38306149 C1.82273427,1.58502428 2.15865487,1.61241348 2.23084563,2.12411173 C1.88946003,1.70824427 1.37804272,1.55764406 1.13247955,1.81776518 C0.982809338,1.97613837 1.04310052,2.34568178 1.36509422,2.37919432 C1.88955699,2.43397271 1.51264896,2.95420599 2.10921434,3.46317878 C1.58052061,2.8583752 1.12284531,2.80361474 0.839635408,3.13218644 C0.67057329,3.32900311 0.839635408,3.67981788 1.20358613,3.64225299 C1.73016438,3.58774357 2.34071838,4.94638201 3.12896389,5.29040103 C2.69176467,5.02697168 2.40961252,5.20924654 2.23195626,5.25873535 Z" id="leg"></path>
                        <path d="M16.642827,10.9126124 C17.5333736,10.9126124 17.9856368,10.6988782 18.4066791,10.353832 C18.2128482,10.4688474 18.1321074,10.7646907 18.1158887,10.9289 C18.585349,10.5181486 19.7020669,10.4853498 20.284626,10.6003651 C20.8671763,10.7153805 20.9641358,10.4360395 21.1740884,10.058096 C21.3851957,9.6801436 21.092995,9.46651675 20.8025572,9.17078079 C20.5107091,8.87493745 20.4460988,8.46418611 20.5107091,7.77399534 C18.9568449,5.6707226 16.1732345,6.68945716 16.1409294,7.60966975 C17.1445396,8.79272096 17.2737601,8.66130165 18.1158358,8.82562724 C18.9568273,8.98994389 19.472643,8.98951432 18.9083475,9.46651675 C18.7145167,9.63084234 17.9047462,9.55368216 17.2737249,9.58153214 C15.8619945,9.64381871 15.2159004,8.59145298 14.7991597,9.13808929 C14.4556586,9.5876534 14.8097371,9.78619187 15.5098728,9.7622527 C15.0252516,9.76575095 14.3824277,9.73916371 14.4922652,10.1973817 C14.6774579,10.9694668 15.4043456,10.0538362 15.6875467,10.3715425 C15.4452361,10.3134621 15.0684162,10.4638179 15.0544012,10.6961397 C15.0411794,10.9285689 15.5927908,11.2291195 16.1990698,10.7405278 C16.5307595,10.4726687 16.9539436,10.3724195 17.209141,10.3702359 C16.9336174,10.4195461 17.0154159,10.8797061 16.642827,10.9126124 Z" id="leg"></path>
                    </g>
                    <g id="leopard" transform="translate(11.000000, 51.111111)" fill="#F2C500">
                        <path d="M19.8469485,7.95278257 C19.5886484,8.01539047 19.5886484,8.35397841 19.4533228,8.35397841 C20.1249433,8.33513459 20.4513225,8.14712653 20.6546935,7.80231193 C20.5070839,7.94018588 20.6358983,8.20350778 20.586628,8.26614983 C21.0794657,8.09065651 21.3140099,7.66443799 21.1418255,7.37610023 C21.252516,7.53899686 21.573176,7.62682545 21.6715824,7.6393402 C21.3263544,7.36351038 21.573176,6.73669393 21.0179784,6.41081874 C21.2033128,6.39825619 21.5608248,6.61133473 21.6592313,6.86214188 C21.5731089,6.29796747 21.4861809,5.93439099 21.0302624,5.62102373 C21.0792643,5.67741864 21.3385713,5.72753911 21.4493289,5.62102373 C21.1541096,5.43294056 21.0671816,5.1195733 21.0926223,4.91897538 C21.1268565,4.63830488 20.9442071,4.58042158 20.5989791,4.66825017 C20.2881866,4.74723718 19.5763845,4.79361619 19.1573382,4.79361619 C18.294644,4.79361619 17.5426604,4.79361619 16.8275826,4.29216576 C17.900206,4.74340697 19.2680421,3.79071533 19.2680421,3.00092032 C19.2680421,2.12329672 18.2077228,1.40874045 16.0632948,1.88516819 C13.9188668,2.36151401 11.306196,2.16091609 11.306196,1.43384506 C11.306196,0.706692093 13.1791873,0.606430683 14.1411002,0.756901315 C15.1022009,0.907290017 15.7918581,1.00762653 17.5918636,0.355705468 C17.1482291,0.531198781 15.7180533,0.581326072 14.5847481,0.255450885 C13.4506173,-0.0705062313 10.6649163,-0.0705062313 10.6403147,1.45894967 C10.6154781,2.98832364 13.6064297,2.8490364 16.1871218,2.46185053 C17.69027,2.23614799 18.4791594,2.38661862 18.4791594,2.88806905 C18.4791594,3.36441487 17.0990125,3.56501279 16.0386932,3.43964677 C14.9791928,3.31436951 13.8942652,3.33939219 12.637133,3.7154766 C11.5874733,4.02942419 10.8625481,3.7154766 9.70382234,3.91607452 C9.14211355,4.01316116 7.78080883,3.91607452 7.10918824,2.78772571 C6.69589462,3.08866698 5.45104646,3.71856262 5.24193614,4.33286431 C4.94591131,4.89695679 5.1435297,5.45804517 5.53715545,6.00962289 C6.03408783,6.70383331 5.29113936,6.59881998 4.76138917,6.62392459 C4.03482611,6.65826677 3.06224695,6.54543599 2.55463486,5.9594956 C2.10522756,5.44028009 1.506613,5.02415257 1.02852956,5.40899662 C0.78251346,5.60708886 1.01846068,5.86782998 1.21305841,5.79484431 C1.40577661,5.72269843 1.63373586,5.86782998 1.8395436,5.9594956 C1.51069425,5.81570224 1.14906066,5.92726994 1.00801591,6.05549667 C0.813686686,6.23273782 1.04963391,6.57129162 1.28517838,6.45168798 C1.46970723,6.35785122 1.84856531,6.29529793 2.09456127,6.52466682 C1.8280718,6.47250494 1.5508422,6.48356544 1.41802707,6.62892913 C1.28518509,6.77431329 1.38782046,6.98599903 1.67471617,6.97298587 C2.13560199,6.95216208 2.25367629,7.28059757 2.7153609,7.21312168 C2.4316201,7.25074104 2.27092091,7.40112292 2.19708252,7.51397418 C2.62843298,7.31337626 3.10487856,7.85411196 3.66415067,7.72708003 C3.44599179,7.81841111 3.09418541,8.03652832 3.09747458,8.20350778 C3.42961309,7.81482669 5.66094887,8.50436029 5.71015209,7.65193006 C5.77190784,7.82742337 5.75915394,8.09065651 5.58717761,8.31635905 C5.87252943,8.14078381 6.79510657,8.07814859 7.07802173,7.40111609 C7.10285828,7.60171401 7.06593908,7.86503591 6.89349287,7.92767113 C7.1895177,8.02609595 7.57905549,7.80188863 7.97759485,7.20060009 C8.13587751,6.96205509 8.17360222,6.8034939 8.14655052,6.62416355 C8.54178729,6.63932054 8.82800503,6.53841735 9.13634745,6.27284921 C9.45700744,5.99710131 9.80223549,6.49855174 10.3442764,6.14748319 C10.8871228,5.79650339 11.3553992,6.09736955 11.6506118,5.92186258 C11.9466366,5.74636927 12.3533989,5.98447049 12.6740321,5.78398864 C12.9946921,5.58339071 13.4916244,5.88216084 14.0221936,5.45594231 C14.8570037,5.76697458 15.8312207,6.34332236 18.2208392,5.89675797 C19.5903198,5.64077561 20.0200257,6.10986382 20.0200257,6.74927696 C20.0200257,7.18800341 19.7674313,7.22620311 19.5763912,7.23821946 C18.8145603,7.28587521 18.4873622,6.94812705 18.1864036,7.05639025 C17.9846906,7.12945785 17.861649,7.46308904 18.153512,7.5777769 C17.9123961,7.7028903 17.9435424,7.93751634 18.0665841,8.02350834 C18.1895585,8.10950033 18.5069294,8.03135993 18.7226046,7.92967158 C18.4454421,8.05737259 18.1584122,8.28674148 18.3224005,8.52654274 C18.4216125,8.67209076 18.6725287,8.79544951 18.9070663,8.48489517 C19.1424094,8.17203314 19.5729544,7.91138078 19.8468411,7.95274843 L19.8469485,7.95278257 Z" id="body"></path>
                        <path d="M4.8501885,1.63567435 C4.70277562,0.856487469 4.86917587,0.759838762 5.39477511,1.04107264 C5.58045102,0.874351832 5.85918975,0.77720239 6.27496812,0.77720239 C6.58475352,0.777206603 6.81840204,0.83125226 6.99412147,0.927897926 C7.54663645,0.62332066 7.7236746,0.70487037 7.57367771,1.49771573 C7.55355772,1.60395051 7.52536791,1.72227133 7.49134701,1.84303771 C7.506965,1.99184925 7.51126175,2.15071644 7.51018978,2.31589882 C7.50534157,3.23846424 7.13055515,2.92174835 6.91721125,4.10597016 C6.83408289,4.56899644 6.5549281,4.59483137 6.27435571,4.59483137 C5.99310287,4.59483137 5.71462853,4.56895895 5.63080837,4.10597016 C5.41873466,2.92168836 5.04335284,3.23838175 5.03824946,2.31582383 C4.95653666,2.08705431 4.88875458,1.83930564 4.8501885,1.63567435 Z" id="head"></path>
                        <path d="M1.69972054,4.00472923 C2.131071,4.11749857 2.1482552,4.68075126 3.13480996,4.94399123 C2.9125564,4.88138333 2.78958191,5.00673569 2.57961238,4.8938776 C2.98632766,5.21983471 3.44230658,5.59725731 4.40421945,5.6084407 C4.94055467,5.61469603 4.56988595,5.89678528 4.21888508,5.7337999 C4.58297548,6.1161451 5.303806,5.80277784 5.75975807,6.49857222 C5.84588048,5.95950243 4.90936802,5.10698345 5.34069163,4.49277051 C4.01057356,4.43514665 3.90150754,3.68529235 3.13476297,3.0886738 C2.51069431,2.60356834 2.45493961,2.11046108 2.17940158,1.1872095 C2.05394344,0.769163452 1.57258425,0.508517923 1.30605451,0.607523078 C1.07319507,0.694102237 0.987878165,0.89953401 1.18798021,1.05325452 C1.38808225,1.20705695 1.64389871,1.22791488 1.69887475,1.61759278 C1.43889649,1.30089372 1.04943253,1.18620586 0.862426737,1.3842981 C0.748447111,1.50490537 0.794361165,1.7863269 1.03957175,1.81184798 C1.43897033,1.85356383 1.15194036,2.24974149 1.60624785,2.63734384 C1.20362723,2.17676265 0.855089886,2.13506046 0.639414657,2.38528044 C0.510667352,2.53516391 0.639414657,2.80232285 0.916577129,2.77371574 C1.31758672,2.73220472 1.78254707,3.76686014 2.38282635,4.02884386 C2.04988233,3.82823228 1.83501261,3.96704159 1.69972054,4.00472923 Z" id="leg"></path>
                        <path d="M12.6741529,8.31037406 C13.3523384,8.31037406 13.6967542,8.14760722 14.0173941,7.88484129 C13.8697844,7.97242993 13.8082972,8.19772602 13.795946,8.32277768 C14.1534581,8.00997474 15.0038817,7.98499712 15.4475229,8.07258576 C15.8911574,8.1601744 15.9649958,7.9474455 16.1248827,7.65962699 C16.285649,7.37180167 16.063127,7.2091166 15.8419474,6.9839023 C15.6196939,6.75860621 15.5704906,6.44580327 15.6196939,5.92019645 C14.4363665,4.31847336 12.3165401,5.09427891 12.2919385,5.79505619 C13.0562263,6.69599519 13.1546327,6.59591433 13.7959057,6.72105459 C14.4363531,6.84618804 14.8291666,6.84586091 14.3994339,7.2091166 C14.2518242,7.33425686 13.6351528,7.27549641 13.1546059,7.29670524 C12.0795189,7.34413887 11.5874934,6.54272188 11.2701293,6.95900646 C11.00854,7.30136682 11.2781844,7.4525615 11.8113647,7.4343309 C11.442307,7.43699496 10.9527719,7.41674775 11.0364174,7.76569839 C11.1774487,8.35367088 11.7310017,7.65638297 11.9466702,7.89832853 C11.7621413,7.85409804 11.4751785,7.96859981 11.4645055,8.14552177 C11.4544366,8.32252552 11.87451,8.55140639 12.3362147,8.17932505 C12.5888091,7.97534001 12.9110801,7.89899641 13.1054228,7.89733351 C12.8956009,7.93488513 12.9578937,8.28531466 12.6741529,8.31037406 Z" id="leg"></path>
                    </g>
                </g>
            </g>
        </g>
    </g>
</svg>