<?xml version="1.0" encoding="UTF-8" standalone="no"?>
<svg width="180px" height="180px" viewBox="0 0 180 180" version="1.1" xmlns="http://www.w3.org/2000/svg" xmlns:xlink="http://www.w3.org/1999/xlink">
    <!-- Generator: Sketch 3.8.3 (29802) - http://www.bohemiancoding.com/sketch -->
    <title>jordan</title>
    <desc>Created with Sketch.</desc>
    <defs></defs>
    <g id="Page-1" stroke="none" stroke-width="1" fill="none" fill-rule="evenodd">
        <g id="flags" transform="translate(-2070.000000, -2880.000000)">
            <g id="jordan" transform="translate(2070.000000, 2880.000000)">
                <path d="M174.873467,120 L60,120 L16.3938522,141.803074 C32.6842852,164.908013 59.5783535,180 89.9972382,180 C129.182603,180 162.51875,154.955772 174.873463,120 L174.873467,120 Z" id="green" fill="#1AAF5D"></path>
                <path d="M5.12100983,120 L174.873467,120 C178.189905,110.616633 179.994476,100.519063 179.994476,90 C179.994476,79.480937 178.189905,69.3833673 174.873463,59.9999996 L5.12100983,60 C1.80457108,69.3833673 0,79.480937 0,90 C0,100.519063 1.80457108,110.616633 5.12101363,120 L5.12100983,120 Z" id="white" fill="#FFFFFF"></path>
                <path d="M174.873467,60 L60,60 L16.3938522,38.1969261 C32.6842852,15.0919874 59.5783535,0 89.9972382,0 C129.182603,0 162.51875,25.0442275 174.873463,59.9999996 L174.873467,60 Z" id="black" fill="#000000"></path>
                <path d="M16.3938522,38.1969261 L120,90 L16.3938522,141.803074 C6.06590671,127.154811 0,109.285812 0,90 C0,70.7141882 6.06590671,52.8451892 16.3938522,38.1969261 L16.3938522,38.1969261 Z" id="red" fill="#E94B35"></path>
                <polygon id="star" fill="#FFFFFF" points="38.5 77 41.1702512 85.5158541 49.3261594 82.3476812 44.4999999 89.7986046 52 94.3638115 43.3116263 95.139107 44.5080653 104 38.5 97.5158541 32.4919347 104 33.6883737 95.139107 25 94.3638115 32.5000001 89.7986046 27.6738406 82.3476812 35.8297488 85.5158541 38.5 77 38.5 77 38.5 77"></polygon>
            </g>
        </g>
    </g>
</svg>