<?xml version="1.0" encoding="UTF-8" standalone="no"?>
<svg width="180px" height="180px" viewBox="0 0 180 180" version="1.1" xmlns="http://www.w3.org/2000/svg" xmlns:xlink="http://www.w3.org/1999/xlink">
    <!-- Generator: Sketch 3.8.3 (29802) - http://www.bohemiancoding.com/sketch -->
    <title>kenya</title>
    <desc>Created with Sketch.</desc>
    <defs></defs>
    <g id="Page-1" stroke="none" stroke-width="1" fill="none" fill-rule="evenodd">
        <g id="flags" transform="translate(-2610.000000, -2880.000000)">
            <g id="kenya" transform="translate(2610.000000, 2880.000000)">
                <path d="M174.873467,120 L5.12100983,120 C17.475726,154.955772 50.8118738,180 89.9972382,180 C129.182603,180 162.51875,154.955772 174.873463,120 L174.873467,120 L174.873467,120 Z" id="green" fill="#1AAF5D"></path>
                <path d="M5.12100983,120 L174.873467,120 C178.189905,110.616633 179.994476,100.519063 179.994476,90 C179.994476,79.480937 178.189905,69.3833673 174.873463,59.9999996 L5.12100983,60 C1.80457108,69.3833673 0,79.480937 0,90 C0,100.519063 1.80457108,110.616633 5.12101363,120 L5.12100983,120 L5.12100983,120 Z" id="white" fill="#FFFFFF"></path>
                <path d="M3.51755821,115 L176.47692,115 C178.767238,107.062753 179.994476,98.6746994 179.994476,90.0000004 C179.994476,81.3253012 178.767238,72.9372477 176.476918,65 L3.51755634,65 C1.22723784,72.9372475 0,81.3253011 0,90.0000004 C0,98.6746994 1.22723775,107.062753 3.51755821,115 L3.51755821,115 Z" id="red" fill="#E94B35"></path>
                <path d="M5.12100983,60 L174.873467,60 C162.51875,25.0442275 129.182603,0 89.9972382,0 C50.8118738,0 17.475726,25.0442275 5.12101363,59.9999996 L5.12100983,60 L5.12100983,60 Z" id="black" fill="#000000"></path>
                <g id="emblem" transform="translate(55.000000, 32.000000)">
                    <path d="M36.3094011,114.044428 L38.3094011,114.044428 L38.3094011,20.6188023 C40.3094011,18.6188023 40.3094011,15.6188023 40.3094011,12.6188023 C40.3094011,10.6188023 40.3094011,2.61880225 37.3094011,-6.0444279 C34.3094011,2.61880225 34.3094011,10.6188023 34.3094011,12.6188023 C34.3094011,15.6188023 34.3094011,18.6188023 36.3094011,20.6188023 C36.3094011,20.6188023 34.3094011,18.6188023 36.3094011,20.6188023 L36.3094011,114.044428 L36.3094011,114.044428 L36.3094011,114.044428 L36.3094011,114.044428 L36.3094011,114.044428 Z" id="spear" fill="#FFFFFF" transform="translate(37.309401, 54.000000) rotate(30.000000) translate(-37.309401, -54.000000) "></path>
                    <path d="M31.6905989,114.044428 L33.6905989,114.044428 L33.6905989,20.6188023 C35.6905989,18.6188023 35.6905989,15.6188023 35.6905989,12.6188023 C35.6905989,10.6188023 35.6905989,2.61880225 32.6905989,-6.0444279 C29.6905989,2.61880225 29.6905989,10.6188023 29.6905989,12.6188023 C29.6905989,15.6188023 29.6905989,18.6188023 31.6905989,20.6188023 C31.6905989,20.6188023 29.6905989,18.6188023 31.6905989,20.6188023 L31.6905989,114.044428 L31.6905989,114.044428 L31.6905989,114.044428 L31.6905989,114.044428 L31.6905989,114.044428 Z" id="spear" fill="#FFFFFF" transform="translate(32.690599, 54.000000) rotate(-30.000000) translate(-32.690599, -54.000000) "></path>
                    <path d="M16,82 C19,90 29,106 35,106 C41,106 51,90 54,82 L54,34 C51,26 41,10 35,10 C29,10 19,26 16,34 L16,82 L16,82 L16,82 L16,82 L16,82 Z" id="Shape" fill="#E94B35"></path>
                    <path d="M35,64 C37.2091391,64 39,61.3137087 39,58 C39,54.6862913 37.2091391,52 35,52 C32.7908609,52 31,54.6862913 31,58 C31,61.3137087 32.7908609,64 35,64 C35,64 32.7908609,64 35,64 L35,64 L35,64 L35,64 Z M36,63.85 C36,63.85 40,71.85 40,84.85 C40,97.85 36,105.85 36,105.85 L36,63.85 L36,63.85 L36,63.85 L36,63.85 L36,63.85 Z M34,63.85 C34,63.85 30,71.85 30,84.85 C30,97.85 34,105.85 34,105.85 L34,63.85 L34,63.85 L34,63.85 L34,63.85 L34,63.85 Z M34,10.15 C34,10.15 30,18.15 30,31.15 C30,44.15 34,52.15 34,52.15 L34,10.15 L34,10.15 L34,10.15 L34,10.15 L34,10.15 Z M36,10.15 C36,10.15 40,18.15 40,31.15 C40,44.15 36,52.15 36,52.15 L36,10.15 L36,10.15 L36,10.15 L36,10.15 L36,10.15 Z" id="Oval" fill="#FFFFFF"></path>
                    <path d="M54,82 C57,74 59,66 59,58 C59,50 57,42 54,34 C51,42 49,50 49,58 C49,66 51,74 54,82 C54,82 51,74 54,82 L54,82 L54,82 L54,82 Z M16,82 C19,74 21,66 21,58 C21,50 19,42 16,34 C13,42 11,50 11,58 C11,66 13,74 16,82 C16,82 13,74 16,82 L16,82 L16,82 L16,82 Z" id="deco_r" fill="#000000"></path>
                </g>
            </g>
        </g>
    </g>
</svg>