<?xml version="1.0" encoding="UTF-8" standalone="no"?>
<svg width="180px" height="180px" viewBox="0 0 180 180" version="1.1" xmlns="http://www.w3.org/2000/svg" xmlns:xlink="http://www.w3.org/1999/xlink">
    <!-- Generator: Sketch 3.8.3 (29802) - http://www.bohemiancoding.com/sketch -->
    <title>kiribati</title>
    <desc>Created with Sketch.</desc>
    <defs></defs>
    <g id="Page-1" stroke="none" stroke-width="1" fill="none" fill-rule="evenodd">
        <g id="flags" transform="translate(-180.000000, -3150.000000)">
            <g id="kiribati" transform="translate(180.000000, 3150.000000)">
                <path d="M0.549287698,100 L179.450712,100 C179.813667,96.7166615 180,93.380091 180,90 C180,40.2943701 139.70563,0 90,0 C40.2943701,0 0,40.2943701 0,90 C0,93.380091 0.186333089,96.7166615 0.549287698,100 L0.549287698,100 Z" id="red" fill="#E94B35"></path>
                <g id="sun" transform="translate(57.000000, 60.000000)" stroke-width="0.1" stroke="#BD9C08" fill="#FCD116">
                    <path d="M51.556156,27.8023714 C55.059412,28.7370779 60.361316,28.5046151 62.741428,31.2711466 C59.238176,30.3364401 54.921056,35.9751456 51.556156,34.7399179 C54.52708,36.8113951 8.338828,34.7399179 12.043748,34.7399179 C8.540492,33.8052114 3.238584,34.0376781 0.858472,31.2711466 C4.361724,32.2058492 8.678844,26.5671476 12.043748,27.8023714 C9.07282,25.7308942 3.91862,24.1270709 2.72448,20.7333881 C5.695412,22.8048255 11.738992,18.961759 14.426652,21.2831686 C12.346396,18.3248293 7.998812,15.0780972 8.097416,11.4666092 C10.177672,14.4249486 17.179252,12.8410565 18.905004,15.9686835 C17.96632,12.4802758 15.139152,7.98226304 16.329212,4.58858503 C17.267896,8.07699871 24.319592,8.94327244 24.938692,12.4998764 C25.254808,8.90217293 23.979576,3.69538986 26.427012,0.928854746 C26.110936,4.52659442 32.479984,7.73859075 31.799952,11.2951895 C33.332712,8.02207921 34.180068,2.73458001 37.172888,0.928854746 C35.640128,4.20196542 40.640372,9.372251 38.661208,12.4998764 C41.22578,9.94620584 43.70052,5.21569567 47.270692,4.58858503 C44.70612,7.14229139 47.440696,13.6472738 44.694896,15.9686835 C47.981932,14.4423864 51.860912,10.8395022 55.502484,11.4666092 C52.21548,12.9929103 52.54094,20.0479768 49.173252,21.2831686 C52.7863,20.9683961 57.641184,18.9276322 60.87542,20.7333881 C57.262408,21.0481288 55.261072,27.8023714 51.556156,27.8023714 L51.556156,27.8023714 L51.556156,27.8023714 Z"></path>
                    <polygon points="15.14364 31.2719233 2.508948 26.1291355 16.148096 25.5995132 6.041792 16.4638683 19.040312 20.6112758 12.68136 8.58466961 23.471436 16.9088707 21.626828 3.44188221 28.90702 14.9388617 31.799236 1.6558137 34.691448 14.9388617 41.971644 3.44188221 40.127032 16.9088707 50.917112 8.58466961 44.558164 20.6112758 57.556676 16.4638683 47.450372 25.5995132 61.08952 26.1291355 48.454828 31.2719233 61.08952 36.4147071 2.508948 36.4147071 15.14364 31.2719233"></polygon>
                    <path d="M48.342992,31.2711825 C48.342992,40.3689286 40.936428,47.7441089 31.799964,47.7441089 C22.663504,47.7441089 15.25694,40.3689286 15.25694,31.2711825 C15.25694,22.1734323 22.663504,14.798252 31.799964,14.798252 C40.936428,14.798252 48.342992,22.1734323 48.342992,31.2711825 L48.342992,31.2711825 L48.342992,31.2711825 Z"></path>
                </g>
                <path d="M94.9824358,43.6557212 L107.20826,43.9074096 C104.819381,44.3487156 102.572283,45.1321546 100.441106,45.9706649 C101.788766,45.7825963 102.968554,45.5846877 104.365579,45.8040827 C105.062765,45.9135716 105.881456,46.6612117 105.824726,47.0366492 L97.9387714,46.9844928 L97.9387714,46.9844928 C94.8278865,48.2587169 91.9619006,49.3944612 89.2494658,49.3776564 C85.3868559,49.3537251 81.3438491,47.5228855 79.2585043,44.8881053 L74.7704255,44.8487105 C73.8577343,44.7973635 72.7316244,43.3943294 73.3484765,43.0584156 L77.7057412,42.9267171 C79.2316568,41.6743927 81.4689853,41.4180484 84.4177268,43.4382296 L87.4161974,43.499958 L87.4192904,43.487792 C87.4748745,43.4442335 87.5299428,43.4004321 87.5845226,43.3564017 L86.1414771,43.3418264 C82.8026119,40.8204096 78.5882535,39.8576848 74.2597262,39.1970298 C70.1728705,38.5732606 64.2891857,37.1937099 61.4799351,34.4305121 C67.9734488,36.2956701 77.7498905,36.8727217 81.996682,37.4354908 C85.1849919,37.8579951 87.9072539,39.1487517 89.1154111,41.9678225 C92.2210465,38.8782543 94.4166066,35.4007039 103.334598,35.3652122 C109.447951,35.3408829 115.456615,34.3679876 121.517626,33.5098015 C116.736603,36.2109112 106.713881,39.7078068 98.4280628,40.1892817 C97.6702934,40.2339562 96.3943321,41.9950293 94.9824357,43.6557214 L94.9824358,43.6557212 Z" id="bird" fill="#F2C500"></path>
                <path d="M179.450712,100 L0.549287698,100 C5.5237301,144.999507 43.674461,180 90,180 C136.325539,180 174.47627,144.999507 179.450712,100 L179.450712,100 Z" id="blue" fill="#227FBB"></path>
                <path d="M31.3378753,158.257143 C31.4762052,158.260179 31.6145351,158.261719 31.752865,158.261719 C41.3773809,158.261719 51.0018871,150.807276 60.6263982,150.807276 C70.250914,150.807276 79.8754202,158.261719 89.4999313,158.261719 C99.1244423,158.261719 108.748949,150.807276 118.373464,150.807276 C127.997975,150.807276 137.622482,158.261719 147.246998,158.261719 C147.73877,158.261719 148.230542,158.242257 148.722314,158.205322 C154.50888,153.218784 159.65397,147.508387 164.016987,141.214725 C158.42699,143.322982 152.836995,145.837652 147.246998,145.837652 C137.622482,145.837652 127.997975,138.383209 118.373464,138.383209 C108.748949,138.383209 99.1244423,145.837652 89.4999313,145.837652 C79.8754202,145.837652 70.250914,138.383209 60.6263982,138.383209 C51.0018871,138.383209 41.3773809,145.837652 31.752865,145.837652 C26.6175286,145.837652 21.4821936,143.715406 16.3468585,141.735642 C20.646424,147.845439 25.6869758,153.396151 31.3378753,158.257143 L31.3378753,158.257143 L31.3378753,158.257143 Z M1.16195082,104.500047 C1.73441276,104.45044 2.30687474,104.424067 2.87933674,104.424067 C12.5038478,104.424067 22.128354,111.87851 31.752865,111.87851 C41.3773809,111.87851 51.0018871,104.424067 60.6263982,104.424067 C70.250914,104.424067 79.8754202,111.87851 89.4999313,111.87851 C99.1244423,111.87851 108.748949,104.424067 118.373464,104.424067 C127.997975,104.424067 137.622482,111.87851 147.246998,111.87851 C156.871509,111.87851 166.496015,104.424067 176.120531,104.424067 C177.02055,104.424067 177.920569,104.489254 178.820589,104.607437 C179.473331,100.608106 179.862475,96.5201989 179.969604,92.3621352 C178.68658,92.1324732 177.403555,92 176.120531,92 C166.496015,92 156.871509,99.4544426 147.246998,99.4544426 C137.622482,99.4544426 127.997975,92 118.373464,92 C108.748949,92 99.1244423,99.4544426 89.4999313,99.4544426 C79.8754202,99.4544426 70.250914,92 60.6263982,92 C51.0018871,92 41.3773809,99.4544426 31.752865,99.4544426 C22.128354,99.4544426 12.5038478,92 2.87933674,92 C1.92837686,92 0.97741706,92.0727749 0.0264573317,92.2039436 C0.126807786,96.3793312 0.511513504,100.484225 1.16195082,104.500047 L1.16195082,104.500047 L1.16195082,104.500047 Z M8.56512929,128.369024 C16.2943748,130.262472 24.0236184,135.070114 31.752865,135.070114 C41.3773809,135.070114 51.0018871,127.615672 60.6263982,127.615672 C70.250914,127.615672 79.8754202,135.070114 89.4999313,135.070114 C99.1244423,135.070114 108.748949,127.615672 118.373464,127.615672 C127.997975,127.615672 137.622482,135.070114 147.246998,135.070114 C155.34925,135.070114 163.451499,129.787251 171.553754,128.116125 C173.494279,123.971285 175.128126,119.654205 176.426088,115.194091 C176.324236,115.192439 176.222383,115.191604 176.120531,115.191604 C166.496015,115.191604 156.871509,122.646047 147.246998,122.646047 C137.622482,122.646047 127.997975,115.191604 118.373464,115.191604 C108.748949,115.191604 99.1244423,122.646047 89.4999313,122.646047 C79.8754202,122.646047 70.250914,115.191604 60.6263982,115.191604 C51.0018871,115.191604 41.3773809,122.646047 31.752865,122.646047 C22.3608839,122.646047 12.9689073,115.547454 3.57692629,115.204448 C4.9008347,119.751672 6.57388831,124.150183 8.56512929,128.369024 L8.56512929,128.369024 L8.56512929,128.369024 Z" id="wave" fill="#FFFFFF"></path>
            </g>
        </g>
    </g>
</svg>