<?xml version="1.0" encoding="UTF-8" standalone="no"?>
<svg width="180px" height="180px" viewBox="0 0 180 180" version="1.1" xmlns="http://www.w3.org/2000/svg" xmlns:xlink="http://www.w3.org/1999/xlink">
    <!-- Generator: Sketch 3.8.3 (29802) - http://www.bohemiancoding.com/sketch -->
    <title>kosovo</title>
    <desc>Created with Sketch.</desc>
    <defs></defs>
    <g id="Page-1" stroke="none" stroke-width="1" fill="none" fill-rule="evenodd">
        <g id="flags" transform="translate(-450.000000, -3150.000000)">
            <g id="kosovo" transform="translate(450.000000, 3150.000000)">
                <circle id="blue" fill="#227FBB" cx="90" cy="90" r="90"></circle>
                <path d="M60.4785156,111.011719 C57.4377441,106.716065 55.8364258,107.886231 55.3105469,105.362793 C54.784668,102.839356 56.8432617,100.745362 56.8432617,100.745362 C56.8432617,100.745362 52.0067318,99.5849603 51.4682617,98.013184 C50.9297916,96.4414076 52.8554661,94.4988856 54.4902344,93.8769531 C56.1250026,93.2550206 57.271001,95.2253934 58.6030273,95.2988281 C62.5476106,95.5162934 61.7670896,90.7106937 68.3139646,90.7106937 C74.8608396,90.7106937 73.061762,88.3843148 74.9672852,88.4116211 C76.0243789,88.4267693 72.2096165,85.9948646 73.1660154,84.4345707 C74.2757064,82.6241919 79.4406736,82.2717293 81.5390622,78.3928226 C83.6374509,74.5139159 77.1546668,73.1045517 78.1923825,70.8386231 C79.5903186,67.786127 86.6621091,66.8518067 88.8134763,68.7207032 C90.9648435,70.5895996 85.1225583,71.6572265 90.781738,74.0703125 C96.4409177,76.4833984 97.3856482,74.5111468 99.4580075,75.6210939 C101.961426,76.9619142 103.49133,84.0043081 106.219726,86.7143547 C108.521151,89.0003017 112.609365,88.070944 113.534668,90.0000004 C114.912509,92.8725003 111.514648,95.298828 111.514648,95.298828 C111.514648,95.298828 120.088871,96.4125969 121.587406,98.7468254 C123.085941,101.081054 126.756351,98.7468254 126.756351,98.7468254 C126.756351,98.7468254 130.987552,101.064941 128.451664,102.2229 C127.187576,102.800118 127.389911,104.297345 126.360599,106.328147 C125.325006,108.371342 123.057178,110.952026 121.587402,112.812989 C120.951704,113.61788 122.235605,115.065508 121.587402,115.740235 C120.83065,116.527953 118.140712,116.535535 117.38623,117.412598 C116.608646,118.316518 120.848093,121.930162 120.10498,122.793946 C119.05236,124.017498 113.042111,122.464445 112.131731,123.54439 C109.672049,126.462208 107.272217,127.866455 108.29126,129.612549 C109.310303,131.358643 106.415575,133.029792 104.63208,131.383789 C102.894236,129.779918 104.375977,125.913819 101.128174,125.913819 C98.9599381,125.913819 95.7592094,128.257925 92.3803711,130.140381 C90.1228786,131.398101 86.3581141,132.07775 85.1225586,133.352536 C83.0061012,135.536193 85.6595059,139.298036 85.1225586,141.415524 C84.5119894,143.823344 79.5441895,146.480465 77.7163086,143.727047 C75.8884277,140.973629 80.8874512,139.854733 77.7163086,135.509769 C74.545166,131.164806 77.9365234,129.289215 73.1660156,123.544388 C68.3955078,117.799561 64.9099121,120.552979 63.2189941,118.779053 C61.5280762,117.005127 63.5192871,115.307373 60.4785156,111.011719 Z" id="yellow" fill="#F2C500"></path>
                <path d="M39.9999991,59.9692213 L34.4376943,63.9999999 L36.36472,57.1921149 L31,52.8753882 L37.7532738,52.6986616 L39.9999994,46 L42.2467263,52.6986627 L49,52.875393 L43.6352783,57.192116 L45.562304,64 L39.9999991,59.9692213 L39.9999991,59.9692213 Z M59.9999991,51.9692213 L54.4376943,55.9999999 L56.36472,49.1921149 L51,44.8753882 L57.7532738,44.6986616 L59.9999994,38 L62.2467263,44.6986627 L69,44.875393 L63.6352783,49.192116 L65.562304,56 L59.9999991,51.9692213 L59.9999991,51.9692213 Z M79.9999991,46.9692213 L74.4376943,50.9999999 L76.36472,44.1921149 L71,39.8753882 L77.7532738,39.6986616 L79.9999994,33 L82.2467263,39.6986627 L89,39.875393 L83.6352783,44.192116 L85.562304,51 L79.9999991,46.9692213 L79.9999991,46.9692213 Z M99.9999991,46.9692213 L94.4376943,50.9999999 L96.36472,44.1921149 L91,39.8753882 L97.7532738,39.6986616 L99.9999994,33 L102.246726,39.6986627 L109,39.875393 L103.635278,44.192116 L105.562304,51 L99.9999991,46.9692213 L99.9999991,46.9692213 Z M119.999999,51.9692213 L114.437694,55.9999999 L116.36472,49.1921149 L111,44.8753882 L117.753274,44.6986616 L119.999999,38 L122.246726,44.6986627 L129,44.875393 L123.635278,49.192116 L125.562304,56 L119.999999,51.9692213 L119.999999,51.9692213 Z M139.999999,59.9692213 L134.437694,63.9999999 L136.36472,57.1921149 L131,52.8753882 L137.753274,52.6986616 L139.999999,46 L142.246726,52.6986627 L149,52.875393 L143.635278,57.192116 L145.562304,64 L139.999999,59.9692213 L139.999999,59.9692213 Z" id="stars" fill="#FFFFFF"></path>
            </g>
        </g>
    </g>
</svg>