<?xml version="1.0" encoding="UTF-8" standalone="no"?>
<svg width="180px" height="180px" viewBox="0 0 180 180" version="1.1" xmlns="http://www.w3.org/2000/svg" xmlns:xlink="http://www.w3.org/1999/xlink">
    <!-- Generator: Sketch 3.8.3 (29802) - http://www.bohemiancoding.com/sketch -->
    <title>kyrgyzstan</title>
    <desc>Created with Sketch.</desc>
    <defs></defs>
    <g id="Page-1" stroke="none" stroke-width="1" fill="none" fill-rule="evenodd">
        <g id="flags" transform="translate(-990.000000, -3150.000000)">
            <g id="kyrgyzstan" transform="translate(990.000000, 3150.000000)">
                <circle id="red" fill="#E94B35" cx="90" cy="90" r="90"></circle>
                <path d="M90.1296744,41.3565179 C91.4889278,47.4971232 86.958083,54.1494457 88.2267196,59.7783339 C89.4953561,65.407222 93.9355839,65.407222 92.0326291,59.7783339 C90.1296744,54.1494457 94.2074346,45.4502548 90.1296744,41.3565179 C90.1296744,41.3565179 94.2074346,45.4502548 90.1296744,41.3565179 L90.1296744,41.3565179 L90.1296744,41.3565179 L90.1296744,41.3565179 Z M97.8372223,41.9441754 C98.2191387,48.2218138 92.7034237,54.0834548 93.0758891,59.8415005 C93.4483545,65.5995462 97.8339157,66.2941509 96.8349416,60.436876 C95.8359674,54.579601 101.224377,46.6254139 97.8372223,41.9441754 C97.8372223,41.9441754 101.224377,46.6254139 97.8372223,41.9441754 L97.8372223,41.9441754 L97.8372223,41.9441754 L97.8372223,41.9441754 Z M105.357948,43.730324 C104.753123,49.9904191 98.3883529,54.9170457 97.8554758,60.6624667 C97.3225987,66.4078878 101.545506,67.7799936 101.475111,61.8385575 C101.404715,55.8971213 107.971094,48.8837964 105.357948,43.730324 C105.357948,43.730324 107.971094,48.8837964 105.357948,43.730324 L105.357948,43.730324 L105.357948,43.730324 L105.357948,43.730324 Z M112.506665,46.6709828 C110.929992,52.7593904 103.872889,56.6296926 102.447791,62.2210176 C101.022692,67.8123426 104.978964,69.8281639 105.838881,63.9488644 C106.698797,58.0695649 114.281458,52.1697935 112.506665,46.6709828 C112.506665,46.6709828 114.281458,52.1697935 112.506665,46.6709828 L112.506665,46.6709828 L112.506665,46.6709828 L112.506665,46.6709828 Z M119.10735,50.693743 C116.597651,56.4605462 109.021984,59.1792244 106.739755,64.4787764 C104.457526,69.7783285 108.049746,72.3882289 109.818801,66.7158339 C111.587855,61.043439 120.000089,56.4024931 119.10735,50.693743 C119.10735,50.693743 120.000089,56.4024931 119.10735,50.693743 L119.10735,50.693743 L119.10735,50.693743 L119.10735,50.693743 Z M124.99747,55.6995509 C121.616544,61.0027519 113.708851,62.5028631 110.625687,67.3801496 C107.542524,72.2574362 110.682239,75.3971514 113.316872,70.0713341 C115.951504,64.7455169 124.986173,61.477672 124.99747,55.6995509 C124.99747,55.6995509 124.986173,61.477672 124.99747,55.6995509 L124.99747,55.6995509 L124.99747,55.6995509 L124.99747,55.6995509 Z M130.031993,61.5651469 C125.863088,66.2741633 117.818083,66.5187699 114.009902,70.8536959 C110.201722,75.1886219 112.811622,78.7808416 116.24696,73.9327414 C119.682297,69.0846412 129.116938,67.2703624 130.031993,61.5651469 C130.031993,61.5651469 129.116938,67.2703624 130.031993,61.5651469 L130.031993,61.5651469 L130.031993,61.5651469 L130.031993,61.5651469 Z M134.086951,68.1461006 C129.23272,72.1449807 121.248497,71.1280597 116.80907,74.8138849 C112.369643,78.49971 114.385464,82.455982 118.536916,78.2049751 C122.688369,73.9539682 132.290669,73.6379292 134.086951,68.1461006 C134.086951,68.1461006 132.290669,73.6379292 134.086951,68.1461006 L134.086951,68.1461006 L134.086951,68.1461006 L134.086951,68.1461006 Z M137.062498,75.280367 C131.642468,78.4706452 123.915625,76.2172365 118.954265,79.1632036 C113.992904,82.1091707 115.36501,86.3320784 120.130355,82.7828387 C124.895701,79.233599 134.42922,80.4235817 137.062498,75.280367 C137.062498,75.280367 134.42922,80.4235817 137.062498,75.280367 L137.062498,75.280367 L137.062498,75.280367 L137.062498,75.280367 Z M138.885366,82.7922768 C133.032996,85.0953978 125.753794,81.6609878 120.392665,83.7945574 C115.031537,85.9281271 115.726141,90.3136883 120.988041,87.5536099 C126.24994,84.7935316 135.479932,87.4602346 138.885366,82.7922768 C138.885366,82.7922768 135.479932,87.4602346 138.885366,82.7922768 L138.885366,82.7922768 L138.885366,82.7922768 L138.885366,82.7922768 Z M139.51067,90.4968619 C133.370064,91.8561153 126.717742,87.3252705 121.088854,88.5939071 C115.459965,89.8625436 115.459965,94.3027714 121.088854,92.3998166 C126.717742,90.4968619 135.416933,94.5746221 139.51067,90.4968619 C139.51067,90.4968619 135.416933,94.5746221 139.51067,90.4968619 L139.51067,90.4968619 L139.51067,90.4968619 L139.51067,90.4968619 Z M138.923012,98.2044098 C132.645374,98.5863262 126.783733,93.0706112 121.025687,93.4430766 C115.267641,93.815542 114.573037,98.2011032 120.430312,97.2021291 C126.287587,96.2031549 134.241774,101.591564 138.923012,98.2044098 C138.923012,98.2044098 134.241774,101.591564 138.923012,98.2044098 L138.923012,98.2044098 L138.923012,98.2044098 L138.923012,98.2044098 Z M137.136863,105.725135 C130.876768,105.12031 125.950142,98.7555404 120.204721,98.2226633 C114.4593,97.6897862 113.087194,101.912694 119.02863,101.842298 C124.970066,101.771903 131.983391,108.338281 137.136863,105.725135 C137.136863,105.725135 131.983391,108.338281 137.136863,105.725135 L137.136863,105.725135 L137.136863,105.725135 L137.136863,105.725135 Z M134.196205,112.873853 C128.107797,111.29718 124.237495,104.240076 118.64617,102.814978 C113.054845,101.38988 111.039024,105.346152 116.918323,106.206068 C122.797623,107.065985 128.697394,114.648646 134.196205,112.873853 C134.196205,112.873853 128.697394,114.648646 134.196205,112.873853 L134.196205,112.873853 L134.196205,112.873853 L134.196205,112.873853 Z M130.173444,119.474537 C124.406641,116.964839 121.687963,109.389172 116.388411,107.106943 C111.088859,104.824714 108.478959,108.416933 114.151354,110.185988 C119.823749,111.955043 124.464694,120.367276 130.173444,119.474537 C130.173444,119.474537 124.464694,120.367276 130.173444,119.474537 L130.173444,119.474537 L130.173444,119.474537 L130.173444,119.474537 Z M125.167637,125.364658 C119.864436,121.983732 118.364324,114.076038 113.487038,110.992875 C108.609751,107.909711 105.470036,111.049426 110.795853,113.684059 C116.121671,116.318692 119.389516,125.353361 125.167637,125.364658 C125.167637,125.364658 119.389516,125.353361 125.167637,125.364658 L125.167637,125.364658 L125.167637,125.364658 L125.167637,125.364658 Z M119.302041,130.399181 C114.593024,126.230276 114.348418,118.18527 110.013492,114.37709 C105.678566,110.568909 102.086346,113.17881 106.934446,116.614147 C111.782546,120.049485 113.596825,129.484125 119.302041,130.399181 C119.302041,130.399181 113.596825,129.484125 119.302041,130.399181 L119.302041,130.399181 L119.302041,130.399181 L119.302041,130.399181 Z M112.721087,134.454139 C108.722207,129.599908 109.739128,121.615684 106.053303,117.176257 C102.367477,112.73683 98.4112055,114.752651 102.662212,118.904104 C106.913219,123.055557 107.229258,132.657857 112.721087,134.454139 C112.721087,134.454139 107.229258,132.657857 112.721087,134.454139 L112.721087,134.454139 L112.721087,134.454139 L112.721087,134.454139 Z M105.586821,137.429686 C102.396542,132.009655 104.649951,124.282813 101.703984,119.321452 C98.7580168,114.360092 94.5351091,115.732197 98.0843488,120.497543 C101.633588,125.262888 100.443606,134.796408 105.586821,137.429686 C105.586821,137.429686 100.443606,134.796408 105.586821,137.429686 L105.586821,137.429686 L105.586821,137.429686 L105.586821,137.429686 Z M98.0749107,139.252553 C95.7717897,133.400183 99.2061997,126.120982 97.0726301,120.759853 C94.9390604,115.398724 90.5534992,116.093329 93.3135776,121.355228 C96.0736559,126.617128 93.4069529,135.847119 98.0749107,139.252553 C98.0749107,139.252553 93.4069529,135.847119 98.0749107,139.252553 L98.0749107,139.252553 L98.0749107,139.252553 L98.0749107,139.252553 Z M90.3703256,139.877857 C89.0110722,133.737252 93.541917,127.084929 92.2732804,121.456041 C91.0046439,115.827153 86.5644161,115.827153 88.4673709,121.456041 C90.3703256,127.084929 86.2925654,135.78412 90.3703256,139.877857 C90.3703256,139.877857 86.2925654,135.78412 90.3703256,139.877857 L90.3703256,139.877857 L90.3703256,139.877857 L90.3703256,139.877857 Z M82.6627777,139.2902 C82.2808613,133.012561 87.7965763,127.15092 87.4241109,121.392874 C87.0516455,115.634829 82.6660843,114.940224 83.6650584,120.797499 C84.6640326,126.654774 79.275623,134.608961 82.6627777,139.2902 C82.6627777,139.2902 79.275623,134.608961 82.6627777,139.2902 L82.6627777,139.2902 L82.6627777,139.2902 L82.6627777,139.2902 Z M75.1420524,137.504051 C75.746877,131.243956 82.1116471,126.317329 82.6445242,120.571908 C83.1774013,114.826487 78.9544936,113.454381 79.0248891,119.395818 C79.0952845,125.337254 72.5289062,132.350579 75.1420524,137.504051 C75.1420524,137.504051 72.5289062,132.350579 75.1420524,137.504051 L75.1420524,137.504051 L75.1420524,137.504051 L75.1420524,137.504051 Z M67.9933349,134.563392 C69.5700078,128.474985 76.6271111,124.604682 78.0522095,119.013357 C79.4773078,113.422032 75.5210359,111.406211 74.6611192,117.285511 C73.8012026,123.16481 66.2185416,129.064581 67.9933349,134.563392 C67.9933349,134.563392 66.2185416,129.064581 67.9933349,134.563392 L67.9933349,134.563392 L67.9933349,134.563392 L67.9933349,134.563392 Z M61.3926504,130.540632 C63.9023485,124.773829 71.4780159,122.055151 73.7602449,116.755599 C76.0424738,111.456047 72.4502541,108.846146 70.6811994,114.518541 C68.9121447,120.190936 60.4999112,124.831882 61.3926504,130.540632 C61.3926504,130.540632 60.4999112,124.831882 61.3926504,130.540632 L61.3926504,130.540632 L61.3926504,130.540632 L61.3926504,130.540632 Z M55.5025296,125.534824 C58.8834559,120.231623 66.7911492,118.731512 69.8743128,113.854225 C72.9574763,108.976939 69.8177611,105.837224 67.1831283,111.163041 C64.5484955,116.488858 55.5138268,119.756703 55.5025296,125.534824 C55.5025296,125.534824 55.5138268,119.756703 55.5025296,125.534824 L55.5025296,125.534824 L55.5025296,125.534824 L55.5025296,125.534824 Z M50.4680068,119.669228 C54.6369117,114.960212 62.6819173,114.715605 66.4900977,110.380679 C70.2982781,106.045753 67.6883776,102.453533 64.2530402,107.301634 C60.8177027,112.149734 51.3830622,113.964013 50.4680068,119.669228 C50.4680068,119.669228 51.3830622,113.964013 50.4680068,119.669228 L50.4680068,119.669228 L50.4680068,119.669228 L50.4680068,119.669228 Z M46.4130487,113.088274 C51.26728,109.089394 59.2515031,110.106315 63.6909303,106.42049 C68.1303575,102.734665 66.1145362,98.778393 61.9630835,103.0294 C57.8116308,107.280407 48.2093306,107.596446 46.4130487,113.088274 C46.4130487,113.088274 48.2093306,107.596446 46.4130487,113.088274 L46.4130487,113.088274 L46.4130487,113.088274 L46.4130487,113.088274 Z M43.4375019,105.954008 C48.8575322,102.76373 56.5843748,105.017139 61.5457353,102.071171 C66.5070959,99.1252043 65.13499,94.9022966 60.3696446,98.4515363 C55.6042992,102.000776 46.0707798,100.810793 43.4375019,105.954008 C43.4375019,105.954008 46.0707798,100.810793 43.4375019,105.954008 L43.4375019,105.954008 L43.4375019,105.954008 L43.4375019,105.954008 Z M41.6146341,98.4420982 C47.4670043,96.1389772 54.7462058,99.5733872 60.1073346,97.4398176 C65.4684634,95.3062479 64.7738587,90.9206867 59.5119592,93.6807651 C54.2500597,96.4408434 45.020068,93.7741404 41.6146341,98.4420982 C41.6146341,98.4420982 45.020068,93.7741404 41.6146341,98.4420982 L41.6146341,98.4420982 L41.6146341,98.4420982 L41.6146341,98.4420982 Z M40.9893304,90.7375131 C47.1299357,89.3782597 53.7822582,93.9091045 59.4111464,92.6404679 C65.0400345,91.3718314 65.0400345,86.9316036 59.4111464,88.8345584 C53.7822582,90.7375131 45.0830673,86.6597529 40.9893304,90.7375131 C40.9893304,90.7375131 45.0830673,86.6597529 40.9893304,90.7375131 L40.9893304,90.7375131 L40.9893304,90.7375131 L40.9893304,90.7375131 Z M41.5769879,83.0299652 C47.8546263,82.6480488 53.7162673,88.1637638 59.474313,87.7912984 C65.2323587,87.418833 65.9269634,83.0332718 60.0696885,84.0322459 C54.2124135,85.0312201 46.2582264,79.6428105 41.5769879,83.0299652 C41.5769879,83.0299652 46.2582264,79.6428105 41.5769879,83.0299652 L41.5769879,83.0299652 L41.5769879,83.0299652 L41.5769879,83.0299652 Z M43.3631365,75.5092399 C49.6232316,76.1140645 54.5498582,82.4788346 60.2952792,83.0117117 C66.0407003,83.5445888 67.4128061,79.3216811 61.47137,79.3920766 C55.5299338,79.462472 48.5166089,72.8960937 43.3631365,75.5092399 C43.3631365,75.5092399 48.5166089,72.8960937 43.3631365,75.5092399 L43.3631365,75.5092399 L43.3631365,75.5092399 L43.3631365,75.5092399 Z M46.3037953,68.3605224 C52.3922029,69.9371953 56.2625051,76.9942986 61.8538301,78.419397 C67.4451551,79.8444953 69.4609764,75.8882234 63.5816769,75.0283067 C57.7023774,74.1683901 51.802606,66.5857291 46.3037953,68.3605224 C46.3037953,68.3605224 51.802606,66.5857291 46.3037953,68.3605224 L46.3037953,68.3605224 L46.3037953,68.3605224 L46.3037953,68.3605224 Z M50.3265555,61.7598379 C56.0933587,64.269536 58.8120369,71.8452034 64.1115889,74.1274324 C69.411141,76.4096613 72.0210414,72.8174416 66.3486464,71.0483869 C60.6762515,69.2793322 56.0353056,60.8670987 50.3265555,61.7598379 C50.3265555,61.7598379 56.0353056,60.8670987 50.3265555,61.7598379 L50.3265555,61.7598379 L50.3265555,61.7598379 L50.3265555,61.7598379 Z M55.3323634,55.8697171 C60.6355644,59.2506434 62.1356756,67.1583367 67.0129621,70.2415003 C71.8902487,73.3246638 75.0299639,70.1849486 69.7041466,67.5503158 C64.3783294,64.915683 61.1104845,55.8810143 55.3323634,55.8697171 C55.3323634,55.8697171 61.1104845,55.8810143 55.3323634,55.8697171 L55.3323634,55.8697171 L55.3323634,55.8697171 L55.3323634,55.8697171 Z M61.1979594,50.8351943 C65.9069758,55.0040992 66.1515824,63.0491048 70.4865084,66.8572852 C74.8214344,70.6654656 78.4136541,68.0555651 73.5655539,64.6202277 C68.7174537,61.1848902 66.9031749,51.7502497 61.1979594,50.8351943 C61.1979594,50.8351943 66.9031749,51.7502497 61.1979594,50.8351943 L61.1979594,50.8351943 L61.1979594,50.8351943 L61.1979594,50.8351943 Z M67.7789131,46.7802362 C71.7777932,51.6344675 70.7608722,59.6186906 74.4466974,64.0581178 C78.1325225,68.497545 82.0887945,66.4817237 77.8377876,62.330271 C73.5867807,58.1788183 73.2707417,48.5765181 67.7789131,46.7802362 C67.7789131,46.7802362 73.2707417,48.5765181 67.7789131,46.7802362 L67.7789131,46.7802362 L67.7789131,46.7802362 L67.7789131,46.7802362 Z M74.9131795,43.8046894 C78.1034577,49.2247197 75.850049,56.9515623 78.7960161,61.9129228 C81.7419832,66.8742834 85.9648909,65.5021775 82.4156512,60.7368321 C78.8664115,55.9714867 80.0563942,46.4379673 74.9131795,43.8046894 C74.9131795,43.8046894 80.0563942,46.4379673 74.9131795,43.8046894 L74.9131795,43.8046894 L74.9131795,43.8046894 L74.9131795,43.8046894 Z M82.4250893,41.9818216 C84.7282103,47.8341918 81.2938003,55.1133933 83.4273699,60.4745221 C85.5609396,65.8356509 89.9465008,65.1410462 87.1864224,59.8791467 C84.4263441,54.6172472 87.0930471,45.3872555 82.4250893,41.9818216 C82.4250893,41.9818216 87.0930471,45.3872555 82.4250893,41.9818216 L82.4250893,41.9818216 L82.4250893,41.9818216 L82.4250893,41.9818216 Z" id="ray" fill="#F2C500"></path>
                <circle id="circle" fill="#E94B35" cx="91" cy="91" r="28"></circle>
                <circle id="circle" fill="#F2C500" cx="90.5" cy="87.5" r="22.5"></circle>
                <path d="M75.0187373,103.827362 C75.5637092,86.7979183 87.9358913,72.754936 104.190598,69.643101 C104.334911,69.7539096 104.477842,69.8664282 104.619361,69.9806266 C88.7790236,73.7574715 77,88.0031658 77,105 C77,105.168354 77.0011556,105.336439 77.0034594,105.504246 C76.3097038,104.983354 75.6470358,104.423299 75.0187373,103.827362 C75.0187373,103.827362 75.6470358,104.423299 75.0187373,103.827362 L75.0187373,103.827362 L75.0187373,103.827362 L75.0187373,103.827362 Z" id="stripe" fill="#E94B35"></path>
                <path d="M76.380639,103.827362 C76.9256109,86.7979183 89.297793,72.754936 105.552499,69.643101 C105.696812,69.7539096 105.839743,69.8664282 105.981263,69.9806266 C90.1409253,73.7574715 78.3619017,88.0031658 78.3619017,105 C78.3619017,105.168354 78.3630573,105.336439 78.3653611,105.504246 C77.6716055,104.983354 77.0089375,104.423299 76.380639,103.827362 C76.380639,103.827362 77.0089375,104.423299 76.380639,103.827362 L76.380639,103.827362 L76.380639,103.827362 L76.380639,103.827362 Z" id="stripe" fill="#E94B35" transform="translate(91.180951, 87.573674) scale(-1, 1) translate(-91.180951, -87.573674) "></path>
                <path d="M79.0098138,106.848968 C79.0032832,106.566769 79,106.283768 79,106 C79,89.242251 90.449976,75.1587888 105.953341,71.1461999 C106.105713,71.2902325 106.256073,71.4363714 106.404374,71.5845701 C91.6933492,76.1083639 81,89.8053985 81,106 C81,106.645961 81.0170132,107.287948 81.0506159,107.925537 C80.3500893,107.600911 79.6690747,107.241308 79.0098138,106.848968 C79.0098138,106.848968 79.6690747,107.241308 79.0098138,106.848968 L79.0098138,106.848968 L79.0098138,106.848968 L79.0098138,106.848968 Z" id="stripe" fill="#E94B35"></path>
                <path d="M74.6054398,106.848968 C74.5989092,106.566769 74.595626,106.283768 74.595626,106 C74.595626,89.242251 86.045602,75.1587888 101.548968,71.1461999 C101.701339,71.2902325 101.851699,71.4363714 102,71.5845701 C87.2889752,76.1083639 76.595626,89.8053985 76.595626,106 C76.595626,106.645961 76.6126392,107.287948 76.6462419,107.925537 C75.9457153,107.600911 75.2647007,107.241308 74.6054398,106.848968 C74.6054398,106.848968 75.2647007,107.241308 74.6054398,106.848968 L74.6054398,106.848968 L74.6054398,106.848968 L74.6054398,106.848968 Z" id="stripe" fill="#E94B35" transform="translate(88.297813, 89.535868) scale(-1, 1) translate(-88.297813, -89.535868) "></path>
                <path d="M83.0410349,108.734166 C83.0137813,108.159535 83,107.581377 83,107 C83,91.1103937 93.2943633,77.6251661 107.577529,72.8498781 C107.733979,73.0320821 107.887564,73.2168183 108.038213,73.4040167 C94.5605813,78.607329 85,91.6871671 85,107 C85,107.786692 85.0252338,108.56749 85.0749361,109.341629 C84.3838166,109.170534 83.7052971,108.967494 83.0410349,108.734166 C83.0410349,108.734166 83.7052971,108.967494 83.0410349,108.734166 L83.0410349,108.734166 L83.0410349,108.734166 L83.0410349,108.734166 Z" id="stripe" fill="#E94B35"></path>
                <path d="M73.0028229,108.734166 C72.9755693,108.159535 72.961788,107.581377 72.961788,107 C72.961788,91.1103937 83.2561513,77.6251661 97.5393171,72.8498781 C97.6957673,73.0320821 97.8493518,73.2168183 98.0000007,73.4040167 C84.5223693,78.607329 74.961788,91.6871671 74.961788,107 C74.961788,107.786692 74.9870218,108.56749 75.0367241,109.341629 C74.3456046,109.170534 73.6670851,108.967494 73.0028229,108.734166 C73.0028229,108.734166 73.6670851,108.967494 73.0028229,108.734166 L73.0028229,108.734166 L73.0028229,108.734166 L73.0028229,108.734166 Z" id="stripe" fill="#E94B35" transform="translate(85.480894, 91.095754) scale(-1, 1) translate(-85.480894, -91.095754) "></path>
            </g>
        </g>
    </g>
</svg>