<?xml version="1.0" encoding="UTF-8" standalone="no"?>
<svg width="180px" height="180px" viewBox="0 0 180 180" version="1.1" xmlns="http://www.w3.org/2000/svg" xmlns:xlink="http://www.w3.org/1999/xlink">
    <!-- Generator: Sketch 3.8.3 (29802) - http://www.bohemiancoding.com/sketch -->
    <title>laos</title>
    <desc>Created with Sketch.</desc>
    <defs></defs>
    <g id="Page-1" stroke="none" stroke-width="1" fill="none" fill-rule="evenodd">
        <g id="flags" transform="translate(-1260.000000, -3150.000000)">
            <g id="laos" transform="translate(1260.000000, 3150.000000)">
                <path d="M167.959589,135.000025 C152.398162,161.901074 123.312698,180 90,180 C56.6873022,180 27.6018377,161.901074 12.0404109,135.000025 L167.959604,135 L167.959604,135 L167.959589,135.000025 L167.959589,135.000025 L167.959589,135.000025 Z M167.959589,44.9999749 C152.398162,18.0989265 123.312698,0 90,0 C56.6873022,0 27.6018377,18.0989265 12.0404109,44.9999749 L167.959604,45 L167.959604,45 L167.959589,44.9999749 L167.959589,44.9999749 L167.959589,44.9999749 Z" id="red" fill="#E94B35"></path>
                <path d="M167.959589,135.000025 C175.617252,121.762218 180,106.392932 180,90.0000001 C180,73.6070679 175.617252,58.237782 167.959589,44.999975 L12.0403964,45.0000001 C4.38274789,58.237782 0,73.6070679 0,90.0000001 C0,106.392932 4.38274789,121.762218 12.0404109,135.000025 L167.959604,135 L167.959604,135 L167.959589,135.000025 L167.959589,135.000025 L167.959589,135.000025 Z" id="blue" fill="#227FBB" transform="translate(90.000000, 90.000000) scale(1, -1) translate(-90.000000, -90.000000) "></path>
                <circle id="white" fill="#FFFFFF" cx="90" cy="90" r="35.8047016"></circle>
            </g>
        </g>
    </g>
</svg>