<?xml version="1.0" encoding="UTF-8" standalone="no"?>
<svg width="180px" height="180px" viewBox="0 0 180 180" version="1.1" xmlns="http://www.w3.org/2000/svg" xmlns:xlink="http://www.w3.org/1999/xlink">
    <!-- Generator: Sketch 3.8.3 (29802) - http://www.bohemiancoding.com/sketch -->
    <title>lebanon</title>
    <desc>Created with Sketch.</desc>
    <defs></defs>
    <g id="Page-1" stroke="none" stroke-width="1" fill="none" fill-rule="evenodd">
        <g id="flags" transform="translate(-1800.000000, -3150.000000)">
            <g id="lebanon" transform="translate(1800.000000, 3150.000000)">
                <path d="M167.954449,135 L12.0400269,135 C27.6009907,161.901074 56.6855627,180 89.9972382,180 C123.308914,180 152.393486,161.901074 167.954435,135.000025 L167.954449,135 Z M12.0400269,45 L167.954449,45 C152.393486,18.0989265 123.308914,0 89.9972382,0 C56.6855627,0 27.6009907,18.0989265 12.0400414,44.9999749 L12.0400269,45 Z" id="red" fill="#E94B35"></path>
                <path d="M0.00552383048,88.9924057 L0.00552383048,91.0075943 C0.18119107,107.022617 4.53970053,122.033783 12.0400414,135.000025 L167.954449,135 C175.611863,121.762218 179.994476,106.392932 179.994476,90 C179.994476,73.6070678 175.611863,58.2377819 167.954435,44.9999749 L12.0400269,45 C4.53970053,57.9662169 0.18119107,72.9773831 0.00552355245,88.992431 L0.00552383048,88.9924057 Z" id="white" fill="#FFFFFF"></path>
                <path d="M88.9495341,51.5 L87.6866818,53.6035507 C86.9921449,54.7606944 85.3094515,56.4975526 83.9526284,57.4600649 C82.595796,58.422568 80.9603622,59.8557382 80.3094319,60.6454378 L79.1192614,62.0778627 L80.3821137,61.7472986 C81.0739433,61.5645068 81.9752222,61.2716665 82.3899596,61.0961989 C82.8047062,60.9207344 83.144036,61.0183365 83.1440391,61.3165822 C83.1440391,61.3245655 83.1446612,61.3383208 83.1440391,61.3466276 C83.142382,61.3634351 83.1390341,61.3887404 83.1349561,61.4067307 C82.9520473,62.1487273 80.7845558,63.8491768 79.0647454,64.5620521 C77.4186486,65.2443768 74.9781275,67.0258272 74.6583865,67.7374089 C74.6508035,67.7550511 74.6450686,67.7812712 74.6402114,67.797512 C74.6380215,67.80552 74.6326254,67.8199221 74.6311316,67.8275666 C74.629878,67.8350788 74.6316706,67.8504818 74.6311316,67.857612 C74.631033,67.8599559 74.631147,67.8653398 74.6311316,67.8676313 C74.6311193,67.8695994 74.6310607,67.8757132 74.6311316,67.8776505 C74.6312702,67.8795724 74.630916,67.8857725 74.6311316,67.8876728 C74.6314242,67.8895393 74.6307589,67.8958379 74.6311316,67.8976859 C74.6329026,67.9049855 74.63727,67.9208013 74.6402114,67.9277282 C74.6426446,67.9328718 74.6462236,67.942851 74.6493005,67.9477667 C74.650397,67.9493868 74.6572223,67.9561967 74.6583865,67.9577829 C74.6608597,67.9609276 74.6647221,67.964756 74.6674725,67.967799 C74.668917,67.9693021 74.6750462,67.976343 74.6765585,67.9778214 C74.6828694,67.9836302 74.6964368,67.9924329 74.7038073,67.9978568 C74.896566,68.1324558 75.4270498,68.1529132 76.0393538,68.0178922 C77.1133683,67.7810494 77.5561275,67.9280578 77.9109189,68.6589695 C78.4536272,69.7770126 78.1425472,70.2817137 76.8933669,70.2817106 C75.38259,70.2817106 73.2320755,71.7989279 72.9412711,73.0764349 C72.7462794,73.9329829 71.9220467,74.6315762 70.1520878,75.440418 C67.2623856,76.7609526 63.5332509,79.2822098 63.2745279,80.0582158 C63.2679952,80.0798097 63.2662735,80.1096272 63.2654449,80.1283382 C63.2654449,81.2283325 65.6993379,81.1516312 69.2253866,79.9380096 C70.0159456,79.665907 70.3644507,79.9429961 70.960674,81.3003121 C71.6987437,82.9805198 71.6870766,83.0216686 69.9703832,85.2369586 C68.7715486,86.7839841 67.717511,87.5817719 66.5724841,87.821325 C64.2911866,88.2985803 63.5821398,88.7619108 60.6216315,91.717907 C59.2048253,93.1325263 57.7826569,94.3031542 57.4599468,94.3122864 C57.3334204,94.3158623 57.2493703,94.3350322 57.2055634,94.3723803 C57.2041374,94.3737109 57.1978049,94.3810382 57.1964774,94.3824026 C57.1952331,94.3837886 57.1885433,94.3909958 57.1873883,94.3924126 C57.1864089,94.3939034 57.1791986,94.4009165 57.1783085,94.402435 C57.1774985,94.4039873 57.1790231,94.410868 57.1783085,94.4124573 C57.1776648,94.4140681 57.1697677,94.4208164 57.1692194,94.4224734 C57.1687482,94.424152 57.1696075,94.4307679 57.1692194,94.4324865 C57.1689207,94.4342329 57.169435,94.4407286 57.1692194,94.4425058 C57.1690808,94.4443045 57.1692749,94.4506862 57.1692194,94.452525 C57.1692687,94.4562364 57.168856,94.4687196 57.1692194,94.4725512 C57.1694781,94.4744916 57.1688775,94.4805992 57.1692194,94.4825735 C57.1708857,94.4905568 57.1754195,94.5042136 57.1783085,94.5126189 C57.1799039,94.5168816 57.1855003,94.5283053 57.1873883,94.5326543 C57.1894211,94.5370556 57.1941489,94.5481929 57.1964774,94.5526897 C57.4346138,94.9907827 58.9973904,95.854889 59.8766287,95.854889 C60.52009,95.854889 62.0882012,95.1193142 63.3562957,94.2221348 C65.5817281,92.6476481 65.6917765,92.6240645 66.5906561,93.5209482 C67.1028508,94.0320126 67.5264432,95.0227839 67.5264432,95.7146505 C67.5264432,96.7692456 66.9597201,97.2512594 64.0376903,98.7397618 C61.8757151,99.8410805 59.336714,101.734036 57.3509302,103.718166 C54.6819931,106.384876 53.924809,106.876808 52.7901155,106.693187 C52.0737136,106.577259 51.673135,106.528891 51.5454289,106.603036 C51.5413449,106.605749 51.5307035,106.610021 51.5272539,106.613052 C51.5256954,106.61465 51.5195847,106.621389 51.5181709,106.623062 C51.5169205,106.624824 51.5101814,106.631248 51.5090942,106.633087 C51.5043941,106.642703 51.5008398,106.661402 51.500002,106.673155 C51.4992074,106.80967 51.7401989,107.088237 52.1723106,107.564655 C52.5814639,108.01577 53.5310249,108.386054 54.2800993,108.386048 C56.3236455,108.386048 62.7834403,105.978369 64.7735977,104.479447 C66.621299,103.087826 68.4176566,102.819447 69.9067843,103.698131 C72.2105904,105.057522 68.3582311,107.794891 61.1031525,109.958705 C58.4342185,110.7547 56.1215913,111.529363 55.82459,111.721678 C55.8202995,111.724648 55.809652,111.72903 55.8064272,111.731692 C55.8050874,111.732948 55.7984007,111.74054 55.7973381,111.741711 C55.7963464,111.742961 55.7892069,111.750427 55.7882552,111.75173 C55.7873374,111.753064 55.7891423,111.760379 55.7882552,111.76174 C55.6843884,111.933727 55.837757,112.386475 56.1516675,112.803501 C56.9091935,113.80986 60.7212541,113.858419 63.9740944,112.893662 C65.2759427,112.507544 68.5180831,111.195845 71.1787257,109.98875 C76.004636,107.799314 76.0225339,107.803133 77.7110423,108.686551 C81.6343863,110.739217 81.2719042,114.331061 76.5572096,120.236055 C74.5040077,122.807633 72.6823263,123.954619 69.3707534,124.763695 C68.145591,125.063022 65.627614,127.435512 65.627614,128.289654 C65.627614,128.37396 65.6440489,128.440504 65.663958,128.5 L66.5088913,128.5 C66.6944644,128.364437 66.883946,128.169079 67.0721771,127.919023 C68.1160661,126.532237 70.2213293,125.607085 72.3507211,125.595104 C74.6644757,125.582073 77.4989689,124.311533 79.6280312,122.32959 C81.498546,120.58833 83.3775462,120.069285 84.7975617,120.907187 C85.5842491,121.37138 86.2999795,121.417697 87.2505846,121.057436 C88.9410025,120.41683 89.7762893,120.726474 89.7762924,121.989012 C89.7762924,122.55678 90.3712252,123.31834 91.1845177,123.782041 C91.962116,124.225385 93.349616,125.310531 94.2644253,126.196114 C94.9611644,126.870591 95.4688408,127.178628 95.7362433,127.177771 C95.7464443,127.1775 95.7630917,127.178991 95.7725781,127.177771 C95.7795635,127.176687 95.7932633,127.179395 95.7998361,127.177771 C95.8041327,127.17657 95.8138932,127.169187 95.818005,127.167764 C95.8220244,127.166212 95.8323485,127.159519 95.836177,127.157739 C95.8474097,127.152041 95.8629514,127.145478 95.8725148,127.137701 C95.8740702,127.136352 95.8800978,127.129098 95.881607,127.127691 C95.8830577,127.126221 95.8892823,127.119202 95.890693,127.117671 C95.8920482,127.116091 95.8984577,127.109291 95.8997759,127.107652 C95.9010418,127.105958 95.9076361,127.099388 95.908865,127.097636 C95.9123793,127.092203 95.9148525,127.083554 95.9179479,127.077601 C95.9199191,127.073523 95.9252567,127.061877 95.9270308,127.057568 C95.9287125,127.053152 95.9346261,127.042184 95.9361168,127.037533 C95.9382143,127.030409 95.9435396,127.015126 95.9451997,127.007484 C95.9472264,126.997077 95.9439493,126.978711 95.9451997,126.96742 C95.9723592,126.670862 95.7426066,126.073976 95.2092892,125.234492 C94.8958376,124.741091 94.7362012,124.249314 94.7822903,124.002415 C94.7847481,123.990541 94.7878836,123.972998 94.7913701,123.962347 C94.7928455,123.958183 94.7988176,123.946272 94.8004592,123.942315 C94.8013216,123.940383 94.7995506,123.934165 94.8004592,123.932292 C94.8014017,123.930472 94.8085535,123.92405 94.8095452,123.922276 C94.8146981,123.913686 94.8214864,123.89945 94.8277111,123.892225 C94.8290016,123.890835 94.8354665,123.883539 94.836794,123.882211 C94.8409181,123.878383 94.8504599,123.8755 94.854966,123.872189 C94.8565152,123.871148 94.8623333,123.863199 94.864052,123.862173 C94.8678373,123.860174 94.8777611,123.85406 94.8822209,123.852154 C95.1773865,123.737997 96.7414906,123.796202 98.4527386,123.992395 C101.462872,124.337491 101.827747,124.518425 103.604091,126.576759 C104.481321,127.593233 105.201154,128.231806 105.784562,128.5 L106.992904,128.5 C107.250509,128.384001 107.432241,128.215959 107.474422,128.049242 C107.475466,128.044739 107.482676,128.033716 107.483505,128.029207 C107.484598,128.022446 107.482898,128.005922 107.483505,127.999158 C107.483804,127.994655 107.483422,127.983623 107.483505,127.979132 C107.483477,127.974635 107.483751,127.963584 107.483505,127.959093 C107.483419,127.957969 107.483653,127.950238 107.483505,127.949071 C107.48312,127.946656 107.484127,127.941651 107.483505,127.939058 C107.380048,127.593362 105.597636,125.897634 103.45873,124.112599 C98.5975479,120.055684 97.8521879,118.573132 97.8349399,112.953759 C97.8246281,109.593164 97.9841382,108.732412 98.770724,107.865161 C99.9960558,106.514184 100.669122,106.546835 103.676779,108.115581 C105.948107,109.300281 106.653738,109.399214 111.817188,109.287567 C117.362423,109.167665 117.524708,109.202294 120.311927,110.840189 C121.874152,111.758213 123.782726,112.987608 124.563842,113.57481 C126.288196,114.871077 128.03916,114.962304 128.452339,113.775148 C128.940294,112.373157 125.662226,109.653865 119.503334,106.372646 C113.378834,103.10974 112.737323,102.197339 115.560325,100.713084 C117.16599,99.8688929 117.277212,99.8848966 119.82132,101.304087 C121.860717,102.441728 122.79344,102.686304 124.10049,102.41597 L125.772188,102.065373 L122.092638,99.0502812 C120.069472,97.392385 118.112391,95.6336372 117.740792,95.1336762 C116.666331,93.6880382 114.588166,92.7296192 112.544013,92.72961 C111.586136,92.72961 110.691337,92.5459958 110.44531,92.3189166 C110.437348,92.3111889 110.424489,92.2966975 110.418052,92.288865 C110.41654,92.2869062 110.410386,92.2808232 110.408969,92.278855 C110.406342,92.2748942 110.402116,92.2627928 110.399886,92.2588196 C109.824961,91.2331735 111.556334,90.7461423 116.387086,90.5559369 C122.895144,90.2997025 123.790454,89.5413726 119.303458,88.091786 C117.511757,87.5129493 114.827026,86.7804267 113.334427,86.4590195 C111.514507,86.0671295 110.505632,85.6398873 110.254519,85.146807 C110.226978,85.0906063 110.208184,85.0247282 110.200016,84.9665008 C110.194737,84.9235194 110.19486,84.8704232 110.200016,84.8262684 C110.22229,84.6587903 110.321774,84.4816595 110.49074,84.2953718 C110.796368,83.9583952 112.256603,83.9959835 114.742649,84.4155719 C117.529402,84.885928 119.054816,84.9912824 119.330716,84.6660006 C119.617756,84.2919407 118.333436,83.3606196 115.496726,81.791144 C112.912202,80.3611893 109.650427,78.0470498 108.164906,76.5823465 C106.692789,75.1308596 104.506075,73.4798379 103.313367,72.9161578 C101.739148,72.1721746 101.229362,71.6673503 101.432709,71.083062 C101.787461,70.0638253 104.264538,70.0534642 105.866333,71.0630296 C106.517254,71.4732856 108.222856,71.8043302 109.65489,71.7942617 L112.262371,71.7742232 L110.536164,71.0730489 C108.812014,70.3737718 104.121968,67.0378947 103.758541,66.284964 C103.751872,66.2700876 103.743384,66.2475605 103.740375,66.2348802 C103.739463,66.229983 103.740677,66.2193724 103.740375,66.2148478 C103.740375,66.2134742 103.74023,66.2061807 103.740375,66.2048286 C103.740658,66.2034826 103.73995,66.196143 103.740375,66.1948155 C103.741074,66.1935034 103.748617,66.1860899 103.749458,66.1847901 C103.75142,66.1822276 103.75604,66.1772872 103.758541,66.1747709 C103.759933,66.1735296 103.766108,66.165999 103.767633,66.1647609 C103.959464,66.0230778 105.040982,65.9625312 106.338768,66.0345446 L108.94624,66.1847901 L105.194018,63.2899074 C102.441132,61.1687021 100.744678,60.2556207 98.8070618,59.8440896 C97.3550389,59.5356892 95.6904098,59.1690953 95.1093555,59.032719 C93.553204,58.6674711 90.9398671,55.9437285 89.8762322,53.5735053 L88.9495341,51.5 L88.9495341,51.5 L88.9495341,51.5 L88.9495341,51.5 L88.9495341,51.5 Z M80.4002857,66.1046547 C80.457044,66.102588 80.5192353,66.1046547 80.5819903,66.1046547 C81.0657536,66.1046547 81.4173233,66.2225971 81.5631983,66.4051672 C81.5664846,66.4094422 81.578318,66.4208413 81.5813672,66.4251995 C81.5843178,66.4295947 81.5877428,66.4407628 81.5904563,66.4452318 C81.6060688,66.4722465 81.6196362,66.5059109 81.6267972,66.5353804 C81.628408,66.5428032 81.6348144,66.5578767 81.6358863,66.565435 C81.6370659,66.5755774 81.6356953,66.5951046 81.6358863,66.6055058 C81.635837,66.6133444 81.636493,66.6275832 81.6358863,66.6355512 C81.6345495,66.6489061 81.6297263,66.6719291 81.6267972,66.6856289 C81.6248445,66.6938956 81.6202429,66.707309 81.6177143,66.7156897 C81.5166502,67.0499621 80.9718475,67.659565 80.4002857,68.0779922 C79.9633354,68.3978594 79.7025518,68.5719349 79.5553555,68.5487825 C79.545287,68.546682 79.5280698,68.5428012 79.5190146,68.5387725 C79.5146009,68.5364995 79.5050098,68.5315037 79.5008426,68.5287533 C79.4927391,68.5227565 79.4807764,68.5066974 79.4735877,68.4986956 C79.3741807,68.3776238 79.3554758,68.0523912 79.3554758,67.4769702 C79.3554758,66.4236256 79.5489183,66.1356795 80.4002857,66.1046547 C80.4002857,66.1046547 79.5489183,66.1356795 80.4002857,66.1046547 L80.4002857,66.1046547 L80.4002857,66.1046547 L80.4002857,66.1046547 L80.4002857,66.1046547 L80.4002857,66.1046547 Z M93.0560797,67.4068571 C93.0675003,67.4066939 93.0718,67.4068571 93.0833377,67.4068571 C93.8217584,67.4068571 94.318239,67.7522052 94.418878,68.3284085 C94.5435318,69.042063 94.247205,69.2399561 93.0833377,69.2399499 C92.4286652,69.2399499 92.0495541,69.1718419 91.8659061,68.9895305 C91.7297362,68.8477242 91.7033283,68.6350595 91.7568864,68.3284085 C91.8559577,67.7612019 92.3368411,67.4171998 93.0560797,67.4068571 C93.0560797,67.4068571 92.3368411,67.4171998 93.0560797,67.4068571 L93.0560797,67.4068571 L93.0560797,67.4068571 L93.0560797,67.4068571 L93.0560797,67.4068571 L93.0560797,67.4068571 Z M89.3492904,67.7173827 C89.9909745,67.6674344 90.2487305,68.0470628 90.2487305,68.859305 C90.2487305,69.8369925 89.8748062,70.1417431 88.1136899,70.5922332 C87.0027709,70.8764094 85.9841163,71.0070075 85.7696867,70.9027649 C85.7647002,70.9000761 85.7555033,70.8957148 85.7515178,70.8927426 C85.7503012,70.891717 85.7435344,70.883786 85.7424318,70.8827172 C85.1327519,70.2105318 85.6671412,69.347867 87.1869887,68.5487825 C88.1646731,68.0347552 88.865829,67.7550172 89.3492904,67.7173827 C89.3492904,67.7173827 88.865829,67.7550172 89.3492904,67.7173827 L89.3492904,67.7173827 L89.3492904,67.7173827 L89.3492904,67.7173827 L89.3492904,67.7173827 L89.3492904,67.7173827 Z M97.880373,67.727402 C98.8205491,67.6963278 98.9393355,68.1405716 98.4799905,69.4603239 C98.3219526,69.9144114 97.6675327,70.2817137 97.0263506,70.2817106 C96.0881764,70.2817106 95.8870586,70.0548224 96.0087956,69.1097306 C96.117113,68.2688721 96.5303104,67.885717 97.4624416,67.7674666 C97.6169129,67.7478686 97.7555621,67.731523 97.880373,67.727402 C97.880373,67.727402 97.7555621,67.731523 97.880373,67.727402 L97.880373,67.727402 L97.880373,67.727402 L97.880373,67.727402 L97.880373,67.727402 L97.880373,67.727402 Z M83.4892793,70.2817106 C83.5216286,70.2789263 83.5585455,70.2817106 83.5892192,70.2817106 C84.7295522,70.2817106 84.0183864,72.4322467 82.5534953,73.4170059 C81.2490105,74.2939219 79.8626194,74.6703287 79.4735877,74.3285504 C79.471829,74.3269303 79.4662141,74.3201728 79.4645017,74.318528 C79.4394212,74.2934045 79.4158808,74.2605316 79.4009058,74.2283764 C79.3989993,74.2240244 79.3935354,74.2128163 79.3918167,74.208338 C79.3893897,74.2015342 79.3847327,74.1853827 79.38274,74.1782895 C79.3814957,74.1734908 79.374695,74.1631821 79.3736478,74.1582602 C79.3722341,74.1507758 79.3746242,74.1359703 79.3736478,74.1282056 C79.3722618,74.115094 79.3646912,74.0920402 79.3645649,74.0781186 C79.3645926,74.0752974 79.364491,74.0709546 79.3645649,74.0681025 C79.3961472,72.8934582 82.1417732,70.3977496 83.4892793,70.2817106 C83.4892793,70.2817106 82.1417732,70.3977496 83.4892793,70.2817106 L83.4892793,70.2817106 L83.4892793,70.2817106 L83.4892793,70.2817106 L83.4892793,70.2817106 L83.4892793,70.2817106 Z M94.2008263,75.260121 C94.7440737,75.1945324 95.0884916,75.7902598 94.9003991,76.882859 C94.7956637,77.4912268 94.252595,77.9110554 93.437667,78.0147652 C92.8148479,78.0940228 92.4309536,78.0662197 92.2838374,77.894559 C92.2824637,77.8928865 92.2760758,77.8862553 92.2747514,77.8845459 C92.2683265,77.8758788 92.2619232,77.8638483 92.2565733,77.8544912 C92.2545281,77.8506967 92.2493661,77.8383705 92.2474873,77.8344651 C92.2466002,77.8324816 92.2392575,77.826454 92.2384043,77.8244458 C92.2343634,77.8142572 92.2322875,77.7952721 92.2293214,77.7843812 C92.1566765,77.4927884 92.4558,76.9505944 93.1196786,76.0714854 C93.5038562,75.5627618 93.8856099,75.2981652 94.2008263,75.260121 C94.2008263,75.260121 93.8856099,75.2981652 94.2008263,75.260121 L94.2008263,75.260121 L94.2008263,75.260121 L94.2008263,75.260121 L94.2008263,75.260121 L94.2008263,75.260121 Z M89.939825,75.5005181 C89.9662237,75.4984791 89.9901214,75.5005181 90.012513,75.5005181 C91.1036184,75.5005181 91.2801393,76.4613364 90.2941574,77.0431238 C89.8391151,77.3116289 89.3970766,77.5122201 89.2493506,77.5339556 C89.2445211,77.5344916 89.235275,77.543904 89.2311786,77.5439718 C89.2274549,77.5438055 89.2159695,77.5346055 89.2130066,77.5339556 C89.1307983,77.5053394 88.5283996,77.3113764 87.8774724,77.0932138 L86.6963879,76.6925366 L88.031919,76.0915177 C88.7190731,75.7846327 89.5438817,75.5311394 89.939825,75.5005181 C89.939825,75.5005181 89.5438817,75.5311394 89.939825,75.5005181 L89.939825,75.5005181 L89.939825,75.5005181 L89.939825,75.5005181 L89.939825,75.5005181 L89.939825,75.5005181 Z M99.1250472,76.7025528 C99.6407193,76.6752024 100.198858,76.775287 100.742226,77.003056 C101.72834,77.4164228 101.920021,77.7747962 101.732526,78.8561873 C101.477918,80.3246574 100.676089,80.4896468 97.9348797,79.617474 C96.5882637,79.1890121 96.4497653,78.983262 96.8809838,78.0948976 C97.2923794,77.247377 98.1405837,76.7547557 99.1250472,76.7025528 C99.1250472,76.7025528 98.1405837,76.7547557 99.1250472,76.7025528 L99.1250472,76.7025528 L99.1250472,76.7025528 L99.1250472,76.7025528 L99.1250472,76.7025528 L99.1250472,76.7025528 Z M78.7921869,77.063153 C78.8231009,77.0628358 78.8513045,77.063153 78.8830439,77.063153 C80.8777935,77.063153 81.1529823,77.4099302 80.1822433,78.6859034 C79.8567705,79.1136907 79.2387623,79.765046 78.8012729,80.1283382 C78.1326912,80.6835174 77.9277357,80.6246001 77.5020827,79.7476902 C76.9954197,78.7039152 76.8373695,78.0172662 77.0841606,77.6040749 C77.312133,77.2352049 77.8725143,77.0727287 78.7921869,77.063153 C78.7921869,77.063153 77.8725143,77.0727287 78.7921869,77.063153 L78.7921869,77.063153 L78.7921869,77.063153 L78.7921869,77.063153 L78.7921869,77.063153 L78.7921869,77.063153 Z M73.5408947,77.944649 C74.3916801,77.921586 74.9159392,78.3233566 75.5941706,79.4872578 L76.5481267,81.130022 L75.1217355,81.6809508 C73.819875,82.1813245 73.6007699,82.0869502 72.5233397,80.5690831 C71.8442429,79.6123612 71.5844818,78.9778442 71.7692726,78.5757164 C71.7862803,78.5402625 71.8087212,78.4975367 71.8328684,78.4655232 C71.8390531,78.4575953 71.853489,78.4432024 71.8601203,78.4354747 C71.8669055,78.4278209 71.8801403,78.4128768 71.8873752,78.4054201 C72.1310001,78.1618136 72.6212653,78.0294876 73.3682761,77.9646875 C73.4281175,77.9594854 73.4841765,77.9461859 73.5408947,77.944649 C73.5408947,77.944649 73.4841765,77.9461859 73.5408947,77.944649 L73.5408947,77.944649 L73.5408947,77.944649 L73.5408947,77.944649 L73.5408947,77.944649 L73.5408947,77.944649 Z M104.957806,82.8629532 C105.902954,82.7865353 106.867878,83.4523142 106.729432,84.5257558 C106.553576,85.889238 105.064264,86.2838075 103.840309,85.2970618 C103.10936,84.7077654 103.082404,84.4893656 103.649524,83.6342529 C103.974366,83.1444528 104.462727,82.9029716 104.957806,82.8629532 C104.957806,82.8629532 104.462727,82.9029716 104.957806,82.8629532 L104.957806,82.8629532 L104.957806,82.8629532 L104.957806,82.8629532 L104.957806,82.8629532 L104.957806,82.8629532 Z M87.1233929,85.417268 C87.1581692,85.4150442 87.19597,85.417268 87.2324218,85.417268 C87.3122955,85.417268 87.3865204,85.4341741 87.4504643,85.4573296 C87.490686,85.4727296 87.5349086,85.4928604 87.568573,85.5174296 C87.5780533,85.5246399 87.5959665,85.5395378 87.6049139,85.5474873 C87.6093245,85.5515498 87.618814,85.5632662 87.6230829,85.5675196 C87.627284,85.5718594 87.6371862,85.5830213 87.6412518,85.587555 C87.6452527,85.5921658 87.6555584,85.6027856 87.6594207,85.6075904 C87.8036078,85.7934346 87.8540798,86.1117464 87.7957015,86.5491772 C87.6081479,87.9545166 86.6775136,88.3668608 86.2784627,87.2203092 C85.9221683,86.1966189 86.2680307,85.4719565 87.1233929,85.417268 C87.1233929,85.417268 86.2680307,85.4719565 87.1233929,85.417268 L87.1233929,85.417268 L87.1233929,85.417268 L87.1233929,85.417268 L87.1233929,85.417268 L87.1233929,85.417268 Z M81.1634481,86.4990872 C81.5639036,86.4447406 82.2216776,86.7109573 82.8805635,87.26038 C83.3283339,87.6337438 83.513867,87.9960719 83.5074544,88.262073 C83.5064503,88.2866206 83.5025788,88.3192594 83.4983623,88.3422054 C83.4954886,88.3564165 83.4933696,88.3787465 83.4892793,88.3922862 C83.4858236,88.4030108 83.4753208,88.422076 83.4711073,88.4323539 C83.46451,88.4475999 83.4520945,88.4682513 83.4438586,88.482444 C83.4410157,88.4871102 83.4377848,88.497921 83.4347726,88.5024794 C83.4316649,88.5069638 83.4198777,88.5181412 83.4166006,88.5225117 C83.4014531,88.5418633 83.3806477,88.5658904 83.3620846,88.5826056 C83.3578773,88.5862554 83.3482862,88.5991298 83.3439126,88.6026379 C83.0701745,88.814508 82.4901828,88.7644364 81.8266738,88.2520476 C81.278403,87.8286524 80.8231482,87.2751332 80.7818669,86.989916 C80.781291,86.9853206 80.7822027,86.9743466 80.7818669,86.9698868 C80.7816359,86.9655008 80.7818669,86.9540864 80.7818669,86.9498483 C80.7818669,86.67826 80.9231712,86.5316982 81.1634481,86.4990872 C81.1634481,86.4990872 80.9231712,86.5316982 81.1634481,86.4990872 L81.1634481,86.4990872 L81.1634481,86.4990872 L81.1634481,86.4990872 L81.1634481,86.4990872 L81.1634481,86.4990872 Z M90.6394008,86.6994258 C90.8243209,86.6834314 91.0162388,86.8644922 91.3389612,87.2203092 C91.7439873,87.6668569 92.2197426,88.5221729 92.3928602,89.1235182 C92.8087957,90.5684417 92.1516192,91.1720416 90.8665261,90.5158723 C89.4867755,89.8113654 89.1512433,88.6963099 89.9489141,87.4406771 C90.2534121,86.9613798 90.4425426,86.7164613 90.6394008,86.6994258 C90.6394008,86.6994258 90.4425426,86.7164613 90.6394008,86.6994258 L90.6394008,86.6994258 L90.6394008,86.6994258 L90.6394008,86.6994258 L90.6394008,86.6994258 L90.6394008,86.6994258 Z M93.946443,88.6627441 C94.2971995,88.6148408 94.7731612,89.1397776 94.89131,90.0250435 C94.9602096,90.5413162 94.888538,90.9813896 94.7277743,91.116885 C94.7262405,91.1181078 94.7202345,91.1257369 94.7186914,91.1268981 C94.7139975,91.1302522 94.7053427,91.1340714 94.7005163,91.1369235 C94.6940237,91.140487 94.6799881,91.1442908 94.6732614,91.1469366 C94.6715612,91.1475402 94.6658909,91.1564168 94.6641754,91.1569589 C94.6624537,91.1574394 94.6568296,91.1565308 94.6550925,91.1569589 C94.6515843,91.1576888 94.640484,91.1564661 94.6369174,91.1569589 C94.6351187,91.1571344 94.6296455,91.1568326 94.6278406,91.1569589 C94.6260142,91.1570143 94.6205872,91.1569589 94.6187485,91.1569589 C93.94271,91.1569589 93.5557696,90.5473653 93.5557696,89.4640954 C93.5557696,88.945907 93.7288749,88.6924507 93.946443,88.6627441 C93.946443,88.6627441 93.7288749,88.6924507 93.946443,88.6627441 L93.946443,88.6627441 L93.946443,88.6627441 L93.946443,88.6627441 L93.946443,88.6627441 L93.946443,88.6627441 Z M73.1774886,90.7462624 C73.8731682,90.7455325 74.4836088,90.7833333 74.885518,90.8664687 C75.5489408,91.0036858 75.9902124,91.1931951 76.2028895,91.4174006 C76.2478297,91.4662309 76.2881377,91.524948 76.3119061,91.5776653 C76.3232066,91.6041318 76.333155,91.6403988 76.339161,91.6678169 C76.3500026,91.7228658 76.3494913,91.789326 76.339161,91.8481232 C76.2599311,92.2545846 75.6765298,92.7504277 74.5947907,93.3206065 C73.697676,93.7934697 72.1797965,94.3390024 71.2150666,94.522632 C69.6131987,94.8275581 69.3935392,94.7144667 68.7256936,93.2905519 C68.329775,92.446404 68.0089375,91.6431615 67.9988783,91.4875137 C67.9988783,91.4855918 67.9987119,91.4794133 67.9988783,91.4774945 C67.9995066,91.4736568 67.9976124,91.4612968 67.9988783,91.4574591 C67.9996606,91.4555495 68.0070218,91.4493587 68.0079612,91.4474429 C68.0101418,91.4436206 68.0142567,91.4312267 68.0170472,91.4274137 C68.0185872,91.4255041 68.0244392,91.419304 68.0261332,91.4174006 C68.3609199,91.0709376 71.1353162,90.748403 73.1774886,90.7462624 C73.1774886,90.7462624 71.1353162,90.748403 73.1774886,90.7462624 L73.1774886,90.7462624 L73.1774886,90.7462624 L73.1774886,90.7462624 L73.1774886,90.7462624 L73.1774886,90.7462624 Z M105.393894,95.4341764 C107.259349,95.3517279 108.265871,96.6134099 106.238831,98.1788045 C104.934765,99.1858721 103.019926,99.2262909 101.832469,98.2689592 C100.97808,97.5801572 101.021634,97.4815941 102.577453,96.4358694 C103.561196,95.7746674 104.561287,95.4709732 105.393894,95.4341764 C105.393894,95.4341764 104.561287,95.4709732 105.393894,95.4341764 L105.393894,95.4341764 L105.393894,95.4341764 L105.393894,95.4341764 L105.393894,95.4341764 L105.393894,95.4341764 Z M112.189683,96.9066598 C112.222732,96.9026096 112.259698,96.9067768 112.289629,96.9066598 C112.56532,96.9055848 113.201519,97.2304263 113.706925,97.637901 C114.60716,98.3636692 114.604095,98.4119112 113.479803,99.7314294 C112.897886,100.414367 112.304681,100.949896 112.098826,100.993561 C112.097145,100.993857 112.091382,100.993336 112.08975,100.993561 C112.088167,100.993718 112.082179,100.993484 112.080661,100.993561 C112.079204,100.99358 112.072982,100.993626 112.071575,100.993561 C112.070226,100.993426 112.063776,100.99377 112.062492,100.993561 C111.912594,100.947623 111.091639,100.818848 110.245433,100.703071 C109.304062,100.574271 108.71002,100.194926 108.710023,99.7314294 C108.710023,99.7108396 108.715274,99.6838064 108.719109,99.6613132 C108.868738,98.8811461 111.198358,97.0281904 112.189683,96.9066598 C112.189683,96.9066598 111.198358,97.0281904 112.189683,96.9066598 L112.189683,96.9066598 L112.189683,96.9066598 L112.189683,96.9066598 L112.189683,96.9066598 L112.189683,96.9066598 Z M78.0199447,98.9901812 C78.1064619,98.9853333 78.2097127,98.9901812 78.319755,98.9901812 C79.6024179,98.9901812 80.3094319,100.04595 80.3094319,101.965206 C80.3094319,104.544065 78.7370796,104.337151 78.0108525,101.664699 C77.3785747,99.3379348 77.3154163,99.0296699 78.0199447,98.9901812 C78.0199447,98.9901812 77.3154163,99.0296699 78.0199447,98.9901812 L78.0199447,98.9901812 L78.0199447,98.9901812 L78.0199447,98.9901812 L78.0199447,98.9901812 L78.0199447,98.9901812 Z M87.7866155,99.7214194 C88.5599234,99.6968749 90.4315008,100.128429 90.6757386,100.4226 C90.676869,100.424057 90.6837713,100.431168 90.6848215,100.432622 C90.6857117,100.434051 90.6931098,100.441206 90.6939075,100.442629 C90.6946252,100.444058 90.69327,100.451235 90.6939075,100.452648 C90.6944619,100.454056 90.7025346,100.46126 90.7029966,100.462668 C90.70328,100.464054 90.7027933,100.471313 90.7029966,100.472684 C90.7031044,100.474051 90.702972,100.481345 90.7029966,100.4827 C90.7029227,100.484126 90.703126,100.491213 90.7029966,100.492719 C90.6785476,100.692143 90.1779552,101.504884 89.5764189,102.315793 L88.4680162,103.808315 L87.8865584,101.885067 C87.5994593,100.925961 87.4227535,100.061963 87.4595472,99.8416226 C87.4598983,99.8398115 87.4591683,99.8333096 87.4595472,99.8316002 C87.4603788,99.8283816 87.4676784,99.8244084 87.468627,99.8215779 C87.4691475,99.8202689 87.4680911,99.8127845 87.468627,99.8115679 C87.4697882,99.8093411 87.4764317,99.8033751 87.4777192,99.8015425 C87.4799891,99.7993003 87.4842149,99.7936762 87.4868021,99.7915325 C87.4881758,99.7904915 87.4944374,99.7825328 87.4958912,99.7815164 C87.497425,99.7805277 87.5033633,99.7824804 87.5049772,99.7815164 C87.5066619,99.78058 87.5123045,99.7724088 87.5140601,99.7715002 C87.5177376,99.7697384 87.5282527,99.763138 87.532229,99.761484 C87.589939,99.7390863 87.6788925,99.7248351 87.7866155,99.7214194 C87.7866155,99.7214194 87.6788925,99.7248351 87.7866155,99.7214194 L87.7866155,99.7214194 L87.7866155,99.7214194 L87.7866155,99.7214194 L87.7866155,99.7214194 L87.7866155,99.7214194 Z M83.0350163,100.572848 C83.1751039,100.558985 83.3944985,100.595305 83.6982419,100.642968 C84.3071056,100.738525 84.8676286,101.244516 84.9610974,101.784896 C85.0745523,102.440847 85.011557,102.898735 84.8520685,103.137192 C84.8394928,103.155351 84.820403,103.181753 84.8066477,103.197286 C84.7907395,103.214611 84.7694752,103.2335 84.7521348,103.247366 C84.7455713,103.252399 84.7316343,103.262856 84.7248829,103.267408 C84.6930604,103.287856 84.6514403,103.307778 84.6158571,103.317486 C84.6005002,103.321317 84.577314,103.325666 84.5613442,103.327511 C84.5345574,103.330018 84.4988048,103.330563 84.4704873,103.327511 C84.1546055,103.287351 83.7457971,102.895476 83.3893426,102.13549 C82.9784921,101.259534 82.7898668,100.844304 82.8623977,100.673019 C82.8683021,100.660949 82.8808623,100.642509 82.8896495,100.632958 C82.9214998,100.602112 82.968861,100.5794 83.0350163,100.572848 C83.0350163,100.572848 82.968861,100.5794 83.0350163,100.572848 L83.0350163,100.572848 L83.0350163,100.572848 L83.0350163,100.572848 L83.0350163,100.572848 L83.0350163,100.572848 Z" id="tree" fill="#1AAF5D"></path>
            </g>
        </g>
    </g>
</svg>