<?xml version="1.0" encoding="UTF-8" standalone="no"?>
<svg width="180px" height="180px" viewBox="0 0 180 180" version="1.1" xmlns="http://www.w3.org/2000/svg" xmlns:xlink="http://www.w3.org/1999/xlink">
    <!-- Generator: Sketch 3.8.3 (29802) - http://www.bohemiancoding.com/sketch -->
    <title>lesotho</title>
    <desc>Created with Sketch.</desc>
    <defs></defs>
    <g id="Page-1" stroke="none" stroke-width="1" fill="none" fill-rule="evenodd">
        <g id="flags" transform="translate(-2070.000000, -3150.000000)">
            <g id="lesotho" transform="translate(2070.000000, 3150.000000)">
                <path d="M174.873467,120 L5.12100983,120 C17.475726,154.955772 50.8118738,180 89.9972382,180 C129.182603,180 162.51875,154.955772 174.873463,120 L174.873467,120 L174.873467,120 Z" id="green" fill="#1FCE6D"></path>
                <path d="M5.12100983,120 L174.873467,120 C178.189905,110.616633 179.994476,100.519063 179.994476,90 C179.994476,79.480937 178.189905,69.3833673 174.873463,59.9999996 L5.12100983,60 C1.80457108,69.3833673 0,79.480937 0,90 C0,100.519063 1.80457108,110.616633 5.12101363,120 L5.12100983,120 L5.12100983,120 Z" id="white" fill="#FFFFFF"></path>
                <path d="M5.12100983,60 L174.873467,60 C162.51875,25.0442275 129.182603,0 89.9972382,0 C50.8118738,0 17.475726,25.0442275 5.12101363,59.9999996 L5.12100983,60 L5.12100983,60 Z" id="blue" fill="#227FBB"></path>
                <path d="M96.0207998,86.9424342 C96.999772,84.8732373 99.9220024,78.1685172 99.187141,73.285266 C98.4059922,68.0944157 96.03593,65.4187446 91.6558607,64.8935027 L91.6584264,63.7849201 C91.6584264,63.7849201 90.6822537,62.8802777 89.7292739,62.898579 C89.7292739,62.898579 90.6822537,62.8802777 89.7292739,62.898579 C88.7762878,62.9168804 87.8464945,63.8581254 87.8464945,63.8581254 L87.8556376,64.9778293 C84.0849326,65.6815153 81.3604991,68.4512674 80.7695637,73.5210362 C80.2076517,78.3417627 83.003825,84.8920788 83.9500017,86.9386455 L70.1758345,103.476658 L67.6553779,102.699877 L63.25,111.079327 C63.25,111.079327 74.1461623,117.162984 89.9613167,116.99665 C107.319374,116.812597 116.75,110.798693 116.75,110.798693 L112.19769,102.527 L109.968494,103.391378 L96.0207998,86.9424342 L96.0207998,86.9424342 L96.0207998,86.9424342 Z M85.365715,85.2388632 C84.6813044,83.626135 82.4194005,77.9061872 82.8628948,73.7195128 C83.2946968,69.6431777 85.1997669,67.314505 87.8686019,66.5655 L87.9286011,73.9132871 L84.3683118,77.2390238 L87.2504504,77.2390238 L87.2261043,83.0051788 L85.365715,85.2388632 L85.365715,85.2388632 L85.365715,85.2388632 Z M91.6522894,66.436609 C94.8018667,66.998474 96.5221283,69.2669304 97.1036286,73.5189153 C97.6864688,77.7806862 95.2940551,83.6730554 94.5999439,85.2667751 L92.6999954,83.0261075 L92.6756555,77.0878498 L95.5577941,77.0878498 L91.6352399,73.8034734 L91.6522894,66.436609 L91.6522894,66.436609 L91.6522894,66.436609 Z M111.019884,107.508475 L112.097826,109.630112 L109.941941,110.355932 L109.771739,109.350949 L111.019884,107.508475 L111.019884,107.508475 Z M110.325572,105.610169 L110.934783,106.589943 L109.217912,109.40678 L107.445652,106.896122 L110.325572,105.610169 L110.325572,105.610169 Z M106.785545,109.40678 L103.956522,111.167027 L104.710925,112.254237 L108.608696,111.425883 L106.785545,109.40678 L106.785545,109.40678 Z M100.467391,108.457631 L102.242564,110.355932 L105.119565,108.404894 L104.140162,107.508475 L100.467391,108.457631 L100.467391,108.457631 Z M99.433578,110.355932 L95.8152174,111.889179 L96.7844182,113.20339 L101.630435,112.546287 L99.433578,110.355932 L99.433578,110.355932 Z M93.4891304,108.922519 L94.884782,111.305085 L98.1413043,109.73608 L97.2690243,108.457627 L93.4891304,108.922519 L93.4891304,108.922519 Z M87.673913,112.728814 L88.6901618,114.152542 L94.6521739,113.988265 L92.4164186,111.305085 L87.673913,112.728814 L87.673913,112.728814 Z M85.3478261,108.457627 L86.9925348,111.305085 L91.1630435,109.794188 L90.6931309,108.690074 L85.3478261,108.457627 L85.3478261,108.457627 Z M80.6956522,112.330168 L81.2494775,113.526099 L86.5108696,114.152542 L84.2955477,111.305085 L80.6956522,112.330168 L80.6956522,112.330168 Z M78.3695652,107.508475 L79.855676,110.355932 L83.0217391,109.372261 L81.9879248,108.129735 L78.3695652,107.508475 L78.3695652,107.508475 Z M73.7173913,110.183362 L74.1696872,111.425888 L78.3695652,112.254237 L76.6896153,109.40678 L73.7173913,110.183362 L73.7173913,110.183362 Z M71.3913043,105.610169 L72.7397644,109.40678 L76.0434783,108.505886 L75.1669793,106.704105 L71.3913043,105.610169 L71.3913043,105.610169 Z M70.8097802,109.40678 L67.9021739,110.177963 L71.3913043,111.305085 L70.8097802,109.40678 L70.8097802,109.40678 Z M69.4324922,105.610169 C69.2488533,105.847459 67.9021739,108.457627 67.9021739,108.457627 L70.2282609,107.983049 L69.4324922,105.610169 L69.4324922,105.610169 Z" id="shape" fill="#000000"></path>
            </g>
        </g>
    </g>
</svg>