<?xml version="1.0" encoding="UTF-8" standalone="no"?>
<svg width="180px" height="180px" viewBox="0 0 180 180" version="1.1" xmlns="http://www.w3.org/2000/svg" xmlns:xlink="http://www.w3.org/1999/xlink">
    <!-- Generator: Sketch 3.8.3 (29802) - http://www.bohemiancoding.com/sketch -->
    <title>libya</title>
    <desc>Created with Sketch.</desc>
    <defs></defs>
    <g id="Page-1" stroke="none" stroke-width="1" fill="none" fill-rule="evenodd">
        <g id="flags" transform="translate(-2610.000000, -3150.000000)">
            <g id="libya" transform="translate(2610.000000, 3150.000000)">
                <path d="M90,0 C56.6873043,0 27.6018396,18.0989271 12.0404121,44.9999749 L167.959602,45 C152.39816,18.0989271 123.312696,0 90,0 Z" id="red" fill="#1AAF5D"></path>
                <path d="M167.959588,135.000025 C152.39816,161.901073 123.312696,180 90,180 C56.6873043,180 27.6018396,161.901073 12.0404121,135.000025 L167.959602,135 L167.959588,135.000025 Z" id="green" fill="#E94B35"></path>
                <path d="M180,90 C180,73.6070682 175.617252,58.2377821 167.959588,44.9999749 L12.0403976,45 C4.3827484,58.2377821 -1.42108547e-14,73.6070682 -1.42108547e-14,90 C-1.42108547e-14,106.392932 4.3827484,121.762218 12.0404121,135.000025 L167.959602,135 C175.617252,121.762218 180,106.392932 180,90 Z" id="black" fill="#000000"></path>
                <path d="M103.085173,118.200097 C97.2838515,121.632294 90.346581,123.628183 82.8930643,123.628183 C62.5175864,123.628183 46,108.712958 46,90.3140917 C46,71.9152259 62.5175864,57 82.8930643,57 C90.346581,57 97.2838515,58.9958903 103.085173,62.4280852 C100.101673,61.6063214 96.9347778,61.1642614 93.6535415,61.1642614 C75.8249984,61.1642614 61.3721101,74.2150843 61.3721101,90.3140917 C61.3721101,106.413099 75.8249984,119.463922 93.6535415,119.463922 C96.9347778,119.463922 100.101673,119.021861 103.085173,118.200097 L103.085173,118.200097 L103.085173,118.200097 L103.085173,118.200097 L103.085173,118.200097 L103.085173,118.200097 Z M113.637284,102.112833 L100.987586,108.54697 L103.403463,94.9192481 L93.1696407,85.2680415 L107.312437,83.2797817 L113.637284,70.8808715 L119.962136,83.2797847 L134.104931,85.2680515 L123.871106,94.9192507 L126.286983,108.546972 L113.637284,102.112833 L113.637284,102.112833 L113.637284,102.112833 L113.637284,102.112833 L113.637284,102.112833 Z" id="shape" fill="#FFFFFF"></path>
            </g>
        </g>
    </g>
</svg>