<?xml version="1.0" encoding="UTF-8" standalone="no"?>
<svg width="180px" height="180px" viewBox="0 0 180 180" version="1.1" xmlns="http://www.w3.org/2000/svg" xmlns:xlink="http://www.w3.org/1999/xlink">
    <!-- Generator: Sketch 3.8.3 (29802) - http://www.bohemiancoding.com/sketch -->
    <title>liechtenstein</title>
    <desc>Created with Sketch.</desc>
    <defs></defs>
    <g id="Page-1" stroke="none" stroke-width="1" fill="none" fill-rule="evenodd">
        <g id="flags" transform="translate(-180.000000, -3420.000000)">
            <g id="liechtenstein" transform="translate(180.000000, 3420.000000)">
                <path d="M179.787572,89.8420959 C179.787608,89.8752924 179.787626,89.9084931 179.787626,89.9416981 C179.787626,139.615129 139.577323,179.883396 89.9753957,179.883396 C40.3734681,179.883396 0.163165468,139.615129 0.163165468,89.9416981 C0.163165468,89.9084931 0.163183435,89.8752924 0.163219362,89.8420959 L179.787576,89.8420959 L179.787576,89.8420959 L179.787572,89.8420959 L179.787572,89.8420959 L179.787572,89.8420959 Z" id="red" fill="#E94B35"></path>
                <path d="M179.787572,89.8420959 C179.733863,40.2144496 139.544166,0 89.9753957,0 C40.4066253,0 0.21692798,40.2144496 0.163219362,89.8420959 L179.787576,89.8420959 L179.787576,89.8420959 L179.787572,89.8420959 L179.787572,89.8420959 L179.787572,89.8420959 Z" id="blue" fill="#227FBB"></path>
                <g id="emblem" transform="translate(25.000000, 27.000000)">
                    <path d="M23,16.2424316 C23,16.2424316 33.2240924,12.4647125 37.4295956,13.0967732 C40.1616855,13.5073892 41.9999959,18.2636793 41.9999959,18.2636793 C41.9999959,18.2636793 42.0220391,25.1269371 38.8347565,26.1148009 C30.4753445,28.705711 7.35991023,29 7.35991023,29 C5.51972736,25.6352263 4,22.7774021 4,18.9075689 C4,15.6689475 6.70821879,13.0967732 10.6114383,13.0967732 C14.7433606,13.0967732 23,16.2424316 23,16.2424316 L23,16.2424316 Z" id="Shape" fill="#F2C500" transform="translate(23.000000, 21.012733) scale(-1, 1) translate(-23.000000, -21.012733) "></path>
                    <path d="M5,30.6391375 L5,24.1394757 L6.69954899,24.1394757 C7.72059726,25.3765319 9.23176127,24.4370229 10.2579801,23.4115138 L13.1259699,22.4755622 C16.9214823,23.1650499 19.784461,25.0911682 20.6677206,20.2916765 C21.2909884,16.9049456 15.8262686,14.4017706 13.3384141,14 L21.3352051,15.7475586 L22.1711426,14 L24.7373047,14 L25.3857422,15.7475586 L34.5734456,14 C32.0592935,14.410484 24.8819658,17.105957 25.5118218,20.5661379 C25.5346447,20.6915182 25.5587756,20.8124061 25.5841968,20.9289375 L26.2216797,22.6593761 C27.5272816,24.7734909 31.6746619,23.231188 34.7881354,22.6593766 L37.686441,23.6156267 C38.7235074,24.6633766 40.250645,25.6232612 41.2824861,24.3593763 L43,24.3593763 L43,31 L24,31 L24,30.9028447 L5,30.6391375 Z" id="Shape" fill="#000000"></path>
                    <path d="M20,4.5 L21.5024315,6 L23,4.5 L21.5024315,3 L20,4.5 L20,4.5 L20,4.5 Z M23,4.5 L24.4975685,6 L26,4.5 L24.4975685,3 L23,4.5 L23,4.5 Z M23,0 L22,2.00324149 L23,4 L24,2.00324149 L23,0 L23,0 Z M23,5 L22,6.99675851 L23,9 L24,6.99675851 L23,5 L23,5 Z" id="Shape" fill="#F2C500"></path>
                    <path d="M21.3364839,14 C21.3155059,14.3485262 21.2926334,14.6976138 21.2672836,15.0464731 C17.9811578,14.2342792 14.1048955,13 10.2994352,13 C5.68224228,13 3,16.4701445 3,20.0000009 C3,24.2178312 4.50515054,27.332647 6.32768286,31 L8.36723148,29.9999999 C6.40792293,26.6648713 4.93220371,23.3847326 4.93220371,19.7777782 C4.93220371,16.117988 7.65297299,14.6666685 11.1581921,14.6666685 C14.6279377,14.6666685 18.3288338,16.0518397 21.1320977,16.6367042 C20.8266794,19.7249211 20.2536961,22.6993184 19,25 L21.6162571,23.9787798 C22.4405655,20.9616109 22.6774915,17.1494922 22.920059,14.9323883 C23.1061779,14.9765983 23.3003561,15 23.5,15 C23.6996437,15 23.8938217,14.9765983 24.0799405,14.9323884 C24.0893355,15.0182606 24.7554668,21.6791366 25.3837429,23.9787798 L28,25 C26.7159381,22.6435935 26.1459634,19.5804399 25.8461747,16.4121124 C28.5006933,15.7577905 31.7622911,14.6666685 34.8418079,14.6666685 C38.347027,14.6666685 41.0677963,16.117988 41.0677963,19.7777782 C41.0677963,23.3847326 39.5920771,26.6648713 37.6327685,29.9999999 L39.6723171,31 C41.4948495,27.332647 43,24.2178312 43,20.0000009 C43,16.4701445 40.3177577,13 35.7005648,13 C32.2679635,13 28.7777547,14.0042591 25.7150144,14.7971388 C25.6965771,14.5313328 25.6794969,14.2655035 25.6635161,14 L25.4771056,14.0302438 C25.8048904,13.6073558 26,13.076463 26,12.5 C26,11.1192881 24.8807119,10 23.5,10 C22.1192881,10 21,11.1192881 21,12.5 C21,13.076463 21.1951096,13.6073558 21.5228944,14.0302438 L21.3364839,14 Z" id="Shape" fill="#F2C500"></path>
                    <path d="M23.4964007,23 C20.5217126,23 18.3366026,24.4189304 18.2053913,28.0339971 C17.4782353,26.7390252 14.402158,22.6661727 11.5322408,23.2112676 C9.82532632,23.5354693 8.31712921,25.9308488 8.57359473,28.675085 C7.16038298,24.565152 3.02043006,23.8916367 0,26.322001 C2.68185153,28.553572 3.87485133,35.1421467 6.13325165,38 L23.4964007,38 L40.8595497,38 C43.1179477,35.1421467 44.3181485,28.553572 47,26.322001 C43.9795676,23.8916367 39.839617,24.565152 38.4264053,28.675085 C38.6828685,25.9308488 37.167475,23.5354693 35.4605606,23.2112676 C32.5906411,22.6661727 29.5217647,26.7390252 28.7946087,28.0339971 C28.6633997,24.4189304 26.4710888,23 23.4964007,23 L23.4964007,23 L23.4964007,23 Z" id="Shape" fill="#F2C500"></path>
                    <path d="M2,25 C2.55228478,25 3,24.5522848 3,24 C3,23.4477152 2.55228478,23 2,23 C1.44771522,23 1,23.4477152 1,24 C1,24.5522848 1.44771522,25 2,25 L2,25 Z M1,22 C1.55228478,22 2,21.5522848 2,21 C2,20.4477152 1.55228478,20 1,20 C0.447715223,20 0,20.4477152 0,21 C0,21.5522848 0.447715223,22 1,22 L1,22 Z M1.5,19 C2.05228478,19 2.5,18.5522848 2.5,18 C2.5,17.4477152 2.05228478,17 1.5,17 C0.947715223,17 0.5,17.4477152 0.5,18 C0.5,18.5522848 0.947715223,19 1.5,19 L1.5,19 Z M3,16 C3.55228478,16 4,15.5522848 4,15 C4,14.4477152 3.55228478,14 3,14 C2.44771522,14 2,14.4477152 2,15 C2,15.5522848 2.44771522,16 3,16 L3,16 Z M5,14 C5.55228478,14 6,13.5522848 6,13 C6,12.4477152 5.55228478,12 5,12 C4.44771522,12 4,12.4477152 4,13 C4,13.5522848 4.44771522,14 5,14 L5,14 Z M7,13 C7.55228478,13 8,12.5522848 8,12 C8,11.4477152 7.55228478,11 7,11 C6.44771522,11 6,11.4477152 6,12 C6,12.5522848 6.44771522,13 7,13 L7,13 Z M10,12.3999996 C10.5522848,12.3999996 11,11.9522844 11,11.3999996 C11,10.8477148 10.5522848,10.3999996 10,10.3999996 C9.44771522,10.3999996 9,10.8477148 9,11.3999996 C9,11.9522844 9.44771522,12.3999996 10,12.3999996 L10,12.3999996 Z M13,12.3999996 C13.5522848,12.3999996 14,11.9522844 14,11.3999996 C14,10.8477148 13.5522848,10.3999996 13,10.3999996 C12.4477152,10.3999996 12,10.8477148 12,11.3999996 C12,11.9522844 12.4477152,12.3999996 13,12.3999996 L13,12.3999996 Z M19,14 C19.5522848,14 20,13.5522848 20,13 C20,12.4477152 19.5522848,12 19,12 C18.4477152,12 18,12.4477152 18,13 C18,13.5522848 18.4477152,14 19,14 L19,14 Z M16,13 C16.5522848,13 17,12.5522848 17,12 C17,11.4477152 16.5522848,11 16,11 C15.4477152,11 15,11.4477152 15,12 C15,12.5522848 15.4477152,13 16,13 L16,13 Z M45,25 C44.4477152,25 44,24.5522848 44,24 C44,23.4477152 44.4477152,23 45,23 C45.5522848,23 46,23.4477152 46,24 C46,24.5522848 45.5522848,25 45,25 L45,25 Z M45,22 C44.4477152,22 44,21.5522848 44,21 C44,20.4477152 44.4477152,20 45,20 C45.5522848,20 46,20.4477152 46,21 C46,21.5522848 45.5522848,22 45,22 L45,22 Z M45,19 C44.4477152,19 44,18.5522848 44,18 C44,17.4477152 44.4477152,17 45,17 C45.5522848,17 46,17.4477152 46,18 C46,18.5522848 45.5522848,19 45,19 L45,19 Z M43.5,16 C42.9477152,16 42.5,15.5522848 42.5,15 C42.5,14.4477152 42.9477152,14 43.5,14 C44.0522848,14 44.5,14.4477152 44.5,15 C44.5,15.5522848 44.0522848,16 43.5,16 L43.5,16 Z M41,13.5 C40.4477152,13.5 40,13.0522848 40,12.5 C40,11.9477152 40.4477152,11.5 41,11.5 C41.5522848,11.5 42,11.9477152 42,12.5 C42,13.0522848 41.5522848,13.5 41,13.5 L41,13.5 Z M38,12.5 C37.4477152,12.5 37,12.0522848 37,11.5 C37,10.9477152 37.4477152,10.5 38,10.5 C38.5522848,10.5 39,10.9477152 39,11.5 C39,12.0522848 38.5522848,12.5 38,12.5 L38,12.5 Z M35.5,12.2000008 C34.9477152,12.2000008 34.5,11.7522855 34.5,11.2000008 C34.5,10.647716 34.9477152,10.2000008 35.5,10.2000008 C36.0522848,10.2000008 36.5,10.647716 36.5,11.2000008 C36.5,11.7522855 36.0522848,12.2000008 35.5,12.2000008 L35.5,12.2000008 Z M33,12.5 C32.4477152,12.5 32,12.0522848 32,11.5 C32,10.9477152 32.4477152,10.5 33,10.5 C33.5522848,10.5 34,10.9477152 34,11.5 C34,12.0522848 33.5522848,12.5 33,12.5 L33,12.5 Z M28,13.5 C27.4477152,13.5 27,13.0522848 27,12.5 C27,11.9477152 27.4477152,11.5 28,11.5 C28.5522848,11.5 29,11.9477152 29,12.5 C29,13.0522848 28.5522848,13.5 28,13.5 L28,13.5 Z M30.5,13 C29.9477152,13 29.5,12.5522848 29.5,12 C29.5,11.4477152 29.9477152,11 30.5,11 C31.0522848,11 31.5,11.4477152 31.5,12 C31.5,12.5522848 31.0522848,13 30.5,13 L30.5,13 Z" id="Oval" fill="#F2C500"></path>
                    <path d="M24.4999994,25 C24.3405787,25.0000021 24.3185558,25.2063899 24.3129653,25.3740458 C24.2946442,25.9236324 24.0580801,26.4573979 23.8557706,26.7232824 C23.6535564,26.9892547 23.355767,26.9185237 23.0799251,26.7767176 C22.8040876,26.6349157 22.6397746,26.5286376 22.3456427,26.3158397 C22.0514177,26.1031359 21.8283533,26.2275008 22.1793901,26.7099237 C23.2029431,28.1164021 24.3129653,29.3185875 24.3129653,31.6125954 C24.3129675,31.9092116 24.3667114,32 24.4999994,32 C24.6332875,32 24.6939564,31.9092116 24.6939608,31.6125954 C24.6939608,29.3185875 25.7970602,28.1164021 26.8206088,26.7099237 C27.1716456,26.2275008 26.9485856,26.1031359 26.6543562,26.3158397 C26.3602243,26.5286376 26.1959157,26.6349157 25.9200738,26.7767176 C25.6442319,26.9185237 25.3464469,26.9892547 25.1442283,26.7232824 C24.9419188,26.4573979 24.7053591,25.9236324 24.6870336,25.3740458 C24.6814431,25.2063899 24.6594246,25.0000021 24.4999994,25 L24.4999994,25 Z M12.9372995,26.0017662 C12.8653649,26.0206757 12.8239734,26.1514728 12.8777895,26.3350524 C13.1761837,27.3532007 13.2676545,27.8894227 13.2150127,28.1398286 C13.1623731,28.3901539 13.0179135,28.4244977 12.8248917,28.341058 C12.631872,28.2576182 12.4052643,28.1371663 12.2297918,28.0203486 C12.0543194,27.9034504 11.8718073,28.0432888 12.1239963,28.2404433 C13.4051379,29.2419016 14.2931856,30.3863998 14.6366402,31.7745346 C14.7068334,32.0582378 14.8942629,32.0916097 14.8416191,31.7745346 C14.5512505,30.0258913 14.4954159,28.588389 14.9341901,27.6870624 C15.0990852,27.3483511 14.933001,27.0230778 14.6697013,27.5738709 C14.4942288,27.9410984 14.2102334,28.0859715 13.9820304,27.7688119 C13.7539119,27.4517387 13.2826563,26.6057723 13.1422783,26.2218608 C13.0896048,26.0778953 13.0246379,26.0112904 12.9703606,26.0017662 C12.9590553,25.9997841 12.9475764,25.9990657 12.9372995,26.0017662 L12.9372995,26.0017662 Z M35.0296394,26.0017662 C34.9753621,26.0112904 34.9103952,26.0778953 34.8577217,26.2218608 C34.7173437,26.6057723 34.2460881,27.4517387 34.0179696,27.7688119 C33.7897666,28.0859715 33.5057712,27.9410984 33.3302987,27.5738709 C33.066999,27.0230778 32.9009148,27.3483511 33.0658099,27.6870624 C33.5045841,28.588389 33.4487495,30.0258913 33.1583809,31.7745346 C33.1057371,32.0916097 33.2931666,32.0582378 33.3633598,31.7745346 C33.7068144,30.3863998 34.5948621,29.2419016 35.8760037,28.2404433 C36.1281927,28.0432888 35.9456806,27.9034504 35.7702082,28.0203486 C35.5947357,28.1371663 35.368128,28.2576182 35.1751083,28.341058 C34.9820865,28.4244977 34.8376269,28.3901539 34.7849873,28.1398286 C34.7323455,27.8894227 34.8238163,27.3532007 35.1222105,26.3350524 C35.1760266,26.1514728 35.1346351,26.0206757 35.0627005,26.0017662 C35.0524236,25.9990657 35.0409447,25.9997841 35.0296394,26.0017662 L35.0296394,26.0017662 Z M4.87029423,27.0008297 C4.7565561,26.9898669 4.71727677,27.0872636 4.87029423,27.3098845 C5.21802879,27.815691 5.60164167,28.5811752 5.62736821,28.909243 C5.65319491,29.2374147 5.50034051,29.2337506 5.35802458,29.2337506 C4.93292405,29.2337555 4.72525516,28.9044193 4.33888654,28.8088002 C3.95242473,28.7130847 3.89633836,28.9287802 4.17145672,29.1410341 C5.58830319,30.2347642 7.00844584,31.4550461 7.5782896,32.563816 C7.81011497,33.0150113 8.12351098,33.1799377 7.94954703,32.7492489 C7.41678592,31.4296665 7.2876687,30.3122603 7.40358022,29.6355218 C7.51958725,28.9587857 7.67768293,28.5031079 7.65836473,28.1134269 C7.63905119,27.7238498 7.4308675,27.7504309 7.34534376,28.1134269 C7.28738917,28.3595829 7.1751116,28.6856728 7.09783881,28.8088002 C7.02056835,28.9318312 6.70983956,29.0007974 6.41356041,28.5770091 C6.11727893,28.1532282 5.36981164,27.3372197 5.12507874,27.132178 C5.0333074,27.0552901 4.93853804,27.0074088 4.87029423,27.0008297 L4.87029423,27.0008297 Z M43.1297058,27.0008297 C43.061462,27.0074088 42.9666926,27.0552901 42.8749213,27.132178 C42.6301884,27.3372197 41.8827211,28.1532282 41.5864396,28.5770091 C41.2901604,29.0007974 40.9794317,28.9318312 40.9021612,28.8088002 C40.8248884,28.6856728 40.7126108,28.3595829 40.6546562,28.1134269 C40.5691325,27.7504309 40.3609488,27.7238498 40.3416353,28.1134269 C40.3223171,28.5031079 40.4804127,28.9587857 40.5964198,29.6355218 C40.7123313,30.3122603 40.5832141,31.4296665 40.050453,32.7492489 C39.876489,33.1799377 40.189885,33.0150113 40.4217104,32.563816 C40.9915542,31.4550461 42.4116968,30.2347642 43.8285433,29.1410341 C44.1036616,28.9287802 44.0475753,28.7130847 43.6611135,28.8088002 C43.2747448,28.9044193 43.067076,29.2337555 42.6419754,29.2337506 C42.4996595,29.2337506 42.3468051,29.2374147 42.3726318,28.909243 C42.3983583,28.5811752 42.7819712,27.815691 43.1297058,27.3098845 C43.2827232,27.0872636 43.2434439,26.9898669 43.1297058,27.0008297 L43.1297058,27.0008297 Z" id="Path" fill="#000000"></path>
                    <path d="M41,37.1022726 C41,38.4822782 33.1600008,40 23.4999988,40 C13.8399992,40 6,38.4822782 6,37.1022726 C6,35.7222769 13.8399992,35 23.4999988,35 C33.1600008,35 41,35.7222769 41,37.1022726 L41,37.1022726 L41,37.1022726 Z" id="Shape" fill="#000000"></path>
                </g>
            </g>
        </g>
    </g>
</svg>