<?xml version="1.0" encoding="UTF-8" standalone="no"?>
<svg width="180px" height="180px" viewBox="0 0 180 180" version="1.1" xmlns="http://www.w3.org/2000/svg" xmlns:xlink="http://www.w3.org/1999/xlink">
    <!-- Generator: Sketch 3.8.3 (29802) - http://www.bohemiancoding.com/sketch -->
    <title>macau</title>
    <desc>Created with Sketch.</desc>
    <defs></defs>
    <g id="Page-1" stroke="none" stroke-width="1" fill="none" fill-rule="evenodd">
        <g id="flags" transform="translate(-990.000000, -3420.000000)">
            <g id="macau" transform="translate(990.000000, 3420.000000)">
                <circle id="bg" fill="#00A185" cx="90" cy="90" r="90"></circle>
                <path d="M90,33 L87.63438,40.3162962 L79.96562,40.3162962 L86.16875,44.8384133 L83.8,52.1515735 L90,47.6357284 L96.2,52.1515735 L93.83125,44.8384133 L100.03438,40.3162962 L92.36562,40.3162962 L90,33 L90,33 L90,33 L90,33 L90,33 Z M59.74375,45.8356624 L61.29688,50.9253961 L56.95,53.9767276 L62.25312,54.0708077 L63.80312,59.1605414 L65.53125,54.1272557 L70.83438,54.2181998 L66.6,51.0163402 L68.325,45.9830546 L63.97812,49.037522 L59.74375,45.8356624 L59.74375,45.8356624 L59.74375,45.8356624 L59.74375,45.8356624 L59.74375,45.8356624 Z M120.25625,45.8356624 L116.02188,49.037522 L111.675,45.9830546 L113.4,51.0163402 L109.16562,54.2181998 L114.46875,54.1272557 L116.19688,59.1605414 L117.74688,54.0708077 L123.05,53.9767276 L118.70312,50.9253961 L120.25625,45.8356624 L120.25625,45.8356624 L120.25625,45.8356624 L120.25625,45.8356624 L120.25625,45.8356624 Z M49.69688,62.6509133 L47.45625,67.4740867 L42.19375,66.824934 L46.07188,70.4532901 L43.83125,75.2795995 L48.46875,72.6986686 L52.34688,76.3270246 L51.3375,71.1024428 L55.97188,68.5215119 L50.70938,67.8754952 L49.69688,62.6509133 L49.69688,62.6509133 L49.69688,62.6509133 L49.69688,62.6509133 L49.69688,62.6509133 Z M130.30312,62.6509133 L129.29062,67.8754952 L124.02812,68.5215119 L128.6625,71.1024428 L127.65312,76.3270246 L131.53125,72.6986686 L136.16875,75.2795995 L133.92812,70.4532901 L137.80625,66.824934 L132.54375,67.4740867 L130.30312,62.6509133 L130.30312,62.6509133 L130.30312,62.6509133 L130.30312,62.6509133 L130.30312,62.6509133 Z" id="stars" fill="#F2C500"></path>
                <path d="M90,58.3295004 C83.11264,64.3023468 78.75,73.130578 78.75,82.9753521 C78.75,89.6714301 80.7674,95.8961031 84.225,101.073233 C79.97879,95.5687123 77.45,88.6638789 77.45,81.1690141 C77.45,76.190606 78.56628,71.4723176 80.55938,67.2514305 C79.18287,65.7916223 78.13724,64.014258 77.54688,62.0393926 C74.8757,66.770506 73.35,72.2356359 73.35,78.0580986 C73.35,85.3005487 75.71022,91.9915619 79.7,97.4009683 C72.75168,90.0912973 62.95373,85.53433 52.1,85.534331 C51.51678,85.534331 50.93619,85.5490687 50.35938,85.575099 C51.45148,86.5965822 52.36821,87.8037438 53.05938,89.147007 C63.85572,89.163527 73.60238,93.6910872 80.53438,100.947793 C73.9141,95.3988032 65.39345,92.0572173 56.1,92.0572183 C50.90635,92.0572183 45.954759,93.1004909 41.440625,94.9893816 C46.07861,107.287969 57.92633,116.041373 71.8,116.041373 C72.69834,116.041373 73.58889,116.000801 74.46875,115.928477 C72.59665,116.266062 70.66842,116.442782 68.7,116.442782 C59.94677,116.442782 52.00133,112.958516 46.1625,107.298195 C44.947083,107.767492 43.643612,108.06053 42.284375,108.141775 C48.23139,114.892101 56.9223,119.152289 66.6,119.152289 C75.79236,119.152289 84.09443,115.309596 90,109.139034 C95.90557,115.309596 104.20765,119.152289 113.4,119.152289 C123.07771,119.152289 131.76861,114.892101 137.71562,108.141775 C136.3564,108.06053 135.05293,107.767492 133.8375,107.298195 C127.99868,112.958516 120.05324,116.442782 111.3,116.442782 C109.33159,116.442782 107.40335,116.266062 105.53125,115.928477 C106.4111,116.000801 107.30167,116.041373 108.2,116.041373 C122.07368,116.041373 133.92139,107.287969 138.55938,94.9893816 C134.04523,93.1004909 129.09366,92.0572183 123.9,92.0572183 C114.60656,92.0572173 106.0859,95.3988032 99.46562,100.947793 C106.39762,93.6910872 116.14428,89.163527 126.94062,89.147007 C127.63179,87.8037438 128.54852,86.5965822 129.64062,85.575099 C129.06381,85.5490687 128.48323,85.534331 127.9,85.534331 C117.04628,85.53433 107.24833,90.0912973 100.3,97.4009683 C104.28979,91.9915619 106.65,85.3005487 106.65,78.0580986 C106.65,72.2356359 105.1243,66.770506 102.45312,62.0393926 C101.86276,64.014258 100.81713,65.7916223 99.44062,67.2514305 C101.43372,71.4723176 102.55,76.190606 102.55,81.1690141 C102.55,88.6638789 100.02122,95.5687123 95.775,101.073233 C99.23261,95.8961031 101.25,89.6714301 101.25,82.9753521 C101.25,73.130578 96.88736,64.3023468 90,58.3295004 C90,58.3295004 96.88736,64.3023468 90,58.3295004 L90,58.3295004 L90,58.3295004 L90,58.3295004 L90,58.3295004 L90,58.3295004 Z M90,112.651358 C84.1743,118.232943 76.28425,121.661091 67.6,121.661091 L42.346875,121.661091 C43.09134,122.758984 43.871454,123.830303 44.6875,124.872359 L69.1,124.872359 C77.06028,124.872359 84.35242,121.990277 90,117.211097 C95.64758,121.990277 102.93973,124.872359 110.9,124.872359 L135.3125,124.872359 C136.12856,123.830303 136.90866,122.758984 137.65312,121.661091 L112.4,121.661091 C103.71576,121.661091 95.82571,118.232943 90,112.651358 C90,112.651358 95.82571,118.232943 90,112.651358 L90,112.651358 L90,112.651358 L90,112.651358 L90,112.651358 L90,112.651358 Z M47.4875,128.183979 C47.98401,128.7286 48.49258,129.264139 49.00938,129.789613 L130.99062,129.789613 C131.50741,129.264139 132.01599,128.7286 132.5125,128.183979 L47.4875,128.183979 L47.4875,128.183979 L47.4875,128.183979 L47.4875,128.183979 L47.4875,128.183979 Z M52.54688,133.101232 C53.56011,133.97266 54.60264,134.809817 55.675,135.610035 L90,135.610035 L124.325,135.610035 C125.39737,134.809817 126.43989,133.97266 127.45312,133.101232 L90,133.101232 L52.54688,133.101232 L52.54688,133.101232 L52.54688,133.101232 L52.54688,133.101232 L52.54688,133.101232 Z M59.32188,138.118838 C61.17948,139.294965 63.10739,140.369254 65.1,141.330106 L90,141.330106 L114.9,141.330106 C116.89262,140.369254 118.82052,139.294965 120.67812,138.118838 L90,138.118838 L59.32188,138.118838 L59.32188,138.118838 L59.32188,138.118838 L59.32188,138.118838 L59.32188,138.118838 Z M68.75625,142.935739 C75.33097,145.55782 82.49803,147 90,147 C97.50197,147 104.66902,145.55782 111.24375,142.935739 L90,142.935739 L68.75625,142.935739 L68.75625,142.935739 L68.75625,142.935739 L68.75625,142.935739 L68.75625,142.935739 Z" id="flower" fill="#FFFFFF"></path>
            </g>
        </g>
    </g>
</svg>