<?xml version="1.0" encoding="UTF-8" standalone="no"?>
<svg width="180px" height="180px" viewBox="0 0 180 180" version="1.1" xmlns="http://www.w3.org/2000/svg" xmlns:xlink="http://www.w3.org/1999/xlink">
    <!-- Generator: Sketch 3.8.3 (29802) - http://www.bohemiancoding.com/sketch -->
    <title>macedonia</title>
    <desc>Created with Sketch.</desc>
    <defs></defs>
    <g id="Page-1" stroke="none" stroke-width="1" fill="none" fill-rule="evenodd">
        <g id="flags" transform="translate(-1260.000000, -3420.000000)">
            <g id="macedonia" transform="translate(1260.000000, 3420.000000)">
                <circle id="yellow" fill="#F2C500" cx="90" cy="90" r="90"></circle>
                <path d="M92.7975429,109.805894 L101.835148,179.228781 C131.076758,175.387703 155.89784,157.508833 169.309623,132.580943 L108.137487,98.4393581 C109.332614,95.8752121 110,93.0155443 110,90 C110,86.9844558 109.332614,84.124788 108.137487,81.560642 L169.309623,47.4190568 C155.89784,22.4911672 131.076758,4.6122971 101.835148,0.771218597 L92.7975429,70.194106 C91.8833853,70.0661547 90.9494183,70 90,70 C89.0505817,70 88.1166147,70.0661547 87.2024571,70.194106 L78.164852,0.771218597 C48.923242,4.6122971 24.10216,22.4911672 10.690377,47.4190568 L71.8625128,81.560642 C70.6673861,84.124788 70,86.9844558 70,90 C70,93.0155443 70.667386,95.8752121 71.8625128,98.439358 L10.690377,132.580943 C24.10216,157.508833 48.923242,175.387703 78.164852,179.228781 L87.2024571,109.805894 C88.1166147,109.933845 89.0505817,110 90,110 C90,110 78.9543045,110 90,110 C90.9494183,110 91.8833853,109.933845 92.7975429,109.805894 L92.7975429,109.805894 L92.7975429,109.805894 Z M108.748229,83.0199552 L174.367032,58.5897984 C177.314211,66.5025977 179.18004,74.9418603 179.784854,83.72792 L109.95219,88.6062045 C109.817787,86.6537468 109.403158,84.7783551 108.748229,83.0199552 C108.748229,83.0199552 109.403158,84.7783551 108.748229,83.0199552 L108.748229,83.0199552 Z M108.748229,96.9800448 L174.367032,121.410202 C177.314211,113.497402 179.18004,105.05814 179.784854,96.27208 L109.95219,91.3937955 C109.817787,93.3462532 109.403158,95.2216449 108.748229,96.9800448 C108.748229,96.9800448 109.403158,95.2216449 108.748229,96.9800448 L108.748229,96.9800448 Z M71.251771,83.0199552 L5.632968,58.5897984 C2.685789,66.5025977 0.81996,74.9418603 0.215146,83.72792 L70.04781,88.6062045 C70.182213,86.6537468 70.596842,84.7783551 71.251771,83.0199552 C71.251771,83.0199552 70.596842,84.7783551 71.251771,83.0199552 L71.251771,83.0199552 Z M71.251771,96.9800448 L5.632968,121.410202 C2.685789,113.497402 0.81996,105.05814 0.215146,96.27208 L70.04781,91.3937955 C70.182213,93.3462532 70.596842,95.2216449 71.251771,96.9800448 C71.251771,96.9800448 70.596842,95.2216449 71.251771,96.9800448 L71.251771,96.9800448 Z M90,107 C99.3888412,107 107,99.3888412 107,90 C107,80.6111588 99.3888412,73 90,73 C80.6111588,73 73,80.6111588 73,90 C73,99.3888412 80.6111588,107 90,107 C90,107 80.6111588,107 90,107 L90,107 Z" id="red" fill="#E94B35"></path>
            </g>
        </g>
    </g>
</svg>