<?xml version="1.0" encoding="UTF-8" standalone="no"?>
<svg width="180px" height="180px" viewBox="0 0 180 180" version="1.1" xmlns="http://www.w3.org/2000/svg" xmlns:xlink="http://www.w3.org/1999/xlink">
    <!-- Generator: Sketch 3.8.3 (29802) - http://www.bohemiancoding.com/sketch -->
    <title>malawi</title>
    <desc>Created with Sketch.</desc>
    <defs></defs>
    <g id="Page-1" stroke="none" stroke-width="1" fill="none" fill-rule="evenodd">
        <g id="flags" transform="translate(-1800.000000, -3420.000000)">
            <g id="malawi" transform="translate(1800.000000, 3420.000000)">
                <path d="M174.873467,120 L5.12100983,120 C17.475726,154.955772 50.8118738,180 89.9972382,180 C129.182603,180 162.51875,154.955772 174.873463,120 L174.873467,120 L174.873467,120 Z" id="green" fill="#1AAF5D"></path>
                <path d="M5.12100983,120 L174.873467,120 C178.189905,110.616633 179.994476,100.519063 179.994476,90 C179.994476,79.480937 178.189905,69.3833673 174.873463,59.9999996 L5.12100983,60 C1.80457108,69.3833673 0,79.480937 0,90 C0,100.519063 1.80457108,110.616633 5.12101363,120 L5.12100983,120 L5.12100983,120 Z" id="red" fill="#E94B35"></path>
                <path d="M5.12100983,60 L174.873467,60 C162.51875,25.0442275 129.182603,0 89.9972382,0 C50.8118738,0 17.475726,25.0442275 5.12101363,59.9999996 L5.12100983,60 L5.12100983,60 Z" id="black" fill="#000000"></path>
                <path d="M120.626593,57 C116.803803,44.8286788 105.432926,36 92,36 C78.5670739,36 67.1961973,44.8286788 63.3734067,57 L120.626593,57 L120.626593,57 L120.626593,57 L120.626593,57 L120.626593,57 Z M126.956089,57 C128.959829,56.1882756 130.474871,55.6733354 132.718204,55.1965004 C134.178904,54.886019 135.768416,54.957094 135.997119,56.0330564 C136.071456,56.3827838 135.945774,56.7096808 135.684752,57 L126.956089,57 L126.956089,57 L126.956089,57 L126.956089,57 L126.956089,57 Z M56.0609518,57 C54.03407,56.1809657 52.5072503,55.6695352 50.2817964,55.1965004 C48.7754491,54.8763164 47.2107929,55.0549088 47.0028812,56.0330564 C46.925371,56.397713 47.0375987,56.7205004 47.2767203,57 L56.0609518,57 L56.0609518,57 L56.0609518,57 L56.0609518,57 L56.0609518,57 Z M90,23.0333333 C90,26.7666667 90.5,28.6333333 91.5,34 C92.52,28.6333333 93,26.72 93,23.0333333 C93,21.4933333 92.5,20 91.5,20 C90.4,20 90,21.54 90,23.0333333 C90,23.0333333 90,21.54 90,23.0333333 L90,23.0333333 L90,23.0333333 L90,23.0333333 Z M95.1854944,23.1670039 C94.7305156,26.8725095 94.9992992,28.786197 95.3378132,34.2347307 C97.0042424,29.0323731 97.7138412,27.1917987 98.1631329,23.5326119 C98.3508117,22.0040909 98.0365302,20.4609539 97.043984,20.3390846 C95.9521832,20.2050283 95.367486,21.6848016 95.1854944,23.1670039 C95.1854944,23.1670039 95.367486,21.6848016 95.1854944,23.1670039 L95.1854944,23.1670039 L95.1854944,23.1670039 L95.1854944,23.1670039 Z M100.316047,23.9316309 C99.4128716,27.5540683 99.4464319,29.4862479 99.1184134,34.9354235 C101.406429,29.9749302 102.335048,28.2345535 103.226934,24.6573966 C103.599494,23.1631412 103.475616,21.5932053 102.50532,21.3512834 C101.437995,21.0851693 100.677317,22.482656 100.316047,23.9316309 C100.316047,23.9316309 100.677317,22.482656 100.316047,23.9316309 L100.316047,23.9316309 L100.316047,23.9316309 L100.316047,23.9316309 Z M105.315172,25.3158155 C103.977265,28.8011825 103.775102,30.7230499 102.785441,36.0916328 C105.660934,31.4469532 106.79473,29.8327192 108.115913,26.3909194 C108.6678,24.9532055 108.736172,23.3798748 107.802592,23.0215068 C106.775654,22.6273021 105.850335,23.9216688 105.315172,25.3158155 C105.315172,25.3158155 105.850335,23.9216688 105.315172,25.3158155 L105.315172,25.3158155 L105.315172,25.3158155 L105.315172,25.3158155 Z M110.108345,27.2989228 C108.355651,30.5952604 107.920778,32.4781651 106.284228,37.686122 C109.704332,33.4264976 111.026402,31.9624709 112.757188,28.7073375 C113.480174,27.3475982 113.739777,25.7943273 112.85683,25.3248557 C111.885588,24.808437 110.809422,25.9803877 110.108345,27.2989228 C110.108345,27.2989228 110.809422,25.9803877 110.108345,27.2989228 L110.108345,27.2989228 L110.108345,27.2989228 L110.108345,27.2989228 Z M114.62411,29.851389 C112.482758,32.9095567 111.821658,34.7254287 109.562617,39.6951211 C113.476345,35.8840531 114.966981,34.5920589 117.081566,31.5721184 C117.964874,30.3106242 118.411839,28.8005689 117.592687,28.2269925 C116.691619,27.5960584 115.480651,28.628122 114.62411,29.851389 C114.62411,29.851389 115.480651,28.628122 114.62411,29.851389 L114.62411,29.851389 L114.62411,29.851389 L114.62411,29.851389 Z M118.795148,32.935163 C116.297061,35.7095703 115.419589,37.4313393 112.571733,42.0886805 C116.920742,38.7829831 118.557721,37.6822821 121.024583,34.9425548 C122.055044,33.7981118 122.682706,32.3537835 121.939562,31.6846529 C121.122102,30.9486093 119.794383,31.8254 118.795148,32.935163 C118.795148,32.935163 119.794383,31.8254 118.795148,32.935163 L118.795148,32.935163 L118.795148,32.935163 L118.795148,32.935163 Z M122.559278,36.5042726 C119.741696,38.9535597 118.660934,40.555558 115.266719,44.8311177 C119.986174,42.0800713 121.745093,41.1870723 124.527456,38.7684014 C125.689708,37.7580704 126.488712,36.4010008 125.832653,35.6462913 C125.110988,34.8161107 123.686311,35.5245578 122.559278,36.5042726 C122.559278,36.5042726 123.686311,35.5245578 122.559278,36.5042726 L122.559278,36.5042726 L122.559278,36.5042726 L122.559278,36.5042726 Z M125.860386,40.5055107 C122.765313,42.5931642 121.497372,44.0515098 117.607397,47.8815493 C122.626942,45.7261657 124.48158,45.0541813 127.537965,42.9926234 C128.814683,42.1314664 129.773116,40.8818862 129.213923,40.0528486 C128.598811,39.1409073 127.098416,39.6704493 125.860386,40.5055107 C125.860386,40.5055107 127.098416,39.6704493 125.860386,40.5055107 L125.860386,40.5055107 L125.860386,40.5055107 L125.860386,40.5055107 Z M129.003331,45.5307114 C125.647833,47.167297 124.18927,48.4349868 119.804113,51.6863727 C125.07478,50.2505508 127.00489,49.8432218 130.318444,48.2270935 C131.702587,47.5520019 132.825601,46.4479707 132.38723,45.5491766 C131.905021,44.5605032 130.34553,44.8760771 129.003331,45.5307114 C129.003331,45.5307114 130.34553,44.8760771 129.003331,45.5307114 L129.003331,45.5307114 L129.003331,45.5307114 L129.003331,45.5307114 Z M131.15636,50.2500002 C127.626424,51.4654547 126.02424,52.5459412 121.275525,55.2386755 C126.681887,54.4558887 128.647252,54.2868172 132.133064,53.0865559 C133.589163,52.585181 134.838353,51.6262399 134.512785,50.6807213 C134.15466,49.6406509 132.568334,49.7638184 131.15636,50.2500002 C131.15636,50.2500002 132.568334,49.7638184 131.15636,50.2500002 L131.15636,50.2500002 L131.15636,50.2500002 L131.15636,50.2500002 Z M50.8669358,53.0865559 C54.3968718,54.3020104 56.3246239,54.4369783 61.7244751,55.2386755 C56.9822716,52.5270308 55.3294521,51.4502615 51.8436403,50.2500002 C50.3875417,49.7486253 48.8127832,49.7352028 48.487215,50.6807213 C48.1290901,51.7207918 49.4549614,52.6003742 50.8669358,53.0865559 C50.8669358,53.0865559 49.4549614,52.6003742 50.8669358,53.0865559 L50.8669358,53.0865559 L50.8669358,53.0865559 L50.8669358,53.0865559 Z M52.6815557,48.2270935 C56.0370534,49.8636791 57.9339879,50.2325749 63.1958871,51.6863727 C58.8194976,48.4170109 57.3102232,47.1468397 53.9966691,45.5307114 C52.6125263,44.8556198 51.0511416,44.6503826 50.6127705,45.5491766 C50.1305622,46.5378501 51.3393566,47.5724593 52.6815557,48.2270935 C52.6815557,48.2270935 51.3393566,47.5724593 52.6815557,48.2270935 L52.6815557,48.2270935 L52.6815557,48.2270935 L52.6815557,48.2270935 Z M55.4620349,42.9926234 C58.5571085,45.0802769 60.3842417,45.7095849 65.3926029,47.8815493 C61.5138114,44.034929 60.1959988,42.5670686 57.1396136,40.5055107 C55.8628957,39.6443537 54.3452698,39.223811 53.7860769,40.0528486 C53.1709647,40.9647899 54.2240054,42.157562 55.4620349,42.9926234 C55.4620349,42.9926234 54.2240054,42.157562 55.4620349,42.9926234 L55.4620349,42.9926234 L55.4620349,42.9926234 L55.4620349,42.9926234 Z M58.4725445,38.7684014 C61.2901269,41.2176884 63.0269476,42.0649771 67.7332814,44.8311177 C64.3521869,40.5404638 63.2230842,38.9229436 60.4407216,36.5042726 C59.2784688,35.4939417 57.8234063,34.8915817 57.1673473,35.6462913 C56.4456824,36.4764718 57.3455115,37.7886865 58.4725445,38.7684014 C58.4725445,38.7684014 57.3455115,37.7886865 58.4725445,38.7684014 L58.4725445,38.7684014 L58.4725445,38.7684014 L58.4725445,38.7684014 Z M61.9754174,34.9425548 C64.473505,37.7169622 66.0941212,38.7696005 70.4282669,42.0886805 C67.5952737,37.4179567 66.6717134,35.6748902 64.2048519,32.935163 C63.1743907,31.79072 61.8035833,31.0155223 61.0604384,31.6846529 C60.2429791,32.4206966 60.9761823,33.8327919 61.9754174,34.9425548 C61.9754174,34.9425548 60.9761823,33.8327919 61.9754174,34.9425548 L61.9754174,34.9425548 L61.9754174,34.9425548 L61.9754174,34.9425548 Z M65.9184338,31.5721184 C68.0597858,34.630286 69.5400379,35.8725816 73.4373835,39.6951211 C71.194725,34.7139572 70.4904751,32.8713296 68.3758899,29.851389 C67.4925822,28.5898949 66.2264654,27.6534161 65.4073133,28.2269925 C64.5062461,28.8579266 65.061893,30.3488513 65.9184338,31.5721184 C65.9184338,31.5721184 65.061893,30.3488513 65.9184338,31.5721184 L65.9184338,31.5721184 L65.9184338,31.5721184 L65.9184338,31.5721184 Z M70.2428125,28.7073375 C71.9955063,32.0036751 73.313327,33.4171082 76.715772,37.686122 C75.0968811,32.4687756 74.6224404,30.5540562 72.8916552,27.2989228 C72.168669,25.9391835 71.0261177,24.8553842 70.1431701,25.3248557 C69.1719278,25.8412745 69.5417349,27.3888024 70.2428125,28.7073375 C70.2428125,28.7073375 69.5417349,27.3888024 70.2428125,28.7073375 L70.2428125,28.7073375 L70.2428125,28.7073375 L70.2428125,28.7073375 Z M74.8840868,26.3909194 C76.2219938,29.8762863 77.3577376,31.4397858 80.2145593,36.0916328 C79.24357,30.7158825 79.0060113,28.7576154 77.6848281,25.3158155 C77.1329415,23.8781017 76.1309884,22.6631389 75.197408,23.0215068 C74.1704695,23.4157116 74.348924,24.9967726 74.8840868,26.3909194 C74.8840868,26.3909194 74.348924,24.9967726 74.8840868,26.3909194 L74.8840868,26.3909194 L74.8840868,26.3909194 L74.8840868,26.3909194 Z M79.7730662,24.6573966 C80.6762413,28.279834 81.6129767,29.9700917 83.8815866,34.9354235 C83.572974,29.4814095 83.5758387,27.5087878 82.6839534,23.9316309 C82.3113936,22.4373755 81.4649757,21.1093615 80.49468,21.3512834 C79.4273547,21.6173975 79.4117961,23.2084216 79.7730662,24.6573966 C79.7730662,24.6573966 79.4117961,23.2084216 79.7730662,24.6573966 L79.7730662,24.6573966 L79.7730662,24.6573966 L79.7730662,24.6573966 Z M84.8368671,23.5326119 C85.291846,27.2381176 86.0156085,29.0299357 87.6621868,34.2347307 C88.0205517,28.7837596 88.2637972,26.8261907 87.8145056,23.1670039 C87.6268268,21.6384828 86.9485621,20.2172152 85.956016,20.3390846 C84.8642152,20.4731409 84.6548756,22.0504097 84.8368671,23.5326119 C84.8368671,23.5326119 84.6548756,22.0504097 84.8368671,23.5326119 L84.8368671,23.5326119 L84.8368671,23.5326119 L84.8368671,23.5326119 Z" id="sun" fill="#E94B35"></path>
            </g>
        </g>
    </g>
</svg>