<?xml version="1.0" encoding="UTF-8" standalone="no"?>
<svg width="180px" height="180px" viewBox="0 0 180 180" version="1.1" xmlns="http://www.w3.org/2000/svg" xmlns:xlink="http://www.w3.org/1999/xlink">
    <!-- Generator: Sketch 3.8.3 (29802) - http://www.bohemiancoding.com/sketch -->
    <title>malaysia</title>
    <desc>Created with Sketch.</desc>
    <defs></defs>
    <g id="Page-1" stroke="none" stroke-width="1" fill="none" fill-rule="evenodd">
        <g id="flags" transform="translate(-2070.000000, -3420.000000)">
            <g id="malaysia" transform="translate(2070.000000, 3420.000000)">
                <circle id="white" fill="#FFFFFF" cx="90" cy="90" r="90"></circle>
                <path d="M90,37.9999977 L163.466401,38 L163.466398,37.9999955 C160.144534,33.3153289 156.385845,28.9622109 152.249688,24.9999984 L152.249697,25 L90,24.9999992 L90,37.9999977 L90,37.9999977 L90,37.9999977 L90,37.9999977 L90,37.9999977 Z M90,0 C106.364074,0 121.708103,4.36733081 134.930094,12 L134.930094,12 L90,12 L90,0 L90,0 L90,0 L90,0 L90,0 Z M90,63 L175.87978,63 C174.580523,58.8633174 172.990634,54.8553404 171.134042,51 L171.134042,51 L90,51 L90,63 L90,63 L90,63 L90,63 L90,63 Z M90,89 L179.994559,89 C179.946473,84.5830414 179.580205,80.2424285 178.917595,76.0000001 L178.917595,76 L90,76 L90,89 L90,89 L90,89 L90,89 L90,89 Z M90,102 L0.793027892,102 C1.38513634,106.444045 2.30154042,110.78557 3.51766623,115 L176.482334,115 C177.69846,110.78557 178.614864,106.444045 179.206972,102 L179.206972,102 L90,102 L90,89 L90,89 L90,102 L90,102 L90,102 Z M171.60802,128 C169.655968,132.185048 167.391466,136.195047 164.844511,140 L164.844511,140 L15.155489,140 C12.6085342,136.195047 10.3440323,132.185048 8.39198002,128 L171.60802,128 L171.60802,128 L171.60802,128 L171.60802,128 L171.60802,128 Z M154.272897,153 C149.01079,158.367757 143.081606,163.079149 136.619521,167.000001 L136.619522,167 L43.3804791,167.000001 C36.9183939,163.079149 30.9892104,158.367757 25.727103,153 L154.272897,153 L154.272897,153 L154.272897,153 L154.272897,153 L154.272897,153 Z" id="red" fill="#E94B35"></path>
                <path d="M90,0 C40.2943701,0 0,40.2943701 0,90 C0,94.0687054 0.269988772,98.0743516 0.793027892,102 L90,102 L90,0 L90,0 L90,0 L90,0 L90,0 Z" id="blue" fill="#227FBB"></path>
                <path d="M66.6398317,78.6496713 C62.6758799,81.6799782 57.7214509,83.4801444 52.3465704,83.4801444 C39.3369741,83.4801444 28.7906137,72.933784 28.7906137,59.9241877 C28.7906137,46.9145914 39.3369741,36.368231 52.3465704,36.368231 C57.7214509,36.368231 62.6758799,38.1683972 66.6398317,41.1987041 C63.8079282,39.7713511 60.6079462,38.967509 57.2202166,38.967509 C45.646162,38.967509 36.2635379,48.3501331 36.2635379,59.9241877 C36.2635379,71.4982424 45.646162,80.8808664 57.2202166,80.8808664 C60.6079462,80.8808664 63.8079282,80.0770244 66.6398317,78.6496713 C66.6398317,78.6496713 63.8079282,80.0770244 66.6398317,78.6496713 L66.6398317,78.6496713 Z M63.0040326,51.0053609 L65.063106,43.3867893 L67.1221794,51.0053609 L72.3126243,45.0604724 L70.8560506,52.6414583 L77.9150784,49.5168657 L73.2901531,55.9115887 L81.176652,56.2040825 L74.2165346,59.9241877 L81.176652,63.6442929 L73.2901531,63.9367867 L77.9150784,70.3315098 L70.8560506,67.2069172 L72.3126243,74.787903 L67.1221794,68.8430146 L65.063106,76.4615862 L63.0040326,68.8430146 L57.8135877,74.787903 L59.2701614,67.2069172 L52.2111336,70.3315098 L56.8360589,63.9367867 L48.94956,63.6442929 L55.9096774,59.9241877 L48.94956,56.2040825 L56.8360589,55.9115887 L52.2111336,49.5168657 L59.2701614,52.6414583 L57.8135877,45.0604724 L63.0040326,51.0053609 L63.0040326,51.0053609 Z" id="shape" fill="#F2C500"></path>
            </g>
        </g>
    </g>
</svg>