<?xml version="1.0" encoding="UTF-8" standalone="no"?>
<svg width="180px" height="180px" viewBox="0 0 180 180" version="1.1" xmlns="http://www.w3.org/2000/svg" xmlns:xlink="http://www.w3.org/1999/xlink">
    <!-- Generator: Sketch 3.8.3 (29802) - http://www.bohemiancoding.com/sketch -->
    <title>maldives</title>
    <desc>Created with Sketch.</desc>
    <defs></defs>
    <g id="Page-1" stroke="none" stroke-width="1" fill="none" fill-rule="evenodd">
        <g id="flags" transform="translate(-2340.000000, -3420.000000)">
            <g id="maldives" transform="translate(2340.000000, 3420.000000)">
                <circle id="red" fill="#E94B35" cx="90" cy="90" r="90"></circle>
                <rect id="green" fill="#1AAF5D" x="32" y="47" width="117" height="86"></rect>
                <path d="M110.658,112.12796 C106.688895,114.583017 102.009924,116 97,116 C82.6405958,116 71,104.359404 71,90 C71,75.6405958 82.6405958,64 97,64 C102.009924,64 106.688895,65.4169833 110.658,67.8720397 C108.700911,67.3040261 106.635188,67 104.5,67 C92.0735925,67 82,77.2974501 82,90 C82,102.70255 92.0735925,113 104.5,113 C106.635188,113 108.700911,112.695974 110.658,112.12796 C110.658,112.12796 108.700911,112.695974 110.658,112.12796 L110.658,112.12796 L110.658,112.12796 L110.658,112.12796 Z" id="moon" fill="#FFFFFF"></path>
            </g>
        </g>
    </g>
</svg>