<?xml version="1.0" encoding="UTF-8" standalone="no"?>
<svg width="180px" height="180px" viewBox="0 0 180 180" version="1.1" xmlns="http://www.w3.org/2000/svg" xmlns:xlink="http://www.w3.org/1999/xlink">
    <!-- Generator: Sketch 3.8.3 (29802) - http://www.bohemiancoding.com/sketch -->
    <title>malta</title>
    <desc>Created with Sketch.</desc>
    <defs></defs>
    <g id="Page-1" stroke="none" stroke-width="1" fill="none" fill-rule="evenodd">
        <g id="flags" transform="translate(-180.000000, -3690.000000)">
            <g id="malta" transform="translate(180.000000, 3690.000000)">
                <path d="M0,90 C0,139.70563 40.2943701,180 90,180 L90,0 C40.2943701,0 0,40.2943701 0,90 L0,90 Z" id="white" fill="#FFFFFF"></path>
                <path d="M90,5.95999748e-30 C139.70563,1.7894295e-14 180,40.2943701 180,90 C180,139.70563 139.70563,180 90,180 L90,0 L90,0 L90,5.95999748e-30 L90,5.95999748e-30 L90,5.95999748e-30 Z" id="red" fill="#E94B35"></path>
                <g id="symbol" transform="translate(31.000000, 17.000000)">
                    <path d="M25,21.5 C25,21.7761478 24.5522839,22 23.9999986,22 C23.4477117,22 23,21.7761478 23,21.5 C23,21.223852 23.4477145,21 23.9999986,21 C24.5522851,21 25,21.223852 25,21.5 C25,21.5 25,21.223852 25,21.5 L25,21.5 L25,21.5 L25,21.5 L25,21.5 L25,21.5 Z" id="path2289" fill="#F1EEEE"></path>
                    <path d="M0,18.9087401 L0,33.0912596 L14.181891,33.0912596 C14.181891,35.4543693 16.5456732,37.8182653 18.9094551,37.8182653 L18.9094551,52 L33.0905443,52 L33.0905443,37.8182653 C35.4543249,37.8182653 37.8181087,35.4543693 37.8181087,33.0912596 L52,33.0912596 L52,18.9087401 L37.8181087,18.9087401 C37.8181087,16.5456292 35.4543249,14.1817335 33.0905443,14.1817335 L33.0905443,0 L18.9094551,0 L18.9094551,14.1817335 C16.5456732,14.1817335 14.181891,16.5456292 14.181891,18.9087401 L0,18.9087401 L0,18.9087401 L0,18.9087401 L0,18.9087401 L0,18.9087401 Z" id="red" fill="#E94B35"></path>
                    <path d="M1,19.8675196 L1,32.1324804 L15.1506125,32.1324804 C15.1506125,34.4903701 17.5093137,36.8491128 19.8680149,36.8491128 L19.8680149,51 L32.1319826,51 L32.1319826,36.8491128 C34.490686,36.8491128 36.8493862,34.4903701 36.8493862,32.1324804 L51,32.1324804 L51,19.8675196 L36.8493862,19.8675196 C36.8493862,17.5095598 34.490686,15.1508175 32.1319826,15.1508175 L32.1319826,1 L19.8680149,1 L19.8680149,15.1508175 C17.5093137,15.1508175 15.1506125,17.5095598 15.1506125,19.8675196 L1,19.8675196 L1,19.8675196 L1,19.8675196 L1,19.8675196 L1,19.8675196 Z" id="brow" fill="#96877D"></path>
                    <path d="M2,20.4610829 L2,31.5380797 L15.8458086,31.5380797 C15.8458086,33.8452555 18.1537051,36.1539604 20.4616,36.1539604 L20.4616,50 L31.5384016,50 L31.5384016,36.1539604 C33.8462956,36.1539604 36.1541926,33.8452555 36.1541926,31.5380797 L50,31.5380797 L50,20.4610829 L36.1541926,20.4610829 C36.1541926,18.1539784 33.8462956,15.8460384 31.5384016,15.8460384 L31.5384016,2 L20.4616,2 L20.4616,15.8460384 C18.1537051,15.8460384 15.8458086,18.1539784 15.8458086,20.4610829 L2,20.4610829 L2,20.4610829 L2,20.4610829 L2,20.4610829 L2,20.4610829 Z" id="gray" fill="#CCCCCC"></path>
                    <path d="M19.4998854,15.5000651 C20.3282623,16.3284711 20.1044122,17.8953796 18.9999092,18.9998971 C17.8954024,20.1044149 16.328492,20.3282486 15.5001143,19.4999139 C14.6717379,18.6715789 14.8955877,17.1045994 16.0000908,16.0000819 C17.1045972,14.8956353 18.6715085,14.6717304 19.4998854,15.5000651 C19.4998854,15.5000651 18.6715085,14.6717304 19.4998854,15.5000651 L19.4998854,15.5000651 Z M37.4998847,19.4998748 C36.6715095,20.3282602 35.1045989,20.1044318 34.0000904,18.9998704 C32.8955882,17.8953803 32.6717371,16.3285106 33.5001153,15.5001253 C34.3284905,14.6717398 35.8954011,14.8955683 36.9999096,16.0001293 C38.1044118,17.1046198 38.3282629,18.6714894 37.4998847,19.4998748 C37.4998847,19.4998748 38.3282629,18.6714894 37.4998847,19.4998748 L37.4998847,19.4998748 Z M33.5001138,37.4999502 C32.6717387,36.6715413 32.8955866,35.104627 34.000092,34.0001077 C35.1045943,32.8955852 36.6715048,32.67175 37.4998862,33.5000874 C38.3282613,34.3284248 38.1044134,35.8954107 36.999908,36.9998617 C35.8954027,38.1043841 34.3284921,38.3282908 33.5001138,37.4998818 C33.5001138,37.4998818 34.3284921,38.3282908 33.5001138,37.4998818 L33.5001138,37.4999502 L33.5001138,37.4999502 Z M15.5001153,33.5001048 C16.328492,32.6717739 17.8954028,32.8955357 18.9999084,34.0001179 C20.104414,35.1046317 20.3282615,36.6715336 19.4998848,37.4998645 C18.6715082,38.3282669 17.1045973,38.1044336 16.0000914,36.9998513 C14.8955858,35.8953376 14.6717386,34.3284357 15.5001153,33.5000332 C15.5001153,33.5000332 14.6717386,34.3284357 15.5001153,33.5000332 L15.5001153,33.5001048 L15.5001153,33.5001048 Z" id="brown" fill="#96877D"></path>
                    <path d="M26.5000012,35.7427987 C21.3945079,35.7427987 17.2560315,31.6043183 17.2572016,26.5000595 C17.2560396,21.3956786 21.3945097,17.2572013 26.4999982,17.2572013 C31.6054934,17.2572013 35.7439691,21.3956807 35.7427984,26.4999415 C35.7439604,31.604321 31.6054902,35.7427987 26.5000012,35.7427987 L26.5000012,35.7427987 Z M26.5000012,36.2572013 C31.8896066,36.2572013 36.2584278,31.8883724 36.257201,26.4999419 C36.2584369,21.1116296 31.8896099,16.7427987 26.4999982,16.7427987 C21.1103932,16.7427987 16.7415722,21.1116273 16.742799,26.5000591 C16.7415637,31.8883695 21.1103914,36.2572013 26.5000012,36.2572013 L26.5000012,36.2572013 Z" id="brown" fill="#96877D"></path>
                    <path d="M33.7427985,26.5000238 C33.7436948,30.4998222 30.5007423,33.7427987 26.5000025,33.7427987 C22.4992534,33.7427987 19.2562847,30.4998148 19.2572015,26.5000252 C19.2562754,22.5001781 22.4992601,19.2572013 26.5000025,19.2572013 C30.5007397,19.2572013 33.7437156,22.5001746 33.7427985,26.4999072 L33.7427985,26.5000238 Z M34.2572011,26.5000252 C34.2581834,22.2161233 30.784856,18.7427987 26.5000025,18.7427987 C22.2151438,18.7427987 18.741807,22.216127 18.7427989,26.5000258 C18.7418169,30.7838655 22.2151365,34.2572013 26.5000025,34.2572013 C30.7848591,34.2572013 34.258161,30.7838736 34.2572011,26.4999086 L34.2572011,26.5000252 Z" id="brown" fill="#96877D"></path>
                </g>
            </g>
        </g>
    </g>
</svg>