<?xml version="1.0" encoding="UTF-8" standalone="no"?>
<svg width="180px" height="180px" viewBox="0 0 180 180" version="1.1" xmlns="http://www.w3.org/2000/svg" xmlns:xlink="http://www.w3.org/1999/xlink">
    <!-- Generator: Sketch 3.8.3 (29802) - http://www.bohemiancoding.com/sketch -->
    <title>marshall_islands</title>
    <desc>Created with Sketch.</desc>
    <defs></defs>
    <g id="Page-1" stroke="none" stroke-width="1" fill="none" fill-rule="evenodd">
        <g id="flags" transform="translate(-450.000000, -3690.000000)">
            <g id="marshall_islands" transform="translate(450.000000, 3690.000000)">
                <circle id="blue" fill="#227FBB" cx="90" cy="90" r="90"></circle>
                <path d="M33.5048685,160.063219 L178.538985,73.7619265 C175.157455,55.2038644 166.084633,38.631343 153.195021,25.9188639 L23.8311318,151.006261 C26.8284878,154.255633 30.0621602,157.283712 33.5048685,160.063219 L33.5048685,160.063219 Z" id="white" fill="#FFFFFF"></path>
                <path d="M153.189317,25.9132387 L23.7994942,150.971945 C25.1510443,152.43865 26.5507161,153.860329 27.9960043,155.234479 L168.520383,45.9836629 C164.362957,38.5831606 159.189587,31.8300043 153.189317,25.9132387 L153.189317,25.9132387 Z" id="orange" fill="#E87E04"></path>
                <polygon id="star" fill="#FFFFFF" points="35 119.5 33.72 98.212 29.256 109.94 31.248 97.556 23.896 107.724 29.032 96.276 19.304 104.196 27.224 94.468 15.776 99.596 25.944 92.252 13.552 94.244 25.28 89.78 4 88.5 25.28 87.22 13.552 82.756 25.944 84.748 15.776 77.396 27.224 82.532 19.304 72.804 29.032 80.724 23.896 69.276 31.248 79.444 29.256 67.06 33.72 78.78 35 57.5 36.28 78.78 40.744 67.06 38.752 79.444 46.096 69.276 40.96 80.724 50.696 72.804 42.776 82.532 54.224 77.396 44.056 84.748 56.44 82.756 44.712 87.22 66 88.5 44.712 89.78 56.44 94.244 44.056 92.252 54.224 99.596 42.776 94.468 50.696 104.196 40.96 96.276 46.096 107.724 38.752 97.556 40.744 109.94 36.28 98.212 35 119.5"></polygon>
            </g>
        </g>
    </g>
</svg>