<?xml version="1.0" encoding="UTF-8" standalone="no"?>
<svg width="180px" height="180px" viewBox="0 0 180 180" version="1.1" xmlns="http://www.w3.org/2000/svg" xmlns:xlink="http://www.w3.org/1999/xlink">
    <!-- Generator: Sketch 3.8.3 (29802) - http://www.bohemiancoding.com/sketch -->
    <title>mauritania</title>
    <desc>Created with Sketch.</desc>
    <defs></defs>
    <g id="Page-1" stroke="none" stroke-width="1" fill="none" fill-rule="evenodd">
        <g id="flags" transform="translate(-720.000000, -3690.000000)">
            <g id="mauritania" transform="translate(720.000000, 3690.000000)">
                <circle id="green" fill="#1AAF5D" cx="90" cy="90" r="90"></circle>
                <path d="M90.0027615,62 L78.2478695,68.1803406 L80.4928536,55.0901703 L70.9829448,45.8196606 L84.1253171,43.9098287 L90.0027622,32 L95.8802108,43.9098316 L109.022582,45.8196701 L99.5126695,55.0901728 L101.757654,68.1803408 L90.0027615,62 L90.0027615,62 Z M137.906559,41.6376369 C139.268397,46.1866369 140,51.0078809 140,56 C140,83.6142389 117.614239,106 90,106 C62.3857611,106 40,83.6142389 40,56 C40,51.0078809 40.7316032,46.1866369 42.0934408,41.6376369 C42.0314544,42.5842112 42,43.5386236 42,44.5 C42,69.6289574 63.4903307,90 90,90 C116.509669,90 138,69.6289574 138,44.5 C138,43.5386236 137.968546,42.5842112 137.906559,41.6376369 C137.906559,41.6376369 137.968546,42.5842112 137.906559,41.6376369 L137.906559,41.6376369 Z" id="star" fill="#F2C500"></path>
            </g>
        </g>
    </g>
</svg>