<?xml version="1.0" encoding="UTF-8" standalone="no"?>
<svg width="180px" height="180px" viewBox="0 0 180 180" version="1.1" xmlns="http://www.w3.org/2000/svg" xmlns:xlink="http://www.w3.org/1999/xlink">
    <!-- Generator: Sketch 3.8.3 (29802) - http://www.bohemiancoding.com/sketch -->
    <title>mauritius</title>
    <desc>Created with Sketch.</desc>
    <defs></defs>
    <g id="Page-1" stroke="none" stroke-width="1" fill="none" fill-rule="evenodd">
        <g id="flags" transform="translate(-990.000000, -3690.000000)">
            <g id="mauritius" transform="translate(990.000000, 3690.000000)">
                <path d="M167.954449,135 L12.0400269,135 C27.6009907,161.901074 56.6855627,180 89.9972382,180 C123.308914,180 152.393486,161.901074 167.954435,135.000025 L167.954449,135 Z" id="green" fill="#1AAF5D"></path>
                <path d="M12.0400269,135 L167.954449,135 C175.611863,121.762218 179.994476,106.392932 179.994476,90 L0,90 C0,106.392932 4.3826134,121.762218 12.0400414,135.000025 L12.0400269,135 Z" id="yellow" fill="#F2C500"></path>
                <path d="M0,90 L179.994476,90 C179.994476,73.6070678 175.611863,58.2377819 167.954435,44.9999749 L12.0400269,45 C4.3826134,58.2377819 0,73.6070678 0,90 L0,90 Z" id="blue" fill="#227FBB"></path>
                <path d="M12.0400269,45 L167.954449,45 C152.393486,18.0989265 123.308914,0 89.9972382,0 C56.6855627,0 27.6009907,18.0989265 12.0400414,44.9999749 L12.0400269,45 Z" id="red" fill="#E94B35"></path>
            </g>
        </g>
    </g>
</svg>