<?xml version="1.0" encoding="UTF-8" standalone="no"?>
<svg width="180px" height="180px" viewBox="0 0 180 180" version="1.1" xmlns="http://www.w3.org/2000/svg" xmlns:xlink="http://www.w3.org/1999/xlink">
    <!-- Generator: Sketch 3.8.3 (29802) - http://www.bohemiancoding.com/sketch -->
    <title>micronesia</title>
    <desc>Created with Sketch.</desc>
    <defs></defs>
    <g id="Page-1" stroke="none" stroke-width="1" fill="none" fill-rule="evenodd">
        <g id="flags" transform="translate(-1530.000000, -3690.000000)">
            <g id="micronesia" transform="translate(1530.000000, 3690.000000)">
                <circle id="blue" fill="#2C97DE" transform="translate(90.000000, 90.000000) scale(1, -1) translate(-90.000000, -90.000000) " cx="90" cy="90" r="90"></circle>
                <path d="M89.9999997,48.25 L80.5954367,53.0397639 L82.391548,42.894882 L74.7830956,35.7102369 L85.2977195,34.2301172 L90.0000002,25 L94.7022838,34.2301195 L105.216907,35.7102443 L97.6084514,42.8948839 L99.404563,53.0397642 L89.9999997,48.25 L89.9999997,48.25 Z M89.9999997,145.25 L80.5954367,150.039764 L82.391548,139.894882 L74.7830956,132.710237 L85.2977195,131.230117 L90.0000002,122 L94.7022838,131.23012 L105.216907,132.710244 L97.6084514,139.894884 L99.404563,150.039764 L89.9999997,145.25 L89.9999997,145.25 Z M39.3948814,97.8706881 L31.930729,105.332194 L30.5039914,95.1288091 L21.0477457,90.6469467 L30.5903652,85.9900717 L32.2102368,75.7586239 L39.534638,83.0839037 L49.9920226,81.2423888 L44.9761271,90.4265292 L49.8192711,99.5198545 L39.3948814,97.8706881 L39.3948814,97.8706881 Z M140.605118,97.870688 L130.180729,99.5198545 L135.023873,90.4265272 L130.007982,81.2423827 L140.465365,83.0839024 L147.789763,75.758624 L149.409637,85.990075 L158.952254,90.6469545 L149.496007,95.1288106 L148.069271,105.332194 L140.605118,97.870688 L140.605118,97.870688 Z" id="stars" fill="#FFFFFF"></path>
            </g>
        </g>
    </g>
</svg>