<?xml version="1.0" encoding="UTF-8" standalone="no"?>
<svg width="180px" height="180px" viewBox="0 0 180 180" version="1.1" xmlns="http://www.w3.org/2000/svg" xmlns:xlink="http://www.w3.org/1999/xlink">
    <!-- Generator: Sketch 3.8.3 (29802) - http://www.bohemiancoding.com/sketch -->
    <title>moldova</title>
    <desc>Created with Sketch.</desc>
    <defs></defs>
    <g id="Page-1" stroke="none" stroke-width="1" fill="none" fill-rule="evenodd">
        <g id="flags" transform="translate(-1800.000000, -3690.000000)">
            <g id="moldova" transform="translate(1800.000000, 3690.000000)">
                <path d="M120.000001,174.878829 C154.955772,162.523738 180,129.186567 180,90 C180,50.8134331 154.955772,17.4762623 120,5.12117078 L120,174.878833 L120,174.878833 L120.000001,174.878829 L120.000001,174.878829 L120.000001,174.878829 Z" id="red" fill="#E94B35"></path>
                <path d="M120.000001,174.878829 C110.616633,178.195374 100.519063,180 90,180 C79.480937,180 69.3833674,178.195374 59.9999996,174.878829 L60,5.12116698 C69.3833673,1.80462645 79.480937,0 90,0 C100.519063,0 110.616633,1.80462645 120,5.12117078 L120,174.878833 L120,174.878833 L120.000001,174.878829 L120.000001,174.878829 L120.000001,174.878829 Z" id="yellow" fill="#F2C500"></path>
                <path d="M59.9999996,5.12117078 C25.0442275,17.4762623 0,50.8134331 0,90 C0,129.186567 25.0442275,162.523738 59.9999996,174.878829 L60,5.12116698 L60,5.12116698 L59.9999996,5.12117078 L59.9999996,5.12117078 L59.9999996,5.12117078 Z" id="blue" fill="#227FBB"></path>
                <g id="emblem" transform="translate(70.000000, 64.000000)">
                    <polygon id="path2778" stroke="#000000" stroke-width="0.5" fill="#B07F55" points="14.112369 12.9723295 11.5404612 11.5993178 9.91530398 11.5093677 9.80377358 8.32233444 6.68796646 5.78769384 3.51077568 9.25806988 3.0569392 10.2789185 3.20268344 41.8513977 5.2591195 39.3336439 5.69048218 39.4414143 7.81408805 37.1162895 9.61844864 32.5118636 10.1509434 30.6008486 12.5828092 33.5098003 11.6637317 35.2281864 12.4989518 35.165391 12.5719078 35.8858403 13.3392034 35.556589 13.5463312 36.5494343 15.2385744 34.8140765 17.5924528 35.9876705 13.1262055 44.0399002 11.5354298 45.2304659 14.4033543 46.3192013 17.3459119 42.8493344 16.9199161 45.1286356 16.045283 47.3400499 19.6259958 49.4267221 23.515304 47.1015973 21.6041929 43.0419634 22.2264151 42.7525957 24.7480084 46.4498835 27.4943396 45.0717804 23.9245283 40.8475208 21.5765199 35.7670383 24.0528302 34.9388186 25.7400419 36.5774376 25.9916143 35.511614 26.8830189 35.947787 26.7706499 35.0584692 27.667086 35.2561897 26.5744235 33.5038602 29.3484277 31.1515807 31.1018868 36.6962396 33.6855346 39.6849584 34.2339623 39.6170715 36.112369 41.9642596 36.0947589 9.43372712 32.6255765 5.74229451 29.2587002 8.52064892 29.3987421 11.5144592 27.8859539 11.5713145 25.633543 12.739817 24.372327 13.1590183 23.7786164 13.2786689 23.0054507 12.4275374 21.9681342 10.3298336 21.9010482 8.25996339 22.5400419 6.91054243 22.4218029 5.63460899 22.9945493 5.64598003 22.6297694 4.78390183 23.1345912 4.58007155 22.3781971 3.90510649 22.6415094 3.59333611 19.7836478 2.35151581 17.6033543 2.20411647 17.0146751 2.464802 16.7295597 3.00356905 17.306499 4.65372879 16.6901468 5.27743927 17.3006289 6.48514642 17.3232704 9.13332779 16.8360587 11.3676539 15.8549266 13.057188 15.3400419 13.2557571"></polygon>
                    <path d="M14.7781971,0.155350582 C14.610717,0.155350582 14.4631363,0.187022346 14.3387338,0.227714576 C14.5048302,0.373841032 14.6147673,0.585724393 14.6147673,0.827673145 L14.6147673,1.57756832 C14.6147673,1.58829275 14.6116969,1.59851566 14.609617,1.60863844 L14.609617,1.72750832 L14.4920489,1.72750832 C14.4820455,1.72961307 14.4718443,1.73261986 14.4614443,1.73272008 L14.3949856,1.73272008 L14.1751114,1.73272008 L13.7204028,1.73272008 C13.4840841,1.73272008 13.2772833,1.6232695 13.1327717,1.45860144 C13.0912724,1.58578747 13.0561118,1.73101442 13.0561118,1.9034046 C13.0561118,2.07288414 13.0874099,2.22222673 13.1276221,2.34811442 C13.2720246,2.18003505 13.4813076,2.06898064 13.7204019,2.06898064 L14.1751105,2.06898064 L14.2722761,2.06898064 L14.4613495,2.06898064 L14.6147667,2.06898064 C14.6137763,2.0845157 14.6096164,2.09955009 14.6096164,2.11538555 L14.6096164,2.19296071 C14.6116964,2.20308349 14.6146677,2.2133064 14.6147667,2.22393069 L14.6147667,2.51368876 L14.6147667,4.85120291 L14.6147667,5.82860391 C14.6147667,6.06263535 14.4955214,6.24675299 14.3387332,6.39227695 C14.4508506,6.4622352 14.5474208,6.55033452 14.6300204,6.65095981 C14.7036103,6.74035831 14.7328296,6.82785599 14.7833453,6.9197663 C14.8339566,6.82805965 14.8630761,6.74035831 14.9366703,6.65095981 C15.0179852,6.55213352 15.113165,6.46714767 15.2229093,6.39748727 C15.0647374,6.25236214 14.9468757,6.06363668 14.9468757,5.82860391 L14.9468757,4.14271871 L14.9468757,2.51360391 L14.9468757,2.4722099 L14.9468757,2.22394767 L14.9468757,2.07390923 L15.0695927,2.07390923 C15.0795961,2.0719047 15.0896984,2.06889791 15.1001973,2.06889791 L15.3864363,2.06889791 L15.8412455,2.06889791 C16.0774636,2.06889791 16.2842728,2.17834849 16.4288766,2.34291471 C16.470277,2.21583052 16.5056355,2.07069691 16.5056355,1.8982049 C16.5056355,1.72881871 16.4742384,1.57938277 16.4340262,1.45349508 C16.2896237,1.62157445 16.0803407,1.73262886 15.8412464,1.73262886 L15.3864371,1.73262886 L15.1001982,1.73262886 C15.0896992,1.73262886 15.0794979,1.72952184 15.0695935,1.7274171 L14.9520254,1.7274171 L14.9520254,1.60854721 C14.9499455,1.59852457 14.9469742,1.58820152 14.9468751,1.5774771 L14.9468751,0.827683752 C14.9468751,0.588543819 15.0551267,0.379367446 15.2177598,0.232935499 C15.0920743,0.191140957 14.9486529,0.155360341 14.7782965,0.155360341 L14.7781975,0.155260115 L14.7781975,0.155360341 L14.7781971,0.155350582 L14.7781971,0.155350582 L14.7781971,0.155350582 L14.7781971,0.155350582 L14.7781971,0.155350582 Z" id="path2303" stroke="#000000" stroke-width="0.1" fill="#F5D402"></path>
                    <polygon id="path2516" fill="#D10429" points="12.0368973 35.2816473 9.88092243 38.6174376 8.83522013 38.5851913 7.75756813 39.0985857 7.40872117 40.2857571 7.56721174 40.8305491 8.73962264 42.1136106 9.69056604 41.56797 10.4519916 40.7346589 10.6415094 39.9963894 13.3677149 36.4043261 13.2410901 35.5056739 12.6389937 35.8909318 12.4167715 35.1535108 12.0368973 35.2816473 12.0368973 35.2816473 12.0368973 35.2816473"></polygon>
                    <rect id="rect2288" stroke="#000000" stroke-width="0.1" fill="#F5D402" transform="translate(10.578344, 42.481053) rotate(28.599335) translate(-10.578344, -42.481053) " x="10.0070292" y="41.9029379" width="1.14262881" height="1.15623089"></rect>
                    <polygon id="path2754" fill="#0B45BB" points="10.1031447 23.5737105 10.1350105 31.4324626 10.7052411 32.3625125 14.3186583 34.382995 18.9467505 36.5324626 19.548847 37.1739933 23.5438155 34.9608819 28.2339623 32.7155241 29.1220126 31.3357238 29.1220126 23.6059567 10.1031447 23.5737105 10.1031447 23.5737105 10.1031447 23.5737105"></polygon>
                    <path d="M10.1218449,14.8221784 L10.0656872,23.8468872 L10.3978801,24.2191278 L13.1422826,24.550178 L16.1115069,24.1104834 C16.1115069,24.1104834 17.8356998,24.3798923 19.0247145,24.5658175 C19.025903,24.5718311 19.0604696,24.7467275 19.0604696,24.7467275 C19.0604696,24.7467275 19.4918071,24.6801771 19.6276981,24.6587291 C19.7613082,24.6796765 20.18987,24.7467275 20.18987,24.7467275 L20.2256252,24.5658175 C21.414556,24.3799008 23.1388327,24.1104834 23.1388327,24.1104834 L26.108057,24.550178 L28.8524595,24.2191278 L29.1846524,23.8468872 L29.128395,14.8221784 L29.3686801,14.1136772 L26.0825585,14.139335 L19.6278834,14.2066873 L13.1680092,14.139335 L9.88188763,14.1136772 C9.71423324,13.8744048 10.1218449,14.8221784 10.1218449,14.8221784 L10.1218449,14.8221784 L10.1218449,14.8221784 L10.1218449,14.8221784 L10.1218449,14.8221784 Z" id="path2355" fill="#D10429"></path>
                    <path d="M23.0725367,15.1438602 L23.475891,16.5949418 L24.1031447,18.4550416 L24.1928721,20.2243428 L23.475891,21.4946755 L22.1761006,22.038619 L21.4591195,22.2651913 L20.6071279,21.8120466 L19.6654088,22.4018136 L18.6348008,21.7670715 L17.7828092,22.3568386 L17.2444444,21.9936439 L16.3035639,21.8578702 L15.227673,20.7233111 L15.0037736,18.6824626 L16.3035639,15.0530616 L14.6893082,16.3683694 L13.2997904,18.2734443 L13.2997904,20.7682862 L14.2859539,22.4467887 L16.0796646,23.6263228 L16.5727463,23.7629451 L15.7207547,25.3506489 L17.2,25.8037937 L17.9622642,26.5751581 L18.3656184,28.1170383 L18.275891,31.4290682 L17.8272537,32.2004326 L16.8410901,32.8809983 L16.7966457,33.5157404 L17.8725367,34.1963062 L18.8134172,34.966822 L20.2037736,35.0126456 L21.4138365,34.1504825 L22.4444444,33.5607155 L22.1761006,32.6535774 L21.1002096,31.7922629 L20.8754717,29.1607987 L21.1890985,26.530183 L22.7589099,25.5322463 L23.5656184,25.2598502 L22.7144654,23.6263228 L24.0142558,23.173178 L25.448218,21.9028453 L26.1207547,19.3621797 L25.7174004,17.8202995 L24.7312369,16.5499667 L23.0725367,15.1438602 L23.0725367,15.1438602 Z M10.8343816,24.1711148 L12.3136268,23.5813478 L13.3450734,22.7650083 L14.0620545,23.5355241 L15.4968553,24.1252912 L14.3312369,24.8058569 L13.2997904,25.712995 L12.4033543,25.0332779 L10.8343816,24.1711148 L10.8343816,24.1711148 Z M25.8968553,22.8099834 L25.2243187,23.5355241 L23.7895178,24.1252912 L25.1345912,24.9874542 L25.9865828,25.7588186 L26.9283019,24.9874542 L28.4519916,24.2160899 L26.8830189,23.5813478 L25.8968553,22.8099834 L25.8968553,22.8099834 Z M19.6209644,15.3704326 L19.172327,16.7315641 L17.8725367,16.0959734 L18.4553459,17.4121298 L17.2,17.9110982 L18.4553459,18.3642429 L17.9169811,19.6803993 L19.1278826,19.0448087 L19.6209644,20.4059401 L20.1140461,19.0448087 L21.324109,19.5896007 L20.7857442,18.3642429 L22.0410901,17.9110982 L20.8310273,17.3663062 L21.369392,16.0509983 L20.1140461,16.686589 L19.6209644,15.3704326 L19.6209644,15.3704326 Z M16.9308176,26.5072712 L17.5580713,27.1420133 L16.9761006,27.7317804 L16.3706499,27.1191015 L16.9308176,26.5072712 L16.9308176,26.5072712 Z M22.332914,26.4385358 L21.7048218,27.0970383 L22.2658281,27.7097171 L22.9375262,27.1191015 L22.332914,26.4385358 L22.332914,26.4385358 Z M22.7815514,28.1170383 L21.6603774,28.3894343 L21.369392,29.0470882 L21.3467505,30.862213 L21.8171908,31.8830616 L22.4444444,32.154609 L22.3555556,29.7734775 L22.7815514,28.1170383 L22.7815514,28.1170383 Z M16.4830189,28.1399501 L16.8863732,30.1587354 L16.8863732,32.1096339 L17.4465409,31.7014642 L17.8272537,30.8163894 L17.8943396,29.2745092 L17.6033543,28.3444592 L16.4830189,28.1399501 L16.4830189,28.1399501 Z M26.7706499,29.7505657 L25.4708595,29.1158236 L24.2155136,29.387371 L23.5656184,30.1587354 L23.4985325,31.4061564 L24.4176101,32.4948918 L24.6415094,32.5627787 L24.6188679,31.3832446 L25.6050314,30.0229617 L26.7706499,29.7505657 L26.7706499,29.7505657 Z M14.3983229,29.3194842 L14.2641509,28.7755408 L13.5689727,28.3665225 L12.9861635,28.5939434 L12.6943396,29.2057737 L12.8519916,29.7505657 L12.2465409,29.6826789 L11.7534591,30.1587354 L11.6863732,30.7934775 L12.0226415,31.2024958 L12.4930818,31.3611814 L12.7622642,31.3382696 L12.5383648,31.9051248 L12.7169811,32.47198 L13.2779874,32.7901997 L13.9052411,32.6315141 L14.2415094,31.9959235 L14.7790356,32.3591181 L15.4289308,32.2224958 L15.8549266,31.5648419 L15.5639413,30.9530116 L15.2503145,30.7026789 L15.6981132,30.4540433 L15.8775681,29.7055907 L15.2721174,29.0021131 L14.6893082,29.0929118 L14.3983229,29.3194842 L14.3983229,29.3194842 Z" id="path2762" fill="#F2C500"></path>
                    <path d="M17.0834382,2.24999101 C16.8014591,2.4394208 16.8243354,2.68577371 16.7256939,2.77227005 C16.4931405,2.97593062 16.0946834,2.96871764 15.9028344,2.96871764 C14.6609057,2.96871764 14.6149518,4.31347138 14.6149518,4.31347138 C14.6149518,4.31347138 14.9324864,3.82727421 15.4939455,3.82727421 C16.4274465,3.82727421 17.1344486,4.3418396 17.1344486,4.53577537 C17.1344486,4.61425258 17.0381803,4.62878885 17.0323354,4.62878885 C16.4226164,4.62878885 15.5022725,4.27358785 15.0135514,4.25644642 L15.0135514,4.45298735 C16.1047883,4.88366436 17.2111195,5.42759082 17.2111195,7.8248454 C17.2111195,9.33447934 17.0325451,10.8746624 16.2861719,12.086273 C16.0218197,12.5153434 15.6454507,12.8824755 15.1925031,13.2086125 C14.9909518,13.1469729 14.043153,12.8489988 13.3782474,12.4742549 C12.2076813,11.8143607 11.6007212,11.1578439 10.2096101,11.0934362 L10.2096101,10.0228605 C10.2096101,9.45086287 10.4141384,8.93556769 10.4141384,8.38865421 C9.82769811,8.22959531 8.20013417,6.21559598 6.69866667,5.32178067 C4.48935849,6.76989215 2.77883438,9.14695039 2.77883438,10.2400985 C2.77883438,10.2400985 2.84519413,33.7289504 2.77883438,41.9110136 C2.77883438,42.3825812 2.49784486,43.0487973 2.49784486,43.0487973 C3.30436059,42.7035163 4.78279245,40.6565494 5.09398742,39.878566 L5.09398742,40.2510103 C6.31201677,39.6889411 7.20392453,38.2120286 7.60325367,37.447962 C7.61038482,37.5584139 7.6289065,37.8356384 7.6289065,37.8356384 C8.71704067,36.8703722 10.1023656,31.1643971 10.1023656,31.1643971 L10.0308553,29.9645818 C8.99345507,31.9830622 9.07278407,34.6233173 7.98154717,35.5809462 L7.98154717,15.5203805 L8.84527883,16.3322139 L10.1535388,15.0962489 L10.1535388,14.1549976 L8.99345493,15.2512855 L8.99345493,12.4120875 C9.16826415,12.144486 9.28414675,11.9447289 9.37160168,11.7863743 C9.55939203,12.1176198 10.1662348,13.1329101 10.8791908,13.7567903 C10.996457,13.2740978 11.768499,12.8154542 11.768499,12.8154542 C11.768499,12.8154542 12.0451279,13.573971 12.4685409,13.761797 C12.6175052,13.4963 13.506109,12.9085441 13.506109,12.9085441 C13.506109,12.9085441 12.7458491,13.0254113 12.4379329,13.317172 C12.1734885,13.2572364 12.10574,12.200009 12.10574,12.200009 C12.10574,12.200009 10.986914,12.7514539 10.7924486,13.1463517 C10.5791069,13.0879198 10.2470147,12.238365 10.1176646,11.8895963 C10.3128847,11.8680473 10.5884235,11.8430913 10.9507212,11.8430913 C11.26974,11.8430913 11.678,11.9960404 12.1056897,12.1998961 C12.5755597,12.4238039 13.0671153,12.70724 13.506109,12.9084991 C14.0683816,13.1660788 14.9189392,13.2184026 15.1669895,13.2291287 C14.8829308,13.4311854 14.5707463,13.6156001 14.2318952,13.7876933 C14.2318952,13.7876933 15.5706792,13.7751647 16.5112243,13.3014961 C16.8467883,13.0831041 17.1949308,12.8655097 17.4924403,12.6085325 C17.3633836,12.9715575 17.1624277,13.4004242 16.8483564,13.7669369 C18.2296562,13.6486695 18.9173711,12.8504643 19.1124235,12.5826507 C19.2040377,12.8225968 19.3672662,13.207668 19.6234927,13.5393462 C19.8798197,13.2076934 20.0479958,12.8226222 20.1397107,12.5826507 C20.3349308,12.8504558 21.022478,13.648644 22.4036939,13.7669369 C22.0897233,13.4004072 21.8887589,12.9715405 21.7598029,12.6085325 C22.0572285,12.8654164 22.4055723,13.0831041 22.7410189,13.3014961 C23.6814801,13.7751681 25.0204319,13.7876933 25.0204319,13.7876933 C24.681304,13.6156001 24.3639623,13.4306848 24.0801384,13.2291287 C24.3188386,13.2198078 25.1793417,13.1681909 25.7461342,12.9084991 C26.1850021,12.7072485 26.6765325,12.4238039 27.1463019,12.1998961 C27.5740755,11.9960319 27.9824361,11.8430913 28.3014382,11.8430913 C28.6637442,11.8430913 28.9391824,11.8680473 29.1344025,11.8895963 C29.005153,12.238382 28.673153,13.0878842 28.4597107,13.1463517 C28.265086,12.7514624 27.1462516,12.200009 27.1462516,12.200009 C27.1462516,12.200009 27.0785057,13.257177 26.8141593,13.317172 C26.5062348,13.0254113 25.7459832,12.9085441 25.7459832,12.9085441 C25.7459832,12.9085441 26.6345367,13.4962745 26.7833836,13.761797 C27.2068973,13.573971 27.478478,12.8154542 27.478478,12.8154542 C27.478478,12.8154542 28.2555765,13.2741912 28.3728176,13.7567903 C29.0858407,13.1327828 29.6924822,12.1179168 29.8804067,11.7863743 C29.9711321,11.9498459 30.0923648,12.1575118 30.2585535,12.4120875 L30.2585535,15.2512855 L29.0985535,14.1549976 L29.0985535,15.0962489 L30.4068134,16.3322139 L31.2705451,15.5203805 L31.2705451,35.5809462 C30.1790566,34.6233173 29.2212369,29.9645818 29.2212369,29.9645818 C29.2212369,29.9645818 28.7304462,28.5413278 28.8378237,31.1643967 C28.9452012,33.7874655 30.5350214,36.8703722 31.6231556,37.8356384 C31.6231556,37.8356384 31.6415774,37.5584139 31.6487086,37.447962 C32.0480545,38.2119862 32.9401132,39.6889071 34.1579748,40.2510103 L34.1579748,39.878566 C34.4691698,40.6566258 35.9475765,42.7035927 36.7540335,43.0487973 C36.7540335,43.0487973 36.473044,42.3825897 36.473044,41.9110136 C36.4066843,33.7282715 36.473044,10.2400985 36.473044,10.2400985 C36.473044,9.14678067 34.7625199,6.76989215 32.5532117,5.32178067 C31.0520797,6.21559598 29.424239,8.2295444 28.8378239,8.38865421 C28.8378239,8.93559315 29.0421509,9.45082892 29.0421509,10.0228605 L29.0421509,11.0882599 C27.6541426,11.1541084 27.0431572,11.8150056 25.8735975,12.4743397 C25.2043564,12.8516888 24.2464277,13.150671 24.0543941,13.2086973 C23.6016646,12.8832647 23.2300503,12.5155301 22.9659245,12.0863579 C22.3297652,11.0536291 22.0613543,9.78575721 22.0613543,8.49734956 C22.0613543,7.95271877 22.6643396,7.3396241 22.6643396,6.89920812 C22.6643396,6.23350114 22.6030314,5.83397851 22.6030314,5.83397851 C22.8169686,5.8634448 23.1907631,6.24761312 23.1907631,6.24761312 C23.1907631,6.24761312 23.1778876,5.14258483 22.8329182,4.94961644 C22.8329182,4.94961644 22.9724738,4.80438949 23.4769015,4.78925072 C23.3351656,4.42592876 22.6337149,3.98252576 22.6337149,3.98252576 C22.6687765,3.91898197 22.7335556,3.86405471 22.8176394,3.81705155 C22.9938407,3.71842892 23.2414465,3.65338483 23.4308218,3.61529182 C23.2289686,3.57299661 22.9964151,3.50814939 22.7409769,3.42385937 C22.1578071,3.23162077 21.4712075,2.94938966 20.8296143,2.63788233 C19.6584612,2.06929598 18.766218,2.03271345 18.2743103,2.03271345 C17.9172579,2.03270216 17.3916143,2.04262468 17.0834382,2.24999101 C17.0834382,2.24999101 17.3916143,2.04262468 17.0834382,2.24999101 L17.0834382,2.24999101 L17.0834382,2.24999101 L17.0834382,2.24999101 Z M18.5961107,2.36375386 C19.7400101,2.36375386 20.5445384,2.89144687 21.6268864,3.3773046 C21.9105509,3.50459246 22.1709367,3.60772956 22.4034901,3.6875051 C22.2577962,3.81810244 22.1444881,3.94939562 22.1122029,4.05994936 C22.1122029,4.05994936 22.5973182,4.15085835 22.8173937,4.56168414 C22.8173937,4.56168414 22.3561442,4.61460364 22.2807732,4.88742224 C22.5390792,4.90716713 22.7958004,5.23661525 22.7969912,5.55463123 L22.1428025,5.34766118 L22.3012763,6.89921525 C22.3012763,6.89921525 21.7136453,7.79778264 21.7136453,8.49727183 C21.7136453,10.6928176 22.2601694,11.5368209 22.6489073,12.2156046 C22.8009409,12.4812034 22.9245468,12.7867961 23.180379,13.0172211 C22.0604629,12.4138597 21.2280939,11.6595688 21.2280939,10.9589765 L21.2280939,8.30595818 L20.9368067,8.30595818 L20.9368067,10.9589765 C20.9368067,11.4670247 21.0594231,11.7036613 21.0594231,11.7036613 C21.2352302,12.2657306 21.5905929,13.1332737 21.810769,13.4827212 C20.7804126,12.9192434 20.2570583,12.2135765 20.2570583,11.9519575 L20.2570583,8.30592424 L19.9657711,8.30592424 L19.9657711,12.0035515 L20.0219287,12.2569222 C19.8970314,12.4468527 19.7347002,12.6717618 19.6232788,12.7482364 C19.5121509,12.6718637 19.3547673,12.4465557 19.2296771,12.2569222 L19.2859346,12.0035515 L19.2859346,8.30592424 L18.9946474,8.30592424 L18.9946474,11.9519575 C18.9946474,12.213551 18.4712008,12.9192603 17.4410205,13.4827212 C17.661096,13.1333331 18.0164671,12.2657645 18.1921736,11.7036613 C18.1921736,11.7036613 18.3148906,11.4670247 18.3148906,10.9589765 L18.3148906,8.30595818 L18.0236034,8.30595818 L18.0236034,10.9589765 C18.0236034,11.6587627 17.1943036,12.4141312 16.0764335,13.0172211 C16.3296914,12.7866009 16.4515111,12.4797099 16.6027564,12.2156046 C17.0278549,11.4733297 17.5533644,10.5303134 17.5533644,7.84564287 C17.5533644,6.83803222 17.4060855,6.15305386 17.1496579,5.67351808 C17.0717099,5.51535868 16.9666222,5.09430743 17.5635614,5.09430743 C17.8727774,5.09430743 18.5806683,5.64766168 18.5806683,5.64766168 C18.5806683,5.64766168 18.5515497,5.20606617 18.1922155,4.95469811 C18.1325912,4.91300371 18.0338423,4.78170544 18.0338423,4.65983156 C18.0338423,4.56852374 18.1886516,4.34311392 18.309683,4.28748913 C18.3928805,4.24930277 17.0934147,4.02018464 17.0934147,3.42379861 C17.0934147,3.29961658 17.1705702,3.21693039 17.4407606,3.21693039 C17.7946474,3.21693039 18.3704042,3.64620444 18.8821862,3.64620444 C19.2604335,3.64620444 19.4095992,3.55309762 19.796987,3.55309762 C20.270421,3.55309762 21.2579514,4.46015086 21.595813,4.42705602 C21.218161,4.18710993 20.6080562,3.27891958 19.6845342,3.27891958 C19.364031,3.27891958 19.0738256,3.35138371 18.7746809,3.35138371 C18.3912847,3.35138371 18.0137249,2.99447705 17.599335,2.99447705 C17.3216159,2.99447705 17.0114105,3.01011224 16.9655488,2.93754798 C16.8852243,2.81076079 16.9575263,2.7371969 17.0320075,2.63245597 C17.1726532,2.43471004 17.5677392,2.3773796 17.9572067,2.36364948 C18.0739782,2.3595402 18.1906574,2.35743546 18.2995044,2.35843772 C18.4083203,2.35954436 18.5090499,2.36375386 18.5961107,2.36375386 C18.5961107,2.36375386 18.5090499,2.36375386 18.5961107,2.36375386 L18.5961107,2.36375386 L18.5961107,2.36375386 L18.5961107,2.36375386 Z M9.44333082,8.49186956 L9.46878491,9.13312031 L9.46878491,11.020884 C8.96771992,10.8463894 8.33805115,10.0134431 8.03281006,9.57277255 L8.03281006,9.31419152 C8.03281006,9.07094443 8.17424403,8.8932421 8.27804277,8.79702097 L7.9765501,8.68847838 C7.86155639,8.82107838 7.73636562,9.01811998 7.73636562,9.27279751 L7.73636562,9.42283595 L7.63930063,9.52637189 L7.58819371,9.58330096 L6.83694004,10.4002514 L5.95291488,9.0453146 L5.95291488,8.71436618 C5.95291488,8.49126452 6.12238239,8.24260345 6.26470524,8.07311543 L5.96816855,7.96447101 C5.81851656,8.1606131 5.66152704,8.42501543 5.66152704,8.67297217 L5.66152704,8.94177866 C5.45353543,9.15956818 4.64450398,10.0020865 4.64450398,10.0020865 L4.12838658,8.87983191 C4.74780797,8.01155903 5.7522021,7.03924954 6.69895262,6.34052408 L9.44333082,8.49186956 L9.44333082,8.49186956 L9.44333082,8.49186956 L9.44333082,8.49186956 L9.44333082,8.49186956 Z M35.123834,8.87983827 C35.013595,9.11937704 34.6076159,10.0020928 34.6076159,10.0020928 C34.6076159,10.0020928 33.7987187,9.15958303 33.5907606,8.94186988 L33.5907606,8.67296156 C33.5907606,8.42509817 33.4337795,8.16070433 33.2841191,7.9644604 L32.987683,8.07310483 C33.1299136,8.24249101 33.2994734,8.49125391 33.2994734,8.71435557 L33.2994734,9.04530399 L32.4151966,10.4002408 L31.6640436,9.58329035 L31.6129367,9.52636128 L31.5157711,9.42292717 L31.5157711,9.27278691 C31.5157711,9.01810937 31.3905803,8.82106777 31.2756872,8.68846777 L30.9740017,8.79701037 C31.0780017,8.89332484 31.2194356,9.070832 31.2194356,9.31428275 L31.2194356,9.57286378 C30.9139849,10.013458 30.2845929,10.8463363 29.7833769,11.0209753 C29.7833769,11.0209753 29.7801372,9.45385754 29.7833769,9.13321153 C29.7866167,8.81256552 29.80893,8.49196078 29.80893,8.49196078 L32.5532486,6.34571785 C33.497922,7.03779634 34.5027857,8.01326256 35.123834,8.87983827 C35.123834,8.87983827 34.5027857,8.01326256 35.123834,8.87983827 L35.123834,8.87983827 L35.123834,8.87983827 L35.123834,8.87983827 Z M3.76978784,9.45908286 L4.24005199,10.3227734 L4.24005199,11.8795887 L3.52455514,12.5518043 L3.52455514,10.2400872 C3.52455514,10.0187845 3.61616939,9.75208253 3.76978784,9.45911681 C3.76978784,9.45911681 3.61616939,9.75208253 3.76978784,9.45911681 L3.76978784,9.45908286 L3.76978784,9.45908286 L3.76978784,9.45908286 L3.76978784,9.45908286 L3.76978784,9.45908286 Z M35.4813182,9.45908286 C35.6352302,9.75204859 35.7266516,10.0187506 35.7266516,10.2400532 L35.7266516,12.5517704 L35.0111547,11.8795547 L35.0111547,10.3227394 L35.4813182,9.45904892 L35.4813182,9.45908286 L35.4813182,9.45908286 L35.4813182,9.45908286 L35.4813182,9.45908286 L35.4813182,9.45908286 Z M5.64567883,9.65562379 L6.46833711,10.9225622 L6.46833711,11.884519 L5.64567883,12.6654894 L5.64567883,9.65572562 L5.64567883,9.6556254 L5.64567883,9.65562379 L5.64567883,9.65562379 L5.64567883,9.65562379 L5.64567883,9.65562379 L5.64567883,9.65562379 Z M33.6054273,9.65562379 L33.6054273,12.6653875 L32.7825677,11.884519 L32.7825677,10.9225622 L33.6054273,9.65562379 L33.6054273,9.65572402 L33.6054273,9.65562379 L33.6054273,9.65562379 L33.6054273,9.65562379 L33.6054273,9.65562379 L33.6054273,9.65562379 Z M5.35385493,9.8831381 L5.35385493,12.6603045 L4.53099539,11.8845529 L4.53099539,10.7572068 L5.35385493,9.88324842 L5.35385493,9.88314819 L5.35385493,9.8831381 L5.35385493,9.8831381 L5.35385493,9.8831381 L5.35385493,9.8831381 L5.35385493,9.8831381 Z M33.8964126,9.8831381 L34.7192721,10.7570965 L34.7192721,11.8844426 L33.8964126,12.6601942 L33.8964126,9.88302779 L33.8964126,9.88312801 L33.8964126,9.8831381 L33.8964126,9.8831381 L33.8964126,9.8831381 L33.8964126,9.8831381 L33.8964126,9.8831381 Z M7.87796394,10.084796 C8.0018717,10.2933699 8.57018197,11.2237677 9.1095782,11.4914965 C8.9185174,11.7647156 8.4180478,12.4330872 7.87796394,12.7275464 L7.87796394,10.084796 L7.87796394,10.084796 L7.87796394,10.084796 L7.87796394,10.084796 L7.87796394,10.084796 Z M31.371465,10.084796 L31.371465,12.7275464 C30.8314734,12.4331805 30.3311296,11.7646562 30.1398507,11.4914965 C30.6794398,11.223895 31.2476914,10.2933784 31.371465,10.084796 C31.371465,10.084796 31.2476914,10.2933784 31.371465,10.084796 L31.371465,10.084796 L31.371465,10.084796 L31.371465,10.084796 L31.371465,10.084796 L31.371465,10.084796 Z M7.58697862,10.2192968 L7.58697862,12.6603384 L6.76411908,11.8845869 L6.76411908,11.0208963 L7.58697862,10.2192799 L7.58697862,10.2192968 L7.58697862,10.2192968 L7.58697862,10.2192968 L7.58697862,10.2192968 L7.58697862,10.2192968 Z M31.6632889,10.2192968 L32.4861484,11.0209133 L32.4861484,11.8846038 L31.6632889,12.6603554 L31.6632889,10.2193138 L31.6632889,10.2192968 L31.6632889,10.2192968 L31.6632889,10.2192968 L31.6632889,10.2192968 L31.6632889,10.2192968 Z M4.24022809,12.8205514 L4.24022809,15.2565015 L3.52473124,14.5789737 L3.52473124,13.4980453 L4.24022809,12.8206108 L4.24022809,12.8205514 L4.24022809,12.8205514 L4.24022809,12.8205514 L4.24022809,12.8205514 L4.24022809,12.8205514 Z M35.010878,12.8205514 L35.7263748,13.4979859 L35.7263748,14.5789143 L35.010878,15.2564421 L35.010878,12.820492 L35.010878,12.8205514 L35.010878,12.8205514 L35.010878,12.8205514 L35.010878,12.8205514 L35.010878,12.8205514 Z M4.53121342,12.8258634 L5.00147757,13.2705732 L5.35417358,13.6015216 L5.35417358,14.47548 L5.00147757,14.8064284 L4.53121342,15.2511383 L4.53121342,12.8256258 L4.53121342,12.8258262 L4.53121342,12.8258634 L4.53121342,12.8258634 L4.53121342,12.8258634 L4.53121342,12.8258634 L4.53121342,12.8258634 Z M6.46815262,12.8258634 L6.46815262,15.2513759 L5.9979891,14.8065727 L5.64549434,14.470414 L5.64549434,13.6067235 L5.9979891,13.2705647 L6.46815262,12.8258549 L6.46815262,12.8258634 L6.46815262,12.8258634 L6.46815262,12.8258634 L6.46815262,12.8258634 L6.46815262,12.8258634 Z M6.76468931,12.8258634 L7.58754885,13.6067319 L7.58754885,14.4704225 L7.22970398,14.8116897 L6.76468931,15.2513844 L6.76468931,12.8258719 L6.76468931,12.8258634 L6.76468931,12.8258634 L6.76468931,12.8258634 L6.76468931,12.8258634 L6.76468931,12.8258634 Z M8.70162851,12.8258634 L8.70162851,15.2564674 L8.23146499,14.8117576 L7.87866834,14.475497 L7.87866834,13.6636636 C8.16252579,13.4883627 8.44787589,13.1662396 8.70152788,12.82577 L8.70152788,12.8258703 L8.70162693,12.8258703 L8.70162851,12.8258634 L8.70162851,12.8258634 L8.70162851,12.8258634 L8.70162851,12.8258634 L8.70162851,12.8258634 Z M30.5498465,12.8258634 C30.8035992,13.1660359 31.0888486,13.4884646 31.3725048,13.6635532 L31.3725048,14.4754885 L31.0200101,14.8116473 L30.5498465,15.2563571 L30.5498465,12.8257531 L30.5498465,12.8258533 L30.5498465,12.8258634 L30.5498465,12.8258634 L30.5498465,12.8258634 L30.5498465,12.8258634 L30.5498465,12.8258634 Z M32.4867857,12.8258634 L32.4867857,15.2513759 L32.0216704,14.8116812 L31.6640184,14.470414 L31.6640184,13.6067235 L32.486878,12.8258549 L32.4867789,12.8258549 L32.4867857,12.8258634 L32.4867857,12.8258634 L32.4867857,12.8258634 L32.4867857,12.8258634 L32.4867857,12.8258634 Z M32.7832218,12.8258634 L33.2533853,13.2705732 L33.6060813,13.6067319 L33.6060813,14.4704225 L33.2533853,14.8065812 L32.7832218,15.251291 L32.7832218,12.8257785 L32.7832218,12.8258788 L32.7832218,12.8258634 L32.7832218,12.8258634 L32.7832218,12.8258634 L32.7832218,12.8258634 L32.7832218,12.8258634 Z M34.720161,12.8258634 L34.720161,15.2513759 L34.2498969,14.8065727 L33.8973015,14.4756243 L33.8973015,13.6016659 L34.2498969,13.2707175 L34.720161,12.8259143 L34.720161,12.8258634 L34.720161,12.8258634 L34.720161,12.8258634 L34.720161,12.8258634 L34.720161,12.8258634 Z M6.61693249,16.3322025 L7.48577945,15.5150569 L7.48577945,35.5807141 C7.58799331,35.5807142 7.54639497,36.5763597 7.58799329,37.2252732 C7.20162013,37.620468 5.74824486,39.1077757 5.74824486,39.1077757 L5.74824486,15.5094562 L6.61693249,16.3322025 L6.61693249,16.3322025 L6.61693249,16.3322025 L6.61693249,16.3322025 L6.61693249,16.3322025 Z M33.5042281,39.1082594 C33.5042281,39.1082594 32.1069182,37.3157267 31.766509,35.5812827 L31.766509,15.5156255 L32.635356,16.332771 L33.5042029,15.5104151 L33.5042281,39.1082594 L33.5042281,39.1082594 L33.5042281,39.1082594 L33.5042281,39.1082594 L33.5042281,39.1082594 Z M5.25265577,15.5150515 L5.25265577,38.3581297 C5.25265577,39.0031906 4.08871447,40.5071729 3.52536017,40.8508501 L3.52536017,15.5205673 L4.38389266,16.3324007 L5.25273962,15.5153485 L5.25265577,15.5150515 L5.25265577,15.5150515 L5.25265577,15.5150515 L5.25265577,15.5150515 L5.25265577,15.5150515 Z M33.9998256,15.5150515 L34.8686725,16.3321037 L35.7272889,15.5202703 L35.7272889,40.8505531 C35.1640268,40.5068759 33.9998256,39.0027578 33.9998256,38.3578327 L33.9998256,15.5147545 L33.9998256,15.5150515 L33.9998256,15.5150515 L33.9998256,15.5150515 L33.9998256,15.5150515 L33.9998256,15.5150515 Z M11.2524881,35.4829516 C11.2524881,35.4829516 11.4704839,35.5109151 11.7175027,35.5088097 C11.5655698,35.7298069 10.4050499,37.4206733 10.0412763,38.0583854 C9.70086541,38.6550345 9.46068092,38.3894357 8.93729308,38.3894357 C8.50338113,38.3894357 7.51968302,39.0890182 7.35808973,39.3720979 C7.18832872,39.6695696 7.06174591,40.0310926 7.06174591,40.3288783 C7.06174591,40.6562202 7.40414423,41.1046299 7.40414423,41.1046299 C7.44098868,40.9479725 7.50625744,40.8925513 7.50625744,40.8925513 C7.50625744,40.8925513 8.4060478,42.026771 8.53862642,42.1750189 C8.64182977,42.2904775 9.10219036,42.3655518 9.26442096,42.216513 C9.67030776,41.8430674 10.0632134,41.5818813 10.4245048,41.0425796 C10.610509,40.7646508 10.6246725,40.4461342 10.8384084,40.147746 C11.5534105,39.1497243 12.97627,37.2383699 13.3017208,36.8017726 C13.3235103,36.9233495 13.3421308,37.0245773 13.362831,37.1482586 C13.731569,36.3949521 15.5042985,34.9555132 15.5042985,34.9555132 L15.0136319,34.6295799 L13.5979505,36.1242788 C13.5979505,36.1242788 13.4496822,35.4973606 13.3628226,35.276058 C13.3628226,35.276058 12.9533719,35.5894661 12.7293384,35.5968828 C12.7293384,35.5968828 12.6623849,35.1714189 12.6117702,34.8933882 C12.3297912,35.0836157 11.8605166,35.0434267 11.8605166,35.0434267 L12.7599715,33.6367262 L12.4125249,33.4608313 L11.2524881,35.4829516 L11.2524881,35.4829516 L11.2524881,35.4829516 L11.2524881,35.4829516 L11.2524881,35.4829516 Z M26.4916914,33.6367347 C26.4916914,33.6367347 26.9792889,34.8460541 27.3911463,35.0434352 C27.3911463,35.0434352 26.9218717,35.083726 26.6398927,34.8934986 C26.5893803,35.1714273 26.5223245,35.5968912 26.5223245,35.5968912 C26.298291,35.5894744 25.888639,35.2761683 25.888639,35.2761683 C25.8018801,35.4972673 25.6535111,36.1243891 25.6535111,36.1243891 C25.30666,35.8903576 24.2379975,34.6296054 24.2379975,34.6296054 L23.7474314,34.9554453 C23.7474314,34.9554453 25.5200101,36.3949012 25.8886474,37.1483605 C25.9095455,37.0245773 25.928166,36.9233495 25.9499556,36.8018744 C26.275314,37.2384633 27.6982155,39.1497413 28.4132679,40.1478478 C28.6270038,40.446219 28.6410667,40.7647441 28.8272721,41.0425966 C29.1883874,41.5819152 29.5813937,41.8431099 29.987356,42.21653 C30.1493937,42.3656689 30.6097459,42.290598 30.7130499,42.175136 C30.8455698,42.0268032 31.7454189,40.8926684 31.7454189,40.8926684 C31.7454189,40.8926684 31.8106893,40.9479937 31.8476327,41.1046451 C31.8476327,41.1046451 32.190031,40.6562355 32.190031,40.3288936 C32.190031,40.0311164 32.0632553,39.6697037 31.893595,39.3721981 C31.732052,39.089059 30.7484377,38.389451 30.3143916,38.389451 C29.7910457,38.389451 29.5508612,38.6551516 29.2105761,38.0585026 C28.8466851,37.4207565 27.6860478,35.7298986 27.5342658,35.5089268 C27.7813769,35.5111318 27.9992805,35.4830687 27.9992805,35.4830687 C27.6740226,35.1758722 26.8391966,33.460889 26.8391966,33.460889 L26.4916914,33.6367347 L26.4916914,33.6367347 L26.4916914,33.6367347 L26.4916914,33.6367347 L26.4916914,33.6367347 Z M12.4680855,36.1813037 L13.1017711,35.741609 L13.1988361,36.2433438 C13.1988361,36.2433438 11.368899,38.7713654 10.5975782,39.8219994 C10.4058298,40.0830922 10.2447816,40.7477215 10.2447816,40.7477215 C10.2447816,40.7477215 9.96389266,40.6132207 9.96389266,40.3702706 C9.96389266,40.1316313 9.99459623,39.8478897 9.99459623,39.8478897 C9.99459623,39.8478897 9.78481845,40.0909417 9.42211824,40.0909417 C9.42211824,39.7976789 9.982613,39.4795611 10.0046927,39.0619466 C9.57731321,39.3825763 9.2062021,39.2180016 8.71177862,39.372249 C8.17337191,39.5400313 8.02341803,39.7689458 7.85827757,39.760129 C7.76101971,39.754817 7.67296939,39.5850318 7.71010985,39.4808001 C7.77438994,39.3002889 8.44026499,38.8006586 8.90574927,38.7102588 C9.01727128,38.6886097 9.89442851,38.9033969 10.0711161,38.6274716 C10.799091,37.4907911 11.9808855,35.6455415 12.0949317,35.4677628 C12.1700075,35.4496217 12.2390407,35.4302782 12.2941099,35.3952987 L12.4680855,36.1813037 L12.4680855,36.1813037 L12.4680855,36.1813037 L12.4680855,36.1813037 L12.4680855,36.1813037 Z M26.956639,35.395123 C27.0119061,35.4302027 27.0809409,35.4494461 27.1560184,35.4675871 C27.2701149,35.6453913 28.4517836,37.4907003 29.179834,38.627296 C29.35653,38.9033239 30.2335866,38.688434 30.3449493,38.7100831 C30.8107522,38.8005848 31.4765216,39.3002151 31.5409241,39.4806244 C31.5780654,39.5848647 31.4900151,39.7546412 31.3926558,39.7599534 C31.2276495,39.7687736 31.0776956,39.5399575 30.5391547,39.3720733 C30.0447229,39.2178259 29.6737459,39.3823964 29.2462407,39.061771 C29.2683279,39.4793176 29.8288151,39.7976306 29.8288151,40.0909357 C29.4662155,40.0909357 29.2564377,39.8478838 29.2564377,39.8478838 C29.2564377,39.8478838 29.2870423,40.1315236 29.2870423,40.3701628 C29.2870423,40.6131129 29.0060528,40.7477156 29.0060528,40.7477156 C29.0060528,40.7477156 28.8450046,40.0830099 28.6533568,39.8218237 C27.8821031,38.7712746 26.3234616,36.6185825 26.0521828,36.2431682 C26.1070532,35.9537156 26.1492478,35.7414334 26.1492478,35.7414334 L26.7828327,36.1811281 C26.9635874,35.9762625 26.9566524,35.3949474 26.9566524,35.3949474 L26.9566524,35.3950476 L26.9566524,35.3951478 L26.956639,35.395123 L26.956639,35.395123 L26.956639,35.395123 L26.956639,35.395123 L26.956639,35.395123 Z M10.8227187,45.1128887 C10.8227187,45.1128887 12.1599094,45.6877886 13.8021736,46.5506475 C14.0417627,46.6765352 14.2884797,46.8117403 14.538073,46.9489481 C14.7447816,46.6969776 14.9624755,46.4170461 15.1769073,46.1264904 C16.1587941,44.7970961 17.1190457,43.256319 17.1190457,43.256319 C17.1859002,43.6564272 16.6674063,44.8922225 15.7902407,46.4163673 C15.617704,46.7158417 15.4378382,47.0289528 15.2382658,47.3470961 C15.4608151,47.4756907 15.6815866,47.6055838 15.9026516,47.7402882 C17.5293182,48.7308423 19.057117,49.8694746 19.6230709,50.9155262 C20.1892092,49.8694746 21.7168235,48.7307575 23.3437417,47.7402882 C23.5647061,47.6055838 23.7854776,47.4756907 24.0080268,47.3470961 C23.8084545,47.0289783 23.6285887,46.7159689 23.4561526,46.4163673 C22.5789199,44.8922225 22.0605132,43.6564272 22.1273476,43.256319 C22.1273476,43.256319 23.0875992,44.7970961 24.069486,46.1264904 C24.2838172,46.4169443 24.5015195,46.6969776 24.7082197,46.9489481 C24.9577124,46.8117403 25.2046306,46.6766285 25.4442197,46.5506475 C27.0864839,45.6877207 28.4235069,45.1128887 28.4235069,45.1128887 C25.3500478,43.8746325 21.8870709,35.8191783 21.8870709,35.8191783 L21.3761023,35.9691149 C21.3761023,35.9691149 24.1381149,42.9294693 26.839247,45.0354044 C26.2249744,45.222526 25.5059975,45.4911373 24.7642784,45.8112578 C23.8629786,44.7428036 22.9306516,43.3016505 22.1732512,42.0202861 C21.3555405,40.636752 20.6861233,38.2088635 20.6861233,38.2088635 C20.3069786,39.1407803 21.114987,43.8218335 22.7457459,46.7838219 C21.3971505,47.4941305 20.1971505,48.2638402 19.6230625,48.8938302 C19.0491002,48.263908 17.8491421,47.4941729 16.5006306,46.7838219 C18.1313224,43.8222578 18.9392889,39.1410348 18.5601694,38.2088635 C18.5601694,38.2088635 17.8908277,40.636752 17.0729577,42.0202861 C16.3156662,43.3016505 15.3833979,44.7428884 14.4819304,45.8112578 C13.7403874,45.4911373 13.0213015,45.222526 12.4069618,45.0354044 C15.1081778,42.9298087 17.8702742,35.9691149 17.8702742,35.9691149 L17.359106,35.8191783 C14.7888823,42.5804386 10.8227187,45.1128887 10.8227187,45.1128887 L10.8227187,45.1128887 L10.8227187,45.1128887 L10.8227187,45.1128887 L10.8227187,45.1128887 Z M8.31345241,39.6876258 C8.33722264,39.6902318 8.36218197,39.7030608 8.37991111,39.7238078 C8.41517065,39.7650007 8.41210063,39.8254345 8.3746618,39.8582153 L8.08852344,40.111586 C8.05108444,40.1443601 7.99096369,40.137344 7.95570164,40.096051 C7.92034314,40.0548581 7.92331421,39.9944244 7.96085191,39.9615502 L8.24699027,39.7081794 C8.26561082,39.6917423 8.28967874,39.6846261 8.31344897,39.6874324 L8.31344897,39.6876328 L8.31345241,39.6876258 L8.31345241,39.6876258 L8.31345241,39.6876258 L8.31345241,39.6876258 L8.31345241,39.6876258 Z M30.9381904,39.6876258 C30.9619606,39.6847193 30.9860285,39.6917351 31.004748,39.7082728 L31.2908864,39.9616435 C31.3282264,39.9945177 31.3313954,40.054954 31.2960366,40.0961443 C31.2605784,40.1374374 31.2004559,40.1444535 31.1632148,40.1116794 L30.8768752,39.8582068 C30.8394362,39.8254328 30.8363662,39.7651 30.8717249,39.7237994 C30.8894541,39.7031524 30.9144134,39.6903235 30.9381836,39.6876174 L30.9380846,39.6876174 L30.9381836,39.6876174 L30.9381904,39.6876258 L30.9381904,39.6876258 L30.9381904,39.6876258 L30.9381904,39.6876258 L30.9381904,39.6876258 Z M8.6153392,39.9409966 C8.68645283,39.9351834 8.76113375,39.9666544 8.81471866,40.0288931 C8.90029518,40.1287207 8.89474633,40.2701375 8.80441761,40.349616 L8.1094239,40.9649085 C8.01899203,41.0444889 7.87310524,41.0285525 7.78733585,40.9288267 C7.70175933,40.8289991 7.70720922,40.6824653 7.7976369,40.6029867 L8.49263061,39.9927094 C8.52650398,39.9628417 8.57265828,39.9445004 8.61534759,39.9409923 C8.61534759,39.9409923 8.57265828,39.9445004 8.61534759,39.9409923 L8.6153392,39.9409966 L8.6153392,39.9409966 L8.6153392,39.9409966 L8.6153392,39.9409966 L8.6153392,39.9409966 Z M30.5809577,39.9409966 C30.5988847,39.9379898 30.6192881,39.9394932 30.6371153,39.9409966 C30.6799027,39.9445045 30.725761,39.9628459 30.7598323,39.9926135 L31.4549266,40.6028909 C31.5452579,40.6822701 31.5508008,40.829005 31.4651279,40.9288241 C31.3794591,41.0284481 31.2335639,41.0444864 31.1431321,40.9648059 L30.4480377,40.3495134 C30.3577065,40.2701341 30.3521635,40.1288132 30.4379354,40.0287904 C30.4780486,39.9820851 30.5273694,39.9502131 30.5809543,39.9408939 L30.5809543,39.9409941 L30.5809577,39.9409966 L30.5809577,39.9409966 L30.5809577,39.9409966 L30.5809577,39.9409966 L30.5809577,39.9409966 Z M9.00946918,40.4167731 C9.08048386,40.41096 9.16021132,40.4422307 9.21379623,40.5046696 C9.29937275,40.6044972 9.29392285,40.7458122 9.20349518,40.8252992 L8.50345325,41.4406936 C8.41302138,41.520173 8.27228344,41.5043375 8.18651405,41.4045116 C8.10084528,41.3047858 8.10638742,41.158252 8.19691405,41.0787735 L8.89180713,40.4684961 C8.9256805,40.4387286 8.96668428,40.4203872 9.00937526,40.416779 L9.00947431,40.416779 L9.00946918,40.4167731 L9.00946918,40.4167731 L9.00946918,40.4167731 L9.00946918,40.4167731 L9.00946918,40.4167731 Z M30.1876662,40.4167731 C30.2059891,40.4136661 30.2259966,40.41537 30.2438239,40.4167731 C30.2865124,40.4202811 30.3274172,40.4387226 30.3612914,40.4684902 L31.0563857,41.0787675 C31.1468176,41.1581468 31.1524612,41.3047798 31.0664881,41.4045056 C30.9810122,41.5043333 30.840073,41.5201679 30.7496411,41.4406876 L30.0495992,40.8251915 C29.9591673,40.7458122 29.9536243,40.6044913 30.0392981,40.5046637 C30.0795103,40.4579584 30.1326985,40.4260863 30.1876671,40.4166653 L30.1876671,40.4167656 L30.1876662,40.4167731 L30.1876662,40.4167731 L30.1876662,40.4167731 L30.1876662,40.4167731 L30.1876662,40.4167731 Z M9.45391363,40.8822224 C9.52512621,40.8764092 9.59980881,40.902568 9.65329308,40.9649094 C9.73896184,41.064737 9.73341971,41.2112708 9.64309182,41.2907493 L8.94799748,41.9011285 C8.85756562,41.9806079 8.71682767,41.9646723 8.63115052,41.8648464 C8.54548176,41.7650188 8.54587589,41.623602 8.63620176,41.5441234 L9.33644495,40.9288309 C9.37021937,40.8989633 9.41122314,40.8857338 9.45391245,40.8822257 C9.45391245,40.8822257 9.41122314,40.8857338 9.45391245,40.8822257 L9.45391363,40.8822224 L9.45391363,40.8822224 L9.45391363,40.8822224 L9.45391363,40.8822224 L9.45391363,40.8822224 Z M29.7993795,40.8822224 C29.8421669,40.8857303 29.8830717,40.8989599 29.916847,40.9288275 L30.6171908,41.54412 C30.7076226,41.6234993 30.7078155,41.7650239 30.622242,41.864843 C30.5365732,41.9646706 30.3957263,41.9806071 30.3053951,41.9011251 L29.6103007,41.2907459 C29.5197766,41.2113667 29.5144265,41.0647336 29.6000995,40.964906 C29.6403116,40.9182007 29.6897347,40.890037 29.743219,40.882219 C29.7610499,40.8795162 29.7816512,40.8808192 29.7993795,40.8822224 C29.7993795,40.8822224 29.7816512,40.8808192 29.7993795,40.8822224 L29.7993795,40.8822224 L29.7993795,40.8822224 L29.7993795,40.8822224 Z" id="rect2205" fill="#000000"></path>
                    <polygon id="path2750" fill="#D10429" points="25.8255765 36.2753411 28.709434 40.2212646 28.9953878 40.9909318 30.2633124 42.1458569 30.6431866 42.0491181 32.0385744 40.4130449 31.7215933 39.2912146 30.4209644 38.4893012 29.4389937 38.5851913 27.251153 35.2816473 26.8712788 35.1212646 26.7136268 35.7627953 26.078826 35.5701664 25.8255765 36.2753411 25.8255765 36.2753411 25.8255765 36.2753411"></polygon>
                    <path d="M2.40971733,24.8899099 L4.28139463,29.0695671 C4.17737953,29.172695 4.06215158,29.2711 3.97074214,29.3079349 C3.85387002,29.3551418 3.71778616,29.3516337 3.61190776,29.4352228 C3.43947254,29.5711323 3.33289727,29.7757942 3.44214675,30.0182436 C3.5515891,30.260593 3.83921174,30.3691423 4.07870021,30.2585885 C4.31829015,30.1479414 4.39306918,29.8945707 4.36553459,29.7364113 C4.34338768,29.6081719 4.36270148,29.5409501 4.44505189,29.4350314 L4.44505189,29.4350314 L6.24839709,33.4620957 C6.13562422,33.5777508 6.00370987,33.6958461 5.90155975,33.7370092 C5.7848805,33.7840123 5.64869602,33.7807045 5.54281761,33.8640933 C5.37028335,34.0001047 5.26371488,34.2047666 5.3730566,34.4471141 C5.48259958,34.6895638 5.77012159,34.7981062 6.00961006,34.6874591 C6.24929224,34.576812 6.32407128,34.3234413 6.29653669,34.16518 C6.27151653,34.0209867 6.29906077,33.9539743 6.4097149,33.8223358 L6.4097149,33.8223358 L8.1274268,37.6581716 C8.04118071,37.775121 7.94365057,37.8886092 7.85992369,37.938883 C7.75177275,38.0038338 7.61697191,38.0217729 7.52515639,38.120998 C7.37559916,38.2824669 7.30181132,38.5013596 7.44701048,38.7235617 C7.59231027,38.9457639 7.89320755,39.007804 8.11278826,38.8607696 C8.33246457,38.7137436 8.3673283,38.4517512 8.31592453,38.2998035 C8.2842868,38.2062277 8.28169231,38.1436911 8.31074903,38.0675499 L8.31074903,38.0675499 L10.2366461,42.3682859 L10.9368893,42.3682859 L8.95284914,37.936214 L8.95284914,37.936214 C9.10449502,37.9400987 9.17011432,37.9662882 9.25655765,38.0738166 C9.35669182,38.1984993 9.59488889,38.3072456 9.83428512,38.19659 C10.0738742,38.0859429 10.1812369,37.7947847 10.0718952,37.5524371 C9.96255346,37.3100895 9.73989518,37.2574687 9.52537107,37.3002714 C9.39374004,37.3265309 9.30707338,37.4328714 9.19535849,37.491305 C9.10340626,37.5394993 8.94313988,37.5631545 8.7909189,37.5744842 L6.93136915,33.4205067 L6.93136915,33.4205067 C7.07158168,33.4258899 7.13551124,33.4539854 7.21880671,33.5575418 C7.31884025,33.6821226 7.55713795,33.7909707 7.79653417,33.6803151 C8.0362239,33.5696681 8.14358658,33.2786032 8.03404361,33.0362556 C7.92470189,32.7938062 7.70214423,32.7412872 7.48762013,32.7840899 C7.35588847,32.8104495 7.26932243,32.9166899 7.15770818,32.9751235 C7.06882236,33.0216478 6.91619038,33.0452979 6.76867436,33.057069 L5.04279959,29.201703 L5.04279959,29.201703 C5.12764487,29.2160716 5.18032243,29.2511197 5.24449895,29.3309401 C5.34463312,29.4553258 5.58273795,29.5641654 5.82232704,29.4535183 C6.06171488,29.3428712 6.1691782,29.0519082 6.05983648,28.8092636 C5.9502935,28.566916 5.72783648,28.514397 5.51321174,28.5571912 C5.38148008,28.5835508 5.29491405,28.6897912 5.18319916,28.7482248 C5.11017372,28.7864991 4.99407436,28.8092846 4.87314002,28.822707 L3.0693855,24.7933684 L3.0693855,24.7933684 C3.09322039,24.8121943 3.11625137,24.836301 3.140987,24.8670739 C3.2412218,24.9917566 3.47941887,25.1005028 3.71881509,24.9900509 C3.95840419,24.8792002 4.06576688,24.5882456 3.95642516,24.3457962 C3.84708344,24.1033468 3.62442516,24.050726 3.40980042,24.0936304 C3.27827002,24.1199901 3.19160335,24.2263323 3.07988847,24.2846641 C3.02720718,24.3122503 2.95210262,24.3317944 2.8689345,24.3455885 L2.61989099,23.7892597 L2.03729979,24.0582614 L2.2496836,24.5325373 C2.12997347,24.6590037 1.98033236,24.7989335 1.8672369,24.844476 C1.75046541,24.8916829 1.61438155,24.8883751 1.50840252,24.9717639 C1.33606952,25.1075715 1.22940042,25.3124371 1.33884277,25.5547847 C1.44819287,25.7972344 1.73571488,25.9057767 1.97530398,25.7951296 C2.21479497,25.6844825 2.28967296,25.4311118 2.26213836,25.2729524 C2.23470044,25.1147575 2.27047291,25.0494257 2.40971733,24.8899099 L2.40971733,24.8899099 Z" id="rect2273" stroke="#000000" stroke-width="0.2" fill="#E5B731"></path>
                    <path d="M38.8444444,22.0932679 L38.8444444,22.0932679 C38.9150628,22.2446032 38.6706247,22.6257724 38.6706247,22.6257724 C38.6706247,22.6257724 38.7646122,22.4394476 38.6706247,22.6257724 C38.5768302,22.8123933 38.7320319,23.0757943 38.7320319,23.0757943 C38.7320319,23.0757943 37.6534574,22.980583 37.4850717,23.0913294 C37.3325434,23.1913522 37.5496486,23.9473826 37.4492176,24.5859434 C37.3092679,25.47594 36.9625174,25.4011881 36.9483539,25.5736971 C36.934587,25.7412758 37.0812679,26.0029712 37.0812679,26.0029712 C37.0812679,26.0029712 36.8790205,26.067417 36.8359346,26.1530096 C36.7666038,26.2906163 36.8842683,26.5444961 36.8001795,26.7114723 C36.3310055,27.6432194 35.6381669,29.0183525 35.1801375,29.9283758 C35.1161551,30.0553667 34.944213,30.1038718 34.8580495,30.2748618 C34.7786164,30.4326224 34.8427966,30.66264 34.8427966,30.66264 C34.8427966,30.66264 34.5392243,30.6809814 34.4339413,30.8902562 C34.3220252,31.1124584 34.387886,31.4125352 34.387886,31.4125352 C34.387886,31.4125352 34.1959363,31.4373911 34.1015463,31.6246138 C34.0008168,31.8247697 34.1714717,31.9297058 34.1273971,32.0177041 C33.5115396,33.2402615 32.786265,34.6814146 32.3437493,35.5602948 C32.1809233,35.8834277 31.611221,35.9481748 31.2806046,36.6049886 C30.9597996,37.2420304 31.4185753,37.7117141 31.4185753,37.7117141 C31.4185753,37.7117141 30.9421727,37.7553127 30.8155899,38.0065806 C30.686634,38.2626584 30.7886499,38.6515397 31.1324369,38.8288432 C31.4762189,39.0060449 31.8518918,38.8626195 31.9809065,38.6065392 C32.1073887,38.355273 31.8530407,37.9394321 31.8530407,37.9394321 C31.8530407,37.9394321 32.4982147,38.0334469 32.8189107,37.3963033 C33.1496193,36.7395149 32.8708101,36.2405296 33.0335354,35.9172184 C33.4761686,35.0383382 34.2015857,33.59727 34.8171832,32.3746277 C34.8615547,32.2866294 35.0434977,32.362801 35.1442273,32.162651 C35.2384159,31.9754276 35.1442273,31.8058462 35.1442273,31.8058462 C35.1442273,31.8058462 35.4259128,31.6815623 35.5378289,31.4592668 C35.6432126,31.2500905 35.4815715,30.9887006 35.4815715,30.9887006 C35.4815715,30.9887006 35.7035254,30.9087197 35.7830642,30.750859 C35.8691354,30.579869 35.805844,30.4123921 35.8698231,30.2852061 C36.3280034,29.3754374 37.0209342,28.0001346 37.4899488,27.0685572 C37.5741333,26.9013773 37.8448252,26.8441487 37.9141585,26.7064402 C37.9572428,26.6209452 37.8887044,26.4168858 37.8887044,26.4168858 C37.8887044,26.4168858 38.1870273,26.3870181 38.3128134,26.2771662 C38.4423648,26.1642109 38.179304,25.9219652 38.8086289,25.2842361 C39.2600755,24.8267975 39.9883354,24.557694 39.9788595,24.374043 C39.9683606,24.170985 39.2583145,23.3448783 39.2583145,23.3448783 C39.2583145,23.3448783 39.5579203,23.3193206 39.6518155,23.1329016 C39.7457107,22.9463825 39.6825191,22.7293906 39.6825191,22.7293906 L39.9788629,22.6776736 L39.9788629,21.255444 L38.8444444,22.0932679 L38.8444444,22.0932679 L38.8444444,22.0932679 L38.8444444,22.0932679 L38.8444444,22.0932679 Z M29.0475723,41.900692 C29.0028042,41.9892928 28.9946826,42.1103691 29.0475723,42.2160095 C29.0475723,42.2160095 28.6899203,42.1028506 28.5672034,42.1642924 C28.4516143,42.2222237 28.5672034,43.9279081 28.5672034,43.9279081 C28.5672034,43.9279081 29.9942055,43.0168665 29.9725702,42.8883906 C29.9495916,42.7517853 29.6505744,42.5211567 29.6505744,42.5211567 C29.7661635,42.5024139 29.8562935,42.4290512 29.9010566,42.3402467 C29.9480034,42.2468344 29.9542432,41.9798354 29.6301719,41.8126555 C29.5087463,41.7500137 29.4006876,41.7314721 29.3132327,41.7402915 C29.1678071,41.7550662 29.0769895,41.8422669 29.0475723,41.900692 C29.0475723,41.900692 29.0769895,41.8422669 29.0475723,41.900692 L29.0475723,41.900692 L29.0475723,41.900692 L29.0475723,41.900692 Z" id="path2206" stroke="#000000" stroke-width="0.1" fill="#E5B731"></path>
                    <path d="M5.64050314,36.6105324 L4.71496855,36.8131917 C4.71496855,36.8131917 5.9627673,37.9411318 7.02104822,38.0151285 C7.91849057,38.0776701 8.35429769,37.6243463 8.35429769,37.6243463 L8.17453249,36.6621349 C7.64134557,35.6815089 7.62543396,35.9911158 6.74677568,35.6815093 C5.85880922,35.3685 4.66467925,35.2927298 4.66467925,35.2927298 C5.14322918,36.4542965 5.64050314,36.6105324 5.64050314,36.6105324 L5.64050314,36.6105324 Z M7.8693501,34.6483478 C7.65967296,35.4165894 8.00592872,36.2896822 8.00592872,36.2896822 L8.64922432,37.5040083 C9.54476203,37.1570317 9.69906896,36.7278594 9.92008386,36.3058902 C10.1410988,35.883921 9.92008378,34.3466717 9.92008378,34.3466717 C9.92008378,34.3466717 9.41070569,34.7925847 9.32086921,34.9103514 C9.4699342,34.1138519 8.8444696,33.2170043 8.8444696,33.2170043 C8.35689727,33.932693 8.07883438,33.8802419 7.8693501,34.6483478 C7.8693501,34.6483478 8.07883438,33.8802419 7.8693501,34.6483478 L7.8693501,34.6483478 Z M4.4989845,33.2160803 C4.4989845,33.2160803 3.29844733,32.7564021 3.12197,32.2546261 C3.12197,32.2546261 3.86086373,31.9609702 4.19035639,32.0219072 C3.82785744,31.8878052 3.29844733,30.5409641 3.29844733,30.5409641 C3.29844733,30.5409641 3.92190287,30.2882951 4.58423411,30.5409641 C5.24654019,30.7938341 5.95127883,31.9802272 5.95127883,31.9802272 L6.38469602,32.9056099 C5.28801424,33.4176194 4.4989845,33.2160803 4.4989845,33.2160803 L4.4989845,33.2160803 Z M7.01613417,29.83203 C7.15122851,29.6208509 7.66239832,29.2921088 7.66239832,29.2921088 C7.66239832,29.2921088 7.97151363,30.7694116 7.67586834,31.6818958 C7.3804218,32.5942952 6.4804805,32.9416213 6.4804805,32.9416213 L5.48785996,30.988177 C5.48785996,30.988177 5.34008637,30.2644438 5.64959581,29.6913684 C5.95920587,29.118276 6.68380964,28.6023784 6.68380964,28.6023784 C6.61464001,28.30587 7.11836707,29.5182014 7.01613417,29.83203 C7.01613417,29.83203 7.11836707,29.5182014 7.01613417,29.83203 L7.01613417,29.83203 Z M2.81987421,26.4482436 L3.76033543,27.3001388 L4.11481761,28.2619258 C3.27535381,28.7617512 3.09049895,28.6507053 2.28110692,28.3534373 C1.47171488,28.0559656 0.876997904,27.0724123 0.876997904,27.0724123 C0.876997904,27.0724123 1.44264151,26.8553186 1.65796226,26.9367065 C1.34428512,26.796291 1.01803774,26.1872101 1.01803774,26.1872101 C2.28110695,25.7207648 2.81987421,26.4482436 2.81987421,26.4482436 L2.81987421,26.4482436 Z M4.40367296,25.5560067 L5.02943396,24.8650458 C5.02943396,24.8650458 5.55971488,26.1637213 5.44333753,27.0856248 C5.32696017,28.007698 4.56392453,28.5531689 4.56392453,28.5531689 L3.61239413,26.7254002 C3.97828089,27.8932764 3.30228931,25.9763027 3.39370231,25.395327 C3.48512369,24.8144106 3.97826415,24.401718 3.97826415,24.401718 C3.93685759,24.1478482 4.40367296,25.5560067 4.40367296,25.5560067 L4.40367296,25.5560067 Z M0.838708595,22.4754709 L1.26321174,23.099385 C0.768687631,22.7691409 0.0208637317,22.7406709 0.0208637317,22.7406709 C0.0208637317,22.7406709 0.286993711,23.8237208 0.923085954,24.3178522 C1.55914465,24.8119667 2.53985744,24.6965082 2.53985744,24.6965082 C2.53985744,24.6965082 3.18473795,23.8277261 3.13986583,22.8917361 C3.09499874,21.9557461 2.36038574,20.9524632 2.36038574,20.9524632 C2.36038574,20.9524632 2.07068344,21.5606361 2.04513208,22.0145531 C1.85764361,21.5464902 0.718926625,20.9067245 0.718926625,20.9067245 L0.838708595,22.4754709 L0.838708595,22.4754709 Z" id="path2280" stroke="#000000" stroke-width="0.2" fill="#479951"></path>
                    <path d="M15.7341719,3.31998968 L16.8314465,3.30214902 C16.9436646,3.59721923 17.4553291,4.09033238 17.4553291,4.60311574 C17.4553291,4.60311574 16.9360419,3.65583953 15.4864403,3.65583953 C15.1221551,3.65583953 14.8820713,3.78272855 14.8820713,3.78272855 C14.6591966,3.72606262 15.7341719,3.31998968 15.7341719,3.31998968 L15.7341719,3.31998968 L15.7341719,3.31998968 L15.7341719,3.31998968 L15.7341719,3.31998968 Z" id="path2192" fill="#CC092F"></path>
                    <path id="path2194" fill="#000000"></path>
                    <path d="M15.6053459,4.4894658 C15.6053459,4.4894658 16.5465088,4.88935873 17.2384486,4.78441098 C17.2384486,4.78441098 16.9229291,5.1314319 16.8627002,5.28925158 C16.5571488,5.17208735 15.6053459,4.4894658 15.6053459,4.4894658 L15.6053459,4.4894658 Z" id="path2196" fill="#D10429"></path>
                    <path d="M18.9224319,4.10953078 C18.9225309,4.39437554 18.692847,4.6265995 18.4112621,4.6265995 C18.1296771,4.6265995 17.9001929,4.39437554 17.9001929,4.10942895 C17.9001929,3.82458419 18.1296771,3.59215657 18.4112621,3.59215657 C18.6927463,3.59215657 18.9224319,3.82458419 18.9224319,4.10942895 L18.9223328,4.10952918 L18.9224319,4.10952918 L18.9224319,4.10953078 L18.9224319,4.10953078 L18.9224319,4.10953078 L18.9224319,4.10953078 L18.9224319,4.10953078 Z" id="path2191" fill="#F5D402"></path>
                    <path id="path2189" fill="#000000"></path>
                    <path d="M9.89777778,29.0490399 L9.89777778,31.1488652 C9.89777778,31.569314 10.0261384,31.8431356 10.2299706,32.1107371 C10.4337023,32.3989847 10.8679161,32.797192 11.3184403,33.0933993 C12.7101384,34.008005 15.0367631,34.9723378 16.7970985,35.7826522 C18.2640168,36.4578804 18.8606625,36.7302679 19.6232621,37.6857754 C20.3859036,36.7303527 20.9876226,36.4580416 22.4545409,35.7826522 C24.2146247,34.9723208 26.5414172,34.0079201 27.9331153,33.0933993 C28.3838658,32.797226 28.817979,32.3990271 29.0215849,32.1107371 C29.2254172,31.8431356 29.3486289,31.569314 29.3486289,31.1488652 L29.3486289,29.0490399 L29.3486289,15.1890899 C29.3486289,14.5196745 30.2174759,13.8599501 30.2174759,13.8599501 L29.2923606,13.8599501 L28.7506918,13.8599501 L19.6228092,13.8599501 L10.4957652,13.8599501 L8.95399581,13.8599501 C9.89777778,14.2961426 9.89777778,15.1890899 9.89777778,15.1890899 L9.89777778,29.0490399 L9.89777778,29.0490399 Z M10.4955891,14.3667933 L19.6234717,14.3667933 L28.7513543,14.3667933 C28.7513543,14.3667933 28.8485199,14.6779952 28.8485199,15.1890559 L28.8485199,29.049006 L28.8485199,31.1488313 C28.8485199,31.4971163 28.4913627,32.3130908 26.4312453,33.3518446 C23.0257945,35.0689577 20.4083522,35.8707864 19.6239497,36.8479328 C18.8394214,35.8707015 16.222021,35.0690426 12.8166541,33.3518446 C10.7564444,32.3130908 10.3992956,31.4971757 10.3992956,31.1488313 L10.3992956,29.049006 L10.3992956,15.1890559 C10.3992956,14.6780037 10.1437652,14.3667933 10.1437652,14.3667933 L10.4955891,14.3667933 L10.4955891,14.3667933 L10.4955891,14.3667933 L10.4955891,14.3667933 L10.4955891,14.3667933 Z" id="rect2189" fill="#F5D402"></path>
                </g>
            </g>
        </g>
    </g>
</svg>