<?xml version="1.0" encoding="UTF-8" standalone="no"?>
<svg width="180px" height="180px" viewBox="0 0 180 180" version="1.1" xmlns="http://www.w3.org/2000/svg" xmlns:xlink="http://www.w3.org/1999/xlink">
    <!-- Generator: Sketch 3.8.3 (29802) - http://www.bohemiancoding.com/sketch -->
    <title>mongolia</title>
    <desc>Created with Sketch.</desc>
    <defs></defs>
    <g id="Page-1" stroke="none" stroke-width="1" fill="none" fill-rule="evenodd">
        <g id="flags" transform="translate(-2340.000000, -3690.000000)">
            <g id="mongolia" transform="translate(2340.000000, 3690.000000)">
                <path d="M120.000001,174.878829 C110.616633,178.195374 100.519063,180 90,180 C79.480937,180 69.3833674,178.195374 59.9999996,174.878829 L60,5.12116698 C69.3833673,1.80462645 79.480937,0 90,0 C100.519063,0 110.616633,1.80462645 120,5.12117078 L120,174.878833 L120,174.878833 L120.000001,174.878829 L120.000001,174.878829 L120.000001,174.878829 Z" id="blue" fill="#227FBB" transform="translate(90.000000, 90.000000) scale(1, -1) translate(-90.000000, -90.000000) "></path>
                <path d="M120.000001,174.878829 C154.955773,162.523738 180,129.186567 180,90 C180,50.8134331 154.955772,17.4762623 120,5.1211708 L120,174.878833 L120,174.878833 L120.000001,174.878829 L120.000001,174.878829 L120.000001,174.878829 Z M59.9999996,5.1211708 C25.0442275,17.4762623 0,50.8134331 0,90 C0,129.186567 25.0442276,162.523738 59.9999996,174.878829 L60,5.121167 L60,5.121167 L59.9999996,5.1211708 L59.9999996,5.1211708 L59.9999996,5.1211708 Z" id="red" fill="#E94B35" transform="translate(90.000000, 90.000000) scale(1, -1) translate(-90.000000, -90.000000) "></path>
                <path d="M45.998495,76.2465645 C45.999497,76.3049966 46,76.3635505 46,76.4222222 C46,81.957343 41.5228478,86.4444444 36,86.4444444 C30.4771522,86.4444444 26,81.957343 26,76.4222222 C26,76.3635505 26.000503,76.3049966 26.001505,76.2465645 C27.686395,80.1045033 31.5291118,82.8 36,82.8 C40.4708882,82.8 44.313605,80.1045033 45.998495,76.2465645 C45.998495,76.2465645 44.313605,80.1045033 45.998495,76.2465645 L45.998495,76.2465645 Z M36,80.9777778 C40.0166166,80.9777778 43.2727273,77.7144313 43.2727273,73.6888889 C43.2727273,69.6633465 40.0166166,66.4 36,66.4 C31.9833834,66.4 28.7272727,69.6633465 28.7272727,73.6888889 C28.7272727,77.7144313 31.9833834,80.9777778 36,80.9777778 L36,80.9777778 Z M31.4545455,60.0222222 C31.4545455,62.5381861 33.4896148,64.5777778 36,64.5777778 C38.5103852,64.5777778 40.5454545,62.5381861 40.5454545,60.0222222 C40.5454545,58.2 39.4090909,57.9722222 39.4090909,57.2888889 C39.4090909,56.6055556 40.0909091,55.6944444 38.7272727,54.5555556 C39.4090909,55.6944444 38.2727273,55.9222222 38.2727273,57.0611111 C38.2727273,58.2 38.7272727,58.2 38.7272727,59.1111111 C38.7272727,59.6143039 38.3202589,60.0222222 37.8181818,60.0222222 C37.3161048,60.0222222 36.9090909,59.6143039 36.9090909,59.1111111 C36.9090909,58.2 37.8181818,57.2888889 37.8181818,55.9222222 C37.8181818,54.5555556 37.5909091,54.1 36.9090909,52.9611111 C36.2272727,51.8222222 35.0909091,50.9111111 36,50 C34.6363636,50.4555556 35.3181818,52.2777778 35.3181818,53.4166667 C35.3181818,54.5555556 34.4090909,55.2388889 34.4090909,56.6055556 C34.4090909,57.9722222 35.0909091,58.2 35.0909091,59.1111111 C35.0909091,59.6143039 34.6838952,60.0222222 34.1818182,60.0222222 C33.6797411,60.0222222 33.2727273,59.6143039 33.2727273,59.1111111 C33.2727273,58.2 33.7272727,58.2 33.7272727,57.0611111 C33.7272727,55.9222222 32.5909091,55.6944444 33.2727273,54.5555556 C31.9090909,55.6944444 32.5909091,56.6055556 32.5909091,57.2888889 C32.5909091,57.9722222 31.4545455,58.2 31.4545455,60.0222222 C31.4545455,60.0222222 31.4545455,58.2 31.4545455,60.0222222 L31.4545455,60.0222222 Z M16,88.2666667 L16,132 L25.0909091,132 L25.0909091,88.2666667 L16,88.2666667 L16,88.2666667 Z M46.9090909,88.2666667 L46.9090909,132 L56,132 L56,88.2666667 L46.9090909,88.2666667 L46.9090909,88.2666667 Z M26.9090909,95.5555556 L26.9090909,99.2 L45.0909091,99.2 L45.0909091,95.5555556 L26.9090909,95.5555556 L26.9090909,95.5555556 Z M26.9090909,121.066667 L26.9090909,124.711111 L45.0909091,124.711111 L45.0909091,121.066667 L26.9090909,121.066667 L26.9090909,121.066667 Z M26.9090909,88.2666667 L45.0909091,88.2666667 L36,93.7333333 L26.9090909,88.2666667 L26.9090909,88.2666667 Z M26.9090909,126.533333 L45.0909091,126.533333 L36,132 L26.9090909,126.533333 L26.9090909,126.533333 Z M36,110.078279 L36,110.156401 C33.8287887,110.37805 32.1363636,112.169766 32.1363636,114.347222 C32.1363636,116.524679 33.8287887,118.316395 36,118.538044 L36,118.561111 C36.0886039,118.561111 36.1768961,118.559774 36.2648577,118.557118 C36.3277475,118.559771 36.3909861,118.561111 36.4545455,118.561111 C36.8437343,118.561111 37.2208978,118.510868 37.5795962,118.416666 C41.5949895,117.672858 44.6363636,114.145172 44.6363636,109.905556 C44.6363636,105.890318 41.9083964,102.513648 38.2086418,101.535628 C39.8399858,102.170038 41,103.791511 41,105.691667 C41,108.144732 39.0666843,110.133333 36.6818182,110.133333 C36.4498175,110.133333 36.2220901,110.114514 36,110.078279 L36,110.078279 Z M34.4118412,118.259026 C30.7433115,117.260069 28.0454545,113.898572 28.0454545,109.905556 C28.0454545,105.649035 31.1111306,102.110133 35.1502997,101.385681 C35.4945693,101.297103 35.8554324,101.25 36.2272727,101.25 C36.290337,101.25 36.3530854,101.251355 36.4154908,101.254037 C36.5039386,101.251352 36.5927208,101.25 36.6818182,101.25 L36.6818182,101.273691 C38.8530295,101.50133 40.5454545,103.341471 40.5454545,105.577778 C40.5454545,107.814084 38.8530295,109.654225 36.6818182,109.881865 L36.6818182,109.959198 C36.4597281,109.923892 36.2320007,109.905556 36,109.905556 C33.6151339,109.905556 31.6818182,111.843167 31.6818182,114.233333 C31.6818182,116.061479 32.8128331,117.624875 34.4118412,118.259026 L34.4118412,118.259026 Z M37.8181818,105.691667 C37.8181818,104.74818 37.0550309,103.983333 36.1136364,103.983333 C35.1722419,103.983333 34.4090909,104.74818 34.4090909,105.691667 C34.4090909,106.635153 35.1722419,107.4 36.1136364,107.4 C37.0550309,107.4 37.8181818,106.635153 37.8181818,105.691667 L37.8181818,105.691667 Z M37.8181818,114.347222 C37.8181818,113.403736 37.0550309,112.638889 36.1136364,112.638889 C35.1722419,112.638889 34.4090909,113.403736 34.4090909,114.347222 C34.4090909,115.290709 35.1722419,116.055556 36.1136364,116.055556 C37.0550309,116.055556 37.8181818,115.290709 37.8181818,114.347222 L37.8181818,114.347222 Z" id="shape" fill="#F2C500"></path>
            </g>
        </g>
    </g>
</svg>