<?xml version="1.0" encoding="UTF-8" standalone="no"?>
<svg width="180px" height="180px" viewBox="0 0 180 180" version="1.1" xmlns="http://www.w3.org/2000/svg" xmlns:xlink="http://www.w3.org/1999/xlink">
    <!-- Generator: Sketch 3.8.3 (29802) - http://www.bohemiancoding.com/sketch -->
    <title>montserrat</title>
    <desc>Created with Sketch.</desc>
    <defs></defs>
    <g id="Page-1" stroke="none" stroke-width="1" fill="none" fill-rule="evenodd">
        <g id="flags" transform="translate(-180.000000, -3960.000000)">
            <g id="montserrat" transform="translate(180.000000, 3960.000000)">
                <circle id="blue" fill="#227FBB" cx="90" cy="90" r="90"></circle>
                <g id="emblem" transform="translate(105.000000, 54.000000)">
                    <path d="M0.102953488,0.117250774 L56.8552907,0.117250774 L56.787686,40.8623406 C57.2598802,57.2417387 47.1415186,67.4055975 28.5238605,71.9881858 C15.3047209,68.6757399 0.059872093,61.8243715 0.0373372093,41.3271084 L0.104802674,0.117250774 L0.102953488,0.117250774 L0.102953488,0.117250774 Z" id="Shape" fill="#FFFFFF"></path>
                    <path d="M1.35916279,1.34548607 L55.5959884,1.34548607 L55.5316093,40.3893251 C55.9826605,56.0844557 46.3127872,65.8238266 28.5204581,70.2151579 C15.8859,67.0415851 1.31687674,60.4757647 1.29544651,40.8344768 L1.35993384,1.34548607 L1.35916279,1.34548607 L1.35916279,1.34548607 Z" id="Shape" fill="#00A2BD"></path>
                    <path d="M55.3535328,45.0278638 C53.9153143,58.0245637 44.4893398,66.2738723 28.5204581,70.2151579 C16.8312742,67.2790461 3.48628543,61.4393407 1.53769532,45.0278638 L55.3535328,45.0278638 L55.3535328,45.0278638 L55.3535328,45.0278638 Z" id="Shape-2" fill="#A53D08"></path>
                    <polygon id="cross" fill="#000000" points="26.3713372 8.61860062 26.2957327 3.69779071 30.1521583 3.73593288 30.1899616 8.61860285 40.7379221 8.61860285 40.775721 12.4331762 30.1899594 12.4713184 30.1053851 57.4579438 26.3437828 57.4818576 26.2957305 12.4332632 15.7833398 12.4714365 15.7855712 8.58058328"></polygon>
                    <g id="lyre" transform="translate(13.697674, 34.551084)">
                        <path d="M11.1261266,20.3601405 L11.3398976,20.3594258 L11.2799901,2.11986417 L11.0662192,2.12057893 L11.1261266,20.3601405 L11.1261266,20.3601405 Z M9.95390211,20.3176664 L10.167673,20.3169843 L10.1077656,2.91107296 L9.89399466,2.91175506 L9.95390211,20.3176664 L9.95390211,20.3176664 Z M8.87020636,18.0234434 L9.0839762,18.0224536 L9.02407097,4.85104556 L8.81030113,4.85203531 L8.87020636,18.0234434 L8.87020636,18.0234434 Z M7.90793643,17.4796157 L8.1217052,17.4784128 L8.06147741,6.58282888 L7.84770864,6.58403181 L7.90793643,17.4796157 L7.90793643,17.4796157 Z M6.82502093,16.2648892 L7.03879302,16.2648892 L7.03879302,7.0691517 L6.82502093,7.0691517 L6.82502093,16.2648892 L6.82502093,16.2648892 Z M5.71197442,15.081169 L5.92574651,15.081169 L5.92574651,7.79762229 L5.71197442,7.79762229 L5.71197442,15.081169 L5.71197442,15.081169 Z M4.74960233,13.1671169 L4.96337442,13.1671169 L4.96337442,7.58308223 L4.74960233,7.58308223 L4.74960233,13.1671169 L4.74960233,13.1671169 Z" id="Shape" fill="#000000"></path>
                        <path d="M4.13448837,12.3195789 L13.7898023,22.4258378 C17.1285221,18.7232991 14.8126894,4.88380681 10.4212791,2.33485077 C9.89493488,3.97360198 8.99986919,5.93848421 8.04842209,6.57199505 C5.95523186,8.01131517 0.825726744,9.69403096 2.54027791,10.7716458 C2.93130012,10.2253976 3.953995,9.70953214 4.43526279,10.9235614 C5.00677395,12.8354333 2.29962965,12.9569662 2.29962965,12.9569662 C2.29962965,12.9569662 0.585127093,12.7442853 0.284317326,10.9840057 C-0.0164659302,9.22404706 2.83807198,7.61696916 3.08171384,7.49414563 C3.32233116,7.40299542 7.05213942,6.40164706 7.68386733,3.06306947 C8.46585209,-0.21475839 9.27794744,0.271052136 9.4285114,0.210286811 C14.3010835,0.695771889 17.4895707,9.49717226 17.6702474,15.6882137 C17.8506016,21.8792552 15.1737358,25.9764565 14.6922405,26.2495661 C14.2110699,26.5226913 3.08169395,12.9265791 3.08169395,12.9265791 L4.13447291,12.3195656 L4.13448837,12.3195789 L4.13448837,12.3195789 Z" id="Shape" fill="#FF9A08"></path>
                        <path d="M13.7579898,22.456778 L13.8224855,22.45584 C17.1815108,18.7307831 14.8574721,4.85836756 10.4433128,2.29620709 L10.3792451,2.32110697 C9.74639884,4.29144804 8.85634754,5.98063175 8.02408448,6.53478517 C7.51530808,6.88462418 6.89987724,7.21713255 5.71117476,7.81072436 C5.65743985,7.83755748 5.61843523,7.85701377 5.5255993,7.90330186 C3.92590505,8.7008484 3.31764437,9.03000962 2.7847176,9.43380967 C2.06231813,9.9811737 1.93118243,10.4413468 2.51691524,10.8094865 L2.57609818,10.7977488 C2.78447656,10.5066495 3.13388693,10.2723428 3.45934977,10.2317448 C3.85195096,10.1827719 4.18170748,10.403999 4.39423672,10.9401178 C4.6552224,11.8137826 4.2459842,12.3713455 3.39190723,12.686142 C3.1527044,12.7743076 2.89593295,12.8357032 2.6390886,12.8749462 C2.54915523,12.8886871 2.46567567,12.8986704 2.39082528,12.9054919 C2.34609526,12.9095683 2.31431842,12.9116806 2.29766555,12.9124282 C2.29000614,12.9108547 2.2609303,12.9061802 2.21981444,12.8978448 C2.15076918,12.8838471 2.07369977,12.8644909 1.99062729,12.8389342 C1.75311799,12.7658661 1.51560193,12.6579104 1.29414875,12.5084663 C0.791610996,12.1693369 0.44629221,11.6694676 0.327860874,10.9764307 C0.198707332,10.2207208 0.650349887,9.43209467 1.50830194,8.65838995 C1.81987007,8.37741651 2.16711161,8.11559104 2.52366429,7.88110703 C2.76295657,7.72373839 2.99365348,7.5883752 3.10146297,7.53402681 C3.1092594,7.53133162 3.28045999,7.47595662 3.35968897,7.44898045 C3.53473663,7.38937957 3.71229729,7.32325232 3.90151006,7.24493102 C4.43584675,7.02375174 4.95790491,6.74872694 5.44709391,6.40779055 C6.64487616,5.57300575 7.46168988,4.47497413 7.72726947,3.07142992 C7.76044181,2.93259762 7.7944376,2.7973027 7.82880134,2.66752007 C8.3384969,0.742536622 8.78920951,0.245082894 9.33951174,0.2603902 C9.40355464,0.262171628 9.42051954,0.261528532 9.44492168,0.251680199 C11.6755329,0.478970621 13.7123084,2.52232614 15.2689279,5.82879483 C16.6561946,8.77553539 17.5331636,12.5056483 17.6260805,15.6895259 C17.7060255,18.4338059 17.2352294,20.9764324 16.3882607,23.1719435 C15.7933415,24.7140922 14.9948786,26.0267624 14.6705873,26.210704 C14.4998574,26.3076149 12.2559984,23.8178401 8.92860796,19.8845038 C8.83821818,19.7776533 8.74713667,19.6698739 8.65538582,19.561194 C7.42490509,18.1036753 6.12253925,16.542022 4.83085607,14.9803652 C4.37876472,14.4337826 3.96030212,13.9262426 3.58578826,13.4707605 C3.45471034,13.3113441 3.33848941,13.1698226 3.23841545,13.047823 C3.17837438,12.9746273 3.13706015,12.9242071 3.11576272,12.8981893 L4.15639625,12.3582731 L4.10267583,12.3505192 L13.7579898,22.456778 L13.7579898,22.456778 Z M4.11256503,12.2808714 L3.05977061,12.8878716 C3.06894154,12.9810098 3.11027499,13.0314535 3.17033564,13.1046731 C3.2704312,13.226699 3.38667409,13.3682472 3.51777439,13.5276908 C3.89234115,13.9832373 4.31085833,14.4908435 4.76300691,15.0374953 C6.05486638,16.5993652 7.35741591,18.1612388 8.5881113,19.6190117 C8.67988115,19.7277142 8.77098182,19.8355162 8.86139093,19.9423896 C12.4263478,24.1565552 14.4716022,26.4259592 14.7139056,26.2884213 C15.0619491,26.0910071 15.8685476,24.7649621 16.4706144,23.2042853 C17.3217381,20.9980035 17.7947202,18.4435712 17.7144144,15.6869039 C17.6211402,12.4907856 16.7413169,8.7485322 15.3487524,5.79053842 C13.7802231,2.45877173 11.7221144,0.394014042 9.4328537,0.165920569 C9.40436285,0.172016468 9.38945685,0.172581517 9.34194716,0.171259979 C8.74232199,0.154580697 8.26247431,0.684190942 7.74342347,2.64450677 C7.70886818,2.77501285 7.67469267,2.91102299 7.64090827,3.0526363 C7.37968759,4.4328755 6.57695969,5.51197175 5.39686816,6.33442715 C4.9133311,6.67142445 4.39679211,6.94354171 3.86796792,7.16243919 C3.68060984,7.23999277 3.50478928,7.30547197 3.33143252,7.36449712 C3.25404461,7.39084644 3.08059211,7.44694982 3.06618264,7.45240839 C2.95096197,7.51022261 2.71738679,7.64727465 2.47540886,7.80640949 C2.11534712,8.0432012 1.76460552,8.30766577 1.44941039,8.59191005 C0.570999658,9.3840645 0.105082371,10.1976161 0.240773895,10.9915814 C0.363508712,11.7098014 0.723154112,12.2304094 1.24501829,12.5825809 C1.47421029,12.7372474 1.71952835,12.8487492 1.96485318,12.9242218 C2.05077264,12.9506543 2.13062433,12.9707093 2.20240569,12.9852616 C2.24578579,12.9940562 2.27706422,12.9990847 2.29423774,13.0012151 C2.31954836,13.0006981 2.35266052,12.9984971 2.39877512,12.9942944 C2.47533241,12.9873174 2.56056427,12.9771245 2.65232012,12.9631052 C2.91458784,12.9230335 3.17692846,12.8603063 3.42223023,12.7698928 C4.31548213,12.4406571 4.7556492,11.8409555 4.4775666,10.9106879 C4.24951415,10.334951 3.88298998,10.0890572 3.44850674,10.1432544 C3.0968121,10.1871246 2.72637309,10.4355325 2.50445763,10.7455428 L2.56364058,10.7338051 C2.04662159,10.4088528 2.15721071,10.0207805 2.83778483,9.50510765 C3.36439788,9.10609152 3.97115032,8.77774649 5.56474823,7.98323935 C5.65759749,7.93694462 5.69661865,7.91748007 5.75037411,7.89063669 C6.94289479,7.29513821 7.56047298,6.96146966 8.0733061,6.60883519 C8.92733591,6.04019453 9.82450098,4.33750995 10.463313,2.34859458 L10.3992454,2.37349446 C14.7649265,4.90751622 17.0778023,18.7132989 13.7571192,22.3958355 L13.8216149,22.3948975 L4.16630091,12.2886387 L4.11256503,12.2808714 L4.11256503,12.2808714 Z" id="stroke" fill="#000000"></path>
                    </g>
                    <g id="woman" transform="translate(21.872093, 9.362229)">
                        <path d="M8.34652326,8.7033065 C9.01492116,8.12485672 9.3617043,7.77129882 9.77560605,7.83563294 C10.18951,7.89982663 10.7530323,7.86765845 11.1669363,7.73913065 C11.5822365,7.61046019 13.6363619,7.35340235 14.480956,7.64262836 C14.767613,7.67479653 15.149354,7.83563294 15.7380469,8.33380384 C16.3281383,8.8318343 17.1881048,9.69979096 16.9014478,12.1102373 C16.614793,14.5206769 16.7084807,15.5517258 16.5826322,16.8990843 C16.3602991,19.2774918 15.8373263,21.2358918 14.89486,21.0773134 C16.1687283,23.3271908 16.2959752,25.2555425 17.1237809,26.7983264 C17.9529851,28.3410925 18.461973,31.4908094 18.1431574,34.8977469 C17.8257381,38.304662 16.9336108,45.953893 19.6085965,51.096454 C19.1625317,51.4178459 18.0802321,51.096454 17.1237721,50.0679418 C16.1687194,49.0394318 15.7492237,49.0731492 14.9577743,49.6822157 C12.5372848,51.5463737 10.2706069,53.7931482 6.93142314,51.5463737 C6.16654279,51.0321176 5.92463302,50.4152939 6.48536058,48.8465744 C7.88647581,44.9255391 8.56745791,39.5456679 8.34652326,37.0189806 L8.34652326,8.70336446 L8.34652326,8.7033065 L8.34652326,8.7033065 Z" id="Shape" fill="#008021"></path>
                        <g id="Group">
                            <path d="M10.6424302,6.29275542 C10.8172214,6.83917746 10.9123076,7.54615505 10.6256395,8.18893895 C10.3389848,8.83172285 10.2760594,9.60317721 10.7528865,10.5351804 C11.5177691,9.44247455 12.6014672,9.66750464 13.2377109,9.02472074 C13.8753443,8.38179641 14.0025913,7.77118068 14.4808169,7.64251022 C14.0025913,7.22475641 13.2698717,6.77483666 13.4292795,5.55346254 C13.5886895,4.33208619 15.2764617,3.33588483 13.7480973,1.47157523 C12.7608838,0.268259071 11.3262159,0.603901672 10.7053578,1.06990663 C10.4131091,1.28887133 10.1642069,1.60010526 10.0691207,1.80905238 C9.97263826,2.0179995 10.0928928,2.49345585 9.86077244,2.77336867 C9.70276093,2.96609015 9.50979384,3.15782638 9.2874607,3.31965028 C9.14483256,3.42419517 9.05534035,3.57642502 9.2077557,3.75362972 C9.26928256,3.82445276 9.38114837,3.83955046 9.50419988,3.88258105 C9.43288581,4.02719406 9.35178453,4.1713813 9.27207953,4.27592619 C9.19657,4.37397994 9.22873081,4.46751975 9.31962151,4.54737511 C9.19936698,4.93296074 9.43148733,4.97486118 9.27207953,5.26422762 C9.13364465,5.514373 8.94627151,5.81036879 9.46364814,6.09987567 C9.60627849,6.18015232 10.2844636,6.33887331 10.6424324,6.29273981 L10.6424302,6.29275542 L10.6424302,6.29275542 Z" id="Shape" fill="#FFE1CF"></path>
                            <path d="M4.44644186,12.6887183 C3.55431233,12.9137506 2.1210407,12.528165 1.03733372,12.6565523 C0.55910814,12.7135505 0.177367209,12.4638286 0.241691047,11.9817407 C0.304614186,11.4995123 0.368938023,10.7603666 0.272453372,10.0854145 C0.124231279,9.03362378 0.623431977,7.57847703 1.3239907,5.97136124 C2.02454942,4.36440149 2.37552581,3.46455752 2.37552581,2.70918167 C2.37552581,2.21100854 2.42307,1.64850353 2.86913477,1.35927752 C3.19913826,1.14553337 3.2620614,0.937997276 3.37952116,0.764744768 C3.64939628,0.362933498 3.90389023,0.26657387 3.93605105,0.507686935 C3.95562547,0.65102935 3.90389023,0.78082774 3.77664326,0.973691889 C4.06330023,0.732576594 4.54991453,0.451252755 4.66038186,0.370976099 C4.77224767,0.290699443 5.33856698,-0.111111827 5.3693293,0.26657387 C5.59306093,0.15412904 5.74408,0.162028978 5.80001291,0.28251195 C5.86014128,0.412874303 5.823785,0.467473932 5.71191919,0.563835789 C5.87132698,0.531667616 6.05450686,0.812991455 5.73568907,1.06200669 C5.90348779,1.00571294 6.06988802,1.28703901 5.77624081,1.54409461 C5.47140791,1.80947591 5.12322628,1.99415703 5.01136047,2.20296372 C4.89949465,2.41191084 4.14300302,2.99854142 3.84096709,3.12707146 C3.53753047,3.25559926 3.5221493,3.4319569 3.5221493,3.88230019 C3.5221493,8.83184322 2.9334564,8.42975777 2.9334564,9.61938502 C2.9334564,9.9407792 2.86913477,10.230003 3.18795035,10.1335007 C3.50676814,10.0371388 3.96821407,9.89252805 4.44643965,9.89252805 L4.44643965,12.6886915 L4.44644186,12.6887183 L4.44644186,12.6887183 Z" id="Shape" fill="#FFE1CF"></path>
                            <path d="M4.63666279,23.3592074 C6.07693349,22.6329013 7.72694651,22.3628634 8.58691744,22.1379737 C9.44688395,21.9129437 10.8172302,21.238132 11.4856326,20.8845741 C12.155429,20.5308736 12.6965777,20.0487834 13.0783208,19.9202556 C13.4614602,19.7917278 13.8893447,19.5257825 14.1298559,19.052582 C15.3715656,16.6098427 16.0413598,14.6495926 16.0413598,12.9458452 C16.0413598,11.8209734 15.754705,10.5674378 14.6710069,11.4674133 C13.6530288,12.313362 12.5441623,13.9440349 12.2505173,15.1313885 C11.8044526,16.9312124 11.4227116,17.3169385 11.326227,17.6703581 C11.2311408,18.0240587 10.870375,18.0236374 10.4340997,18.1204206 C8.55475663,18.5383148 8.10869849,18.8273981 6.70758105,19.8880763 C5.3064636,20.9487567 3.77669849,21.8809048 2.7573264,22.4593456 C1.73794988,23.0379359 1.54777977,23.1021295 1.32404814,23.5681345 C1.101715,24.0341394 0.894763023,24.3876973 0.703194419,24.5967871 C0.511623605,24.8055938 0.457089186,25.049812 0.496242442,25.3037647 C0.528403256,25.5127118 0.431918605,26.4768877 0.416537442,26.7982796 C0.399746744,27.1196716 0.479462791,27.2000909 0.608108256,27.2160334 C0.735355233,27.2322613 0.910144186,27.1679227 0.974468023,26.7821967 C0.910144186,27.1679227 1.43591395,27.0392545 1.46807477,26.7501689 C1.45128407,27.1679227 2.00922349,26.9269501 2.04138651,26.5412218 C2.04138651,26.8143626 2.46367919,26.6254507 2.50283244,26.4929707 C2.5979164,26.1715787 2.6776214,25.8180208 2.80486837,25.560963 C2.99084523,25.1877934 3.18940628,24.7044349 3.55436756,24.4359485 C3.96827151,24.1306417 3.7767007,23.7931646 4.63666721,23.3591874 L4.63666279,23.3592074 L4.63666279,23.3592074 Z" id="Shape" fill="#FFE1CF"></path>
                            <path d="M14.9576395,49.6822291 C15.0541242,50.035787 15.2289131,50.4375983 15.2918385,50.6787136 C15.3561623,50.9196862 15.2442965,50.994885 15.1813712,51.1286333 C14.8471722,51.8357536 14.4878049,52.9628835 14.431872,53.5712389 C14.4011097,53.924799 14.1619969,54.2622739 14.050131,54.4712211 C13.9270773,54.7016144 13.9746215,54.8793808 14.2570808,55.097922 C14.3927187,55.2023264 14.8303926,55.065756 14.8779367,54.8408641 C15.0373445,55.0014197 15.3239993,54.937226 15.4512463,54.6961107 C15.5952751,54.8408641 15.8343879,54.7443619 15.9937957,54.5033892 C16.1364238,54.5997511 16.3433758,54.4068869 16.4230786,54.2782165 C16.6468102,54.390804 16.885923,54.2542336 16.8929155,53.8123542 C16.894241,53.7236114 16.9488484,53.5712389 17.01317,53.4668367 C17.0760953,53.3622918 17.0998674,53.1615277 17.092875,52.9846083 C17.0844797,52.8078271 17.1963499,52.4544097 17.347369,52.2052518 C17.498388,51.9560961 17.7612729,51.5142167 17.6494071,51.0964651 C17.54593,50.7072104 17.3795298,50.742905 17.2355031,50.1805382 C16.885923,49.8107547 16.4076974,49.2964986 15.9140907,49.2643326 C15.420484,49.2323049 15.1338292,49.569782 14.9576395,49.6822269 L14.9576395,49.6822291 L14.9576395,49.6822291 Z" id="Shape" fill="#FFE1CF"></path>
                            <path d="M5.8950814,52.4463158 C6.34114395,52.8962378 7.3451393,52.9123207 8.04569802,52.1569493 C7.79120407,52.0445045 7.23327349,51.7873063 6.97877953,51.5785018 C6.62780093,51.9320597 6.22928035,52.3337305 5.8950814,52.4463158 L5.8950814,52.4463158 L5.8950814,52.4463158 Z" id="Shape" fill="#FFE1CF"></path>
                            <path d="M10.585345,8.17064487 C10.2555233,8.91022453 10.271647,9.69174641 10.713623,10.5556299 L10.7470004,10.6208692 L10.7889786,10.5608994 C11.0660353,10.1650982 11.3917322,9.92430932 11.8348671,9.73939771 C11.9685104,9.68363092 12.0223788,9.66444514 12.3303438,9.55898028 C12.8177027,9.3920807 13.0486409,9.27882399 13.2689756,9.05622444 C13.4380076,8.88578987 13.5793531,8.71139315 13.7284813,8.49928532 C13.7593171,8.45542705 13.9867117,8.11803521 14.0480078,8.03633972 C14.1985761,7.83566246 14.32621,7.73024842 14.492202,7.68558693 L14.5728079,7.66389928 L14.5097389,7.60880544 C14.4611655,7.56637414 14.2298073,7.37349865 14.1662847,7.31784749 C13.6039792,6.82522087 13.3698742,6.35009714 13.4730874,5.55928307 C13.5019317,5.33828231 13.5816467,5.11513066 13.7202727,4.83798076 C13.7748396,4.72888714 13.7959638,4.68972206 13.939202,4.42824289 C14.6071462,3.20892113 14.6600605,2.51404715 13.7821453,1.44316008 C12.9266308,0.400372059 11.5503875,0.380077312 10.6789844,1.03413679 C10.3991948,1.24376664 10.1351596,1.55709261 10.0289652,1.79044968 C9.99458443,1.86490467 9.98544422,1.94253989 9.97760865,2.13639602 C9.97326995,2.24373783 9.97097108,2.28617623 9.96531084,2.34352336 C9.94789666,2.51995646 9.90737929,2.64769112 9.82688381,2.74476024 C9.65955234,2.94884789 9.46826046,3.13308476 9.26161004,3.28349408 C9.07125097,3.42302492 9.01940245,3.60266194 9.1743838,3.78284998 C9.21716806,3.83209941 9.26957254,3.85693039 9.37342976,3.88840407 C9.38078482,3.890633 9.41968173,3.9022306 9.43091018,3.90565308 C9.45335514,3.91249441 9.47185235,3.91845308 9.48972992,3.92470479 L9.4646401,3.86272141 C9.38645972,4.02125813 9.30853092,4.15499493 9.23705664,4.248744 C9.15025513,4.36146022 9.17625702,4.48053254 9.29060447,4.58099669 L9.27747294,4.53399335 C9.22726206,4.69499012 9.22916619,4.79382123 9.26394008,4.93738143 C9.27563064,4.98564463 9.27467064,4.98160019 9.27773659,4.99657662 C9.29527393,5.08224219 9.28685939,5.14563201 9.23345836,5.24256871 C9.21998079,5.26683246 9.21998079,5.26683246 9.20612148,5.29178495 C9.02562389,5.61792519 9.01341717,5.81268716 9.27441975,6.0266028 C9.32133385,6.06505322 9.37710191,6.10242653 9.44221782,6.13886324 C9.63366286,6.24661443 10.3284135,6.37815349 10.6480309,6.33696257 L10.6003801,6.30644873 C10.812846,6.97064749 10.8322847,7.61694215 10.585345,8.17064487 L10.585345,8.17064487 Z M10.6732147,6.2438438 L10.6368318,6.24853267 C10.3357919,6.28731409 9.66006828,6.15937747 9.48517384,6.06094161 C9.42430919,6.02688361 9.37283125,5.99238535 9.33013878,5.95739494 C9.11175313,5.77840781 9.12116919,5.62817185 9.28327938,5.3352557 C9.29700551,5.31054319 9.29700551,5.31054319 9.31065878,5.28596246 C9.37468336,5.16974144 9.38598878,5.08457358 9.36428177,4.97854022 C9.36088761,4.96196054 9.36190425,4.96624361 9.3497856,4.9162131 C9.31855256,4.78727091 9.31695683,4.70444665 9.36177009,4.56075687 L9.34863855,4.51375353 C9.26668431,4.44174963 9.25202695,4.37462811 9.3069713,4.30327952 C9.38266207,4.20400074 9.46325106,4.0656987 9.54375967,3.9024407 L9.56613988,3.85705738 L9.51866985,3.84045732 C9.49952521,3.83376252 9.47995655,3.8274587 9.45646642,3.8202988 C9.44491669,3.81677839 9.40592851,3.80515357 9.39885092,3.80300872 C9.31032379,3.7761808 9.26915932,3.7566757 9.24098394,3.72424327 C9.1253866,3.58984395 9.16063634,3.46771593 9.31343111,3.35571901 C9.52631002,3.20077662 9.72302679,3.01131493 9.89481885,2.80178575 C9.98867261,2.68860903 10.034238,2.54496007 10.053248,2.35235914 C10.0591395,2.29266855 10.0614963,2.24915998 10.0659073,2.14002927 C10.0731919,1.95980559 10.0817256,1.88732163 10.1091732,1.82787982 C10.208951,1.60862472 10.4632932,1.3068012 10.7317008,1.10569923 C11.568248,0.47780199 12.8914432,0.497314465 13.7140596,1.50000291 C14.5642012,2.53701163 14.5141435,3.19437305 13.8618576,4.38511082 C13.7179331,4.64784283 13.6966697,4.687266 13.6413781,4.79780845 C13.4986669,5.08312575 13.415835,5.31500271 13.3854717,5.54764194 C13.277887,6.37195042 13.525555,6.87460067 14.1083448,7.3851733 C14.1729407,7.44176476 14.4043641,7.63469457 14.4518948,7.67621499 L14.4694317,7.59943351 C14.2809645,7.65014215 14.138897,7.76747696 13.9775484,7.98252219 C13.9146372,8.06637026 13.6860931,8.4054676 13.6564031,8.44769633 C13.5099435,8.65600853 13.3716368,8.82665577 13.206477,8.9931861 C12.9986273,9.20317226 12.7770216,9.31185214 12.3019405,9.47454712 C11.99178,9.58076381 11.9372718,9.60017749 11.8010931,9.65700222 C11.3434922,9.84795024 11.0043243,10.0986982 10.7167944,10.5094615 L10.79215,10.514731 C10.3626261,9.67518618 10.347091,8.92219487 10.6659344,8.20723232 C10.9231722,7.63043869 10.9030807,6.96243765 10.6844804,6.2790621 L10.6732147,6.2438438 L10.6732147,6.2438438 Z" id="Shape-7" fill="#000000"></path>
                            <path d="M2.66103349,12.6508207 C2.55200108,12.6412794 2.49152842,12.6360577 2.42458294,12.6304743 C1.79935063,12.5783287 1.40329641,12.5683082 1.03218087,12.6122745 C0.55244346,12.6694528 0.228460646,12.4150472 0.285482053,11.9876888 C0.374927899,11.302198 0.398326906,10.6536554 0.316186872,10.0790502 C0.18532729,9.15046403 0.537001573,7.88748834 1.36443758,5.9893099 C2.17287795,4.1348884 2.41971186,3.40239636 2.41971186,2.70918167 C2.41971186,2.02778931 2.53203478,1.63084551 2.89302287,1.39678276 C3.12288251,1.24790206 3.20056957,1.15118549 3.3609081,0.878444346 C3.38285628,0.841109768 3.39904769,0.814906728 3.41599105,0.789915372 C3.54131014,0.603331226 3.66739876,0.47833827 3.76444858,0.436047157 C3.84128297,0.402565262 3.88042297,0.424891299 3.89225979,0.513633187 C3.90926765,0.638182448 3.86789229,0.754935425 3.73986164,0.948987368 L3.57132499,1.20443295 L3.80493696,1.00793531 C3.84997895,0.970049213 3.90177987,0.929697723 3.95997448,0.886942495 C4.01691728,0.845106963 4.07945938,0.801346427 4.1478463,0.755257619 C4.28110852,0.665446618 4.65688992,0.428455592 4.68620578,0.407151745 C4.81793427,0.312622288 4.9402298,0.236642446 5.06144622,0.188525935 C5.23036972,0.12147223 5.31482538,0.141724475 5.32529171,0.270225291 L5.33063502,0.335828039 L5.38903052,0.306479165 C5.5919588,0.204489844 5.71738511,0.20962978 5.75999887,0.301422482 C5.80595156,0.401051319 5.79334742,0.435073222 5.68322899,0.529929875 L5.55412115,0.641144108 L5.72058501,0.607552033 C5.87964363,0.575454323 5.94951188,0.838619318 5.70864115,1.02675336 L5.50371604,1.18681179 L5.74963062,1.10431144 C5.90313771,1.05281231 5.97350552,1.31238833 5.74728398,1.51042024 C5.70373101,1.54833634 5.65712277,1.58646589 5.60539213,1.62679449 C5.56339904,1.65953182 5.52036025,1.69197332 5.46363234,1.7339308 C5.47654777,1.72437821 5.35722306,1.81235163 5.32689174,1.83502783 C5.22008068,1.91488154 5.14984456,1.97220306 5.09183418,2.02948799 C5.03896734,2.08169371 4.9994445,2.13145088 4.9724897,2.18176421 C4.86906086,2.37495243 4.12640055,2.95722143 3.82379573,3.08599355 C3.52727861,3.21159037 3.47796326,3.34905791 3.47796326,3.88230019 C3.47796326,6.01995624 3.37424038,7.29214933 3.18467308,8.1511213 C3.13167919,8.39124855 2.96809159,8.96218749 2.96926273,8.95754455 C2.9141909,9.17587442 2.88927035,9.36691272 2.88927035,9.61938502 C2.88927035,9.65758141 2.88854433,9.69055416 2.88663278,9.75357683 C2.88057571,9.9532745 2.88360669,10.0214199 2.91350989,10.0908561 C2.9572334,10.1923833 3.05277206,10.2209628 3.20064717,10.1762025 C3.37431209,10.1237127 3.38844263,10.1194874 3.46399984,10.0980572 C3.83487311,9.99286715 4.14199646,9.93711009 4.44643965,9.93711009 L4.4022536,9.89252805 L4.4022536,12.6886915 L4.44644186,12.6887183 L4.43572512,12.6454673 C4.0390241,12.7455319 3.64944656,12.7373156 2.66103349,12.6508207 L2.66103349,12.6508207 Z M4.49359422,12.7227786 L4.49047528,12.6850159 L4.4906257,9.89252805 L4.4906257,9.84794601 L4.44643965,9.84794601 C4.13241168,9.84794601 3.81806394,9.90501463 3.44008462,10.0122202 C3.36382411,10.0338498 3.34957424,10.0381109 3.17527056,10.0907937 C3.06603051,10.1238596 3.01787332,10.1094538 2.99456115,10.0553222 C2.97228885,10.0036053 2.96941938,9.93909105 2.97496352,9.75630424 C2.97690155,9.69240866 2.97764244,9.65876027 2.97764244,9.61938502 C2.97764244,9.37452562 3.00160247,9.19085058 3.05490476,8.97953596 C3.05310506,8.98667081 3.21721353,8.41391397 3.27093261,8.17050074 C3.4621164,7.30420411 3.56633535,6.02592648 3.56633535,3.88230019 C3.56633535,3.38137356 3.60424821,3.27569068 3.85807083,3.16817807 C4.17768876,3.03216616 4.93590976,2.4376971 5.05023713,2.22415219 C5.07247641,2.18264076 5.10664177,2.13962838 5.15364719,2.09321079 C5.2080725,2.03946609 5.27569584,1.98427692 5.37950403,1.90666821 C5.40955748,1.88419975 5.5285591,1.79646453 5.51587959,1.80584264 C5.57315664,1.76347899 5.61673999,1.73062702 5.65942424,1.69735087 C5.71234437,1.65609496 5.76016779,1.61697128 5.80510656,1.57784851 C6.09342179,1.32546068 5.98646002,0.930895187 5.72174752,1.01970193 L5.76273699,1.09726001 C6.06964449,0.857547405 5.96598403,0.467101022 5.70325336,0.520119546 L5.74060939,0.597741704 C5.87791079,0.47946948 5.90538656,0.405305128 5.84007338,0.263701769 C5.76996507,0.112683773 5.59101493,0.105350444 5.34962809,0.226668575 L5.4133669,0.262922449 C5.39654548,0.0563968093 5.24467307,0.0199782021 5.02909256,0.105552269 C4.95495721,0.134980088 4.87469405,0.177634169 4.79085424,0.229722216 C4.73398408,0.265054544 4.68749745,0.296809271 4.63477188,0.334645962 C4.6080682,0.354050566 4.23418926,0.589841781 4.09876072,0.681112755 C4.02943961,0.727831158 3.96593644,0.772264153 3.90795469,0.814862992 C3.84829213,0.858696718 3.79499421,0.900214326 3.74834956,0.939448466 L3.81342487,0.998396409 C3.95228208,0.787935007 4.00038757,0.652190949 3.97982357,0.501601868 C3.96019535,0.354445374 3.85999178,0.297287775 3.72940935,0.354191295 C3.61396429,0.404498449 3.47673364,0.540536615 3.34294289,0.739734778 C3.32482436,0.766458762 3.3077368,0.794112067 3.28490081,0.83295684 C3.13101232,1.09472627 3.06076542,1.18218019 2.84526471,1.32176059 C2.45081578,1.57751916 2.33133977,1.99974163 2.33133977,2.70918167 C2.33133977,3.38502253 2.08653857,4.11148241 1.28354446,5.95341112 C0.449590508,7.86654205 0.0947280647,9.14096744 0.22870732,10.0916903 C0.30948191,10.6567443 0.286347645,11.2979492 0.197883024,11.9759215 C0.132317043,12.4673175 0.510447474,12.7642422 1.04251729,12.7008265 C1.40615172,12.6577466 1.79759393,12.6676504 2.41730284,12.7193353 C2.48409606,12.724906 2.54447776,12.7301198 2.6533975,12.7396513 C3.65304528,12.8271293 4.0469647,12.8354372 4.4571586,12.7319692 L4.49359422,12.7227786 L4.49359422,12.7227786 Z" id="Shape-6" fill="#000000"></path>
                            <path d="M5.5768824,23.000366 C6.09369034,22.8078308 6.63349728,22.6499103 7.26965267,22.4943695 C7.48809783,22.4409594 8.406221,22.2312825 8.59800352,22.1811298 C9.31522154,21.9934531 10.4734529,21.4703136 11.5061491,20.924059 C11.6700345,20.8375157 11.834338,20.7393568 12.0168183,20.6211995 C12.1451875,20.5380795 12.5512794,20.2625607 12.6194387,20.2180361 C12.8259827,20.0831123 12.9701343,20.0036793 13.0923073,19.9625452 C13.5575138,19.8064873 13.9486707,19.5067597 14.1691735,19.0729256 C15.471214,16.511501 16.0855458,14.5916115 16.0855458,12.9458452 C16.0855458,12.2925449 15.9934668,11.7425893 15.800259,11.4240407 C15.5551656,11.0199463 15.1627889,11.001263 14.6429264,11.4329916 C13.5934197,12.3051409 12.4972477,13.9495897 12.2076458,15.120595 C12.0144433,15.9001465 11.8240202,16.4613512 11.6169938,16.9249612 C11.5880569,16.9897617 11.3157761,17.5407596 11.2836275,17.658519 C11.2254233,17.8750249 11.0884117,17.9476134 10.6953181,18.0231088 C10.6840093,18.0252807 10.591857,18.0427537 10.5638337,18.0481921 C10.5114409,18.0583596 10.4674961,18.067365 10.4246111,18.0768786 C8.66660315,18.4677925 8.2180063,18.6889141 6.68106266,19.8524158 C5.47638881,20.7643835 4.07245034,21.6619318 2.73566638,22.4204875 C1.5273082,23.1063422 1.80835197,22.9427336 1.64427025,23.0747277 C1.49830454,23.1921485 1.40450176,23.3113284 1.31076635,23.4951237 C1.30204453,23.5122253 1.29323913,23.5300423 1.28428204,23.5486988 C1.05426362,24.0308116 0.851727023,24.3689927 0.670747985,24.5665244 C0.4787238,24.7758252 0.409149486,25.0289122 0.452581492,25.3106173 C0.466856172,25.4033592 0.455996117,25.6571762 0.424738687,26.0798792 C0.421642837,26.1217452 0.41832996,26.165602 0.414577443,26.214531 C0.412794839,26.2377744 0.393772445,26.4827193 0.388977763,26.5465248 C0.380430608,26.6602665 0.375143699,26.7388582 0.372402818,26.7961294 C0.356115787,27.1078724 0.427272721,27.2385403 0.602721567,27.260283 C0.801545976,27.2856394 0.959582197,27.140153 1.0180416,26.7895938 L0.93089445,26.7747995 C0.896596242,26.9804731 1.01616462,27.0909897 1.19191058,27.0632848 C1.35064972,27.0382609 1.49465162,26.9109479 1.51198506,26.7551419 L1.42392501,26.7483625 C1.4148694,26.9736666 1.56475187,27.0631787 1.75257704,26.9884772 C1.92477837,26.9199895 2.06910313,26.7406102 2.08541701,26.5449593 L1.99720047,26.5412218 C1.99720047,26.6990791 2.11484905,26.7535988 2.26878471,26.7122881 C2.39448127,26.6785558 2.52060285,26.5888567 2.54517604,26.5057102 C2.56467922,26.4397878 2.58007787,26.3851573 2.61326823,26.2654325 C2.7161248,25.89441 2.76650727,25.7382345 2.84439828,25.5808831 C2.85013762,25.5693672 2.99666377,25.267387 3.04350326,25.1767643 C3.21584603,24.8433238 3.37598251,24.6223529 3.58039973,24.4719719 C3.71470727,24.372903 3.78430024,24.2833178 3.88469356,24.1075009 C4.08017395,23.7651599 4.21701486,23.62081 4.65643293,23.3990602 C4.94377469,23.254176 5.25035566,23.1220126 5.5768824,23.000366 L5.5768824,23.000366 Z M3.80812059,24.0629897 C3.71333734,24.2289818 3.65060467,24.3097359 3.52828995,24.3999586 C3.31048233,24.5601903 3.14324195,24.7909638 2.96514603,25.1355352 C2.91768518,25.2273602 2.77073753,25.5302091 2.76539208,25.5409349 C2.68398087,25.7053973 2.63264357,25.8645325 2.52969102,26.2359012 C2.49510977,26.3606433 2.47980449,26.4149425 2.46049247,26.4802188 C2.44654429,26.5274142 2.34514247,26.5995323 2.2460693,26.6261199 C2.14098947,26.6543195 2.08557256,26.6286387 2.08557256,26.5412218 L1.99735601,26.5374843 C1.98398894,26.6977944 1.86235084,26.8489767 1.72016895,26.9055251 C1.58839465,26.9579342 1.50592602,26.9086827 1.51222453,26.7519754 L1.42416448,26.7451959 C1.41166652,26.857537 1.30036135,26.9559426 1.17826872,26.9751895 C1.06001513,26.9938312 0.994137076,26.9329403 1.0180416,26.7895938 L0.93089445,26.7747995 C0.879730882,27.0816083 0.761301107,27.1906334 0.613649182,27.1718033 C0.493130528,27.1568676 0.446522319,27.0712794 0.46066223,26.8006264 C0.463363275,26.7441966 0.468607432,26.6662403 0.477096943,26.5532658 C0.481881588,26.4895939 0.500895957,26.2447523 0.502686144,26.22141 C0.506444519,26.1724047 0.509763403,26.1284683 0.512865839,26.0865132 C0.544921572,25.6530145 0.555752347,25.3998819 0.53990511,25.2969232 C0.500500817,25.0413423 0.562516703,24.8157502 0.735620415,24.6270721 C0.923957067,24.4215099 1.13038778,24.0768267 1.36386141,23.5874716 C1.37246869,23.569544 1.38095757,23.5523675 1.3893455,23.5359205 C1.47756044,23.3629496 1.56354812,23.2536992 1.69936185,23.144445 C1.85739078,23.01732 1.58432269,23.1762857 2.77899058,22.4982014 C4.11888995,21.7378779 5.52596443,20.8383247 6.73409947,19.9237368 C8.26145772,18.7674914 8.69872804,18.5519529 10.4436095,18.1639578 C10.485617,18.1546389 10.5288367,18.1457821 10.5805253,18.1357512 C10.6083237,18.1303565 10.7003595,18.1129056 10.7118429,18.1107001 C11.1358869,18.0292606 11.2987163,17.9429939 11.3688721,17.6820289 C11.3982991,17.5742404 11.6649103,17.0347156 11.6975654,16.9615885 C11.9068056,16.493021 12.0989303,15.9268017 12.2933835,15.1422036 C12.5781727,13.9906586 13.6635921,12.3623406 14.6990982,11.5018258 C15.180838,11.1017569 15.5107059,11.1174638 15.7248812,11.4705823 C15.9074001,11.7715077 15.9971737,12.3076941 15.9971737,12.9458452 C15.9971737,14.5746052 15.3867502,16.4822804 14.0905394,19.0322366 C13.8815705,19.4433781 13.5091512,19.7287478 13.0643802,19.8779505 C12.9332236,19.9221092 12.7838001,20.0044472 12.5714104,20.1431896 C12.5023345,20.188313 12.0964402,20.4636979 11.9690884,20.546159 C11.788642,20.6629994 11.6264995,20.7598672 11.4651431,20.845075 C10.4381857,21.388294 9.28451181,21.9093751 8.57582483,22.0948194 C8.38564915,22.144552 7.46849833,22.3540067 7.24883989,22.4077135 C6.60963365,22.5640003 6.0667302,22.7228266 5.54627208,22.9167217 C5.2168314,23.0394538 4.90729664,23.1728906 4.61690835,23.3193289 C4.16034715,23.5497121 4.01162668,23.7065934 3.80812059,24.0629897 L3.80812059,24.0629897 Z" id="Shape-5" fill="#000000"></path>
                            <path d="M14.9928222,49.9466312 C15.0130769,50.006928 15.0351451,50.0699178 15.061844,50.1441422 C15.0701927,50.1673519 15.149709,50.3857319 15.1705066,50.4445565 C15.2076697,50.5496693 15.2326312,50.6269268 15.2491089,50.6900657 C15.2856526,50.8269698 15.2699423,50.8936205 15.1991365,51.0083125 C15.194387,51.0159909 15.194387,51.0159909 15.1895526,51.0237948 C15.1665291,51.0610049 15.1539761,51.0828997 15.1414541,51.1095152 C14.7917291,51.8494865 14.442401,52.9740663 14.3878748,53.5671209 C14.3719814,53.7497826 14.3007818,53.9351926 14.1753571,54.1625582 C14.1466988,54.214509 14.0337743,54.407969 14.0112544,54.4500326 C13.8741951,54.7066485 13.9375345,54.9068674 14.2301929,55.1332997 C14.403138,55.2664207 14.8698402,55.0928714 14.9211506,54.8501644 L14.8467198,54.872416 C15.0307935,55.057815 15.3515483,54.9798806 15.4902479,54.7170641 L15.4200631,54.7276964 C15.5855601,54.8940261 15.8542811,54.7945963 16.0305475,54.5281389 L15.9692108,54.5404332 C16.1194019,54.6419047 16.3394718,54.4973082 16.4605486,54.3018445 L16.4033574,54.3181117 C16.6844847,54.4595822 16.9301689,54.2508111 16.9370959,53.8130659 C16.9382622,53.7349857 16.9890032,53.5905093 17.0506967,53.4903729 C17.1149463,53.3836324 17.1450213,53.1851252 17.137026,52.9828319 C17.1289394,52.8125229 17.2408914,52.4663748 17.3850647,52.2285112 C17.6700675,51.7583054 17.7866864,51.4381962 17.6920636,51.0848369 C17.6539245,50.9413667 17.6119764,50.8558071 17.5307255,50.7332492 C17.4431715,50.601184 17.4293081,50.5787197 17.3918441,50.4989889 C17.3498218,50.4095574 17.3126786,50.3036817 17.278284,50.1693844 L17.2674767,50.1497674 C17.1252861,49.9993591 17.0814904,49.9535889 17.0056673,49.8777259 C16.5943512,49.4661937 16.2586105,49.2421084 15.9169386,49.2198433 C15.6416237,49.2019794 15.4167815,49.2862015 15.184693,49.4538164 C15.1409354,49.4854182 14.9695721,49.6218594 14.934019,49.6445495 L14.9063466,49.6622123 L14.9150388,49.694064 C14.9361318,49.7713569 14.9618132,49.8543197 14.9928222,49.9466312 L14.9928222,49.9466312 Z M14.9812601,49.7199065 C15.0214832,49.6942337 15.1957202,49.5555044 15.2361296,49.5263206 C15.4530541,49.3696573 15.6591326,49.2924638 15.911255,49.3088228 C16.2249779,49.3292666 16.5464206,49.5438088 16.9434417,49.9410386 C17.0184587,50.016095 17.0619532,50.0615505 17.2035296,50.2113091 L17.1927223,50.191692 C17.2284657,50.3312558 17.2674686,50.4424323 17.3119915,50.5371857 C17.3520099,50.6223525 17.367147,50.6468809 17.4572713,50.7828232 C17.5335618,50.8978988 17.5713778,50.9750304 17.6067295,51.1080146 C17.6926885,51.4290201 17.5821381,51.7324717 17.3096733,52.1819922 C17.1570245,52.4338388 17.0397084,52.7965723 17.0487396,52.986742 C17.0560884,53.1727143 17.0283644,53.3557044 16.9754028,53.4436954 C16.9061509,53.5560955 16.8501713,53.7154881 16.8487344,53.8116824 C16.8427457,54.1901314 16.6583728,54.3468031 16.4427998,54.2383212 L16.4068814,54.2202462 L16.3856087,54.2545884 C16.2878576,54.4123957 16.1107593,54.5287578 16.0183806,54.4663452 L15.9816106,54.4415028 L15.9570439,54.4786395 C15.807463,54.7047571 15.5991519,54.7818346 15.4824295,54.664525 L15.4402354,54.6221187 L15.4122447,54.6751573 C15.2997528,54.8883136 15.0482593,54.9494195 14.9091537,54.8093123 L14.8516676,54.7514124 L14.8347228,54.8315639 C14.7969529,55.0102222 14.4052362,55.1558872 14.2838814,55.0624769 C14.023218,54.8607992 13.9745006,54.7068011 14.0890286,54.4923704 C14.1105654,54.4521433 14.2231043,54.2593439 14.2525744,54.2059215 C14.3835247,53.9685391 14.4586906,53.7728006 14.4758887,53.5751376 C14.5293211,52.9939849 14.8756361,51.8791051 15.2212547,51.1478224 C15.2319691,51.1250491 15.2431759,51.1055024 15.264516,51.0710129 C15.2693078,51.0632778 15.2693078,51.0632778 15.274147,51.0554544 C15.356808,50.9215592 15.3781987,50.8308095 15.3345042,50.6671196 C15.3173086,50.6012272 15.29168,50.5219051 15.2537414,50.4145987 C15.2327765,50.3553009 15.1531371,50.136583 15.1449144,50.1137233 C15.1184133,50.0400492 15.0965446,49.9776287 15.0765178,49.9180103 C15.0460207,49.8272226 15.020834,49.7458581 15.0002402,49.6703942 L14.9812601,49.7199065 L14.9812601,49.7199065 Z" id="Shape-4" fill="#000000"></path>
                            <path d="M8.07796158,52.1874105 L8.12064047,52.1413923 L8.06342263,52.1161114 C7.60763771,51.9147288 7.20829465,51.7093501 7.006657,51.5439126 L6.9757506,51.5185548 L6.94756029,51.5469523 C6.87129741,51.6237756 6.83779267,51.6574224 6.79493903,51.7000577 C6.67530591,51.8190815 6.57809231,51.9122767 6.48472028,51.9961812 C6.2453613,52.2112702 6.04885692,52.3475103 5.8810876,52.4040286 L5.81329948,52.4268651 L5.86384194,52.4778449 C6.37566067,52.994092 7.41317355,52.9042124 8.07796158,52.1874105 L8.07796158,52.1874105 Z M5.90907519,52.488603 C6.09101432,52.4273112 6.29588079,52.2852735 6.54349539,52.0627659 C6.63816697,51.9776936 6.73638015,51.8835401 6.85698769,51.763547 C6.90001536,51.7207385 6.93360606,51.6870054 7.00999878,51.6100513 L6.95090207,51.613091 C7.16111727,51.7855661 7.56429706,51.992918 8.02797342,52.1977873 L8.01343447,52.1264882 C7.38103578,52.8083666 6.40072073,52.8932912 5.92632085,52.4147867 L5.90907519,52.488603 L5.90907519,52.488603 Z" id="Shape-3" fill="#000000"></path>
                        </g>
                        <path d="M10.4033837,1.34325697 C10.5781749,0.202299938 11.3794115,0.229247554 11.8842062,0.346912941 C12.0911559,0.395164087 12.6015445,0.443274799 13.0783716,0.314744768 C14.0236349,0.0606516409 14.7353793,0.395164087 14.6402953,1.31123146 C14.8947893,1.50395294 15.1646644,1.95387269 15.1171224,2.33974142 C15.0695783,2.72532706 15.1492833,2.88602303 15.5002619,2.93413375 C15.849842,2.98252533 16.5993412,3.41636211 16.1043359,4.02698006 C16.5825615,4.31634427 16.9489213,5.05549003 16.6944273,5.55366316 C16.4399334,6.05183406 15.6750508,6.13225337 15.3562352,5.68219096 C15.0066551,5.84288693 14.4319449,5.87505511 14.0823648,5.50555245 C13.843252,5.79463579 13.2377794,5.76261028 13.1259136,5.50555245 C13.0154463,5.24835418 12.8266724,5.11079628 12.6015445,5.03940706 C12.3456521,4.95912817 12.3302687,4.25201015 12.7120119,4.17159084 C12.6644677,3.96264372 12.6812473,3.72167108 12.7763335,3.60922625 C12.8714197,3.49678142 12.7917102,3.2878343 12.5693815,3.11091269 C12.3456521,2.93413375 12.1554798,2.25918167 12.3778129,1.88967901 C11.996072,2.01820904 11.1514866,1.64856594 10.9766955,1.39150811 C10.800508,1.13430985 10.5627937,1.11836731 10.4033837,1.34325697 L10.4033837,1.34325697 L10.4033837,1.34325697 Z" id="hair" fill="#870F00"></path>
                        <g id="lines" transform="translate(0.883721, 0.222910)" fill="#000000">
                            <path d="M10.3947224,5.89842745 C10.4220006,5.88380921 10.5294978,5.82497424 10.5072128,5.83712172 C10.5510203,5.81324238 10.5829054,5.79639448 10.614123,5.78087715 C10.7725173,5.7021442 10.8968245,5.66991866 11.0449386,5.68019815 L11.0509833,5.59153336 C10.8853284,5.5800365 10.7463983,5.61605291 10.5751953,5.70115268 C10.5427959,5.71725744 10.5100395,5.73456571 10.465344,5.75892912 C10.4872588,5.7469834 10.3802811,5.80553403 10.3534039,5.81993744 C10.1370379,5.93588707 9.97147857,5.9974833 9.75310117,6.02576978 L9.76431743,6.11392063 C9.99483317,6.08406187 10.1697808,6.01897271 10.3947224,5.89842745 L10.3947224,5.89842745 Z" id="Shape"></path>
                            <path id="Shape"></path>
                            <path id="Shape"></path>
                            <path d="M10.3755144,0.620686485 C10.755766,0.509768279 11.2370294,0.657339179 11.6868455,1.10377502 C11.8631924,1.27925373 12.3415679,1.33207567 12.5594494,1.25886953 L12.5316192,1.17454769 C12.3422579,1.23817129 11.8980588,1.18912309 11.748657,1.04045684 C11.277141,0.572484163 10.7635219,0.414991965 10.3510504,0.535308623 C9.99079083,0.640395216 9.81767366,0.947282587 10.0302783,1.1524594 L10.0911635,1.0882341 C9.93959779,0.941963659 10.0706709,0.709608375 10.3755144,0.620686485 L10.3755144,0.620686485 Z" id="Shape"></path>
                            <path d="M12.8540905,2.11639858 C12.9430583,2.34972759 13.0476123,2.43129069 13.285743,2.51506375 C13.4205666,2.56249395 13.4672381,2.58211226 13.5350669,2.62666019 C13.6405769,2.69595602 13.7304716,2.79881458 13.812679,2.95696437 C14.0147902,3.34569775 14.2260626,3.65051448 14.4424444,3.83217997 C14.7212146,4.06622421 14.998506,4.08332313 15.2513051,3.83589649 L15.1899735,3.77210499 C14.9724911,3.98496548 14.7454659,3.97096617 14.4987858,3.7638635 C14.2933392,3.59137876 14.0878559,3.29491442 13.8906845,2.91568195 C13.8016831,2.74446203 13.70169,2.63004876 13.5831207,2.55217599 C13.5073012,2.50237996 13.4563209,2.48095048 13.3147433,2.43114425 C13.0987471,2.35515798 13.0144259,2.28937862 12.936337,2.08458086 C12.7491769,1.59041043 12.1478075,1.46717502 11.4841086,1.62342495 L11.504124,1.70997443 C12.1300533,1.56261631 12.6876279,1.67687707 12.8540905,2.11639858 L12.8540905,2.11639858 Z" id="Shape"></path>
                            <path id="Shape"></path>
                            <path d="M12.4912345,4.60313098 L12.5051213,4.51536809 C12.1761492,4.46237727 11.8914681,4.1654065 11.8722572,3.94474319 L11.7845102,3.95251996 C11.807316,4.21447558 12.1230319,4.54382092 12.4912345,4.60313098 L12.4912345,4.60313098 Z" id="Shape"></path>
                            <path id="Shape"></path>
                            <path d="M12.5915164,3.10584843 L12.5677993,3.08155746 C12.6996336,3.41062244 13.1005963,3.70919855 13.6323909,3.65554269 L13.6236261,3.56710945 C13.134447,3.61646559 12.7676977,3.34336641 12.6494646,3.04825059 L12.6257475,3.02395962 C12.3623997,2.91189312 12.1753019,2.56218174 12.1911653,2.26380443 L12.1032068,2.25904387 C12.0854623,2.59280442 12.2916806,2.97825462 12.5915164,3.10584843 L12.5915164,3.10584843 Z" id="Shape"></path>
                            <path d="M12.3123649,0.349911584 L12.3008448,0.438022534 C12.8147161,0.506418532 13.2174682,0.722327615 13.7296618,1.12335439 L13.7836638,1.05314097 C13.2601999,0.643290077 12.845241,0.420837117 12.3123649,0.349911584 L12.3123649,0.349911584 Z" id="Shape"></path>
                            <path d="M9.18958242,13.5341344 C9.19794146,13.5816428 9.20850006,13.641374 9.22798958,13.7516251 C9.24373124,13.8408045 9.25578021,13.9095557 9.26752439,13.977429 C9.36085113,14.5167938 9.41861034,14.9159002 9.45399516,15.3119359 C9.56837682,16.5921237 9.39601009,17.4972572 8.82017955,18.025249 L8.87942068,18.0910209 C9.48129865,17.5391457 9.65835925,16.6093637 9.54172429,15.3039564 C9.50607598,14.9049716 9.44800724,14.5037264 9.35429684,13.9621444 C9.34253255,13.8941548 9.33046757,13.8253123 9.31470986,13.736042 C9.29521383,13.625754 9.284663,13.5660667 9.27630395,13.5185584 C9.04664976,12.2204689 9.28877068,11.1799855 9.90460216,10.338672 L9.83374668,10.2858729 C9.20355559,11.1468036 8.95567845,12.2120237 9.18958242,13.5341344 L9.18958242,13.5341344 Z" id="Shape"></path>
                            <path d="M11.6275991,21.0755389 C11.0806081,21.4741136 10.1444192,21.5222936 9.50710426,21.2003561 L9.46766993,21.2798267 C10.1334689,21.6161529 11.1047254,21.5661681 11.6791707,21.1475883 C12.1795168,20.7830022 13.1452499,20.710143 14.0016064,20.8977902 L14.0203006,20.8109405 C13.1418985,20.6184626 12.1524284,20.6931126 11.6275991,21.0755389 L11.6275991,21.0755389 Z" id="Shape"></path>
                            <path d="M11.4822744,22.5577895 C11.4822744,22.8944053 11.4727246,23.0901999 11.4207147,23.9707406 C11.3424715,25.2954192 11.3317034,26.0538141 11.4176628,26.9072138 C11.4273362,27.0032514 11.4382647,27.0980708 11.4504906,27.1917423 L11.5378215,27.1801388 C11.5257106,27.0873484 11.5148827,26.9934013 11.5052963,26.898228 C11.4199513,26.0509281 11.4306676,25.2961825 11.5086436,23.9760277 C11.5607871,23.0932249 11.5703593,22.8969712 11.5703593,22.5577895 C11.5703593,21.4305289 11.8342061,20.9627405 12.4735712,20.8499903 L12.4584056,20.7624431 C11.768904,20.8840348 11.4822744,21.392216 11.4822744,22.5577895 L11.4822744,22.5577895 Z" id="Shape"></path>
                            <path d="M11.255117,21.2710694 C11.2382705,21.2754531 11.2238412,21.2791298 11.1924141,21.2870898 C10.6163606,21.4331521 10.4321664,21.671887 10.4951576,22.5609891 L10.5830183,22.5546523 C10.5231705,21.7099185 10.6780792,21.5091407 11.2138827,21.3732841 C11.2453546,21.3653129 11.2600159,21.3615771 11.2771145,21.3571278 C11.2955379,21.3523072 11.2955379,21.3523072 11.3140207,21.34733 L11.2911189,21.2615121 C11.2731609,21.2663481 11.2731609,21.2663481 11.255117,21.2710694 L11.255117,21.2710694 Z" id="Shape"></path>
                            <path d="M9.84324365,21.4116821 L9.86459472,21.3254582 C9.41576748,21.212317 9.12722418,21.7847381 9.10932912,22.5889469 L9.19739181,22.5909417 C9.21417086,21.8368867 9.47526444,21.3189212 9.84324365,21.4116821 L9.84324365,21.4116821 Z" id="Shape"></path>
                            <path d="M12.9901983,20.72972 L12.9906131,20.8185506 C13.7536157,20.8388039 14.0031803,21.2327314 14.2218331,23.3659298 C14.3236987,24.3571871 14.473188,25.0252691 14.7490851,25.8647124 C14.7824297,25.9661667 14.8172531,26.0696143 14.8648497,26.2092123 C14.8558119,26.1827051 14.9579072,26.4815132 14.9862671,26.5651723 C15.087804,26.8646974 15.1653178,27.1032719 15.2428901,27.3598473 C15.6059991,28.5608454 15.8188891,30.0247709 15.9373033,31.859503 C15.9963645,32.7746101 16.0185159,33.3917227 16.0665597,35.1327227 C16.1301279,37.4362932 16.1931698,38.3544782 16.3892417,39.057975 L16.4740376,39.033916 C16.2808434,38.3407442 16.2179126,37.4241762 16.1546105,35.1302491 C16.1065344,33.3880803 16.0843606,32.7703443 16.025202,31.8537278 C15.9063847,30.0127499 15.6926031,28.5426933 15.3271422,27.3339161 C15.2492427,27.0762585 15.1714408,26.8367973 15.0696117,26.5364104 C15.0412112,26.4526313 14.9390736,26.1536993 14.9481437,26.1803015 C14.9006443,26.0409885 14.8659158,25.9378228 14.8326928,25.8367386 C14.5587165,25.0031393 14.4106224,24.341293 14.3094495,23.3567756 C14.0868129,21.1847112 13.812334,20.7514575 12.9929297,20.729707 L12.9933445,20.8185376 C13.4716567,20.8012895 13.7245061,21.3569069 13.6958396,22.7176191 L13.7839046,22.7195078 C13.8135128,21.3140964 13.5385767,20.7099453 12.9901983,20.72972 L12.9901983,20.72972 Z" id="Shape"></path>
                            <path d="M12.6950859,36.9110768 C13.0017503,37.7926675 13.316842,38.6202852 13.6857474,39.5515759 C13.8921073,40.0725254 14.5373861,41.6724239 14.5688888,41.7512005 C15.2172268,43.3724569 15.511634,44.2267765 15.6231245,44.9026614 L15.7100141,44.8880705 C15.5970716,44.2033828 15.301468,43.3455914 14.6505751,41.7179461 C14.6189792,41.6389364 13.9737782,40.0392311 13.7675414,39.5185921 C13.3989691,38.5881422 13.0842119,37.7614032 12.7836351,36.9236913 C14.5163354,31.3951098 14.4048949,27.5354103 12.9059577,23.1538973 L12.8226935,23.1828953 C14.3156135,27.5468198 14.4264907,31.3870068 12.6950859,36.9110768 L12.6950859,36.9110768 Z" id="Shape"></path>
                            <path d="M9.11488248,31.0831236 C9.10653752,31.0220653 9.09398603,30.9594614 9.07473785,30.8786452 C9.06676576,30.8451732 9.03018493,30.698746 9.02045646,30.6580219 C8.85030723,29.9457639 8.86652936,29.1994827 9.21132414,27.8074551 C9.51600039,26.5772663 9.56613654,25.8307238 9.36738122,25.4305317 L9.28863041,25.4703475 C9.47463452,25.8448651 9.42553775,26.5759308 9.12586722,27.7859082 C8.7777488,29.1913542 8.76121235,29.9520953 8.93482385,30.6788467 C8.94469787,30.7201801 8.98126891,30.8665681 8.98909119,30.8994111 C9.00771901,30.9776227 9.0197387,31.037574 9.02762333,31.0952642 C9.04708111,31.2376325 9.03979609,31.3652418 8.99892921,31.512903 L9.08376847,31.536806 C9.1279644,31.3771162 9.13594859,31.2372597 9.11488248,31.0831236 L9.11488248,31.0831236 Z" id="Shape"></path>
                            <path d="M9.50804076,29.339687 C9.60127553,29.7905995 9.65374862,30.0685377 9.69693956,30.3622596 C9.81999211,31.1990839 9.80393235,31.8517283 9.60547509,32.4100311 L9.68838863,32.4400346 C9.89266956,31.8653486 9.90906114,31.1992196 9.78407069,30.3492165 C9.74056297,30.0533404 9.68783102,29.774031 9.59426916,29.3215366 C9.3197662,27.9939544 9.2660809,27.5908661 9.37103124,27.1319223 L9.28520132,27.1119415 C9.17601844,27.5893941 9.2301078,27.9955162 9.50804076,29.339687 L9.50804076,29.339687 Z" id="Shape"></path>
                            <path d="M8.20615896,34.3435109 C8.21455082,34.4362541 8.21953008,34.4915591 8.22478314,34.5506102 C8.29933718,35.3886924 8.32358837,35.878933 8.29683286,36.3436023 C8.26532637,36.8788389 8.3483029,37.2954229 8.55534358,37.7625438 C8.65630643,37.990334 9.11731671,38.8480045 9.19355299,39.0015503 C11.6034858,43.8657052 12.2686515,45.8611288 12.1184344,48.87866 C12.1127099,48.998272 12.1141053,49.094956 12.1227607,49.3946274 C12.1301737,49.6512823 12.1322203,49.7905063 12.1286348,49.9488053 C12.1135157,50.6162989 11.9828337,51.0365035 11.6637337,51.220586 L11.7074549,51.2977397 C12.0622715,51.0930529 12.2009232,50.6472223 12.2166967,49.9508359 C12.2203274,49.7905435 12.2182639,49.6501695 12.2108082,49.3920386 C12.2022325,49.0951259 12.2008492,48.9992799 12.2064126,48.8830324 C12.3576221,45.8455687 11.6887595,43.839055 9.27232523,38.9617777 C9.19473346,38.8055019 8.73507178,37.9503404 8.63575413,37.726262 C8.43429129,37.2717257 8.35412955,36.8692733 8.38476613,36.3488141 C8.41185306,35.8783897 8.38744409,35.3849595 8.31251535,34.5426652 C8.30725722,34.4835572 8.30227472,34.428216 8.29387903,34.3354307 C8.21729689,33.4890792 8.193275,33.1485685 8.193275,32.7464025 L8.10519012,32.7464025 C8.10519012,33.1522956 8.12931489,33.4942648 8.20615896,34.3435109 L8.20615896,34.3435109 Z" id="Shape"></path>
                            <path d="M8.8750183,51.5655888 C9.31566064,50.49935 9.82182486,47.0438689 9.56318857,45.1144024 L9.47589841,45.1263139 C9.73236806,47.0396169 9.22852175,50.479274 8.79371798,51.5313851 C8.59021517,52.0238085 8.41439335,52.1810262 8.20038208,52.1630717 L8.19308303,52.2516404 C8.45290429,52.2734381 8.65844059,52.08965 8.8750183,51.5655888 L8.8750183,51.5655888 Z" id="Shape"></path>
                            <path d="M9.47886139,51.2425422 L9.56051722,51.2758727 C9.96839007,50.2586404 10.0775125,48.8437904 9.9451063,47.8145403 L9.85775416,47.8259799 C9.98835832,48.8412224 9.88038779,50.2411379 9.47886139,51.2425422 L9.47886139,51.2425422 Z" id="Shape"></path>
                            <path id="Shape"></path>
                            <path id="Shape"></path>
                            <path d="M14.2239719,45.5532656 C14.9794856,47.8064312 15.0376326,47.9726398 15.328413,48.6164853 C15.536881,49.0780748 15.7310521,49.4005967 15.9225876,49.5876361 L15.9838473,49.5237744 C15.802102,49.3462953 15.6128337,49.0319169 15.4085683,48.579633 C15.1196751,47.9399661 15.0613113,47.7731379 14.3074109,45.5247837 C13.7114348,43.7474066 13.3349168,42.7937697 12.9014676,42.1074875 L12.8271836,42.1552493 C13.2553599,42.8331827 13.6304398,43.7831773 14.2239719,45.5532656 L14.2239719,45.5532656 Z" id="Shape"></path>
                            <path id="Shape"></path>
                            <path d="M1.20400951,26.2428653 C1.20445371,26.2198521 1.20468706,26.2013129 1.20511084,26.1602709 C1.20975449,25.7105359 1.26408491,25.4839681 1.52786634,25.1064897 L1.45587599,25.0552772 C1.18021652,25.4497534 1.12184406,25.6931772 1.11703073,26.1593451 C1.11660972,26.2001199 1.11637864,26.2184784 1.11594133,26.2411348 C1.11541146,26.2685862 1.11469064,26.2930147 1.11367428,26.3163933 L1.20167455,26.3202879 C1.20272502,26.2961248 1.2034666,26.2709926 1.20400951,26.2428653 L1.20400951,26.2428653 Z M0.646746975,26.0467202 C0.674173316,25.373131 0.706151978,25.2077453 0.853542523,25.0238287 C0.889504001,24.9789553 0.933855461,24.9320777 0.996485695,24.8718567 L0.935717096,24.8075191 C0.870567966,24.8701621 0.823792352,24.9196019 0.785047417,24.9679485 C0.62136898,25.1721895 0.586947435,25.3502091 0.558736328,26.0430722 C0.55504682,26.1336863 0.54113517,26.5050772 0.540351075,26.5254862 L0.628369855,26.5289287 C0.629159042,26.5083871 0.643064477,26.1371622 0.646746975,26.0467202 L0.646746975,26.0467202 Z M0.132952477,26.0591025 C0.124967825,25.6133753 0.130410316,25.478725 0.178255664,25.2891546 C0.215676876,25.1408863 0.279674024,24.9961732 0.382567806,24.8312678 L0.308024752,24.7839188 C0.200433509,24.9563527 0.132696956,25.1095215 0.0928949921,25.2672227 C0.0423648072,25.4674307 0.0367448744,25.6064711 0.0448819775,26.0607086 C0.0486732183,26.272347 0.0495334341,26.3995102 0.0467666688,26.5585265 L0.134837982,26.5600865 C0.137627404,26.399768 0.136761171,26.2717152 0.132952477,26.0591025 L0.132952477,26.0591025 Z" id="Shape"></path>
                            <path d="M3.19357733,0.964491512 L3.24699848,1.03515579 C3.88589507,0.543463372 4.40224439,0.150964127 4.5096494,0.0810272974 L4.46188548,0.0063535076 C4.35134362,0.0783329034 3.83787863,0.468639641 3.19357733,0.964491512 L3.19357733,0.964491512 Z" id="Shape"></path>
                            <path d="M3.43225988,1.30206063 L3.48624547,1.37228686 C4.76214208,0.373797048 4.72417917,0.402334671 4.83505713,0.384726458 L4.82136148,0.296932985 C4.68540855,0.318523284 4.77776221,0.249098836 3.43225988,1.30206063 L3.43225988,1.30206063 Z" id="Shape"></path>
                            <path d="M4.49917899,1.02490782 C4.41077453,1.09479479 4.04245701,1.39937739 4.07722298,1.37090494 C4.0011107,1.43323896 3.93540209,1.48597898 3.87272469,1.53476469 C3.80412907,1.58815691 3.74048864,1.63574227 3.68012907,1.67853071 L3.73076791,1.75125059 C3.79227993,1.70764519 3.85695389,1.65928704 3.9265281,1.60513312 C3.98984975,1.55584596 4.05610214,1.50266947 4.1327357,1.43990854 C4.09873867,1.46775124 4.4659958,1.16404554 4.55350538,1.094866 C4.69519044,0.982858761 4.79621293,0.913336247 4.87023804,0.879514069 L4.8339015,0.798554042 C4.75157177,0.836170614 4.64616148,0.908712764 4.49917899,1.02490782 L4.49917899,1.02490782 Z" id="Shape"></path>
                            <path d="M2.63663663,0.928231041 C2.63269681,0.932162014 2.63269681,0.932162014 2.6287593,0.936092674 C2.48755552,1.07706492 2.44827725,1.11503478 2.40449413,1.14960203 L2.4587768,1.21959475 C2.50662607,1.18181724 2.54568503,1.14405938 2.69071489,0.999267326 C2.69464208,0.99534697 2.69464208,0.99534697 2.69856859,0.991429274 C2.81179387,0.878474919 2.87260414,0.821165783 2.91919894,0.786542233 L2.86696385,0.714980987 C2.81550153,0.753221481 2.75339142,0.811755624 2.63663663,0.928231041 L2.63663663,0.928231041 Z" id="Shape"></path>
                            <path id="Shape"></path>
                        </g>
                        <path d="M10.1559419,2.35549226 C10.3866637,2.66080124 10.6257765,2.62849263 10.6677267,2.82530675 C10.709677,3.02240173 10.7404393,3.03636929 10.7851843,3.09477845 C10.8299315,3.15304718 10.6761155,3.14133771 10.6006081,3.10986947 C10.5264971,3.07840793 10.3391217,3.0816535 10.224459,3.08334539 C10.1111947,3.08512867 9.97555895,2.94988012 10.0608557,2.93393759 C10.144754,2.91813325 10.1335683,2.89147096 10.1209841,2.83151034 C10.108391,2.77169015 10.168526,2.67702019 10.2034838,2.65966663 C10.2398401,2.64230192 10.2146629,2.64555641 10.1825176,2.56528198 C10.1489583,2.48486266 10.107008,2.28974266 10.1559507,2.3554878 L10.1559419,2.35549226 L10.1559419,2.35549226 Z M10.2957907,2.07596285 C10.5544801,2.10657734 11.0005449,2.24752124 11.2424547,2.51769957 C11.4326248,2.73017313 11.2774124,2.67388161 11.1809278,2.68178155 C11.0844431,2.68996235 10.8956693,2.62097387 10.8005853,2.50020557 C10.7068977,2.37957771 10.4258347,2.22664124 10.2762141,2.18685399 C10.1853234,2.16315195 10.1000266,2.05268211 10.2957885,2.07596285 L10.2957907,2.07596285 L10.2957907,2.07596285 Z" id="eye" fill="#000000"></path>
                        <path d="M10.4425111,1.34924423 C10.5830872,0.431627297 11.1111078,0.207329317 11.8752154,0.385439404 C12.1850364,0.457675374 12.6828549,0.462331425 13.0886793,0.352940365 C14.0580906,0.0923560784 14.688697,0.461511329 14.6009233,1.30714953 C14.8948632,1.55364308 15.1193349,1.99808477 15.0778358,2.33490661 C15.0262698,2.75310975 15.1306521,2.92339996 15.4948832,2.97332726 C15.6870147,2.99992363 15.9426121,3.13040612 16.0893924,3.29595834 C16.2730319,3.50308367 16.2845082,3.74188405 16.0735801,4.00207626 C16.5823233,4.36244604 16.8882662,5.08722334 16.6591731,5.53567419 C16.4167589,6.01019896 15.6883541,6.08256828 15.3885417,5.65933213 C14.9325489,5.83340788 14.4082539,5.79243316 14.1111267,5.47837274 C13.8380655,5.73881605 13.2654807,5.72707583 13.1622124,5.48977429 C13.054587,5.2391918 12.8701889,5.08309156 12.6135157,5.00169918 C12.3682183,4.92474397 12.4073732,4.27619679 12.720176,4.21030067 C12.702931,3.95328004 12.7253967,3.73074948 12.806566,3.63476209 C12.9219569,3.49830576 12.8277914,3.26597755 12.5940377,3.07996429 C12.3533044,2.88974946 12.2201686,2.22843688 12.4117349,1.91006661 C12.0309103,1.96473411 11.1945711,1.64154494 11.0094344,1.36927239 C10.8194074,1.09187072 10.5482776,1.07041047 10.3710842,1.32038834 L10.4425111,1.34924423 L10.4425111,1.34924423 Z M10.4356833,1.36612559 C10.579238,1.16360393 10.7836894,1.1797865 10.9440334,1.41385657 C11.1483084,1.71427538 12.0210673,2.05153833 12.3904502,1.92716915 C12.1314708,2.22231913 12.2734393,2.92750581 12.5448323,3.14194594 C12.748279,3.30384215 12.8242484,3.49127655 12.7461009,3.58369042 C12.6456691,3.70245685 12.6207761,3.94903048 12.673414,4.1803633 C12.3119868,4.21543176 12.266091,4.97563186 12.5896896,5.0771516 C12.8251755,5.15182559 12.9913193,5.29247287 13.0895398,5.52115703 C13.2186892,5.81793225 13.864389,5.83117161 14.1128734,5.53075819 C14.3768865,5.87443968 14.9374405,5.91824812 15.3727758,5.71813194 C15.6588185,6.17780366 16.460726,6.09813161 16.7296816,5.57165219 C16.9798158,5.08201313 16.6557958,4.3144109 16.1248364,3.99313859 C16.3709524,3.76093596 16.3574002,3.4789395 16.1486444,3.24348569 C15.9889609,3.06338007 15.7160706,2.92406955 15.5056926,2.8949474 C15.188435,2.85145899 15.1097389,2.72307352 15.1564086,2.34457996 C15.2016327,1.977524 14.9637595,1.50654805 14.6642008,1.2797002 C14.7740241,0.406252512 14.0853398,0.00309857804 13.0680906,0.27654201 C12.6756168,0.382334358 12.1909167,0.377801002 11.893199,0.308386975 C11.0894039,0.121025896 10.5130758,0.365844448 10.3642563,1.3372697 L10.4356833,1.36612559 L10.4356833,1.36612559 Z" id="hair-2" fill="#000000"></path>
                    </g>
                </g>
                <g id="UK-corner">
                    <path d="M58.6665316,5.60442783 L41.3956444,14.2398718 C16.4947453,30.2482972 0,58.1978704 0,90 L18,90 L18,64.0623044 L69.8753928,90 L90,90 L90,79.937694 L47.124612,58.5 L90,58.5 L90,31.5 L47.1246106,31.5 L90,10.062306 L90,0 C78.9808284,0 68.424181,1.98030051 58.6665316,5.60442783 L58.6665316,5.60442783 Z" id="white" fill="#FFFFFF"></path>
                    <path d="M17.9934072,35.9999997 L90,36 L90,54 L12,53.9999997 L12,89.9999997 L0,89.9999998 C4.3896494e-08,69.7390927 6.69500614,51.041889 17.9934072,35.9999997 L17.9934072,35.9999997 L17.9934072,35.9999997 Z M75.9120161,1.09619155 L24.8567236,27.9002201 C23.7407294,29.0705605 22.6559518,30.2709324 21.6037269,31.5 L30,31.5 L90,0 L89.9925529,0 C85.2024043,0.000387862029 80.4996778,0.374999182 75.9120161,1.09619155 L75.9120161,1.09619155 L75.9120161,1.09619155 Z M28,58.5 L40,58.5 L90,84 L90,90 L28,58.5 L28,58.5 Z" id="red" fill="#E94B35"></path>
                </g>
            </g>
        </g>
    </g>
</svg>