<?xml version="1.0" encoding="UTF-8" standalone="no"?>
<svg width="180px" height="180px" viewBox="0 0 180 180" version="1.1" xmlns="http://www.w3.org/2000/svg" xmlns:xlink="http://www.w3.org/1999/xlink">
    <!-- Generator: Sketch 3.8.3 (29802) - http://www.bohemiancoding.com/sketch -->
    <title>morocco</title>
    <desc>Created with Sketch.</desc>
    <defs></defs>
    <g id="Page-1" stroke="none" stroke-width="1" fill="none" fill-rule="evenodd">
        <g id="flags" transform="translate(-450.000000, -3960.000000)">
            <g id="morocco" transform="translate(450.000000, 3960.000000)">
                <circle id="red" fill="#E94B35" cx="90" cy="90" r="90"></circle>
                <path d="M89.6600149,45 L78.9006152,79.7360537 L44,79.7673898 L72.2171999,101.23261 L61.4578002,136 C68.7296103,130.423736 81.8978639,120.429935 89.6750001,114.53478 L117.92217,135.984332 L107.1328,101.248278 L135.35,79.7517218 L100.479356,79.7517218 L89.6600149,45 L89.6600149,45 L89.6600149,45 L89.6600149,45 L89.6600149,45 Z M89.6600149,68.7840909 L93.091634,79.7360537 L86.2583663,79.7517218 L89.6600149,68.7840909 L89.6600149,68.7840909 L89.6600149,68.7840909 L89.6600149,68.7840909 L89.6600149,68.7840909 Z M76.6078741,87.0843664 L74.509941,93.8999656 L65.5937255,87.1157025 L76.6078741,87.0843664 L76.6078741,87.0843664 L76.6078741,87.0843664 L76.6078741,87.0843664 L76.6078741,87.0843664 Z M83.9806104,87.0843664 L95.3693899,87.0843664 L98.8909204,98.4280303 L89.6750001,105.447314 L80.4590798,98.4280303 L83.9806104,87.0843664 L83.9806104,87.0843664 L83.9806104,87.0843664 L83.9806104,87.0843664 L83.9806104,87.0843664 Z M102.742126,87.0843664 L113.74129,87.0843664 L104.855045,93.8999656 L102.742126,87.0843664 L102.742126,87.0843664 L102.742126,87.0843664 L102.742126,87.0843664 L102.742126,87.0843664 Z M78.1813239,105.792011 L83.7258613,109.975379 L74.8096458,116.759642 L78.1813239,105.792011 L78.1813239,105.792011 L78.1813239,105.792011 L78.1813239,105.792011 L78.1813239,105.792011 Z M101.198647,105.792011 L104.570325,116.759642 L95.6690946,109.991047 L95.6690946,109.975379 L101.198647,105.792011 L101.198647,105.792011 L101.198647,105.792011 L101.198647,105.792011 L101.198647,105.792011 Z" id="star" fill="#1FCE6D"></path>
            </g>
        </g>
    </g>
</svg>