<?xml version="1.0" encoding="UTF-8" standalone="no"?>
<svg width="180px" height="180px" viewBox="0 0 180 180" version="1.1" xmlns="http://www.w3.org/2000/svg" xmlns:xlink="http://www.w3.org/1999/xlink">
    <!-- Generator: Sketch 3.8.3 (29802) - http://www.bohemiancoding.com/sketch -->
    <title>namibia</title>
    <desc>Created with Sketch.</desc>
    <defs></defs>
    <g id="Page-1" stroke="none" stroke-width="1" fill="none" fill-rule="evenodd">
        <g id="flags" transform="translate(-1260.000000, -3960.000000)">
            <g id="namibia" transform="translate(1260.000000, 3960.000000)">
                <circle id="white" fill="#FFFFFF" transform="translate(90.000000, 90.000000) scale(-1, 1) translate(-90.000000, -90.000000) " cx="90" cy="90" r="90"></circle>
                <path d="M120.180862,129.090431 L5.68434189e-14,8.90956858 C11.8218464,3.20027277 25.0824068,0 39.0904314,0 C88.7960614,0 129.090431,40.2943701 129.090431,90 C129.090431,104.008025 125.890158,117.268585 120.180862,129.090431 L120.180862,129.090431 Z" id="blue" fill="#227FBB" transform="translate(64.545216, 64.545215) scale(-1, 1) translate(-64.545216, -64.545215) "></path>
                <path d="M180,171.090431 L59.8191376,50.9095686 C54.1098418,62.731415 50.909569,75.9919754 50.909569,90 C50.909569,139.70563 91.2039391,180 140.909569,180 C154.917594,180 168.178154,176.799727 180,171.090431 L180,171.090431 Z" id="green" fill="#1AAF5D" transform="translate(115.454784, 115.454784) scale(-1, 1) translate(-115.454784, -115.454784) "></path>
                <path d="M166.474625,138.088986 L42.2966527,13.9110142 C30.815089,21.182692 21.0925407,30.9814812 13.911014,42.5253755 L137.860263,166.474624 C149.404158,159.293098 159.202947,149.570549 166.474625,138.088986 L166.474625,138.088986 Z" id="red" fill="#E94B35" transform="translate(90.192819, 90.192819) scale(-1, 1) translate(-90.192819, -90.192819) "></path>
                <path d="M36.03538,52.8862717 L32.285343,42 L28.535306,52.8862717 C29.733891,52.5829154 30.990456,52.4215729 32.285343,52.4215729 C33.580229,52.4215729 34.836794,52.5829154 36.03538,52.8862717 L36.03538,52.8862717 L36.03538,52.8862717 L36.03538,52.8862717 L36.03538,52.8862717 L36.03538,52.8862717 Z M42.7494,56.6034261 L44.928014,45.3875936 L36.23858,52.9392075 C38.725643,53.6056284 40.955437,54.8855629 42.7494,56.6034261 L42.7494,56.6034261 L42.7494,56.6034261 L42.7494,56.6034261 L42.7494,56.6034261 L42.7494,56.6034261 Z M46.738016,63.2095148 L54.183092,54.6426712 L42.971414,56.8204785 C44.731285,58.5770807 46.046598,60.7655425 46.738016,63.2095148 L46.738016,63.2095148 L46.738016,63.2095148 L46.738016,63.2095148 L46.738016,63.2095148 L46.738016,63.2095148 Z M46.773885,71.0045587 L57.570685,67.2853424 L46.839776,63.5888238 C47.130833,64.735812 47.285343,65.9359494 47.285343,67.1715729 C47.285343,68.4973619 47.107461,69.7822967 46.773885,71.0045587 L46.773885,71.0045587 L46.773885,71.0045587 L46.773885,71.0045587 L46.773885,71.0045587 L46.773885,71.0045587 Z M42.777674,77.7125736 L54.183092,79.9280136 L46.688595,71.3043037 C45.958772,73.7679387 44.592985,75.9651393 42.777674,77.7125736 L42.777674,77.7125736 L42.777674,77.7125736 L42.777674,77.7125736 L42.777674,77.7125736 L42.777674,77.7125736 Z M36.555352,81.3153442 L36.146459,81.5514186 L44.928014,89.1830913 L42.712113,77.7753019 C41.001341,79.4022579 38.897986,80.6325221 36.555352,81.3153442 L36.555352,81.3153442 L36.555352,81.3153442 L36.555352,81.3153442 L36.555352,81.3153442 L36.555352,81.3153442 Z M29.018189,81.5706848 L28.496129,81.5706848 L32.285343,92.5706848 L36.074556,81.5706848 L35.552496,81.5706848 C34.500749,81.8004177 33.407434,81.9215729 32.285343,81.9215729 C31.163251,81.9215729 30.069936,81.8004177 29.018189,81.5706848 L29.018189,81.5706848 L29.018189,81.5706848 L29.018189,81.5706848 L29.018189,81.5706848 L29.018189,81.5706848 Z M21.858572,77.7753019 L19.642671,89.1830913 L28.424227,81.5514186 L28.015334,81.3153442 C25.6727,80.6325221 23.569344,79.4022579 21.858572,77.7753019 L21.858572,77.7753019 L21.858572,77.7753019 L21.858572,77.7753019 L21.858572,77.7753019 L21.858572,77.7753019 Z M17.88209,71.3043037 L10.387594,79.9280136 L21.793011,77.7125736 C19.9777,75.9651394 18.611913,73.7679388 17.88209,71.3043037 L17.88209,71.3043037 L17.88209,71.3043037 L17.88209,71.3043037 L17.88209,71.3043037 L17.88209,71.3043037 Z M17.730909,63.5888238 L7,67.2853424 L17.7968,71.0045587 C17.463225,69.7822967 17.285343,68.4973619 17.285343,67.1715729 C17.285343,65.9359494 17.439852,64.735812 17.730909,63.5888238 L17.730909,63.5888238 L17.730909,63.5888238 L17.730909,63.5888238 L17.730909,63.5888238 L17.730909,63.5888238 Z M21.599272,56.8204785 L10.387594,54.6426712 L17.83267,63.2095147 C18.524087,60.7655425 19.839401,58.5770807 21.599272,56.8204785 L21.599272,56.8204785 L21.599272,56.8204785 L21.599272,56.8204785 L21.599272,56.8204785 L21.599272,56.8204785 Z M28.332105,52.9392076 L19.642671,45.3875936 L21.821286,56.6034261 C23.615249,54.8855629 25.845042,53.6056284 28.332105,52.9392076 L28.332105,52.9392076 L28.332105,52.9392076 L28.332105,52.9392076 L28.332105,52.9392076 L28.332105,52.9392076 Z M32.285343,79.9215729 C39.465045,79.9215729 45.285343,74.2132038 45.285343,67.1715729 C45.285343,60.129942 39.465045,54.4215729 32.285343,54.4215729 C25.105641,54.4215729 19.285343,60.129942 19.285343,67.1715729 C19.285343,74.2132038 25.105641,79.9215729 32.285343,79.9215729 C32.285343,79.9215729 25.105641,79.9215729 32.285343,79.9215729 L32.285343,79.9215729 L32.285343,79.9215729 L32.285343,79.9215729 Z" id="star" fill="#F2C500" transform="translate(32.285342, 67.285342) scale(-1, 1) translate(-32.285342, -67.285342) "></path>
            </g>
        </g>
    </g>
</svg>