<?xml version="1.0" encoding="UTF-8" standalone="no"?>
<svg width="180px" height="180px" viewBox="0 0 180 180" version="1.1" xmlns="http://www.w3.org/2000/svg" xmlns:xlink="http://www.w3.org/1999/xlink">
    <!-- Generator: Sketch 3.8.3 (29802) - http://www.bohemiancoding.com/sketch -->
    <title>nauru</title>
    <desc>Created with Sketch.</desc>
    <defs></defs>
    <g id="Page-1" stroke="none" stroke-width="1" fill="none" fill-rule="evenodd">
        <g id="flags" transform="translate(-1530.000000, -3960.000000)">
            <g id="nauru" transform="translate(1530.000000, 3960.000000)">
                <path d="M90,180 C139.70563,180 180,139.70563 180,90 C180,40.2943701 139.70563,0 90,0 C40.2943701,0 0,40.2943701 0,90 C0,139.70563 40.2943701,180 90,180 L90,180 Z" id="blue" fill="#227FBB"></path>
                <path d="M0.136541881,95 L179.863458,95 C179.95409,93.344848 180,91.6777854 180,90 C180,88.3222146 179.95409,86.655152 179.863458,85 L0.136541881,85 C0.0459098665,86.655152 0,88.3222146 0,90 C0,91.6777854 0.0459098665,93.344848 0.136541881,95 L0.136541881,95 Z" id="yellow" fill="#F2C500"></path>
                <polygon id="star" fill="#FFFFFF" points="45.4999995 133.649774 40.8219859 144.508321 40.9649778 132.685825 32.2748329 140.702883 37.2141036 129.960655 26.0144289 133.750001 34.895935 125.94547 23.1232574 124.851891 34.4113057 121.334532 24.1012282 115.547118 35.8440125 116.925113 28.7792413 107.444562 38.9463294 113.479642 36.3484353 101.945223 43.1818343 111.593875 45.5000003 100 47.8181711 111.593876 54.6515848 101.945232 52.0536751 113.479645 62.2207591 107.444562 55.155989 116.925116 66.8987753 115.547129 56.5886946 121.334534 67.8767425 124.851892 56.1040641 125.945473 64.9855654 133.750011 53.7858944 129.960658 58.7251667 140.702883 50.0350183 132.685827 50.1780005 144.508324"></polygon>
            </g>
        </g>
    </g>
</svg>