<?xml version="1.0" encoding="UTF-8" standalone="no"?>
<svg width="180px" height="180px" viewBox="0 0 180 180" version="1.1" xmlns="http://www.w3.org/2000/svg" xmlns:xlink="http://www.w3.org/1999/xlink">
    <!-- Generator: Sketch 3.8.3 (29802) - http://www.bohemiancoding.com/sketch -->
    <title>netherlands_antilles</title>
    <desc>Created with Sketch.</desc>
    <defs></defs>
    <g id="Page-1" stroke="none" stroke-width="1" fill="none" fill-rule="evenodd">
        <g id="flags" transform="translate(-2340.000000, -3960.000000)">
            <g id="netherlands_antilles" transform="translate(2340.000000, 3960.000000)">
                <circle id="white" fill="#FFFFFF" cx="90" cy="90" r="90"></circle>
                <path d="M65,3.51766623 L65,176.482334 C72.9372476,178.772725 81.3253009,180 90,180 C98.6746991,180 107.062752,178.772725 115,176.482334 L115,3.51766623 C107.062752,1.22727543 98.6746991,0 90,0 C81.3253009,0 72.9372476,1.22727543 65,3.51766623 L65,3.51766623 Z" id="red" fill="#E94B35"></path>
                <path d="M3.51766623,115 L176.482334,115 C178.772725,107.062752 180,98.6746991 180,90 C180,81.3253009 178.772725,72.9372476 176.482334,65 L3.51766623,65 C1.22727543,72.9372476 0,81.3253009 0,90 C0,98.6746991 1.22727543,107.062752 3.51766623,115 L3.51766623,115 Z" id="blue" fill="#227FBB"></path>
                <path d="M88.9999999,73.4 L85.4732888,75.8541022 L86.7174644,71.7416409 L83.2936609,69.1458982 L87.5893158,69.0583589 L89.0000001,65 L90.4106851,69.0583596 L94.7063401,69.145901 L91.2825354,71.7416415 L92.5267111,75.8541023 L88.9999999,73.4 L88.9999999,73.4 Z M58.9999999,84.4 L55.4732888,86.8541022 L56.7174644,82.7416409 L53.2936609,80.1458982 L57.5893158,80.0583589 L59.0000001,76 L60.4106851,80.0583596 L64.7063401,80.145901 L61.2825354,82.7416415 L62.5267111,86.8541023 L58.9999999,84.4 L58.9999999,84.4 Z M121,84.4 L117.473289,86.8541022 L118.717464,82.7416409 L115.293661,80.1458982 L119.589316,80.0583589 L121,76 L122.410685,80.0583596 L126.70634,80.145901 L123.282535,82.7416415 L124.526711,86.8541023 L121,84.4 L121,84.4 Z M103,110.4 L99.4732888,112.854102 L100.717464,108.741641 L97.2936609,106.145898 L101.589316,106.058359 L103,102 L104.410685,106.05836 L108.70634,106.145901 L105.282535,108.741641 L106.526711,112.854102 L103,110.4 L103,110.4 Z M74.9999999,110.4 L71.4732888,112.854102 L72.7174644,108.741641 L69.2936609,106.145898 L73.5893158,106.058359 L75.0000001,102 L76.4106851,106.05836 L80.7063401,106.145901 L77.2825354,108.741641 L78.5267111,112.854102 L74.9999999,110.4 L74.9999999,110.4 Z" id="star" fill="#FFFFFF"></path>
            </g>
        </g>
    </g>
</svg>