<?xml version="1.0" encoding="UTF-8" standalone="no"?>
<svg width="180px" height="180px" viewBox="0 0 180 180" version="1.1" xmlns="http://www.w3.org/2000/svg" xmlns:xlink="http://www.w3.org/1999/xlink">
    <!-- Generator: Sketch 3.8.3 (29802) - http://www.bohemiancoding.com/sketch -->
    <title>new_caledonia</title>
    <desc>Created with Sketch.</desc>
    <defs></defs>
    <g id="Page-1" stroke="none" stroke-width="1" fill="none" fill-rule="evenodd">
        <g id="flags" transform="translate(-2610.000000, -3960.000000)">
            <g id="new_caledonia" transform="translate(2610.000000, 3960.000000)">
                <path d="M174.878829,120 C162.523738,154.955772 129.186567,180 90,180 C50.8134331,180 17.4762623,154.955772 5.12117078,120 L174.878833,120 L174.878833,120 L174.878829,120 L174.878829,120 L174.878829,120 Z" id="green" fill="#1AAF5D"></path>
                <path d="M174.878829,120.000001 C178.195374,110.616633 180,100.519063 180,90 C180,79.480937 178.195374,69.3833673 174.878829,59.9999996 L5.12116698,60 C1.80462645,69.3833673 0,79.480937 0,90 C0,100.519063 1.80462645,110.616633 5.12117078,120 L174.878833,120 L174.878833,120 L174.878829,120.000001 L174.878829,120.000001 L174.878829,120.000001 Z" id="red" fill="#E94B35"></path>
                <path d="M174.878829,59.9999996 C162.523738,25.0442275 129.186567,0 90,0 C50.8134331,0 17.4762623,25.0442275 5.12117078,59.9999996 L174.878833,60 L174.878833,60 L174.878829,59.9999996 L174.878829,59.9999996 L174.878829,59.9999996 Z" id="blue" fill="#227FBB"></path>
                <g id="emblem" transform="translate(28.000000, 51.000000)">
                    <path d="M77.9948,39 C77.9948,17.4637666 60.5362334,0.0052 39,0.0052 C17.4637666,0.0052 0.0052,17.4637666 0.0052,39 C0.0052,60.5362334 17.4637666,77.9948 39,77.9948 C60.5362334,77.9948 77.9948,60.5362334 77.9948,39 L77.9948,39 Z" id="black" fill="#000000"></path>
                    <circle id="yellow" fill="#F2C500" cx="39" cy="39" r="38.3448"></circle>
                    <path d="M38.22,45.5 L38.22,46.2959337 C33.802525,46.4808488 31.6673902,48.2592723 31.4306694,50.7944632 C30.916535,56.3006314 29.9,60.58 29.9,60.58 C29.9,60.58 31.5370588,58.5609882 33.452094,53.8266014 C34.3329431,51.6489496 36.2774719,50.2746632 38.22,49.9797484 L38.22,50.5428898 C36.2231079,51.076417 34.71,53.6211865 34.71,56.68 C34.71,59.7388135 36.2231079,62.283583 38.22,62.8171102 L38.22,64.5980628 C35.6390251,64.6653477 33.1212988,65.2319942 31.80554,66.26932 C29.4853,68.0992 22.83034,74.84152 23.5612,74.20894 C39.21086,80.59974 53.87928,74.60154 53.87928,74.60154 C53.87928,74.60154 48.34206,68.60906 45.50364,66.26932 C44.3089243,65.2848824 42.1135926,64.7418574 39.78,64.618524 L39.78,45.5 L45.5,45.5 L45.5,43.94 L39.78,43.94 L39.78,30.9223787 L39.78,33.5349448 C42.778819,33.4880879 46.5767631,33.0260547 46.8,28.73 C46.9522664,25.7997324 47.97,22.88 47.97,22.88 C47.97,22.88 45.806917,25.4791264 44.98,27.17 C43.4958277,30.2048171 41.7575331,30.8209977 39.78,30.9223787 L39.78,29.8418898 C42.2818568,29.4655526 44.2,27.3067795 44.2,24.7 C44.2,22.0932205 42.2818568,19.9344474 39.78,19.5581102 L39.78,14.0886298 C41.3017167,12.8264669 43.0233103,10.8797159 44.74262,7.78336 C45.69058,6.076408 45.23844,5.326516 45.24,5.33 L45.23844,5.326516 C45.23844,5.326516 45.28888,5.4379 44.5848,6.04773 C43.0452595,7.38110739 41.3596671,8.25292724 39.78,8.97484838 L39.78,0.78 L38.22,0.78 L38.22,9.66942193 C35.870351,10.711831 34.0036697,11.6425205 33.63048,13.71136 C33.58082,13.9867 33.51764,16.84436 33.44978,17.54324 C33.44978,17.54324 33.85122,17.59628 34.8023,16.822 C35.2195908,16.4821576 36.4982685,16.2654312 38.22,15.2095576 L38.22,19.5581102 C35.7181432,19.9344474 33.8,22.0932205 33.8,24.7 C33.8,27.3067795 35.7181432,29.4655526 38.22,29.8418898 L38.22,30.9223787 C36.2424669,30.8209977 34.5041723,30.2048171 33.02,27.17 C32.193083,25.4791264 30.03,22.88 30.03,22.88 C30.03,22.88 31.0477336,25.7997324 31.2,28.73 C31.4232369,33.0260547 35.221181,33.4880879 38.22,33.5349448 L38.22,34.32 L32.5,34.32 L32.5,35.88 L38.22,35.88 L38.22,36.6551838 C35.7181432,36.8934052 33.8,38.2599086 33.8,39.91 C33.8,41.5600914 35.7181432,42.9265948 38.22,43.1648162 L38.22,43.94 L32.5,43.94 L32.5,45.5 L38.22,45.5 L38.22,45.5 Z M39.78,45.5 L39.78,46.2959337 C44.197475,46.4808488 46.3326098,48.2592723 46.5693306,50.7944632 C47.083465,56.3006314 48.1,60.58 48.1,60.58 C48.1,60.58 46.4629412,58.5609882 44.547906,53.8266014 C43.6670569,51.6489496 41.7225281,50.2746632 39.78,49.9797484 L39.78,50.5428898 C41.7768921,51.076417 43.29,53.6211865 43.29,56.68 C43.29,59.7388135 41.7768921,62.283583 39.78,62.8171102 L39.78,45.5 L39.78,45.5 L39.78,45.5 Z M39.78,43.94 L39.78,43.1648162 C42.2818568,42.9265948 44.2,41.5600914 44.2,39.91 C44.2,38.2599086 42.2818568,36.8934052 39.78,36.6551838 L39.78,35.88 L45.5,35.88 L45.5,34.32 L39.78,34.32 L39.78,33.5349448 L39.78,43.94 L39.78,43.94 L39.78,43.94 Z" id="shape" fill="#000000"></path>
                </g>
            </g>
        </g>
    </g>
</svg>