<?xml version="1.0" encoding="UTF-8" standalone="no"?>
<svg width="180px" height="180px" viewBox="0 0 180 180" version="1.1" xmlns="http://www.w3.org/2000/svg" xmlns:xlink="http://www.w3.org/1999/xlink">
    <!-- Generator: Sketch 3.8.3 (29802) - http://www.bohemiancoding.com/sketch -->
    <title>new_zealand</title>
    <desc>Created with Sketch.</desc>
    <defs></defs>
    <g id="Page-1" stroke="none" stroke-width="1" fill="none" fill-rule="evenodd">
        <g id="flags" transform="translate(-180.000000, -4230.000000)">
            <g id="new_zealand" transform="translate(180.000000, 4230.000000)">
                <circle id="blue" fill="#227FBB" cx="90" cy="90" r="90"></circle>
                <g id="UK-corner">
                    <path d="M58.6665316,5.60442783 L41.3956444,14.2398718 C16.4947453,30.2482972 0,58.1978704 0,90 L18,90 L18,64.0623044 L69.8753928,90 L90,90 L90,79.937694 L47.124612,58.5 L90,58.5 L90,31.5 L47.1246106,31.5 L90,10.062306 L90,0 C78.9808284,0 68.424181,1.98030051 58.6665316,5.60442783 L58.6665316,5.60442783 Z" id="white" fill="#FFFFFF"></path>
                    <path d="M17.9934072,35.9999997 L90,36 L90,54 L12,53.9999997 L12,89.9999997 L0,89.9999998 C4.3896494e-08,69.7390927 6.69500614,51.041889 17.9934072,35.9999997 L17.9934072,35.9999997 L17.9934072,35.9999997 Z M75.9120161,1.09619155 L24.8567236,27.9002201 C23.7407294,29.0705605 22.6559518,30.2709324 21.6037269,31.5 L30,31.5 L90,0 L89.9925529,0 C85.2024043,0.000387862029 80.4996778,0.374999182 75.9120161,1.09619155 L75.9120161,1.09619155 L75.9120161,1.09619155 Z M28,58.5 L40,58.5 L90,84 L90,90 L28,58.5 L28,58.5 Z" id="red" fill="#E94B35"></path>
                </g>
                <path d="M153,83 L154.795927,88.4193064 L161,88.4193064 L156.101822,91.7313969 L157.897964,97 L153,93.6880974 L148.102036,96.8492966 L149.897964,91.7313969 L145,88.4193064 L151.040729,88.4193064 L153,83 L153,83 L153,83 L153,83 L153,83 Z M133,125 L135.020418,132.354773 L142,132.354773 L136.48955,136.849753 L138.510209,144 L133,139.505275 L127.489791,143.795474 L129.510209,136.849753 L124,132.354773 L130.79582,132.354773 L133,125 L133,125 L133,125 L133,125 L133,125 Z M132.5,61 L134.408173,67.5805863 L141,67.5805863 L135.795686,71.6024106 L137.704086,78 L132.5,73.9784039 L127.295914,77.8170031 L129.204086,71.6024106 L124,67.5805863 L130.418274,67.5805863 L132.5,61 L132.5,61 L132.5,61 L132.5,61 L132.5,61 Z M112,88 L114.020418,95.354773 L121,95.354773 L115.48955,99.849753 L117.510209,107 L112,102.505275 L106.489791,106.795474 L108.510209,99.849753 L103,95.354773 L109.79582,95.354773 L112,88 L112,88 L112,88 L112,88 L112,88 Z" id="star" stroke="#FFFFFF" fill="#E94B35"></path>
            </g>
        </g>
    </g>
</svg>