<?xml version="1.0" encoding="UTF-8" standalone="no"?>
<svg width="180px" height="180px" viewBox="0 0 180 180" version="1.1" xmlns="http://www.w3.org/2000/svg" xmlns:xlink="http://www.w3.org/1999/xlink">
    <!-- Generator: Sketch 3.8.3 (29802) - http://www.bohemiancoding.com/sketch -->
    <title>nicaragua</title>
    <desc>Created with Sketch.</desc>
    <defs></defs>
    <g id="Page-1" stroke="none" stroke-width="1" fill="none" fill-rule="evenodd">
        <g id="flags" transform="translate(-450.000000, -4230.000000)">
            <g id="nicaragua" transform="translate(450.000000, 4230.000000)">
                <path d="M174.873467,120 L5.12100983,120 C17.475726,154.955772 50.8118738,180 89.9972382,180 C129.182603,180 162.51875,154.955772 174.873463,120 L174.873467,120 L174.873467,120 Z" id="blue" fill="#2C97DE"></path>
                <path d="M5.12100983,120 L174.873467,120 C178.189905,110.616633 179.994476,100.519063 179.994476,90 C179.994476,79.480937 178.189905,69.3833673 174.873463,59.9999996 L5.12100983,60 C1.80457108,69.3833673 0,79.480937 0,90 C0,100.519063 1.80457108,110.616633 5.12101363,120 L5.12100983,120 L5.12100983,120 Z" id="white" fill="#FFFFFF"></path>
                <path d="M5.12100983,60 L174.873467,60 C162.51875,25.0442275 129.182603,0 89.9972382,0 C50.8118738,0 17.475726,25.0442275 5.12101363,59.9999996 L5.12100983,60 L5.12100983,60 Z" id="blue" fill="#2C97DE"></path>
                <g id="emblem" transform="translate(62.000000, 63.000000)">
                    <g id="shape" transform="translate(7.171753, 4.926391)">
                        <polygon id="triangle" fill="#E5B731" points="20.7277061 0 10.4780406 16.4432174 7.95807864e-13 33.2447636 20.5038374 33.2427261 41.4554159 33.2447636 31.2023699 16.8026021 20.7277094 0 20.7277061 0 20.7277061 0 20.7277061 0"></polygon>
                        <polygon id="triangle" fill="#70D8F3" points="20.7282703 0.87133453 30.7842551 17.0041457 40.6175943 32.7755835 20.5045059 32.7745208 0.837821664 32.7755835 10.8971806 16.6448765 20.7282736 0.87133453 20.7282703 0.87133453 20.7282703 0.87133453 20.7282703 0.87133453"></polygon>
                    </g>
                    <g id="letter" fill="#C8A400">
                        <rect id="rect5081-7" transform="translate(53.563592, 33.282490) rotate(14.748927) translate(-53.563592, -33.282490) " x="53.2914029" y="32.2234575" width="0.544377942" height="2.11806446"></rect>
                        <path d="M20.2280723,51.2207222 L18.6239771,54.5217511 L19.1458832,54.5217511 L19.6403799,53.4970931 L19.6425554,53.4970931 L21.3376565,53.4970931 L21.8321499,54.5217511 L22.3540556,54.5217511 L20.7499641,51.2207222 L20.2280584,51.2207222 L20.2280723,51.2207222 L20.2280723,51.2207222 L20.2280723,51.2207222 L20.2280723,51.2207222 L20.2280723,51.2207222 Z M20.4890217,51.7412019 L21.1128984,53.0325038 L19.8651487,53.0325038 L20.4890217,51.7412019 L20.4890217,51.7412019 L20.4890217,51.7412019 L20.4890217,51.7412019 L20.4890217,51.7412019 Z" id="path3225-4-7" transform="translate(20.489016, 52.871237) rotate(18.000000) translate(-20.489016, -52.871237) "></path>
                        <polygon id="path4160-4-5" transform="translate(51.514431, 39.925203) rotate(-8.000000) translate(-51.514431, -39.925203) " points="49.1929471 39.3673866 52.237975 41.196567 53.8359158 38.9137317 53.403274 38.6538387 52.125059 40.4799055 52.0923203 40.526678 52.0537885 40.5035325 49.4799383 38.957392 49.1929471 39.3673866 49.1929471 39.3673866 49.1929471 39.3673866"></polygon>
                        <polygon id="path4156-0" transform="translate(5.803235, 41.701452) rotate(13.000000) translate(-5.803235, -41.701452) " points="5.5425953 39.0417084 2.9560241 41.2824122 3.30143778 41.6245963 5.48122302 39.7362876 4.33767882 42.6511441 4.73380862 43.0435731 7.8589646 42.164726 5.71846089 44.0190114 6.06387457 44.3611955 8.65044578 42.1204917 8.12577014 41.6007206 4.94987346 42.4796751 6.13898392 39.6325187 5.5425953 39.0417084 5.5425953 39.0417084 5.5425953 39.0417084"></polygon>
                        <polygon id="path3761-7" transform="translate(8.309783, 45.134131) rotate(50.000000) translate(-8.309783, -45.134131) " points="6.73648526 46.8249998 9.8830817 46.8249998 9.8830817 46.3445145 7.25996619 46.3445145 7.20636497 46.3445145 7.20636497 46.3017231 7.20636497 45.3578685 7.20636497 45.3150772 7.25996619 45.3150772 9.61848947 45.3150772 9.61848947 44.837037 7.25996619 44.837037 7.20636497 44.837037 7.20636497 44.7942456 7.20636497 43.9677616 7.20636497 43.9261928 7.25996619 43.9261928 9.78271903 43.9261928 9.78271903 43.4432623 6.73648526 43.4432623 6.73648526 46.8249998 6.73648526 46.8249998 6.73648526 46.8249998"></polygon>
                        <polygon id="path3799-5" transform="translate(13.962215, 49.874419) rotate(9.000000) translate(-13.962215, -49.874419) " points="14.3958608 48.2227588 13.0245509 51.3355206 13.5285697 51.5260789 14.8998797 48.4133171 14.3958608 48.2227588 14.3958608 48.2227588 14.3958608 48.2227588"></polygon>
                        <path d="M16.5676228,49.4878542 C16.1452644,49.4878577 15.7618187,49.558384 15.4115174,49.7030863 C15.0625721,49.8472306 14.7933289,50.058059 14.6036484,50.3366755 C14.4140253,50.6152073 14.3194226,50.9418245 14.3194226,51.3200169 C14.3194226,51.6665507 14.4050448,51.9901534 14.5741995,52.2912514 C14.7426824,52.5911393 14.9842426,52.8166504 15.3039725,52.9732679 C15.6219817,53.1290481 16.0396614,53.2086779 16.5586628,53.2086779 C17.0570155,53.2086779 17.4718725,53.107131 17.8133531,52.9033175 C18.1409492,52.7077796 18.3714516,52.4252759 18.5072696,52.0544961 L17.977231,51.9536061 C17.705251,52.6560326 17.1239802,52.7056781 16.503608,52.7109538 C15.5441847,52.700429 14.8853095,52.2359316 14.8661071,51.3186717 C14.8821507,50.3084302 15.7218899,50.0017689 16.5535416,49.9855783 C17.1370003,49.9851306 17.6627042,50.0657922 17.9004132,50.574776 L18.4189312,50.4833023 C18.288005,50.1741026 18.0729644,49.9323772 17.7659801,49.7595847 C17.4436609,49.5781712 17.0467445,49.4878577 16.5676228,49.4878542 C16.5676228,49.4878542 17.0467445,49.4878577 16.5676228,49.4878542 L16.5676228,49.4878542 L16.5676228,49.4878542 L16.5676228,49.4878542 L16.5676228,49.4878542 L16.5676228,49.4878542 Z" id="path3805-0" transform="translate(16.413346, 51.348266) rotate(30.000000) translate(-16.413346, -51.348266) "></path>
                        <path d="M32.1113109,51.6892846 C31.7534364,51.6892884 31.4285341,51.7626746 31.1317151,51.9132449 C30.8360458,52.0632341 30.6079097,52.2826119 30.4471889,52.5725267 C30.2865164,52.8623535 30.2063576,53.2022156 30.2063576,53.5957441 C30.2063576,53.9563302 30.2789071,54.2930555 30.422236,54.6063632 C30.5649954,54.918412 30.7696752,55.1530679 31.04059,55.3160364 C31.3100467,55.4781339 31.6639566,55.5609929 32.1037189,55.5609929 C32.5259852,55.5609929 32.8775033,55.4553278 33.1668478,55.2432496 C33.4444279,55.0397822 33.639738,54.7458227 33.7548196,54.3600075 L33.3057056,54.2550263 C33.0752503,54.985937 32.5827258,55.0375957 32.0570698,55.0430853 C31.2441276,55.0321334 30.6858467,54.5488002 30.6695761,53.5943444 C30.6831702,52.543136 31.3947011,52.2240393 32.0993794,52.2071922 C32.5937581,52.2067254 33.0391996,52.2906588 33.2406158,52.8202826 L33.6799684,52.7250994 C33.5690316,52.4033615 33.3868228,52.1518339 33.1267075,51.9720342 C32.8535988,51.7832642 32.517282,51.6892884 32.1113109,51.6892846 C32.1113109,51.6892846 32.517282,51.6892884 32.1113109,51.6892846 L32.1113109,51.6892846 L32.1113109,51.6892846 L32.1113109,51.6892846 L32.1113109,51.6892846 L32.1113109,51.6892846 Z" id="path3881-4" transform="translate(31.980589, 53.625139) rotate(-16.000000) translate(-31.980589, -53.625139) "></path>
                        <polygon id="path3919-6" transform="translate(36.128393, 52.489349) rotate(-24.000000) translate(-36.128393, -52.489349) " points="34.631877 50.7634364 34.631877 54.2152616 37.6249085 54.2152616 37.6249085 53.7248181 35.1298102 53.7248181 35.0788249 53.7248181 35.0788249 53.6811398 35.0788249 52.7177235 35.0788249 52.6740453 35.1298102 52.6740453 37.3732293 52.6740453 37.3732293 52.1860976 35.1298102 52.1860976 35.0788249 52.1860976 35.0788249 52.1424193 35.0788249 51.2988061 35.0788249 51.2563758 35.1298102 51.2563758 37.5294438 51.2563758 37.5294438 50.7634364 34.631877 50.7634364 34.631877 50.7634364 34.631877 50.7634364"></polygon>
                        <polygon id="path3953-0" transform="translate(39.979905, 50.842207) rotate(-6.000000) translate(-39.979905, -50.842207) " points="37.5233033 50.0427764 39.0469664 53.0941373 39.5013098 52.8994391 38.2932837 50.480198 38.2304816 50.3544343 38.3821957 50.4153107 41.8415643 51.8965833 42.4365067 51.6416371 40.9128435 48.5902763 40.4573449 48.7854725 41.6648178 51.2036129 41.7265138 51.3271665 41.5765081 51.2668982 38.1170822 49.7883275 37.5233033 50.0427764 37.5233033 50.0427764 37.5233033 50.0427764"></polygon>
                        <polygon id="path4168-1" transform="translate(43.078406, 48.238531) rotate(-8.000000) translate(-43.078406, -48.238531) " points="41.1878123 48.2013541 41.47212 48.6015347 42.7683042 47.8112623 42.8175003 47.7812682 42.8420328 47.8157993 44.5283817 50.1894455 44.9690002 49.9208051 43.2826514 47.5471588 43.2581189 47.5126277 43.3083802 47.4819827 44.6109843 46.6877962 44.3266725 46.287616 41.1878123 48.2013541 41.1878123 48.2013541 41.1878123 48.2013541"></polygon>
                        <path d="M49.4059845,40.5230433 L47.5329091,43.8854703 L48.1423301,43.8854703 L48.7197457,42.841754 L48.7222858,42.841754 L50.7016279,42.841754 L51.2790395,43.8854703 L51.8884605,43.8854703 L50.0153891,40.5230433 L49.4059681,40.5230433 L49.4059845,40.5230433 L49.4059845,40.5230433 L49.4059845,40.5230433 L49.4059845,40.5230433 L49.4059845,40.5230433 Z M49.7106909,41.0532037 L50.4391815,42.3685235 L48.9822044,42.3685235 L49.7106909,41.0532037 L49.7106909,41.0532037 L49.7106909,41.0532037 L49.7106909,41.0532037 L49.7106909,41.0532037 Z" id="path4213-3-0" transform="translate(49.710685, 42.204257) rotate(-55.000000) translate(-49.710685, -42.204257) "></path>
                        <path d="M10.4336115,45.6010485 L8.72427871,48.5672687 L9.19073671,48.797949 L9.19184289,48.7985031 L9.84301999,47.6685139 L9.86412337,47.6318958 L9.91607676,47.6575906 L11.1787849,48.2820484 C11.2578355,48.3211422 11.3347229,48.3564987 11.409951,48.3896445 C11.4558,48.5967436 11.6869375,49.6418635 11.7872922,50.0820548 L12.3802435,50.3752928 L11.9809468,48.5900164 C12.560878,48.7291275 12.9944252,48.5977031 13.2930066,48.0987771 C13.2970217,48.0917728 13.3001271,48.0843305 13.3039455,48.077297 C13.3099434,48.0678527 13.3162855,48.0583784 13.3219475,48.0485553 C13.4147393,47.8875224 13.4407917,47.7129967 13.4023788,47.5236575 C13.3640518,47.33476 13.2671959,47.1710005 13.1074518,47.0255524 C12.947638,46.8800652 12.6760022,46.7100024 12.2949041,46.5215361 L12.1650186,46.457302 L10.4335951,45.6010447 L10.4336115,45.6010485 L10.4336115,45.6010485 L10.4336115,45.6010485 L10.4336115,45.6010485 L10.4336115,45.6010485 Z M10.6575998,46.2549861 L10.7095614,46.2806813 L11.9688813,46.9034642 C12.4802664,47.1563635 13.0168724,47.500076 12.7770698,47.9162205 C12.537259,48.3323646 11.8369595,48.0617946 11.4302965,47.8632634 L10.1596854,47.2348946 L10.107728,47.2091994 L10.1294295,47.1715334 L10.6365046,46.2916046 L10.6575998,46.2549861 L10.6575998,46.2549861 L10.6575998,46.2549861 L10.6575998,46.2549861 L10.6575998,46.2549861 Z" id="path4162-1-8" transform="translate(11.071882, 47.988169) rotate(13.000000) translate(-11.071882, -47.988169) "></path>
                        <path d="M44.4315354,45.5769488 L46.8911709,48.0496134 L47.2800122,47.7176729 L47.2809545,47.7168872 L46.3439497,46.7749173 L46.3135872,46.7443903 L46.3568961,46.7074203 L47.4094962,45.8088542 C47.4753915,45.7526006 47.536772,45.6970073 47.595342,45.6421359 C47.8215222,45.670295 48.9628417,45.8126051 49.4445363,45.8699192 L49.9388249,45.4479644 L47.9877558,45.2087758 C48.3206697,44.7474087 48.3296257,44.3249044 47.919558,43.8993163 C47.9137404,43.8934962 47.9071812,43.8883273 47.9012693,43.8826693 C47.8936203,43.8743104 47.8860573,43.8656407 47.8779085,43.8574512 C47.7443766,43.7232182 47.575099,43.6429094 47.369469,43.6141005 C47.1643185,43.5853623 46.9655018,43.6161007 46.7646161,43.7078749 C46.5636731,43.7996987 46.3008211,43.9812234 45.9831356,44.2524204 L45.8748656,44.3448489 L44.4315354,45.5769609 L44.4315354,45.5769488 L44.4315354,45.5769488 L44.4315354,45.5769488 L44.4315354,45.5769488 L44.4315354,45.5769488 Z M45.171817,45.5965805 L45.215134,45.5596026 L46.2649114,44.663448 C46.6912029,44.2995375 47.2183654,43.9434989 47.563439,44.2903942 C47.9085127,44.6372959 47.4019414,45.1606103 47.0655779,45.4508493 L46.0063858,46.3550386 L45.9630728,46.3920119 L45.9318377,46.3606169 L45.2021877,45.6270999 L45.171817,45.5965805 L45.171817,45.5965805 L45.171817,45.5965805 L45.171817,45.5965805 L45.171817,45.5965805 Z" id="path5862-3" transform="translate(47.185180, 45.826661) rotate(-7.000000) translate(-47.185180, -45.826661) "></path>
                        <path d="M3.44847919,35.8540935 L1.85758448,39.2821359 L2.3751954,39.2821359 L2.86562288,38.2180522 L2.86778046,38.2180522 L4.548933,38.2180522 L5.03935682,39.2821359 L5.55696815,39.2821359 L3.9660767,35.8540935 L3.44846537,35.8540935 L3.44847919,35.8540935 L3.44847919,35.8540935 L3.44847919,35.8540935 L3.44847919,35.8540935 L3.44847919,35.8540935 Z M3.7072816,36.3945997 L4.32602439,37.735587 L3.08854206,37.735587 L3.7072816,36.3945997 L3.7072816,36.3945997 L3.7072816,36.3945997 L3.7072816,36.3945997 L3.7072816,36.3945997 Z" id="path4378-8-1" transform="translate(3.707276, 37.568115) rotate(68.000000) translate(-3.707276, -37.568115) "></path>
                        <polygon id="path3540-4" transform="translate(38.829683, 4.174595) rotate(-3.000000) translate(-38.829683, -4.174595) " points="39.8970073 2.79193958 38.2472442 5.7864961 37.7623582 5.55725083 39.4121213 2.56269431 39.8970073 2.79193958 39.8970073 2.79193958 39.8970073 2.79193958"></polygon>
                        <path d="M22.2987113,0.532929575 L22.5252233,3.88838233 L24.2272553,3.78977884 C24.5188146,3.7728881 24.7745788,3.73786667 24.9938352,3.6869132 C25.2133742,3.6358861 25.3981671,3.56955394 25.5474107,3.48799377 C25.6966133,3.40645144 25.8317184,3.29762712 25.9550734,3.16113369 C26.0770273,3.02619028 26.1748788,2.85674464 26.2466368,2.65344919 C26.3178663,2.45160622 26.3458813,2.22338948 26.3284733,1.96549514 C26.3080582,1.66308232 26.2267666,1.39780758 26.0863396,1.17208589 C25.9461503,0.946741849 25.7465633,0.768513052 25.4868988,0.634423588 C25.2892702,0.531200802 25.0555639,0.466149188 24.7809209,0.437845499 L24.7796508,0.437921406 C24.5858079,0.417519977 24.2987429,0.417065676 23.9215287,0.438919578 L22.2987235,0.532933371 L22.2987113,0.532929575 L22.2987113,0.532929575 L22.2987113,0.532929575 L22.2987113,0.532929575 L22.2987113,0.532929575 Z M22.8573506,0.979179794 L22.9174036,0.975699475 L23.9434761,0.916256224 C24.33099,0.893806454 24.615482,0.89957498 24.8057976,0.939369417 C25.4092534,1.10881429 25.7508856,1.54254599 25.7810842,1.98989723 C25.8112828,2.4372481 25.6337744,2.75231038 25.3419488,2.99083334 C25.2307904,3.07979669 25.0803463,3.15080128 24.8933575,3.20558994 C24.7034312,3.2612371 24.445135,3.27305993 24.1221522,3.31603258 L23.0794666,3.37643833 L23.0194095,3.37991865 L23.0166235,3.33867553 L22.8602103,1.02163893 L22.8573506,0.979179794 L22.8573506,0.979179794 L22.8573506,0.979179794 L22.8573506,0.979179794 L22.8573506,0.979179794 Z" id="path4150-6" transform="translate(24.316102, 2.155478) rotate(-3.000000) translate(-24.316102, -2.155478) "></path>
                        <polygon id="path4040-2-5" points="27.2133263 0.00733604677 27.2133263 3.54121441 30.2063578 3.54121441 30.2063578 3.03911252 27.7112595 3.03911252 27.6602742 3.03911252 27.6602742 2.99439602 27.6602742 2.00807843 27.6602742 1.96336192 27.7112595 1.96336192 29.9546786 1.96336192 29.9546786 1.46381521 27.7112595 1.46381521 27.6602742 1.46381521 27.6602742 1.4190987 27.6602742 0.555432023 27.6602742 0.511993103 27.7112595 0.511993103 30.1108931 0.511993103 30.1108931 0.00733604677 27.2133263 0.00733604677 27.2133263 0.00733604677 27.2133263 0.00733604677"></polygon>
                        <polygon id="path4164-2" points="34.6292343 0.829209598 33.2843165 4.04826655 33.7626242 4.22048479 34.8289192 1.66828416 34.884349 1.53560825 34.9438515 1.68288773 36.2262942 5.10755817 36.8526021 5.33307066 38.1975199 2.11401371 37.7179862 1.9413558 36.652174 4.49239335 36.5977225 4.6227396 36.538959 4.47706675 35.2543204 1.05428243 34.6292343 0.829209598 34.6292343 0.829209598 34.6292343 0.829209598"></polygon>
                        <path d="M41.5554081,3.78355682 C41.1677575,3.78356003 40.8158219,3.84914542 40.494307,3.98371001 C40.1740368,4.1177558 39.9269189,4.31381386 39.7528257,4.57291096 C39.578785,4.8319292 39.4919565,5.13566407 39.4919565,5.48736084 C39.4919565,5.80961708 39.5705425,6.1105486 39.7257968,6.3905521 C39.8804344,6.66943034 40.1021441,6.87914244 40.3955998,7.02478752 C40.6874762,7.16965399 41.0708326,7.24370506 41.5471844,7.24370506 C42.0045844,7.24370506 42.3853499,7.14927239 42.698769,6.95973773 C42.9994444,6.77789896 43.2110051,6.51518709 43.335662,6.17038359 L42.84918,6.07656179 C42.5995503,6.72977733 42.0660461,6.77594466 41.4966538,6.78085082 C40.6160723,6.77106333 40.0113409,6.33910793 39.9937165,5.48610988 C40.0084417,4.54664446 40.7791743,4.26146739 41.542484,4.24641107 C42.0779962,4.24599475 42.5604999,4.32100536 42.7786748,4.79433042 L43.2545829,4.70926532 C43.1344158,4.42172765 42.9370464,4.19693721 42.6552889,4.03625022 C42.3594567,3.86754631 41.9951574,3.78356003 41.5554081,3.78355682 C41.5554081,3.78355682 41.9951574,3.78356003 41.5554081,3.78355682 L41.5554081,3.78355682 L41.5554081,3.78355682 L41.5554081,3.78355682 L41.5554081,3.78355682 L41.5554081,3.78355682 Z" id="path3546-3" transform="translate(41.413809, 5.513631) rotate(32.000000) translate(-41.413809, -5.513631) "></path>
                        <path d="M44.3279004,6.12411928 L42.7238055,9.72496061 L43.2457112,9.72496061 L43.7402079,8.60723914 L43.7423834,8.60723914 L45.437485,8.60723914 L45.931978,9.72496061 L46.4538841,9.72496061 L44.8497925,6.12411928 L44.3278864,6.12411928 L44.3279004,6.12411928 L44.3279004,6.12411928 L44.3279004,6.12411928 L44.3279004,6.12411928 L44.3279004,6.12411928 Z M45.2084474,8.06262053 L43.9606973,8.06262053 L44.5845707,6.65403751 L45.2084474,8.06262053 L45.2084474,8.06262053 Z" id="path4340-6-4" transform="translate(44.588845, 7.924540) rotate(40.000000) translate(-44.588845, -7.924540) "></path>
                        <path d="M50.2630465,13.0767149 L48.6589517,16.6016957 L49.1808574,16.6016957 L49.6753541,15.5075218 L49.6775295,15.5075218 L51.3726311,15.5075218 L51.8671241,16.6016957 L52.3890302,16.6016957 L50.7849387,13.0767149 L50.2630326,13.0767149 L50.2630465,13.0767149 L50.2630465,13.0767149 L50.2630465,13.0767149 L50.2630465,13.0767149 L50.2630465,13.0767149 Z M50.5239963,13.6325056 L51.1478729,15.0114134 L49.9001229,15.0114134 L50.5239963,13.6325056 L50.5239963,13.6325056 L50.5239963,13.6325056 L50.5239963,13.6325056 L50.5239963,13.6325056 Z" id="path4300-8-9" transform="translate(50.523991, 14.839205) rotate(62.000000) translate(-50.523991, -14.839205) "></path>
                        <path d="M53.9334646,18.031286 C53.771713,17.6143695 53.5605973,17.2707614 53.3028829,16.9985662 C53.0460698,16.727315 52.7487297,16.555145 52.4045369,16.4784558 C52.058902,16.4014462 51.7262585,16.4156666 51.4029519,16.523317 C51.0765317,16.6319865 50.8145401,16.8153124 50.6177514,17.0733525 C50.4217165,17.330413 50.3216731,17.6461322 50.3124468,18.0257193 C50.3031754,18.4064515 50.3766624,18.8014222 50.5362631,19.212777 C50.6541896,19.5167425 50.8122171,19.7977303 51.0110666,20.0579034 C51.0986675,20.1725099 51.1949253,20.2822754 51.2983978,20.388229 L51.0273069,20.4784873 L51.2009519,20.9260583 L51.710604,20.7563743 L52.9009887,20.3600418 L52.2398519,18.6594411 L51.8470734,18.7902142 L52.3125768,19.9900702 L52.3333606,20.0436454 L52.2911907,20.0576855 L51.7755202,20.2293761 L51.7574445,20.2353928 L51.7372629,20.2219467 C51.341596,19.9017133 51.1069024,19.4698797 50.9381696,19.0424163 C50.6324471,18.1736291 50.6153588,17.3331221 51.615563,16.9906856 C52.5999613,16.6879289 53.2219108,17.4223519 53.5327749,18.1697325 C53.7352993,18.705354 53.8353386,19.2508347 53.4029057,19.6409136 L53.6505458,20.0197379 C53.8265179,19.8802868 53.9585215,19.7279592 54.0362447,19.5586001 C54.1189048,19.3784247 54.1517623,19.1547923 54.1347722,18.8868115 C54.1178273,18.6193548 54.0509815,18.3345474 53.9338989,18.0324022 L53.9333663,18.0312901 L53.9334646,18.031286 L53.9334646,18.031286 L53.9334646,18.031286 L53.9334646,18.031286 L53.9334646,18.031286 Z" id="path4152-4"></path>
                        <path d="M54.7942927,20.3799762 L52.7646524,20.7457339 C52.3879668,20.8136183 52.1056543,20.9241642 51.9173831,21.0712068 C51.7294479,21.2179764 51.6092148,21.4249746 51.5512348,21.7002463 C51.4938652,21.9726327 51.5020673,22.3063703 51.5864194,22.7124814 C51.5870749,22.7156392 51.5876894,22.7186143 51.5883859,22.7217948 C51.6745161,23.1275883 51.8019803,23.4398333 51.9653953,23.6724299 C52.1305391,23.9074911 52.325771,24.0576401 52.5593913,24.1284413 C52.7934335,24.1993783 53.0999016,24.203817 53.4765791,24.1359356 L55.5062194,23.7701752 L55.4054959,23.2905208 L53.4248756,23.6474452 C52.5357437,23.807675 52.2362609,23.3741376 52.083543,22.6325616 C52.0828466,22.6293963 52.082273,22.6263912 52.0815765,22.6232494 C51.9230656,21.8827201 52.0252722,21.3767902 52.9144041,21.2165577 L54.8950244,20.8596329 L54.794305,20.3799758 L54.7942927,20.3799762 L54.7942927,20.3799762 L54.7942927,20.3799762 L54.7942927,20.3799762 L54.7942927,20.3799762 Z" id="path3670-4"></path>
                        <path d="M53.8472098,24.3323104 L52.3152164,27.834405 L52.8136633,27.834405 L53.2859332,26.7473351 L53.2880109,26.7473351 L54.9069205,26.7473351 L55.3791869,27.834405 L55.8776342,27.834405 L54.3456438,24.3323104 L53.8471965,24.3323104 L53.8472098,24.3323104 L53.8472098,24.3323104 L53.8472098,24.3323104 L53.8472098,24.3323104 L53.8472098,24.3323104 Z M54.0964304,24.8844926 L54.6922648,26.2544477 L53.500599,26.2544477 L54.0964304,24.8844926 L54.0964304,24.8844926 L54.0964304,24.8844926 L54.0964304,24.8844926 L54.0964304,24.8844926 Z" id="path4258-1-1" transform="translate(54.096425, 26.083358) rotate(86.000000) translate(-54.096425, -26.083358) "></path>
                        <polygon id="path4040-9" points="0.911739217 21.5177264 4.44586483 22.2821586 5.24902641 19.0955815 4.74688808 18.9869689 4.07734027 21.6434141 4.06366466 21.6976961 4.01894647 21.6880252 3.03255709 21.4746695 2.9878389 21.4649959 3.00151452 21.4107132 3.60352824 19.0222234 3.10393822 18.9141634 2.50193269 21.3026533 2.48825298 21.3569356 2.44353889 21.3472613 1.57980394 21.1604372 1.53636809 21.1510415 1.5500478 21.0967599 2.1939733 18.5419529 1.68927848 18.432787 0.911739217 21.5177264 0.911739217 21.5177264 0.911739217 21.5177264"></polygon>
                        <path d="M1.9579891,17.5736152 L5.38579892,18.6779619 L5.55991101,18.2141872 L4.25372207,17.7933695 L4.21159316,17.7797951 L4.23093485,17.728264 L4.64307552,16.6304395 C5.01496777,15.6398411 4.93916604,15.0014909 4.11969042,14.7239029 C3.95137141,14.6696794 3.78249112,14.6616026 3.61200073,14.6997236 C3.44081386,14.738014 3.29392598,14.8123152 3.16741633,14.921905 C3.0404642,15.0318831 2.92374625,15.1844919 2.81909381,15.379783 C2.74345186,15.5170302 2.65071335,15.7283877 2.54465976,16.0108967 C2.54465976,16.0108967 2.65071335,15.7283877 2.54465976,16.0108967 L1.9579891,17.5736152 L1.9579891,17.5736152 L1.9579891,17.5736152 L1.9579891,17.5736152 L1.9579891,17.5736152 Z M2.62037545,17.2671482 L2.63972124,17.2156174 L3.05059186,16.1211511 C3.2410098,15.6139368 3.52441618,15.0695704 4.00538557,15.2245232 C4.48634268,15.379476 4.30642111,16.0623397 4.15774287,16.465292 L3.74266469,17.5709558 L3.7233189,17.6224877 L3.67994451,17.6085144 L2.66250846,17.2807241 L2.62037545,17.2671482 L2.62037545,17.2671482 L2.62037545,17.2671482 L2.62037545,17.2671482 L2.62037545,17.2671482 Z" id="path4162-9"></path>
                        <path d="M3.75895006,13.9404568 L5.54374036,14.9075435 C5.87498679,15.0870278 6.16578406,15.17674 6.41198195,15.1815111 C6.65773738,15.1862712 6.89558569,15.1044059 7.13537186,14.9331798 C7.3726384,14.7637467 7.60439865,14.5081273 7.83058705,14.1515782 C7.83234874,14.1488039 7.83402848,14.1461832 7.8357533,14.1433875 C8.06037666,13.7859853 8.18726324,13.4735387 8.23037542,13.1989055 C8.27394237,12.9213612 8.23439043,12.689173 8.10944171,12.4930792 C7.98426766,12.2966248 7.75730904,12.1057963 7.4260667,11.9263124 L5.6412723,10.9592249 L5.37496249,11.3810199 L7.11664471,12.3247528 C7.89851854,12.7484098 7.81432626,13.2571771 7.40032967,13.9074545 C7.39860896,13.9102479 7.39684727,13.9128617 7.39516342,13.9156456 C6.98625934,14.5686792 6.54882821,14.8860509 5.76696257,14.4623947 L4.02526396,13.5186618 L3.75895006,13.9404568 L3.75895006,13.9404568 L3.75895006,13.9404568 L3.75895006,13.9404568 L3.75895006,13.9404568 Z" id="path4002-2"></path>
                        <path d="M7.22648117,8.29645829 L7.22648117,11.5770485 L9.03297711,11.5770485 C9.77214845,11.6120939 10.8010683,11.5125465 10.8010683,10.6056807 C10.8010683,9.87789994 10.1596379,9.79205636 10.1596379,9.79205636 C10.1596379,9.79205636 10.5654938,9.67313229 10.5654938,9.19811649 C10.5654897,9.0514565 10.5051908,8.82954343 10.3824135,8.69378213 C10.2605211,8.55902393 10.0936688,8.46108272 9.87797262,8.39608576 C9.66323519,8.33138256 9.37199135,8.29646171 9.00353234,8.29645829 C9.00353234,8.29645829 9.37199135,8.29646171 9.00353234,8.29645829 L7.22648117,8.29645829 L7.22648117,8.29645829 L7.22648117,8.29645829 L7.22648117,8.29645829 L7.22648117,8.29645829 Z M7.75652381,8.76192048 L7.81541744,8.76192048 L9.0355377,8.76192048 C9.43687882,8.76192048 10.0236724,8.77623496 10.0265034,9.19811649 C10.0293303,9.61999802 9.4437494,9.63372535 9.0355377,9.63431287 L7.81541744,9.63431287 L7.75652381,9.63431287 L7.75652381,9.59280143 L7.75652381,8.80224589 L7.75652381,8.76192048 L7.75652381,8.76192048 L7.75652381,8.76192048 L7.75652381,8.76192048 L7.75652381,8.76192048 Z M7.75652381,10.098589 L7.81541744,10.098589 L9.0355377,10.098589 C9.8801481,10.098589 10.2505409,10.2312268 10.2505409,10.6056807 C10.2505409,10.9801346 9.86436665,11.1127724 9.0355377,11.1127724 L7.81541744,11.1127724 L7.75652381,11.1127724 L7.75652381,11.0712609 L7.75652381,10.1389144 L7.75652381,10.098589 L7.75652381,10.098589 L7.75652381,10.098589 L7.75652381,10.098589 L7.75652381,10.098589 Z" id="path4078-0-3" transform="translate(9.013775, 9.939659) rotate(-50.000000) translate(-9.013775, -9.939659) "></path>
                        <polygon id="path4158-7" transform="translate(14.393158, 5.527588) rotate(6.000000) translate(-14.393158, -5.527588) " points="13.071319 4.34864689 15.2834332 7.01391585 15.7149975 6.70652848 13.5028833 4.04125953 13.071319 4.34864689 13.071319 4.34864689 13.071319 4.34864689"></polygon>
                        <path d="M16.9101043,2.70197587 C16.5403716,2.70197903 16.2047031,2.76661809 15.8980492,2.89924104 C15.5925825,3.03135267 15.3568869,3.22458178 15.1908405,3.47994035 C15.0248444,3.7352212 14.9420292,4.03457344 14.9420292,4.38119555 C14.9420292,4.69880193 15.0169828,4.99539128 15.165061,5.27135459 C15.3125509,5.54620887 15.5240128,5.75289502 15.8039044,5.89643857 C16.0822898,6.03921475 16.4479267,6.11219734 16.9022607,6.11219734 C17.3385188,6.11219734 17.7016847,6.01912724 18.0006169,5.83232739 C18.2873946,5.65311239 18.4891766,5.39419121 18.6080716,5.05436291 L18.1440757,4.96189487 C17.9059844,5.60568511 17.3971397,5.65118629 16.8540657,5.65602165 C16.0141863,5.64637539 15.4374067,5.22065271 15.4205969,4.37996265 C15.4346415,3.45405285 16.1697494,3.17299063 16.8977776,3.15815156 C17.4085375,3.15774125 17.8687389,3.23166952 18.0768294,3.69816493 L18.5307402,3.61432724 C18.4161273,3.33093848 18.2278807,3.10939156 17.9591466,2.95102314 C17.6769883,2.78475346 17.3295275,2.70197903 16.9101043,2.70197587 C16.9101043,2.70197587 17.3295275,2.70197903 16.9101043,2.70197587 L16.9101043,2.70197587 L16.9101043,2.70197587 L16.9101043,2.70197587 L16.9101043,2.70197587 L16.9101043,2.70197587 Z" id="path4116-8" transform="translate(16.775050, 4.407087) rotate(-25.000000) translate(-16.775050, -4.407087) "></path>
                        <polygon id="path4485-1" points="9.76592597 6.82406839 12.2582715 9.267893 14.3931583 7.39939823 14.0390386 7.05217506 12.3313119 8.54680608 12.2875728 8.58508884 12.2560386 8.55416637 10.149347 6.4884893 9.76592597 6.82406839 9.76592597 6.82406839 9.76592597 6.82406839"></polygon>
                        <path d="M0.00891323698,25.8887007 L3.63048411,26.1128401 L3.66572606,25.624094 L3.66613575,25.6229136 L2.28649673,25.5375251 L2.24178264,25.5347545 L2.24571571,25.480318 L2.34112543,24.157274 C2.34710288,24.0744462 2.35028621,23.994981 2.35197825,23.9178261 C2.53692677,23.7939719 3.4703508,23.1691467 3.86226075,22.9034431 L3.90706497,22.2821586 L2.31442152,23.3532583 C2.21291554,22.8063285 1.90536176,22.4942308 1.29165534,22.4471839 C1.28311731,22.4466715 1.27450962,22.447108 1.26602484,22.4467929 C1.2542666,22.4456088 1.24233219,22.4441476 1.23034042,22.4434037 C1.03373608,22.4312404 0.851278508,22.4809847 0.680755341,22.5912581 C0.510625481,22.7012776 0.389298465,22.8503893 0.31183747,23.0450826 C0.234368282,23.2398507 0.178686662,23.5391533 0.149893312,23.9384613 L0.140072928,24.0745536 L0.00924508977,25.8887091 L0.00891323698,25.8887007 L0.00891323698,25.8887007 L0.00891323698,25.8887007 L0.00891323698,25.8887007 L0.00891323698,25.8887007 Z M0.560341944,25.4307214 L0.564234045,25.3762785 L0.659397952,24.0567842 C0.698036268,23.5209638 0.815671934,22.9265131 1.32375903,22.9579517 C1.83184203,22.9893983 1.85346982,23.6920186 1.82528281,24.1170526 L1.72927084,25.4483784 L1.72533777,25.5028187 L1.67934543,25.499976 L0.605010968,25.4334836 L0.560309169,25.4307206 L0.560341944,25.4307214 L0.560341944,25.4307214 L0.560341944,25.4307214 L0.560341944,25.4307214 L0.560341944,25.4307214 Z" id="path5882-4"></path>
                        <path d="M47.9033361,8.53365356 L45.1030517,10.6729054 L45.4394644,11.050815 L45.4402428,11.0517183 L46.5070184,10.236766 L46.5415925,10.2103573 L46.5790591,10.2524502 L47.4897328,11.2754599 C47.5467418,11.3395047 47.603292,11.3993305 47.6592154,11.4565265 C47.616435,11.6641889 47.4003333,12.712066 47.3120933,13.1544784 L47.7397327,13.6348711 L48.1047462,11.843308 C48.5837326,12.176602 49.0386331,12.2081002 49.5198811,11.8521781 C49.5264731,11.8471193 49.5324055,11.8413341 49.5388254,11.8361789 C49.5482566,11.8295636 49.5580155,11.8230421 49.567291,11.8159581 C49.7193124,11.6998183 49.8151728,11.547649 49.8575229,11.3590316 C49.8997706,11.1708534 49.8775652,10.9852605 49.7896856,10.7944031 C49.7017528,10.603485 49.5205407,10.3503796 49.2456929,10.0416263 L49.1520162,9.93639617 L47.9033074,8.53364521 L47.9033361,8.53365356 L47.9033361,8.53365356 L47.9033361,8.53365356 L47.9033361,8.53365356 L47.9033361,8.53365356 Z M47.8415009,9.21732647 L47.8789756,9.2594224 L48.7872035,10.2796878 C49.1560189,10.6939968 49.5108023,11.2011716 49.117946,11.5012997 C48.7250814,11.8014243 48.1888647,11.3041041 47.8945154,10.9770223 L46.9781469,9.9476072 L46.9406762,9.9055128 L46.9762296,9.87834619 L47.8069349,9.24373819 L47.8415009,9.21732647 L47.8415009,9.21732647 L47.8415009,9.21732647 L47.8415009,9.21732647 L47.8415009,9.21732647 Z" id="path5884-6"></path>
                        <rect id="rect5026-8" transform="translate(2.490822, 32.189057) rotate(165.251073) translate(-2.490822, -32.189057) " x="2.21863316" y="31.1300247" width="0.544377942" height="2.11806446"></rect>
                    </g>
                </g>
            </g>
        </g>
    </g>
</svg>