<?xml version="1.0" encoding="UTF-8" standalone="no"?>
<svg width="180px" height="180px" viewBox="0 0 180 180" version="1.1" xmlns="http://www.w3.org/2000/svg" xmlns:xlink="http://www.w3.org/1999/xlink">
    <!-- Generator: Sketch 3.8.3 (29802) - http://www.bohemiancoding.com/sketch -->
    <title>niue</title>
    <desc>Created with Sketch.</desc>
    <defs></defs>
    <g id="Page-1" stroke="none" stroke-width="1" fill="none" fill-rule="evenodd">
        <g id="flags" transform="translate(-1260.000000, -4230.000000)">
            <g id="niue" transform="translate(1260.000000, 4230.000000)">
                <circle id="yellow" fill="#F2C500" cx="90" cy="90" r="90"></circle>
                <g id="UK-corner">
                    <path d="M90,90 L90,0 C40.2943725,0 0,40.2943725 0,90 L90,90 Z" id="blue" fill="#227FBB"></path>
                    <path d="M58.6665316,5.60442783 L41.3956444,14.2398718 C16.4947453,30.2482972 0,58.1978704 0,90 L18,90 L18,64.0623044 L69.8753928,90 L90,90 L90,79.937694 L47.124612,58.5 L90,58.5 L90,31.5 L47.1246106,31.5 L90,10.062306 L90,0 C78.9808284,0 68.424181,1.98030051 58.6665316,5.60442783 L58.6665316,5.60442783 Z" id="white" fill="#FFFFFF"></path>
                    <path d="M17.9934072,35.9999997 L90,36 L90,54 L12,53.9999997 L12,89.9999997 L0,89.9999998 C4.3896494e-08,69.7390927 6.69500614,51.041889 17.9934072,35.9999997 L17.9934072,35.9999997 L17.9934072,35.9999997 Z M75.9120161,1.09619155 L24.8567236,27.9002201 C23.7407294,29.0705605 22.6559518,30.2709324 21.6037269,31.5 L30,31.5 L90,0 L89.9925529,0 C85.2024043,0.000387862029 80.4996778,0.374999182 75.9120161,1.09619155 L75.9120161,1.09619155 L75.9120161,1.09619155 Z M28,58.5 L40,58.5 L90,84 L90,90 L28,58.5 L28,58.5 Z" id="red" fill="#E94B35"></path>
                    <path d="M53.2129076,42.8097975 L55.4942104,36 L57.7755132,42.8097975 L64.9884208,42.8753882 L59.2070223,47.1566791 L61.3619551,54 L55.4942104,49.8178233 L49.6264657,54 L51.7813985,47.1566791 L46,42.8753882 L53.2129076,42.8097975 Z M53.2221047,42.8656072 L57.7663161,42.8656072 L59.1490994,47.1213766 L55.4942104,49.7768088 L51.8393214,47.1213766 L53.2221047,42.8656072 Z" id="star" fill="#F2C500"></path>
                    <path d="M3.82282275,63.9659712 L4.7755132,66.8097975 L11.9884208,66.8753882 L6.20702228,71.1566791 L8.3619551,78 L2.49421039,73.8178233 L1.30062375,74.6685403 C1.38983384,74.1487398 1.48350198,73.6304626 1.58158741,73.1137494 L2.49421039,73.7768088 L6.14909936,71.1213766 L4.76631609,66.8656072 L3.00115962,66.8656072 C3.2592523,65.8924936 3.53323825,64.92585 3.82282275,63.9659712 Z" id="star" fill="#F2C500"></path>
                </g>
            </g>
        </g>
    </g>
</svg>