<?xml version="1.0" encoding="UTF-8" standalone="no"?>
<svg width="180px" height="180px" viewBox="0 0 180 180" version="1.1" xmlns="http://www.w3.org/2000/svg" xmlns:xlink="http://www.w3.org/1999/xlink">
    <!-- Generator: Sketch 3.8.3 (29802) - http://www.bohemiancoding.com/sketch -->
    <title>north_korea</title>
    <desc>Created with Sketch.</desc>
    <defs></defs>
    <g id="Page-1" stroke="none" stroke-width="1" fill="none" fill-rule="evenodd">
        <g id="flags" transform="translate(-1800.000000, -4230.000000)">
            <g id="north_korea" transform="translate(1800.000000, 4230.000000)">
                <circle id="white" fill="#FFFFFF" cx="90" cy="90" r="90"></circle>
                <path d="M164.844511,140 L15.155489,140 C31.3007153,164.119715 58.795837,180 90,180 C121.204163,180 148.699285,164.119715 164.844511,140 L164.844511,140 Z M12.0403964,45 L167.959604,45 C152.398162,18.0989265 123.312698,0 90,0 C56.6873022,0 27.6018377,18.0989265 12.0404109,44.9999749 L12.0403964,45 Z" id="blue" fill="#227FBB"></path>
                <path d="M12.0403964,135 L167.959604,135 C175.617252,121.762218 180,106.392932 180,90 C180,75.631582 176.632938,62.049584 170.644801,49.9999927 L9.35519552,50 C3.36706199,62.049584 0,75.631582 0,90 C0,106.392932 4.38274789,121.762218 12.0404109,135.000025 L12.0403964,135 Z" id="red" fill="#E94B35"></path>
                <path d="M64.9711442,83.452196 C65.6404149,85.6842121 66,88.0501132 66,90.5 C66,104.030977 55.030977,115 41.5,115 C27.969023,115 17,104.030977 17,90.5 C17,76.969023 27.969023,66 41.5,66 C52.5689425,66 61.9234331,73.3404366 64.9611656,83.4190034 L49.107391,81.1547246 L41.9999984,67 L34.8926102,81.1547211 L19,83.4245386 L30.4999993,94.4424536 L27.7852188,110 L41.9999976,102.654722 L56.214777,110 L53.499996,94.4424565 L64.9711442,83.452196 L64.9711442,83.452196 L64.9711442,83.452196 L64.9711442,83.452196 L64.9711442,83.452196 Z" id="white" fill="#FFFFFF"></path>
            </g>
        </g>
    </g>
</svg>