<?xml version="1.0" encoding="UTF-8" standalone="no"?>
<svg width="180px" height="180px" viewBox="0 0 180 180" version="1.1" xmlns="http://www.w3.org/2000/svg" xmlns:xlink="http://www.w3.org/1999/xlink">
    <!-- Generator: Sketch 3.8.3 (29802) - http://www.bohemiancoding.com/sketch -->
    <title>oman</title>
    <desc>Created with Sketch.</desc>
    <defs></defs>
    <g id="Page-1" stroke="none" stroke-width="1" fill="none" fill-rule="evenodd">
        <g id="flags" transform="translate(-180.000000, -4500.000000)">
            <g id="oman" transform="translate(180.000000, 4500.000000)">
                <ellipse id="white" fill="#FFFFFF" cx="89.9972382" cy="90" rx="89.9972382" ry="90"></ellipse>
                <path d="M60,174.87948 L60,120 L174.873467,120 C162.51875,154.955772 129.182603,180 89.9972382,180 C79.4791862,180 69.3825594,178.19561 60,174.87948 L60,174.87948 Z" id="green" fill="#1AAF5D"></path>
                <path d="M174.873467,60 L60.0027619,60 L60.0027619,5.11954012 C25.2577277,17.3983904 0.304247676,50.4079855 0.00276191524,89.2874328 L0.00276191524,90.7125672 C0.304247676,129.592015 25.2577277,162.60161 60.0027615,174.880456 L60.0027619,120 L174.873467,120 C178.189905,110.616633 179.994476,100.519063 179.994476,90 C179.994476,79.480937 178.189905,69.3833673 174.873463,59.9999996 L174.873467,60 Z" id="red" fill="#E94B35"></path>
                <g id="emblem" transform="translate(24.000000, 26.000000)">
                    <path d="M8.13757952,15.0662802 C8.13757952,14.4477291 7.64067102,13.9538838 7.01025046,13.9538838 L1.6194234,13.9538838 C0.996119431,13.9538838 0.492094341,14.4501766 0.492094341,15.0662802 L0.492094341,17.0768117 C0.492094341,17.6953629 0.989002843,18.1892081 1.6194234,18.1892081 L7.01025046,18.1892081 C7.63355443,18.1892081 8.13757952,17.6929153 8.13757952,17.0768117 L8.13757952,15.0662802 L8.13757952,15.0662802 L8.13757952,15.0662802 Z" id="Shape" fill="#FFFFFF"></path>
                    <path d="M0.796254083,15.0712116 C0.796254083,14.6005418 1.18015173,14.2153116 1.64492214,14.2153116 L7.02664108,14.2153116 C7.49405096,14.2153116 7.87530913,14.6006813 7.87530913,15.0712116 L7.87530913,17.0703172 C7.87530913,17.540987 7.49141149,17.9262172 7.02664108,17.9262172 L1.64492214,17.9262172 C1.17751226,17.9262172 0.796254083,17.5408475 0.796254083,17.0703172 L0.796254083,15.0712116 L0.796254083,15.0712116 L0.796254083,15.0712116 Z M0.706780399,15.0712116 L0.706780399,17.0703172 C0.706780399,17.5900489 1.1278812,18.0156909 1.64492214,18.0156909 L7.02664108,18.0156909 C7.54089598,18.0156909 7.96478282,17.5903326 7.96478282,17.0703172 L7.96478282,15.0712116 C7.96478282,14.5514799 7.54368202,14.1258379 7.02664108,14.1258379 L1.64492214,14.1258379 C1.13066724,14.1258379 0.706780399,14.5511961 0.706780399,15.0712116 L0.706780399,15.0712116 L0.706780399,15.0712116 Z" id="Shape" fill="#DB161B"></path>
                    <polygon id="Shape" stroke="#DB161B" stroke-width="0.1" fill="#FFFFFF" points="4.08468966 15.2081609 4.44677011 15.2198851 4.46318391 15.384023 4.75941379 15.5344828 4.98998851 15.3468966 5.2696092 15.4973563 5.0064023 15.6614943 5.07225287 15.8881609 5.40131034 15.8764368 5.40131034 16.1793103 5.13810345 16.1656322 5.0064023 16.3551724 5.30263218 16.5701149 5.07225287 16.745977 4.82526437 16.5564368 4.46318391 16.6326437 4.4795977 16.9101149 4.08468966 16.9355172 4.03525287 16.6697701 3.7061954 16.5310345 3.52505747 16.7205747 3.24524138 16.5818391 3.40996552 16.3668966 3.21241379 16.2281609 2.9325977 16.2281609 2.91618391 15.8373563 3.196 15.8627586 3.39335632 15.636092 3.16297701 15.4602299 3.4592069 15.2570115 3.67317241 15.4211494 4.03525287 15.3722989 4.08468966 15.2081609"></polygon>
                    <ellipse id="Oval" stroke="#DB161B" stroke-width="0.1" fill="#FFFFFF" cx="4.19423556" cy="16.0269296" rx="0.397645915" ry="0.340432628"></ellipse>
                    <path d="M33.4870587,15.0662802 C33.4870587,14.4477291 32.9901502,13.9538838 32.3597296,13.9538838 L26.9689026,13.9538838 C26.3455986,13.9538838 25.8415735,14.4501766 25.8415735,15.0662802 L25.8415735,17.0768117 C25.8415735,17.6953629 26.338482,18.1892081 26.9689026,18.1892081 L32.3597296,18.1892081 C32.9830336,18.1892081 33.4870587,17.6929153 33.4870587,17.0768117 L33.4870587,15.0662802 L33.4870587,15.0662802 L33.4870587,15.0662802 Z" id="Shape" fill="#FFFFFF"></path>
                    <path d="M33.2932196,15.0712116 C33.2932196,14.5511961 32.8693328,14.1258379 32.3550779,14.1258379 L26.9733589,14.1258379 C26.456318,14.1258379 26.0352172,14.5514799 26.0352172,15.0712116 L26.0352172,17.0703172 C26.0352172,17.5903326 26.459104,18.0156909 26.9733589,18.0156909 L32.3550779,18.0156909 C32.8721188,18.0156909 33.2932196,17.5900489 33.2932196,17.0703172 L33.2932196,15.0712116 L33.2932196,15.0712116 L33.2932196,15.0712116 Z M33.2037459,15.0712116 L33.2037459,17.0703172 C33.2037459,17.5408475 32.8224877,17.9262172 32.3550779,17.9262172 L26.9733589,17.9262172 C26.5085885,17.9262172 26.1246909,17.540987 26.1246909,17.0703172 L26.1246909,15.0712116 C26.1246909,14.6006813 26.505949,14.2153116 26.9733589,14.2153116 L32.3550779,14.2153116 C32.8198483,14.2153116 33.2037459,14.6005418 33.2037459,15.0712116 L33.2037459,15.0712116 L33.2037459,15.0712116 Z" id="Shape" fill="#DB161B"></path>
                    <polygon id="Shape" stroke="#DB161B" stroke-width="0.1" fill="#FFFFFF" transform="translate(29.841253, 16.071839) scale(-1, 1) translate(-29.841253, -16.071839) " points="29.7671956 15.2081609 30.1292761 15.2198851 30.1456899 15.384023 30.4419197 15.5344828 30.6724945 15.3468966 30.9521151 15.4973563 30.6889082 15.6614943 30.7547588 15.8881609 31.0838163 15.8764368 31.0838163 16.1793103 30.8206094 16.1656322 30.6889082 16.3551724 30.9851381 16.5701149 30.7547588 16.745977 30.5077703 16.5564368 30.1456899 16.6326437 30.1621036 16.9101149 29.7671956 16.9355172 29.7177588 16.6697701 29.3887013 16.5310345 29.2075634 16.7205747 28.9277473 16.5818391 29.0924715 16.3668966 28.8949197 16.2281609 28.6151036 16.2281609 28.5986899 15.8373563 28.8785059 15.8627586 29.0758623 15.636092 28.845483 15.4602299 29.1417128 15.2570115 29.3556784 15.4211494 29.7177588 15.3722989 29.7671956 15.2081609"></polygon>
                    <ellipse id="Oval" stroke="#DB161B" stroke-width="0.1" fill="#FFFFFF" transform="translate(29.805764, 16.026930) scale(-1, 1) translate(-29.805764, -16.026930) " cx="29.8057636" cy="16.0269296" rx="0.397645915" ry="0.340432628"></ellipse>
                    <path d="M12.41,22.6901149 C3.00841379,31.8837931 -1.00202299,33.0464368 0.880091954,33.7870115 C2.7622069,34.5275862 8.81655172,29.7832184 15.1163218,23.4795402 C21.416092,17.1778161 25.2733333,11.5685977 23.3916092,10.8278276 C21.5098851,10.0868621 22.4087356,12.9112069 12.41,22.6901149 L12.41,22.6901149 L12.41,22.6901149 Z" id="Shape" stroke="#DB161B" stroke-width="0.1" fill="#FFFFFF"></path>
                    <path d="M4.49581609,29.3709195 L7.78873563,30.2345977 C4.68945977,33.1714943 1.20211494,34.3810345 0.233505747,33.8632184 C-0.735298851,33.3454023 1.97708046,32.1358621 4.49581609,29.3709195 L4.49581609,29.3709195 L4.49581609,29.3709195 Z" id="Shape" stroke="#DB161B" stroke-width="0.1" fill="#FFFFFF"></path>
                    <path d="M4.49581609,29.7167816 L7.2081954,30.4085057 C4.18864368,33.232069 1.20211494,34.0351724 0.429298851,33.6912644 C-0.347816092,33.3454023 2.04234483,32.3742529 4.49581609,29.7167816 L4.49581609,29.7167816 L4.49581609,29.7167816 Z" id="Shape" stroke="#DB161B" stroke-width="0.1" fill="#FFFFFF"></path>
                    <path d="M23.1375862,14.3933333 C27.3094253,7.1911954 30.0782759,1.0625977 29.3162069,0.712436782 C28.556092,0.362471264 24.5542529,5.92283908 20.3824138,13.124 L23.1375862,14.3933333 L23.1375862,14.3933333 L23.1375862,14.3933333 Z" id="Shape" stroke="#DB161B" stroke-width="0.1" fill="#FFFFFF"></path>
                    <path d="M22.862069,14.2663218 C26.8854023,7.3184023 29.6581609,1.45301149 29.0504598,1.173 C28.4427586,0.892988506 24.6832184,6.30387356 20.657931,13.2508161" id="Shape" stroke="#DB161B" stroke-width="0.1" fill="#FFFFFF"></path>
                    <path d="M28.3963302,1.92992654 C28.2234911,1.97282567 28.114405,2.12874734 28.1526797,2.27818735 C28.1909543,2.42762737 28.3620958,2.51399582 28.5349349,2.47109669 C28.707774,2.42819757 28.8168601,2.27227589 28.7785854,2.12283588 C28.7403108,1.97339587 28.5691693,1.88702741 28.3963302,1.92992654 L28.3963302,1.92992654 L28.3963302,1.92992654 Z" id="Oval" stroke="#DB161B" stroke-width="0.1" fill="#DB161B"></path>
                    <path d="M22.112828,22.6901149 C12.7112418,31.8837931 8.70080502,33.0464368 10.58292,33.7870115 C12.4650349,34.5275862 18.5193797,29.7832184 24.8191499,23.4795402 C31.11892,17.1778161 34.9761613,11.5685977 33.0944372,10.8278276 C31.2127131,10.0868621 32.1115636,12.9112069 22.112828,22.6901149 L22.112828,22.6901149 L22.112828,22.6901149 Z" id="Shape" stroke="#DB161B" stroke-width="0.1" fill="#FFFFFF" transform="translate(21.851414, 22.289570) scale(-1, 1) translate(-21.851414, -22.289570) "></path>
                    <path d="M30.6746982,29.3709195 L33.9676177,30.2345977 C30.8683418,33.1714943 27.380997,34.3810345 26.4123878,33.8632184 C25.4435832,33.3454023 28.1559625,32.1358621 30.6746982,29.3709195 L30.6746982,29.3709195 L30.6746982,29.3709195 Z" id="Shape" stroke="#DB161B" stroke-width="0.1" fill="#FFFFFF" transform="translate(30.089441, 31.675279) scale(-1, 1) translate(-30.089441, -31.675279) "></path>
                    <path d="M31.0076461,29.7167816 L33.7200254,30.4085057 C30.7004737,33.232069 27.713945,34.0351724 26.9411289,33.6912644 C26.1640139,33.3454023 28.5541749,32.3742529 31.0076461,29.7167816 L31.0076461,29.7167816 L31.0076461,29.7167816 Z" id="Shape" stroke="#DB161B" stroke-width="0.1" fill="#FFFFFF" transform="translate(30.255915, 31.741333) scale(-1, 1) translate(-30.255915, -31.741333) "></path>
                    <path d="M7.31279624,14.3933333 C11.4846353,7.1911954 14.2534859,1.0625977 13.4914169,0.712436782 C12.731302,0.362471264 8.72946291,5.92283908 4.55762383,13.124 L7.31279624,14.3933333 L7.31279624,14.3933333 L7.31279624,14.3933333 Z" id="Shape" stroke="#DB161B" stroke-width="0.1" fill="#FFFFFF" transform="translate(9.087605, 7.545058) scale(-1, 1) translate(-9.087605, -7.545058) "></path>
                    <path d="M7.07012699,14.2663218 C11.0934603,7.3184023 13.8662189,1.45301149 13.2585178,1.173 C12.6508167,0.892988506 8.89127641,6.30387356 4.86598905,13.2508161" id="Shape" stroke="#DB161B" stroke-width="0.1" fill="#FFFFFF" transform="translate(9.104029, 7.714463) scale(-1, 1) translate(-9.104029, -7.714463) "></path>
                    <path d="M5.46506419,1.92992654 C5.29222509,1.97282567 5.18313903,2.12874734 5.22141367,2.27818735 C5.25968831,2.42762737 5.43082981,2.51399582 5.60366891,2.47109669 C5.77650802,2.42819757 5.88559407,2.27227589 5.84731944,2.12283588 C5.8090448,1.97339587 5.6379033,1.88702741 5.46506419,1.92992654 L5.46506419,1.92992654 L5.46506419,1.92992654 Z" id="Oval" stroke="#DB161B" stroke-width="0.1" fill="#DB161B" transform="translate(5.534367, 2.200512) scale(-1, 1) translate(-5.534367, -2.200512) "></path>
                    <path d="M14.1197701,10.5435172 C14.1197701,16.5896552 14.1549425,18.868046 13.7094253,19.1806897 C13.2873563,19.5148276 1.52648276,19.1806897 1.52648276,20.908046 C1.52648276,22.6354023 11.2141379,24.3627586 14.1197701,24.3627586 C17.9945977,24.3627586 19.9329885,22.6354023 19.9329885,19.1806897 L19.9329885,10.5435172 L14.1197701,10.5435172 L14.1197701,10.5435172 L14.1197701,10.5435172 Z" id="Shape" stroke="#DB161B" stroke-width="0.1" fill="#FFFFFF"></path>
                    <path d="M13.7328736,19.1806897 L12.7636782,19.1806897 C12.4412644,20.908046 12.4412644,22.6354023 12.7636782,24.3627586 L13.7328736,24.3627586 C13.4085057,22.6354023 13.4085057,20.908046 13.7328736,19.1806897 L13.7328736,19.1806897 L13.7328736,19.1806897 Z" id="Shape" stroke="#DB161B" stroke-width="0.1" fill="#FFFFFF"></path>
                    <path d="M5.7887931,19.5265517 L4.62634483,19.6985057 C4.36802299,20.7927586 4.36802299,21.7131034 4.62634483,22.8073563 L5.7887931,23.1532184 C5.53047126,22.0589655 5.53047126,20.6208046 5.7887931,19.5265517 L5.7887931,19.5265517 L5.7887931,19.5265517 Z" id="Shape" stroke="#DB161B" stroke-width="0.1" fill="#FFFFFF"></path>
                    <path d="M19.9251724,10.8889885 L19.9251724,10.0180805 C19.0556322,10.0253103 18.4733333,9.50710345 18.4733333,8.98147126 L15.5716092,8.98870115 C15.5716092,9.50710345 14.9912644,10.0253103 14.1197701,10.0253103 L14.1197701,10.8889885 L19.9251724,10.8889885 L19.9251724,10.8889885 L19.9251724,10.8889885 Z" id="Shape" stroke="#DB161B" stroke-width="0.1" fill="#FFFFFF"></path>
                    <rect id="Rectangle-path" stroke="#DB161B" stroke-width="0.1" fill="#FFFFFF" x="15.7787356" y="7.95228736" width="2.48825287" height="1.03643333"></rect>
                    <rect id="Rectangle-path" stroke="#DB161B" stroke-width="0.1" fill="#FFFFFF" x="15.9858621" y="6.91587356" width="2.0736092" height="1.03645287"></rect>
                    <rect id="Rectangle-path" stroke="#DB161B" stroke-width="0.1" fill="#FFFFFF" x="15.9858621" y="5.87945977" width="2.0736092" height="1.03645287"></rect>
                    <rect id="Rectangle-path" stroke="#DB161B" stroke-width="0.1" fill="#FFFFFF" x="16.1929885" y="4.49757471" width="1.65882874" height="1.38192414"></rect>
                    <rect id="Rectangle-path" stroke="#DB161B" stroke-width="0.1" fill="#FFFFFF" x="16.1226437" y="3.28842529" width="1.80182414" height="1.20918851"></rect>
                    <ellipse id="Oval" stroke="#DB161B" stroke-width="0.1" fill="#FFFFFF" cx="17.1227992" cy="2.16550735" rx="2.40245263" ry="1.64101786"></ellipse>
                    <path d="M18.3248276,2.07908046 C18.3248276,2.53221839 18.9247126,3.28842529 18.9247126,3.28842529 C18.4889655,3.58543678 17.7855172,3.80663218 17.1231034,3.80663218 C16.4606897,3.80663218 15.6341379,3.68333333 15.3214943,3.28842529 C15.3214943,3.28842529 15.9213793,2.53221839 15.9213793,2.07908046 C15.9213793,1.62613793 15.3214943,1.04266667 15.3214943,1.04266667 C15.7552874,0.745655172 16.4606897,0.52445977 17.1231034,0.52445977 C17.7855172,0.52445977 18.4889655,0.745655172 18.9247126,1.04266667 C18.9247126,1.04266667 18.3248276,1.62613793 18.3248276,2.07908046 L18.3248276,2.07908046 L18.3248276,2.07908046 Z" id="Shape" stroke="#DB161B" stroke-width="0.1" fill="#FFFFFF"></path>
                    <path d="M17.9242529,2.07908046 C17.9242529,2.53221839 18.5241379,3.46116092 18.5241379,3.46116092 C18.0903448,3.75817241 17.7855172,3.80663218 17.1231034,3.80663218 C16.4606897,3.80663218 16.0347126,3.85606897 15.722069,3.46116092 C15.722069,3.46116092 16.321954,2.53221839 16.321954,2.07908046 C16.321954,1.62613793 15.722069,0.869931034 15.722069,0.869931034 C16.1558621,0.57291954 16.4606897,0.52445977 17.1231034,0.52445977 C17.7855172,0.52445977 18.0903448,0.57291954 18.5241379,0.869931034 C18.5241379,0.869931034 17.9242529,1.62613793 17.9242529,2.07908046 L17.9242529,2.07908046 L17.9242529,2.07908046 Z" id="Shape" stroke="#DB161B" stroke-width="0.1" fill="#FFFFFF"></path>
                    <ellipse id="Oval" stroke="#DB161B" stroke-width="0.1" fill="#FFFFFF" cx="14.7203466" cy="2.25212283" rx="0.600613157" ry="0.518226429"></ellipse>
                    <ellipse id="Oval" stroke="#DB161B" stroke-width="0.1" fill="#FFFFFF" cx="19.5252137" cy="2.25212283" rx="0.600613157" ry="0.518226429"></ellipse>
                    <ellipse id="Oval" stroke="#DB161B" stroke-width="0.1" fill="#FFFFFF" cx="17.1227754" cy="2.25212283" rx="0.600613157" ry="0.518226429"></ellipse>
                    <ellipse id="Oval" stroke="#DB161B" stroke-width="0.1" fill="#FFFFFF" cx="17.1227754" cy="0.524715704" rx="0.600613157" ry="0.518226429"></ellipse>
                    <ellipse id="Oval" stroke="#DB161B" stroke-width="0.1" fill="#FFFFFF" cx="15.3638461" cy="10.3709457" rx="0.622062603" ry="0.518226429"></ellipse>
                    <ellipse id="Oval" stroke="#DB161B" stroke-width="0.1" fill="#FFFFFF" cx="18.6814858" cy="10.3709457" rx="0.622062603" ry="0.518226429"></ellipse>
                    <polygon id="Shape" stroke="#DB161B" stroke-width="0.1" fill="#FFFFFF" points="15.5716092 8.98870115 18.4733333 8.98870115 17.0234483 10.5435172 15.5716092 8.98870115"></polygon>
                    <ellipse id="Oval" stroke="#DB161B" stroke-width="0.1" fill="#FFFFFF" cx="17.02264" cy="10.1982832" rx="0.829417565" ry="0.690969403"></ellipse>
                    <rect id="Rectangle-path" stroke="#DB161B" stroke-width="0.1" fill="#FFFFFF" x="13.8286207" y="15.382069" width="4.45614943" height="1.03645287" rx="0.518226435"></rect>
                    <path d="M19.6418391,14.5183908 C19.1044828,14.5183908 18.6726437,14.9209195 18.6726437,15.4211494 L18.6726437,16.2066667 C18.6726437,16.7068966 19.1044828,17.1094253 19.6418391,17.1094253 C20.1791954,17.1094253 20.6110345,16.7068966 20.6110345,16.2066667 L20.6110345,15.4211494 C20.6110345,14.9209195 20.1791954,14.5183908 19.6418391,14.5183908 L19.6418391,14.5183908 L19.6418391,14.5183908 Z M19.6418391,14.8642529 C19.3194253,14.8642529 19.0595402,15.1866667 19.0595402,15.5872414 L19.0595402,16.0425287 C19.0595402,16.4431034 19.3194253,16.7635632 19.6418391,16.7635632 C19.9642529,16.7635632 20.2221839,16.4431034 20.2221839,16.0425287 L20.2221839,15.5872414 C20.2221839,15.1866667 19.9642529,14.8642529 19.6418391,14.8642529 L19.6418391,14.8642529 L19.6418391,14.8642529 Z" id="Shape" stroke="#DB161B" stroke-width="0.1" fill="#FFFFFF"></path>
                    <path d="M14.6043678,14.6922989 C14.281954,14.6922989 14.024023,15.0127586 14.024023,15.4133333 L14.024023,16.2144828 C14.024023,16.6150575 14.281954,16.9374713 14.6043678,16.9374713 C14.9267816,16.9374713 15.1847126,16.6150575 15.1847126,16.2144828 L15.1847126,15.4133333 C15.1847126,15.0127586 14.9267816,14.6922989 14.6043678,14.6922989 L14.6043678,14.6922989 L14.6043678,14.6922989 Z M14.6043678,14.3464368 C14.0670115,14.3464368 13.6351724,14.7489655 13.6351724,15.2491954 L13.6351724,16.3805747 C13.6351724,16.8808046 14.0670115,17.2833333 14.6043678,17.2833333 C15.1417241,17.2833333 15.5735632,16.8808046 15.5735632,16.3805747 L15.5735632,15.2491954 C15.5735632,14.7489655 15.1417241,14.3464368 14.6043678,14.3464368 L14.6043678,14.3464368 L14.6043678,14.3464368 Z" id="Shape" stroke="#DB161B" stroke-width="0.1" fill="#FFFFFF"></path>
                    <path d="M13.0548276,15.0362069 C12.7324138,15.0362069 12.4725287,15.3586207 12.4725287,15.7591954 L12.4725287,15.9467816 C12.4725287,16.3473563 12.7324138,16.6697701 13.0548276,16.6697701 C13.3772414,16.6697701 13.6351724,16.3473563 13.6351724,15.9467816 L13.6351724,15.7591954 C13.6351724,15.3586207 13.3772414,15.0362069 13.0548276,15.0362069 L13.0548276,15.0362069 L13.0548276,15.0362069 Z M13.0548276,14.6922989 C12.5174713,14.6922989 12.0856322,15.0948276 12.0856322,15.5950575 L12.0856322,16.1128736 C12.0856322,16.6131034 12.5174713,17.0156322 13.0548276,17.0156322 C13.5902299,17.0156322 14.024023,16.6131034 14.024023,16.1128736 L14.024023,15.5950575 C14.024023,15.0948276 13.5902299,14.6922989 13.0548276,14.6922989 L13.0548276,14.6922989 L13.0548276,14.6922989 Z" id="Shape" stroke="#DB161B" stroke-width="0.1" fill="#FFFFFF"></path>
                    <path d="M10.7295402,14.5594253 C10.1491954,14.5594253 9.68413793,14.9189655 9.68413793,15.3664368 L9.68413793,16.2613793 C9.68413793,16.7088506 10.1491954,17.0683908 10.7295402,17.0683908 C11.3098851,17.0683908 11.7749425,16.7088506 11.7749425,16.2613793 L11.7749425,15.3664368 C11.7749425,14.9189655 11.3098851,14.5594253 10.7295402,14.5594253 L10.7295402,14.5594253 L10.7295402,14.5594253 Z M10.7295402,14.1725287 C9.76425287,14.1725287 8.98655172,14.623908 8.98655172,15.1827586 L8.98655172,16.4470115 C8.98655172,17.0058621 9.76425287,17.4552874 10.7295402,17.4552874 C11.6948276,17.4552874 12.4725287,17.0058621 12.4725287,16.4470115 L12.4725287,15.1827586 C12.4725287,14.623908 11.6948276,14.1725287 10.7295402,14.1725287 L10.7295402,14.1725287 L10.7295402,14.1725287 Z" id="Shape" stroke="#DB161B" stroke-width="0.1" fill="#FFFFFF"></path>
                    <path d="M23.3232184,14.7313793 C22.7428736,14.7313793 22.2758621,15.0928736 22.2758621,15.5403448 L22.2758621,16.4352874 C22.2758621,16.8827586 22.7428736,17.2422989 23.3232184,17.2422989 C23.9016092,17.2422989 24.3686207,16.8827586 24.3686207,16.4352874 L24.3686207,15.5403448 C24.3686207,15.0928736 23.9016092,14.7313793 23.3232184,14.7313793 L23.3232184,14.7313793 L23.3232184,14.7313793 Z M23.3232184,14.3464368 C22.355977,14.3464368 21.5782759,14.7958621 21.5782759,15.3547126 L21.5782759,16.6189655 C21.5782759,17.1778161 22.355977,17.6272414 23.3232184,17.6272414 C24.2885057,17.6272414 25.0662069,17.1778161 25.0662069,16.6189655 L25.0662069,15.3547126 C25.0662069,14.7958621 24.2885057,14.3464368 23.3232184,14.3464368 L23.3232184,14.3464368 L23.3232184,14.3464368 Z" id="Shape" stroke="#DB161B" stroke-width="0.1" fill="#FFFFFF"></path>
                    <rect id="Rectangle-path" stroke="#DB161B" stroke-width="0.1" fill="#FFFFFF" x="20.0287356" y="15.382069" width="2.32489655" height="1.03645287" rx="0.518226435"></rect>
                    <rect id="Rectangle-path" stroke="#DB161B" stroke-width="0.1" fill="#FFFFFF" x="17.8988506" y="15.2101149" width="1.3562092" height="1.38192414" rx="0.3767"></rect>
                    <rect id="Rectangle-path" stroke="#DB161B" stroke-width="0.1" fill="#FFFFFF" x="11.5052874" y="15.2101149" width="1.3562092" height="1.38192414" rx="0.3767"></rect>
                    <rect id="Rectangle-path" stroke="#DB161B" stroke-width="0.1" fill="#FFFFFF" x="7.2416092" y="15.0362069" width="2.71237931" height="1.72741494" rx="0.7534"></rect>
                    <rect id="Rectangle-path" stroke="#DB161B" stroke-width="0.1" fill="#FFFFFF" x="24.0970115" y="15.2101149" width="2.51873563" height="1.72741494" rx="0.69959"></rect>
                </g>
            </g>
        </g>
    </g>
</svg>