<?xml version="1.0" encoding="UTF-8" standalone="no"?>
<svg width="180px" height="180px" viewBox="0 0 180 180" version="1.1" xmlns="http://www.w3.org/2000/svg" xmlns:xlink="http://www.w3.org/1999/xlink">
    <!-- Generator: Sketch 3.8.3 (29802) - http://www.bohemiancoding.com/sketch -->
    <title>pakistan</title>
    <desc>Created with Sketch.</desc>
    <defs></defs>
    <g id="Page-1" stroke="none" stroke-width="1" fill="none" fill-rule="evenodd">
        <g id="flags" transform="translate(-450.000000, -4500.000000)">
            <g id="pakistan" transform="translate(450.000000, 4500.000000)">
                <path d="M44.9999749,12.0404109 C18.0989265,27.6018377 0,56.6873022 0,90 C0,123.312698 18.0989265,152.398162 44.9999749,167.959589 L45,12.0403964 L45,12.0403964 L44.9999749,12.0404109 L44.9999749,12.0404109 L44.9999749,12.0404109 Z" id="white" fill="#FFFFFF"></path>
                <path d="M44.9999749,12.0404109 C58.2377819,4.38274789 73.6070678,0 90,0 C139.70563,0 180,40.2943701 180,90 C180,139.70563 139.70563,180 90,180 C73.6070678,180 58.2377819,175.617252 44.9999749,167.959589 L45,12.0403964 L45,12.0403964 L44.9999749,12.0404109 L44.9999749,12.0404109 L44.9999749,12.0404109 Z" id="green" fill="#1AAF5D"></path>
                <path d="M146.507838,117.604945 C137.824933,127.067888 125.355226,133 111.5,133 C85.2664731,133 64,111.733527 64,85.5 C64,67.2084076 74.3391571,51.3316562 89.4921616,43.3950555 C81.7348275,51.8492775 77,63.1216993 77,75.5 C77,101.733527 98.2664731,123 124.5,123 C132.441935,123 139.928632,121.050897 146.507838,117.604945 C146.507838,117.604945 139.928632,121.050897 146.507838,117.604945 L146.507838,117.604945 Z M133.539002,69.2082399 L123.935372,74.4014235 L125.769501,63.4020851 L118,55.6123106 L128.737188,54.0075273 L133.539003,44 L138.34082,54.0075298 L149.078008,55.6123186 L141.308503,63.4020872 L143.142633,74.4014237 L133.539002,69.2082399 L133.539002,69.2082399 Z" id="moon" fill="#FFFFFF"></path>
            </g>
        </g>
    </g>
</svg>