<?xml version="1.0" encoding="UTF-8" standalone="no"?>
<svg width="180px" height="180px" viewBox="0 0 180 180" version="1.1" xmlns="http://www.w3.org/2000/svg" xmlns:xlink="http://www.w3.org/1999/xlink">
    <!-- Generator: Sketch 3.8.3 (29802) - http://www.bohemiancoding.com/sketch -->
    <title>palestine</title>
    <desc>Created with Sketch.</desc>
    <defs></defs>
    <g id="Page-1" stroke="none" stroke-width="1" fill="none" fill-rule="evenodd">
        <g id="flags" transform="translate(-990.000000, -4500.000000)">
            <g id="palestine" transform="translate(990.000000, 4500.000000)">
                <ellipse id="white" fill="#FFFFFF" cx="89.9972382" cy="90" rx="89.9972382" ry="90"></ellipse>
                <path d="M174.873467,120 L37.5,120 L14.2400103,138.605251 C30.2480388,163.50565 58.1964656,180 89.9972382,180 C129.182603,180 162.51875,154.955772 174.873463,120 L174.873467,120 Z" id="green" fill="#479951"></path>
                <path d="M174.873467,60 L37.5,60 L14.2405922,41.3938442 C30.2487161,16.4939502 58.1968509,0 89.9972382,0 C129.182603,0 162.51875,25.0442275 174.873463,59.9999996 L174.873467,60 Z" id="black" fill="#262626"></path>
                <path d="M24.0045575,28.805469 L75,90 L24.0045575,151.194531 C9.10778356,135.136254 0,113.631779 0,90 C0,66.3682213 9.10778356,44.8637459 24.0045575,28.805469 L24.0045575,28.805469 Z" id="red" fill="#E94B35"></path>
            </g>
        </g>
    </g>
</svg>