<?xml version="1.0" encoding="UTF-8" standalone="no"?>
<svg width="180px" height="180px" viewBox="0 0 180 180" version="1.1" xmlns="http://www.w3.org/2000/svg" xmlns:xlink="http://www.w3.org/1999/xlink">
    <!-- Generator: Sketch 3.8.3 (29802) - http://www.bohemiancoding.com/sketch -->
    <title>papua_new_guinea</title>
    <desc>Created with Sketch.</desc>
    <defs></defs>
    <g id="Page-1" stroke="none" stroke-width="1" fill="none" fill-rule="evenodd">
        <g id="flags" transform="translate(-1530.000000, -4500.000000)">
            <g id="papua_new_guinea" transform="translate(1530.000000, 4500.000000)">
                <path d="M127.206184,26.5651228 C143.486828,42.8165857 153.558933,65.2821404 153.558933,90.0994277 C153.558933,139.685859 113.34863,179.8836 63.7467022,179.8836 C38.9317525,179.8836 16.4673579,169.822828 0.212374,153.558932 L127.206184,26.5651228 L127.206184,26.5651228 Z" id="black" fill="#000000" transform="translate(76.885653, 103.224361) scale(-1, 1) translate(-76.885653, -103.224361) "></path>
                <path d="M179.836835,26.5651228 C163.587774,10.345186 141.154239,0.315255043 116.377353,0.315255043 C66.7754256,0.315255043 26.565123,40.5129959 26.565123,90.0994277 C26.565123,114.878662 36.606364,137.31337 52.843025,153.558932 L179.836835,26.5651228 L179.836835,26.5651228 Z" id="red" fill="#E94B35" transform="translate(103.200979, 76.937094) scale(-1, 1) translate(-103.200979, -76.937094) "></path>
                <path d="M127.708506,64.1856855 C127.623092,64.6235952 127.458975,64.9213629 127.149776,64.9213629 C126.011539,64.9213629 121.459219,61.6106413 121.045458,62.1277669 C120.631694,62.6448926 122.700817,66.9904864 122.287056,67.1975244 C121.873292,67.4045594 120.52802,66.0592877 120.52802,67.1975244 C120.52802,68.3357581 124.873614,73.1987895 125.391052,74.0263147 C124.977288,74.5437492 124.459853,73.8195886 123.321616,73.9229501 C123.011217,74.7507872 127.97761,80.8551049 127.563849,80.9587784 C127.150084,81.0624518 124.976979,80.0275797 124.35618,79.9242151 C124.459541,80.7517403 125.804813,82.3037381 126.425612,84.0627739 C117.113625,81.2691779 112.35427,75.1645483 110.698599,73.6125505 C109.870762,73.6125505 110.905634,76.095747 110.284835,76.095747 C109.664036,76.095747 106.973804,73.8195886 105.52548,72.2675908 C105.008354,72.1642262 105.83588,74.5437492 105.215081,75.6819859 C104.697955,75.6819859 99.834615,71.6471005 96.6272544,68.129032 C93.4198974,64.6109634 94.0406965,57.9892112 93.7302969,58.6100103 C93.4198974,59.2308094 90.5226279,63.1623302 89.3847031,63.9901643 C88.970939,63.9901643 90.0055022,59.3341709 89.0743036,59.7479351 C88.1431049,60.1616962 85.2458354,63.4727298 84.3146368,64.0935289 C83.7971992,63.7831293 85.3495089,59.9546612 84.3146368,60.3687342 C83.2797647,60.7828072 80.1760779,64.4039284 79.6586434,64.3005638 C78.9344797,63.1626391 80.2794425,61.4036063 80.0727164,60.4724077 C78.8311182,60.9895333 76.9687209,63.4727298 76.5546479,63.0589656 C76.2442483,61.8173674 77.175447,60.9898422 76.8650474,60.1620081 C75.7268107,60.2653696 72.416089,63.1623302 72.1056895,62.7485661 C71.7952899,62.334805 73.0368881,60.8861687 72.9335266,59.6445705 C71.8989634,60.2653696 69.1050585,63.7831293 69.0016939,62.8519307 C68.8983324,61.920732 73.5543257,53.2298533 75.0026501,51.574182 C76.4509744,49.9185108 79.969043,45.0554825 84.9354359,45.1591559 C89.9018288,45.2628294 94.0475253,49.8018006 95.7994204,47.5389878 C98.282617,44.3316307 95.7994204,47.5389878 95.7994204,47.5389878 C98.282617,44.3316307 90.5226279,42.0551604 89.6951027,41.5380347 C88.8675775,41.0209091 88.763904,40.1930719 87.6256673,39.5722728 C86.4874337,38.9514737 81.4176762,37.0890763 81.7280757,36.7786768 C82.0384753,36.4682772 86.9015067,37.5028405 88.1431049,37.3994759 C89.3847031,37.2961144 92.6954248,36.0545161 94.144058,36.4682772 C95.5926943,36.8820414 95.7994204,37.6065139 96.8342925,38.6410741 C97.869165,39.6756374 100.972848,41.7450697 102.317811,41.7450697 C103.662771,41.7450697 104.180208,39.7789989 104.594281,37.81324 C105.008354,35.8474781 102.524846,31.1914848 105.732206,25.3972612 C108.939563,19.6030327 117.631063,14.4299136 118.251862,15.0507128 C118.872661,15.6715119 115.664992,20.1207791 116.182426,20.2241422 C117.010264,20.0174161 117.838098,19.8103796 118.044824,20.1207791 C118.303697,20.8449413 116.803226,23.3281377 117.21699,23.0177382 C117.630751,22.7073386 119.33826,22.8625384 119.49346,23.3281377 C119.700495,24.1556629 117.372498,26.069897 117.527389,26.8458971 C118.148188,27.0526202 119.286422,26.7422237 119.907221,27.5700578 C119.80386,28.5012564 117.21699,29.7428516 117.320663,30.1566126 C117.424337,30.5703768 119.027861,31.3463757 118.976022,31.7086104 C118.821135,33.1054084 114.112994,36.3646038 114.630429,36.778056 C123.528654,31.397902 133.46144,36.778056 132.736968,36.6746945 C132.322895,36.778056 128.080974,38.4337272 129.426246,38.4337272 C130.771518,38.4337272 138.738233,44.8487564 138.01376,44.8487564 C137.289287,44.8487564 134.8064,45.3661909 136.151363,45.3661909 C137.496322,45.3661909 143.807987,55.1956152 143.187188,54.9885771 C142.566389,54.7815422 140.703991,53.954017 141.63519,54.5748161 C142.566389,55.1956152 145.670384,63.9901643 144.739186,63.6797647 C143.807987,63.3693652 140.083192,59.8512966 140.393592,60.9895333 C140.703991,62.1277669 142.048954,64.7149488 140.911029,64.3008758 C139.773105,63.8868028 138.427833,61.9210408 138.944959,63.4730386 C139.462084,65.0250364 142.876788,66.4736727 143.600952,76.8202195 C143.619299,77.0823594 143.633064,77.3405143 143.642381,77.5947415 C146.2058,81.4114606 148,85.5816219 148,89.7517832 C148,105.271761 133.100821,105.89256 129.168992,102.581838 C132.686748,102.995911 144.896004,103.409364 144.896004,89.7517832 C144.896004,87.1334083 144.279933,84.6063033 143.266514,82.2142128 C141.854673,88.6855055 136.876321,91.5892094 132.633603,92.7539615 C127.356811,94.2025947 122.493782,90.1674005 121.976657,89.3395664 C131.081917,92.6505969 137.289596,88.6154027 140.393592,81.0621399 C140.704709,80.0043422 140.89421,78.9621363 140.983036,77.9428151 C137.014652,71.7759239 131.002285,66.8727092 127.708506,64.1856855 C127.708506,64.1856855 131.002285,66.8727092 127.708506,64.1856855 L127.708506,64.1856855 L127.708506,64.1856855 L127.708506,64.1856855 Z M127.788649,62.130475 C127.778646,61.3828114 127.781992,60.757404 127.97761,60.6791338 C128.495047,60.4720957 132.323515,62.8519307 133.151041,62.8519307 C133.978566,62.8519307 133.875201,61.0928948 134.185601,61.2999329 C134.421961,61.4575841 139.697809,66.7146574 140.830733,73.8733431 C136.227078,68.3793578 130.601093,64.024162 127.788649,62.130475 C127.788649,62.130475 130.601093,64.024162 127.788649,62.130475 L127.788649,62.130475 L127.788649,62.130475 L127.788649,62.130475 Z" id="bird" fill="#F2C500"></path>
                <path d="M70.5,97 L72.4081725,103.580586 L79,103.580586 L73.7956866,107.602411 L75.7040863,114 L70.5,109.978404 L65.2959137,113.817003 L67.2040863,107.602411 L62,103.580586 L68.4182746,103.580586 L70.5,97 L70.5,97 Z M51.5,133 L53.4081725,139.580586 L60,139.580586 L54.7956866,143.602411 L56.7040863,150 L51.5,145.978404 L46.2959137,149.817003 L48.2040863,143.602411 L43,139.580586 L49.4182746,139.580586 L51.5,133 L51.5,133 Z M60,120 L60.8979635,123.096746 L64,123.096746 L61.5509113,124.98937 L62.4489818,128 L60,126.107484 L57.5510182,127.913884 L58.4489818,124.98937 L56,123.096746 L59.0203645,123.096746 L60,120 L60,120 Z M51.5,74 L53.4081725,80.5805863 L60,80.5805863 L54.7956866,84.6024106 L56.7040863,91 L51.5,86.9784038 L46.2959137,90.8170031 L48.2040863,84.6024106 L43,80.5805863 L49.4182746,80.5805863 L51.5,74 L51.5,74 Z M31.5,99 L33.4081725,105.580586 L40,105.580586 L34.7956866,109.602411 L36.7040863,116 L31.5,111.978404 L26.2959137,115.817003 L28.2040863,109.602411 L23,105.580586 L29.4182746,105.580586 L31.5,99 L31.5,99 Z" id="stars" fill="#FFFFFF"></path>
            </g>
        </g>
    </g>
</svg>