<?xml version="1.0" encoding="UTF-8" standalone="no"?>
<svg width="180px" height="180px" viewBox="0 0 180 180" version="1.1" xmlns="http://www.w3.org/2000/svg" xmlns:xlink="http://www.w3.org/1999/xlink">
    <!-- Generator: Sketch 3.8.3 (29802) - http://www.bohemiancoding.com/sketch -->
    <title>paraguay</title>
    <desc>Created with Sketch.</desc>
    <defs></defs>
    <g id="Page-1" stroke="none" stroke-width="1" fill="none" fill-rule="evenodd">
        <g id="flags" transform="translate(-1800.000000, -4500.000000)">
            <g id="paraguay" transform="translate(1800.000000, 4500.000000)">
                <path d="M174.873467,120 L5.12100983,120 C17.475726,154.955772 50.8118738,180 89.9972382,180 C129.182603,180 162.51875,154.955772 174.873463,120 L174.873467,120 L174.873467,120 Z" id="blue" fill="#227FBB"></path>
                <path d="M5.12100983,120 L174.873467,120 C178.189905,110.616633 179.994476,100.519063 179.994476,90.0000004 C179.994476,79.4809374 178.189905,69.3833677 174.873463,60 L5.12100983,60.0000004 C1.80457108,69.3833677 0,79.4809374 0,90.0000004 C0,100.519063 1.80457108,110.616633 5.12101363,120 L5.12100983,120 L5.12100983,120 Z" id="white" fill="#FFFFFF"></path>
                <path d="M174.873467,60 C162.51875,25.0442275 129.182603,0 89.9972382,0 C50.8118738,0 17.475726,25.0442275 5.12101363,59.9999996 L174.873467,60 Z" id="red" fill="#E94B35"></path>
                <g id="emblem" transform="translate(61.000000, 61.000000)">
                    <g id="circle">
                        <path d="M29,57.8232517 C44.9186424,57.8232517 57.8232517,44.9186424 57.8232517,29 C57.8232517,13.0813576 44.9186424,0.176748256 29,0.176748256 C13.0813576,0.176748256 0.176748256,13.0813576 0.176748256,29 C0.176748256,44.9186424 13.0813576,57.8232517 29,57.8232517 L29,57.8232517 L29,57.8232517 Z" id="Shape" fill="#000000"></path>
                        <path d="M29,57.0976785 C13.4820807,57.0976785 0.902321512,44.5179193 0.902321512,29 C0.902321512,13.4820807 13.4820807,0.902321512 29,0.902321512 C44.5179193,0.902321512 57.0976785,13.4820807 57.0976785,29 C57.0976785,44.5179193 44.5179193,57.0976785 29,57.0976785 L29,57.0976785 L29,57.0976785 Z" id="Path" fill="#FFFFFF"></path>
                        <path d="M29,52.5433297 C42.0026219,52.5433297 52.5433297,42.0026219 52.5433297,29 C52.5433297,15.9973781 42.0026219,5.45667035 29,5.45667035 C15.9973781,5.45667035 5.45667035,15.9973781 5.45667035,29 C5.45667035,42.0026219 15.9973781,52.5433297 29,52.5433297 L29,52.5433297 L29,52.5433297 Z" id="Shape" fill="#000000"></path>
                        <path d="M29,52.2208564 C16.1754751,52.2208564 5.7791436,41.8245249 5.7791436,29 C5.7791436,16.1754751 16.1754751,5.7791436 29,5.7791436 C41.8245249,5.7791436 52.2208564,16.1754751 52.2208564,29 C52.2208564,41.8245249 41.8245249,52.2208564 29,52.2208564 L29,52.2208564 L29,52.2208564 Z" id="Path" fill="#FFFFFF"></path>
                        <path d="M29,47.0603098 C38.9744337,47.0603098 47.0603098,38.9744337 47.0603098,29 C47.0603098,19.0255663 38.9744337,10.9396902 29,10.9396902 C19.0255663,10.9396902 10.9396902,19.0255663 10.9396902,29 C10.9396902,38.9744337 19.0255663,47.0603098 29,47.0603098 L29,47.0603098 L29,47.0603098 Z" id="Shape" fill="#000000"></path>
                        <path d="M29,46.7648065 C19.1887683,46.7648065 11.2351935,38.8112317 11.2351935,29 C11.2351935,19.1887683 19.1887683,11.2351935 29,11.2351935 C38.8112317,11.2351935 46.7648065,19.1887683 46.7648065,29 C46.7648065,38.8112317 38.8112317,46.7648065 29,46.7648065 L29,46.7648065 L29,46.7648065 Z" id="Path" fill="#FFFFFF"></path>
                    </g>
                    <g id="text" transform="translate(6.069767, 6.069767)" fill="#000000">
                        <path d="M7.77604651,33.9097674 L4.4763186,35.8692233 L3.46718605,34.1698233 C3.28007535,33.8547079 3.1640686,33.5978286 3.1191793,33.3991651 C3.07426302,33.2005286 3.09469791,33.0067547 3.18041651,32.8178365 C3.26612837,32.6289251 3.41402163,32.4720891 3.62409628,32.3473419 C3.80716721,32.2386391 3.98826884,32.1838695 4.16739442,32.1830333 C4.34653349,32.1823588 4.51791,32.2255891 4.68151721,32.3131016 C4.78572163,32.3689435 4.90007605,32.4624044 5.02458047,32.5934642 C4.99295023,32.447864 4.98087814,32.3352698 4.98843163,32.2556884 C4.99315256,32.2021395 5.01864558,32.11344 5.06484326,31.9895898 C5.11104093,31.8657463 5.1510407,31.7775593 5.18479535,31.7250356 L5.84868628,30.6640402 L6.53301884,31.8164867 L5.8480793,32.9599635 C5.75852326,33.1065147 5.71027535,33.2183805 5.70334233,33.2955677 C5.69599116,33.3993877 5.71993302,33.4978191 5.77517465,33.5908484 L5.82865605,33.6808833 L7.16791651,32.8856088 L7.77604651,33.9097674 L7.77604651,33.9097674 Z M5.20516279,34.0511391 L4.94987512,33.6212377 C4.92222395,33.5747028 4.8537907,33.4935972 4.74447419,33.377867 C4.69085791,33.3183833 4.62361163,33.2837114 4.54269488,33.2739121 C4.46178488,33.264133 4.38531256,33.2806563 4.31328465,33.3234144 C4.20674674,33.3866749 4.14501721,33.4690012 4.1280893,33.5703865 C4.1111614,33.6717719 4.15796605,33.8154972 4.26844256,34.0015626 L4.53441977,34.4494777 L5.20516279,34.0511391 L5.20516279,34.0511391 Z" id="Shape"></path>
                        <polygon id="Shape" points="2.09744186 31.502093 1.09451395 28.4865651 1.87198372 28.2279863 2.49984047 30.1158188 3.07860628 29.923333 2.49619186 28.1721377 3.23892907 27.9251251 3.82134349 29.6763205 4.53919465 29.4375695 3.89316907 27.4951091 4.71784814 27.2208365 5.73891791 30.2910598"></polygon>
                        <path d="M0.782325581,27.0172093 L0.558216279,25.0588326 C0.509388372,24.63231 0.574267442,24.3012581 0.752833256,24.0656163 C0.931392326,23.8300081 1.20792419,23.6907744 1.58243558,23.6479151 C1.96735326,23.6038756 2.28140302,23.6852105 2.52466581,23.8918456 C2.76788814,24.0985144 2.91668512,24.4393858 2.97105,24.9144665 L3.04485837,25.5594602 L4.45965372,25.3975526 L4.59507698,26.5808874 L0.782325581,27.0172093 L0.782325581,27.0172093 Z M2.27238605,25.6478698 L2.23933953,25.3591781 C2.21337442,25.1320474 2.15564419,24.9770458 2.06623651,24.89418 C1.97683558,24.8113142 1.87058093,24.7769256 1.74747256,24.7910074 C1.62783744,24.8046981 1.5309707,24.8562237 1.45687233,24.9454695 C1.3827807,25.0347491 1.35832628,25.1894944 1.38352256,25.4096921 L1.42189698,25.7451884 L2.27238605,25.6478698 L2.27238605,25.6478698 Z" id="Shape"></path>
                        <path d="M0.660930233,19.8144186 L0.787795116,18.6380302 L3.06254163,18.8833365 C3.28810767,18.907683 3.49730558,18.9657707 3.6901286,19.0576535 C3.88295837,19.149543 4.04632279,19.27862 4.18022186,19.4448912 C4.31412093,19.6111623 4.4025507,19.7799963 4.44550442,19.9513728 C4.50579744,20.1895774 4.51867209,20.4691779 4.48408116,20.7901472 C4.46405093,20.9758012 4.42918349,21.1769735 4.37949907,21.3936574 C4.32979442,21.6103414 4.25839372,21.7882665 4.16527674,21.9274193 C4.07215977,22.0665788 3.94786442,22.1896467 3.79239744,22.2966298 C3.63692372,22.4036128 3.4812814,22.47152 3.32546372,22.5003514 C3.07468791,22.5470212 2.85560302,22.5602398 2.66820907,22.5400747 L0.393462558,22.2947616 L0.520327442,21.1183733 L2.84970186,21.3695807 C3.05791512,21.3920388 3.22680302,21.3519109 3.35636558,21.2491295 C3.48592814,21.1463751 3.56175302,20.9926279 3.58382674,20.7878812 C3.60574535,20.5848812 3.56521279,20.4194598 3.46225605,20.2916305 C3.35931953,20.1638012 3.20200465,20.0884753 2.99031814,20.0656463 L0.660930233,19.8144186 L0.660930233,19.8144186 Z" id="Shape"></path>
                        <path d="M1.17348837,17.002093 L1.90597442,14.9065395 C2.02805093,14.5572919 2.20826233,14.3194042 2.44660186,14.1928698 C2.6849414,14.0663556 2.93178535,14.0477214 3.18711349,14.1369605 C3.40128186,14.2118209 3.56164512,14.3427526 3.66821,14.5297419 C3.73926,14.6544081 3.77449163,14.8127751 3.77391163,15.0048293 C3.92749698,14.7664223 4.10193535,14.6124863 4.29722,14.5430144 C4.49250465,14.4735493 4.70547256,14.479147 4.93611023,14.55974 C5.12391558,14.6253609 5.27752116,14.7280749 5.39691349,14.8677807 C5.51631256,15.0075067 5.59317605,15.1684028 5.6275107,15.3504823 C5.64902465,15.4633935 5.63904326,15.6188942 5.59756651,15.8169777 C5.54239907,16.080554 5.50043674,16.2535288 5.47163907,16.3358956 L4.7961414,18.2683072 L1.17348837,17.002093 L1.17348837,17.002093 Z M2.98915814,16.3694547 L3.1593207,15.8826391 C3.22035558,15.7080119 3.23276488,15.5760079 3.1965486,15.4866137 C3.16033233,15.397233 3.08536395,15.3326709 2.9716907,15.2929342 C2.86625884,15.2561109 2.77193465,15.2615063 2.68873163,15.3091202 C2.6055286,15.3567342 2.53426953,15.4654235 2.47495442,15.6351005 L2.30220209,16.1293279 L2.98915814,16.3694547 L2.98915814,16.3694547 Z M4.4125186,16.8669867 L4.61205209,16.2961521 C4.67942651,16.1034033 4.69274628,15.9555437 4.65204512,15.8525667 C4.61131023,15.7495965 4.53329349,15.677953 4.41796791,15.637643 C4.31089047,15.6002128 4.21113721,15.60925 4.11870814,15.6647547 C4.02627907,15.7202593 3.94580744,15.8460384 3.87727977,16.0420784 L3.67860953,16.6104447 L4.4125186,16.8669867 L4.4125186,16.8669867 Z" id="Shape"></path>
                        <polygon id="Shape" points="2.98767442 12.3890698 3.60037698 11.3738 6.07697698 12.8683791 7.03323512 11.2838326 7.84233512 11.7720981 6.27336767 14.3719819"></polygon>
                        <polygon id="Shape" points="5.30767442 8.87534884 6.06855349 7.96238837 9.01657209 10.4192953 8.25569302 11.3322558"></polygon>
                        <path d="M10.4669767,6.89255814 L11.4599233,6.45350488 C11.5969179,6.7200486 11.6721965,6.97634791 11.6857523,7.22240953 C11.6993081,7.46847791 11.6541221,7.70173907 11.5501874,7.92218628 C11.4462528,8.14264698 11.2639102,8.36490837 11.0031598,8.58897047 C10.6868102,8.86080837 10.3888453,9.03688558 10.1092853,9.11720209 C9.82970512,9.19752535 9.51759767,9.18444163 9.17292256,9.07788349 C8.82828116,8.97136581 8.5007093,8.73743023 8.19022721,8.37608349 C7.77622186,7.89428558 7.58610326,7.41395791 7.61986465,6.9351207 C7.65365302,6.45627674 7.90479977,6.01555093 8.37332512,5.61292302 C8.73997279,5.29787512 9.0918507,5.12433372 9.42906,5.09230558 C9.76624233,5.0602707 10.1177088,5.15401488 10.4835135,5.37351791 L9.84117698,6.23265977 C9.73718163,6.16784814 9.65232628,6.12803047 9.58662442,6.11315279 C9.47718651,6.08752488 9.37014279,6.08752488 9.26549326,6.11298419 C9.16085047,6.13847721 9.06352512,6.18990163 8.97351721,6.26723721 C8.76968093,6.44239721 8.68400953,6.65866977 8.71650302,6.91606163 C8.73909605,7.1083586 8.86239326,7.33488233 9.08646209,7.59560581 C9.3639786,7.9185714 9.6031814,8.09786558 9.80404349,8.13348837 C10.0049191,8.16909767 10.1940463,8.11069302 10.3714116,7.95830814 C10.5434828,7.8104486 10.6320137,7.65038884 10.6370112,7.47812884 C10.6417321,7.30586884 10.5852833,7.11068535 10.466916,6.89257837 L10.4669767,6.89255814 L10.4669767,6.89255814 Z" id="Shape"></path>
                        <path d="M14.5539535,5.42232558 L13.361986,6.05780326 L13.4960065,6.70425372 L12.4265135,7.27445442 L11.8938779,3.20946372 L13.0349942,2.60108419 L16.113243,5.30894233 L15.0183244,5.89269209 L14.5539535,5.42232558 L14.5539535,5.42232558 Z M13.9441105,4.80706698 L12.9208826,3.78923442 L13.1979944,5.20483907 L13.9441105,4.80706698 L13.9441105,4.80706698 Z" id="Shape"></path>
                        <path d="M17.5686047,0.876744186 L19.3046256,0.576911163 C19.6468458,0.517832093 19.9313088,0.516483256 20.1580349,0.572864651 C20.384734,0.62938093 20.5818733,0.732553488 20.7494528,0.882476744 C20.9170256,1.03241349 21.0516665,1.2172514 21.1533756,1.43699721 C21.2550847,1.65674977 21.3282119,1.89560186 21.3727707,2.15356698 C21.4425663,2.55769884 21.450693,2.87903907 21.3971847,3.11764837 C21.3436358,3.35623744 21.2481719,3.56488233 21.1107928,3.74356953 C20.973407,3.92226349 20.8152963,4.05272977 20.6364674,4.13497512 C20.3921053,4.24802116 20.1658851,4.3225107 19.9578,4.35845047 L18.2217791,4.65828349 L17.5686047,0.876744186 L17.5686047,0.876744186 Z M18.8850698,1.53134163 L19.2419316,3.59755791 L19.5282628,3.54812302 C19.7724563,3.50597186 19.9414723,3.44886884 20.0352974,3.37687465 C20.1291226,3.30488047 20.1936105,3.19633953 20.2287679,3.05124512 C20.2639051,2.9061507 20.25534,2.68226395 20.2030726,2.37959837 C20.1338637,1.97890605 20.0211414,1.71589628 19.8649056,1.59059605 C19.708663,1.46527558 19.4792056,1.42874907 19.1765265,1.48102326 L18.8850698,1.53134163 L18.8850698,1.53134163 Z" id="Shape"></path>
                        <polygon id="Shape" points="22.4986047 0.215813953 25.6736326 0.351574419 25.6386302 1.17018372 23.6509837 1.08519349 23.6249512 1.69457116 25.4688116 1.77341744 25.4353605 2.55540581 23.5915 2.47655953 23.5591953 3.23238047 25.6044372 3.31983233 25.5673442 4.18814628 22.3347209 4.04992419"></polygon>
                        <polygon id="Shape" points="27.1183721 0.58 28.2702116 0.861913721 27.582507 3.67160907 29.3801698 4.11159977 29.1555074 5.02948349 26.2060051 4.30758581"></polygon>
                        <path d="M33.275814,2.62348837 L34.9726512,3.62655116 C35.3422123,3.84501558 35.5670567,4.09653326 35.6472047,4.3810907 C35.7273256,4.66565488 35.6714837,4.97018186 35.4796588,5.29465814 C35.2824993,5.62817163 35.0281356,5.82953953 34.7165542,5.8987686 C34.4049795,5.96799767 34.0433833,5.88096395 33.6317519,5.63761349 L33.0728949,5.30724953 L32.3482321,6.53314023 L31.3229135,5.92702 L33.275814,2.62348837 L33.275814,2.62348837 Z M33.4685628,4.63804419 L33.7186979,4.78591047 C33.9154933,4.90224767 34.0739074,4.94977395 34.1939405,4.9284893 C34.3139735,4.90717767 34.4055123,4.8432293 34.4685705,4.73656326 C34.5298751,4.63290512 34.5472414,4.52459349 34.5207705,4.41162837 C34.4942658,4.29867 34.3856507,4.18579256 34.1948577,4.07300279 L33.904163,3.90116093 L33.4685628,4.63804419 L33.4685628,4.63804419 Z" id="Shape"></path>
                        <path d="M36.7962791,9.11139535 L35.8071767,8.19148837 L35.2396535,8.52879884 L34.3521186,7.70337791 L38.0218326,5.8755686 L38.9687837,6.75622442 L37.4114837,10.5486826 L36.502907,9.70363605 L36.7962791,9.11139535 L36.7962791,9.11139535 Z M37.1793084,8.33439767 L37.8082914,7.0354 L36.5601449,7.75857907 L37.1793084,8.33439767 L37.1793084,8.33439767 Z" id="Shape"></path>
                        <path d="M37.6393023,10.8851163 L40.8036744,8.71389302 L41.9218605,10.3435581 C42.1292037,10.6457449 42.2617674,10.894484 42.3195651,11.0897349 C42.3773628,11.2850128 42.3696744,11.4797107 42.2965,11.6738286 C42.2233323,11.8679465 42.0860207,12.0341233 41.8845651,12.1723521 C41.7090005,12.29281 41.5318779,12.3593144 41.353184,12.3718653 C41.1744833,12.3844095 41.0006384,12.3523747 40.8316493,12.275727 C40.7240121,12.2268316 40.6037902,12.1410523 40.4709702,12.0184228 C40.5121098,12.1616423 40.5314656,12.2731979 40.5291726,12.353103 C40.5278237,12.4068542 40.508333,12.497024 40.4703633,12.6236326 C40.432326,12.7502412 40.3982342,12.8408493 40.3679865,12.8954772 L39.7749635,13.9976121 L39.0166472,12.8924423 L39.6252493,11.7065447 C39.7050263,11.5544498 39.7458488,11.4396637 39.747717,11.3621865 C39.7482633,11.2581035 39.7179077,11.1614593 39.6567177,11.0722405 L39.5975037,10.9859014 L38.3132084,11.8670967 L37.6393023,10.8851163 L37.6393023,10.8851163 Z M40.1954163,10.5757807 L40.4782944,10.9880595 C40.508913,11.0326386 40.5825258,11.1091312 40.6991867,11.2174563 C40.7565798,11.2732981 40.8259505,11.3034986 40.9073326,11.3079835 C40.9887147,11.3127044 41.0639393,11.2909881 41.13302,11.243644 C41.2351809,11.1735449 41.2913937,11.0873542 41.3016516,10.9850786 C41.3119028,10.882803 41.2557912,10.7424498 41.1333774,10.5640121 L40.8386565,10.1344681 L40.1954163,10.5757807 L40.1954163,10.5757807 Z" id="Shape"></path>
                        <path d="M41.3823256,16.3209302 L40.8817114,15.0663767 L40.2244433,15.1285581 L39.7752467,14.0028186 L43.8741607,13.9201888 L44.3534363,15.1212609 L41.3236781,17.8832074 L40.8638056,16.7307609 L41.3823256,16.3209302 L41.3823256,16.3209302 Z M42.0609256,15.782407 L43.1850465,14.8772698 L41.7475233,14.997114 L42.0609256,15.782407 L42.0609256,15.782407 Z" id="Shape"></path>
                        <path d="M43.0616279,19.9762791 L43.8512372,19.8581277 L44.1224074,21.6703579 L42.5043423,21.9124742 C42.2159812,21.6009333 42.0091302,21.3182305 41.8837963,21.0643253 C41.7584556,20.8104405 41.668414,20.5005519 41.6136647,20.1346393 C41.5462902,19.6841681 41.5681414,19.3055091 41.6792856,18.9985812 C41.7904095,18.6916735 41.986173,18.4373974 42.2665693,18.2357463 C42.5469588,18.0340951 42.8839186,17.9038244 43.2774553,17.8449409 C43.6916833,17.7829619 44.0647716,17.8144572 44.3967205,17.9395147 C44.7286423,18.0645451 44.9986593,18.2800084 45.2067647,18.5859044 C45.3677888,18.8247363 45.4808349,19.1616219 45.545923,19.5965881 C45.608644,20.0159956 45.6176407,20.3353463 45.5728323,20.5547347 C45.5279835,20.7740691 45.4360333,20.9642888 45.2969209,21.125394 C45.1577951,21.2864991 44.9708598,21.4198991 44.7361014,21.5256142 L44.3648812,20.4244909 C44.5011609,20.3564488 44.5989449,20.261086 44.658233,20.1384026 C44.7175144,20.0157123 44.73424,19.8680753 44.7084098,19.6954781 C44.6699005,19.4383088 44.5499416,19.24672 44.3484523,19.1207049 C44.1469563,18.994683 43.8529098,18.9605979 43.4663128,19.0184495 C43.0555379,19.0798891 42.7736849,19.2010551 42.6207267,19.3818667 C42.4677956,19.5626851 42.4119874,19.7911647 42.4533091,20.0673458 C42.4729347,20.1985202 42.5106347,20.3208126 42.566436,20.4342228 C42.6222105,20.5476263 42.7073491,20.6742956 42.8218114,20.8142172 L43.1790847,20.7607358 L43.0616279,19.9762791 L43.0616279,19.9762791 Z" id="Shape"></path>
                        <path d="M45.5704651,25.5469767 L45.4654177,26.7255233 L43.1865572,26.5223951 C42.9605798,26.50223 42.7503433,26.4480337 42.5558477,26.3597388 C42.3613521,26.2714372 42.1956272,26.1454086 42.0586663,25.981653 C41.9217121,25.817884 41.8301733,25.6507226 41.7840498,25.4801688 C41.7193056,25.2431174 41.7012986,24.963807 41.7299614,24.6422037 C41.7465521,24.4562058 41.7776428,24.2544198 41.8233414,24.0368523 C41.8689995,23.8192849 41.9371091,23.6400716 42.0276363,23.4992126 C42.1181567,23.3583535 42.2401523,23.233006 42.3936095,23.1231635 C42.5470735,23.0133142 42.7014344,22.9425407 42.8566923,22.9108228 C43.1065577,22.8594995 43.3253593,22.8422142 43.5130905,22.85896 L45.7919509,23.0620881 L45.6869035,24.2406347 L43.3532802,24.0326305 C43.1446893,24.0140165 42.9765702,24.0573142 42.8489365,24.1624426 C42.721296,24.2675777 42.6483374,24.4227074 42.630054,24.6278251 C42.6119121,24.8312028 42.655547,24.9958419 42.7608035,25.1217423 C42.8660937,25.247636 43.0247777,25.3200349 43.2368486,25.3389456 L45.5704651,25.5469767 L45.5704651,25.5469767 Z" id="Shape"></path>
                        <path d="M41.3283721,29.6069767 L41.7502951,28.3238279 L41.2065519,27.9493907 L41.58513,26.7980233 L44.7801881,29.3669512 L44.3762586,30.5954047 L40.2801098,30.7669093 L40.6676847,29.5881605 L41.3283721,29.6069767 L41.3283721,29.6069767 Z M42.1943256,29.629907 L43.6373116,29.6579628 L42.4584279,28.8266744 L42.1943256,29.629907 L42.1943256,29.629907 Z" id="Shape"></path>
                        <polygon id="Shape" points="43.5674419 32.7497674 42.8905279 33.8791488 41.3807744 33.8778 42.0939047 35.2085628 41.4210372 36.3312674 40.2750651 33.9048442 38.8964186 33.0785465 39.5073812 32.0591628 40.8860277 32.8854605"></polygon>
                    </g>
                    <g id="leaves" transform="translate(12.813953, 14.162791)" stroke="#000000" stroke-width="0.1" fill="#009B3A">
                        <path d="M28.8846744,15.8535581 C26.9942791,25.4917419 20.967,25.4269302 18.6038372,26.4925116 C16.2404721,27.5576209 14.6100651,29.0820093 13.6774791,28.8688256 C12.7449605,28.6556216 11.5123256,27.9359698 11.5123256,27.9359698 C11.5123256,27.9359698 11.4136784,29.5188977 13.3119442,29.8069419 C15.21021,30.094986 17.7054442,27.3087605 18.9039535,26.9989326 C20.1024628,26.6891519 27.4609767,25.8904581 29.2515581,16.0834674 C31.3411093,5.61514186 19.9499767,1.55109535 19.9499767,1.55109535 C19.9499767,1.55109535 30.7750698,6.21537442 28.8846744,15.8535581 L28.8846744,15.8535581 Z" id="Shape"></path>
                        <path d="M25.412093,3.60139535 C25.6128226,4.39310108 25.6165284,5.04480975 25.4203861,5.05985622 C25.2242438,5.0749027 24.9019384,4.44763448 24.6990977,3.6560907 C24.5669091,3.1402523 24.5128908,2.65715597 24.5575187,2.38992253 C24.6021466,2.12268909 24.7385898,2.11222224 24.9151286,2.36248953 C25.0916675,2.61275682 25.2812803,3.08545141 25.412093,3.60139535 L25.412093,3.60139535 L25.412093,3.60139535 Z" id="Shape"></path>
                        <path d="M25.0411628,3.70255814 C25.28467,4.19362667 25.4482266,4.67062113 25.469997,4.95320489 C25.4917674,5.23578865 25.3684297,5.28084299 25.1466141,5.07133426 C24.9247985,4.86182554 24.6383511,4.42972216 24.3955688,3.93838884 C24.0218734,3.18211857 23.8634597,2.51772736 24.0413412,2.45274856 C24.2192227,2.38776977 24.6663516,2.94669544 25.0411628,3.70255814 L25.0411628,3.70255814 L25.0411628,3.70255814 Z" id="Shape"></path>
                        <path d="M23.9553488,4.41744186 C24.7187698,4.6424451 25.3196175,4.98629986 25.3010333,5.1875539 C25.2824492,5.38880794 24.6513924,5.37209829 23.8876912,5.15013023 C23.1242702,4.92512699 22.5234225,4.58127223 22.5420067,4.38001819 C22.5605908,4.17876415 23.1916476,4.1954738 23.9553488,4.41744186 L23.9553488,4.41744186 L23.9553488,4.41744186 Z" id="Shape"></path>
                        <path d="M24.1172093,4.01953488 C24.5713892,4.32330048 24.9622362,4.66396256 25.1415952,4.91238914 C25.3209542,5.16081572 25.2613714,5.2789811 24.9854324,5.22209328 C24.7094933,5.16520546 24.2594349,4.94197206 23.8058572,4.63701233 C23.3516774,4.33324673 22.9608303,3.99258465 22.7814713,3.74415807 C22.6021123,3.49573149 22.6616951,3.37756611 22.9376342,3.43445393 C23.2135732,3.49134175 23.6636316,3.71457515 24.1172093,4.01953488 L24.1172093,4.01953488 L24.1172093,4.01953488 Z" id="Shape"></path>
                        <path d="M24.575814,3.83069767 C24.9613445,4.23062679 25.273127,4.64722235 25.3931238,4.92276543 C25.5131205,5.19830851 25.4229913,5.29068546 25.1568582,5.16492328 C24.8907251,5.0391611 24.4892635,4.71448112 24.1044628,4.31380395 C23.5131334,3.69807695 23.1400149,3.09282434 23.2697786,2.95982447 C23.3995422,2.8268246 23.983363,3.21612022 24.575814,3.83069767 L24.575814,3.83069767 L24.575814,3.83069767 Z" id="Shape"></path>
                        <path d="M25.3311628,5.19302326 C25.3372326,5.19976744 24.9135088,5.42848302 24.8175458,5.46264907 C24.7215693,5.49677465 24.5914807,5.33482651 24.3154749,5.47647465 C24.0394758,5.61812279 23.8500181,5.8764993 23.7897656,6.02813558 C23.72954,6.17976512 23.8679644,6.24330209 24.2015521,6.08114488 C24.5351398,5.91900116 24.6229356,5.66210163 24.7837777,5.56144465 C24.9446063,5.46080791 25.214394,5.31268535 25.3679456,5.25801698 C25.4344433,5.11285512 25.6503516,4.80165814 25.7619612,4.6230586 C25.8735707,4.44447256 26.3114977,4.14971116 26.47091,3.80654 C26.6100695,3.52267047 26.5578156,3.28091163 26.3715614,3.38192605 C26.1853072,3.48294721 25.9444993,3.76828698 25.832357,3.97310116 C25.7202079,4.17792884 25.8165081,4.43870628 25.691943,4.63061884 C25.5938353,4.76968395 25.3565749,5.1926186 25.3311628,5.19298953 L25.3311628,5.19302326 L25.3311628,5.19302326 Z" id="Shape"></path>
                        <path d="M28.6830233,6.29906977 C28.6942507,7.09392348 28.6087961,7.80545359 28.4588494,8.1656336 C28.3089028,8.5258136 28.1172445,8.47992359 27.9560704,8.04524988 C27.7948963,7.61057617 27.6886925,6.85315604 27.6774651,6.05830233 C27.660109,4.82956495 27.871141,3.88737412 28.1488182,3.95386021 C28.4264954,4.02034631 28.6656672,5.07033239 28.6830233,6.29906977 L28.6830233,6.29906977 L28.6830233,6.29906977 Z" id="Shape"></path>
                        <path d="M28.1232558,6.27883721 C28.2976925,7.09081684 28.3661077,7.84667916 28.3026527,8.26084581 C28.2391977,8.67501246 28.0535475,8.68433683 27.8158439,8.28529601 C27.5781403,7.88625518 27.3246253,7.13968959 27.1510814,6.32766512 C26.9766447,5.51568548 26.9082296,4.75982316 26.9716845,4.34565651 C27.0351395,3.93148986 27.2207898,3.92216549 27.4584933,4.32120632 C27.6961969,4.72024714 27.9497119,5.46681273 28.1232558,6.27883721 L28.1232558,6.27883721 L28.1232558,6.27883721 Z" id="Shape"></path>
                        <path d="M26.39,6.81837209 C27.0329667,7.2494737 27.5966771,7.74714701 27.8670506,8.12239035 C28.1374241,8.49763369 28.0729832,8.69288169 27.6982007,8.63398491 C27.3234181,8.57508813 26.6957887,8.27108181 26.0536674,7.8374186 C25.4107008,7.406317 24.8469904,6.90864369 24.5766169,6.53340035 C24.3062434,6.15815701 24.3706843,5.96290901 24.7454668,6.02180579 C25.1202493,6.08070257 25.7478788,6.38470889 26.39,6.81837209 L26.39,6.81837209 L26.39,6.81837209 Z" id="Shape"></path>
                        <path d="M26.7406977,6.32604651 C27.5491051,7.3073632 28.060731,8.2651556 27.8859365,8.46999777 C27.7111419,8.67483995 26.9155282,8.04985348 26.1050109,7.0710093 C25.5763333,6.4325368 25.1475114,5.7693433 24.9812162,5.33300748 C24.8149211,4.89667165 24.9366296,4.75404119 25.3001723,4.95922215 C25.663715,5.1644031 26.2133962,5.68596126 26.7406977,6.32604651 L26.7406977,6.32604651 L26.7406977,6.32604651 Z" id="Shape"></path>
                        <path d="M27.442093,6.25860465 C27.8431604,7.00349829 28.1365392,7.73891155 28.2112858,8.18674165 C28.2860325,8.63457175 28.1307383,8.72646605 27.8041291,8.42767396 C27.4775199,8.12888186 27.0294463,7.48500821 26.6293512,6.7395393 C26.2282838,5.99464566 25.934905,5.2592324 25.8601583,4.8114023 C25.7854117,4.36357221 25.9407059,4.2716779 26.2673151,4.57047 C26.5939242,4.8692621 27.0419978,5.51313575 27.442093,6.25860465 L27.442093,6.25860465 L27.442093,6.25860465 Z" id="Shape"></path>
                        <path d="M28.0355814,8.54488372 C28.0423256,8.55688837 27.3792035,8.69518465 27.2349791,8.70118023 C27.0907547,8.70725 26.9642405,8.41695326 26.5350674,8.4962986 C26.1059281,8.57564395 25.7580023,8.86089605 25.6243326,9.05108884 C25.4906763,9.24129512 25.6613581,9.39424651 26.1770388,9.31132 C26.6927195,9.22838674 26.8994086,8.8997493 27.1554853,8.82757977 C27.4115486,8.75541698 27.8342202,8.66401977 28.0650063,8.65444977 C28.2051302,8.47630209 28.6072253,8.12725 28.8209621,7.92142419 C29.0346719,7.71560512 29.7387784,7.48943209 30.0731551,7.06936372 C30.3598774,6.7251 30.3675726,6.35549163 30.0765272,6.41679628 C29.7851244,6.47810093 29.3571249,6.77900628 29.1340272,7.02214767 C28.9108823,7.26530256 28.957923,7.68189767 28.7218226,7.90098256 C28.5399049,8.05624721 28.0712649,8.55578233 28.0359388,8.54493767 L28.0355814,8.54488372 L28.0355814,8.54488372 Z" id="Shape"></path>
                        <path d="M30.4432558,10.7906977 C30.3109813,11.5788506 30.098944,12.2665286 29.8871686,12.5941961 C29.6753932,12.9218635 29.4961267,12.8396267 29.4170258,12.3785224 C29.3379249,11.9174181 29.3710343,11.1476585 29.5038581,10.3597577 C29.6361327,9.57160478 29.84817,8.88392677 30.0599454,8.5562593 C30.2717208,8.22859182 30.4509873,8.31082868 30.5300882,8.77193296 C30.6091891,9.23303725 30.5760797,10.0027968 30.4432558,10.7906977 L30.4432558,10.7906977 L30.4432558,10.7906977 Z" id="Shape"></path>
                        <path d="M29.9104651,10.655814 C29.9352396,11.4935471 29.8660116,12.2566837 29.7290577,12.6555632 C29.5921037,13.0544426 29.4084202,13.0279132 29.2477269,12.5860444 C29.0870337,12.1441756 28.9739665,11.3547101 28.9514419,10.5173019 C28.9266673,9.67956868 28.9958953,8.91643213 29.1328493,8.51755265 C29.2698032,8.11867317 29.4534868,8.14520266 29.6141801,8.58707144 C29.7748733,9.02894022 29.8879405,9.81840573 29.9104651,10.655814 L29.9104651,10.655814 L29.9104651,10.655814 Z" id="Shape"></path>
                        <path d="M28.1165116,10.8581395 C28.9628808,11.7051694 29.534254,12.6026727 29.3927094,12.8627693 C29.2511648,13.1228659 28.4503025,12.6470624 27.6039333,11.8000326 C26.7575641,10.9530027 26.1861908,10.0554993 26.3277354,9.79540277 C26.4692801,9.5353062 27.2701424,10.0111097 28.1165116,10.8581395 L28.1165116,10.8581395 L28.1165116,10.8581395 Z" id="Shape"></path>
                        <path d="M28.5481395,10.44 C28.9472958,11.1699015 29.2441085,11.9028417 29.3267712,12.3627292 C29.4094338,12.8226166 29.265388,12.9395835 28.9488944,12.6695694 C28.6324008,12.3995554 28.1915423,11.783582 27.792386,11.0536805 C27.3932298,10.323779 27.0964171,9.59083876 27.0137544,9.1309513 C26.9310918,8.67106383 27.0751376,8.55409698 27.3916312,8.82411104 C27.7081248,9.0941251 28.1489833,9.71009851 28.5481395,10.44 L28.5481395,10.44 L28.5481395,10.44 Z" id="Shape"></path>
                        <path d="M29.2360465,10.5074419 C29.4952184,11.3224112 29.650728,12.1089926 29.6434491,12.5681201 C29.6361703,13.0272477 29.4672211,13.0883901 29.2008377,12.7283004 C28.9344543,12.3682108 28.6115585,11.6422061 28.3549186,10.8263205 C28.0957467,10.0113511 27.9402371,9.22476971 27.947516,8.76564218 C27.9547948,8.30651464 28.123744,8.24537223 28.3901274,8.60546188 C28.6565108,8.96555153 28.9794066,9.69155623 29.2360465,10.5074419 L29.2360465,10.5074419 L29.2360465,10.5074419 Z" id="Shape"></path>
                        <path d="M29.4113953,12.8746512 C29.4154419,12.8878023 28.7427228,12.8970419 28.6006767,12.8750963 C28.4586307,12.8533126 28.3873244,12.5423719 27.9535586,12.5383119 C27.5197928,12.5342653 27.1282726,12.7491351 26.9633098,12.9113126 C26.7983672,13.07349 26.9376144,13.2573433 27.4565998,13.274487 C27.9755919,13.2916847 28.2369021,13.006763 28.5001951,12.9846691 C28.7635016,12.9626156 29.1930928,12.9535109 29.4203719,12.9880412 C29.5894756,12.8390149 30.0454567,12.5715135 30.2914509,12.4092753 C30.5374586,12.247044 31.2664579,12.1589177 31.6690858,11.8082335 C32.0114409,11.5232984 32.0856405,11.1597126 31.7897663,11.1643053 C31.4938853,11.1690263 31.0212663,11.3838556 30.7593221,11.5811433 C30.4973577,11.7784242 30.4681823,12.1989107 30.1978888,12.3699433 C29.9920698,12.4883442 29.4438888,12.8916937 29.4113144,12.8741926" id="Shape"></path>
                        <path d="M30.5781395,15.7948837 C29.9203605,16.8386813 29.2342039,17.5084487 29.0455659,17.2908511 C28.8569279,17.0732535 29.2372419,16.0506906 29.8950209,15.006893 C30.5528,13.9630956 31.2389564,13.2933283 31.4275944,13.5109259 C31.6162324,13.7285235 31.2359185,14.7510862 30.5781395,15.7948837" id="Shape"></path>
                        <path d="M30.1397674,15.4509302 C29.6721604,16.6614671 29.1107741,17.5252891 28.885876,17.3803308 C28.660978,17.2353725 28.8577325,16.1365266 29.3253395,14.9259898 C29.7929466,13.7154529 30.3543329,12.8516309 30.5792309,12.9965892 C30.804129,13.1415475 30.6073745,14.2403934 30.1397674,15.4509302" id="Shape"></path>
                        <path d="M28.4402326,14.897907 C28.8775615,16.0332709 29.0463437,17.1017448 28.8172181,17.2844102 C28.5880925,17.4670756 28.0478243,16.6947609 27.6104953,15.559397 C27.1731665,14.4240332 27.0043844,13.3555595 27.2335099,13.1728942 C27.4626355,12.9902288 28.0029036,13.7625433 28.4402326,14.897907" id="Shape"></path>
                        <path d="M28.9932558,14.6888372 C29.1117502,15.9851633 29.0026036,17.0889839 28.7489495,17.1595553 C28.4952953,17.2301267 28.1923485,16.2409583 28.0708535,14.945467 C27.9916188,14.1005941 28.0067981,13.2931032 28.1106339,12.8292684 C28.2144697,12.3654336 28.3910567,12.3163037 28.5734172,12.7005133 C28.7557777,13.0847229 28.9159781,13.8434199 28.9932558,14.6888372" id="Shape"></path>
                        <path d="M29.5934884,15.0395349 C29.510798,15.8977716 29.3465681,16.6842773 29.1626624,17.1027829 C28.9787567,17.5212885 28.8031149,17.5082131 28.7018996,17.068482 C28.6006842,16.6287508 28.5892724,15.8291697 28.6719628,14.970933 C28.799791,13.6442142 29.1097068,12.5840531 29.364179,12.602997 C29.6186513,12.6219409 29.7213166,13.7128161 29.5934884,15.0395349" id="Shape"></path>
                        <path d="M28.8313953,17.3055814 C28.8300465,17.3194744 28.2173709,17.0498688 28.0972233,16.9709349 C27.9770958,16.8919942 28.0332884,16.5741947 27.6421593,16.39109 C27.2510505,16.2079853 26.813164,16.2453819 26.600857,16.3275598 C26.3885635,16.4097512 26.4432319,16.6378058 26.9064158,16.8682749 C27.3695863,17.0987507 27.7167298,16.9426093 27.9637019,17.0309851 C28.2106402,17.1193677 28.6030912,17.2885591 28.7953274,17.4148642 C29.0062721,17.3465793 29.5229577,17.2870484 29.8086414,17.2383149 C30.0943386,17.1896219 30.7885042,17.409253 31.2891926,17.2505219 C31.7097533,17.1278384 31.9181014,16.8213623 31.6484688,16.7032986 C31.3788228,16.5852281 30.8674921,16.5891735 30.5537526,16.6637777 C30.2399995,16.7384156 30.050326,17.1162653 29.7392572,17.1631037 C29.5069605,17.1877874 28.8540828,17.3352019 28.8314223,17.305514" id="Shape"></path>
                        <path d="M29.2293023,20.8732558 C28.5390002,21.4646286 27.854156,21.9046392 27.4327438,22.0275398 C27.0113316,22.1504405 26.9173741,21.9375596 27.186264,21.4690875 C27.455154,21.0006153 28.0460407,20.3477239 28.7363428,19.7563512 C29.4266449,19.1649784 30.1114891,18.7249678 30.5329013,18.6020672 C30.9543135,18.4791665 31.0482711,18.6920474 30.7793811,19.1605195 C30.5104911,19.6289917 29.9196044,20.2818831 29.2293023,20.8732558" id="Shape"></path>
                        <path d="M28.8583721,20.3404651 C27.9457867,21.5075142 27.0439198,22.2579325 26.843996,22.0165712 C26.6440721,21.7752099 27.2217984,20.6334677 28.1343837,19.4664186 C28.7247229,18.7114702 29.3392146,18.0971653 29.7463856,17.8549066 C30.1535566,17.6126478 30.291548,17.7792402 30.1083797,18.2919298 C29.9252115,18.8046195 29.4487113,19.5855167 28.8583721,20.3404651" id="Shape"></path>
                        <path d="M27.1723256,19.1130233 C27.2434733,20.0284086 27.2009529,20.9172452 27.0608652,21.442963 C26.9207776,21.9686809 26.7045386,22.0509113 26.4940299,21.6585167 C26.2835213,21.266122 26.1109244,20.4590893 26.0415953,19.5430123 C25.9704476,18.627627 26.0129681,17.7387904 26.1530557,17.2130725 C26.2931433,16.6873547 26.5093824,16.6051243 26.719891,16.9975189 C26.9303996,17.3899136 27.1029966,18.1969463 27.1723256,19.1130233" id="Shape"></path>
                        <path d="M27.8467442,19.0793023 C27.5514017,20.5557916 27.0674423,21.7388813 26.7644835,21.7250023 C26.4615248,21.7111234 26.4537232,20.5055055 26.7470372,19.0289233 C26.9376527,18.069339 27.2193295,17.1860913 27.4855482,16.7131906 C27.7517668,16.2402898 27.9618938,16.2499161 28.0364672,16.7384289 C28.1110406,17.2269418 28.038678,18.1197785 27.8467442,19.0793023" id="Shape"></path>
                        <path d="M28.3930233,19.6795349 C28.0195644,20.6007102 27.5783655,21.4148385 27.2367002,21.8132555 C26.895035,22.2116726 26.7052128,22.1333803 26.7392018,21.608062 C26.7731909,21.0827436 27.0257874,20.1908261 27.4012233,19.2704663 C27.7746821,18.349291 28.215881,17.5351627 28.5575463,17.1367456 C28.8992115,16.7383285 29.0890337,16.8166208 29.0550447,17.3419392 C29.0210557,17.8672576 28.7684592,18.759175 28.3930233,19.6795349" id="Shape"></path>
                        <path d="M26.8081395,21.9118605 C26.8020698,21.9266977 26.2162833,21.4074898 26.1099814,21.2769021 C26.0036998,21.1463212 26.1700047,20.8158493 25.7996342,20.4722533 C25.4292974,20.128664 24.9350295,20.0115309 24.6742993,20.0254577 C24.4136028,20.0394181 24.3988263,20.3108919 24.8329293,20.7328553 C25.2670391,21.1547986 25.7005014,21.1080344 25.9432921,21.2949158 C26.1860626,21.4817972 26.5624556,21.8105291 26.7324967,22.0194437 C26.9871437,22.0201181 27.5754526,22.1415674 27.9059177,22.1911372 C28.2364165,22.240707 28.9283363,22.7342802 29.5316037,22.7401949 C30.0348616,22.7569205 30.3649153,22.4940051 30.1069233,22.266146 C29.8489109,22.0382735 29.284807,21.8576642 28.9148884,21.82656 C28.54499,21.7954019 28.2120093,22.1439077 27.8541628,22.0830684 C27.590337,22.0262823 26.8232465,21.9528179 26.8080721,21.911847" id="Shape"></path>
                        <path d="M25.7425581,25.3176744 C24.749096,25.4830316 23.8413582,25.5068142 23.3637513,25.3799987 C22.8861445,25.2531833 22.9118548,24.9952024 23.4311274,24.7039371 C23.9504,24.4126719 24.8836641,24.1327542 25.8768281,23.9703884 C26.8702903,23.8050312 27.7780281,23.7812486 28.2556349,23.9080641 C28.7332418,24.0348795 28.7075315,24.2928604 28.1882589,24.5841257 C27.6689863,24.8753909 26.7357222,25.1553086 25.7425581,25.3176744" id="Shape"></path>
                        <path d="M25.6886047,24.5960465 C24.1703852,25.1781577 22.8900772,25.3702374 22.8289566,25.0250684 C22.767836,24.6798995 23.9490478,23.9281904 25.4672672,23.3460791 C26.9854866,22.7639678 28.2657946,22.5718882 28.3269153,22.9170572 C28.3880359,23.2622261 27.206824,24.0139352 25.6886047,24.5960465" id="Shape"></path>
                        <path d="M24.724186,22.4513953 C24.0577326,23.8563206 23.2205756,24.9403857 22.8543434,24.8727226 C22.4881113,24.8050595 22.7314886,23.6112908 23.3979419,22.2063656 C23.8290616,21.2975381 24.3538232,20.481098 24.7745538,20.0645905 C25.1952844,19.648083 25.4480652,19.6947854 25.4376759,20.1871054 C25.4272867,20.6794254 25.1553059,21.5425679 24.724186,22.4513953" id="Shape"></path>
                        <path d="M25.3986047,22.8155814 C24.6914182,23.6157651 23.9394223,24.289981 23.4258867,24.5842584 C22.9123511,24.8785358 22.715294,24.7481671 22.9089448,24.2422608 C23.1025957,23.7363544 23.6575344,22.9317698 24.3647209,22.131586 C25.4579364,20.8946094 26.5756053,20.0449594 26.8611043,20.2338394 C27.1466034,20.4227195 26.49182,21.5786047 25.3986047,22.8155814" id="Shape"></path>
                        <path d="M25.594186,23.705814 C24.7319553,24.3639877 23.8641834,24.8808071 23.3186621,25.0610488 C22.7731409,25.2412906 22.6330236,25.0574807 22.9512379,24.5790515 C23.2694523,24.1006222 23.9974934,23.4005001 24.8603512,22.7431488 C26.1898456,21.7302997 27.4296751,21.1253048 27.6319765,21.3906895 C27.8342779,21.6560742 26.9227143,22.6916974 25.594186,23.705814" id="Shape"></path>
                        <path d="M22.8425581,24.9062791 C22.8285977,24.9168674 22.5468121,24.0842977 22.5155393,23.8986302 C22.4842463,23.712956 22.8252728,23.4948288 22.6555149,22.9539047 C22.4857502,22.4129535 22.0726351,22.0156535 21.8134358,21.8781395 C21.5542095,21.7406053 21.3916544,21.9902751 21.5801679,22.6426605 C21.7686814,23.2950121 22.2125702,23.5011953 22.3448237,23.819386 C22.477057,24.1375295 22.6607888,24.6678721 22.7108037,24.9649535 C22.9560695,25.1131233 23.4576549,25.5686053 23.7496107,25.8068977 C24.0415193,26.0451833 24.4397433,26.9147651 25.0187991,27.269307 C25.4953905,27.5762686 25.9575898,27.5171086 25.8330247,27.151196 C25.7084663,26.7852633 25.2626553,26.2872658 24.922627,26.0437333 C24.5825986,25.8002074 24.0709037,25.9390365 23.7587828,25.674226 C23.5351591,25.4676516 22.8349642,24.9541493 22.8426526,24.906333" id="Shape"></path>
                        <path d="M21.1767442,27.8130233 C19.615383,27.8319222 18.3580858,27.4855511 18.3593813,27.0368718 C18.3606767,26.5881924 19.6200806,26.2048593 21.1814651,26.1778953 C22.7428263,26.1589964 24.0001235,26.5053675 23.998828,26.9540468 C23.9975326,27.4027262 22.7381287,27.7860593 21.1767442,27.8130233" id="Shape"></path>
                        <path d="M20.7990698,25.2569767 C19.8034681,26.5426321 18.7248321,27.3577821 18.3898688,27.0776652 C18.0549055,26.7975483 18.5904588,25.5282391 19.5860605,24.2425837 C20.2301018,23.4109105 20.9408197,22.7390839 21.4504936,22.4801745 C21.9601675,22.2212651 22.1913657,22.4146073 22.0569983,22.987371 C21.9226308,23.5601347 21.4431111,24.4253036 20.7990698,25.2569767" id="Shape"></path>
                        <path d="M21.1969767,26.5586047 C19.7361182,27.1884944 18.4225192,27.3611512 18.2629712,26.9442442 C18.1034232,26.5273373 19.1583438,25.6787409 20.6192023,25.0488512 C22.0800608,24.4189614 23.3936598,24.2463047 23.5532078,24.6632116 C23.7127558,25.0801185 22.6578352,25.9287149 21.1969767,26.5586047" id="Shape"></path>
                        <path d="M21.9725581,1.79395349 C22.6932699,2.44398423 23.1266127,3.05095643 22.9418491,3.15161451 C22.7570855,3.2522726 22.0237698,2.80872382 21.3015858,2.15949512 C20.8318509,1.73721301 20.4612767,1.3112662 20.3301038,1.04285064 C20.1989309,0.77443508 20.3271981,0.704555843 20.666364,0.859658132 C21.0055298,1.01476042 21.5037808,1.37114971 21.9725581,1.79395349" id="Shape"></path>
                        <path d="M21.1025581,2.52906977 C22.0808692,2.65618236 22.9044436,2.92372844 22.9420632,3.12665069 C22.9796828,3.32957293 22.2171017,3.39102883 21.2387907,3.26391628 C20.6059343,3.18168887 20.008168,3.03567711 19.6706645,2.88088223 C19.333161,2.72608736 19.3071952,2.58602639 19.6025482,2.51345895 C19.8979012,2.44089151 20.4697017,2.44684232 21.1025581,2.52906977" id="Shape"></path>
                        <path d="M21.4532558,2.06372093 C22.3747013,2.53259671 23.0422004,3.04269308 22.9441566,3.20305306 C22.8461129,3.36341305 22.0196536,3.11331159 21.0982081,2.64443581 C20.1767626,2.17556004 19.5092636,1.66546367 19.6073073,1.50510368 C19.705351,1.34474369 20.5318103,1.59484516 21.4532558,2.06372093" id="Shape"></path>
                        <path d="M13.0835186,26.3060349 C15.156614,27.0594953 18.3064186,29.6455535 19.1530163,29.7920372 C20.1026651,29.8352674 21.4196023,29.5111149 21.919414,28.1399814 C20.4569372,28.5300516 19.5799233,29.1226093 18.1838093,28.3555526 C17.6905328,28.1687184 16.0752395,26.6979665 14.3045535,25.9107851 C12.5338674,25.1236037 8.9626186,24.2262223 8.9626186,24.2262223 L8.62583419,25.0411223 C8.62583419,25.0411223 11.0104907,25.5526014 13.0835186,26.3060349 L13.0835186,26.3060349 Z" id="Shape"></path>
                        <path d="M11.1683721,3.48 C11.159807,3.45956512 13.9133233,2.03175349 13.9133233,2.03175349 L10.8863977,2.80578372 L10.5347288,3.33833163 L11.1683788,3.47999326" id="Shape"></path>
                        <path d="M13.7716279,4.14767442 C12.7088791,3.95448721 11.074493,3.59712628 10.0339326,3.51378837 C10.7532,2.71709767 11.7442581,1.36987907 12.3550791,0.542906977 C11.9517498,1.33163953 11.3186326,2.37172791 11.0687605,3.12673953 C11.801314,3.52215116 12.9528163,3.83177674 13.7716953,4.14767442" id="Shape"></path>
                        <path d="M10.6760465,3.64860465 C10.6641093,3.62978837 13.1152837,1.75996279 13.1152837,1.75996279 L10.2823209,3.02733023 L10.030176,3.61304256 L10.6760398,3.64858442" id="Shape"></path>
                        <path d="M13.2793023,4.12069767 C12.2092023,3.91724581 10.5622721,3.54208698 9.51645116,3.4522207 C10.223107,2.63158814 11.1919767,1.24309512 11.7891744,0.390764884 C11.3994414,1.20431605 10.783886,2.27677651 10.5475023,3.05606721 C11.2901721,3.46729395 12.4515209,3.79138581 13.2793023,4.12070442" id="Shape"></path>
                        <path d="M10.2713953,3.80372093 C10.2646512,3.78274651 13.1438116,2.60069302 13.1438116,2.60069302 L10.0506581,3.10973744 L9.6513214,3.6085914 L10.2713953,3.80374791" id="Shape"></path>
                        <path d="M12.9555814,4.14767442 C11.873207,4.05744395 10.2001767,3.85550953 9.15523256,3.87808907 C9.75764349,2.96694953 10.5526953,1.44991233 11.0431326,0.518472791 C10.7533281,1.38793326 10.2706535,2.54516814 10.1284186,3.36303558 C10.9112837,3.70014372 12.0981256,3.90305605 12.9555814,4.14765419" id="Shape"></path>
                        <path d="M9.97465116,3.8172093 C9.95893721,3.80122558 11.9206186,1.44602093 11.9206186,1.44602093 L9.45487674,3.28974651 L9.34044814,3.9186486 L9.9746714,3.81721605" id="Shape"></path>
                        <path d="M12.942093,4.3027907 C11.7823628,4.28073721 9.98348605,4.17850209 8.87487674,4.27696047 C9.42360395,3.23997442 10.1161442,1.52809767 10.543793,0.476813953 C10.3232042,1.44622326 9.92651116,2.7434 9.85763953,3.64604186 C10.7238628,3.95868884 12.0059326,4.09634442 12.942093,4.30277047" id="Shape"></path>
                        <path d="M9.58348837,4.37697674 C9.56844884,4.35620465 11.9465837,2.10964884 11.9465837,2.10964884 L9.08718372,3.6917 L8.8913393,4.36935581 L9.58342767,4.37697674" id="Shape"></path>
                        <path d="M12.4227907,4.37697674 C11.1764651,4.38169767 9.25733953,4.31405349 8.04122791,4.45026581 C8.84796744,3.29417744 9.94969767,1.39110302 10.6287698,0.222335581 C10.1899593,1.29574023 9.4933186,2.73454488 9.2319814,3.7307286 C10.1014419,4.05346488 11.4558093,4.17301907 12.4227907,4.37699698" id="Shape"></path>
                        <path d="M8.78767442,4.5455814 C8.77580465,4.52312326 11.8063721,1.98879302 11.8063721,1.98879302 L8.39442093,3.80311395 L8.04276558,4.55448372 L8.78772837,4.5455814" id="Shape"></path>
                        <path d="M11.9709302,4.45116279 C10.7367442,4.6291486 8.82557674,4.83021302 7.64008372,5.13212326 C8.27380791,3.89294651 9.0927814,1.88446047 9.5981907,0.65067907 C9.31717395,1.75814186 8.83299535,3.25764419 8.71679302,4.2650907 C9.62456047,4.45873651 10.9835814,4.38687047 11.9709302,4.45118977" id="Shape"></path>
                        <path d="M8.38302326,5.05139535 C8.36555581,5.03332093 10.7088907,1.82976512 10.7088907,1.82976512 L7.80632791,4.45426512 L7.65078,5.25830698 L8.38306372,5.05139535" id="Shape"></path>
                        <path d="M11.2897674,4.8355814 C10.0470837,4.95130488 8.12681163,5.05606907 6.92580698,5.29798977 C7.62841628,4.09266884 8.55931628,2.12855953 9.13351628,0.922159535 C8.79058791,2.01370605 8.22271395,3.48643395 8.04999535,4.48632698 C8.94575814,4.72524651 10.3072744,4.72173953 11.2897674,4.83552744" id="Shape"></path>
                        <path d="M7.96488372,5.38860465 C7.95281163,5.3658093 10.9257163,2.82642093 10.9257163,2.82642093 L7.56643721,4.63683023 L7.22688767,5.39305581 L7.96490395,5.38833488" id="Shape"></path>
                        <path d="M10.9255814,4.96372093 C9.68667442,5.22501767 7.76437907,5.5561707 6.5809093,5.93623256 C7.15974256,4.67075349 7.88739302,2.63414419 8.33682558,1.38289535 C8.10802233,2.494 7.69342349,4.00564186 7.62625814,5.0066814 C8.5537186,5.1343893 9.92420465,4.9689814 10.9256488,4.96372093" id="Shape"></path>
                        <path d="M7.47255814,5.52348837 C7.45232558,5.50912326 9.36396512,2.01158837 9.36396512,2.01158837 L6.80393953,5.04836047 L6.76158605,5.85071628 L7.47255814,5.52347488" id="Shape"></path>
                        <path d="M10.9255814,5.16604651 C9.59636977,5.51181419 7.52489302,5.96536744 6.2710814,6.44137209 C6.75255558,5.00263488 7.3034814,2.69612326 7.64446744,1.27896744 C7.52871023,2.53001395 7.25770186,4.23656279 7.30604419,5.3575814 C8.34060233,5.4598907 9.82607674,5.21552186 10.9256488,5.16603302" id="Shape"></path>
                        <path d="M7.10162791,6.3327907 C7.08153023,6.31235581 9.4846186,2.81333721 9.4846186,2.81333721 L6.43766279,5.65796744 L6.3091186,6.54583953 L7.10162791,6.33279744" id="Shape"></path>
                        <path d="M10.3995349,5.56395349 C9.09291628,5.97717651 7.0528,6.53686977 5.82731395,7.0747186 C6.23926233,5.62714651 6.67977907,3.31834186 6.9529186,1.89963488 C6.89613256,3.14204884 6.70613535,4.84293256 6.80659674,5.94810233 C7.84081767,5.9934907 9.3076107,5.67205605 10.3995619,5.56396023" id="Shape"></path>
                        <path d="M6.6227907,6.85209302 C6.59965814,6.83577209 8.43394186,2.96696977 8.43394186,2.96696977 L5.85874186,6.31296279 L5.8704093,7.20629767 L6.6227907,6.85208628" id="Shape"></path>
                        <path d="M9.90046512,6.09674419 C8.56194651,6.4018107 6.47967907,6.79287907 5.21062558,7.22882326 C5.75222419,5.81955814 6.40043488,3.55405116 6.80124186,2.16218605 C6.63190884,3.39603488 6.28831279,5.07601163 6.28801605,6.18590233 C7.31367186,6.31573465 8.80339512,6.11526372 9.90047186,6.09680488" id="Shape"></path>
                        <path d="M6.19116279,7.22302326 C6.17511163,7.19914884 9.15057907,4.1826093 9.15057907,4.1826093 L5.66181163,6.4338186 L5.37769256,7.28776744 L6.19117628,7.22295581" id="Shape"></path>
                        <path d="M9.30697674,6.6227907 C7.98106977,6.80075628 5.92355349,6.9926014 4.6574,7.31069767 C5.27297558,5.93002791 6.04535349,3.68846279 6.52230233,2.31156977 C6.28106279,3.55054419 5.8422186,5.22633953 5.77363023,6.35585581 C6.7673186,6.58953512 8.23444884,6.5329986 9.3069093,6.62281767" id="Shape"></path>
                        <path d="M5.6044186,6.91953488 C5.58263488,6.90125814 7.61803023,3.11520698 7.61803023,3.11520698 L4.88670233,6.31640233 L4.84414651,7.22288837 L5.6044186,6.91956186" id="Shape"></path>
                        <path d="M9.46883721,6.17093023 C8.02686279,6.76143093 5.77450698,7.58437674 4.42337674,8.31227674 C4.86643605,6.60033256 5.33350465,3.88836047 5.62323488,2.22173721 C5.57130465,3.66566744 5.3760807,5.65203256 5.49693651,6.92344651 C6.64162721,6.8875 8.26171558,6.38957674 9.46879,6.17086279" id="Shape"></path>
                        <path d="M5.32790698,8.0727907 C5.30457209,8.05242326 7.73807674,3.70707674 7.73807674,3.70707674 L4.55643953,7.40113721 L4.4685493,8.43272791 L5.32789349,8.07279744" id="Shape"></path>
                        <path d="M8.91581395,6.71046512 C7.50283953,7.37456512 5.29135349,8.31389535 3.97515814,9.10822558 C4.34116512,7.39648372 4.68660233,4.69820233 4.90160698,3.03980698 C4.91415116,4.4651907 4.80764698,6.43314419 4.98489767,7.67872791 C6.12587907,7.57788884 7.72074419,6.99486744 8.91581395,6.71039767" id="Shape"></path>
                        <path d="M4.8355814,8.73372093 C4.80914419,8.71854651 6.59433023,4.03538372 6.59433023,4.03538372 L3.96214186,8.23161628 L4.0289093,9.24877442 L4.8355814,8.7337614" id="Shape"></path>
                        <path d="M8.29534884,7.10162791 C6.88567907,7.77692326 4.67871163,8.73378837 3.36676512,9.53836977 C3.72204884,7.82480698 4.0504907,5.12564884 4.25497442,3.46664651 C4.27662326,4.89095116 4.18267,6.85836512 4.36800698,8.10165581 C5.50905581,7.99148279 7.10122326,7.39567442 8.29534884,7.10162791" id="Shape"></path>
                        <path d="M4.43767442,9.29348837 C4.41616047,9.27069302 7.15861628,5.15033256 7.15861628,5.15033256 L3.72791628,8.54144419 L3.56071442,9.56878605 L4.43766093,9.29350186" id="Shape"></path>
                        <path d="M8.1672093,6.88581395 C6.91036279,7.88914651 4.92204186,9.36403256 3.7886814,10.4664372 C3.78665814,8.73675581 3.55509651,6.07084651 3.41527605,4.43160465 C3.73064767,5.78893953 4.04366558,7.69525116 4.48382488,8.83798605 C5.59122023,8.44340395 7.0451993,7.46986047 8.16716209,6.8858814" id="Shape"></path>
                        <path d="M4.57255814,9.48906977 C4.54241163,9.48502326 4.88777465,4.52447209 4.88777465,4.52447209 L3.57683977,9.35115116 L3.94263093,10.2604023 L4.57253791,9.48913721" id="Shape"></path>
                        <path d="M7.80976744,7.3444186 C6.54927907,8.34134419 4.55563023,9.80597907 3.41808837,10.9025837 C3.42348372,9.17222791 3.2028814,6.50402558 3.06993326,4.86343488 C3.3795386,6.22299535 3.68450395,8.13173488 4.11973326,9.27723488 C5.22834256,8.88852023 6.68576116,7.92246279 7.80974721,7.34435116" id="Shape"></path>
                        <path d="M4.2555814,10.332093 C4.22752558,10.3202907 5.52355581,5.48126977 5.52355581,5.48126977 L3.32946977,9.94221163 L3.50259302,10.938193 L4.2555814,10.3321402" id="Shape"></path>
                        <path d="M7.66813953,7.45906977 C6.4769814,8.63255814 4.58051628,10.3737047 3.52747907,11.6346651 C3.34077302,9.85986512 2.81637209,7.1505907 2.49669767,5.48437209 C2.96757674,6.84116744 3.49470233,8.76164186 4.07153256,9.88387442 C5.17339767,9.35220326 6.5714,8.1867 7.66807209,7.45900233" id="Shape"></path>
                        <path d="M4.26232558,10.9525581 C4.23116744,10.9478372 4.49966698,5.7933907 4.49966698,5.7933907 L3.23250186,10.8061419 L3.62601837,11.7522837 L4.26231209,10.9525581" id="Shape"></path>
                        <path d="M7.29046512,8.3155814 C6.01567907,9.36956279 3.99653721,10.920186 2.85130698,12.0758698 C2.81144884,10.2785442 2.51368628,7.51046047 2.33338047,5.80836279 C2.68862372,7.21594186 3.05352465,9.19401163 3.53276651,10.377414 C4.66673395,9.9573793 6.14559907,8.93260698 7.29049209,8.3155814" id="Shape"></path>
                        <path d="M3.88465116,11.5393023 C3.85747209,11.5225767 5.68076279,6.68672558 5.68076279,6.68672558 L2.98733721,10.9862116 L3.05778698,12.0513209 L3.88462419,11.539336" id="Shape"></path>
                        <path d="M7.27023256,8.33581395 C6.14199767,9.52926512 4.34561628,11.3003558 3.34835349,12.5820884 C3.17017209,10.7830093 2.67123721,8.03731628 2.36714186,6.34870698 C2.8143893,7.72317209 3.31537442,9.66893721 3.86286744,10.8051977 C4.90693488,10.262837 6.23122326,9.07693256 7.27023256,8.33574651" id="Shape"></path>
                        <path d="M3.95209302,11.7888372 C3.92053023,11.7883921 3.73963093,6.65853488 3.73963093,6.65853488 L2.90888209,11.7682 L3.38517674,12.6563419 L3.95212674,11.7887698" id="Shape"></path>
                        <path d="M6.7172093,8.72023256 C5.62559535,9.92440698 3.88370698,11.7123581 2.92542558,13.0038023 C2.69455186,11.2042512 2.11551628,8.45977209 1.76212093,6.77190465 C2.24922651,8.14407674 2.80679535,10.0878186 3.38699767,11.2207744 C4.41366512,10.669127 5.7014,9.47086047 6.7172093,8.7203" id="Shape"></path>
                        <path d="M3.66209302,12.3013953 C3.63316047,12.2928302 4.23499814,7.08975814 4.23499814,7.08975814 L2.70690047,12.0193535 L3.01145442,13.0317233 L3.66212674,12.3014628" id="Shape"></path>
                        <path d="M6.48116279,8.92255814 C5.48315814,10.2265465 3.88053721,12.1746047 3.02227209,13.5524419 C2.65524674,11.7850605 1.86901628,9.11173256 1.38822326,7.46736512 C1.9785014,8.78477442 2.68243256,10.6637047 3.34754419,11.734007 C4.33030698,11.0853174 5.52443256,9.76807674 6.48116279,8.92255814" id="Shape"></path>
                        <path d="M3.64186047,12.7869767 C3.61198372,12.7856279 3.31117953,7.569 3.31117953,7.569 L2.6542014,12.7456349 L3.12733302,13.6575837 L3.64186047,12.7869767" id="Shape"></path>
                        <path d="M6.38,9.21930233 C5.44316512,10.5847302 3.93138837,12.6303767 3.13874419,14.0627744 C2.68061837,12.3023395 1.75551163,9.65167209 1.18926977,8.02106279 C1.84895907,9.31662093 2.65127442,11.1717442 3.37364419,12.2145977 C4.32828372,11.5098302 5.46144186,10.1208651 6.38006744,9.21930233" id="Shape"></path>
                        <path d="M3.9655814,13.2725581 C3.93637907,13.2629814 4.4965107,8.03111163 4.4965107,8.03111163 L3.00274093,12.9578744 L3.31770791,13.9890605 L3.96560837,13.2725581" id="Shape"></path>
                        <path d="M6.19116279,9.70488372 C5.38361395,11.1926512 4.06633953,13.4367116 3.40803953,14.971014 C2.79448721,13.2844279 1.63694884,10.7777488 0.927662791,9.23528605 C1.69953488,10.4316372 2.6634814,12.1644884 3.47487442,13.1009186 C4.35957674,12.2675395 5.3600093,10.7289884 6.19116279,9.70488372" id="Shape"></path>
                        <path d="M3.78348837,13.704186 C3.75415116,13.7123465 2.31865116,8.73358605 2.31865116,8.73358605 L2.81369465,13.9728744 L3.47368744,14.7117 L3.78345465,13.704186" id="Shape"></path>
                        <path d="M6.15744186,10.2848837 C5.31603721,11.7681326 3.94494419,14.0053814 3.25649767,15.5350977 C2.63924279,13.8536372 1.46942326,11.3545116 0.752718605,9.81670233 C1.53652791,11.0094791 2.51342326,12.7370698 3.33978837,13.6706 C4.25531163,12.8397163 5.29533256,11.3058186 6.15737442,10.2848837" id="Shape"></path>
                        <path d="M3.85093023,14.6416279 C3.81997442,14.6416414 3.3131286,9.41515349 3.3131286,9.41515349 L2.82903767,14.6421674 L3.35209651,15.5378628 L3.85093023,14.6415605" id="Shape"></path>
                        <path d="M6.24511628,10.7434884 C5.37997209,12.2068419 3.97306744,14.4115837 3.26000465,15.9249116 C2.6701514,14.229086 1.54111395,11.7026465 0.849565116,10.1481116 C1.61381628,11.3591651 2.56245349,13.1096186 3.3735093,14.0625721 C4.30225116,13.2533372 5.36675349,11.7440558 6.24511628,10.7434884" id="Shape"></path>
                        <path d="M3.80372093,15.0597674 C3.7729,15.0631395 2.83390698,9.92717209 2.83390698,9.92717209 L2.78649535,15.183793 L3.38165628,16.0113721 L3.80371419,15.0597674" id="Shape"></path>
                        <path d="M5.87418605,11.4853488 C4.94099302,12.8867907 3.43171163,14.9910442 2.64803721,16.4529814 C2.14013256,14.7186465 1.13369767,12.117414 0.517481395,10.5171535 C1.2225186,11.7795302 2.08597674,13.5932442 2.85002558,14.6010279 C3.81552326,13.8572116 4.94989535,12.4237349 5.87425349,11.4853488" id="Shape"></path>
                        <path d="M3.35186047,15.6330233 C3.32171395,15.6247953 3.78586233,10.3867209 3.78586233,10.3867209 L2.35622977,15.3613674 L2.70161302,16.3752884 L3.35184023,15.6330233" id="Shape"></path>
                        <path d="M5.92813953,11.6134884 C5.13036977,13.1312 3.82503256,15.4247628 3.18150233,16.9824 C2.5155207,15.3283884 1.27343721,12.8807884 0.51222093,11.3746093 C1.33042558,12.533193 2.35722791,14.218093 3.21043488,15.1158791 C4.10134186,14.2468907 5.09617674,12.6701674 5.92813953,11.6134884" id="Shape"></path>
                        <path d="M3.17651163,16.0713953 C3.1465,16.0807698 1.56653953,11.1818605 1.56653953,11.1818605 L2.18624256,16.3813581 L2.87981465,17.0888907 L3.17657233,16.0713953" id="Shape"></path>
                        <path d="M5.71232558,12.0046512 C5.15526256,13.6702628 4.21525116,16.2089767 3.81599535,17.8800512 C2.91173488,16.4005116 1.32105116,14.2671233 0.345302326,12.9536256 C1.32489535,13.9131884 2.58895814,15.3441698 3.56383023,16.0398326 C4.31014186,14.991314 5.05227209,13.2246744 5.71232558,12.0046512" id="Shape"></path>
                        <path d="M4.60627907,16.4693023 C4.57653721,16.4798907 2.86297442,11.6472767 2.86297442,11.6472767 L3.62479767,16.8184488 L4.33745581,17.4978581 L4.60623186,16.4693023" id="Shape"></path>
                        <path d="M5.69883721,12.5172093 C5.15379233,14.188486 4.23211163,16.7369116 3.84492791,18.4120326 C2.93001163,16.9421372 1.32388372,14.8256093 0.338625581,13.5224302 C1.32516512,14.471607 2.59954651,15.8892349 3.57947674,16.5745791 C4.31823488,15.5183047 5.0476186,13.7440442 5.69883721,12.5172093" id="Shape"></path>
                        <path d="M4.61976744,17.292093 C4.59137442,17.3072 2.37678605,12.7825256 2.37678605,12.7825256 L3.683,17.7898814 L4.46249302,18.3530412 L4.61980116,17.2920458" id="Shape"></path>
                        <path d="M5.53023256,12.9353488 C5.18176047,14.6703581 4.56055349,17.3289163 4.36908605,19.0451767 C3.2923093,17.7190674 1.45553023,15.8509953 0.328239535,14.7003023 C1.41607674,15.499893 2.84348372,16.722614 3.89443023,17.2616093 C4.50581093,16.1085558 5.02536279,14.2450023 5.53023256,12.9353488" id="Shape"></path>
                        <path d="M4.76813953,18.0002326 C4.73752093,18.0063023 3.55863721,12.9435093 3.55863721,12.9435093 L3.75806953,18.1934535 L4.39128116,18.9788814 L4.7681193,18.0003" id="Shape"></path>
                        <path d="M5.53697674,13.4748837 C5.35263116,15.248807 4.98360953,17.9787186 4.95331465,19.7127163 C3.76175186,18.5377442 1.76574256,16.9256814 0.540391395,15.9321279 C1.69398442,16.5815188 3.22376814,17.6063721 4.3165286,18.0013791 C4.81581419,16.771307 5.15793326,14.8464488 5.53702395,13.4748837" id="Shape"></path>
                        <path d="M4.82883721,18.3711628 C4.80496279,18.3944977 1.63168837,14.7205349 1.63168837,14.7205349 L4.04084651,19.1420233 L4.92116512,19.4428207 L4.82883721,18.3711695" id="Shape"></path>
                        <path d="M5.6044186,14.0953488 C5.41308605,15.8680581 5.0333007,18.5956093 4.9961807,20.3293372 C3.80920395,19.1476884 1.8193993,17.5243628 0.597892326,16.5239302 C1.74899,17.179836 3.27479465,18.2133488 4.3660714,18.614493 C4.87022628,17.3873884 5.21988535,15.4646209 5.60443884,14.0953488" id="Shape"></path>
                        <path d="M5.18627907,19.214186 C5.15862791,19.230507 2.73065349,14.8136047 2.73065349,14.8136047 L4.2733186,19.7532488 L5.07924884,20.2803474 L5.1862993,19.2142265" id="Shape"></path>
                        <path d="M5.74604651,14.8237209 C5.62936535,16.607086 5.36461558,19.356286 5.40020465,21.0913628 C4.16608605,19.9823488 2.11234651,18.4805535 0.851318605,17.5547116 C2.02763953,18.1404442 3.59363953,19.080786 4.69948372,19.4155674 C5.15121605,18.1585186 5.41962791,16.215586 5.74604651,14.8237209" id="Shape"></path>
                        <path d="M5.49651163,20.0234884 C5.47162558,20.0452721 2.46250465,16.1765372 2.46250465,16.1765372 L4.67500233,20.7422837 L5.54149535,21.0986802 L5.49651163,20.0234547" id="Shape"></path>
                        <path d="M5.77976744,15.6465116 C5.67382302,17.4310233 5.42563698,20.1827186 5.47165256,21.9176605 C4.23105953,20.8193023 2.16848512,19.3353116 0.902129302,18.4203279 C2.08175488,18.9958767 3.65328512,19.9226628 4.76101767,20.2478674 C5.20512907,18.9867721 5.46187349,17.0413442 5.77979442,15.6465116" id="Shape"></path>
                        <path d="M5.77302326,20.6776744 C5.74422558,20.6909605 3.64570465,16.0396977 3.64570465,16.0396977 L4.82296977,21.117193 L5.58823256,21.7269416 L5.77302326,20.6776812" id="Shape"></path>
                        <path d="M5.86069767,16.1793023 C5.92159767,17.9698837 5.93126209,20.7422163 6.1382614,22.4628605 C4.80534047,21.536614 2.62116837,20.3372279 1.27968233,19.5971209 C2.50348233,20.0111465 4.14872651,20.7220512 5.27790558,20.8965907 C5.60122186,19.5815419 5.67495605,17.6105535 5.86068419,16.1793698" id="Shape"></path>
                        <path d="M6.14395349,20.4955814 C6.12601395,20.5249186 2.25822326,17.8351349 2.25822326,17.8351349 L5.55235349,21.4651256 L6.46787674,21.5124023 L6.14388605,20.4955814" id="Shape"></path>
                        <path d="M5.98209302,16.3681395 C6.13668326,18.150493 6.29138814,20.9133163 6.58865837,22.6204721 C5.20549326,21.7476395 2.95570023,20.634714 1.57374907,19.9476837 C2.82088395,20.3141156 4.50544674,20.9605256 5.64528163,21.0917674 C5.90024558,19.7688279 5.87100953,17.8015488 5.98212,16.3680721" id="Shape"></path>
                        <path d="M6.56209302,21.4869767 C6.53828605,21.5096372 3.32447907,17.7653326 3.32447907,17.7653326 L5.77666512,22.2338953 L6.66285116,22.5569351 L6.56206605,21.48697" id="Shape"></path>
                        <path d="M6.26534884,17.0493023 C6.49469163,18.8241698 6.7655786,21.580586 7.13393256,23.2716233 C5.71886744,22.4812721 3.43009302,21.5027581 2.02406512,20.8982767 C3.28219302,21.1899291 4.98806744,21.7355 6.1293186,21.7982209 C6.32746953,20.4585558 6.2152193,18.491007 6.26536907,17.0493023" id="Shape"></path>
                        <path d="M7.20953488,22.114186 C7.19125814,22.1432535 3.35354651,19.3893326 3.35354651,19.3893326 L6.60606512,23.0728721 L7.52152093,23.1357953 L7.20953488,22.114186" id="Shape"></path>
                        <path d="M6.38674419,17.8046512 C6.73234326,19.5586791 7.18437907,22.2908163 7.66240698,23.9477953 C6.20444884,23.291006 3.86623953,22.5287512 2.42966047,22.0570628 C3.69857907,22.2297477 5.42913721,22.6140584 6.56681395,22.5687577 C6.67469395,21.2096693 6.43259791,19.2517647 6.38671721,17.8045972" id="Shape"></path>
                        <path d="M7.6344186,22.6537209 C7.61034186,22.6758419 4.44509302,18.8729977 4.44509302,18.8729977 L6.83853721,23.3849256 L7.72087907,23.7247449 L7.63447256,22.6537681" id="Shape"></path>
                        <path d="M6.59581395,18.2902326 C7.10199209,19.9960395 7.80511395,22.6645791 8.43313256,24.2557349 C6.93025814,23.794736 4.54726744,23.3461465 3.08276744,23.067207 C4.35343953,23.0699047 6.10018372,23.2222895 7.22066279,23.0248535 C7.19982326,21.6528837 6.77686163,19.7295767 6.59577349,18.2902326" id="Shape"></path>
                        <path d="M7.80302326,22.6604651 C7.79627907,22.6953326 3.34754419,21.7060279 3.34754419,21.7060279 L7.58464651,23.8124395 L8.44055116,23.4903305 L7.80308395,22.6604584" id="Shape"></path>
                        <path d="M6.88581395,18.8230233 C7.38532209,20.5313256 8.07798372,23.2032372 8.69986512,24.7975628 C7.19847442,24.3281674 4.81683256,23.8661907 3.35314186,23.5790907 C4.62401628,23.5890047 6.37062558,23.7512091 7.49204884,23.5601395 C7.47667209,22.1883721 7.06124372,20.2631093 6.88582744,18.8230233" id="Shape"></path>
                        <path d="M8.53139535,23.1325581 C8.5181093,23.1641209 4.26846279,21.073693 4.26846279,21.073693 L8.09187674,24.1732535 L9.00793953,24.0874135 L8.53134814,23.1325716" id="Shape"></path>
                        <path d="M6.66325581,19.1197674 C7.50992093,20.6764605 8.74781628,23.1312767 9.6897093,24.5489047 C8.1278907,24.4297147 5.70989767,24.5169372 4.2232093,24.5673163 C5.4636,24.2895435 7.19962093,24.0530451 8.2521186,23.6126093 C7.94808395,22.2753047 7.13764186,20.4875558 6.66325581,19.1197674" id="Shape"></path>
                        <path d="M9.20581395,23.597907 C9.1975186,23.6321674 4.77616512,22.3745116 4.77616512,22.3745116 L8.93341628,24.7285023 L9.80759767,24.4615337 L9.20577349,23.5979407" id="Shape"></path>
                        <path d="M7.12186047,19.7806977 C7.97763023,21.3313209 9.22995814,23.7775047 10.1800116,25.1882535 C8.61866512,25.082127 6.2031,25.1896023 4.71789535,25.2527279 C5.95558837,24.964306 7.68877674,24.7130244 8.7377,24.2634233 C8.42551163,22.9277372 7.60447442,21.1455186 7.12192791,19.7807651" id="Shape"></path>
                        <path d="M9.7655814,23.962093 C9.7498,23.9918349 5.63780233,21.4927767 5.63780233,21.4927767 L9.24432326,24.9441814 L10.1717163,24.9533535 L9.76558814,23.9620256" id="Shape"></path>
                        <path d="M7.46581395,20.1718605 C8.45693953,21.6191628 9.92447442,23.9148837 10.9945744,25.2092279 C9.45076279,25.306034 7.08861163,25.7290293 5.6359814,25.9858884 C6.82363256,25.5346484 8.5015186,25.0561349 9.48812558,24.4675023 C9.05180372,23.1654698 8.0723186,21.480907 7.46581395,20.1718605" id="Shape"></path>
                        <path d="M10.0690698,24.3262791 C10.0677209,24.3625628 5.61345581,24.2212856 5.61345581,24.2212856 L10.0215233,25.5239251 L10.8053326,25.0369477 L10.0690023,24.3262453" id="Shape"></path>
                        <path d="M12.652093,2.73813953 C12.6525314,2.72424651 15.857807,2.20333233 15.857807,2.20333233 L12.668414,2.27772744 L12.1119984,2.5635393 L12.6521133,2.73813953" id="Shape"></path>
                        <path d="M14.4123256,3.41930233 C13.4822349,3.13824512 12.0767465,2.66746047 11.1220395,2.45994186 C12.1365674,2.05670023 13.638093,1.3414186 14.562114,0.902709302 C13.8512093,1.34769744 12.8175279,1.91946279 12.2665279,2.3655907 C12.7988128,2.72714651 13.7649512,3.09585116 14.412393,3.41930233" id="Shape"></path>
                        <path d="M12.5104651,2.84604651 C12.507093,2.83262558 15.6118465,1.99405349 15.6118465,1.99405349 L12.3987814,2.40362791 L11.9142116,2.73623093 L12.5104584,2.84604651" id="Shape"></path>
                        <path d="M14.5606977,3.64860465 C13.4739395,3.54622116 11.8071814,3.3377786 10.7348558,3.32706884 C11.5428093,2.61164558 12.6754953,1.41468744 13.3732488,0.67984093 C12.8935214,1.37044558 12.1559233,2.28691302 11.8379349,2.94008744 C12.5665767,3.23256256 13.7362884,3.42836651 14.5606977,3.64856419" id="Shape"></path>
                        <path id="Shape"></path>
                        <path d="M13.7446512,3.77 C12.7564256,3.5810414 11.2548326,3.2518307 10.2552093,3.13458977 C11.2049256,2.66841814 12.5891023,1.8662107 13.4410953,1.37402 C12.8049702,1.85451628 11.8663953,2.48188744 11.3916047,2.95020372 C11.9933749,3.24843837 13.0337465,3.51743698 13.7446512,3.77002698" id="Shape"></path>
                        <path d="M11.0806977,3.03488372 C11.0725372,3.02274419 13.9179767,1.8137814 13.9179767,1.8137814 L10.8103233,2.63407674 L10.4379363,3.01237837 L11.0806977,3.03483651" id="Shape"></path>
                        <path d="M13.6502326,4.12744186 C12.8278465,3.78780465 11.5678977,3.21245814 10.7542791,2.97303953 C11.384267,2.3869293 12.2720581,1.35976279 12.8189442,0.72972093 C12.4386058,1.35931093 11.8572907,2.1733814 11.6005395,2.79775814 C12.1466567,3.26260791 13.0297674,3.71887907 13.6502326,4.1275093" id="Shape"></path>
                        <path d="M11.2425581,3.24395349 C11.2364884,3.22493488 13.4500651,2.28735814 13.4500651,2.28735814 L11.0461,2.61671047 L10.7505226,3.04515512 L11.2425851,3.24394" id="Shape"></path>
                        <path d="M9.39465116,23.9148837 C9.39667442,23.9502233 4.8198,23.949414 4.8198,23.949414 L9.45217907,25.0819651 L10.2121814,24.5839609 L9.39465116,23.9148905" id="Shape"></path>
                        <path d="M10.2174419,24.2116279 C10.2120465,24.2451465 5.57103488,23.1309395 5.57103488,23.1309395 L10.0329209,25.318214 L10.9072372,25.0368937 L10.2174419,24.2116077" id="Shape"></path>
                        <path d="M10.9795349,24.5218605 C10.9795281,24.5569302 6.36671395,24.2893277 6.36671395,24.2893277 L10.9793326,25.6797765 L11.7702233,25.2314298 L10.9796023,24.521874" id="Shape"></path>
                        <path d="M8.05255814,21.2644186 C9.2526186,22.5870209 11.0504837,24.6945116 12.3096907,25.8607163 C10.7601465,26.0948002 8.42679302,26.7211395 6.99136047,27.1031977 C8.13213953,26.5554686 9.76544651,25.9368581 10.6839372,25.2732302 C10.0651649,24.042214 8.84459535,22.4870047 8.05255814,21.264486" id="Shape"></path>
                        <path d="M11.6134884,24.757907 C11.6050581,24.7902116 7.00255581,23.2490302 7.00255581,23.2490302 L11.3353581,25.8252419 L12.2430581,25.6338688 L11.6134884,24.7578665" id="Shape"></path>
                        <path d="M8.47744186,21.567907 C9.78534186,22.7607512 11.7579488,24.6755605 13.1070558,25.7027 C11.6223233,26.1302679 9.41528837,27.0516721 8.05721163,27.6151488 C9.11085581,26.9199581 10.6367279,26.0923791 11.4617442,25.3070186 C10.7296628,24.1355535 9.3773186,22.7094953 8.47744186,21.567907" id="Shape"></path>
                        <path d="M11.9911628,25.0411628 C11.9983116,25.0767047 7.61587209,25.9015186 7.61587209,25.9015186 L12.2263326,26.2157167 L12.8772409,25.5730026 L11.9911898,25.0411898" id="Shape"></path>
                        <path d="M11.0806977,24.7646512 C11.0854186,24.7997884 6.5171093,25.1148026 6.5171093,25.1148026 L11.2256977,25.9239026 L11.9468535,25.3750877 L11.0806302,24.7646309" id="Shape"></path>
                        <path d="M11.9237209,25.0074419 C11.9203488,25.0412302 7.20494884,24.2509465 7.20494884,24.2509465 L11.8225581,26.1231326 L12.6740791,25.7823893 L11.9236535,25.0074149 L11.9237209,25.0074419 L11.9237209,25.0074419 Z" id="Shape"></path>
                        <path d="M12.7060465,25.2637209 C12.7087442,25.2986558 8.08452558,25.3502893 8.08452558,25.3502893 L12.7927767,26.4178265 L13.5484628,25.9163693 L12.7060465,25.2637209 L12.7060465,25.2637209 L12.7060465,25.2637209 Z" id="Shape"></path>
                        <path d="M9.53627907,22.2153488 C10.8333884,23.4508163 12.7860326,25.4272674 14.1304186,26.5027628 C12.6014442,26.843007 10.3194814,27.6283674 8.91547674,28.1081488 C10.0129581,27.4834956 11.5966953,26.754186 12.463593,26.0293209 C11.7535651,24.8450419 10.418486,23.379193 9.53621163,22.2153488 L9.53627907,22.2153488 L9.53627907,22.2153488 Z" id="Shape"></path>
                        <path d="M13.3602326,25.4525581 C13.3541628,25.4854023 8.64476512,24.2668628 8.64476512,24.2668628 L13.1627628,26.535607 L14.0544116,26.2822144 L13.3602326,25.4525447 L13.3602326,25.4525581 L13.3602326,25.4525581 Z" id="Shape"></path>
                        <path d="M9.98813953,22.4851163 C11.3831744,23.5838116 13.4957907,25.3561837 14.9194209,26.286814 C13.4696233,26.8154435 11.3359651,27.8861302 10.0228047,28.5414628 C11.0222256,27.7758628 12.4830837,26.8457047 13.2475372,26.005986 C12.4289279,24.8888791 10.9720488,23.560814 9.98813953,22.4851163 L9.98813953,22.4851163 L9.98813953,22.4851163 Z" id="Shape"></path>
                        <path d="M13.7581395,25.7088372 C13.7679186,25.7438395 9.45575349,26.8682977 9.45575349,26.8682977 L14.0809837,26.8635767 L14.6823898,26.1780302 L13.7580991,25.709107 L13.7581395,25.7088372 L13.7581395,25.7088372 Z" id="Shape"></path>
                    </g>
                    <polygon id="star" stroke="#000000" stroke-width="0.298846" fill="#FEDF00" points="28.9991907 30.9682907 25.484593 33.3972093 26.8025419 29.5109395 23.7272605 27.0819535 27.681107 27.0819535 28.9990558 23.1956837 30.3170047 27.0819535 34.2708512 27.0819535 31.1956372 29.5109395 32.513586 33.3972093"></polygon>
                </g>
            </g>
        </g>
    </g>
</svg>