<?xml version="1.0" encoding="UTF-8" standalone="no"?>
<svg width="180px" height="180px" viewBox="0 0 180 180" version="1.1" xmlns="http://www.w3.org/2000/svg" xmlns:xlink="http://www.w3.org/1999/xlink">
    <!-- Generator: Sketch 3.8.3 (29802) - http://www.bohemiancoding.com/sketch -->
    <title>peru</title>
    <desc>Created with Sketch.</desc>
    <defs></defs>
    <g id="Page-1" stroke="none" stroke-width="1" fill="none" fill-rule="evenodd">
        <g id="flags" transform="translate(-2070.000000, -4500.000000)">
            <g id="peru" transform="translate(2070.000000, 4500.000000)">
                <path d="M130.000007,170.644801 C159.634374,155.917774 180,125.337212 180,90 C180,54.662788 159.634374,24.0822257 130.000007,9.35519916 L130,170.644804 L130,170.644804 L130.000007,170.644801 L130.000007,170.644801 L130.000007,170.644801 Z M49.9999927,9.35519916 C20.3656263,24.0822257 0,54.662788 0,90 C0,125.337212 20.3656263,155.917774 49.9999927,170.644801 L50,9.35519552 L50,9.35519552 L49.9999927,9.35519916 L49.9999927,9.35519916 L49.9999927,9.35519916 Z" id="red" fill="#E94B35"></path>
                <path d="M91.0075534,179.994476 C105.001756,179.840973 118.22944,176.493546 129.996018,170.646783 L129.996011,9.35321306 C117.947418,3.36631885 104.366832,0 90,0 C75.6309721,0 62.048431,3.36734784 49.9984583,9.35596171 L49.9984656,170.644042 C61.7664198,176.492498 74.9960544,179.840949 88.9924466,179.994476 L91.0075786,179.994476 L91.0075786,179.994476 L91.0075534,179.994476 L91.0075534,179.994476 L91.0075534,179.994476 Z" id="white" fill="#FFFFFF"></path>
            </g>
        </g>
    </g>
</svg>