<?xml version="1.0" encoding="UTF-8" standalone="no"?>
<svg width="180px" height="180px" viewBox="0 0 180 180" version="1.1" xmlns="http://www.w3.org/2000/svg" xmlns:xlink="http://www.w3.org/1999/xlink">
    <!-- Generator: Sketch 3.8.3 (29802) - http://www.bohemiancoding.com/sketch -->
    <title>philippines</title>
    <desc>Created with Sketch.</desc>
    <defs></defs>
    <g id="Page-1" stroke="none" stroke-width="1" fill="none" fill-rule="evenodd">
        <g id="flags" transform="translate(-2340.000000, -4500.000000)">
            <g id="philippines" transform="translate(2340.000000, 4500.000000)">
                <circle id="white" fill="#FFFFFF" cx="90" cy="90" r="90"></circle>
                <path d="M31.7193952,22.1257907 L129.023438,90 L180,90 C180,40.2943701 139.928251,0 90.4972376,0 C68.0012059,0 47.4436238,8.34559249 31.7193952,22.1257907 C31.7193952,22.1257907 47.4436238,8.34559249 31.7193952,22.1257907 L31.7193952,22.1257907 L31.7193952,22.1257907 L31.7193952,22.1257907 Z" id="blue" fill="#227FBB"></path>
                <path d="M31.7193952,111.673207 L129.023438,179.547416 L180,179.547416 C180,133.250259 145.235516,95.1178957 100.524229,90.1058838 L81.4651388,90 C62.5179739,91.9092486 45.3126476,99.760526 31.7193952,111.673207 C31.7193952,111.673207 45.3126476,99.760526 31.7193952,111.673207 L31.7193952,111.673207 L31.7193952,111.673207 L31.7193952,111.673207 Z" id="red" fill="#E94B35" transform="translate(105.859698, 134.773708) scale(1, -1) translate(-105.859698, -134.773708) "></path>
                <path d="M63.1562458,81.0195846 L75.1550923,71.5639957 L75.66002,66.5497497 L70.645774,67.0546774 L61.1596243,79.1842218 C60.8020431,78.9161721 60.4307233,78.6654518 60.0469109,78.433307 L68.7405934,67.0995269 L66.0798706,66.7818036 L59.0175595,77.8703819 C57.2232164,76.9883999 55.2045017,76.4930684 53.0700961,76.4930684 C45.6142516,76.4930684 39.5700961,82.5372239 39.5700961,89.9930684 C39.5700961,92.6379757 40.3307075,95.1052325 41.645129,97.1880376 L40.9983946,96.5413031 L29.8040621,103.670969 L30.1217854,106.331692 L41.7763745,97.3919298 C41.9228577,97.6150704 42.0757759,97.8336086 42.2348653,98.0472805 L30.0546774,107.645774 L29.5497497,112.66002 L34.5639957,112.155092 L44.0445854,100.032657 C45.5220971,101.361798 47.2945726,102.369468 49.251884,102.945539 L46.428492,115.673725 L48.5345714,117.330476 L50.3936436,103.227778 C50.6557088,103.280486 50.9205199,103.325605 51.1878381,103.362897 L49.4163153,118.307125 L52.6048848,122.20977 L55.7934544,118.307125 L53.9781599,103.463011 C54.2185686,103.447044 54.4572561,103.424784 54.6940591,103.396393 L56.5335942,117.350885 L58.6396736,115.694135 L55.8687766,103.202603 C57.2864941,102.903724 58.6222196,102.382379 59.8377271,101.676792 L66.6709691,112.405708 L69.3316918,112.087984 L60.8483476,101.028418 C61.0687241,100.872802 61.2842324,100.71075 61.4945992,100.542538 L70.645774,112.155092 L75.66002,112.66002 L75.1550923,107.645774 L63.5171485,98.5440903 C63.77421,98.230401 64.0174212,97.9049245 64.2458478,97.5685948 L75.7746474,106.411869 L76.0923707,103.751146 L64.8980383,96.6214802 L64.7468829,96.7726356 C65.4178025,95.6195683 65.9228215,94.3580636 66.2292439,93.0208177 L78.6737248,95.7812777 L80.3304756,93.6751983 L66.4441679,91.8446515 C66.4805518,91.5793915 66.5092298,91.3116756 66.5299688,91.0417367 L81.3071245,92.7934544 L85.2097697,89.6048848 L81.3071245,86.4163153 L66.456327,88.2324272 C66.3961564,87.7704474 66.3126296,87.3158054 66.2069704,86.8697248 L80.4726586,84.9891666 L78.8159078,82.8830872 L65.8899305,85.7503537 C65.5158107,84.6193043 64.9961891,83.5545008 64.3532372,82.5781147 L75.4057076,75.5388006 L75.0879843,72.8780779 L63.6721261,81.6347192 C63.5061933,81.4245322 63.3341436,81.2193978 63.1562458,81.0195846 C63.1562458,81.0195846 63.3341436,81.2193978 63.1562458,81.0195846 L63.1562458,81.0195846 L63.1562458,81.0195846 L63.1562458,81.0195846 Z M52.6048848,57 L55.7934544,60.9026452 L53.9477496,76.4726581 L51.3203805,76.4726581 L49.4163153,60.9026452 L52.6048848,57 L52.6048848,57 L52.6048848,57 L52.6048848,57 L52.6048848,57 Z M56.6751983,61.8792941 L58.7812777,63.5360449 L55.9071244,76.4930684 L54.748754,76.4930684 L56.6751983,61.8792941 L56.6751983,61.8792941 L56.6751983,61.8792941 L56.6751983,61.8792941 L56.6751983,61.8792941 Z M48.6761754,61.8588843 L46.5700961,63.5156351 L49.4442493,76.4726586 L50.6026197,76.4726586 L48.6761754,61.8588843 L48.6761754,61.8588843 L48.6761754,61.8588843 L48.6761754,61.8588843 L48.6761754,61.8588843 Z M20,89.6048848 L23.9026452,86.4163153 L39.4726581,88.26202 L39.4726581,90.8893892 L23.9026452,92.7934544 L20,89.6048848 L20,89.6048848 L20,89.6048848 L20,89.6048848 L20,89.6048848 Z M29.5497497,66.5497497 L34.5639957,67.0546774 L44.2685471,79.3694495 L42.4107165,81.22728 L30.0546774,71.5639957 L29.5497497,66.5497497 L29.5497497,66.5497497 L29.5497497,66.5497497 L29.5497497,66.5497497 L29.5497497,66.5497497 Z M24.8792941,85.5345714 L26.5360449,83.428492 L39.4930684,86.3026453 L39.4930684,87.4610156 L24.8792941,85.5345714 L24.8792941,85.5345714 L24.8792941,85.5345714 L24.8792941,85.5345714 L24.8792941,85.5345714 Z M35.8780779,67.1217854 L38.5388006,66.8040621 L45.6684665,77.9983946 L44.849375,78.8174861 L35.8780779,67.1217854 L35.8780779,67.1217854 L35.8780779,67.1217854 L35.8780779,67.1217854 L35.8780779,67.1217854 Z M30.112754,73.5111513 L29.7950307,76.1718741 L40.9893632,83.30154 L41.8084547,82.4824484 L30.112754,73.5111513 L30.112754,73.5111513 L30.112754,73.5111513 L30.112754,73.5111513 L30.112754,73.5111513 Z M24.7371111,94.4354141 L26.3938619,96.5414935 L39.3508854,93.6673402 L39.3508854,92.5089699 L24.7371111,94.4354141 L24.7371111,94.4354141 L24.7371111,94.4354141 L24.7371111,94.4354141 L24.7371111,94.4354141 Z M35.6687881,112.285148 L38.3295109,112.602872 L45.4591768,101.408539 L44.6400852,100.589448 L35.6687881,112.285148 L35.6687881,112.285148 Z M32.5540239,38.1384004 L29.5873698,40.6928619 L29.3062652,37.0413997 L25.8904842,35.3173325 L29.5631815,33.7895053 L30.418767,30.1695123 L32.9697235,32.876726 L36.9142865,32.3635163 L34.8181654,35.5644912 L36.4004527,38.8673018 L32.5540239,38.1384004 L32.5540239,38.1384004 Z M111.706339,93.25 L108.179628,94.9495937 L108.85317,91.3497968 L106,88.8004067 L109.942984,88.2752029 L111.706339,85 L113.469696,88.2752037 L117.412679,88.8004093 L114.559508,91.3497975 L115.23305,94.9495937 L111.706339,93.25 L111.706339,93.25 Z M33.4901426,147.721614 L31.458059,151.067798 L30.0623486,147.681917 L26.280982,147.097766 L29.3017999,144.50979 L28.9968707,140.802582 L32.2595497,142.589006 L35.8524612,140.881977 L34.8480876,144.574023 L37.3735568,147.226229 L33.4901426,147.721614 L33.4901426,147.721614 Z" id="emblem" fill="#F2C500"></path>
            </g>
        </g>
    </g>
</svg>