<?xml version="1.0" encoding="UTF-8" standalone="no"?>
<svg width="180px" height="180px" viewBox="0 0 180 180" version="1.1" xmlns="http://www.w3.org/2000/svg" xmlns:xlink="http://www.w3.org/1999/xlink">
    <!-- Generator: Sketch 3.8.3 (29802) - http://www.bohemiancoding.com/sketch -->
    <title>pitcairn_islands</title>
    <desc>Created with Sketch.</desc>
    <defs></defs>
    <g id="Page-1" stroke="none" stroke-width="1" fill="none" fill-rule="evenodd">
        <g id="flags" transform="translate(-2610.000000, -4500.000000)">
            <g id="pitcairn_islands" transform="translate(2610.000000, 4500.000000)">
                <circle id="blue" fill="#227FBB" cx="90" cy="90" r="90"></circle>
                <g id="UK-corner">
                    <path d="M58.6665316,5.60442783 L41.3956444,14.2398718 C16.4947453,30.2482972 0,58.1978704 0,90 L18,90 L18,64.0623044 L69.8753928,90 L90,90 L90,79.937694 L47.124612,58.5 L90,58.5 L90,31.5 L47.1246106,31.5 L90,10.062306 L90,0 C78.9808284,0 68.424181,1.98030051 58.6665316,5.60442783 L58.6665316,5.60442783 Z" id="white" fill="#FFFFFF"></path>
                    <path d="M17.9934072,35.9999997 L90,36 L90,54 L12,53.9999997 L12,89.9999997 L0,89.9999998 C4.3896494e-08,69.7390927 6.69500614,51.041889 17.9934072,35.9999997 L17.9934072,35.9999997 L17.9934072,35.9999997 Z M75.9120161,1.09619155 L24.8567236,27.9002201 C23.7407294,29.0705605 22.6559518,30.2709324 21.6037269,31.5 L30,31.5 L90,0 L89.9925529,0 C85.2024043,0.000387862029 80.4996778,0.374999182 75.9120161,1.09619155 L75.9120161,1.09619155 L75.9120161,1.09619155 Z M28,58.5 L40,58.5 L90,84 L90,90 L28,58.5 L28,58.5 Z" id="red" fill="#E94B35"></path>
                </g>
                <g id="emblem" transform="translate(97.333333, 56.666667)">
                    <path d="M18.8636364,46.6818182 C16.4393939,48.7348485 14.1287879,51.7348485 13.5606061,54.4469697 C11.9621212,62.0757576 9.84090909,63.7727273 6.56818182,62.1363636 C6.56818182,66.2348485 10.1590909,66.5454545 11.7348485,64.1515152 C11.7348485,67.9924242 13.1287879,71.3257576 16.2727273,74.1666667 C17.5984848,75.3636364 17.8484848,74.5454545 17.219697,73.219697 C16.5909091,71.8939394 16.5909091,67.6136364 15.3333333,65.1590909 C17.3484848,66.6060606 20.3106061,65.7878788 20.0606061,61.8181818 C17.4772727,63.3333333 14.9090909,63.2727273 14.6439394,59.6742424 C14.3181818,55.4545455 15.9621212,49.3257576 18.8636364,46.6818182 L18.8636364,46.6818182 Z" id="Shape" fill="#F2C500"></path>
                    <path d="M15.7954545,16.3409091 C15.969697,14.8257576 15.6439394,13.2727273 14.5378788,12.2954545 C12.4015152,10.4166667 10.3106061,11.0378788 8.75,12.5530303 C6.41666667,11.2954545 5.18181818,15.7575758 2.53787879,15.0075758 C2.97727273,16.4545455 3.67424242,17.0833333 4.99242424,16.5833333 C3.60606061,17.8409091 4.99242424,19.3560606 3.35606061,20.8636364 C6.31818182,21.8106061 7.89393939,20.1742424 7.76515152,17.3333333 C8.90151515,18.3409091 10.6590909,18.280303 11.6060606,17.1439394 C10.030303,16.6363636 10.0227273,15.2727273 10.6590909,13.9924242 C11.6060606,12.1060606 16.0454545,12.1818182 15.7954545,16.3409091 L15.7954545,16.3409091 Z" id="Shape" fill="#F2C500"></path>
                    <path d="M22.6287879,38.2575758 C19.2878788,40.0227273 13.1818182,39.2651515 12.6136364,34.9166667 C12.0454545,30.5681818 16.2651515,28.6136364 17.4015152,28.0530303 C19.1666667,27.1666667 20.5530303,28.7424242 19.9848485,30.5757576 C21.9393939,29.8863636 22.3787879,27.6136364 21.4318182,26.2954545 C24.0151515,26.4848485 26.4090909,24.530303 27.4166667,21.7575758 C26.5075758,22.6212121 24.0378788,22.0378788 22.0075758,21.9090909 C22.6363636,21.219697 22.6287879,19.8712121 22.4393939,19.1742424 C20.3030303,21.3712121 17.2121212,20.3636364 13.1212121,26.7272727 C13.75,24.5227273 14.9469697,20.1136364 15.6439394,17.2121212 C15.7121212,16.9242424 15.7651515,16.6363636 15.8030303,16.3409091 C16.0454545,12.1818182 11.6136364,12.1060606 10.6666667,14 C11.7045455,15.1666667 11.1590909,16.530303 10.7878788,18.5984848 C10.3484848,21.0530303 9.40151515,26.7272727 8.58333333,28.6136364 C8.33333333,25.6515152 6.37878788,25.4621212 6,24.0151515 C5.43181818,24.3939394 5.12121212,25.4015152 5.24242424,26.0909091 C4.54545455,25.3333333 2.15151515,26.280303 1.27272727,25.1439394 C0.325757576,27.030303 1.84090909,28.9242424 3.41666667,29.7424242 C2.5,29.8030303 2.28030303,30.9090909 1.27272727,30.9090909 C2.62878788,32.4848485 4.01515152,33.1136364 5.62121212,33.2424242 C7.22727273,33.3712121 8.42424242,33.969697 9.40151515,35.9166667 C10.9772727,39.0757576 16.9772727,41.1212121 22.6287879,38.2575758 L22.6287879,38.2575758 Z" id="Shape" fill="#1FCE6D"></path>
                    <path d="M30.9469697,34.4090909 C29.0606061,39.6363636 23.8939394,43.3560606 21.5606061,43.9242424 C17.5909091,44.8863636 9.5,48.8181818 7.33333333,50.8409091 C6.99242424,50.7651515 6.67424242,50.6439394 6.43939394,50.4772727 C5.37121212,49.719697 4.48484848,47.2651515 6.37878788,45.1818182 C12.3030303,39.6363636 18.6666667,42.030303 22.6363636,38.25 C19.2954545,40.0151515 13.1893939,39.2575758 12.6212121,34.9090909 C16.2121212,35.8560606 22.7045455,35.9166667 27.8636364,30.3712121 C28.5530303,31.1363636 30.5681818,33.530303 30.9469697,34.4090909 L30.9469697,34.4090909 Z" id="Shape" fill="#F2C500"></path>
                    <path d="M18.8636364,46.6818182 C15.8712121,49.219697 14.3181818,55.4545455 14.6363636,59.6742424 C14.7272727,60.8484848 15.0530303,61.6439394 15.5530303,62.1287879 C15.7727273,59.7348485 17.4393939,53.5454545 21.6893939,50.7878788 C25.280303,48.4545455 30.8863636,43.2272727 32.969697,37.2424242 C32.5909091,36.1742424 31.9621212,35.4166667 30.7651515,34.6590909 C28.6969697,40.3106061 23.1742424,43.0227273 18.8636364,46.6818182 L18.8636364,46.6818182 Z" id="Shape" fill="#1FCE6D"></path>
                    <path d="M29.0227273,31.9848485 C27.9545455,33.5909091 25.5227273,35.7954545 23.1969697,36.6818182 C23.6969697,36.1136364 23.8560606,35.3939394 23.8863636,34.7954545 C20.9242424,35.9318182 15,35.8030303 12.6060606,34.9242424 C16.1969697,35.8712121 22.6893939,35.9318182 27.8484848,30.3863636 C28.3636364,30.9469697 28.8030303,31.4469697 29.0227273,31.9848485 L29.0227273,31.9848485 Z" id="Shape" fill="#1FCE6D"></path>
                    <path d="M6.37878788,45.1818182 C1.56060606,49.6893939 4.74242424,53.6212121 6.62878788,54.5075758 C6.12878788,57.6590909 9.08333333,57.280303 9.02272727,59.9242424 C10.219697,59.2348485 10.5378788,57.4015152 10.3484848,55.9545455 C11.8636364,57.5909091 15.7045455,55.7651515 16.5227273,58.7878788 C17.030303,55.4469697 14.4469697,52.1136364 11.2348485,52.4242424 C12.5606061,51.2272727 11.8030303,49.2727273 10.5454545,48.7727273 C10.2954545,51.2272727 7.52272727,51.2272727 6.4469697,50.4772727 C5.37121212,49.719697 4.48484848,47.2651515 6.37878788,45.1818182 L6.37878788,45.1818182 Z" id="Shape" fill="#1FCE6D"></path>
                    <path d="M16.7611094,73.8484848 C16.2932525,74.1515152 16.3271551,74.8257576 16.6187182,75.2651515 C17.2086247,76.1439394 16.198325,78.1439394 18.1104359,78.5757576 C18.6732203,78.7045455 19.1071745,78.3181818 19.3241516,77.5984848 C19.9140582,75.6136364 18.0290694,75.3939394 17.8595561,74.4469697 C17.6900427,73.5 17.1543804,73.5984848 16.7611094,73.8484848 L16.7611094,73.8484848 Z" id="Shape" fill="#F2C500"></path>
                    <path d="M18.5984848,77.5681818 C17.8939394,77.8939394 17.2727273,78.3560606 17.5606061,80.6212121 C17.6742424,81.5606061 17.6212121,83.8333333 16.8030303,83.8636364 C17.3030303,84.1136364 18.3787879,84.3863636 18.8181818,83.8030303 C19.2424242,84.5151515 20.2045455,84.3106061 20.5833333,83.4242424 C21.0833333,83.8333333 21.780303,83.1439394 21.780303,82.5454545 C22.219697,82.8257576 23.1060606,82.4166667 22.8787879,81.0681818 C23.4166667,81.2575758 24.1060606,80.8787879 24.3560606,80.530303 C23.5681818,80.3712121 21.5833333,79.3030303 21.1136364,78.4545455 C20.6439394,77.5984848 19.4166667,77.1893939 18.5984848,77.5681818 L18.5984848,77.5681818 Z" id="Shape" fill="#F2C500"></path>
                    <path d="M51.9242424,45.25 C59.6742424,51.7424242 60.1742424,56.9015152 58.9772727,59.9318182 C58.3484848,57.0984848 55.1363636,52.6893939 51.7954545,51.5530303 L51.9242424,45.25 L51.9242424,45.25 Z" id="Shape" fill="#F2C500"></path>
                    <path d="M38.0681818,41.5909091 L52.4318182,41.5909091 L52.4318182,58.5984848 C52.4318182,73.0909091 44.3712121,81.6590909 36.1742424,86.1893939 C27.9848485,81.6515152 19.9166667,73.0833333 19.9166667,58.5984848 L19.9166667,41.5909091 L30,41.5909091 C30.0151515,42.469697 30.0984848,43.7954545 31.1363636,45.1212121 C33.5151515,44.8863636 36.2045455,43.1060606 38.0681818,41.5909091 L38.0681818,41.5909091 Z" id="Shape" fill="#1FCE6D"></path>
                    <path d="M52.4318182,41.5909091 L52.4318182,58.5984848 C52.4318182,62.969697 51.6969697,66.8106061 50.4469697,70.1515152 L36.1818182,43.9772727 L21.9166667,70.1515152 C20.6666667,66.8030303 19.9318182,62.969697 19.9318182,58.5984848 L19.9318182,41.5909091 L52.4318182,41.5909091 L52.4318182,41.5909091 Z" id="Shape" fill="#2C97DE"></path>
                    <path d="M50.8787879,68.9015152 C50.6287879,69.6742424 50.1666667,70.9242424 49.8181818,71.6969697 L36.1818182,46.3484848 L22.5454545,71.6969697 C22.1893939,70.9242424 21.7348485,69.6742424 21.4848485,68.9015152 L36.1893939,41.6439394 L50.8787879,68.9015152 L50.8787879,68.9015152 Z" id="Shape" fill="#F2C500"></path>
                    <path d="M42.6590909,78.2272727 C43.0378788,78.4166667 43.7348485,78.7651515 44.0454545,78.8939394 C44.8030303,77.3787879 44.9242424,75.2424242 44.6742424,73.3484848 C43.8560606,75.4318182 41.0833333,75.3636364 40.3257576,76.6212121 C40.7878788,76.8560606 41.219697,77.1590909 41.5909091,77.4242424 C40.6439394,78.3712121 38.4318182,79.9545455 37.1742424,80.3333333 L37.1742424,66.8181818 C37.1742424,65.8712121 36.8560606,65.0833333 36.8560606,64.2954545 L36.8560606,61.5 C36.8560606,60.8712121 36.7272727,59.9545455 36.1666667,59.9545455 C35.5984848,59.9545455 35.4772727,60.8712121 35.4772727,61.5 L35.4772727,64.2954545 C35.4772727,65.0833333 35.1590909,66 35.1590909,66.8181818 L35.1590909,80.3333333 C34.469697,78.3181818 31.75,79.0075758 30.4924242,76.9924242 C30.9848485,76.8712121 31.5075758,76.8333333 32.0075758,76.9318182 C31.0606061,73.719697 28.4772727,73.469697 27.9772727,72.5227273 C27.9772727,73.8484848 27.4090909,76.9318182 28.2954545,78.2575758 C28.4924242,78.0227273 28.7878788,77.7727273 29.1515152,77.5606061 C30.219697,79.8939394 35.0378788,79.9015152 36.1742424,83.7424242 C37.0833333,82.3257576 40.3636364,80.6893939 42.6590909,78.2272727 L42.6590909,78.2272727 Z" id="Shape" fill="#F2C500"></path>
                    <path d="M36.1742424,66.2708485 C37.2424242,66.2708485 40.6439394,66.0101818 41.8787879,66.0101818 C42.1969697,66.0101818 42.4621212,65.6531818 42.4621212,65.2111818 C42.4621212,64.7691818 42.2045455,64.4121818 41.8787879,64.4121818 C40.6515152,64.4121818 37.25,64.1515152 36.1742424,64.1515152 C35.1060606,64.1515152 31.7045455,64.4121818 30.469697,64.4121818 C30.1515152,64.4121818 29.8863636,64.7691818 29.8863636,65.2111818 C29.8863636,65.6531818 30.1439394,66.0101818 30.469697,66.0101818 C31.7045455,66.0101818 35.1060606,66.2708485 36.1742424,66.2708485 L36.1742424,66.2708485 Z" id="Shape" fill="#F2C500"></path>
                    <path d="M35.4848485,61.4238788 C35.2575758,61.2464242 34.9621212,61.1355152 34.6287879,61.1355152 C33.9166667,61.1355152 33.3333333,61.6530909 33.3333333,62.2889697 C33.3333333,62.9248485 33.9090909,63.4424242 34.6287879,63.4424242 C35.3409091,63.4424242 35.9166667,62.9248485 35.9166667,62.2889697 C35.9166667,61.7935758 36.6515152,61.7935758 36.6515152,62.2889697 C36.6515152,63.2871515 35.7424242,64.0930909 34.6287879,64.0930909 C33.5075758,64.0930909 32.6060606,63.2871515 32.6060606,62.2889697 C32.6060606,61.2907879 33.5151515,60.4848485 34.6287879,60.4848485 C34.9621212,60.4848485 35.280303,60.5587879 35.5606061,60.6844848 C35.5378788,60.8471515 35.4848485,61.157697 35.4848485,61.4238788 L35.4848485,61.4238788 Z" id="Shape" fill="#F2C500"></path>
                    <path id="Shape" stroke="#000000" stroke-width="0.015" fill="#F7E017"></path>
                    <path d="M33.2878788,53.6212121 C33.2878788,53.3106061 33.5378788,53.1818182 33.8333333,52.9621212 C34.1893939,52.6969697 34.3333333,52.5681818 34.6515152,52.5681818 L38.7878788,52.5681818 C39.0909091,52.5681818 39.1666667,52.6439394 39.1666667,52.9318182 L39.1666667,58.5454545 C39.1666667,58.8257576 39.0984848,58.9090909 38.7878788,58.9090909 L33.2878788,58.9090909 L33.2878788,53.5606061" id="Shape" fill="#FFFFFF"></path>
                    <path d="M37.7651515,59.4015152 C38.3106061,59.4015152 38.2121212,59.3863636 38.5909091,59.0075758 C38.9924242,58.6136364 38.9545455,58.6439394 38.9545455,58.280303 L38.9545455,53.1363636 C38.9545455,52.8712121 38.8863636,52.7954545 38.6060606,52.7954545 L34.780303,52.7954545 C34.4772727,52.7954545 34.3484848,52.9166667 34.0227273,53.1666667 C33.75,53.3712121 33.5227273,53.5 33.5227273,53.7878788 L33.5227273,59.4015152 L37.7651515,59.4015152 L37.7651515,59.4015152 Z" id="Shape" fill="#E5E5E5"></path>
                    <path d="M38.1742424,59.280303 C38.1742424,59.5606061 38.1060606,59.6439394 37.7954545,59.6439394 L33.6590909,59.6439394 C33.3484848,59.6439394 33.2878788,59.5681818 33.2878788,59.280303 L33.2878788,53.6590909 C33.2878788,53.3787879 33.3560606,53.2954545 33.6590909,53.2954545 L37.7954545,53.2954545 C38.1060606,53.2954545 38.1742424,53.3712121 38.1742424,53.6590909 L38.1742424,59.280303 L38.1742424,59.280303 Z" id="Shape" fill="#FFFFFF"></path>
                    <path d="M46.1893939,38.2954545 C46.9924242,39.1969697 47.2575758,40.4015152 46.8181818,41.5833333 L45.6212121,41.5833333 C46.1212121,40.0681818 45.8106061,38.6287879 43.6666667,38.4393939 C40.4621212,38.1590909 36.7348485,44.3636364 31.1287879,45.1136364 C29.4924242,43.1590909 29.5757576,39.4393939 31.6590909,37.6742424 C30.5833333,34.5757576 28.3181818,31.1666667 26.7424242,29.6969697 C25.7121212,29.530303 24.5227273,29.4469697 23.7575758,29.4924242 C24.5757576,27.7272727 26.9090909,25.8712121 28.8030303,25.1136364 C29.1060606,24.6666667 29.4393939,24.2348485 29.7424242,23.8484848 C29.9318182,21.4242424 41.4621212,22.5606061 43.9166667,24.0681818 C43.9242424,26.7878788 44.9924242,35.8409091 46.1893939,38.2954545 L46.1893939,38.2954545 Z" id="Shape" stroke="#000000" stroke-width="0.015" fill="#96877D"></path>
                    <g id="shadow" transform="translate(27.303030, 25.303030)" fill="#000000">
                        <path d="M4.91666667,14.6515152 C4.64393939,10.4545455 2.9469697,6.99242424 0.560606061,4.63636364 C1.6969697,4.95454545 4.02272727,4.95454545 5.59848485,3.81818182 C7.67424242,2.43181818 13.0984848,0.00757575758 15.0833333,1.04545455 C15.2424242,1.39393939 15.3333333,2.18181818 15.2121212,2.68181818 C14.7424242,1.42424242 9.50757576,3.37121212 8.03030303,3.96969697 C6.61363636,4.62878788 5.98484848,5.51515152 6.48484848,7.5 C5.66666667,6.81060606 5.9469697,6.14393939 5.09848485,5.64393939 C5.43939394,6.46212121 5.71969697,7.93939394 5.81818182,9.13636364 C5.5,8.28787879 4.93939394,6.46212121 3.70454545,5.38636364 C4.77272727,7.46212121 5.70454545,12.4545455 5.26515152,15.1060606 C6.11363636,15.1060606 7.99242424,14.2727273 8.74242424,13.6742424 C8.08333333,14.6212121 6.17424242,15.280303 4.9469697,15.530303 C4.39393939,16.1893939 4.01515152,17.8939394 4.04545455,18.8409091 C3.96212121,17.6742424 4.32575758,14.8333333 4.91666667,14.6515152 L4.91666667,14.6515152 Z" id="Shape"></path>
                        <path d="M18.8863636,12.9924242 C17.8409091,11.8333333 15.8939394,11.2045455 13.4090909,11.8787879 C13.7878788,11.6893939 14.6060606,11.3712121 15.3333333,11.25 C15.2424242,10.5909091 14.6439394,7.75 14.5454545,7.06060606 L15.2424242,6.78030303 C15.5909091,8.48484848 16.030303,10.4318182 16.3106061,11.219697 C16.530303,11.280303 17.0378788,11.3787879 17.4772727,11.5984848 C17.2878788,10.9393939 16.219697,6.18181818 16.25,5.67424242 L17.1969697,5.16666667 C17.5681818,7.75 18.1666667,11.5 18.8863636,12.9924242 L18.8863636,12.9924242 Z" id="Shape"></path>
                    </g>
                    <path d="M45.6287879,41.062375 C46.1287879,39.8012148 45.8181818,38.6031125 43.6742424,38.4454675 C42.0151515,38.3256573 40.2121212,39.6687929 38.0833333,41.062375 L45.6287879,41.062375 L45.6287879,41.062375 Z" id="Shape" fill="#96877D"></path>
                    <path id="Shape" stroke="#000000" stroke-width="0.015"></path>
                    <path d="M51.9242424,45.25 C57.2121212,48.9015152 61.1212121,52.4318182 62.2575758,58.0984848 C63.3939394,63.7651515 65.5378788,65.280303 68.1818182,63.7651515 C67.5530303,67.0378788 64.2727273,67.4166667 61.5075758,64.9015152 C61.7575758,68.6818182 60.25,73.219697 56.3409091,74.8560606 C56.0909091,72.5909091 57.5909091,70.7954545 57.1590909,68.9318182 C56.969697,68.1136364 56.9090909,66.219697 57.9772727,65.3409091 C55.9015152,66.030303 52.6212121,64.7121212 52.3106061,61.6212121 C54.7045455,62.7575758 57.7878788,62.9469697 58.9848485,59.9166667 C60.1742424,56.9015152 59.6742424,51.7348485 51.9242424,45.25 L51.9242424,45.25 Z" id="Shape" fill="#1FCE6D"></path>
                    <path d="M58.6060606,15.7651515 C60.2424242,11.4848485 64.530303,11.9242424 65.9772727,13.75 C70.1969697,11.3560606 70.7651515,16.7727273 74.3560606,15.7045455 C74.2954545,16.7121212 73.0984848,17.6590909 71.7727273,17.5909091 C73.1590909,18.8484848 71.2045455,20.7424242 74.1666667,21.8712121 C71.6439394,23.1287879 68.1212121,21.8106061 67.1742424,18.3409091 C66.3560606,19.9772727 63.3939394,19.9772727 62.1969697,18.6590909 C64.780303,17.969697 64.5909091,15.5757576 63.1439394,14.6287879 C61.6818182,13.6742424 59.1060606,14.0606061 58.6060606,15.7651515 L58.6060606,15.7651515 Z" id="Shape" fill="#1FCE6D"></path>
                    <path d="M45.8257576,25.1969697 C47,28.9848485 49.4318182,32.5151515 52.0530303,34.9166667 C55.0757576,37.6893939 59.6439394,36.9924242 62.1969697,34.3484848 C62.2575758,39.6212121 56.7954545,40.030303 53.7575758,38.3787879 C52.4166667,37.6515152 51.3333333,38.030303 52.6212121,39.1969697 C54.5757576,40.9621212 58.8484848,42.2727273 63.8939394,43.3560606 C72.7121212,45.2424242 69.5681818,52.2424242 66.9848485,52.1742424 C67.7272727,52.1590909 68.3333333,51.3863636 67.2651515,50.4242424 C59.6136364,43.5378788 44.0530303,46.25 44.3030303,30.8787879 C42.6666667,34.9090909 35.9242424,33.3333333 39.0757576,28.5454545 C40.0833333,29.3636364 41.8484848,29.4242424 42.3560606,28.1666667 C42.75,27.1893939 42.4924242,25.4848485 40.7272727,24.0151515 C41.0151515,23.9924242 41.6439394,24.0151515 41.5757576,23.2878788 C41.6515152,23.7121212 42.0378788,24.3409091 43.030303,24.1287879 C43.3106061,24.5757576 43.6136364,24.8712121 44.0151515,24.7121212 C44.0909091,24.6818182 44.3333333,24.5606061 44.2348485,24.1136364 C44.3106061,24.9621212 45.3030303,25.2575758 45.8257576,25.1969697 L45.8257576,25.1969697 Z" id="Shape" fill="#1FCE6D"></path>
                    <path d="M53.75,38.3787879 C57.4015152,40.7727273 61.5378788,40.7727273 65.3409091,36.3636364 C66.5378788,34.9772727 68.4242424,33.780303 69.75,33.6515152 C71.0757576,33.5227273 71.0075758,32.2651515 72.0151515,32.0151515 C71.3863636,31.8257576 71.1363636,31.0681818 70.1893939,31.1666667 C72.5530303,30.3484848 71.8560606,28.4545455 73.0227273,27.5454545 C72.0757576,27.8939394 70.5984848,26.4772727 69.2424242,28.2727273 C69.5909091,27.4545455 69.1136364,26.4772727 68.7727273,26.0984848 C68.9015152,27.0454545 66.9166667,27.2348485 66.5378788,29.6287879 C66.3257576,30.969697 65.5909091,30.8863636 65.469697,28.8106061 C65.3787879,27.2878788 64.6515152,23.0757576 63.7727273,20.9393939 C62.8939394,18.7954545 62.6893939,15.8560606 63.8863636,15.4166667 C63.7045455,15.1136364 63.4545455,14.8409091 63.1439394,14.6439394 C61.6818182,13.6893939 59.1136364,14.0757576 58.6060606,15.780303 C56.969697,20.0606061 61.5681818,22.5227273 61.1893939,27.1818182 C60.5,23.719697 54.8863636,22.8333333 54.9545455,19.4318182 C53.1287879,20.25 53.3787879,21.7651515 54.0757576,22.9621212 C52.9393939,21.1969697 50.3560606,24.0984848 48.1515152,21.7045455 C47.9015152,24.8560606 50.6742424,26.0530303 52.9393939,26.1742424 C51.8030303,28.1893939 53.3181818,29.8939394 54.8257576,30.4545455 C54.8863636,26.9242424 62.1212121,28.3712121 62.1969697,34.4242424 C62.2575758,39.5757576 56.7121212,40.0151515 53.75,38.3787879 L53.75,38.3787879 Z" id="Shape" fill="#F2C500"></path>
                    <path d="M63.8939394,43.3560606 C72.7121212,45.2424242 69.5681818,52.2424242 66.9848485,52.1742424 C65.3409091,52.1363636 63.7727273,50.7575758 63.6742424,49.5606061 C61.7878788,50.5681818 62.2878788,52.5530303 63.7348485,53.3409091 C59.7651515,52.8712121 58.0984848,55.4848485 58,58.3484848 C58.7272727,57.0227273 60.9318182,56.9318182 61.75,57.2121212 C62.5681818,57.4924242 64.6818182,57.6515152 65.530303,56.7045455 C64.8333333,57.3030303 65.969697,58.6893939 64.9924242,59.7575758 C68.3030303,59.6287879 69.75,56.5454545 69.1818182,55.1893939 C73.469697,51.2954545 72.6515152,44.9318182 63.8939394,43.3560606 L63.8939394,43.3560606 Z" id="Shape" fill="#F2C500"></path>
                    <path d="M57.1818182,73.2878788 C57.7575758,73.6439394 57.6818182,74.4015152 57.2954545,74.8787879 C56.5151515,75.8333333 57.6893939,78.1136364 55.2878788,78.5 C54.5757576,78.6136364 54.0530303,78.1590909 53.8181818,77.3484848 C53.1666667,75.1060606 55.530303,74.9545455 55.780303,73.9015152 C56.0378788,72.8560606 56.6969697,72.9848485 57.1818182,73.2878788 L57.1818182,73.2878788 Z" id="Shape" fill="#F2C500"></path>
                    <path d="M55.0151515,77.3560606 C55.7878788,77.75 56.4545455,78.2954545 56.0454545,80.8106061 C55.8712121,81.8560606 55.8333333,84.3939394 56.75,84.4621212 C56.1742424,84.719697 54.969697,84.969697 54.5,84.3030303 C53.9924242,85.0757576 52.9318182,84.8030303 52.5454545,83.8030303 C51.9621212,84.2348485 51.219697,83.4318182 51.25,82.7651515 C50.7424242,83.0606061 49.780303,82.5681818 50.0833333,81.0681818 C49.4772727,81.2575758 48.719697,80.8030303 48.4545455,80.4090909 C49.3409091,80.2651515 51.5984848,79.1590909 52.1666667,78.2272727 C52.7272727,77.3030303 54.1136364,76.9015152 55.0151515,77.3560606 L55.0151515,77.3560606 Z" id="Shape" fill="#F2C500"></path>
                    <path d="M44.3030303,30.8863636 C44.1969697,37.3409091 46.8787879,40.6136364 50.5984848,42.7348485 C49.219697,41.9090909 49.8181818,39.0757576 47.9545455,38.1590909 C48.3939394,38.1287879 49.0909091,38.7575758 50.1893939,38.5075758 C49.6515152,37.3106061 48.7727273,35.4848485 46.7272727,35.2348485 C47.2651515,35.1742424 48.4318182,35.3636364 49.1818182,35.0757576 C48.1136364,33.4318182 45.280303,34.219697 44.3030303,30.8863636 L44.3030303,30.8863636 Z" id="Shape" fill="#F2C500"></path>
                    <path d="M43.6363636,24.7424242 C43.4090909,24.6666667 43.219697,24.4393939 43.030303,24.1439394 C42.0378788,24.3560606 41.6515152,23.7272727 41.5757576,23.3030303 C41.6363636,24.030303 41.0151515,24 40.719697,24.0227273 C42.4924242,25.4924242 42.75,27.1969697 42.3560606,28.1742424 C41.8484848,29.4318182 40.0909091,29.3712121 39.0757576,28.5530303 C38.9469697,31.2272727 42.4166667,32.1136364 43.6742424,28.7424242 C43.6742424,29.3106061 44.4015152,29.25 44.5909091,30 C45.4848485,28.5530303 44.8030303,26.469697 43.6363636,24.7424242 L43.6363636,24.7424242 Z" id="Shape" fill="#F2C500"></path>
                    <path d="M38.0984848,11.9545455 C36.5227273,10.5075758 35.7954545,8.08333333 35.8636364,6.6969697 C35.9242424,5.31060606 36.4924242,3.79545455 38.5075758,4.43181818 C37.8787879,4.43181818 38.3181818,5.68939394 37.6590909,5.81818182 C38.1969697,6.00757576 38.9166667,5.56818182 39.0151515,5.28030303 C39.1439394,5.71969697 39.9621212,5.59848485 40.0227273,6.09848485 C40.3409091,5.84848485 39.9924242,4.62121212 39.5227273,4.36363636 C39.8712121,4.17424242 40.0606061,3.1969697 39.9015152,2.72727273 C39.5833333,2.78787879 39.1136364,3.23484848 39.0227273,3.86363636 C39.1818182,3.35606061 38.9924242,2.09848485 38.1060606,1.90909091 C37.8560606,2.25757576 37.7878788,3.10606061 38.1363636,3.57575758 C37.3181818,3.38636364 36.1212121,3.92424242 35.8333333,4.61363636 C35.8939394,3.78030303 36.0151515,2.59090909 36.530303,1.84090909 C36.7045455,1.59090909 36.280303,1.15151515 35.9469697,1.75 C35.3333333,0.553030303 33.6969697,-0.0757575758 32.969697,0.522727273 C32.2424242,1.12121212 31.2727273,0.242424242 30.6742424,1.18181818 C30.0757576,2.12878788 28.0454545,2.22727273 28.1515152,3.22727273 C28.2121212,3.82575758 28.0681818,4.75 27.7727273,5.08333333 C27.0454545,5.90151515 28.1212121,6.5 28.3106061,7.22727273 C28.1818182,4.83333333 31.9924242,0.174242424 35.8106061,2 C35.4621212,2.59848485 35.1590909,3.79545455 35.0530303,5.24242424 C34.8939394,7.38636364 35.2121212,10.4090909 37.2878788,12.1742424 L38.0984848,11.9545455 L38.0984848,11.9545455 Z" id="Shape" fill="#1FCE6D"></path>
                    <path d="M39.2272727,4.29176552 C39.2045455,3.79538553 40.1893939,3.15340074 41.5075758,3.16663754 C43.0984848,3.17987434 44.3257576,4.44398871 45.5984848,4.32485752 C46.8712121,4.19910792 46.2424242,4.82123751 45.9772727,4.98669751 C45.7121212,5.1521575 45.5530303,5.3970383 45.6439394,5.70148469 C45.7348485,6.00593109 45.5757576,6.20448309 45.0606061,5.91989189 C43.9242424,5.2977623 42.7954545,6.16477269 41.2954545,5.68824789 C40.0151515,5.2646703 39.2651515,5.03302631 39.2272727,4.29176552 L39.2272727,4.29176552 Z" id="Shape" fill="#E94B35"></path>
                    <path d="M32.7424242,19.3257576 C32.1136364,17.3409091 29.719697,15.1666667 28.5530303,14.6666667 L28.4924242,13.5984848 C29.1212121,13.3484848 30.6363636,12.1515152 31.3257576,11.4848485 C36.0530303,13.75 42.4772727,10.5378788 45.4393939,7.20454545 L46.5757576,7.89393939 L46.0075758,8.65151515 L45.4090909,8.33333333 C44.6818182,9.21212121 41.9772727,11.7575758 41.1590909,12.2954545 C42.2575758,12.5757576 43.7651515,12.7651515 44.1818182,12.7424242 C46.8257576,10.8484848 48.9015152,9.15151515 49.9090909,9.02272727 L50.7575758,10.1590909 L50,10.6969697 L49.4015152,10.3484848 C46.5681818,12.6818182 43.3560606,17.780303 42.0909091,21.1818182 C40.3333333,20.8030303 34.030303,21.0530303 32.7424242,19.3257576 L32.7424242,19.3257576 Z" id="Shape" stroke="#000000" stroke-width="0.015" fill="#96877D"></path>
                    <path d="M35.2954545,5.34090909 C34.5681818,4.33333333 32.5757576,4.01515152 32.1439394,5.37121212 C31.9545455,5.96969697 31.6742424,6.59848485 31.1969697,6.88636364 C30.7272727,7.16666667 30.8333333,8.03030303 31.0378788,8.40151515 C31.5378788,9.31818182 31.0984848,10.1969697 32.0757576,10.7954545 C32.0757576,10.0681818 33.1439394,9.31818182 34.0606061,9.12878788 C34.9772727,8.93939394 36.3560606,8.12121212 36.5454545,7.20454545 C36.7424242,6.28030303 37.0606061,5.52272727 35.2954545,5.34090909 L35.2954545,5.34090909 Z" id="Shape" fill="#1FCE6D"></path>
                    <path d="M29.6212121,21.4621212 C29.4318182,21.2424242 29.0833333,20.6439394 29.1212121,20.2045455 C29.4015152,20.1742424 29.9393939,20.3636364 30.1893939,20.6136364 C30.1590909,20.2954545 30.030303,19.6060606 30.0984848,19.2878788 C30.4469697,19.4166667 31.1666667,19.8257576 31.4242424,20.2954545 C31.3636364,19.9772727 31.2348485,19.1590909 31.3636364,18.6590909 C31.7424242,18.8787879 32.3712121,19.4772727 32.5,19.8863636 C32.530303,19.2575758 32.75,18.219697 32.9393939,17.9621212 C33.219697,18.2424242 33.6666667,18.5 33.9469697,18.8787879 C34.0075758,18.3712121 34.2651515,17.7727273 34.6363636,17.6212121 C34.9166667,17.9393939 35.3636364,18.6590909 35.4545455,19.4772727 C35.7348485,19.3863636 36.1136364,18.9090909 36.2727273,18.6590909 C36.4318182,18.9090909 36.5909091,19.3484848 36.4924242,19.8863636 C36.8409091,19.5681818 37.25,19.1287879 37.3409091,18.75 C37.5909091,18.9393939 38.0681818,19.4090909 38.1893939,19.9166667 C38.1287879,19.5075758 38.1590909,18.780303 38.030303,18.3712121 C38.5,18.6212121 38.8787879,19.0606061 38.9772727,19.5378788 C39.1060606,19.0984848 39.3863636,18.3106061 39.6363636,18.1212121 C39.8863636,18.6287879 40.1439394,19.2272727 40.1060606,19.7272727 C40.2651515,19.4090909 40.5151515,18.8484848 40.7651515,18.719697 C40.9848485,19.0681818 40.9545455,19.8257576 40.8939394,20.2348485 C41.1136364,19.9166667 41.5227273,19.5454545 41.7727273,19.4166667 C41.8030303,19.6060606 41.8333333,19.9848485 41.7727273,20.2651515 C42.0530303,20.1060606 42.530303,19.2575758 42.6893939,18.8181818 C43.1287879,19.0378788 43.5681818,19.7954545 43.6060606,20.1742424 C43.9242424,20.0454545 44.5530303,19.4848485 44.7424242,19.1666667 C44.7424242,19.3863636 44.8409091,19.9848485 44.7121212,20.4545455 C44.9015152,20.2651515 45.0909091,19.8863636 45.1818182,19.7272727 C45.3106061,20.0454545 45.2121212,20.7954545 45.0833333,21.2045455 C45.3636364,20.9545455 45.780303,20.7954545 46.030303,20.7954545 C46.0606061,21.3333333 45.6818182,22.2727273 45.3333333,22.969697 C42.3181818,22.1287879 35.9848485,21.8106061 29.6212121,21.4621212 L29.6212121,21.4621212 Z" id="Shape" fill="#1FCE6D"></path>
                    <path d="M40.1666667,4.34249447 C40.1515152,4.24472267 40.6666667,4.02710155 41.5984848,4.03025548 C42.7121212,4.03340941 43.7424242,4.37403377 44.6287879,4.34880233 C45.5227273,4.3235709 45.0833333,4.44657414 44.8939394,4.47811343 C44.7045455,4.50965272 44.5984848,4.56011559 44.6590909,4.61688632 C44.7272727,4.67681097 44.6136364,4.71465812 44.25,4.66104133 C43.4545455,4.54119201 42.6590909,4.70835026 41.6136364,4.61688632 C40.7121212,4.53173023 40.1893939,4.48757522 40.1666667,4.34249447 L40.1666667,4.34249447 Z" id="Shape" fill="#F2C500"></path>
                    <path d="M30.3809174,22.9184447 C29.5316458,23.8326708 28.6891684,23.6802998 28.5193141,23.0951951 C28.3494598,22.5100903 28.9745236,22.2358225 28.7435218,21.7238559 C28.5193141,21.2179841 29.1104071,20.9863802 29.3957623,21.2179841 C29.6811176,21.4434932 30.5847425,20.7121123 30.9788046,21.4739674 C31.3728666,22.2358225 31.6853985,22.7660737 31.4611908,23.0708157 C31.2301889,23.3755577 30.5507717,23.2231867 30.3809174,22.9184447 L30.3809174,22.9184447 Z" id="Shape" fill="#F2C500"></path>
                    <path d="M34.6590909,21.4660134 C34.4848485,21.1411825 35.4621212,20.5210507 35.969697,20.964002 C36.4772727,21.4069532 37.2651515,20.4856146 37.7045455,21.1825246 C38.1439394,21.8853406 38.2878788,22.2515136 38.5075758,22.6413107 C38.7272727,23.0370138 37.3106061,23.2437244 36.8712121,22.9011754 C36.9318182,23.1315101 35.6439394,23.3145966 35.2954545,22.6531227 C35.1060606,22.3046677 34.9015152,21.8971526 34.6590909,21.4660134 L34.6590909,21.4660134 Z" id="Shape" fill="#F2C500"></path>
                    <path d="M41.2061578,22.0817217 C41.0162912,21.7047125 41.9472499,21.1651995 42.4311034,21.8542162 C42.5597227,21.5682092 43.478432,21.516208 43.5396793,22.341728 C43.6009265,23.167248 43.6315502,23.6547599 43.6560491,23.9797678 C43.680548,24.3047756 43.0986988,24.6037829 42.6760926,23.7782629 C41.922751,23.9407668 41.5797662,23.4922559 41.49402,23.0242446 C41.4021491,22.5432329 41.3102781,22.3092272 41.2061578,22.0817217 L41.2061578,22.0817217 Z" id="Shape" fill="#F2C500"></path>
                    <path d="M31.2121212,21.4073569 C31.0681818,21.1575576 32.0151515,20.6639065 32.6590909,21.0386055 C33.3030303,21.4073569 34.1969697,20.717435 34.5833333,21.3835665 C35.3560606,22.7336724 35.4015152,22.828834 35.1666667,23.0905286 C34.9318182,23.3522231 33.9242424,23.2511138 33.6666667,22.8942577 C33.6212121,23.144057 32.75,23.1024238 32.2954545,22.9061529 C31.780303,22.6801439 31.4166667,21.8534271 31.2121212,21.4073569 L31.2121212,21.4073569 Z" id="Shape" fill="#1FCE6D"></path>
                    <path d="M37.8406997,21.4984562 C37.623087,21.1219709 39.086345,20.7866638 39.7316793,21.4513955 C40.0618504,21.2160923 40.7747197,21.2043271 41.1799296,21.9278847 C41.5851395,22.6514423 41.6451706,23.0514579 41.352519,23.2338179 C41.1424102,23.3632347 40.3845175,23.4632386 40.1368893,23.133814 C39.7917104,23.3044089 38.7336623,23.1573443 38.5010418,22.6926203 C38.2684213,22.2337789 38.0658163,21.8278808 37.8406997,21.4984562 L37.8406997,21.4984562 Z" id="Shape" fill="#1FCE6D"></path>
                    <path d="M44.113333,22.4748356 C44.094044,22.1192815 44.6052012,21.9537649 44.7932684,22.4748356 C44.9861579,22.9959064 45.5937597,22.5238776 45.6468043,23.3943723 C45.6564488,23.5598889 45.5744708,24.1974343 45.3864035,24.5039465 C45.1983363,24.8104587 44.2628223,24.5039465 44.2049555,23.8541406 C44.1422664,23.1982045 44.1229775,22.8303898 44.113333,22.4748356 L44.113333,22.4748356 Z" id="Shape" fill="#1FCE6D"></path>
                </g>
            </g>
        </g>
    </g>
</svg>