<?xml version="1.0" encoding="UTF-8" standalone="no"?>
<svg width="180px" height="180px" viewBox="0 0 180 180" version="1.1" xmlns="http://www.w3.org/2000/svg" xmlns:xlink="http://www.w3.org/1999/xlink">
    <!-- Generator: Sketch 3.8.3 (29802) - http://www.bohemiancoding.com/sketch -->
    <title>portugal</title>
    <desc>Created with Sketch.</desc>
    <defs></defs>
    <g id="Page-1" stroke="none" stroke-width="1" fill="none" fill-rule="evenodd">
        <g id="flags" transform="translate(-450.000000, -4770.000000)">
            <g id="portugal" transform="translate(450.000000, 4770.000000)">
                <circle id="red" fill="#E94B35" cx="90" cy="90" r="90"></circle>
                <path d="M59.9999996,5.12117078 C25.0442275,17.4762623 0,50.8134331 0,90 C0,129.186567 25.0442275,162.523738 59.9999996,174.878829 L60,5.12116698 L60,5.12116698 L59.9999996,5.12117078 L59.9999996,5.12117078 Z" id="green" fill="#1AAF5D"></path>
                <g id="emblem" transform="translate(25.000000, 55.000000)">
                    <path d="M62.1128713,56.4990099 C51.6440594,56.1836634 3.63861386,26.2188119 3.30940594,21.4470297 L5.96025743,17.0262871 C10.7219901,23.945198 59.7978812,53.0866832 64.6181782,52.0540099 L62.1127673,56.4976238" id="path1343" fill="#FFFF00"></path>
                    <path d="M5.40247525,16.4257426 C4.46364356,18.9532624 17.929703,27.2785149 34.1312376,37.1325743 C50.3327723,46.9866337 64.3022772,53.0752475 65.3377228,52.2019802 C65.4006812,52.089204 65.8471634,51.3214703 65.8062376,51.3278812 C65.6118663,51.6206683 65.139401,51.7123614 64.4022525,51.499946 C60.0255198,50.2374163 48.6089356,44.9979163 34.4706683,36.4236094 C20.3327475,27.8493025 8.03215347,19.9486589 6.11997525,16.5907381 C5.98734257,16.3581579 5.89229505,15.9342629 5.91185693,15.6041886 L5.86509554,15.6041886 L5.45770941,16.3150698 L5.40209059,16.4266228 L5.40239554,16.4259297 L5.40239554,16.4259297 L5.40247525,16.4257426 L5.40247525,16.4257426 L5.40247525,16.4257426 Z M62.3589109,56.6341584 C62.181045,56.9562866 61.8503713,56.9675941 61.2214109,56.8979129 C57.3055693,56.4645366 45.4232426,50.6862792 31.3636386,42.2696455 C15.0030446,32.4758832 1.49096535,23.5529624 2.95888614,21.2197446 L3.35771287,20.5146851 L3.43625495,20.5391505 C2.11814109,24.4913782 30.1014035,40.4912297 31.7488292,41.5121208 C47.9403144,51.5432594 61.5903144,57.4010812 62.7986807,55.8784079 L62.3592054,56.6342 L62.3589109,56.6341584 L62.3589109,56.6341584 Z" id="path1345" fill="#FFFF00"></path>
                    <path d="M5.40247525,16.4257426 C4.46333168,18.9532624 17.9293564,27.2785149 34.1312376,37.1325743 C50.3324257,46.9859406 64.3022772,53.0752475 65.3377228,52.2019802 C65.4009861,52.089204 65.8471634,51.3214703 65.8062376,51.327604 C65.6121748,51.6200861 65.1397129,51.712396 64.4025644,51.4999738 C60.0254851,50.2374441 48.6092475,44.997251 34.4709802,36.4236371 C20.3330594,27.8493302 8.03246535,19.9479936 6.12063366,16.5907658 C5.98769257,16.3581856 5.89295347,15.9336668 5.91220693,15.6035926 L5.86575396,15.6028995 L5.4586797,16.3144045 L5.40275248,16.4259574 L5.40244752,16.4259574 L5.40244752,16.4259574 L5.40247525,16.4257426 L5.40247525,16.4257426 L5.40247525,16.4257426 Z M62.3589109,56.6376238 C62.1813535,56.959752 61.8503713,56.9704495 61.2217228,56.9013782 C57.3058812,56.468002 45.4235545,50.6897446 31.363604,42.2731109 C15.003703,32.4800416 1.49231683,23.5567743 2.95815842,21.224596 L3.35698515,20.5195366 L3.43552723,20.544002 C2.11741337,24.4962297 30.1006757,40.4967743 31.7481015,41.5169723 C47.9395866,51.5481109 61.5899332,57.4059327 62.797953,55.8836059 L62.3584777,56.639398 L62.3584777,56.638705 L62.3584777,56.638705 L62.3589109,56.6376238 L62.3589109,56.6376238 L62.3589109,56.6376238 Z" id="path1347" stroke="#000000" stroke-width="0.1"></path>
                    <path d="M35.0589109,24.3371287 C45.5370792,24.2543035 58.4673267,22.9052822 65.9084653,19.939604 L64.3052228,17.3347723 C59.907005,19.7690743 46.9057178,21.3698218 34.9703713,21.6092772 C20.8539356,21.4793856 10.8896782,20.1648861 5.89715347,16.8149703 L4.38376733,19.5888069 C13.5613911,23.4724208 22.965995,24.2971733 35.0590149,24.3373713" id="path1349" fill="#FFFF00"></path>
                    <path d="M66.3405941,19.9985149 C66.0844911,20.4080495 61.2312871,22.0810495 54.0822772,23.3160644 C49.235297,24.0550495 42.9120792,24.6867822 35.0214851,24.6944406 C27.524901,24.7014752 21.4009406,24.1678465 16.7643069,23.5394752 C9.25975248,22.3628168 5.38653465,20.7255792 3.95430693,20.1476634 C4.09122277,19.8753495 4.17923911,19.6837228 4.31127228,19.4294356 C8.43330198,21.0712475 12.3245396,22.0608812 16.883203,22.7622673 C21.488995,23.3860297 27.5391436,23.9273168 34.998995,23.9196584 C42.8528564,23.9123119 49.1060743,23.2326188 53.9253317,22.515604 C61.2562723,21.3325347 65.2608267,19.8108317 65.8232525,19.1042129 L66.3409752,19.9978564 L66.3409752,19.9985495 L66.3409752,19.9985495 L66.3405941,19.9985149 L66.3405941,19.9985149 L66.3405941,19.9985149 Z M64.9329356,17.356396 C64.1383317,17.9945396 60.1791733,19.3985941 53.2134802,20.5110396 C48.5647178,21.1779109 42.6538762,21.7741931 35.1018465,21.781505 C27.9271931,21.7885396 22.0655594,21.3050198 17.606698,20.6549901 C10.5325396,19.7316832 6.76778713,18.0651287 5.40971782,17.5791832 C5.54479703,17.3456847 5.68232277,17.1134059 5.82351485,16.8808465 C6.8800297,17.4126386 10.5135149,18.8881832 17.6843564,19.9040842 C22.0926238,20.5284703 27.9625743,20.9942475 35.1018812,20.986901 C42.6182178,20.9798663 48.4618317,20.3713861 53.0811386,19.709401 C60.0828713,18.7460693 63.850396,16.9554208 64.4225248,16.5064505 L64.932901,17.356396 L64.9329356,17.356396 L64.9329356,17.356396 Z" id="path1351" fill="#FFFF00"></path>
                    <path d="M66.3405941,19.9985149 C66.0844911,20.4080495 61.2316337,22.0816386 54.0826238,23.3166881 C49.235297,24.0556733 42.9124257,24.6874059 35.0218317,24.6950644 C27.5252475,24.702099 21.4012871,24.1684703 16.765,23.540099 C9.26044554,22.3634406 5.38722772,20.726203 3.95534653,20.1476634 C4.09225891,19.875353 4.18027525,19.6843465 4.31231188,19.4300594 C8.43434158,21.0712475 12.3255792,22.0608812 16.8842426,22.7622673 C21.4900347,23.3860297 27.5401832,23.9273168 34.9996881,23.9202822 C42.8535495,23.9123465 49.1067673,23.2326188 53.9260248,22.5156386 C61.2569653,21.3331931 65.2615198,19.8114901 65.8239455,19.1048713 L66.3416683,19.9985149 L66.3409752,19.9985149 L66.3409752,19.9985149 L66.3405941,19.9985149 L66.3405941,19.9985149 L66.3405941,19.9985149 Z M64.9335594,17.3570198 C64.1389554,17.9951634 60.179797,19.3992178 53.214104,20.5116634 C48.5653416,21.1779109 42.6545,21.7741931 35.1024703,21.7815396 C27.9278168,21.7885743 22.0661832,21.3050545 17.6076683,20.6556139 C10.5335099,19.7317178 6.76841089,18.0651287 5.41103465,17.5792178 C5.54611386,17.3457193 5.6836396,17.1140644 5.82483168,16.8814703 C6.88103465,17.4132624 10.5144851,18.8882178 17.6853267,19.9040842 C22.0932475,20.5290941 27.9638911,20.9948713 35.1028515,20.9875248 C42.6191881,20.9798663 48.462802,20.3720099 53.0821089,19.709401 C60.0838416,18.7460693 63.8513663,16.9554208 64.423495,16.5070743 L64.9338713,17.356396 L64.9338713,17.3570891 L64.9338713,17.3570891 L64.9335594,17.3570198 L64.9335594,17.3570198 L64.9335594,17.3570198 Z" id="path1353" stroke="#000000" stroke-width="0.1"></path>
                    <path d="M0.651485149,36.9613861 C7.09633663,40.4277723 21.4106436,42.1746535 34.9563366,42.294901 C47.2898515,42.3144455 63.3576238,40.3884059 69.3661881,37.2043069 L69.2008495,33.734802 C67.3210376,36.6724802 50.1022851,39.490396 34.8225327,39.375 C19.5427802,39.2597772 5.35391881,36.8997376 0.624067327,33.8446535 L0.651582178,36.9604851" id="path1355" fill="#FFFF00"></path>
                    <path d="M69.6950495,36.4623762 L69.6953545,37.2903168 C68.7922851,38.369495 63.1299089,40.0015 56.0294139,41.1507129 C50.6248594,41.9792772 43.5791168,42.6042525 34.8000079,42.6042525 C26.4592653,42.6042525 19.8082257,42.0101188 14.6497109,41.2176287 C6.49644356,40.0308861 1.2807505,37.9517129 0.233869307,37.330896 L0.238443564,36.3663515 C3.38317624,38.4565099 11.9031465,39.9859059 14.7641366,40.4540743 C19.8886911,41.2413663 26.5005723,41.8315149 34.7997307,41.8315149 C43.5379485,41.8315149 50.5441861,41.2101782 55.9144337,40.3871238 C61.0088396,39.6511881 68.2663149,37.7373465 69.6950772,36.4629653 L69.6950772,36.4622723 L69.6950772,36.4622723 L69.6950495,36.4623762 L69.6950495,36.4623762 L69.6950495,36.4623762 Z M69.6985149,33.5195347 L69.6988198,34.3474752 C68.7957505,35.4266535 63.1333743,37.0586584 56.0328792,38.2078713 C50.6283248,39.0364356 43.5825822,39.6614109 34.8034733,39.6614109 C26.4627307,39.6614109 19.8113446,39.0672772 14.6531762,38.2747871 C6.49990891,37.0880446 1.28421584,35.0088713 0.237334653,34.3877079 L0.24159703,33.4231634 C3.38664158,35.5136337 11.9063,37.0434109 14.7672901,37.5108861 C19.8918446,38.2981782 26.5037257,38.8886386 34.8028842,38.8886386 C43.541102,38.8886386 50.5473396,38.2676139 55.9179337,37.4439356 C61.0123396,36.708 68.2698149,34.7941584 69.6985772,33.5197772 L69.6985149,33.5195347 L69.6985149,33.5195347 Z" id="path1357" fill="#FFFF00"></path>
                    <path d="M69.6950495,36.4623762 L69.6953545,37.2896931 C68.7922851,38.3694604 63.1299089,40.0015 56.0290673,41.1507822 C50.6248594,41.9793465 43.5791168,42.6043218 34.7996614,42.6043218 C26.4589188,42.6043218 19.8075327,42.0095644 14.6493644,41.217698 C6.4957505,40.0303317 1.28040396,37.9511931 0.233522772,37.3306188 L0.23809703,36.3654505 C3.3828297,38.4562327 11.9028,39.985698 14.7637901,40.4538663 C19.8883446,41.2405347 26.5002257,41.8307178 34.7993842,41.8307178 C43.537602,41.8307178 50.5438396,41.210005 55.9140871,40.3869505 C61.0084931,39.6510149 68.2659683,37.7371733 69.6947307,36.4627921 L69.6950356,36.4627921 L69.6950356,36.4627921 L69.6950495,36.4623762 L69.6950495,36.4623762 L69.6950495,36.4623762 Z M69.6985149,33.5195347 L69.6988198,34.3468515 C68.7957505,35.4260297 63.1333743,37.0580347 56.0325327,38.2072475 C50.6283248,39.0358119 43.5825822,39.6607871 34.8031267,39.6607871 C26.4623842,39.6607871 19.810998,39.0666535 14.6528297,38.2741634 C6.49921584,37.0874208 1.28386931,35.0082475 0.236988119,34.3874307 L0.241562376,33.4222624 C3.38629505,35.5127327 11.9062653,37.0425099 14.7672554,37.5099851 C19.8918099,38.2972772 26.5036911,38.8877376 34.8028495,38.8877376 C43.5410673,38.8877376 50.547305,38.2667129 55.9175525,37.4430347 C61.0119584,36.707099 68.2694337,34.7932574 69.698196,33.5188762 L69.698501,33.5195693 L69.698501,33.5195693 L69.6985149,33.5195347 L69.6985149,33.5195347 L69.6985149,33.5195347 Z" id="path1359" stroke="#000000" stroke-width="0.1"></path>
                    <path d="M34.9272277,55.9029703 C20.1052475,55.8146421 7.40509901,51.8627228 4.72326733,51.209505 L6.67886634,54.2709307 C11.415995,56.2636089 23.805995,59.2333069 35.0694109,58.9044455 C46.3331733,58.5758995 56.1768366,57.7033564 63.1137673,54.3263762 L65.1188861,51.1536782 C60.3914604,53.3801634 44.3032426,55.8800644 34.9270545,55.9029356" id="path1361" fill="#FFFF00"></path>
                    <path d="M63.8663366,53.6158416 C63.5717267,54.065401 63.271302,54.5101089 62.9663168,54.9428614 C59.6944406,56.0959901 54.5389406,57.3071634 52.363396,57.6604554 C47.9197822,58.5767277 41.0441881,59.2530594 34.9420594,59.2561089 C21.8122079,59.0638688 11.0640891,56.4929455 6.00780198,54.3003168 L5.59982673,53.598896 L5.66675297,53.4934559 L6.35864406,53.761795 C15.3505252,56.9781911 25.4495847,58.2615475 35.0160203,58.4926861 C41.093545,58.5140673 47.177654,57.7961515 52.0970599,56.9162653 C59.6418124,55.4046465 62.6923569,54.2652752 63.628347,53.7487653 L63.8661149,53.6152074 L63.8661149,53.6159005 L63.8661149,53.6159005 L63.8663366,53.6158416 L63.8663366,53.6158416 L63.8663366,53.6158416 Z M65.6046584,50.7475743 C65.6122822,50.7564455 65.6199406,50.7655941 65.6272871,50.7744653 C65.4069431,51.146401 65.1798762,51.5247822 64.9473168,51.9049653 C63.2019604,52.5293515 58.4660792,53.9147624 51.5506337,54.8820446 C46.9940495,55.5021683 44.1618218,56.103302 35.0975149,56.2799653 C18.1117723,55.847802 7.11449505,52.526302 4.50231683,51.7067475 L4.11509901,50.9646782 C13.9587624,53.5343713 24.0134653,55.3282426 35.0980693,55.5115594 C43.3909901,55.3349064 46.9187129,54.7242673 51.4371782,54.1087525 C59.5013861,52.8541584 63.564505,51.5265149 64.7843069,51.1432822 C64.7687129,51.1212772 64.7506931,51.098049 64.7305213,51.0745158 L65.6048629,50.7481079 L65.6046584,50.7475743 L65.6046584,50.7475743 Z" id="path1363" fill="#FFFF00"></path>
                    <path d="M63.8663366,53.6158416 C63.5717267,54.0660248 63.271302,54.510698 62.9666287,54.9428614 C59.6947525,56.0965792 54.5392525,57.3077871 52.3637079,57.6610792 C47.9197475,58.5767277 41.0441535,59.2530594 34.9420248,59.2561436 C21.8118267,59.0639069 11.0640545,56.493604 6.00776733,54.3010446 L5.59979208,53.5996238 L5.66641337,53.4941837 L6.35830446,53.7625228 C15.3501856,56.9795426 25.449245,58.2629683 35.0160272,58.4934139 C41.093552,58.514795 47.1776609,57.7968792 52.0974134,56.9169931 C59.6418193,55.4053743 62.6923639,54.266003 63.628354,53.7494931 L63.8664267,53.6159351 L63.8661218,53.6159351 L63.8661218,53.6159351 L63.8663366,53.6158416 L63.8663366,53.6158416 L63.8663366,53.6158416 Z M65.6049703,50.7481634 C65.6125941,50.7570347 65.6202525,50.7655941 65.627599,50.7750545 C65.407255,51.1469901 65.1801881,51.5253713 64.9476287,51.9055545 C63.2025842,52.5293168 58.4667376,53.9150396 51.5509455,54.8820446 C46.9943614,55.5027574 44.1621337,56.1039257 35.0978267,56.2799653 C18.1124307,55.847802 7.11515347,52.5266485 4.50262871,51.7074406 L4.11541089,50.9647822 C13.9590743,53.5344752 24.0141238,55.3283465 35.0983812,55.5116634 C43.391302,55.3350139 46.9193713,54.7243713 51.4381832,54.1082327 C59.5023911,52.8542624 63.5655099,51.5266188 64.7849653,51.1433515 C64.7696832,51.1213465 64.7516634,51.0981183 64.7314847,51.0742802 L65.6058262,50.7475673 L65.6051332,50.7482604 L65.6051332,50.7482604 L65.6049703,50.7481634 L65.6049703,50.7481634 L65.6049703,50.7481634 Z" id="path1365" stroke="#000000" stroke-width="0.1"></path>
                    <path d="M65.7826733,34.2237624 C65.830748,43.9742079 60.8410891,52.7238614 56.8219802,56.5839109 C51.1360396,62.0449505 43.5971782,65.5577723 34.7931188,65.719604 C24.9619307,65.9002074 15.6921287,59.4909901 13.2057426,56.675396 C8.34455446,51.1706931 4.38678218,44.180396 4.2599505,34.759505 C4.86208911,24.1177723 9.03970297,16.7050495 15.095396,11.6217327 C21.1510891,6.53841584 29.2142574,4.06277228 35.9294059,4.23985149 C43.6772277,4.44431733 52.7276733,8.24509901 58.9812376,15.7905446 C63.0783168,20.7342079 64.8525743,26.0992574 65.7826733,34.2237624 C65.7826733,34.2237624 64.8525743,26.0992574 65.7826733,34.2237624 L65.7826733,34.2237624 L65.7826733,34.2237624 L65.7826733,34.2237624 Z M34.8766337,0.837920792 C53.7575743,0.837920792 69.2861386,16.2025743 69.2861386,35.0419307 C69.2861386,53.8809406 53.7575743,69.2462871 34.8766337,69.2462871 C15.9956931,69.2462871 0.596039604,53.8812871 0.596039604,35.0419307 C0.596039604,16.2025743 15.9956931,0.837920792 34.8766337,0.837920792 L34.8766337,0.837920792 L34.8766337,0.837920792 Z" id="path3966" fill="#FFFF00"></path>
                    <path d="M69.2795545,35.0353465 C69.2795545,53.9346535 53.8663861,69.3492079 34.9688119,69.3492079 C16.0708911,69.3492079 0.658069307,53.935 0.658069307,35.0353465 C0.658069307,16.1356931 16.0712376,0.720792079 34.9688119,0.720792079 C53.8667327,0.720792079 69.2795545,16.1356931 69.2795545,35.0353465 Z M68.524802,35.0354851 C68.524802,53.4919208 53.3687624,68.5945941 34.9688119,68.5945941 C16.5692079,68.5945941 1.41316832,53.4919208 1.41316832,35.0354851 C1.41316832,16.5790495 16.5692079,1.47568317 34.9688119,1.47568317 C53.3684158,1.47568317 68.524802,16.5783564 68.524802,35.0354851 Z" id="path1371" stroke="#000000" stroke-width="0.1"></path>
                    <path d="M66.424802,35.0048515 C66.424802,52.2913861 52.229703,66.4365842 34.9965347,66.4365842 C17.7633663,66.4365842 3.56826733,52.2913861 3.56826733,35.0048515 C3.56826733,17.7186634 17.7637129,3.57277228 34.9965347,3.57277228 C52.2300495,3.57277228 66.424802,17.7186634 66.424802,35.0048515 Z M65.6700495,35.0046436 C65.6700495,51.8756832 51.8159406,65.6812772 34.9965347,65.6812772 C18.1771287,65.6812772 4.3230198,51.8756832 4.3230198,35.0046436 C4.3230198,18.1332574 18.1771287,4.32766337 34.9965347,4.32766337 C51.8162871,4.32766337 65.6700495,18.1332574 65.6700495,35.0046436 Z" id="path1375" stroke="#000000" stroke-width="0.1"></path>
                    <polygon id="path1377" fill="#FFFF00" points="36.0811881 0.184009901 36.0811881 0.563049505 33.9153465 0.563049505 33.9153465 0.194856436 33.1681485 0.194856436 33.1681485 69.9245594 33.9153465 69.9245594 33.9153465 69.5996832 36.092 69.5996832 36.092 69.9353886 36.839198 69.9353886 36.8283861 0.184893564 36.0811881 0.184893564 36.0811881 0.184893564 36.0811881 0.184009901"></polygon>
                    <path d="M33.9673267,0 L36.0531188,0" id="path1379" stroke="#000000" stroke-width="0.1"></path>
                    <path d="M33.9707921,69 L36.0666683,69" id="path1381" stroke="#000000" stroke-width="0.1"></path>
                    <path d="M36.0846535,0.189207921 L36.833099,0.189207921 L36.8395099,69.9293069 L36.0904406,69.9293069 L36.0849307,0.189207921 L36.0846257,0.189207921 L36.0846257,0.189207921 L36.0846535,0.189207921 L36.0846535,0.189207921 L36.0846535,0.189207921 Z M33.1663812,0.189831683 L33.9206485,0.189831683 L33.9216881,69.9299307 L33.1668317,69.9299307 L33.1668317,0.189831683 L33.1665267,0.189831683 L33.1665267,0.189831683 L33.1663812,0.189831683 L33.1663812,0.189831683 L33.1663812,0.189831683 Z" id="path1385" stroke="#000000" stroke-width="0.1"></path>
                    <path d="M0.533663366,33.5722772 C4.83623762,29.6110396 20.7113366,27.0425248 34.7962376,27.1094059 C48.8811386,27.1757257 65.5619307,30.0696782 69.190495,33.4880693 L69.2268639,36.4422426 C66.1878589,33.5837475 53.2283985,30.1748168 34.8239431,30.136698 C16.4191411,30.0984926 3.05641832,33.6012475 0.53295297,36.5188267 L0.53364604,33.5725891" id="path1387" fill="#FFFF00"></path>
                    <path d="M0,33.7108911 L0,36.2604158" id="path1389" stroke="#000000" stroke-width="0.1"></path>
                    <path d="M69,33.8148515 L69,36.3637525" id="path1391" stroke="#000000" stroke-width="0.1"></path>
                    <path d="M34.9826733,29.7222772 C43.0856931,29.7073069 50.9471782,30.4906139 57.1834158,31.7042475 C63.6182178,32.9912426 68.1467327,34.6003416 69.694703,36.4077624 L69.6929703,37.3020297 C67.825703,35.0535396 61.7320297,33.4045545 57.0382178,32.4623267 C50.8494554,31.2578762 43.040297,30.4806683 34.9823267,30.4962277 C26.4790594,30.5115099 18.5610891,31.3174455 12.4631188,32.5066139 C7.5700495,33.4775693 1.04410891,35.4069703 0.229405941,37.3088911 L0.229405941,36.3770594 C0.677128713,35.0607475 5.53589109,33.0921881 12.3529208,31.727604 C18.4962871,30.5295644 26.4291584,29.738599 34.9823267,29.7224158 L34.9826351,29.7224158 L34.9826351,29.7224158 L34.9826733,29.7222772 L34.9826733,29.7222772 L34.9826733,29.7222772 Z M34.9861386,26.7794356 C43.0891584,26.7647772 50.9506436,27.5477723 57.1868812,28.7614059 C63.6216832,30.048401 68.150198,31.6575 69.6981683,33.4649208 L69.6964356,34.3591881 C67.8291683,32.110698 61.735495,30.4617129 57.0416832,29.5194851 C50.8529208,28.3150347 43.0437624,27.5378267 34.9857921,27.5533861 C26.4825248,27.5686683 18.6026733,28.374604 12.5043564,29.5637723 C7.78247525,30.4589406 0.990049505,32.4641287 0.232871287,34.3660495 L0.232871287,33.4342178 C0.680594059,32.1316634 5.63777228,30.0931386 12.3567327,28.7847624 C18.500099,27.5867228 26.4329703,26.7957574 34.9861386,26.7795743 L34.9861386,26.7794356 L34.9861386,26.7794356 Z" id="path1393" fill="#FFFF00"></path>
                    <path d="M57.1834158,31.7042475 C63.6182178,32.9906188 68.1467327,34.5997525 69.6950495,36.4070693 L69.6933168,37.3019257 C67.8260495,35.0528465 61.7323762,33.404104 57.0385644,32.4615297 C50.8501485,31.2576683 43.0409901,30.4804604 34.9826733,30.4954307 C26.4794059,30.5113366 18.5614356,31.3166485 12.4634653,32.5064406 C7.57039604,33.477396 1.04480198,35.4062079 0.23009901,37.3087178 L0.23009901,36.3768861 C0.677509901,35.0599505 5.53658416,33.0920149 12.3532673,31.7274307 C18.4969802,30.5293911 26.429505,29.737802 34.9826733,29.7222426 C43.0856931,29.7073069 50.9475248,30.4899901 57.1834158,31.7042475 Z M57.1868812,28.7614059 C63.6216832,30.048401 68.150198,31.6569109 69.6985149,33.4642277 L69.6967822,34.3590842 C67.8295149,32.1105941 61.7358416,30.4616089 57.0420297,29.5193812 C50.8536139,28.3149307 43.0444554,27.5377228 34.9861386,27.5532822 C26.4828713,27.5685644 18.6033663,28.3745 12.504703,29.5636683 C7.78282178,30.4588366 0.990742574,32.4640248 0.233217822,34.3666386 L0.233217822,33.4341832 C0.680628713,32.1316287 5.63811881,30.093104 12.3567327,28.7847277 C18.5004455,27.5866881 26.4329703,26.7957228 34.9861386,26.7795396 C43.0891584,26.7647772 50.9509901,27.5477723 57.1868812,28.7614059 Z" id="path1395" stroke="#000000" stroke-width="0.1"></path>
                    <path d="M63.8230198,16.1641089 L65.6817624,19.379604 C61.252703,16.9926733 49.2366139,14.5107921 34.8384455,14.8819307 C23.1068614,14.9540584 10.5716634,16.1735 4.28240594,19.5289604 L6.50144059,15.8179208 C11.6630743,13.1412525 23.835797,11.7832178 34.8202525,11.7690099 C47.5892574,11.7044401 58.7272277,13.5537673 63.8230198,16.1641089 Z" id="path1397" fill="#FFFF00"></path>
                    <path d="M64.1470297,16.6856436 L65.4119505,18.7165099" id="path1399" stroke="#000000" stroke-width="0.1"></path>
                    <path d="M34.989604,14.4227723 C42.2727228,14.4029158 49.310495,14.8142871 54.9073762,15.8240545 C60.119604,16.7941089 65.090297,18.2494851 65.8006931,19.0337277 L66.3514059,20.0074554 C64.6228564,18.8787921 60.321703,17.6220495 54.7982871,16.5746832 C49.2513069,15.532203 42.2187327,15.1868465 34.9761584,15.205802 C26.7556634,15.177698 20.3690297,15.6110743 14.8878911,16.5667475 C9.09140594,17.6520248 5.06952475,19.2009307 4.0770495,19.9374901 L4.61736634,18.9084554 C6.54517327,17.9249554 9.604,16.7394257 14.7441485,15.814005 C20.4124158,14.7785594 26.8669703,14.4674406 34.9897426,14.4228069 L34.9900475,14.4228069 L34.9900475,14.4228069 L34.989604,14.4227723 L34.989604,14.4227723 L34.989604,14.4227723 Z M34.9864851,11.4832574 C41.9566832,11.464302 48.8381683,11.8527673 54.2025248,12.8176238 C58.4333663,13.6406782 62.6174257,14.9270495 64.1491089,16.0706832 L64.9550099,17.3518564 C63.5852624,15.8283168 58.4276832,14.3854505 53.8749109,13.577401 C48.5514455,12.6592921 41.955505,12.2959158 34.986,12.2378366 C27.6713465,12.2576931 20.911495,12.7057624 15.666,13.6614356 C10.6613465,14.6137475 7.43233663,15.741198 6.0659505,16.6211188 L6.77464851,15.5514356 C8.66028218,14.5587525 11.7065297,13.6470891 15.5430149,12.9022822 C20.8276683,11.9401634 27.629104,11.5031139 34.9863812,11.4832574 L34.9864851,11.4832574 L34.9864851,11.4832574 Z" id="path1401" fill="#FFFF00"></path>
                    <path d="M54.9070297,15.8240545 C60.1192574,16.7941089 65.0899505,18.2501089 65.8006931,19.033104 L66.3517178,20.0068317 C64.6231683,18.8781683 60.3216683,17.6214257 54.798599,16.5740594 C49.2519653,15.5315792 42.2193911,15.1862228 34.9768168,15.2051782 C26.7563218,15.1770743 20.3696881,15.6110396 14.8885495,16.5667475 C9.09171782,17.651401 5.06983663,19.2009307 4.07770792,19.9371782 L4.61771287,18.9078317 C6.5455198,17.9243317 9.60434653,16.738802 14.744495,15.8133812 C20.4127624,14.7779356 26.8673168,14.4674059 34.9900891,14.4228069 C42.2727228,14.403505 49.3101485,14.8142871 54.9070297,15.8240545 Z M54.2025248,12.8170347 C58.4333663,13.6406782 62.6174257,14.9264604 64.1494554,16.0707178 L64.9553564,17.351302 C63.585297,15.8283861 58.4280297,14.3852079 53.8752574,13.5768465 C48.5521386,12.6587376 41.956198,12.2953614 34.9863465,12.2372822 C27.6716931,12.2577624 20.9118416,12.705797 15.6663465,13.6608812 C10.6620396,14.6131931 7.43268317,15.7406436 6.06629703,16.6211535 L6.77499505,15.5514703 C8.66062871,14.5587871 11.7068762,13.6471238 15.5433614,12.9016931 C20.8276683,11.9395743 27.629104,11.5031485 34.9867277,11.4826683 C41.9563366,11.4643366 48.8381683,11.8527673 54.2025248,12.8170347 Z" id="path1403" stroke="#000000" stroke-width="0.1"></path>
                    <path d="M52.0321782,49.2980198 C45.7190099,48.1195248 39.3944059,47.9483713 34.9767822,48.0003515 C13.6971287,48.2497421 6.82292079,52.3698069 5.9839604,53.6173317 L4.39357426,51.0247327 C9.81129703,47.097802 21.3990693,44.8955743 35.0920396,45.1208218 C42.2022376,45.2372644 48.3379802,45.7094455 53.4996139,46.7091634 L52.0317624,49.2987129" id="path1405" fill="#FFFF00"></path>
                    <path d="M4.74752475,51.3841584 L5.79149505,53.1815297" id="path1407" stroke="#000000" stroke-width="0.1"></path>
                    <path d="M34.8544554,47.6346535 C40.7739604,47.7229782 46.5846535,47.9674792 52.1926238,49.0133069 L51.7864851,49.7302871 C46.5777228,48.7687921 41.0248515,48.4008069 34.8745545,48.4301584 C27.0213861,48.3693416 19.0777723,49.1028515 12.1623267,51.0875594 C9.98026733,51.6942376 6.36792079,53.0976683 5.99920792,54.256896 L5.59549505,53.5900248 C5.71162921,52.9048218 7.89523762,51.4833713 11.9762376,50.3366535 C19.8973267,48.0683069 27.3065842,47.6859752 34.8541089,47.6340297 L34.853804,47.6347228 L34.853804,47.6347228 L34.8544554,47.6346535 L34.8544554,47.6346535 L34.8544554,47.6346535 Z M35.1230856,44.6557376 C41.2560559,44.770347 47.5896698,45.0539752 53.7458579,46.273396 L53.3228777,47.0203515 C47.7641153,45.9164307 42.4524322,45.5487574 35.1596104,45.4366188 C27.281145,45.4503762 18.9244619,46.0127327 11.32565,48.2217871 C8.87249653,48.9363416 4.63857079,50.4812624 4.49718465,51.7037673 L4.09347178,50.988 C4.18515446,49.8770446 7.8506005,48.427802 11.1482243,47.4685941 C18.805254,45.2424208 27.1841153,44.6699802 35.1235708,44.6556337 L35.1230856,44.6557376 L35.1230856,44.6557376 Z" id="path1409" fill="#FFFF00"></path>
                    <path d="M34.8544554,47.6346535 C40.7739604,47.7229782 46.5843069,47.9674792 52.1926238,49.0133069 L51.7864851,49.7302871 C46.5777228,48.7687921 41.0248515,48.4008069 34.8745545,48.4307822 C27.0210396,48.369352 19.0777723,49.1028515 12.1623267,51.0875941 C9.98026733,51.6948614 6.36792079,53.097703 5.99955446,54.2569307 L5.5955297,53.5906832 C5.71196881,52.9054802 7.89523762,51.4834059 11.9766188,50.3366881 C19.8977079,48.0683416 27.3069653,47.6860099 34.8544901,47.6340644 L34.8544901,47.6347574 L34.8544901,47.6347574 L34.8544554,47.6346535 L34.8544554,47.6346535 L34.8544554,47.6346535 Z M35.1230856,44.6557376 C41.2560559,44.770347 47.5896698,45.0539752 53.7458579,46.273396 L53.3228777,47.0197277 C47.7637688,45.9161188 42.4524322,45.5481337 35.1592639,45.435995 C27.2807985,45.4503416 18.9237688,46.0121089 11.3253035,48.2211634 C8.87215,48.9357178 4.63822426,50.4806386 4.49718465,51.7038366 L4.0931599,50.9880693 C4.18514752,49.8771139 7.85028861,48.4278713 11.1479124,47.4686634 C18.8049421,45.2424901 27.1838035,44.6700495 35.1232589,44.655703 C35.1232589,44.655703 27.1838035,44.6700495 35.1232589,44.655703 L35.1230856,44.6557376 L35.1230856,44.6557376 L35.1230856,44.6557376 Z" id="path1411" stroke="#000000" stroke-width="0.1"></path>
                    <path d="M6.2029703,15.7742574 C16.7442079,15.6373381 65.4292079,45.5239109 65.5712871,51.0272277 L62.5552228,55.6503465 C61.1933416,49.2602475 11.7948267,20.1755941 3.64433168,20.7265842 L6.20137624,15.774604" id="path1419" fill="#FFFF00"></path>
                    <path d="M65.349505,51.4188119 L62.7924604,55.3862871" id="path1421" stroke="#000000" stroke-width="0.1"></path>
                    <path d="M6.12326733,16.0341584 L3.7460396,20.4420792" id="path1423" stroke="#000000" stroke-width="0.1"></path>
                    <path d="M3.34405941,20.549505 C5.30087129,19.2224851 19.6793564,25.6276238 34.724505,34.6992079 C49.729802,43.7971287 64.0683663,54.0777723 62.7740594,56.0024257 L62.3480297,56.6714455 L62.1527436,56.8260901 C62.1946153,56.7955257 62.4103748,56.5323847 62.1316396,55.8190604 C61.4923178,53.7154564 51.3214911,45.5994069 34.4456,35.409902 C17.9938673,25.5995059 4.28287723,19.6872782 2.91198614,21.3769812 L3.34411485,20.5496644 L3.34380644,20.5496644 L3.34380644,20.5496644 L3.34405941,20.549505 L3.34405941,20.549505 L3.34405941,20.549505 Z M65.8727723,51.365099 C67.109901,48.9219257 53.7731683,38.874604 37.2379208,29.0926238 C20.3225248,19.5060891 8.13108911,13.8620792 5.90425743,15.5448515 L5.40916337,16.4449059 C5.40517822,16.4950252 5.42718317,16.3840856 5.53171188,16.3027886 C5.9369495,15.9494965 6.60777129,15.9733243 6.91064257,15.9678248 C10.745395,16.0252837 21.6965832,21.065003 37.0608901,29.8735673 C43.7933653,33.7949535 65.5013356,47.7169832 65.4188604,51.6321317 C65.4246822,51.9686238 65.4466525,52.037404 65.3198416,52.2039485 L65.8720792,51.3647109 L65.8727723,51.365099 L65.8727723,51.365099 Z" id="path1425" fill="#FFFF00"></path>
                    <path d="M34.724505,34.6964356 C49.729802,43.7943564 64.0680198,54.075 62.7737129,55.9989604 L62.347995,56.6685693 L62.1527089,56.822604 C62.1945807,56.7926634 62.4103401,56.5288985 62.131605,55.8155743 C61.4922832,53.7119703 51.3214564,45.5959208 34.4455653,35.4064158 C17.9938327,25.5963663 4.28284257,19.6837921 2.91195149,21.3738416 L3.3440802,20.545901 C5.30059406,19.2190198 19.6793564,25.624505 34.724505,34.6964356 Z M37.2379208,29.0898515 C20.3225248,19.5026238 8.13108911,13.8593069 5.90425743,15.5420792 L5.40947525,16.4427574 C5.40517822,16.4922668 5.42749505,16.3813272 5.53202376,16.3006436 C5.9369495,15.9473515 6.60808317,15.9711792 6.91095446,15.9656762 C10.7453604,16.0231351 21.6965485,21.0628545 37.0615485,29.8714188 C43.7940238,33.7924584 65.5019941,47.7148347 65.4191723,51.6299832 C65.4249941,51.9664752 65.446999,52.0358446 65.3204619,52.2024238 L65.8726995,51.3625624 C67.109901,48.9185644 53.7731683,38.8718317 37.2379208,29.0898515 Z" id="path1427" stroke="#000000" stroke-width="0.1"></path>
                    <path d="M14.4158416,38.8153465 C14.4158416,44.4534653 16.7247327,49.5534158 20.4656436,53.280396 C24.2137624,57.0153465 29.3067822,59.3721287 34.9539109,59.3721287 C40.630495,59.3721287 45.7820792,57.0668069 49.5139109,53.3462376 C53.2457426,49.6261881 55.5588614,44.4919307 55.5595545,38.8340594 L55.5592495,38.8340594 L55.5592495,11.3923267 L14.4117248,11.3434272 L14.4159871,38.8153084" id="path1429" fill="#FFFFFF"></path>
                    <path d="M14.4158416,38.8153465 C14.4158416,44.4538119 16.7247327,49.5534158 20.465297,53.280396 C24.2130693,57.0153465 29.3060891,59.3721287 34.9535644,59.3721287 C40.6301485,59.3721287 45.7817327,57.0668069 49.5135644,53.3462376 C53.245396,49.6261881 55.5581683,44.4915842 55.5592079,38.8333663 L55.5585149,38.8333663 L55.5585149,11.3916337 L14.4109901,11.3427342 L14.4152525,38.8153084 L14.4159455,38.8153084 L14.4159455,38.8153084 L14.4158416,38.8153465 L14.4158416,38.8153465 L14.4158416,38.8153465 Z" id="path1431" stroke="#000000" stroke-width="0.1"></path>
                    <path d="M15.1851485,38.8534653 C15.1851485,44.260099 17.4176287,49.1694554 20.9986139,52.7335644 C24.5866337,56.304604 29.5282178,58.5248515 34.9341584,58.5248515 C40.3678218,58.5248515 45.299703,56.3206832 48.8721287,52.7633663 C52.4445545,49.2060495 54.6582178,44.2964851 54.6589109,38.8860396 L54.6582178,12.2638614 L15.2087129,12.2568267 L15.1851485,38.8534653 Z M46.7282228,37.169896 L46.7135644,38.9620693 C46.7138693,39.4342574 46.6854535,39.9718713 46.6307426,40.4290545 C46.3098515,43.1081485 45.0779208,45.4423713 43.2537277,47.2585594 C41.1178267,49.3854158 38.1693713,50.7035644 34.9206089,50.7035644 C31.6884802,50.7035644 28.8080842,49.3389455 26.6630347,47.2035644 C24.4629554,45.0140891 23.1876386,42.0110891 23.1876386,38.9057921 L23.1830644,20.1849505 L46.7269752,20.2274322 L46.7282228,37.169896 Z" id="path1433" fill="#E94B35"></path>
                    <g id="use3440" transform="translate(26.327079, 31.205692)" fill="#003399">
                        <g id="use3438" transform="translate(0.088366, 0.332477)">
                            <g id="use3436" transform="translate(0.283465, 0.089059)">
                                <g id="use3434" transform="translate(0.000000, 0.277228)">
                                    <path id="path1485"></path>
                                </g>
                            </g>
                        </g>
                    </g>
                    <g id="catle" transform="translate(47.447178, 12.475247)">
                        <path d="M3.21258416,4.36030693 C3.22235644,4.35389604 4.67891089,4.84808911 4.67402475,6.75091089 L1.7985495,6.73316832 C1.84527277,4.8199505 3.20281188,4.3670297 3.21258416,4.36030693 Z" id="path5168" fill="#FFFF00"></path>
                        <path d="M0.390988119,6.59618317 L1.8258495,6.59930198 C1.83960693,4.78023762 3.20294356,4.47764356 3.23593366,4.48436634 C3.2668099,4.48263366 4.61822574,4.88655446 4.65426535,6.59930198 L6.09276535,6.59930198 L5.83299604,4.38383663 L0.627352475,4.3969703 L0.390988119,6.59618317 Z" id="path5172" stroke="#000000" stroke-width="0.1" fill="#FFFF00"></path>
                        <path d="M0.294554455,6.6049505 L6.16693069,6.6049505 C6.29070248,6.6049505 6.39185941,6.72719752 6.39185941,6.87664752 C6.39185941,7.02579257 6.29070248,7.14743317 6.16693069,7.14743317 L0.294554455,7.14743317 C0.170782673,7.14743317 0.0696257426,7.02579257 0.0696257426,6.87664752 C0.0696257426,6.72719752 0.170782673,6.6049505 0.294554455,6.6049505 C0.294554455,6.6049505 0.170782673,6.6049505 0.294554455,6.6049505 L0.294554455,6.6049505 L0.294554455,6.6049505 L0.294554455,6.6049505 Z" id="path5176" stroke="#000000" stroke-width="0.1" fill="#FFFF00"></path>
                        <path d="M2.42920792,6.59455446 C2.43561881,5.44662376 3.21310396,5.12174752 3.21708911,5.12237129 C3.21739406,5.12237129 4.02877723,5.45733515 4.03522277,6.59455446 L2.42924257,6.59455446" id="path5180" stroke="#000000" stroke-width="0.1"></path>
                        <path d="M0.294554455,3.524753 L6.16693069,3.524753 C6.29070248,3.524753 6.39185941,3.64700002 6.39185941,3.79645002 C6.39185941,3.94559507 6.29070248,4.06723567 6.16693069,4.06723567 L0.294554455,4.06723567 C0.170782673,4.06723567 0.0696257426,3.94559507 0.0696257426,3.79645002 C0.0696257426,3.64700002 0.170782673,3.524753 0.294554455,3.524753 C0.294554455,3.524753 0.170782673,3.524753 0.294554455,3.524753 L0.294554455,3.524753 L0.294554455,3.524753 L0.294554455,3.524753 Z" id="path5176" stroke="#000000" stroke-width="0.1" fill="#FFFF00"></path>
                        <path d="M0.294554455,4.024753 L6.16693069,4.024753 C6.29070248,4.024753 6.39185941,4.14700002 6.39185941,4.29645002 C6.39185941,4.44559507 6.29070248,4.56723567 6.16693069,4.56723567 L0.294554455,4.56723567 C0.170782673,4.56723567 0.0696257426,4.44559507 0.0696257426,4.29645002 C0.0696257426,4.14700002 0.170782673,4.024753 0.294554455,4.024753 C0.294554455,4.024753 0.170782673,4.024753 0.294554455,4.024753 L0.294554455,4.024753 L0.294554455,4.024753 L0.294554455,4.024753 Z" id="path5176" stroke="#000000" stroke-width="0.1" fill="#FFFF00"></path>
                        <path d="M2.70182673,0.305643564 L2.70182673,0.6076 L3.0120203,0.6076 L3.0120203,0.298920792 L3.4475104,0.300306931 L3.4475104,0.607762871 L3.75862228,0.607762871 L3.75862228,0.299083663 L4.19442426,0.299083663 L4.19373119,0.996207426 C4.19373119,1.10562228 4.10571832,1.17652673 4.00364307,1.17652673 L2.47497475,1.17652673 C2.37228614,1.17652673 2.27754703,1.09431485 2.27724208,0.994069307 L2.27620248,0.305193069 L2.70182673,0.305643564 Z" id="path5192" stroke="#000000" stroke-width="0.1" fill="#FFFF00"></path>
                        <polyline id="path5196" stroke="#000000" stroke-width="0.1" fill="#FFFF00" points="3.87772277 1.23712871 3.97368168 3.47276238 2.48261238 3.46725248 2.58132624 1.23130693 3.87771238 1.23712871"></polyline>
                        <polygon id="path1541" stroke="#000000" stroke-width="0.1" fill="#FFFF00" points="5.78034031 3.47834166 4.35067694 3.47903473 4.39101704 2.27333671 5.73508635 2.27333671"></polygon>
                        <path d="M4.1268814,1.39633239 L4.54251506,1.39737199 L4.54251506,1.69963338 L4.84659922,1.69963338 L4.84659922,1.3903408 L5.27262892,1.39172694 L5.27262892,1.69979625 L5.57732298,1.69979625 L5.57732298,1.39050367 L6.00362991,1.39119674 L6.00293684,2.0883205 C6.00293684,2.19712545 5.91675367,2.26802991 5.81712496,2.26802991 L4.32116952,2.26802991 C4.2209309,2.26802991 4.12772001,2.18642793 4.12741159,2.08587744 L4.12637199,1.39668932 L4.12667694,1.39668932 L4.12667694,1.39668932 L4.1268814,1.39633239 L4.1268814,1.39633239 L4.1268814,1.39633239 Z" id="path1537" stroke="#000000" stroke-width="0.1" fill="#FFFF00"></path>
                        <polygon id="path1541" stroke="#000000" stroke-width="0.1" fill="#FFFF00" points="2.08316231 3.47834166 0.653498941 3.47903473 0.69383904 2.27333671 2.03790835 2.27333671"></polygon>
                        <path d="M0.45049505,1.4 L0.866128713,1.4010396 L0.866128713,1.70330099 L1.17021287,1.70330099 L1.17021287,1.39400842 L1.59624257,1.39539455 L1.59624257,1.70346386 L1.90093663,1.70346386 L1.90093663,1.39417129 L2.32724356,1.39486436 L2.3265505,2.09198812 C2.3265505,2.20079307 2.24036733,2.27169752 2.14073861,2.27169752 L0.644783168,2.27169752 C0.544544554,2.27169752 0.451333663,2.19009554 0.451025248,2.08954505 L0.449985644,1.40035693 L0.450290594,1.40035693 L0.450290594,1.40035693 L0.45049505,1.4 L0.45049505,1.4 L0.45049505,1.4 Z" id="path5206" stroke="#000000" stroke-width="0.1" fill="#FFFF00"></path>
                    </g>
                    <g id="catle" transform="translate(31.800003, 12.475247)">
                        <path d="M3.21258416,4.36030693 C3.22235644,4.35389604 4.67891089,4.84808911 4.67402475,6.75091089 L1.7985495,6.73316832 C1.84527277,4.8199505 3.20281188,4.3670297 3.21258416,4.36030693 Z" id="path5168" fill="#FFFF00"></path>
                        <path d="M0.390988119,6.59618317 L1.8258495,6.59930198 C1.83960693,4.78023762 3.20294356,4.47764356 3.23593366,4.48436634 C3.2668099,4.48263366 4.61822574,4.88655446 4.65426535,6.59930198 L6.09276535,6.59930198 L5.83299604,4.38383663 L0.627352475,4.3969703 L0.390988119,6.59618317 Z" id="path5172" stroke="#000000" stroke-width="0.1" fill="#FFFF00"></path>
                        <path d="M0.294554455,6.6049505 L6.16693069,6.6049505 C6.29070248,6.6049505 6.39185941,6.72719752 6.39185941,6.87664752 C6.39185941,7.02579257 6.29070248,7.14743317 6.16693069,7.14743317 L0.294554455,7.14743317 C0.170782673,7.14743317 0.0696257426,7.02579257 0.0696257426,6.87664752 C0.0696257426,6.72719752 0.170782673,6.6049505 0.294554455,6.6049505 C0.294554455,6.6049505 0.170782673,6.6049505 0.294554455,6.6049505 L0.294554455,6.6049505 L0.294554455,6.6049505 L0.294554455,6.6049505 Z" id="path5176" stroke="#000000" stroke-width="0.1" fill="#FFFF00"></path>
                        <path d="M2.42920792,6.59455446 C2.43561881,5.44662376 3.21310396,5.12174752 3.21708911,5.12237129 C3.21739406,5.12237129 4.02877723,5.45733515 4.03522277,6.59455446 L2.42924257,6.59455446" id="path5180" stroke="#000000" stroke-width="0.1"></path>
                        <path d="M0.294554455,3.524753 L6.16693069,3.524753 C6.29070248,3.524753 6.39185941,3.64700002 6.39185941,3.79645002 C6.39185941,3.94559507 6.29070248,4.06723567 6.16693069,4.06723567 L0.294554455,4.06723567 C0.170782673,4.06723567 0.0696257426,3.94559507 0.0696257426,3.79645002 C0.0696257426,3.64700002 0.170782673,3.524753 0.294554455,3.524753 C0.294554455,3.524753 0.170782673,3.524753 0.294554455,3.524753 L0.294554455,3.524753 L0.294554455,3.524753 L0.294554455,3.524753 Z" id="path5176" stroke="#000000" stroke-width="0.1" fill="#FFFF00"></path>
                        <path d="M0.294554455,4.024753 L6.16693069,4.024753 C6.29070248,4.024753 6.39185941,4.14700002 6.39185941,4.29645002 C6.39185941,4.44559507 6.29070248,4.56723567 6.16693069,4.56723567 L0.294554455,4.56723567 C0.170782673,4.56723567 0.0696257426,4.44559507 0.0696257426,4.29645002 C0.0696257426,4.14700002 0.170782673,4.024753 0.294554455,4.024753 C0.294554455,4.024753 0.170782673,4.024753 0.294554455,4.024753 L0.294554455,4.024753 L0.294554455,4.024753 L0.294554455,4.024753 Z" id="path5176" stroke="#000000" stroke-width="0.1" fill="#FFFF00"></path>
                        <path d="M2.70182673,0.305643564 L2.70182673,0.6076 L3.0120203,0.6076 L3.0120203,0.298920792 L3.4475104,0.300306931 L3.4475104,0.607762871 L3.75862228,0.607762871 L3.75862228,0.299083663 L4.19442426,0.299083663 L4.19373119,0.996207426 C4.19373119,1.10562228 4.10571832,1.17652673 4.00364307,1.17652673 L2.47497475,1.17652673 C2.37228614,1.17652673 2.27754703,1.09431485 2.27724208,0.994069307 L2.27620248,0.305193069 L2.70182673,0.305643564 Z" id="path5192" stroke="#000000" stroke-width="0.1" fill="#FFFF00"></path>
                        <polyline id="path5196" stroke="#000000" stroke-width="0.1" fill="#FFFF00" points="3.87772277 1.23712871 3.97368168 3.47276238 2.48261238 3.46725248 2.58132624 1.23130693 3.87771238 1.23712871"></polyline>
                        <polygon id="path1541" stroke="#000000" stroke-width="0.1" fill="#FFFF00" points="5.78034031 3.47834166 4.35067694 3.47903473 4.39101704 2.27333671 5.73508635 2.27333671"></polygon>
                        <path d="M4.1268814,1.39633239 L4.54251506,1.39737199 L4.54251506,1.69963338 L4.84659922,1.69963338 L4.84659922,1.3903408 L5.27262892,1.39172694 L5.27262892,1.69979625 L5.57732298,1.69979625 L5.57732298,1.39050367 L6.00362991,1.39119674 L6.00293684,2.0883205 C6.00293684,2.19712545 5.91675367,2.26802991 5.81712496,2.26802991 L4.32116952,2.26802991 C4.2209309,2.26802991 4.12772001,2.18642793 4.12741159,2.08587744 L4.12637199,1.39668932 L4.12667694,1.39668932 L4.12667694,1.39668932 L4.1268814,1.39633239 L4.1268814,1.39633239 L4.1268814,1.39633239 Z" id="path1537" stroke="#000000" stroke-width="0.1" fill="#FFFF00"></path>
                        <polygon id="path1541" stroke="#000000" stroke-width="0.1" fill="#FFFF00" points="2.08316231 3.47834166 0.653498941 3.47903473 0.69383904 2.27333671 2.03790835 2.27333671"></polygon>
                        <path d="M0.45049505,1.4 L0.866128713,1.4010396 L0.866128713,1.70330099 L1.17021287,1.70330099 L1.17021287,1.39400842 L1.59624257,1.39539455 L1.59624257,1.70346386 L1.90093663,1.70346386 L1.90093663,1.39417129 L2.32724356,1.39486436 L2.3265505,2.09198812 C2.3265505,2.20079307 2.24036733,2.27169752 2.14073861,2.27169752 L0.644783168,2.27169752 C0.544544554,2.27169752 0.451333663,2.19009554 0.451025248,2.08954505 L0.449985644,1.40035693 L0.450290594,1.40035693 L0.450290594,1.40035693 L0.45049505,1.4 L0.45049505,1.4 L0.45049505,1.4 Z" id="path5206" stroke="#000000" stroke-width="0.1" fill="#FFFF00"></path>
                    </g>
                    <g id="catle" transform="translate(15.899994, 12.475247)">
                        <path d="M3.21258416,4.36030693 C3.22235644,4.35389604 4.67891089,4.84808911 4.67402475,6.75091089 L1.7985495,6.73316832 C1.84527277,4.8199505 3.20281188,4.3670297 3.21258416,4.36030693 Z" id="path5168" fill="#FFFF00"></path>
                        <path d="M0.390988119,6.59618317 L1.8258495,6.59930198 C1.83960693,4.78023762 3.20294356,4.47764356 3.23593366,4.48436634 C3.2668099,4.48263366 4.61822574,4.88655446 4.65426535,6.59930198 L6.09276535,6.59930198 L5.83299604,4.38383663 L0.627352475,4.3969703 L0.390988119,6.59618317 Z" id="path5172" stroke="#000000" stroke-width="0.1" fill="#FFFF00"></path>
                        <path d="M0.294554455,6.6049505 L6.16693069,6.6049505 C6.29070248,6.6049505 6.39185941,6.72719752 6.39185941,6.87664752 C6.39185941,7.02579257 6.29070248,7.14743317 6.16693069,7.14743317 L0.294554455,7.14743317 C0.170782673,7.14743317 0.0696257426,7.02579257 0.0696257426,6.87664752 C0.0696257426,6.72719752 0.170782673,6.6049505 0.294554455,6.6049505 C0.294554455,6.6049505 0.170782673,6.6049505 0.294554455,6.6049505 L0.294554455,6.6049505 L0.294554455,6.6049505 L0.294554455,6.6049505 Z" id="path5176" stroke="#000000" stroke-width="0.1" fill="#FFFF00"></path>
                        <path d="M2.42920792,6.59455446 C2.43561881,5.44662376 3.21310396,5.12174752 3.21708911,5.12237129 C3.21739406,5.12237129 4.02877723,5.45733515 4.03522277,6.59455446 L2.42924257,6.59455446" id="path5180" stroke="#000000" stroke-width="0.1"></path>
                        <path d="M0.294554455,3.524753 L6.16693069,3.524753 C6.29070248,3.524753 6.39185941,3.64700002 6.39185941,3.79645002 C6.39185941,3.94559507 6.29070248,4.06723567 6.16693069,4.06723567 L0.294554455,4.06723567 C0.170782673,4.06723567 0.0696257426,3.94559507 0.0696257426,3.79645002 C0.0696257426,3.64700002 0.170782673,3.524753 0.294554455,3.524753 C0.294554455,3.524753 0.170782673,3.524753 0.294554455,3.524753 L0.294554455,3.524753 L0.294554455,3.524753 L0.294554455,3.524753 Z" id="path5176" stroke="#000000" stroke-width="0.1" fill="#FFFF00"></path>
                        <path d="M0.294554455,4.024753 L6.16693069,4.024753 C6.29070248,4.024753 6.39185941,4.14700002 6.39185941,4.29645002 C6.39185941,4.44559507 6.29070248,4.56723567 6.16693069,4.56723567 L0.294554455,4.56723567 C0.170782673,4.56723567 0.0696257426,4.44559507 0.0696257426,4.29645002 C0.0696257426,4.14700002 0.170782673,4.024753 0.294554455,4.024753 C0.294554455,4.024753 0.170782673,4.024753 0.294554455,4.024753 L0.294554455,4.024753 L0.294554455,4.024753 L0.294554455,4.024753 Z" id="path5176" stroke="#000000" stroke-width="0.1" fill="#FFFF00"></path>
                        <path d="M2.70182673,0.305643564 L2.70182673,0.6076 L3.0120203,0.6076 L3.0120203,0.298920792 L3.4475104,0.300306931 L3.4475104,0.607762871 L3.75862228,0.607762871 L3.75862228,0.299083663 L4.19442426,0.299083663 L4.19373119,0.996207426 C4.19373119,1.10562228 4.10571832,1.17652673 4.00364307,1.17652673 L2.47497475,1.17652673 C2.37228614,1.17652673 2.27754703,1.09431485 2.27724208,0.994069307 L2.27620248,0.305193069 L2.70182673,0.305643564 Z" id="path5192" stroke="#000000" stroke-width="0.1" fill="#FFFF00"></path>
                        <polyline id="path5196" stroke="#000000" stroke-width="0.1" fill="#FFFF00" points="3.87772277 1.23712871 3.97368168 3.47276238 2.48261238 3.46725248 2.58132624 1.23130693 3.87771238 1.23712871"></polyline>
                        <polygon id="path1541" stroke="#000000" stroke-width="0.1" fill="#FFFF00" points="5.78034031 3.47834166 4.35067694 3.47903473 4.39101704 2.27333671 5.73508635 2.27333671"></polygon>
                        <path d="M4.1268814,1.39633239 L4.54251506,1.39737199 L4.54251506,1.69963338 L4.84659922,1.69963338 L4.84659922,1.3903408 L5.27262892,1.39172694 L5.27262892,1.69979625 L5.57732298,1.69979625 L5.57732298,1.39050367 L6.00362991,1.39119674 L6.00293684,2.0883205 C6.00293684,2.19712545 5.91675367,2.26802991 5.81712496,2.26802991 L4.32116951,2.26802991 C4.2209309,2.26802991 4.12772001,2.18642793 4.12741159,2.08587744 L4.12637199,1.39668932 L4.12667694,1.39668932 L4.12667694,1.39668932 L4.1268814,1.39633239 L4.1268814,1.39633239 L4.1268814,1.39633239 Z" id="path1537" stroke="#000000" stroke-width="0.1" fill="#FFFF00"></path>
                        <polygon id="path1541" stroke="#000000" stroke-width="0.1" fill="#FFFF00" points="2.08316231 3.47834166 0.653498941 3.47903473 0.69383904 2.27333671 2.03790835 2.27333671"></polygon>
                        <path d="M0.45049505,1.4 L0.866128713,1.4010396 L0.866128713,1.70330099 L1.17021287,1.70330099 L1.17021287,1.39400842 L1.59624257,1.39539455 L1.59624257,1.70346386 L1.90093663,1.70346386 L1.90093663,1.39417129 L2.32724356,1.39486436 L2.3265505,2.09198812 C2.3265505,2.20079307 2.24036733,2.27169752 2.14073861,2.27169752 L0.644783168,2.27169752 C0.544544554,2.27169752 0.451333663,2.19009554 0.451025248,2.08954505 L0.449985644,1.40035693 L0.450290594,1.40035693 L0.450290594,1.40035693 L0.45049505,1.4 L0.45049505,1.4 L0.45049505,1.4 Z" id="path5206" stroke="#000000" stroke-width="0.1" fill="#FFFF00"></path>
                    </g>
                    <g id="catle" transform="translate(15.899994, 28.475247)">
                        <path d="M3.21258416,4.36030693 C3.22235644,4.35389604 4.67891089,4.84808911 4.67402475,6.75091089 L1.7985495,6.73316832 C1.84527277,4.8199505 3.20281188,4.3670297 3.21258416,4.36030693 Z" id="path5168" fill="#FFFF00"></path>
                        <path d="M0.390988119,6.59618317 L1.8258495,6.59930198 C1.83960693,4.78023762 3.20294356,4.47764356 3.23593366,4.48436634 C3.2668099,4.48263366 4.61822574,4.88655446 4.65426535,6.59930198 L6.09276535,6.59930198 L5.83299604,4.38383663 L0.627352475,4.3969703 L0.390988119,6.59618317 Z" id="path5172" stroke="#000000" stroke-width="0.1" fill="#FFFF00"></path>
                        <path d="M0.294554455,6.6049505 L6.16693069,6.6049505 C6.29070248,6.6049505 6.39185941,6.72719752 6.39185941,6.87664752 C6.39185941,7.02579257 6.29070248,7.14743317 6.16693069,7.14743317 L0.294554455,7.14743317 C0.170782673,7.14743317 0.0696257426,7.02579257 0.0696257426,6.87664752 C0.0696257426,6.72719752 0.170782673,6.6049505 0.294554455,6.6049505 C0.294554455,6.6049505 0.170782673,6.6049505 0.294554455,6.6049505 L0.294554455,6.6049505 L0.294554455,6.6049505 L0.294554455,6.6049505 Z" id="path5176" stroke="#000000" stroke-width="0.1" fill="#FFFF00"></path>
                        <path d="M2.42920792,6.59455446 C2.43561881,5.44662376 3.21310396,5.12174752 3.21708911,5.12237129 C3.21739406,5.12237129 4.02877723,5.45733515 4.03522277,6.59455446 L2.42924257,6.59455446" id="path5180" stroke="#000000" stroke-width="0.1"></path>
                        <path d="M0.294554455,3.524753 L6.16693069,3.524753 C6.29070248,3.524753 6.39185941,3.64700002 6.39185941,3.79645002 C6.39185941,3.94559507 6.29070248,4.06723567 6.16693069,4.06723567 L0.294554455,4.06723567 C0.170782673,4.06723567 0.0696257426,3.94559507 0.0696257426,3.79645002 C0.0696257426,3.64700002 0.170782673,3.524753 0.294554455,3.524753 C0.294554455,3.524753 0.170782673,3.524753 0.294554455,3.524753 L0.294554455,3.524753 L0.294554455,3.524753 L0.294554455,3.524753 Z" id="path5176" stroke="#000000" stroke-width="0.1" fill="#FFFF00"></path>
                        <path d="M0.294554455,4.024753 L6.16693069,4.024753 C6.29070248,4.024753 6.39185941,4.14700002 6.39185941,4.29645002 C6.39185941,4.44559507 6.29070248,4.56723567 6.16693069,4.56723567 L0.294554455,4.56723567 C0.170782673,4.56723567 0.0696257426,4.44559507 0.0696257426,4.29645002 C0.0696257426,4.14700002 0.170782673,4.024753 0.294554455,4.024753 C0.294554455,4.024753 0.170782673,4.024753 0.294554455,4.024753 L0.294554455,4.024753 L0.294554455,4.024753 L0.294554455,4.024753 Z" id="path5176" stroke="#000000" stroke-width="0.1" fill="#FFFF00"></path>
                        <path d="M2.70182673,0.305643564 L2.70182673,0.6076 L3.0120203,0.6076 L3.0120203,0.298920792 L3.4475104,0.300306931 L3.4475104,0.607762871 L3.75862228,0.607762871 L3.75862228,0.299083663 L4.19442426,0.299083663 L4.19373119,0.996207426 C4.19373119,1.10562228 4.10571832,1.17652673 4.00364307,1.17652673 L2.47497475,1.17652673 C2.37228614,1.17652673 2.27754703,1.09431485 2.27724208,0.994069307 L2.27620248,0.305193069 L2.70182673,0.305643564 Z" id="path5192" stroke="#000000" stroke-width="0.1" fill="#FFFF00"></path>
                        <polyline id="path5196" stroke="#000000" stroke-width="0.1" fill="#FFFF00" points="3.87772277 1.23712871 3.97368168 3.47276238 2.48261238 3.46725248 2.58132624 1.23130693 3.87771238 1.23712871"></polyline>
                        <polygon id="path1541" stroke="#000000" stroke-width="0.1" fill="#FFFF00" points="5.78034031 3.47834166 4.35067694 3.47903473 4.39101704 2.27333671 5.73508635 2.27333671"></polygon>
                        <path d="M4.1268814,1.39633239 L4.54251506,1.39737199 L4.54251506,1.69963338 L4.84659922,1.69963338 L4.84659922,1.3903408 L5.27262892,1.39172694 L5.27262892,1.69979625 L5.57732298,1.69979625 L5.57732298,1.39050367 L6.00362991,1.39119674 L6.00293684,2.0883205 C6.00293684,2.19712545 5.91675367,2.26802991 5.81712496,2.26802991 L4.32116951,2.26802991 C4.2209309,2.26802991 4.12772001,2.18642793 4.12741159,2.08587744 L4.12637199,1.39668932 L4.12667694,1.39668932 L4.12667694,1.39668932 L4.1268814,1.39633239 L4.1268814,1.39633239 L4.1268814,1.39633239 Z" id="path1537" stroke="#000000" stroke-width="0.1" fill="#FFFF00"></path>
                        <polygon id="path1541" stroke="#000000" stroke-width="0.1" fill="#FFFF00" points="2.08316231 3.47834166 0.653498941 3.47903473 0.69383904 2.27333671 2.03790835 2.27333671"></polygon>
                        <path d="M0.45049505,1.4 L0.866128713,1.4010396 L0.866128713,1.70330099 L1.17021287,1.70330099 L1.17021287,1.39400842 L1.59624257,1.39539455 L1.59624257,1.70346386 L1.90093663,1.70346386 L1.90093663,1.39417129 L2.32724356,1.39486436 L2.3265505,2.09198812 C2.3265505,2.20079307 2.24036733,2.27169752 2.14073861,2.27169752 L0.644783168,2.27169752 C0.544544554,2.27169752 0.451333663,2.19009554 0.451025248,2.08954505 L0.449985644,1.40035693 L0.450290594,1.40035693 L0.450290594,1.40035693 L0.45049505,1.4 L0.45049505,1.4 L0.45049505,1.4 Z" id="path5206" stroke="#000000" stroke-width="0.1" fill="#FFFF00"></path>
                    </g>
                    <g id="catle" transform="translate(47.500000, 28.475247)">
                        <path d="M3.21258416,4.36030693 C3.22235644,4.35389604 4.67891089,4.84808911 4.67402475,6.75091089 L1.7985495,6.73316832 C1.84527277,4.8199505 3.20281188,4.3670297 3.21258416,4.36030693 Z" id="path5168" fill="#FFFF00"></path>
                        <path d="M0.390988119,6.59618317 L1.8258495,6.59930198 C1.83960693,4.78023762 3.20294356,4.47764356 3.23593366,4.48436634 C3.2668099,4.48263366 4.61822574,4.88655446 4.65426535,6.59930198 L6.09276535,6.59930198 L5.83299604,4.38383663 L0.627352475,4.3969703 L0.390988119,6.59618317 Z" id="path5172" stroke="#000000" stroke-width="0.1" fill="#FFFF00"></path>
                        <path d="M0.294554455,6.6049505 L6.16693069,6.6049505 C6.29070248,6.6049505 6.39185941,6.72719752 6.39185941,6.87664752 C6.39185941,7.02579257 6.29070248,7.14743317 6.16693069,7.14743317 L0.294554455,7.14743317 C0.170782673,7.14743317 0.0696257426,7.02579257 0.0696257426,6.87664752 C0.0696257426,6.72719752 0.170782673,6.6049505 0.294554455,6.6049505 C0.294554455,6.6049505 0.170782673,6.6049505 0.294554455,6.6049505 L0.294554455,6.6049505 L0.294554455,6.6049505 L0.294554455,6.6049505 Z" id="path5176" stroke="#000000" stroke-width="0.1" fill="#FFFF00"></path>
                        <path d="M2.42920792,6.59455446 C2.43561881,5.44662376 3.21310396,5.12174752 3.21708911,5.12237129 C3.21739406,5.12237129 4.02877723,5.45733515 4.03522277,6.59455446 L2.42924257,6.59455446" id="path5180" stroke="#000000" stroke-width="0.1"></path>
                        <path d="M0.294554455,3.524753 L6.16693069,3.524753 C6.29070248,3.524753 6.39185941,3.64700002 6.39185941,3.79645002 C6.39185941,3.94559507 6.29070248,4.06723567 6.16693069,4.06723567 L0.294554455,4.06723567 C0.170782673,4.06723567 0.0696257426,3.94559507 0.0696257426,3.79645002 C0.0696257426,3.64700002 0.170782673,3.524753 0.294554455,3.524753 C0.294554455,3.524753 0.170782673,3.524753 0.294554455,3.524753 L0.294554455,3.524753 L0.294554455,3.524753 L0.294554455,3.524753 Z" id="path5176" stroke="#000000" stroke-width="0.1" fill="#FFFF00"></path>
                        <path d="M0.294554455,4.024753 L6.16693069,4.024753 C6.29070248,4.024753 6.39185941,4.14700002 6.39185941,4.29645002 C6.39185941,4.44559507 6.29070248,4.56723567 6.16693069,4.56723567 L0.294554455,4.56723567 C0.170782673,4.56723567 0.0696257426,4.44559507 0.0696257426,4.29645002 C0.0696257426,4.14700002 0.170782673,4.024753 0.294554455,4.024753 C0.294554455,4.024753 0.170782673,4.024753 0.294554455,4.024753 L0.294554455,4.024753 L0.294554455,4.024753 L0.294554455,4.024753 Z" id="path5176" stroke="#000000" stroke-width="0.1" fill="#FFFF00"></path>
                        <path d="M2.70182673,0.305643564 L2.70182673,0.6076 L3.0120203,0.6076 L3.0120203,0.298920792 L3.4475104,0.300306931 L3.4475104,0.607762871 L3.75862228,0.607762871 L3.75862228,0.299083663 L4.19442426,0.299083663 L4.19373119,0.996207426 C4.19373119,1.10562228 4.10571832,1.17652673 4.00364307,1.17652673 L2.47497475,1.17652673 C2.37228614,1.17652673 2.27754703,1.09431485 2.27724208,0.994069307 L2.27620248,0.305193069 L2.70182673,0.305643564 Z" id="path5192" stroke="#000000" stroke-width="0.1" fill="#FFFF00"></path>
                        <polyline id="path5196" stroke="#000000" stroke-width="0.1" fill="#FFFF00" points="3.87772277 1.23712871 3.97368168 3.47276238 2.48261238 3.46725248 2.58132624 1.23130693 3.87771238 1.23712871"></polyline>
                        <polygon id="path1541" stroke="#000000" stroke-width="0.1" fill="#FFFF00" points="5.78034031 3.47834166 4.35067694 3.47903473 4.39101704 2.27333671 5.73508635 2.27333671"></polygon>
                        <path d="M4.1268814,1.39633239 L4.54251506,1.39737199 L4.54251506,1.69963338 L4.84659922,1.69963338 L4.84659922,1.3903408 L5.27262892,1.39172694 L5.27262892,1.69979625 L5.57732298,1.69979625 L5.57732298,1.39050367 L6.00362991,1.39119674 L6.00293684,2.0883205 C6.00293684,2.19712545 5.91675367,2.26802991 5.81712496,2.26802991 L4.32116952,2.26802991 C4.2209309,2.26802991 4.12772001,2.18642793 4.12741159,2.08587744 L4.12637199,1.39668932 L4.12667694,1.39668932 L4.12667694,1.39668932 L4.1268814,1.39633239 L4.1268814,1.39633239 L4.1268814,1.39633239 Z" id="path1537" stroke="#000000" stroke-width="0.1" fill="#FFFF00"></path>
                        <polygon id="path1541" stroke="#000000" stroke-width="0.1" fill="#FFFF00" points="2.08316231 3.47834166 0.653498941 3.47903473 0.69383904 2.27333671 2.03790835 2.27333671"></polygon>
                        <path d="M0.45049505,1.4 L0.866128713,1.4010396 L0.866128713,1.70330099 L1.17021287,1.70330099 L1.17021287,1.39400842 L1.59624257,1.39539455 L1.59624257,1.70346386 L1.90093663,1.70346386 L1.90093663,1.39417129 L2.32724356,1.39486436 L2.3265505,2.09198812 C2.3265505,2.20079307 2.24036733,2.27169752 2.14073861,2.27169752 L0.644783168,2.27169752 C0.544544554,2.27169752 0.451333663,2.19009554 0.451025248,2.08954505 L0.449985644,1.40035693 L0.450290594,1.40035693 L0.450290594,1.40035693 L0.45049505,1.4 L0.45049505,1.4 L0.45049505,1.4 Z" id="path5206" stroke="#000000" stroke-width="0.1" fill="#FFFF00"></path>
                    </g>
                    <g id="catle" transform="translate(46.937500, 48.986600) rotate(35.000000) translate(-46.937500, -48.986600) translate(43.437500, 44.986600)">
                        <path d="M3.21258416,4.36030693 C3.22235644,4.35389604 4.67891089,4.84808911 4.67402475,6.75091089 L1.7985495,6.73316832 C1.84527277,4.8199505 3.20281188,4.3670297 3.21258416,4.36030693 Z" id="path5168" fill="#FFFF00"></path>
                        <path d="M0.390988119,6.59618317 L1.8258495,6.59930198 C1.83960693,4.78023762 3.20294356,4.47764356 3.23593366,4.48436634 C3.2668099,4.48263366 4.61822574,4.88655446 4.65426535,6.59930198 L6.09276535,6.59930198 L5.83299604,4.38383663 L0.627352475,4.3969703 L0.390988119,6.59618317 Z" id="path5172" stroke="#000000" stroke-width="0.1" fill="#FFFF00"></path>
                        <path d="M0.294554455,6.6049505 L6.16693069,6.6049505 C6.29070248,6.6049505 6.39185941,6.72719752 6.39185941,6.87664752 C6.39185941,7.02579257 6.29070248,7.14743317 6.16693069,7.14743317 L0.294554455,7.14743317 C0.170782673,7.14743317 0.0696257426,7.02579257 0.0696257426,6.87664752 C0.0696257426,6.72719752 0.170782673,6.6049505 0.294554455,6.6049505 C0.294554455,6.6049505 0.170782673,6.6049505 0.294554455,6.6049505 L0.294554455,6.6049505 L0.294554455,6.6049505 L0.294554455,6.6049505 Z" id="path5176" stroke="#000000" stroke-width="0.1" fill="#FFFF00"></path>
                        <path d="M2.42920792,6.59455446 C2.43561881,5.44662376 3.21310396,5.12174752 3.21708911,5.12237129 C3.21739406,5.12237129 4.02877723,5.45733515 4.03522277,6.59455446 L2.42924257,6.59455446" id="path5180" stroke="#000000" stroke-width="0.1"></path>
                        <path d="M0.294554455,3.524753 L6.16693069,3.524753 C6.29070248,3.524753 6.39185941,3.64700002 6.39185941,3.79645002 C6.39185941,3.94559507 6.29070248,4.06723567 6.16693069,4.06723567 L0.294554455,4.06723567 C0.170782673,4.06723567 0.0696257426,3.94559507 0.0696257426,3.79645002 C0.0696257426,3.64700002 0.170782673,3.524753 0.294554455,3.524753 C0.294554455,3.524753 0.170782673,3.524753 0.294554455,3.524753 L0.294554455,3.524753 L0.294554455,3.524753 L0.294554455,3.524753 Z" id="path5176" stroke="#000000" stroke-width="0.1" fill="#FFFF00"></path>
                        <path d="M0.294554455,4.024753 L6.16693069,4.024753 C6.29070248,4.024753 6.39185941,4.14700002 6.39185941,4.29645002 C6.39185941,4.44559507 6.29070248,4.56723567 6.16693069,4.56723567 L0.294554455,4.56723567 C0.170782673,4.56723567 0.0696257426,4.44559507 0.0696257426,4.29645002 C0.0696257426,4.14700002 0.170782673,4.024753 0.294554455,4.024753 C0.294554455,4.024753 0.170782673,4.024753 0.294554455,4.024753 L0.294554455,4.024753 L0.294554455,4.024753 L0.294554455,4.024753 Z" id="path5176" stroke="#000000" stroke-width="0.1" fill="#FFFF00"></path>
                        <path d="M2.70182673,0.305643564 L2.70182673,0.6076 L3.0120203,0.6076 L3.0120203,0.298920792 L3.4475104,0.300306931 L3.4475104,0.607762871 L3.75862228,0.607762871 L3.75862228,0.299083663 L4.19442426,0.299083663 L4.19373119,0.996207426 C4.19373119,1.10562228 4.10571832,1.17652673 4.00364307,1.17652673 L2.47497475,1.17652673 C2.37228614,1.17652673 2.27754703,1.09431485 2.27724208,0.994069307 L2.27620248,0.305193069 L2.70182673,0.305643564 Z" id="path5192" stroke="#000000" stroke-width="0.1" fill="#FFFF00"></path>
                        <polyline id="path5196" stroke="#000000" stroke-width="0.1" fill="#FFFF00" points="3.87772277 1.23712871 3.97368168 3.47276238 2.48261238 3.46725248 2.58132624 1.23130693 3.87771238 1.23712871"></polyline>
                        <polygon id="path1541" stroke="#000000" stroke-width="0.1" fill="#FFFF00" points="5.78034031 3.47834166 4.35067694 3.47903473 4.39101704 2.27333671 5.73508635 2.27333671"></polygon>
                        <path d="M4.1268814,1.39633239 L4.54251506,1.39737199 L4.54251506,1.69963338 L4.84659922,1.69963338 L4.84659922,1.3903408 L5.27262892,1.39172694 L5.27262892,1.69979625 L5.57732298,1.69979625 L5.57732298,1.39050367 L6.00362991,1.39119674 L6.00293684,2.08832051 C6.00293684,2.19712546 5.91675367,2.26802991 5.81712496,2.26802991 L4.32116951,2.26802991 C4.2209309,2.26802991 4.12772001,2.18642793 4.12741159,2.08587744 L4.12637199,1.39668932 L4.12667694,1.39668932 L4.12667694,1.39668932 L4.1268814,1.39633239 L4.1268814,1.39633239 L4.1268814,1.39633239 Z" id="path1537" stroke="#000000" stroke-width="0.1" fill="#FFFF00"></path>
                        <polygon id="path1541" stroke="#000000" stroke-width="0.1" fill="#FFFF00" points="2.08316231 3.47834166 0.653498941 3.47903473 0.69383904 2.27333671 2.03790835 2.27333671"></polygon>
                        <path d="M0.45049505,1.4 L0.866128713,1.4010396 L0.866128713,1.70330099 L1.17021287,1.70330099 L1.17021287,1.39400842 L1.59624257,1.39539455 L1.59624257,1.70346386 L1.90093663,1.70346386 L1.90093663,1.39417129 L2.32724356,1.39486436 L2.3265505,2.09198812 C2.3265505,2.20079307 2.24036733,2.27169752 2.14073861,2.27169752 L0.644783168,2.27169752 C0.544544554,2.27169752 0.451333663,2.19009554 0.451025248,2.08954505 L0.449985644,1.40035693 L0.450290594,1.40035693 L0.450290594,1.40035693 L0.45049505,1.4 L0.45049505,1.4 L0.45049505,1.4 Z" id="path5206" stroke="#000000" stroke-width="0.1" fill="#FFFF00"></path>
                    </g>
                    <g id="catle" transform="translate(22.588257, 48.763089) scale(-1, 1) rotate(35.000000) translate(-22.588257, -48.763089) translate(19.088257, 44.763089)">
                        <path d="M3.21258416,4.36030693 C3.22235644,4.35389604 4.67891089,4.84808911 4.67402475,6.75091089 L1.7985495,6.73316832 C1.84527277,4.8199505 3.20281188,4.3670297 3.21258416,4.36030693 Z" id="path5168" fill="#FFFF00"></path>
                        <path d="M0.390988119,6.59618317 L1.8258495,6.59930198 C1.83960693,4.78023762 3.20294356,4.47764356 3.23593366,4.48436634 C3.2668099,4.48263366 4.61822574,4.88655446 4.65426535,6.59930198 L6.09276535,6.59930198 L5.83299604,4.38383663 L0.627352475,4.3969703 L0.390988119,6.59618317 Z" id="path5172" stroke="#000000" stroke-width="0.1" fill="#FFFF00"></path>
                        <path d="M0.294554455,6.6049505 L6.16693069,6.6049505 C6.29070248,6.6049505 6.39185941,6.72719752 6.39185941,6.87664752 C6.39185941,7.02579257 6.29070248,7.14743317 6.16693069,7.14743317 L0.294554455,7.14743317 C0.170782673,7.14743317 0.0696257426,7.02579257 0.0696257426,6.87664752 C0.0696257426,6.72719752 0.170782673,6.6049505 0.294554455,6.6049505 C0.294554455,6.6049505 0.170782673,6.6049505 0.294554455,6.6049505 L0.294554455,6.6049505 L0.294554455,6.6049505 L0.294554455,6.6049505 Z" id="path5176" stroke="#000000" stroke-width="0.1" fill="#FFFF00"></path>
                        <path d="M2.42920792,6.59455446 C2.43561881,5.44662376 3.21310396,5.12174752 3.21708911,5.12237129 C3.21739406,5.12237129 4.02877723,5.45733515 4.03522277,6.59455446 L2.42924257,6.59455446" id="path5180" stroke="#000000" stroke-width="0.1"></path>
                        <path d="M0.294554455,3.524753 L6.16693069,3.524753 C6.29070248,3.524753 6.39185941,3.64700002 6.39185941,3.79645002 C6.39185941,3.94559507 6.29070248,4.06723567 6.16693069,4.06723567 L0.294554455,4.06723567 C0.170782673,4.06723567 0.0696257426,3.94559507 0.0696257426,3.79645002 C0.0696257426,3.64700002 0.170782673,3.524753 0.294554455,3.524753 C0.294554455,3.524753 0.170782673,3.524753 0.294554455,3.524753 L0.294554455,3.524753 L0.294554455,3.524753 L0.294554455,3.524753 Z" id="path5176" stroke="#000000" stroke-width="0.1" fill="#FFFF00"></path>
                        <path d="M0.294554455,4.024753 L6.16693069,4.024753 C6.29070248,4.024753 6.39185941,4.14700002 6.39185941,4.29645002 C6.39185941,4.44559507 6.29070248,4.56723567 6.16693069,4.56723567 L0.294554455,4.56723567 C0.170782673,4.56723567 0.0696257426,4.44559507 0.0696257426,4.29645002 C0.0696257426,4.14700002 0.170782673,4.024753 0.294554455,4.024753 C0.294554455,4.024753 0.170782673,4.024753 0.294554455,4.024753 L0.294554455,4.024753 L0.294554455,4.024753 L0.294554455,4.024753 Z" id="path5176" stroke="#000000" stroke-width="0.1" fill="#FFFF00"></path>
                        <path d="M2.70182673,0.305643564 L2.70182673,0.6076 L3.0120203,0.6076 L3.0120203,0.298920792 L3.4475104,0.300306931 L3.4475104,0.607762871 L3.75862228,0.607762871 L3.75862228,0.299083663 L4.19442426,0.299083663 L4.19373119,0.996207426 C4.19373119,1.10562228 4.10571832,1.17652673 4.00364307,1.17652673 L2.47497475,1.17652673 C2.37228614,1.17652673 2.27754703,1.09431485 2.27724208,0.994069307 L2.27620248,0.305193069 L2.70182673,0.305643564 Z" id="path5192" stroke="#000000" stroke-width="0.1" fill="#FFFF00"></path>
                        <polyline id="path5196" stroke="#000000" stroke-width="0.1" fill="#FFFF00" points="3.87772277 1.23712871 3.97368168 3.47276238 2.48261238 3.46725248 2.58132624 1.23130693 3.87771238 1.23712871"></polyline>
                        <polygon id="path1541" stroke="#000000" stroke-width="0.1" fill="#FFFF00" points="5.78034031 3.47834166 4.35067694 3.47903473 4.39101704 2.27333671 5.73508635 2.27333671"></polygon>
                        <path d="M4.1268814,1.39633239 L4.54251506,1.39737199 L4.54251506,1.69963338 L4.84659922,1.69963338 L4.84659922,1.3903408 L5.27262892,1.39172694 L5.27262892,1.69979625 L5.57732298,1.69979625 L5.57732298,1.39050367 L6.00362991,1.39119674 L6.00293684,2.08832051 C6.00293684,2.19712546 5.91675367,2.26802991 5.81712496,2.26802991 L4.32116951,2.26802991 C4.2209309,2.26802991 4.12772001,2.18642793 4.12741159,2.08587744 L4.12637199,1.39668932 L4.12667694,1.39668932 L4.12667694,1.39668932 L4.1268814,1.39633239 L4.1268814,1.39633239 L4.1268814,1.39633239 Z" id="path1537" stroke="#000000" stroke-width="0.1" fill="#FFFF00"></path>
                        <polygon id="path1541" stroke="#000000" stroke-width="0.1" fill="#FFFF00" points="2.08316231 3.47834166 0.653498941 3.47903473 0.69383904 2.27333671 2.03790835 2.27333671"></polygon>
                        <path d="M0.45049505,1.4 L0.866128713,1.4010396 L0.866128713,1.70330099 L1.17021287,1.70330099 L1.17021287,1.39400842 L1.59624257,1.39539455 L1.59624257,1.70346386 L1.90093663,1.70346386 L1.90093663,1.39417129 L2.32724356,1.39486436 L2.3265505,2.09198812 C2.3265505,2.20079307 2.24036733,2.27169752 2.14073861,2.27169752 L0.644783168,2.27169752 C0.544544554,2.27169752 0.451333663,2.19009554 0.451025248,2.08954505 L0.449985644,1.40035693 L0.450290594,1.40035693 L0.450290594,1.40035693 L0.45049505,1.4 L0.45049505,1.4 L0.45049505,1.4 Z" id="path5206" stroke="#000000" stroke-width="0.1" fill="#FFFF00"></path>
                    </g>
                    <g id="Group-3" transform="translate(32.000000, 41.000000)">
                        <path d="M1.18912418,5.74211863 C1.66221329,6.25038101 2.31376774,6.56607408 3.02645091,6.56607408 C3.74280735,6.56607408 4.39314893,6.25250527 4.86408952,5.74638101 C5.33471824,5.24089091 5.62719349,4.54314339 5.62719349,3.77355923 L5.62719349,0.042074079 L0.43194596,0.037811703 L0.422485564,3.76860378 C0.422658832,4.53704438 0.716960317,5.23541566 1.18912418,5.74211863 Z" id="path1485" fill="#003399"></path>
                        <path d="M4.49391081,3.77366294 C4.21030685,3.77366294 3.97896032,4.00471839 3.97896032,4.28833621 C3.97896032,4.57134759 4.21031032,4.80300948 4.49391081,4.80300948 C4.77751824,4.80300948 5.00886131,4.5719575 5.00886131,4.28833621 C5.00886131,4.00471839 4.77751131,3.77366294 4.49391081,3.77366294" id="use5944" fill="#FFFFFF"></path>
                        <path d="M1.63950481,3.77712894 C1.35590085,3.77712894 1.12455432,4.00818439 1.12455432,4.29180221 C1.12455432,4.57481359 1.35590432,4.80647548 1.63950481,4.80647548 C1.92311224,4.80647548 2.15445531,4.5754235 2.15445531,4.29180221 C2.15445531,4.00818439 1.92310531,3.77712894 1.63950481,3.77712894" id="use5944" fill="#FFFFFF"></path>
                        <path d="M3.05336681,2.32895994 C2.76976285,2.32895994 2.53841632,2.56001539 2.53841632,2.84363321 C2.53841632,3.12664459 2.76976632,3.35830648 3.05336681,3.35830648 C3.33697424,3.35830648 3.56831731,3.12725449 3.56831731,2.84363321 C3.56831731,2.56001539 3.33696731,2.32895994 3.05336681,2.32895994" id="use5944" fill="#FFFFFF"></path>
                        <path d="M4.49702981,0.944900941 C4.21342585,0.944900941 3.98207932,1.17595639 3.98207932,1.45957421 C3.98207932,1.74258559 4.21342932,1.97424748 4.49702981,1.97424748 C4.78063724,1.97424748 5.01198031,1.7431955 5.01198031,1.45957421 C5.01198031,1.17595639 4.78063031,0.944900941 4.49702981,0.944900941" id="use5944" fill="#FFFFFF"></path>
                        <path d="M1.63950481,0.942474941 C1.35590085,0.942474941 1.12455432,1.17353039 1.12455432,1.45714821 C1.12455432,1.74015959 1.35590432,1.97182148 1.63950481,1.97182148 C1.92311224,1.97182148 2.15445531,1.7407695 2.15445531,1.45714821 C2.15445531,1.17353039 1.92310531,0.942474941 1.63950481,0.942474941" id="use5944" fill="#FFFFFF"></path>
                    </g>
                    <g id="Group" transform="translate(32.227723, 22.871287)">
                        <path d="M0.218316832,3.9470297 L0.218316832,3.94876238 C0.218316832,4.71526238 0.512618317,5.41363366 0.984782178,5.92033663 C1.45787129,6.42859901 2.10942574,6.74429208 2.82210891,6.74429208 C3.53846535,6.74429208 4.18880693,6.43072327 4.65974752,5.92459901 C5.13037624,5.41910891 5.42285149,4.72136139 5.42285149,3.95177723 L5.42285149,0.220292079 L0.22760396,0.216029703 L0.218143564,3.94682178" id="path1485" fill="#003399"></path>
                        <path d="M1.41178218,1.12069307 C1.12817822,1.12069307 0.896831683,1.35174851 0.896831683,1.63536634 C0.896831683,1.91837772 1.12818168,2.1500396 1.41178218,2.1500396 C1.6953896,2.1500396 1.92673267,1.91898762 1.92673267,1.63536634 C1.92673267,1.35174851 1.69538267,1.12069307 1.41178218,1.12069307" id="use5944" fill="#FFFFFF"></path>
                        <path d="M4.23222772,1.12069307 C3.94862376,1.12069307 3.71727723,1.35174851 3.71727723,1.63536634 C3.71727723,1.91837772 3.94862723,2.1500396 4.23222772,2.1500396 C4.51583515,2.1500396 4.74717822,1.91898762 4.74717822,1.63536634 C4.74717822,1.35174851 4.51582822,1.12069307 4.23222772,1.12069307" id="use5944" fill="#FFFFFF"></path>
                        <path d="M2.78821782,2.50717822 C2.50461386,2.50717822 2.27326733,2.73823366 2.27326733,3.02185149 C2.27326733,3.30486287 2.50461733,3.53652475 2.78821782,3.53652475 C3.07182525,3.53652475 3.30316832,3.30547277 3.30316832,3.02185149 C3.30316832,2.73823366 3.07181832,2.50717822 2.78821782,2.50717822" id="use5944" fill="#FFFFFF"></path>
                        <path d="M1.41178218,3.95569307 C1.12817822,3.95569307 0.896831683,4.18674851 0.896831683,4.47036634 C0.896831683,4.75337772 1.12818168,4.9850396 1.41178218,4.9850396 C1.6953896,4.9850396 1.92673267,4.75398762 1.92673267,4.47036634 C1.92673267,4.18674851 1.69538267,3.95569307 1.41178218,3.95569307" id="use5944" fill="#FFFFFF"></path>
                        <path d="M4.22945545,3.95188119 C3.94585149,3.95188119 3.71450495,4.18293663 3.71450495,4.46655446 C3.71450495,4.74956584 3.94585495,4.98122772 4.22945545,4.98122772 C4.51306287,4.98122772 4.74440594,4.75017574 4.74440594,4.46655446 C4.74440594,4.18293663 4.51305594,3.95188119 4.22945545,3.95188119" id="use5944" fill="#FFFFFF"></path>
                    </g>
                    <g id="Group-2" transform="translate(32.000000, 32.000000)">
                        <path d="M0.481177832,3.8318857 L0.481177832,3.83361838 C0.481177832,4.60011838 0.775479317,5.29848966 1.24764318,5.80519263 C1.72073229,6.31345501 2.37228674,6.62914808 3.08496991,6.62914808 C3.80132635,6.62914808 4.45166793,6.31557927 4.92260852,5.80945501 C5.39323724,5.30396491 5.68571249,4.60621739 5.68571249,3.83663323 L5.68571249,0.105148079 L0.49046496,0.100885703 L0.481004564,3.83167778" id="path1485" fill="#003399"></path>
                        <path d="M1.67464318,1.00554907 C1.39103922,1.00554907 1.15969268,1.23660451 1.15969268,1.52022234 C1.15969268,1.80323372 1.39104268,2.0348956 1.67464318,2.0348956 C1.9582506,2.0348956 2.18959367,1.80384362 2.18959367,1.52022234 C2.18959367,1.23660451 1.95824367,1.00554907 1.67464318,1.00554907" id="use5944" fill="#FFFFFF"></path>
                        <path d="M4.49508872,1.00554907 C4.21148476,1.00554907 3.98013823,1.23660451 3.98013823,1.52022234 C3.98013823,1.80323372 4.21148823,2.0348956 4.49508872,2.0348956 C4.77869615,2.0348956 5.01003922,1.80384362 5.01003922,1.52022234 C5.01003922,1.23660451 4.77868922,1.00554907 4.49508872,1.00554907" id="use5944" fill="#FFFFFF"></path>
                        <path d="M3.05107882,2.39203422 C2.76747486,2.39203422 2.53612833,2.62308966 2.53612833,2.90670749 C2.53612833,3.18971887 2.76747833,3.42138075 3.05107882,3.42138075 C3.33468625,3.42138075 3.56602932,3.19032877 3.56602932,2.90670749 C3.56602932,2.62308966 3.33467932,2.39203422 3.05107882,2.39203422" id="use5944" fill="#FFFFFF"></path>
                        <path d="M1.67464318,3.84054907 C1.39103922,3.84054907 1.15969268,4.07160451 1.15969268,4.35522234 C1.15969268,4.63823372 1.39104268,4.8698956 1.67464318,4.8698956 C1.9582506,4.8698956 2.18959367,4.63884362 2.18959367,4.35522234 C2.18959367,4.07160451 1.95824367,3.84054907 1.67464318,3.84054907" id="use5944" fill="#FFFFFF"></path>
                        <path d="M4.49231645,3.83673719 C4.20871249,3.83673719 3.97736595,4.06779263 3.97736595,4.35141046 C3.97736595,4.63442184 4.20871595,4.86608372 4.49231645,4.86608372 C4.77592387,4.86608372 5.00726694,4.63503174 5.00726694,4.35141046 C5.00726694,4.06779263 4.77591694,3.83673719 4.49231645,3.83673719" id="use5944" fill="#FFFFFF"></path>
                    </g>
                    <g id="Group" transform="translate(39.851485, 31.881188)">
                        <path d="M0.218316832,3.9470297 L0.218316832,3.94876238 C0.218316832,4.71526238 0.512618317,5.41363366 0.984782178,5.92033663 C1.45787129,6.42859901 2.10942574,6.74429208 2.82210891,6.74429208 C3.53846535,6.74429208 4.18880693,6.43072327 4.65974752,5.92459901 C5.13037624,5.41910891 5.42285149,4.72136139 5.42285149,3.95177723 L5.42285149,0.220292079 L0.22760396,0.216029703 L0.218143564,3.94682178" id="path1485" fill="#003399"></path>
                        <path d="M1.41178218,1.12069307 C1.12817822,1.12069307 0.896831683,1.35174851 0.896831683,1.63536634 C0.896831683,1.91837772 1.12818168,2.1500396 1.41178218,2.1500396 C1.6953896,2.1500396 1.92673267,1.91898762 1.92673267,1.63536634 C1.92673267,1.35174851 1.69538267,1.12069307 1.41178218,1.12069307" id="use5944" fill="#FFFFFF"></path>
                        <path d="M4.23222772,1.12069307 C3.94862376,1.12069307 3.71727723,1.35174851 3.71727723,1.63536634 C3.71727723,1.91837772 3.94862723,2.1500396 4.23222772,2.1500396 C4.51583515,2.1500396 4.74717822,1.91898762 4.74717822,1.63536634 C4.74717822,1.35174851 4.51582822,1.12069307 4.23222772,1.12069307" id="use5944" fill="#FFFFFF"></path>
                        <path d="M2.78821782,2.50717822 C2.50461386,2.50717822 2.27326733,2.73823366 2.27326733,3.02185149 C2.27326733,3.30486287 2.50461733,3.53652475 2.78821782,3.53652475 C3.07182525,3.53652475 3.30316832,3.30547277 3.30316832,3.02185149 C3.30316832,2.73823366 3.07181832,2.50717822 2.78821782,2.50717822" id="use5944" fill="#FFFFFF"></path>
                        <path d="M4.1634655,3.9712872 C3.8798616,3.9712872 3.648515,4.2023427 3.648515,4.4859605 C3.648515,4.7689719 3.879865,5.0006338 4.1634655,5.0006338 C4.447073,5.0006338 4.678416,4.7695818 4.678416,4.4859605 C4.678416,4.2023427 4.447066,3.9712872 4.1634655,3.9712872" id="use5944" fill="#FFFFFF"></path>
                        <path d="M1.43636087,3.97556494 C1.15008501,3.97556494 0.916558894,4.20662039 0.916558894,4.49023821 C0.916558894,4.77324959 1.1500885,5.00491148 1.43636087,5.00491148 C1.72264024,5.00491148 1.95616285,4.77385949 1.95616285,4.49023821 C1.95616285,4.20662039 1.72263325,3.97556494 1.43636087,3.97556494" id="use5944" fill="#FFFFFF"></path>
                    </g>
                    <g id="Group" transform="translate(24.603960, 31.881188)">
                        <path d="M0.218316832,3.9470297 L0.218316832,3.94876238 C0.218316832,4.71526238 0.512618317,5.41363366 0.984782178,5.92033663 C1.45787129,6.42859901 2.10942574,6.74429208 2.82210891,6.74429208 C3.53846535,6.74429208 4.18880693,6.43072327 4.65974752,5.92459901 C5.13037624,5.41910891 5.42285149,4.72136139 5.42285149,3.95177723 L5.42285149,0.220292079 L0.22760396,0.216029703 L0.218143564,3.94682178" id="path1485" fill="#003399"></path>
                        <path d="M1.41178218,1.12069307 C1.12817822,1.12069307 0.896831683,1.35174851 0.896831683,1.63536634 C0.896831683,1.91837772 1.12818168,2.1500396 1.41178218,2.1500396 C1.6953896,2.1500396 1.92673267,1.91898762 1.92673267,1.63536634 C1.92673267,1.35174851 1.69538267,1.12069307 1.41178218,1.12069307" id="use5944" fill="#FFFFFF"></path>
                        <path d="M4.23222772,1.12069307 C3.94862376,1.12069307 3.71727723,1.35174851 3.71727723,1.63536634 C3.71727723,1.91837772 3.94862723,2.1500396 4.23222772,2.1500396 C4.51583515,2.1500396 4.74717822,1.91898762 4.74717822,1.63536634 C4.74717822,1.35174851 4.51582822,1.12069307 4.23222772,1.12069307" id="use5944" fill="#FFFFFF"></path>
                        <path d="M2.78821782,2.50717822 C2.50461386,2.50717822 2.27326733,2.73823366 2.27326733,3.02185149 C2.27326733,3.30486287 2.50461733,3.53652475 2.78821782,3.53652475 C3.07182525,3.53652475 3.30316832,3.30547277 3.30316832,3.02185149 C3.30316832,2.73823366 3.07181832,2.50717822 2.78821782,2.50717822" id="use5944" fill="#FFFFFF"></path>
                        <path d="M1.41178218,3.95569307 C1.12817822,3.95569307 0.896831683,4.18674851 0.896831683,4.47036634 C0.896831683,4.75337772 1.12818168,4.9850396 1.41178218,4.9850396 C1.6953896,4.9850396 1.92673267,4.75398762 1.92673267,4.47036634 C1.92673267,4.18674851 1.69538267,3.95569307 1.41178218,3.95569307" id="use5944" fill="#FFFFFF"></path>
                        <path d="M4.22945545,3.95188119 C3.94585149,3.95188119 3.71450495,4.18293663 3.71450495,4.46655446 C3.71450495,4.74956584 3.94585495,4.98122772 4.22945545,4.98122772 C4.51306287,4.98122772 4.74440594,4.75017574 4.74440594,4.46655446 C4.74440594,4.18293663 4.51305594,3.95188119 4.22945545,3.95188119" id="use5944" fill="#FFFFFF"></path>
                    </g>
                </g>
            </g>
        </g>
    </g>
</svg>