<?xml version="1.0" encoding="UTF-8" standalone="no"?>
<svg width="180px" height="180px" viewBox="0 0 180 180" version="1.1" xmlns="http://www.w3.org/2000/svg" xmlns:xlink="http://www.w3.org/1999/xlink">
    <!-- Generator: Sketch 3.8.3 (29802) - http://www.bohemiancoding.com/sketch -->
    <title>puerto_rico</title>
    <desc>Created with Sketch.</desc>
    <defs></defs>
    <g id="Page-1" stroke="none" stroke-width="1" fill="none" fill-rule="evenodd">
        <g id="flags" transform="translate(-720.000000, -4770.000000)">
            <g id="puerto_rico" transform="translate(720.000000, 4770.000000)">
                <circle id="white" fill="#FFFFFF" cx="90" cy="90" r="90"></circle>
                <path d="M162.006593,144 L36,144 L26.3603888,153.639611 C42.647185,169.926407 65.147185,180 90,180 C119.444723,180 145.586879,165.860041 162.006593,144 L162.006593,144 Z M178.199674,108 L72,108 L72,108 L90,90 L72,72 L178.199674,72 C179.380255,77.8159789 180,83.8356148 180,90 C180,96.1643852 179.380255,102.184021 178.199674,108 L178.199674,108 Z M162.006593,36 L36,36 L26.3603888,26.3603888 C42.647185,10.0735925 65.147185,0 90,0 C119.444723,0 145.586879,14.139959 162.006593,36 L162.006593,36 Z" id="red" fill="#E94B35"></path>
                <path d="M26.3603888,153.639611 L90,90 L26.3603888,26.3603888 C10.0735925,42.647185 0,65.147185 0,90 C0,114.852815 10.0735925,137.352815 26.3603888,153.639611 L26.3603888,153.639611 Z" id="blue" fill="#227FBB"></path>
                <polygon id="star" fill="#FFFFFF" points="31.6012232 99.5462079 22.6397322 104.5 24.3512242 94.0077012 17.1012247 86.5770144 27.1204789 85.0462072 31.6012237 75.5 36.0819712 85.0462096 46.1012247 86.577022 38.8512222 94.0077032 40.5627145 104.5"></polygon>
            </g>
        </g>
    </g>
</svg>