<?xml version="1.0" encoding="UTF-8" standalone="no"?>
<svg width="180px" height="180px" viewBox="0 0 180 180" version="1.1" xmlns="http://www.w3.org/2000/svg" xmlns:xlink="http://www.w3.org/1999/xlink">
    <!-- Generator: Sketch 3.8.3 (29802) - http://www.bohemiancoding.com/sketch -->
    <title>romania</title>
    <desc>Created with Sketch.</desc>
    <defs></defs>
    <g id="Page-1" stroke="none" stroke-width="1" fill="none" fill-rule="evenodd">
        <g id="flags" transform="translate(-1260.000000, -4770.000000)">
            <g id="romania" transform="translate(1260.000000, 4770.000000)">
                <path d="M120.000001,174.878829 C154.955772,162.523738 180,129.186567 180,90 C180,50.8134331 154.955772,17.4762623 120,5.12117078 L120,174.878833 L120,174.878833 L120.000001,174.878829 L120.000001,174.878829 L120.000001,174.878829 Z" id="red" fill="#E94B35"></path>
                <path d="M120.000001,174.878829 C110.616633,178.195374 100.519063,180 90,180 C79.480937,180 69.3833674,178.195374 59.9999996,174.878829 L60,5.12116698 C69.3833673,1.80462645 79.480937,0 90,0 C100.519063,0 110.616633,1.80462645 120,5.12117078 L120,174.878833 L120,174.878833 L120.000001,174.878829 L120.000001,174.878829 L120.000001,174.878829 Z" id="yellow" fill="#F2C500"></path>
                <path d="M59.9999996,5.12117078 C25.0442275,17.4762623 0,50.8134331 0,90 C0,129.186567 25.0442275,162.523738 59.9999996,174.878829 L60,5.12116698 L60,5.12116698 L59.9999996,5.12117078 L59.9999996,5.12117078 L59.9999996,5.12117078 Z" id="blue" fill="#227FBB"></path>
            </g>
        </g>
    </g>
</svg>