<?xml version="1.0" encoding="UTF-8" standalone="no"?>
<svg width="180px" height="180px" viewBox="0 0 180 180" version="1.1" xmlns="http://www.w3.org/2000/svg" xmlns:xlink="http://www.w3.org/1999/xlink">
    <!-- Generator: Sketch 3.8.3 (29802) - http://www.bohemiancoding.com/sketch -->
    <title>rwanda</title>
    <desc>Created with Sketch.</desc>
    <defs></defs>
    <g id="Page-1" stroke="none" stroke-width="1" fill="none" fill-rule="evenodd">
        <g id="flags" transform="translate(-1800.000000, -4770.000000)">
            <g id="rwanda" transform="translate(1800.000000, 4770.000000)">
                <path d="M12.0403964,135 L167.959604,135 C175.617252,121.762218 180,106.392932 180,90 L0,90 C0,106.392932 4.38274789,121.762218 12.0404109,135.000025 L12.0403964,135 Z" id="yellow" fill="#F2C500"></path>
                <path d="M0,90 L180,90 C180,40.2943701 139.70563,0 90,0 C40.2943701,0 0,40.2943701 0,90 L0,90 Z" id="blue" fill="#2C97DE"></path>
                <path d="M167.959604,135 L12.0403964,135 C27.6018377,161.901074 56.6873022,180 90,180 C123.312698,180 152.398162,161.901074 167.959589,135.000025 L167.959604,135 Z" id="green" fill="#1AAF5D"></path>
                <path d="M119.161217,33.3352953 L121.147949,15.8520508 L123.134681,33.3352953 L129.578714,16.9619821 L126.972754,34.3637035 L137.434936,20.2161359 L130.413875,36.3504359 L144.181228,25.3927471 L133.223539,39.1600997 L149.357839,32.1390381 L135.210271,42.601221 L152.611993,39.9952604 L136.238679,46.4392931 L153.721924,48.4260254 L136.238679,50.4127578 L152.611993,56.8567904 L135.210271,54.2508298 L149.357839,64.7130127 L133.223539,57.6919511 L144.181228,71.4593038 L130.413875,60.501615 L137.434936,76.6359149 L126.972754,62.4883473 L129.578714,79.8900688 L123.134681,63.5167556 L121.147949,81 L119.161217,63.5167556 L112.717184,79.8900688 L115.323145,62.4883473 L104.860962,76.6359149 L111.882023,60.501615 L98.1146708,71.4593038 L109.07236,57.6919511 L92.9380597,64.7130127 L107.085627,54.2508298 L89.6839059,56.8567904 L106.057219,50.4127578 L88.5739746,48.4260254 L106.057219,46.4392931 L89.6839059,39.9952604 L107.085627,42.601221 L92.9380597,32.1390381 L109.07236,39.1600997 L98.1146708,25.3927471 L111.882023,36.3504359 L104.860962,20.2161359 L115.323145,34.3637035 L112.717184,16.9619821 L119.161217,33.3352953 L119.161217,33.3352953 Z M121.147949,62.7886954 C128.862947,62.7886954 135.117189,56.5344542 135.117189,48.819456 C135.117189,41.1044577 128.862947,34.8502165 121.147949,34.8502165 C113.432951,34.8502165 107.17871,41.1044577 107.17871,48.819456 C107.17871,56.5344542 113.432951,62.7886954 121.147949,62.7886954 C121.147949,62.7886954 113.432951,62.7886954 121.147949,62.7886954 L121.147949,62.7886954 Z M121.147949,60.5536171 C127.628548,60.5536171 132.88211,55.3000546 132.88211,48.819456 C132.88211,42.3388573 127.628548,37.0852948 121.147949,37.0852948 C114.667351,37.0852948 109.413788,42.3388573 109.413788,48.819456 C109.413788,55.3000546 114.667351,60.5536171 121.147949,60.5536171 C121.147949,60.5536171 114.667351,60.5536171 121.147949,60.5536171 L121.147949,60.5536171 Z" id="sun" fill="#F2C500"></path>
            </g>
        </g>
    </g>
</svg>