<?xml version="1.0" encoding="UTF-8" standalone="no"?>
<svg width="180px" height="180px" viewBox="0 0 180 180" version="1.1" xmlns="http://www.w3.org/2000/svg" xmlns:xlink="http://www.w3.org/1999/xlink">
    <!-- Generator: Sketch 3.8.3 (29802) - http://www.bohemiancoding.com/sketch -->
    <title>saint_lucia</title>
    <desc>Created with Sketch.</desc>
    <defs></defs>
    <g id="Page-1" stroke="none" stroke-width="1" fill="none" fill-rule="evenodd">
        <g id="flags" transform="translate(-2610.000000, -4770.000000)">
            <g id="saint_lucia" transform="translate(2610.000000, 4770.000000)">
                <path d="M180,90 C180,40.2943701 139.706864,0 90.0027574,0 C40.2986504,0 0.00551488692,40.2943701 0.00551488692,90 C0.00551488692,139.70563 40.2986504,180 90.0027574,180 C139.706864,180 180,139.70563 180,90 Z" id="blue" fill="#2C97DE" transform="translate(90.002757, 90.000000) scale(1, -1) translate(-90.002757, -90.000000) "></path>
                <polygon id="white" fill="#FFFFFF" transform="translate(89.994485, 82.500000) scale(1, -1) translate(-89.994485, -82.500000) " points="43.9944851 20 135.994485 20 89.9944851 145 43.9944851 20 43.9944851 20 43.9944851 20"></polygon>
                <polygon id="black" fill="#000000" points="60 130 120 130 90 48.5078125"></polygon>
                <polygon id="yellow" fill="#F2C500" points="44 144.996094 136 144.996094 90 104"></polygon>
            </g>
        </g>
    </g>
</svg>