<?xml version="1.0" encoding="UTF-8" standalone="no"?>
<svg width="180px" height="180px" viewBox="0 0 180 180" version="1.1" xmlns="http://www.w3.org/2000/svg" xmlns:xlink="http://www.w3.org/1999/xlink">
    <!-- Generator: Sketch 3.8.3 (29802) - http://www.bohemiancoding.com/sketch -->
    <title>saint_kitts_and_nevis</title>
    <desc>Created with Sketch.</desc>
    <defs></defs>
    <g id="Page-1" stroke="none" stroke-width="1" fill="none" fill-rule="evenodd">
        <g id="flags" transform="translate(-2340.000000, -4770.000000)">
            <g id="saint_kitts_and_nevis" transform="translate(2340.000000, 4770.000000)">
                <path d="M120.180862,129.090431 L5.68434189e-14,8.90956858 C11.8218464,3.20027277 25.0824068,0 39.0904314,0 C88.7960614,0 129.090431,40.2943701 129.090431,90 C129.090431,104.008025 125.890158,117.268585 120.180862,129.090431 L120.180862,129.090431 Z" id="green" fill="#1AAF5D" transform="translate(64.545216, 64.545215) scale(-1, 1) translate(-64.545216, -64.545215) "></path>
                <path d="M180,171.090431 L59.8191376,50.9095686 C54.1098418,62.731415 50.909569,75.9919754 50.909569,90 C50.909569,139.70563 91.2039391,180 140.909569,180 C154.917594,180 168.178154,176.799727 180,171.090431 L180,171.090431 Z" id="red" fill="#E94B35" transform="translate(115.454784, 115.454784) scale(-1, 1) translate(-115.454784, -115.454784) "></path>
                <path d="M8.909569,50.9095686 L129.090431,171.090431 C147.395003,162.250339 162.250339,147.395003 171.090431,129.090431 L50.909569,8.90956858 C32.604997,17.7496611 17.7496615,32.6049966 8.909569,50.9095686 L8.909569,50.9095686 Z" id="yellow" fill="#F2C500" transform="translate(90.000000, 90.000000) scale(-1, 1) translate(-90.000000, -90.000000) "></path>
                <path d="M166.474624,138.088986 L42.2966527,13.9110142 C30.815089,21.182692 21.0925407,30.9814812 13.911014,42.5253755 L137.860262,166.474624 C149.404157,159.293098 159.202946,149.570549 166.474624,138.088986 L166.474624,138.088986 Z" id="black" fill="#000000" transform="translate(90.192819, 90.192819) scale(-1, 1) translate(-90.192819, -90.192819) "></path>
                <path d="M53.2817277,56.8950655 L50.5220635,65.7729542 L45.1540471,58.1823635 L35.857889,58.3011849 L41.4181623,50.8502749 L38.4324857,42.0458228 L47.236941,45.0314991 L54.687854,39.4712298 L54.5690271,48.7673862 L62.1596173,54.1354018 L53.2817277,56.8950655 L53.2817277,56.8950655 Z M131.281728,135.895065 L128.522063,144.772955 L123.154047,137.182364 L113.857889,137.301185 L119.418162,129.850275 L116.432485,121.045823 L125.236941,124.031499 L132.687853,118.47123 L132.569027,127.767386 L140.159617,133.135401 L131.281728,135.895065 L131.281728,135.895065 Z" id="stars" fill="#FFFFFF" transform="translate(88.008753, 92.122092) scale(-1, 1) translate(-88.008753, -92.122092) "></path>
            </g>
        </g>
    </g>
</svg>