<?xml version="1.0" encoding="UTF-8" standalone="no"?>
<svg width="180px" height="180px" viewBox="0 0 180 180" version="1.1" xmlns="http://www.w3.org/2000/svg" xmlns:xlink="http://www.w3.org/1999/xlink">
    <!-- Generator: Sketch 3.8.3 (29802) - http://www.bohemiancoding.com/sketch -->
    <title>samoa</title>
    <desc>Created with Sketch.</desc>
    <defs></defs>
    <g id="Page-1" stroke="none" stroke-width="1" fill="none" fill-rule="evenodd">
        <g id="flags" transform="translate(-450.000000, -5040.000000)">
            <g id="samoa" transform="translate(450.000000, 5040.000000)">
                <path d="M90,180 C139.70563,180 180,139.70563 180,90 C180,40.2943701 139.70563,0 90,0 C40.2943701,0 0,40.2943701 0,90 C0,139.70563 40.2943701,180 90,180 L90,180 Z" id="red" fill="#E94B35"></path>
                <path d="M0,90 L90,90 L90,0 C40.2943701,0 0,40.2943701 0,90 L0,90 Z" id="blue" fill="#227FBB"></path>
                <path d="M53.4661732,30.7896446 L49.6300346,32.8064225 L50.3626717,28.5348187 L47.2591698,25.5096522 L51.5481045,24.886433 L53.4661735,21 L55.3842437,24.886434 L59.6731779,25.5096552 L56.5696749,28.5348195 L57.3023121,32.8064226 L53.4661732,30.7896446 L53.4661732,30.7896446 L53.4661732,30.7896446 L53.4661732,30.7896446 L53.4661732,30.7896446 Z M36.6839254,45.7071982 L32.8477868,47.7239761 L33.5804238,43.4523723 L30.476922,40.4272058 L34.7658566,39.8039866 L36.6839257,35.9175536 L38.6019958,39.8039876 L42.8909301,40.4272089 L39.787427,43.4523732 L40.5200643,47.7239762 L36.6839254,45.7071982 L36.6839254,45.7071982 L36.6839254,45.7071982 L36.6839254,45.7071982 L36.6839254,45.7071982 Z M69.316074,41.9778098 L65.4799354,43.9945877 L66.2125724,39.7229839 L63.1090706,36.6978174 L67.3980052,36.0745982 L69.3160742,32.1881652 L71.2341444,36.0745992 L75.5230787,36.6978205 L72.4195756,39.7229847 L73.1522129,43.9945878 L69.316074,41.9778098 L69.316074,41.9778098 L69.316074,41.9778098 L69.316074,41.9778098 L69.316074,41.9778098 Z M53.4661732,77.4069997 L49.0820148,79.9999999 L49.9193143,74.5079378 L46.3724551,70.618438 L51.2740946,69.8171562 L53.4661735,64.8203138 L55.6582538,69.8171574 L60.5598929,70.618442 L57.0130322,74.5079389 L57.8503319,80 L53.4661732,77.4069997 L53.4661732,77.4069997 L53.4661732,77.4069997 L53.4661732,77.4069997 L53.4661732,77.4069997 Z M60.9249501,56.1961031 L58.7328709,57.4926032 L59.1515207,54.7465722 L57.3780911,52.8018223 L59.8289109,52.4011814 L60.9249502,49.9027602 L62.0209904,52.401182 L64.47181,52.8018243 L62.6983796,54.7465727 L63.1170295,57.4926033 L60.9249501,56.1961031 L60.9249501,56.1961031 L60.9249501,56.1961031 L60.9249501,56.1961031 L60.9249501,56.1961031 Z" id="stars" fill="#FFFFFF"></path>
            </g>
        </g>
    </g>
</svg>