<?xml version="1.0" encoding="UTF-8" standalone="no"?>
<svg width="180px" height="180px" viewBox="0 0 180 180" version="1.1" xmlns="http://www.w3.org/2000/svg" xmlns:xlink="http://www.w3.org/1999/xlink">
    <!-- Generator: Sketch 3.8.3 (29802) - http://www.bohemiancoding.com/sketch -->
    <title>san_marino</title>
    <desc>Created with Sketch.</desc>
    <defs></defs>
    <g id="Page-1" stroke="none" stroke-width="1" fill="none" fill-rule="evenodd">
        <g id="flags" transform="translate(-720.000000, -5040.000000)">
            <g id="san_marino" transform="translate(720.000000, 5040.000000)">
                <path d="M179.787572,89.8420959 C179.787608,89.8752924 179.787626,89.9084931 179.787626,89.9416981 C179.787626,139.615129 139.577323,179.883396 89.9753957,179.883396 C40.3734681,179.883396 0.163165468,139.615129 0.163165468,89.9416981 C0.163165468,89.9084931 0.163183435,89.8752924 0.163219362,89.8420959 L179.787576,89.8420959 L179.787576,89.8420959 L179.787572,89.8420959 L179.787572,89.8420959 L179.787572,89.8420959 Z" id="blue" fill="#52AFEC"></path>
                <path d="M179.787572,89.8420959 C179.733863,40.2144496 139.544166,0 89.9753957,0 C40.4066253,0 0.21692798,40.2144496 0.163219362,89.8420959 L179.787576,89.8420959 L179.787576,89.8420959 L179.787572,89.8420959 L179.787572,89.8420959 L179.787572,89.8420959 Z" id="white" fill="#FFFFFF"></path>
                <g id="emblem" transform="translate(45.000000, 31.000000)">
                    <g id="left-branch" transform="translate(0.000000, 37.000000)" stroke="#262626" stroke-width="0.1">
                        <path d="M22.644043,54.2680664 C20.2994271,56.2096864 16.5423779,56.403533 14.1468919,55.1068473 C14.0465512,55.052165 13.9956825,54.9305952 14.1090895,54.9068209 C17.0874515,54.2921587 17.4759323,50.5940453 23.6845589,50.9579589 C24.4122092,51.0007542 24.7196781,51.136271 25.4502959,51.136271 L26.0445052,51.4103174 C24.7754244,51.5369558 23.9173022,53.2132428 22.644043,54.2680664 L22.644043,54.2680664 Z" id="path180" fill="#658D5C"></path>
                        <path d="M19.9999867,46.8982986 C19.4851917,46.9168016 18.9365414,46.9168016 18.4285562,47.0029701 C16.911911,47.2607685 15.4104545,48.9291545 13.1041787,48.9961277 C10.0352956,49.0852906 8.09758009,47.625715 6,45.5426888 C9.05177373,45.0794235 11.4107664,43.3000192 14.559567,44.3005606 C16.1739335,44.8135165 18.0715203,46.8665784 19.5871164,46.5724857 L20,46.8983046 L19.9999867,46.8982986 L19.9999867,46.8982986 Z" id="path162" fill="#658D5C"></path>
                        <path d="M19.8436401,32 L19.890781,32.0208368 C19.9267362,33.9091615 21.505359,36.484536 21.8922816,38.5614553 C22.2260629,40.3501135 21.744867,41.8452641 20.9892124,43.5116287 C20.8002498,43.9269067 20.3570047,44.7616292 20.3396257,45.1705686 C20.3234408,45.5514213 20.5867154,45.9038267 20.8094364,46.21909 C20.8873388,46.3299749 21.3585481,46.8911078 21.3100086,47 C19.4237642,45.5184441 20.5333813,46.4841642 19.7483656,45.1182103 C19.3436734,44.4137599 18.8612767,43.7741748 18.46018,43.0646544 C16.3426284,39.3181029 16.3034768,35.0680187 19.8436469,32.0000031 L19.8436401,32 L19.8436401,32 Z" id="path182" fill="#658D5C"></path>
                        <path d="M19.8436401,32 L19.890781,32.0208368 C19.9267362,33.9091615 21.505359,36.484536 21.8922816,38.5614553 C22.2260629,40.3501135 21.744867,41.8452641 20.9892124,43.5116287 C20.8002498,43.9269067 20.3570047,44.7616292 20.3396257,45.1705686 C20.3234408,45.5514213 20.5867154,45.9038267 20.8094364,46.21909 C20.8873388,46.3299749 21.3585481,46.8911078 21.3100086,47 C19.4237642,45.5184441 20.5333813,46.4841642 19.7483656,45.1182103 C19.3436734,44.4137599 18.8612767,43.7741748 18.46018,43.0646544 C16.3426284,39.3181029 16.3034768,35.0680187 19.8436469,32.0000031 L19.8436401,32 L19.8436401,32 Z" id="path184"></path>
                        <path d="M28.1725103,50.7724345 C27.3627135,50.2420584 25.6090192,50.1920651 24.2849618,49.3132945 C22.4359364,48.0852637 21.4775143,46.9438944 20.9638198,44.9203053 C20.6520512,43.6929659 20.891799,42.7117935 20.9556033,41.6913357 C22.6212287,43.8820378 25.5148365,44.0882413 27.0629883,46.7089844 C28.0040246,48.3013315 27.8790881,50.7231355 29.8073885,51.6913357 L29.1370478,51.5629796 C28.8455262,51.2820527 28.5184745,50.9992204 28.1725103,50.7724345 L28.1725103,50.7724345 Z" id="path188" fill="#658D5C"></path>
                        <path d="M14.966029,43.4305816 C14.966029,43.4305816 14.035127,43.2088884 13.6230655,42.9818289 C12.9073979,42.5856307 11.323418,40.2882033 9.49274361,39.1384681 C6.86823712,37.4905748 4.58215082,37.83477 2,37 C2.73273879,40.0467154 4.13327149,41.8693047 6.73468004,43.1605986 C9.06428399,44.3168094 12.8680605,43.3169681 13.2799548,43.3545348 C13.6920163,43.3930259 15,44 15,44 L14.9660248,43.4305926 L14.966029,43.4305816 L14.966029,43.4305816 Z" id="path194" fill="#658D5C"></path>
                        <path d="M11.9999985,37.999987 C10.5958756,36.4345137 8.27909022,36.2375159 5.66027541,35.6364598 C4.40752056,35.3490433 3.38441415,34.6970778 2.42937644,33.8770593 C0.946622099,32.6030952 0.456417624,30.8951045 0.16745059,29.0626569 C0.00536093443,28.0352436 -0.0386014552,27.03967 0.0335964241,26 C0.152975003,26.2004087 0.304341497,26.3986031 0.502173007,26.5337986 C1.47488948,27.1978536 2.48853766,27.6611596 3.46285195,28.3316904 C4.31422436,28.9177622 4.91880065,29.304446 5.6170166,30.0539835 C6.49966427,31.0029019 7.23665731,32.0282724 7.85750218,33.1484859 C8.34698794,34.0325312 8.7665984,35.0689734 9.39941623,35.8711071 C9.72734797,36.2877593 11.0506953,36.82905 11.531959,36.8876217 L12,38 L11.9999985,37.999987 L11.9999985,37.999987 Z" id="path208" fill="#658D5C"></path>
                        <path d="M16.3666578,17 C18.2484416,21.9627659 15.7638566,25.5359391 11.2017003,28 L10,26.3954012 C10.7842921,23.2082665 11.3473393,21.6390108 13.8677651,19.3743357 C14.8643842,18.4789805 15.7376586,18.1882452 16.36665,17 L16.3666578,17 L16.3666578,17 Z" id="path224" fill="#658D5C"></path>
                        <path d="M23.6103956,48.9999932 C21.6307503,47.4811897 18.0634031,48.0266089 15.9390599,45.9664017 C14.379143,44.453852 13.7215704,42.0685367 14.1083558,40 C15.9937752,41.519916 18.1861188,41.9373132 19.9009897,43.6437475 C21.9190662,45.652689 20.200646,47.0006836 24,48.9554562 L23.6103762,49 L23.6103956,48.9999932 L23.6103956,48.9999932 Z" id="path234" fill="#658D5C"></path>
                        <path d="M13.2585405,38.0814504 L13.2645372,38.0308349 C13.7850677,37.4552777 13.4239946,35.726512 13.2532893,35.0335496 C12.9589217,33.8391256 12.9225698,32.8123734 13.1367407,31.5960406 C13.3838891,30.191326 14.2124671,28.9229773 15.0618513,27.7600433 C15.4405388,27.2420599 16.6706554,25.6225292 16.7982695,25.036011 C16.808756,24.9859168 16.8660998,24.9895705 16.8898966,25.0377487 C17.3588991,25.9870962 17.6039867,27.1429084 17.7932377,28.1691349 C18.0574389,29.606201 18.1402579,30.9122971 17.6026763,32.5464249 C17.121869,34.0092346 16.4754204,34.9559696 15.4853195,35.9399306 C15.0663458,36.3558141 14.0807472,37.2724611 13.9364674,37.7678316 C13.9102355,37.8582783 13.7429077,38.5176728 13.7798213,39 L13.2585405,38.08144 L13.2585405,38.0814504 L13.2585405,38.0814504 Z" id="path236" fill="#658D5C"></path>
                        <path d="M9,19.9999908 L9.06552759,19.3957129 C9.51283858,19.2162392 9.91083233,18.7487374 10.091377,18.2957082 C10.8704636,16.3397641 11.3451933,14.3514378 12.439505,12.5449364 C13.8600719,10.2001901 15.3816911,9.287986 16.9174474,8 C16.9890107,10.0722845 17.3369951,12.2552724 15.7643359,14.9710981 C14.8705753,16.5129192 12.2660369,18.0408009 10.6449145,18.7118378 C9.91980109,19.0121678 9.40092688,19.2562315 9.00000876,20 L9,19.9999908 L9,19.9999908 Z" id="path250" fill="#658D5C"></path>
                        <path d="M8.92803031,25.398015 L9,26 C7.7627744,24.3593766 7.3488522,24.8442328 5.63859213,24.1501033 C4.14965479,23.5465234 2.94099936,22.4205222 2.07573404,21.102076 C0.783898859,19.133259 0.807949487,16.2199211 1.35350634,14 C2.04716234,15.3400667 4.76121194,16.6842145 5.802773,18.3570811 C6.47274122,19.4329274 6.88846387,20.7114964 7.22100679,21.9234455 C7.38700649,22.5295055 7.57452606,23.7513766 7.8302169,24.2523544 C8.0208092,24.6268003 8.59819269,25.1272439 8.92802418,25.398021 L8.92803031,25.398015 L8.92803031,25.398015 Z" id="path260" fill="#658D5C"></path>
                        <path d="M11.0000015,12 C11.5120566,10.626368 11.5002938,9.0980694 11.7870652,7.67157945 C12.3912651,4.66461355 13.2929309,3.68694326 15.5858557,1.67554669 C16.3164204,1.03491288 17.06463,0.568873269 17.8591844,0 C17.9878671,0.865042204 18.0477523,1.59111243 17.9550717,2.45970156 C17.5039717,6.70859151 15.5938731,7.71142338 12.3912636,10.3099282 C11.7701326,10.8132842 11.6099025,11.518589 11,12 L11.0000015,12 L11.0000015,12 Z" id="path288" fill="#658D5C"></path>
                        <path d="M9,19.2499195 L8.76898704,20 C8.63933926,19.0239366 8.23282547,18.5890253 7.53750345,17.9524717 C4.50904201,15.1816856 3.21501841,11.9205649 4.48549673,8.10763354 C4.93030619,6.77482985 5.3584272,6.03967843 6.29530029,5 C6.88697399,6.02527584 7.17367607,6.6385551 7.58370307,7.75106622 C8.62264636,10.5742582 9.03706411,12.1703501 8.62510649,15.4041247 C8.47929531,16.5464773 7.93768843,17.9375502 8.68747099,18.9532369 C8.76951209,19.0637419 8.86894367,19.1930778 8.99999703,19.2499286 L9,19.2499195 L9,19.2499195 Z" id="path296" fill="#658D5C"></path>
                        <path d="M6,25 C6.55242072,25 7,25.4474896 7,25.9997996 C7,26.5521097 6.55242072,27 6,27 C5.44757928,27 5,26.5521097 5,25.9997996 C5,25.4474896 5.44757928,25 6,25 L6,25 L6,25 Z" id="path214" fill="#D99F31"></path>
                        <path d="M8.50016045,10.9826118 C8.50952169,10.4302777 8.96515224,9.99065768 9.51744572,10.0001509 C10.0697403,10.0096486 10.5097307,10.4650413 10.4998363,11.0173754 C10.4903393,11.5697095 10.0349793,12.0097314 9.48268464,11.9998363 C8.93025646,11.9900782 8.49039964,11.534946 8.50015932,10.9826118 L8.50016045,10.9826118 L8.50016045,10.9826118 Z" id="path306" fill="#D99F31"></path>
                        <path d="M15.0000645,36 C15.5522123,36 16,36.4477877 16,36.9999355 C16,37.5520832 15.5522123,38 15.0000645,38 C14.4479168,38 14,37.5520821 14,36.9999355 C14,36.4477877 14.4479179,36 15.0000645,36 L15.0000645,36 L15.0000645,36 Z" id="path316" fill="#D99F31"></path>
                        <path d="M18,48 C18.5521834,48 19,48.4477165 19,49.0000645 C19,49.5522835 18.5521834,50 18,50 C17.4478166,50 17,49.5522835 17,49.0000645 C17,48.4477165 17.4478166,48 18,48 L18,48 L18,48 Z" id="path374" fill="#D99F31"></path>
                        <path d="M24.9999355,52 C25.5522835,52 26,52.4477165 26,53.0000645 C26,53.5522835 25.5522835,54 24.9999355,54 C24.4477165,54 24,53.5522835 24,53.0000645 C24,52.4477165 24.4477165,52 24.9999355,52 L24.9999355,52 L24.9999355,52 Z" id="path458" fill="#D99F31"></path>
                        <path d="M11.3209249,12 C9.58275467,16.6082461 9.06892023,24.3139655 9.66733366,27.87963 C11.5373574,39.024233 20.5914862,49.4861328 28.9481695,51.1796781 C36.1546019,52.6403331 40.4629923,55.9139712 43.4304906,59.2968632 C44.8164231,60.8776768 45.9346894,62.4212166 46.8551027,63.8745885 C47.6469168,65.1249185 48.3250974,66.4893368 48.991075,67.5688838 C49.0986902,67.7431431 48.1994326,68.1181894 48.1043668,67.963351 C47.400226,66.8153222 46.7529878,65.3676727 45.9419189,64.0417424 C45.0189381,62.5334066 43.4335865,60.9903954 42.0548806,59.3487163 C39.121077,55.8548689 35.2140984,53.2291836 28.4429327,51.8661556 C20.436777,50.2543074 11.1190138,39.9399028 9.2587419,28.8500289 C8.65430853,25.2472813 9.09972584,16.8854599 10.6912619,12.4711142 L11.3209656,12.0000073 L11.3209249,12 L11.3209249,12 Z" id="path228" fill="#A48253"></path>
                        <path d="M11.1604202,34.6980215 C10.6678045,33.961216 9.62038073,33.1414655 9.02821736,32.5407719 C8.00986106,31.5080047 7.37788103,30.3245047 7.14566683,28.9011352 C6.59737609,25.5368165 7.59916996,23.2742648 10.1128234,21 C10.2715665,23.3601178 11.6533999,25.3167282 11.9458642,27.6735826 C12.3651878,31.0542473 10.1625122,31.6914354 11.692508,35 L11.1604261,34.6980156 L11.1604202,34.6980215 L11.1604202,34.6980215 Z" id="path520" fill="#658D5C"></path>
                    </g>
                    <g id="right-branch" transform="translate(39.000000, 37.000000)" stroke="#262626" stroke-width="0.1">
                        <path d="M39.6033852,18.9999911 L39.3616071,17.9267046 C39.4269612,17.8909858 39.482664,17.8376711 39.5361329,17.7862711 C39.8192903,17.5113284 39.9544957,16.7509676 39.9763972,16.3693925 C40.0236606,15.5405564 39.4281731,15.0652433 39.3985184,14.3759704 C39.3833334,14.0182668 39.7763633,13.8902027 39.8398193,13.5514906 C39.9205191,13.1202591 38.7430207,12.0776373 39.0517152,11.2622195 C39.2615901,10.7097202 39.7701433,10.9951175 39.9757109,10.2753524 C40.1545441,9.64810677 39.6180446,8.52951126 40.2890632,8.1538693 C40.6943288,7.92788667 41.277391,8.29116655 41.4732927,7.56582676 C41.6217704,7.01750957 41.5072693,6.08152173 42.2743333,6.0038088 C43.3171521,5.89839627 43.4735727,8.01429878 43.7446697,8.22443936 C44.0454359,8.45721671 44.2842792,8.1550937 44.5734814,8.26921723 C45.0094383,8.44118731 44.9020041,9.04891919 44.8038707,9.39930445 C44.6904063,9.80666592 44.4939789,10.1425914 44.3272208,10.5210288 C44.2946167,10.5964729 44.2939305,10.6673867 44.3818869,10.7011877 C44.6559187,10.8059039 44.8899291,10.7616483 44.9851277,11.1249267 C45.1142882,11.6181854 44.3642927,12.1570939 44.1982208,12.5480778 C44.0688851,12.8524667 44.5753795,12.929653 44.6412593,13.3328323 C44.735246,13.9018832 42.844824,14.5395836 42.6999528,14.8066856 C42.6830448,15.1797224 43.1735073,15.5656523 42.5775087,15.7672427 C41.080438,16.2739183 39.585791,17.2264607 39.6033852,19 L39.6033852,18.9999911 L39.6033852,18.9999911 Z" id="path24" fill="#658D5C"></path>
                        <path d="M39.3772452,18.2850035 L39.5,19 C37.5489289,16.075892 35.9566475,17.2374677 35.5381815,16.7622763 C35.2197597,16.4006029 35.6256789,16.1401854 35.3659141,15.8566738 C35.0910616,15.5562858 33.4511311,16.1920556 32.9640022,14.8579882 C32.8626085,14.5805168 33.2244374,14.1222078 33.041488,14.0847264 C32.6265879,13.9996372 32.0673966,14.0117174 31.7825454,13.6182462 C31.6638575,13.4539303 31.5617848,13.229039 31.7169288,13.051578 C31.7974666,12.9599162 31.8922481,12.8819334 31.9593922,12.777659 C32.2128764,12.3827681 30.6712861,12.0781177 30.6665387,11.4903106 C30.663481,11.1535075 31.0861863,11.0318242 30.9312131,10.6172158 C30.7959086,10.2543001 30.3279387,9.65352547 30.5668405,9.25863306 C30.8566085,8.78042911 31.506342,9.38244753 31.8683417,9.42614649 C32.0460355,9.4474628 32.3476727,9.00887293 32.6410023,9.00016923 C33.1077865,8.98577587 33.3068429,9.89440293 33.6637549,9.85763143 C34.0118498,9.82157133 34.4072608,9.25436919 34.7882443,9.74713946 C35.0535935,10.0906926 35.0474923,11.0938195 35.6692482,10.8032029 C35.8177857,10.7339238 36.0388765,10.5440277 36.2052149,10.6197019 C37.2001593,11.0705494 36.9461655,12.7456778 37.1935414,13.6368929 C37.3264743,14.1152744 37.8010565,14.0097576 37.9709551,14.3057029 C38.0531841,14.4494139 38.1218613,14.615682 38.1354274,14.7840843 C38.1474861,14.9285052 38.1260962,15.0709709 38.1074483,15.2132591 C38.0304735,15.7909411 38.0823547,16.3100015 38.2225803,16.8759553 C38.3332908,17.3268028 38.9384372,18.1624163 39.3772452,18.2849869 L39.3772452,18.2850035 L39.3772452,18.2850035 Z" id="path50" fill="#658D5C"></path>
                        <g id="fruit" transform="translate(39.820816, 9.533210) rotate(-21.000000) translate(-39.820816, -9.533210) translate(37.820816, 7.033210)">
                            <path d="M3.23727347,3.2462653 C2.87382325,3.70405377 1.28689172,4.29408198 0.699055091,3.976401 C0.187555625,3.69977807 0.193442089,1.99573076 1.1220863,1.16157757 C1.70791405,0.635873208 3.89168321,2.42220753 3.23727347,3.24625806 L3.23727347,3.2462653 L3.23727347,3.2462653 Z" id="path74" fill="#A48253"></path>
                            <path d="M3.24264529,2.45594594 C3.02694267,2.6251784 2.41388104,2.39932071 2.05850627,2.06111352 C1.7356406,1.7530908 1.58173282,1.3226582 1.70705462,1.18128732 C2.09332107,0.745307958 3.06610502,0.295914365 3.48327462,0.629219127 C3.90044423,0.962523889 3.49667287,2.25743545 3.24264529,2.45594594 L3.24264529,2.45594594 Z" id="path78" fill="#D99F31"></path>
                        </g>
                        <path d="M38.7379904,13.1587324 C40.1307806,18.5186447 40.2592343,24.7123432 39.6629491,28.2908846 C37.8268152,39.3129633 27.9616264,49.5672169 20.0659831,51.1683753 C13.3622629,52.5278164 9.39990966,55.478714 6.58579832,58.6326086 C5.25164674,60.1273933 4.1863271,61.6185387 3.36180921,63.0399522 C2.54391688,64.448764 2.00743568,65.656644 1.28147233,66.8703819 C1.19191732,66.9045624 1.12666175,66.9200989 1.05155202,66.9347717 C0.891983413,66.965155 0.689932144,66.9888048 0.498247238,66.9967455 C0.30282296,67.0052081 0.129491047,66.9973301 0.024981423,66.9711971 C0.102131332,66.8037427 0.20375046,66.6471698 0.303502061,66.4807574 C0.995812497,65.3215641 1.59754927,64.1915468 2.38910486,62.8488539 C3.17827784,61.5111639 4.11171951,60.0994216 5.38198379,58.640884 C8.31011792,55.2784515 12.4716262,52.0259735 19.583699,50.574013 C27.8630488,48.88364 37.3173024,38.4536755 39.1688599,27.3397512 C39.7716196,23.7206218 39.7585412,17.4709887 37.4946743,10.6993971 L37.6834702,10.0000833" id="path448" fill="#A48253"></path>
                        <path d="M40.1153807,26.789735 C40.5547759,26.7702196 40.8288401,26.0397481 40.9615263,25.722123 C41.1345973,25.3081002 41.2118246,24.8952539 41.229333,24.453977 C41.2558765,23.8128383 40.7536414,22.6865077 41.8441712,22.8391014 C41.8441712,22.8391014 42.0741991,21.3362675 42.5458335,20.9897019 C42.8532604,20.7642682 43.4021221,20.8921262 43.5348239,20.8026253 C43.8492573,20.5909868 43.7274319,19.6746168 44.4056717,19.5575272 C44.6683133,19.5119356 45.1394016,19.749146 45.3395622,19.6581311 C45.5903911,19.5440682 45.6803362,18.8564962 46.1604595,18.7395746 C46.4606927,18.666729 46.8584236,18.9624843 47.0541681,18.8507773 C47.467566,18.6152505 47.7823583,17.8699741 48.3669859,18.019702 C49.0267966,18.188273 48.7940223,19.1026232 48.6263037,19.4771124 C48.5063197,19.7451093 48.8401028,19.8421793 48.9586044,20.0390129 C49.1803306,20.4086221 48.4434642,20.9959264 48.3515061,21.3219639 C48.3164737,21.4430917 48.6412217,21.5909693 48.7226935,21.6703756 C49.2133188,22.1488331 47.9497024,22.994712 47.6102236,23.2591707 C47.5090276,23.3377352 47.2893455,23.4950351 47.2771739,23.6212095 C47.2511922,23.8895425 47.5680131,24.0853662 47.4863696,24.4125816 C47.2089817,25.5232612 45.5151924,25.1957095 44.8496703,25.3985995 C44.5813175,25.4800241 44.5424307,25.9774928 44.3765535,26.1852613 C43.8440922,26.8524761 41.5096546,26.2078049 40.8832066,26.7300022 C40.5086954,27.0422447 40.2066053,27.579415 40,28 L40.1153807,26.7897265 L40.1153807,26.789735 L40.1153807,26.789735 Z" id="path58" fill="#658D5C"></path>
                        <path d="M40.8965147,26 C39.6626465,24.1762969 39.1108538,24.864219 37.2371353,24.9986491 C36.8097472,25.0290871 35.368538,25.0865194 35.3940309,24.3991433 C35.4014388,24.2034752 35.5572304,24.1520222 35.4294117,23.9163137 C35.1572177,23.4117436 33.4685617,23.5041421 33.2144543,22.5698259 C33.0828302,22.0862723 33.3616736,21.434588 33.2907268,21.2523266 C33.0552502,20.6453934 32.0068327,20.0777737 32.3183901,19.2827763 C32.3598551,19.1771521 32.4212908,19.0796793 32.4414532,18.9662643 C32.5042224,18.6153291 31.7511937,17.8114594 32.0863373,17.2934857 C32.4756907,16.6910807 33.1554889,17.166845 33.6732311,17.3902329 C34.0437539,17.5503917 33.949981,17.238046 34.1949686,17.1610467 C34.6227433,17.0258911 35.1558923,17.4152346 35.4421662,17.6763069 C35.6026924,17.8234211 36.1101666,18.4000987 36.2393219,18.4573485 C36.5415486,18.5910545 37.0551101,18.4388691 37.4056653,18.5560883 C37.7204532,18.6618935 37.9338655,19.9210555 37.9814211,20.2420895 L38.0422787,20.282311 C38.3291098,20.2230656 38.7517472,20.2256027 38.9237074,20.4919303 C39.706015,21.7072461 39.3216089,24.6087533 41,25.4896178 L40.8965147,25.9999877 L40.8965147,26 L40.8965147,26 Z" id="path88" fill="#658D5C"></path>
                        <path d="M29.4115028,45 C29.4572122,44.6311216 29.4977899,44.1327294 29.4125892,43.7709388 C29.2897331,43.2475643 28.2457841,42.5891826 28.1995927,42.1356127 C28.1697603,41.8466405 28.3694414,41.7711641 28.4111407,41.4099045 C28.4675967,40.9230284 27.3821059,40.611378 27.5105757,39.9411262 C27.5888442,39.5306116 28.0531602,39.3344793 28.0090546,38.9700306 C27.9848359,38.7669889 27.435034,38.265406 27.5522764,37.7439816 C27.6475448,37.3223049 28.0615006,37.4904443 28.3015978,37.2781891 C28.5651111,37.0462679 27.7851562,36.3388081 28.0339143,35.9132342 C28.2311891,35.5751855 28.7708866,35.7233033 28.923734,35.4841172 C29.082195,35.2367811 28.7968692,34.2040293 29.5484366,34.0114402 C30.1429864,33.8594237 30.2640772,35.2690268 30.5162043,35.4740171 C30.7546978,35.6685549 30.8629575,35.320229 31.2361753,35.3762165 C31.6039398,35.4316729 31.3203779,36.4240276 31.4658477,36.7230984 C31.6230255,37.0475054 31.8729066,36.7897169 32.1272783,36.8899972 C32.5377049,37.0519352 32.1328866,38.0138173 32.1328866,38.3483229 C32.1328866,38.6977123 32.4672907,38.6971798 32.4971217,39.1107065 C32.545718,39.7829069 31.9670465,39.9529949 31.660871,40.3672297 C31.5761864,40.4811532 31.5688087,40.5871037 31.6626363,40.6987231 C32.2135612,41.3544466 31.8249471,41.7483059 31.2892582,42.1756513 C30.4570175,42.8402343 29.4791495,43.2076937 29.8982343,44.5464211 L29.4114635,44.999988 L29.4115028,45 L29.4115028,45 Z" id="path110" fill="#658D5C"></path>
                        <path d="M37.5246786,41.7856492 C38.4073923,41.7421345 39.2514465,42.1419126 39.7850252,41.9452641 C40.5796905,41.6536236 40.0945784,41.0227565 40.4776539,40.9875745 C40.8607293,40.9516524 42.7935535,41.0962686 42.7915705,40.1152461 C42.7915705,39.9263736 42.6357948,39.8526781 42.7053359,39.6399193 C42.7748616,39.4269755 44.2291219,39.4986361 44.2814161,38.706301 C44.3144496,38.2011617 43.8632934,38.1954221 43.9328345,37.8893379 C44.0023602,37.5834402 45.5599176,36.0806162 44.7837751,35.4584517 C44.2492741,35.0299727 43.3736466,35.7780516 43.2912088,35.5593683 C43.1833771,35.2742089 43.1592283,35.0357122 42.8048362,35.0020117 C42.2923012,34.9538675 41.982748,35.7858293 41.6483237,35.7858293 C41.3131768,35.7858293 41.1606752,35.444008 40.8171816,35.475302 C40.3678238,35.5156686 40.300112,36.2156049 39.9170211,36.2156049 C39.5341301,36.2156049 38.9366363,35.998773 38.9366363,35.998773 L37,41.8260174 C37,41.8260174 37.3197138,41.7954649 37.524694,41.7856507 L37.5246786,41.7856492 L37.5246786,41.7856492 Z" id="path142" fill="#658D5C"></path>
                        <path d="M38,35 C38,35 38.7514728,34.1108362 39.357088,33.7646544 C40.5323636,33.0917584 42.4423265,34.1746378 42.7260583,33.5653493 C42.8708965,33.2550184 42.6522823,33.0279568 42.8345972,32.9452669 C43.0165675,32.8625769 45.1005315,33.3323114 45.1832962,32.2613845 C45.1989043,32.0684408 44.9663907,31.9709081 45.1469969,31.7646639 C45.3281344,31.5588048 46.6441703,31.4585745 46.5123987,30.7515607 C46.470844,30.525271 46.1844128,30.4614694 46.2578442,30.2351797 C46.3306007,30.0081182 47.316784,28.9427791 46.895853,28.2895368 C46.7730701,28.0989056 46.4630472,28.1362988 46.4861075,27.9032626 C46.5595389,27.1794803 46.773745,26.0605639 46.2476637,26.0021559 C45.6824114,25.9398965 45.0218448,27.246368 44.801206,27.2966765 C44.52731,27.3589359 44.3641643,27.0520746 44.0904406,27.1517272 C43.6359241,27.3169161 43.5633399,28.0821388 43.3808671,28.0821388 C43.1990547,28.0821388 43.2127962,27.8685703 42.9204203,27.8753168 C42.0278426,27.8965193 41.9528892,29.5241219 41.5061839,29.9240672 C41.2516151,30.1517065 41.1013636,29.8448468 40.8503557,29.9038276 C40.2318606,30.0480066 40.4143335,31.805897 40.0865055,32.3652688 C39.7583473,32.9242488 39.0489461,33.5855791 38.903433,33.6690409 C38.7572451,33.7517325 38.4711297,33.7509606 38.4711297,33.7509606 L38,34.9999918 L38,35 L38,35 Z" id="path248" fill="#658D5C" transform="translate(42.500000, 30.500000) rotate(5.000000) translate(-42.500000, -30.500000) "></path>
                        <path d="M38,11.999976 C38,11.999976 37.4800721,10.6008863 37.0358947,10.0905373 C36.5658177,9.54898654 36.2280164,9.43537114 35.3742766,9.18428243 C34.6191337,8.96188961 33.4397277,8.78304138 33.3900763,8.23815419 C33.3398771,7.693267 33.4092863,7.79637164 33.1939948,7.74415118 C32.5008209,7.57648044 31.634211,7.3654332 31.7998557,6.73345683 C31.9654928,6.10114711 32.2210148,6.00271377 31.9241745,5.87007843 C31.4857985,5.67538001 30.333044,5.05758561 30.4707745,4.51686826 C30.6077776,3.97548419 31.1206368,3.96830986 30.9046195,3.63630622 C30.7493117,3.39889803 30.1935046,3.13830005 30.238085,2.70552672 C30.2688916,2.41039338 30.6746489,2.31479644 30.6625061,2.05202879 C30.6503695,1.7887611 29.5608592,0.621401157 30.2018407,0.133917053 C30.7861006,-0.310033766 31.8177968,0.483605782 32.0814739,0.583874021 C32.3458767,0.684142259 32.6497858,0.169119137 33.0365127,0.253705278 C33.533605,0.362816061 33.5596996,1.04784628 33.7061282,1.29076058 C33.9743362,1.73354463 34.5230837,1.15745852 34.9523932,1.36984061 C35.6680421,1.72420064 35.4188646,2.94244334 35.6120386,3.18886217 C35.8043226,3.43511291 36.333119,3.04154623 36.708435,3.23157336 C37.2921456,3.52837491 36.7927012,5.30701458 36.8307529,5.59898805 C36.8690041,5.89195313 37.2934191,5.64019629 37.5355386,5.81387318 C38.1803161,6.27601054 37.395453,7.67843526 37.5195814,8.86163974 C37.562359,9.27055515 37.6687351,9.90570269 37.6687351,9.90570269 L38,12 L38,11.999976 L38,11.999976 Z" id="path314" fill="#658D5C"></path>
                        <path d="M31.7268335,53.7749711 C31.9142811,54.0946539 32.2546708,54.3152048 32.4123004,54.6438693 C32.6350945,55.1059285 32.4265386,55.5754739 31.8646964,55.5410437 C31.6214663,55.5262402 31.3976666,55.3397872 31.1644879,55.3209914 C30.9758673,55.3065203 30.4364724,56.0227295 29.9134927,55.9994442 C29.2007209,55.9683403 28.861002,55.1047653 28.4263077,54.6631637 C28.0800562,54.5906447 27.8256017,55.0971143 27.4409898,55.0280878 C26.6506592,54.8865423 26.6888522,53.6410766 26.4161387,53.0925259 C26.198371,52.9316861 25.8690382,53.271994 25.4308209,52.9642869 C24.7535616,52.489586 25.1081895,50.9971241 24.3818476,50.5796359 C23.7422792,50.2117179 22.3895972,50.4555554 22.5072014,50.3943461 L23.2611814,50.0053044 C23.3082529,49.9806883 23.4524825,50.0492149 23.499554,50.058529 C24.7353054,50.3028651 26.3891672,50.1017748 27.6559082,50.1017748 C28.2631468,50.1017748 28.1654865,50.58895 28.2631468,50.6884143 L28.3120606,50.6958921 C28.9427505,50.7393041 29.695559,50.6935685 30.2332832,51.08826 C30.8840745,51.5679504 30.2681262,51.9965778 30.2657818,52.1041931 L30.2950964,52.1181629 L30.4327934,52.1644026 L30.8576093,52.2883168 C31.1867748,52.3931043 31.5554721,52.5379761 31.7762565,52.8164086 C32.0980511,53.2222492 31.7368905,53.4116975 31.7268392,53.7749585 L31.7268335,53.7749711 L31.7268335,53.7749711 Z" id="path388" fill="#658D5C"></path>
                        <path d="M17.0000014,52 C17.0000014,52 19.2315909,50.9617093 19.4138295,50.4405926 C19.694504,49.641674 19.3884602,48.4317589 19.7791236,48.1426961 C20.0337859,47.9535581 20.2889294,48.0483065 20.4560817,47.7794378 C20.623555,47.5103905 20.4063057,46.2068017 21.0092413,45.6801528 C21.3868986,45.3506821 21.7273047,45.646008 22.1874948,45.2859676 C22.6831701,44.8967878 22.0569519,43.9359044 22.8146768,43.6198379 C23.2607364,43.4337391 23.7090446,44.0415536 23.9314328,43.9768391 C24.3587057,43.8529529 24.5844667,42.9063713 25.2111661,43.0075539 C25.7151913,43.0887149 25.4685582,43.6600612 25.4364445,44.2004791 C25.4178182,44.5110014 25.8552084,44.3669134 25.9852687,44.8020364 C26.0806459,45.1188143 25.691588,45.7993878 25.4313057,46.0528831 C25.2827795,46.1973282 25.8836284,46.4511807 25.8475002,46.9011412 C25.7949943,47.5479272 24.6742238,47.5931559 24.4141032,47.6968419 C24.0781929,47.8302031 24.3811861,48.3890352 24.1531792,48.7145737 C23.7885281,49.23497 22.8536953,48.911935 22.6870188,49.1602447 C22.5346385,49.3871026 22.8734391,49.9714989 22.4443988,50.3299305 C21.9984996,50.702128 20.2651629,50.4663309 19.9840084,50.5819954 C19.1485687,50.9245162 18.4682405,51.2815189 18.4682405,51.2815189 L17,51.9999909 L17.0000014,52 L17.0000014,52 Z" id="path426" fill="#658D5C"></path>
                        <path d="M37.3482513,33.2115494 L37.1063662,34 C37.1063662,32.9110617 37.0625038,32.3925094 35.7464175,32.4609419 C35.5424344,32.4708399 35.3325062,32.4931307 35.1299749,32.4621399 C34.4611878,32.3595599 34.9765482,31.9658662 34.7638995,31.6660853 C34.5036136,31.3005119 32.743111,31.6289446 32.5992361,30.7644441 C32.5440001,30.4299977 32.9245133,30.0318821 32.645446,29.7694186 C32.2228753,29.3728948 31.1703287,29.0290745 31.2827846,28.3019961 C31.3297174,28.0029219 31.7385685,27.785913 31.6795423,27.5073551 C31.6006602,27.1361214 30.8441483,26.4905765 31.0289878,26.0827336 C31.1761027,25.7574844 31.4459635,25.8625411 31.4714144,25.5555081 C31.5004767,25.2127495 30.888191,24.3572695 31.4338685,24.0972828 C32.1535574,23.7545242 32.6409314,24.4237703 33.258453,24.4729369 C33.6165827,24.5014121 33.8595468,24.083487 34.2333814,24.1651972 C34.7169652,24.2702524 34.7200371,25.0330579 35.0310629,25.1892279 C35.1453191,25.2458232 35.4879197,24.9616066 35.6491255,24.9435671 C36.5153852,24.8461159 36.318799,26.4925232 36.6137623,26.8780813 C36.720973,27.0174486 36.9495008,26.87883 37.1043794,26.926011 C37.6464546,27.0913767 37.0657438,28.8914772 37.2892281,29.132189 C37.3652155,29.2142526 37.6406776,29.168268 37.7612457,29.2011651 C38.2137927,29.3256748 37.8977083,30.470325 37.8229893,30.7515288 C37.6547533,31.3827492 37.0727893,32.622552 37.3482513,33.211506 L37.3482513,33.2115494 L37.3482513,33.2115494 Z" id="path436" fill="#658D5C"></path>
                        <path d="M39.0644542,29.9999741 C39.391896,29.1160263 39.2754478,28.2543678 38.6247665,27.7716833 C37.9279634,27.2546852 36.9987687,26.0273247 37.0000012,25.3164357 C37.0019316,24.4761554 37.8169352,24.9879425 37.8546524,24.5906258 C37.8830591,24.2941198 36.7835727,23.4051405 37.1755496,22.7519363 C37.4309129,22.3273033 38.11107,22.3765424 38.283114,22.1635968 C38.569349,21.8092265 37.8595675,20.2372101 38.4213164,19.505112 C38.7301668,19.1025828 38.969582,19.5304505 39.1754824,19.3818369 C39.3747153,19.2371776 39.0551585,18.0355206 39.8112549,18.0006578 C40.5396277,17.9672343 41.0752566,19.2188485 41.191883,19.1802124 C41.4274225,19.1025828 41.7073466,18.8504625 41.9725253,19.1083324 C42.2308733,19.3591945 42.1501971,21.4952967 42.1501971,21.4952967 C42.1501971,21.4952967 42.6453023,21.4460591 42.8038482,21.5457926 C43.4622511,21.9609012 42.2796236,24.385788 41.9465687,25.0505005 C41.6624423,25.617815 42.4948195,25.6891564 42.0681102,26.2717464 C41.3658722,27.231527 39.9624356,28.3832343 39.7403941,29.7953205 L39.0644542,30 L39.0644542,29.9999741 L39.0644542,29.9999741 Z" id="path466" fill="#658D5C" transform="translate(40.000000, 24.000000) rotate(4.000000) translate(-40.000000, -24.000000) "></path>
                        <path d="M30.000004,45.1069347 C30.000004,45.1069347 30.756185,44.6799301 31.0286061,44.2035987 C31.2966174,43.7333235 31.3312411,43.5645151 31.3207886,42.8212629 C31.3144139,42.3698618 30.9538039,40.8165752 31.359822,40.5692476 C31.6934882,40.3664284 31.8783689,40.7640537 32.2941868,40.3358008 C32.8011375,39.8137081 32.057533,38.0068659 32.7794166,37.5189498 C33.2146697,37.224783 33.607796,37.7450951 34.11098,37.2541638 C34.4542857,36.9193979 34.3956553,35.792944 35.0716468,35.6084591 C35.4953066,35.492537 35.8324035,35.852589 36.2331918,35.9113521 C36.7231564,35.983292 37.8399542,34.2072417 38.5397851,34.6228575 C38.8465021,34.8051985 38.93731,35.0610804 38.8809613,35.4280781 C38.8202014,35.8235655 38.6145803,36.1731108 38.5360239,36.5593399 C38.434928,37.0570375 39.0521232,37.0132331 38.9964382,37.5385325 C38.9441687,38.037299 38.4014506,38.5157652 38.4014506,38.8394922 C38.4014506,39.1938453 38.8907653,39.4240869 38.922445,39.8599956 C38.9820572,40.686228 37.3971844,40.70261 37.2691378,41.1557916 C37.1422391,41.604877 37.4505878,41.9416029 37.1508953,42.4711749 C36.8270317,43.0424149 35.7118656,42.5370601 35.2761202,42.7309751 C34.9124046,42.8919484 35.1325588,43.787805 34.9120727,44.146788 C34.3033678,45.1364859 31.3581834,43.7464927 30.148296,45.5597515 L29.9999999,45.1069272 L30.000004,45.1069347 L30.000004,45.1069347 Z" id="path478" fill="#658D5C" transform="translate(34.500000, 40.059751) rotate(6.000000) translate(-34.500000, -40.059751) "></path>
                        <g id="fruit" transform="translate(27.500000, 47.000000)">
                            <path d="M2.78196842,0.31724427 C3.46942846,0.9711295 2.37796536,3.12553353 1.62784878,2.99425168 C0.337472961,2.76849327 -0.127248471,1.40342461 0.029135089,0.841296959 C0.189923988,0.260489552 2.01862089,-0.408989523 2.78197889,0.317245806 L2.78196842,0.31724427 L2.78196842,0.31724427 Z" id="path404" fill="#A48253"></path>
                            <path d="M2.12260889,2.84455065 C1.92264913,2.69511021 1.97424736,2.01143659 2.22657776,1.55574269 C2.45548948,1.14293833 2.81024501,0.94270245 2.9573199,1.014272 C3.49788113,1.27857437 4.17470779,2.16315224 3.95879314,2.64512046 C3.74442113,3.12346424 2.38729248,3.04143898 2.12261215,2.84455292 L2.12260889,2.84455065 L2.12260889,2.84455065 Z" id="path486" fill="#D99F31"></path>
                        </g>
                        <g id="fruit" transform="translate(23.500000, 52.500000) rotate(30.000000) translate(-23.500000, -52.500000) translate(21.500000, 51.000000)">
                            <path d="M2.78196842,0.31724427 C3.46942846,0.9711295 2.37796536,3.12553353 1.62784878,2.99425168 C0.337472961,2.76849327 -0.127248471,1.40342461 0.029135089,0.841296959 C0.189923988,0.260489552 2.01862089,-0.408989523 2.78197889,0.317245806 L2.78196842,0.31724427 L2.78196842,0.31724427 Z" id="path404" fill="#A48253"></path>
                            <path d="M2.12260889,2.84455065 C1.92264913,2.69511021 1.97424736,2.01143659 2.22657776,1.55574269 C2.45548948,1.14293833 2.81024501,0.94270245 2.9573199,1.014272 C3.49788113,1.27857437 4.17470779,2.16315224 3.95879314,2.64512046 C3.74442113,3.12346424 2.38729248,3.04143898 2.12261215,2.84455292 L2.12260889,2.84455065 L2.12260889,2.84455065 Z" id="path486" fill="#D99F31"></path>
                        </g>
                        <path d="M31.4959584,47.298358 C31.9321666,47.4033981 31.9209293,47.1818455 32.1941258,47.2426062 C32.4465261,47.298358 32.701275,48.7170422 33.9216812,48.5704688 C34.2324461,48.5329772 34.3882545,48.2146266 34.3882545,48.2146266 C34.3882545,48.2146266 34.8345229,48.9198463 35.3037657,48.9833557 C35.9791249,49.0748205 35.7857595,48.4891849 35.9571587,48.4697919 C36.2315309,48.4392494 36.7359879,49 37.2402887,49 C37.5243874,49 37.4838059,48.5329772 37.783822,48.5329772 C38.0840227,48.5329772 38.6765434,48.8085042 38.9207138,48.4697919 C39.2397001,48.0278169 38.4967524,47.5095683 38.4425823,47.3516853 C38.3877447,47.194288 38.6537252,47.1897619 38.6258947,47.0375364 C38.5225809,46.4756557 37.5757035,46.3858055 37.4936886,46.1875234 C37.4118583,45.9898871 37.6258411,45.7857873 37.5456863,45.4779405 C37.4101828,44.9540344 36.638723,44.9357742 36.2897195,45.0102718 C35.48137,45.1836676 36.2142504,44.3528847 35.6381724,44.1188896 C34.6463544,43.7158606 33.2035538,44.4790951 32.8350973,44.3296156 C32.5873898,44.2291001 32.4929705,44.1993662 32.2813235,44.1636533 C31.3879432,44.0141738 30.5643352,45.2699632 30,45.5319163 L30.2817487,45.8620636 C31.0389539,46.0676218 31.0595826,47.1931619 31.4959584,47.298358 L31.4959584,47.298358 Z" id="path412" fill="#658D5C"></path>
                        <g id="fruit" transform="translate(33.000000, 35.000000) rotate(198.000000) translate(-33.000000, -35.000000) translate(31.000000, 33.000000)">
                            <path d="M2.87890552,3.17984573 C2.5154553,3.6376342 0.928523769,4.22766241 0.340687141,3.90998143 C-0.170812325,3.6333585 -0.164925861,1.92931119 0.763718348,1.095158 C1.3495461,0.569453635 3.53331526,2.35578795 2.87890552,3.17983849 L2.87890552,3.17984573 L2.87890552,3.17984573 Z" id="path74" fill="#A48253"></path>
                            <path d="M2.88427734,2.38952637 C2.66857472,2.55875883 2.05551309,2.33290113 1.70013832,1.99469395 C1.37727266,1.68667123 1.22336487,1.25623863 1.34868667,1.11486775 C1.73495312,0.678888384 2.70773707,0.229494791 3.12490667,0.562799553 C3.54207628,0.896104316 3.13830492,2.19101588 2.88427734,2.38952637 L2.88427734,2.38952637 Z" id="path78" fill="#D99F31"></path>
                        </g>
                        <g id="fruit" transform="translate(42.000000, 16.000000)">
                            <path d="M2.87890552,3.17984573 C2.5154553,3.6376342 0.928523769,4.22766241 0.340687141,3.90998143 C-0.170812325,3.6333585 -0.164925861,1.92931119 0.763718348,1.095158 C1.3495461,0.569453635 3.53331526,2.35578795 2.87890552,3.17983849 L2.87890552,3.17984573 L2.87890552,3.17984573 Z" id="path74" fill="#A48253"></path>
                            <path d="M2.88427734,2.38952637 C2.66857472,2.55875883 2.05551309,2.33290113 1.70013832,1.99469395 C1.37727266,1.68667123 1.22336487,1.25623863 1.34868667,1.11486775 C1.73495312,0.678888384 2.70773707,0.229494791 3.12490667,0.562799553 C3.54207628,0.896104316 3.13830492,2.19101588 2.88427734,2.38952637 L2.88427734,2.38952637 Z" id="path78" fill="#D99F31"></path>
                        </g>
                    </g>
                    <g id="crown" transform="translate(26.000000, 0.000000)" stroke="#262626" stroke-width="0.1">
                        <path d="M6.70123368,33 C6.70123368,33 6.48287725,32.7161632 6.39965495,32.5039938 C6.27932951,32.1973301 6.29498692,31.6609783 6.29498692,31.6609783 L5,30.251173 L7.45161054,27.8272431 L12.1129819,26.436726 L18.0004179,26 L23.8871766,26.436726 L28.5492396,27.8272431 L31,30.251173 L29.7058632,31.6609783 C29.7058632,31.6609783 29.7208405,32.1973301 29.6005151,32.5039938 C29.5179715,32.7161632 29.2989364,33 29.2989364,33 L23.9632561,31.2838906 L18.0004294,31.0058938 L12.037084,31.2838906 L6.70124521,33 L6.70123368,33 L6.70123368,33 Z" id="path582" fill="#F1BF31"></path>
                        <path d="M15.6358908,13.0436579 C11.791611,17.6537649 5.26075889,15.444527 2.18257236,17.2393131 C-3.1731948,20.3609975 2.87576271,27.584101 3.97271298,29 L9.01395995,27.4147163 C6.87041,25.6311424 2.79865444,22.5097991 4.09275896,20.0481528 C5.41886292,17.5243201 12.5954101,20.0390465 15.6773031,14.6511881 C16.3255386,13.5180195 15.8288382,12.812962 15.6358836,13.0436579 L15.6358908,13.0436579 L15.6358908,13.0436579 Z" id="path588" fill="#F1BF31"></path>
                        <polygon id="polygon596" fill="#D99F31" points="7.16749117 28.2806364 7 28.1816573 8 28"></polygon>
                        <polygon id="polygon598" points="7.16749117 28.2806364 7 28.1816573 8 28"></polygon>
                        <path d="M8.88667909,27 L9,27.1330147 L7,28 L7.45207924,27.6373402 C7.95499247,27.4560102 8.43258908,27.2430661 8.88667909,27 L8.88667909,27 L8.88667909,27 Z" id="path600" fill="#F1BF31"></path>
                        <path d="M8.88667909,27 L9,27.1330147 L7,28 L7.45207924,27.6373402 C7.95499247,27.4560102 8.43258908,27.2430661 8.88667909,27 L8.88667909,27 L8.88667909,27 Z" id="path602"></path>
                        <path d="M20.3641249,13.0436579 C24.2084193,17.6537649 30.7392964,15.444527 33.8174947,17.2393131 C39.1731113,20.3609975 33.1243017,27.584101 32.0273472,29 L26.9859099,27.4147163 C29.1296391,25.6311424 33.2012392,22.5097991 31.9076287,20.0481528 C30.5811832,17.5243201 23.4044318,20.0390465 20.3226981,14.6511881 C19.6744602,13.5180195 20.1711625,12.812962 20.3641178,13.0436579 L20.3641249,13.0436579 L20.3641249,13.0436579 Z" id="path632" fill="#F1BF31"></path>
                        <path d="M18.0228062,23 L15.9786145,23 C15.9786145,23 16.2932277,21.0312543 16.0394902,19.6920845 C15.8328659,18.6023611 15.1057094,17.7567187 15.0097199,16.6512834 C14.8733234,15.0917734 16.2175291,13 16.2175291,13 L18.0228077,13 L19.8282506,13 C19.8282506,13 21.1260495,15.0917734 20.9900056,16.6512834 C20.8940161,17.7567202 20.2127374,18.6023565 20.0061132,19.6920845 C19.7525534,21.0312498 20.0669888,23 20.0669888,23 L18.0227972,23 L18.0228062,23 L18.0228062,23 Z" id="path670" fill="#F1BF31"></path>
                        <path d="M18.1608578,6.58829893 L18.0427331,4.68119062 L18.0276294,4.29895534 C18.0000864,3.58319678 19.1463073,4.52206919 19.6125314,4.52206919 C20.0787554,4.52206919 20.5,4.08348332 20.5,3.5467117 C20.5,3.0095584 20.0787554,2.57116337 19.6125314,2.57116337 L19.6125356,2.57115044 C19.137013,2.57115044 18.5068056,3.02100739 18.1990887,2.79063502 C17.6827407,2.40324535 18.3899602,1.57096389 18.3899602,1.02082029 C18.3899602,0.484431976 17.9668901,0 17.5000028,0 C17.0332813,0 16.6100455,0.484430359 16.6100455,1.02082029 C16.6100455,1.57096065 17.3139457,2.42731104 16.8020791,2.79063502 C16.4764311,3.02100739 15.846887,2.57115044 15.3876345,2.57115044 C14.9214105,2.57115044 14.5,3.00954546 14.5,3.54669876 C14.5,4.08347038 14.9214105,4.52205625 15.3876345,4.52205625 C15.8178432,4.52205625 16.9987571,3.58375637 16.9713701,4.2989424 L16.9572627,4.66723317 L16.8380824,6.58847905 C15.7782341,6.87851655 15,7.84825057 15,8.99982653 C15,10.3804172 16.1185613,11.5 17.499917,11.5 C18.8805547,11.5 20,10.3804203 20,8.99982653 C20,7.84800759 19.2208279,6.87811414 18.1608578,6.58829893 L18.1608578,6.58829893 Z" id="path690" fill="#E5B731"></path>
                        <path d="M19.2929721,15.3008963 L17.4996447,15.3008963 L15.7134968,15.3002389 C15.4103264,15.8685365 14.4532575,16.2541944 13.6699835,15.8004102 C13.1138205,15.4776381 13,14.7447509 13,14.7447509 C13,14.7447509 14.4987176,14.8055004 14.5067556,13.3335176 C14.5067556,11.8417364 15.2786698,10.8672035 16.3883682,11.0147226 C16.8726729,11.0787718 17.2003201,11.3499164 17.4996447,11.6519221 C17.799668,11.3499164 18.1285409,11.0779962 18.613719,11.0147226 C19.7230726,10.8685724 20.4934072,11.8417429 20.4934072,13.3218831 C20.4934072,14.8062892 22,14.7461198 22,14.7461198 C22,14.7461198 21.8863542,15.477648 21.3300165,15.8004201 C20.5437656,16.2555632 19.5810982,15.865245 19.2929721,15.3008305 L19.2929721,15.3008963 L19.2929721,15.3008963 Z" id="path698" fill="#D99F31"></path>
                        <path d="M17.9997399,30.0000002 C24.7343017,29.9993871 29.5,31.4701306 29.5,33.7742546 C29.5,35.6174851 24.7343161,37 17.9997399,37 C11.2658573,37 6.5,35.6174882 6.5,33.7742546 C6.5,31.4701245 11.2658573,30.0000002 17.9997399,30.0000002 L17.9997399,30.0000002 Z" id="path708" fill="#F1BF31"></path>
                        <path d="M7,34.5 C7,33.1193335 11.669169,32 17.9995589,32 C24.3315337,32 29,33.1193335 29,34.5 C29,35.8806665 24.3315486,37 17.9995589,37 C11.669169,37 7,35.8806665 7,34.5 L7,34.5 L7,34.5 Z" id="path712" fill="#D99F31"></path>
                        <path d="M7,34.5020277 C7,33.0754947 11.6150311,32 17.9998266,32 C24.3849689,32 29,33.0754988 29,34.5020277 C29,35.9285606 24.3849689,37 17.9998266,37 C11.6150461,37 7,35.9285606 7,34.5020277 L7,34.5020277 L7,34.5020277 Z" id="path750"></path>
                        <path d="M1,27.0168447 C1.31746386,26.7636451 1.8748578,26.6668329 2.46543002,26.6259607 C3.157981,26.5785077 3.73441021,26.6746264 4.22335703,26.904793 C3.76410078,25.2766658 4.50991206,23.6112942 4.50991206,23.6112942 C4.50991206,23.6112942 5.9784853,23.6168369 7.42191574,24.7669734 C7.46923851,22.7942027 8.09979884,21.8156841 8.09979884,21.8156841 C8.09979884,21.8156841 9.50585658,21.9708602 11.0393907,23.482786 C11.3685537,21.4459225 12.4435279,20.2963138 12.4435279,20.2963138 C12.4435279,20.2963138 14.2852692,20.8631561 15.3382335,22.7898624 C16.0400397,19.9979033 17.9996518,19 17.9996518,19 C17.9996518,19 19.9601288,19.9979062 20.6619424,22.7898624 C21.7147396,20.8631487 23.556648,20.2963138 23.556648,20.2963138 C23.556648,20.2963138 24.6660232,21.3259131 24.9607852,23.482786 C26.4944879,21.9708646 27.9003771,21.8156841 27.9003771,21.8156841 C27.9003771,21.8156841 28.530763,22.7941924 28.5782602,24.7669734 C30.0216877,23.6168369 31.6730911,23.9290924 31.6730911,23.9290924 C31.6730911,23.9290924 32.2360737,25.2766629 31.7769919,26.9047959 C32.2655854,26.6746293 32.8420131,26.5785106 33.5340466,26.6259637 C34.1246188,26.6668358 34.6827121,26.7636481 35,27.0168476 C33.6328836,27.541778 32.3146601,28.5805594 31.4017362,30 C30.4027227,27.9759521 25.0117864,25.9354668 17.9996533,25.9354668 C10.9883925,25.9354668 5.59728029,27.9759668 4.59844267,30 C3.68534136,28.5805535 2.36728642,27.5417722 1,27.0168447 L1,27.0168447 Z" id="path782" fill="#F1BF31"></path>
                        <path d="M4.50000884,30.4781627 C4.50000884,28.4879631 10.2957695,26 17.9999234,26 C25.7042393,26 31.5,28.4879631 31.5,30.4781627 C31.5,31.0295499 30.8968695,31.0847587 30.8424182,30.9150601 C30.1949258,28.8972635 25.704229,27.1192395 17.9999131,27.1192395 C10.2957739,27.1192395 5.80508159,28.8972635 5.15740796,30.9150601 C5.10295818,31.0847587 4.5,31.0295484 4.5,30.4781627 L4.50000884,30.4781627 L4.50000884,30.4781627 Z" id="path858" fill="#F1BF31"></path>
                    </g>
                    <g id="Group" transform="translate(19.000000, 36.000000)" stroke="#262626" stroke-width="0.1">
                        <path d="M45,26.0897392 C45,48.9207965 24.5003632,58 24.5003632,58 C24.5003632,58 4,49.2046435 4,24.3575966 C4,2.18735246 24.1350271,5.14306999 24.1350271,5.14306999 C28.069137,5.07313159 45,2.18732293 45,26.0897392 L45,26.0897392 Z" id="path880" fill="#A0CFEB"></path>
                        <path d="M30.746272,40.3678845 C31.9615794,39.7078023 33.3621525,39.3315051 34.8523864,39.3315051 C37.2763945,39.3315051 39.4611065,40.3264497 41,41.9192462 C34.9417159,52.5196472 24.3808154,57 24.3808154,57 L24.3808154,57 C24.3808154,57 14.0930094,52.7743247 8,41.8698457 C9.53612724,40.3058117 11.7011811,39.3314908 14.0999987,39.3314908 C15.7713342,39.3314908 17.3288263,39.8041862 18.639371,40.6200304 C20.1798389,39.0079562 22.3781027,38 24.8186201,38 C27.1289762,38 29.2222692,38.9039575 30.7462278,40.3678731 L30.746272,40.3678845 L30.746272,40.3678845 Z" id="path882" fill="#94BB79"></path>
                        <path d="M25.7658672,11.0006065 C27.008554,11.0006065 28,11.6594498 28,12.7399051 C28,13.507423 27.4995885,14.0643832 26.7711873,14.44822 C26.5015754,13.3129294 25.9841023,12.7399051 25.1998303,12.7399051 C25.1338333,12.7399051 25.0685873,12.7468621 25.0046524,12.7601154 C25.0487128,13.9262186 25.9531667,15.679434 25.9531667,17.5671713 C25.9531667,18.5271897 25.2438907,19 24.9538423,19 C24.9538423,16.3823558 23,15.4079158 23,13.7555933 C23,13.4923561 23.0367487,13.167986 23.1271189,12.8424587 C23.2741107,12.3133292 23.9333275,11.456685 24.715728,11.1921279 C25.2913243,10.9976399 25.670992,10.9976399 25.7658624,11.0006205 L25.7658672,11.0006065 L25.7658672,11.0006065 Z" id="path908" fill="#FFFFFF"></path>
                        <path d="M14.7661428,13.000736 C16.0085949,13.000736 17,13.6590567 17,14.7394784 C17,15.5069674 16.4996076,16.0645687 15.7712341,16.448234 C15.5016324,15.3124896 14.9843664,14.7394784 14.1991861,14.7394784 C14.1331917,14.7394784 14.0686974,14.7464351 14.0045792,14.7603513 C14.048076,15.9262452 14.9532447,17.6790693 14.9532447,19.5672266 C14.9532447,20.5265469 14.2432448,21 13.9539584,21 C13.9539584,18.3819493 12,17.4080522 12,15.7551326 C12,15.4924004 12.037122,15.1675474 12.1273014,14.8425274 C12.2742875,14.3130868 12.9329173,13.4569713 13.7158499,13.192413 C14.2914243,12.9979323 14.6703283,12.9972689 14.7661317,13.0007472 L14.7661428,13.000736 L14.7661428,13.000736 Z" id="path916" fill="#FFFFFF"></path>
                        <path d="M35.7658672,13.000736 C37.008554,13.000736 38,13.6590567 38,14.7394784 C38,15.5069674 37.4995885,16.0645687 36.7711873,16.448234 C36.5015754,15.3124896 35.9841023,14.7394784 35.199643,14.7394784 C35.1332714,14.7394784 35.0685873,14.7464351 35.0046524,14.7603513 C35.0481508,15.9262452 35.9531667,17.6790693 35.9531667,19.5672266 C35.9531667,20.5265469 35.2433271,21 34.9538423,21 C34.9538423,18.3819493 33,17.4080522 33,15.7551326 C33,15.4924004 33.0367487,15.1675474 33.1273062,14.8425274 C33.2741107,14.3130868 33.9327655,13.4569713 34.7159153,13.192413 C35.2913227,12.9979323 35.67043,12.9972689 35.7658624,13.0007472 L35.7658672,13.000736 L35.7658672,13.000736 Z" id="path928" fill="#FFFFFF"></path>
                        <polygon id="polygon936" fill="#000000" points="12.0053176 26 12 23.8851595 14.4971801 23 16.9946824 23.6126451 17 26"></polygon>
                        <path d="M17.0296625,36.6559522 L18,40.7948016 C16.9921867,40.3358643 15.8793726,40.0808999 14.7081465,40.0808999 C13.3735105,40.0808999 12.1133258,40.4122675 11,41 L12.1074143,36.8222495 L12.081923,28.6938648 L11,27.3457926 L11,24.5173427 L12.50615,23.853382 L12.50615,25.6302542 L13.613733,25.1721938 L13.613733,23.4021612 L14.4998328,23 L15.3855953,23.264252 L15.3855953,25.0602187 L16.4931782,25.3560129 L16.4931782,23.577212 L18,23.9888358 L18,26.9091085 L17.0296625,28.4038508 L17.0296625,36.6559566 L17.0296625,36.6559522 L17.0296625,36.6559522 Z" id="path938" fill="#FFFFFF"></path>
                        <path d="M14.7081465,40.0808999 C13.3735105,40.0808999 12.1133258,40.4122675 11,41 L12.1074143,36.8222495 L12.081923,28.6938648 L11,27.3457926 L11,24.5173427 L12.50615,23.853382 L12.50615,25.6302542 L13.613733,25.1721938 L13.613733,23.4021612 L14.4998328,23 L14.7081465,40.0808999 L14.7081465,40.0808999 Z" id="path938" fill="#BDBFC1"></path>
                        <path d="M17.0296625,36.6559522 L18,40.7948016 C16.9921867,40.3358643 15.8793726,40.0808999 14.7081465,40.0808999 C13.3735105,40.0808999 12.1133258,40.4122675 11,41 L12.1074143,36.8222495 L12.081923,28.6938648 L11,27.3457926 L11,24.5173427 L12.50615,23.853382 L12.50615,25.6302542 L13.613733,25.1721938 L13.613733,23.4021612 L14.4998328,23 L15.3855953,23.264252 L15.3855953,25.0602187 L16.4931782,25.3560129 L16.4931782,23.577212 L18,23.9888358 L18,26.9091085 L17.0296625,28.4038508 L17.0296625,36.6559566 L17.0296625,36.6559522 L17.0296625,36.6559522 Z" id="path944"></path>
                        <polygon id="polygon946" fill="#000000" points="33.0046732 26 33 23.6303327 35.4972605 23 37.9945211 23.7424822 38 26"></polygon>
                        <polygon id="polygon948" fill="#000000" points="22.0053176 25 22 22.8224046 24.4971801 22 26.9946824 22.7085627 27 25"></polygon>
                        <path d="M27.0294997,35.13317 L27.9999814,39.3394037 C27.1127219,38.9879391 26.1528794,38.7964442 25.1516774,38.7964442 C23.6364467,38.7964442 22.2174471,39.234919 21,40 L22.1075551,35.2099214 L22.0818959,26.7967372 L21,25.3824106 L21,22.4415276 L22.5064552,21.8068725 L22.5064552,23.6335556 L23.6140103,23.2098528 L23.6140103,21.3660565 L24.5000879,21 L25.3854894,21.3192181 L25.3854894,23.1649972 L26.4930446,23.4930433 L26.4930446,21.6885218 L28,22.2053601 L28,25.1981316 L27.0295182,26.6731671 L27.0295182,35.1331914 L27.0294997,35.13317 L27.0294997,35.13317 Z" id="path950" fill="#FFFFFF"></path>
                        <path d="M24.5,38.8253702 C23.2173935,38.9345943 22.0357556,39.3490994 21,40 L22.1075551,35.2099214 L22.0818959,26.7967372 L21,25.3824106 L21,22.4415276 L22.5064552,21.8068725 L22.5064552,23.6335556 L23.6140103,23.2098528 L23.6140103,21.3660565 L24.5000879,21 L24.5,38.8253702 L24.5,38.8253702 Z" id="path950" fill="#BDBFC1"></path>
                        <path d="M27.0294997,35.13317 L27.9999814,39.3394037 C27.1127219,38.9879391 26.1528794,38.7964442 25.1516774,38.7964442 C23.6364467,38.7964442 22.2174471,39.234919 21,40 L22.1075551,35.2099214 L22.0818959,26.7967372 L21,25.3824106 L21,22.4415276 L22.5064552,21.8068725 L22.5064552,23.6335556 L23.6140103,23.2098528 L23.6140103,21.3660565 L24.5000879,21 L25.3854894,21.3192181 L25.3854894,23.1649972 L26.4930446,23.4930433 L26.4930446,21.6885218 L28,22.2053601 L28,25.1981316 L27.0295182,26.6731671 L27.0295182,35.1331914 L27.0294997,35.13317 L27.0294997,35.13317 Z" id="path956"></path>
                        <path d="M38.0296588,36.6560442 L38.9999957,40.5801565 C38.051604,40.1848567 37.0159375,39.9669266 35.9297973,39.9669266 C34.5058606,39.9669266 33.1668375,40.3415129 32,41 L33.1074136,36.5697152 L33.0820925,28.4503067 L32.0000014,27.019496 L32.0000014,24.1420377 L33.506322,23.6421241 L33.506322,25.4069636 L34.6139043,25.066667 L34.6139043,23.285292 L35.5000036,23 L36.3855969,23.307746 L36.3855969,25.0919064 L37.4931792,25.4772849 L37.4931792,23.7331515 L39,24.2558668 L39,27.1113958 L38.0296631,28.5275841 L38.0296631,36.6560413 L38.0296588,36.6560442 L38.0296588,36.6560442 Z" id="path958" fill="#FFFFFF"></path>
                        <path d="M35.5,39.9807345 C34.2097972,40.0538663 33.0369111,40.4148349 32,41 L33.1074136,36.5697152 L33.0820925,28.4503067 L32.0000014,27.019496 L32.0000014,24.1420377 L33.506322,23.6421241 L33.506322,25.4069636 L34.6139043,25.066667 L34.6139043,23.285292 L35.5000036,23 L35.5,39.9807345 L35.5,39.9807345 Z" id="path958" fill="#BDBFC1"></path>
                        <path d="M38.0296588,36.6560442 L38.9999957,40.5801565 C38.051604,40.1848567 37.0159375,39.9669266 35.9297973,39.9669266 C34.5058606,39.9669266 33.1668375,40.3415129 32,41 L33.1074136,36.5697152 L33.0820925,28.4503067 L32.0000014,27.019496 L32.0000014,24.1420377 L33.506322,23.6421241 L33.506322,25.4069636 L34.6139043,25.066667 L34.6139043,23.285292 L35.5000036,23 L36.3855969,23.307746 L36.3855969,25.0919064 L37.4931792,25.4772849 L37.4931792,23.7331515 L39,24.2558668 L39,27.1113958 L38.0296631,28.5275841 L38.0296631,36.6560413 L38.0296588,36.6560442 L38.0296588,36.6560442 Z" id="path964"></path>
                        <path d="M23.505751,4.84685539 C23.8244959,4.40226729 24.4335422,4.11289989 25.0216732,4.11289989 C25.6106401,4.11289989 26.2188492,4.40226729 26.5375954,4.84685539 L32.6247013,2.00001416 L33,11 L26.55131,7.1574356 C26.0654125,7.66842791 25.6906153,7.93136675 25.0223405,7.93136675 C24.3535614,7.93207483 23.9156853,7.61021908 23.4921952,7.1574356 L17,10.9559996 L17.4188024,2 L23.505751,4.84685539 L23.505751,4.84685539 Z" id="path986" fill="#D99F31"></path>
                        <path d="M48.9999852,22.1172645 C48.9999852,11.9806305 44.9800262,1 37.0066148,1 C34.2824327,1 31.3612195,2.40910154 31.3612195,5.06965113 C31.3612195,7.73037721 32.920875,9.68707088 35.2495874,9.68707088 C37.5782998,9.68707088 38.4339829,8.32351365 38.4339829,8.32351365 C39.4011316,8.96219885 42.9146738,11.1634329 43.4210818,22.136173 C44.4078285,43.5220344 26,56 26,56 C26,56 49,46.1961978 49,22.1173371 L48.9999852,22.1172645 L48.9999852,22.1172645 Z" id="path994" fill="#D99F31"></path>
                        <path d="M0,22.1172645 C0,11.9806305 4.01998493,1 11.993981,1 C14.7176621,1 17.6388941,2.40910154 17.6388941,5.06965113 C17.6388941,7.73037721 16.0792286,9.68707088 13.7505012,9.68707088 C11.4219515,9.68707088 10.5660852,8.32351365 10.5660852,8.32351365 C9.59893019,8.96219885 6.08536543,11.1634329 5.57895415,22.136173 C4.59272555,43.5220344 23,56 23,56 C23,56 0,46.1961978 0,22.1173371 L0,22.1172645 L0,22.1172645 Z" id="path1022" fill="#D99F31"></path>
                        <path d="M25.0000746,57 C20.2894963,55.207224 14.8282035,51.5195698 11.4222563,48.4225697 C4.93738954,42.5246744 -0.838030209,32.7746401 0.10056175,19.3366728 C0.693846935,10.85129 3.21134221,5.47834879 6.46910156,2.66654769 C12.0400866,-2.14139703 19.2246401,0.0473403378 19.2246401,5.29667569 C19.2246401,8.18528823 16.8699554,10.5333584 13.96675,10.5333584 C12.209004,10.5333584 10.3532278,9.11349436 10.5369477,6.9809205 C10.5865761,5.83861401 11.5324897,4.92739946 12.6920631,4.92739946 C13.8835092,4.92739946 14.849449,5.88853779 14.849449,7.07522846 C14.849449,7.73055065 14.4179379,8.36264151 13.9533393,8.75705136 C15.7882238,8.69186511 17.3965436,7.14059085 17.3965436,5.29667569 C17.3965436,3.40595148 15.9541659,1.82416108 13.8908117,1.65357008 C6.9951589,1.08302378 2.53899597,8.88447353 1.78724958,19.4636106 C0.718396494,34.4954926 8.95176656,46.6464682 21.3241339,53.484933 C23.0590569,54.4436451 24.418372,55.0275471 24.9999921,55.2707663 C25.5821326,55.0275339 26.9409273,54.4436392 28.6758503,53.484933 C41.0482913,46.6465269 49.2816452,34.4954926 48.2127346,19.4636106 C47.4609852,8.88448821 43.0048253,1.08302525 36.1091725,1.65357008 C34.0458212,1.82416254 32.6041483,3.40595148 32.6041483,5.29667569 C32.6041483,7.14059085 34.2117751,8.69186511 36.0473526,8.75705136 C35.5825814,8.36264445 35.1503729,7.73055358 35.1503729,7.07522846 C35.1503729,5.88854072 36.1164853,4.92739946 37.3079358,4.92739946 C38.4675136,4.92739946 39.4141172,5.83860961 39.4637589,6.9809205 C39.647299,9.11348409 37.7909949,10.5333584 36.0332636,10.5333584 C33.1300582,10.5333584 30.7758895,8.18528823 30.7758895,5.29667569 C30.7758895,0.0473403378 37.9600892,-2.14139703 43.5308973,2.66654769 C46.7893496,5.47836346 49.3068479,10.8513193 49.8994371,19.3366728 C50.838035,32.7745961 45.0626094,42.5246891 38.5777426,48.4225697 C35.1717954,51.5195698 29.7105174,55.2072386 24.9999243,57 L25.0000746,57 L25.0000746,57 Z" id="path1052" fill="#F1BF31"></path>
                    </g>
                    <g id="text" transform="translate(13.000000, 91.000000)">
                        <path d="M37.3837377,8.09146111 C36.9273981,9.68608175 36.0150675,12.7195821 39.6617883,12.7195821 C42.3153958,12.7195821 45.1323012,11.0788894 47.8677268,12.5218849 C53.8421787,15.6720095 58.353113,13.4223275 62,9.20460342 C62,9.20460342 59.3036465,9.79662453 56.5294812,9.67304034 C56.5294812,9.67304034 58.6077593,7.85215688 58.8087525,5.454775 C56.9851355,6.86062252 55.1613419,7.06599792 53.3371954,7.06599792 C51.5146226,7.06599792 50.3486678,5.93374786 47.9611785,5.54657141 C48.0956304,4.69827636 48.2398113,3.8342681 48.4548649,2.64307692 C48.6892016,1.34259643 48.3405623,0.287140258 46.500439,0.0647936425 C42.4958706,-0.418465878 38.617081,1.95639557 31.5305185,2.07069126 C24.3955095,1.95639406 19.5050178,-0.418471926 15.4997434,0.0647936425 C13.6596244,0.287135722 13.3109823,1.34259341 13.5454939,2.64307692 C13.760374,3.83426206 13.904555,4.69826729 14.0381391,5.54657141 C11.6515175,5.93375089 10.4854009,7.06599792 8.66298991,7.06599792 C6.83797564,7.06599792 5.01504984,6.86062101 3.1912563,5.454775 C3.39224069,7.85214176 5.47068937,9.67304034 5.47068937,9.67304034 C2.69670063,9.79662302 0,9.20460342 0,9.20460342 C3.64741059,13.4223244 8.15799188,15.6720095 14.1324438,12.5218849 C16.8678694,11.0788909 19.6847748,12.7195821 22.3383823,12.7195821 C25.9851016,12.7195821 25.0727636,9.68608175 24.6166094,8.09146111 C26.68621,8.51150041 28.9771002,8.74277264 31.486015,8.74277264 C33.7488286,8.7050909 35.4496377,8.48399928 37.3837377,8.09146111 L37.3837377,8.09146111 Z" id="ribbon" stroke="#262626" stroke-width="0.1" fill="#FFFFFF"></path>
                        <path d="M19.6461912,5.8686327 C19.1306169,5.82785351 18.3008453,5.78516583 18.3008453,5.78516583 L18,2 L18.9969291,2.10967011 L19.2039481,5.06329656 C19.3051071,5.06885015 19.7526164,5.09626694 20.0508302,5.12628716 C20.3898464,5.16029773 20.937386,5.23977426 20.937386,5.23977426 L21,6 C21,6 20.1640245,5.90941777 19.6461928,5.86863858 L19.6461912,5.8686327 L19.6461912,5.8686327 Z" id="path1076" fill="#000000"></path>
                        <path d="M27.9852905,6.72637939 L27.9579708,4.85456996 L27.930916,2.97543374 L29.7612384,3.18308615 L29.7662556,3.55265536 L29.7717979,3.92794672 L28.71229,3.84355556 L28.7235089,4.61505592 L29.8284174,4.70552648 L29.8387088,5.40336247 L28.7338003,5.31289191 L28.7447509,6.10620456 C28.8158867,6.12103977 29.1359348,6.18773461 29.3509278,6.21365989 C29.592712,6.24316076 30.1587523,6.21365992 30.1587523,6.21365992 L30.169446,6.959235 C30.169446,6.959235 29.3968592,6.95923497 29.0241518,6.91131726 C28.6506522,6.86358725 27.9852905,6.72637939 27.9852905,6.72637939 L27.9852905,6.72637939 Z" id="path1078" fill="#000000"></path>
                        <polygon id="polygon1080" fill="#000000" points="37 3.43691419 35.9319715 3.59860321 35.9479756 6.5700146 35.0879993 6.69999695 35.0719953 3.72888609 34.0041036 3.89057511 34 3.15425894 36.9960332 2.69999695"></polygon>
                        <path d="M40.9665267,5.07060195 L41.2424353,4.36165558 C41.6098716,4.48017842 41.823942,4.5295933 42.2535959,4.52248088 C42.7263662,4.51409789 42.9576453,4.37113623 42.9610493,4.16417823 C42.9636911,4.02559796 42.8540149,3.92877517 42.6671762,3.8410687 C42.4801486,3.75318006 42.2309049,3.68078991 41.9814707,3.58706559 C41.4816576,3.39925261 40.9676635,3.12300447 40.9795774,2.46329081 C40.9935711,1.71441176 41.8606315,1.33240515 42.5567378,1.32073535 C43.1824961,1.30997486 43.5334809,1.43360469 43.8379437,1.55741515 L43.5847277,2.244663 C43.2768593,2.16388523 42.9676683,2.0945951 42.5720541,2.10170598 C42.1811679,2.10808199 41.9531038,2.30356008 41.9504556,2.44341556 C41.9483741,2.55190969 42.0580584,2.63834096 42.2509477,2.72604588 C42.4404346,2.81211281 42.6944063,2.8921588 42.9476208,2.99463509 C43.4557532,3.19940549 43.9776921,3.49735369 43.966345,4.11676878 C43.9502714,4.96867064 43.063354,5.30600501 42.251697,5.31931436 C41.6040099,5.33026165 41.261535,5.22249157 40.9665267,5.07060195 L40.9665267,5.07060195 Z" id="path1082" fill="#000000" transform="translate(42.466527, 3.320080) rotate(-15.000000) translate(-42.466527, -3.320080) "></path>
                        <path d="M25.3889755,4.2787587 C25.9537516,4.37797396 25.9972121,4.17739146 25.9934511,3.93290564 C25.9875955,3.63762868 25.8545038,3.45620082 25.2836668,3.35569364 L24.9936523,3.3046875 L25.0099454,4.21204182 L25.3889755,4.2787587 L25.3889755,4.2787587 Z M25.4333287,5.64590215 C25.904461,5.74031225 26.0190435,5.63741315 26.0145627,5.35870552 C26.0094411,5.03922033 25.8463698,4.84737863 25.3377911,4.74522771 L25.0146876,4.68008307 L25.0289307,5.56433105 L25.4333287,5.64590215 L25.4333287,5.64590215 Z M25.5236361,6.45209762 L24.0659601,6.19513319 L24,2.5 L25.310944,2.73082368 C26.2107963,2.88891487 26.6964584,3.29650257 26.7090304,3.99822119 C26.7138569,4.29199679 26.5533426,4.48689914 26.3778503,4.59199665 C26.6310144,4.73781696 26.9906107,5.07160468 26.9997386,5.56117245 C27.0117974,6.24777605 26.6079366,6.64273753 25.5236405,6.45210364 L25.5236361,6.45209762 L25.5236361,6.45209762 Z" id="path1084" fill="#000000"></path>
                        <polygon id="polygon1086" fill="#000000" points="23.1809082 6.20690918 21.9930328 6.02739331 21.6274414 2.17724609 22.8153168 2.35691693"></polygon>
                        <path d="M32.746521,4.28656008 C32.7403412,3.95127412 32.5905806,3.81076704 32.1522975,3.81842491 L31.7466452,3.82492276 L31.764507,4.81812887 L32.0569817,4.81346339 C32.5406042,4.80530091 32.7525321,4.60569727 32.746521,4.28656008 L32.746521,4.28656008 Z M33.8527004,6.96212449 C33.2209933,6.93617438 32.8809953,6.54123751 32.5478333,6.07507858 L32.1953834,5.58240182 C32.1452725,5.58771019 32.091212,5.58884885 32.0368494,5.59016392 L31.8280517,5.59489495 L31.8468818,6.98351997 L31.0549707,7 L31,3.02696015 L32.2295504,3.00044071 C32.9353618,2.98490048 33.4559124,3.37984536 33.4686676,4.26367096 C33.4745947,4.6944081 33.3160556,5.07684221 32.9930659,5.32517004 L33.2988968,5.72408417 C33.4707942,5.94646028 33.6630388,6.09439723 34,6.19573591 L33.852703,6.96212128 L33.8527004,6.96212449 L33.8527004,6.96212449 Z" id="path1116" fill="#000000"></path>
                        <path d="M38.7603421,2.92732096 C38.6296574,3.52029502 38.4909578,4.11014751 38.35,4.7 C38.6489718,4.66175242 38.9625347,4.5941021 39.25,4.48508262 C39.1207541,3.95819699 38.9937663,3.43235114 38.8750004,2.9 L38.7603421,2.92731876 L38.7603421,2.92732096 L38.7603421,2.92732096 Z M39.7017735,5.92138673 L39.368501,4.88180177 C39.1916716,4.95585959 39.0010926,4.9994449 38.8093794,5.03250369 C38.6160486,5.06556248 38.4214247,5.0882777 38.2366685,5.12078295 L37.8724955,6.31365456 L37,6.5 L38.0546628,3.17735859 L37.6853122,3.25658742 L37.6785181,2.49107362 C38.458474,2.3455427 39.2149658,2.18320562 39.969855,2 L40.0004322,2.76052731 L39.6280077,2.84031123 L40.6,5.72913224 L39.7017817,5.9213883 L39.7017735,5.92138673 L39.7017735,5.92138673 Z" id="path1118" fill="#000000"></path>
                    </g>
                </g>
            </g>
        </g>
    </g>
</svg>