<?xml version="1.0" encoding="UTF-8" standalone="no"?>
<svg width="180px" height="180px" viewBox="0 0 180 180" version="1.1" xmlns="http://www.w3.org/2000/svg" xmlns:xlink="http://www.w3.org/1999/xlink">
    <!-- Generator: Sketch 3.8.3 (29802) - http://www.bohemiancoding.com/sketch -->
    <title>sao_tome_principe</title>
    <desc>Created with Sketch.</desc>
    <defs></defs>
    <g id="Page-1" stroke="none" stroke-width="1" fill="none" fill-rule="evenodd">
        <g id="flags" transform="translate(-990.000000, -5040.000000)">
            <g id="sao_tome_principe" transform="translate(990.000000, 5040.000000)">
                <path d="M17.6331081,143.517707 L29,120 L174.873467,120 C162.51875,154.955772 129.182603,180 89.9972382,180 C60.3374352,180 34.0287249,165.651834 17.6331,143.517696 L17.6331081,143.517707 L17.6331081,143.517707 Z M17.2611285,36.9881325 L28,60 L174.873467,60 C162.51875,25.0442275 129.182603,0 89.9972382,0 C60.1120987,0 33.6291644,14.5670106 17.2611285,36.9881325 L17.2611285,36.9881325 L17.2611285,36.9881325 Z" id="green" fill="#1FCE6D"></path>
                <path d="M174.873467,120 L27.5,120 L27.5,60 L174.873467,60 C178.189905,69.3833673 179.994476,79.480937 179.994476,90 C179.994476,100.519063 178.189905,110.616633 174.873463,120 L174.873467,120 L174.873467,120 Z" id="yellow" fill="#F2C500"></path>
                <path d="M107.605766,86.2234961 L111.808597,72.9908849 L116.011421,86.2234961 L129.617188,86.2234961 L118.611477,94.4005288 L122.814308,107.633139 L111.808597,99.4560988 L100.802887,107.633139 L105.005711,94.4005288 L94,86.2234961 L107.605766,86.2234961 L107.605766,86.2234961 Z M137,86.2234961 L150.605766,86.2234961 L154.808597,72.9908849 L159.011421,86.2234961 L172.617188,86.2234961 L161.611477,94.4005288 L165.814308,107.633139 L154.808597,99.4560988 L143.802887,107.633139 L148.005711,94.4005288 L137,86.2234961 L137,86.2234961 Z" id="stars" fill="#000000"></path>
                <path d="M20.2436969,33.1260496 L55,90 L20.2436969,146.87395 C7.58939097,131.371656 0,111.572155 0,90 C0,68.4278454 7.58939097,48.6283435 20.2436953,33.1260494 L20.2436969,33.1260496 L20.2436969,33.1260496 Z" id="red" fill="#E94B35"></path>
            </g>
        </g>
    </g>
</svg>