<?xml version="1.0" encoding="UTF-8" standalone="no"?>
<svg width="180px" height="180px" viewBox="0 0 180 180" version="1.1" xmlns="http://www.w3.org/2000/svg" xmlns:xlink="http://www.w3.org/1999/xlink">
    <!-- Generator: Sketch 3.8.3 (29802) - http://www.bohemiancoding.com/sketch -->
    <title>saudi_arabia</title>
    <desc>Created with Sketch.</desc>
    <defs></defs>
    <g id="Page-1" stroke="none" stroke-width="1" fill="none" fill-rule="evenodd">
        <g id="flags" transform="translate(-1260.000000, -5040.000000)">
            <g id="saudi_arabia" transform="translate(1260.000000, 5040.000000)">
                <circle id="green" fill="#1AAF5D" cx="90" cy="90" r="90"></circle>
                <path d="M68.4335205,48.0001409 C68.2652674,47.9964119 68.0135515,48.066598 67.6607189,48.2230696 C66.8674387,48.6204825 65.2954564,49.8445636 65.2473407,51.2528891 C65.199238,52.0474231 64.9985707,52.0443102 65.694743,52.5499287 C66.1976368,53.0918318 66.6999232,53.0385559 67.7149087,52.6411268 C68.2978507,52.3201776 68.494739,52.1154366 68.6911066,51.5771652 C68.9329347,50.6744581 67.4200969,52.0042803 67.2268097,50.9995935 C66.8887632,50.0668275 67.8545267,49.6831632 68.7724564,48.7804237 C68.7934989,48.3552865 68.8036514,48.0083609 68.4334988,48.0001895 C68.4334988,48.0001895 68.8036514,48.0083609 68.4334988,48.0001895 L68.4335205,48.0001409 L68.4335205,48.0001409 L68.4335205,48.0001409 L68.4335205,48.0001409 L68.4335205,48.0001409 Z M83.2118554,48.0609396 C82.9283458,48.0894745 82.5815353,48.3609287 82.1000744,49.013453 C81.7550384,49.6968632 80.2667747,50.7311225 81.3408094,52.8640392 C82.2193441,54.2164624 82.5802337,56.4143608 82.1814243,58.8628472 C81.5727106,59.5586765 81.4338736,59.7984667 80.6357776,60.4942635 C79.5145383,61.3953493 78.3001481,61.1649627 77.3682479,60.8286403 C76.4975661,60.3900464 75.8133598,60.1649128 75.4158521,58.7716004 C75.4875744,56.5507769 75.6607085,52.9157911 75.1175694,52.1443768 C74.3168701,50.9498034 72.9971373,51.3782156 72.4330251,51.739052 C69.722579,53.5912245 68.3837995,56.7187111 67.5654853,59.2070815 C66.8137695,61.020667 66.0127666,60.4961767 65.4503898,59.7644194 C64.0811963,58.8054856 63.9850083,51.3067487 62.3319798,52.5395848 C59.6844877,58.1946773 63.8512909,64.3896624 66.7383203,63.7875118 C68.8212229,64.4320108 70.1428648,61.4688915 70.9956279,58.2245092 C71.5790038,57.313955 72.0248008,57.2092839 72.3243417,57.6773206 C72.2473696,61.9919227 72.7382757,62.954326 74.2225043,64.2636875 C77.5333772,66.1727351 80.2718944,64.5055529 80.4866579,64.3447524 C80.7013824,64.1842762 83.0627357,62.4194593 83.0627357,62.4194593 C83.6364798,61.9684138 84.3946168,61.9409815 85.2049478,62.3383944 C85.9925443,62.8734232 85.8914102,63.7950346 87.5776728,64.4359667 C88.9967609,64.860196 92.026966,64.539143 92.7298285,63.625317 C93.6757426,62.4137524 93.905084,61.9974351 94.3432884,61.537894 C95.0184703,60.8662545 96.1736812,61.1636332 96.1736812,61.375764 C96.0660999,61.7503166 95.3873429,62.1198108 95.8482819,62.7944011 C96.6511938,63.2444414 96.8376693,62.9552113 97.3125788,62.8551998 C98.99229,62.2551244 100.254709,59.5315359 100.254709,59.5315359 C100.329048,58.515727 99.5557514,58.5927711 99.0615784,58.8019512 C98.416984,59.0964278 98.3774589,59.1965106 97.7328645,59.4910034 C96.9116001,59.5821918 95.3207012,59.9870886 94.5331047,59.0755617 C93.7288911,57.9796929 93.7243356,56.4519101 93.1095044,55.3465729 C93.1095044,55.2661727 92.0350359,53.6085724 93.0281546,53.5023448 C93.5293129,53.5719602 94.6070788,53.7801026 94.7771542,53.1071369 C95.3028259,52.4511915 93.6429423,50.5903937 92.5128956,49.6518235 C91.532012,48.8471726 90.1776567,48.749084 88.8657334,49.5707585 C87.9469359,50.2025141 88.0832566,50.9080712 87.9030721,51.5771166 C87.66911,52.3455152 87.7138286,53.2972504 88.757267,54.3130594 C89.6742856,55.6645098 91.3402867,57.3984247 90.7910127,59.8455816 C90.7910127,59.8455816 89.822928,61.0102259 88.1200484,60.8588938 C87.4102874,60.7431946 86.2537315,60.5136218 85.638857,57.119853 C85.1735794,54.5509365 85.7554454,50.9517814 84.2965631,49.2666027 C83.9672113,48.6306967 83.684422,48.0132086 83.2118988,48.0607451 C83.2118988,48.0607451 83.684422,48.0132086 83.2118988,48.0607451 L83.2118554,48.0609396 L83.2118554,48.0609396 L83.2118554,48.0609396 L83.2118554,48.0609396 L83.2118554,48.0609396 Z M78.5347827,48.3333179 C78.0934979,48.3621122 77.6046613,48.7462629 77.2060689,49.4884938 C76.8640916,50.052933 76.44637,53.004768 76.5145737,53.004768 C76.2416895,53.8832853 77.7427608,54.2555681 78.4262729,53.1263655 C79.4508902,51.0561931 79.4558363,50.1742386 79.5244739,49.2962077 C79.3648546,48.6273568 78.9760242,48.3047506 78.5347393,48.3335449 C78.5347393,48.3335449 78.9760242,48.3047506 78.5347393,48.3335449 L78.5347827,48.3333179 L78.5347827,48.3333179 L78.5347827,48.3333179 L78.5347827,48.3333179 L78.5347827,48.3333179 Z M95.8078456,48.5663797 C95.3545861,48.5970871 94.9935664,48.7954207 94.8587643,49.2959645 C94.6781503,50.4728982 94.7704509,51.1128575 95.0350223,52.092706 C95.2379369,52.7460573 96.5103393,53.839948 97.1365811,54.4740058 C100.128519,57.4797004 103.007218,60.4997273 105.786996,63.6242956 C106.223986,65.9443751 106.544179,68.2138701 106.749658,70.4742858 C107.200097,75.4302739 107.336982,81.5996425 106.925916,86.8189297 C108.168334,86.8555387 110.158996,85.3195844 110.857824,83.0698369 C111.312168,79.9577202 110.695996,73.6079333 110.654449,71.7713253 C110.625163,71.0088606 110.562366,70.0991171 110.49175,69.1468306 C113.725221,73.0959918 116.8622,77.2799172 119.941779,81.8740313 C121.064364,81.4752889 120.815542,76.7513735 120.158712,76.0879378 C117.694051,72.1232121 114.288943,68.2097195 113.203411,66.7045051 C112.811582,66.1609483 111.476929,64.6439308 109.895184,62.8944514 C109.603965,60.3981367 109.287512,58.2838001 109.081686,57.6453324 C108.573109,55.006473 110.532837,57.9429219 110.26128,56.4090915 C109.625407,53.7738314 107.679215,51.982944 105.380291,49.5691534 C104.639031,48.7840878 104.653696,48.6239683 103.509245,49.7616827 C102.825212,50.9214955 102.834453,51.8864281 103.034682,52.7915023 C102.733662,52.464551 102.361583,52.0768659 101.828015,51.595794 C99.8426452,50.3227821 99.7201649,50.2531959 98.0723862,49.2144942 C97.5527886,48.9389316 96.5635747,48.5147738 95.8081276,48.5659744 C95.8081276,48.5659744 96.5635747,48.5147738 95.8081276,48.5659744 L95.8078456,48.5663797 L95.8078456,48.5663797 L95.8078456,48.5663797 L95.8078456,48.5663797 L95.8078456,48.5663797 Z M147.004003,48.9615877 C146.78327,48.9359387 146.54276,49.0170329 146.271855,49.3162631 C145.754079,49.6555038 145.197256,50.2698466 145.214307,51.0591601 C145.340245,52.4498459 145.671385,53.8737359 145.797336,55.2644866 C145.841716,55.4505858 145.888534,55.6356993 145.932919,55.8218244 C145.732989,55.6311499 145.558432,55.4823568 145.458356,55.4063827 C141.831326,52.5586675 147.124835,54.9409725 144.766861,52.7413555 C142.772727,51.1049131 142.189265,50.5841842 140.482437,49.6000878 C139.626593,49.1866565 139.109512,48.3966945 138.828324,49.7419515 C138.716378,50.9237815 138.600032,52.2923528 138.706299,53.2887062 C138.700182,53.8423475 139.467386,54.8845837 140.129899,55.4977267 C142.549482,57.7194582 145.020868,60.08341 147.505617,62.5503793 C148.028512,67.5815957 148.167956,72.1935441 148.698748,77.2331913 C148.623537,79.3886441 147.736434,82.2514374 146.895515,82.5225186 C146.895515,82.5225186 145.611316,83.0738901 144.753303,82.4617199 C144.129274,82.2744436 141.634893,79.3508354 141.634893,79.3508354 C140.357939,78.4759173 139.506564,78.7259217 138.597833,79.3508354 C136.092041,81.1592003 134.95874,84.5464516 133.256078,86.8798257 C132.817006,87.4004574 131.580358,87.8436558 130.205481,86.8392932 C126.713556,83.2737315 128.755545,78.1984157 128.320855,79.5029133 C125.210688,82.1224792 126.588082,86.4631518 127.290424,87.396696 C128.315909,88.9298616 129.145547,89.9114287 131.140982,90.6697753 C132.958446,91.6695658 134.373629,91.0455925 135.15424,90.3455154 C136.983071,88.9290185 137.007454,85.3065167 137.865901,84.5899024 C138.468063,83.2734072 139.977179,83.4998379 140.713145,84.0832463 C141.42642,84.849667 142.268554,85.3483138 143.31634,85.7653445 C145.022256,86.8899751 147.058258,87.0942912 149.065061,86.0693381 C150.436467,85.4944254 151.326326,84.7472657 152.129237,83.2725966 C152.990721,81.550582 152.564752,72.5259754 152.373287,67.5054595 C153.661695,68.861871 154.933355,70.2476605 156.196729,71.6498251 C156.751296,76.0568413 157.002938,80.3970599 156.820411,84.5592598 C156.689648,85.3868035 160.684506,82.0885292 160.657433,80.5261153 C160.639427,79.1591005 160.660904,77.9201683 160.657433,76.7666462 C162.595077,79.0788137 164.470679,81.4295034 166.243454,83.8092467 C167.342002,83.3742196 166.96545,78.7255002 166.270571,78.0841141 C164.41445,75.7563821 162.037473,73.2409684 160.19645,71.2947606 C159.832593,68.8385243 159.337179,65.9405813 159.111786,65.0527577 C158.760615,63.6682977 158.40888,61.5886893 157.877959,59.9456644 C157.732323,59.3040838 157.29276,57.2547937 157.430556,57.057741 C157.647025,56.5992051 158.464979,57.0723976 158.867736,56.5409356 C159.470766,56.0497143 156.777415,50.8346101 155.410347,49.3462572 C154.918821,48.6791897 154.029873,48.9100304 152.929156,49.994777 C151.908443,50.7085703 152.281915,52.3370358 152.671548,53.8858956 C153.683627,57.8334355 154.587022,61.8536096 155.301859,65.8634074 C153.978525,64.3931158 152.363503,62.6139991 150.773168,60.89834 C150.730433,60.7328831 150.569794,60.1265042 150.569794,60.1181058 C150.569785,60.0471805 150.350653,56.8888016 150.163045,56.1358702 C150.130244,55.8302779 150.032763,55.7423159 150.461327,55.7811947 C150.915715,56.0668482 150.977454,56.082257 151.261289,56.1764026 C151.720015,56.2391534 152.121124,55.6595324 151.844318,55.122558 C150.42523,53.1664602 149.006055,51.2016074 147.58701,49.2453475 C147.416241,49.1196773 147.224737,48.9872755 147.003981,48.9616201 C147.003981,48.9616201 147.224737,48.9872755 147.003981,48.9616201 L147.004003,48.9615877 L147.004003,48.9615877 L147.004003,48.9615877 L147.004003,48.9615877 L147.004003,48.9615877 Z M14.8788688,49.0629189 C14.0925739,49.0461222 13.2250594,49.4103958 13.563735,50.1167635 C13.3665083,50.5017573 15.1028737,51.8032068 15.4076644,52.5182971 C15.6809824,53.0275149 15.1365721,54.6671998 15.7059471,54.8185319 C16.2294061,54.9881588 16.950274,53.6834602 17.2244772,52.4777646 C17.3762217,51.8172472 17.2613992,49.5567667 15.2043115,49.0931399 C15.0989212,49.075338 14.99124,49.0651563 14.8789122,49.0627568 C14.8789122,49.0627568 14.99124,49.0651563 14.8789122,49.0627568 L14.8788688,49.0629189 L14.8788688,49.0629189 L14.8788688,49.0629189 L14.8788688,49.0629189 L14.8788688,49.0629189 Z M165.391233,49.0758893 C165.211995,49.0891839 164.993708,49.3056663 164.659085,49.8358896 C163.854437,50.8209587 163.577544,52.5847704 163.89982,54.1423852 C165.837117,63.9360066 167.27677,73.4193113 167.574142,82.0997486 C167.407529,82.923693 167.358893,83.3619626 166.841994,84.3999834 C165.69841,85.4955278 164.437206,86.868963 163.249065,87.5311017 C162.061314,88.1929486 159.533525,88.8239583 158.706924,89.3145311 C156.084813,90.447333 156.071624,91.7500796 158.191709,91.7971297 C161.845422,91.480104 166.168764,91.2560696 169.146819,87.8959589 C169.943613,86.9543731 170.881848,84.4017344 170.922978,82.8394502 C171.201537,73.6800811 170.766166,64.7243473 168.929886,58.1045816 C168.812252,57.459726 168.431287,55.9775665 168.57737,55.784113 C168.813952,55.3307977 170.009344,55.8294835 170.434836,55.3078401 C171.059342,54.8313078 167.343369,51.2753441 166.041945,49.7548895 C165.781938,49.3730411 165.621594,49.0588656 165.391146,49.0759541 C165.391146,49.0759541 165.621594,49.0588656 165.391146,49.0759541 L165.391233,49.0758893 L165.391233,49.0758893 L165.391233,49.0758893 L165.391233,49.0758893 L165.391233,49.0758893 Z M127.075682,49.2278861 C126.924809,49.2473417 126.702063,49.4189563 126.2893,49.8257565 C125.268631,52.3198339 124.909911,54.3566399 125.299566,55.9056294 C127.921243,66.1308408 130.607479,75.4465031 130.180555,85.1801365 C131.423841,85.1863298 132.861238,83.0545156 133.475245,80.9446538 C133.811534,78.0381178 133.250867,76.2691504 133.149846,74.5606251 C133.049271,72.8522619 130.562314,58.9916108 130.058552,57.6991109 C129.450706,55.2550344 132.476703,57.3776137 132.146531,55.956214 C131.100481,54.1641917 128.489607,51.5547102 127.672508,49.9979385 C127.365296,49.5810051 127.327398,49.1953953 127.075942,49.2278213 C127.075942,49.2278213 127.327398,49.1953953 127.075942,49.2278213 L127.075682,49.2278861 L127.075682,49.2278861 L127.075682,49.2278861 L127.075682,49.2278861 L127.075682,49.2278861 Z M33.7815315,49.4204154 C33.4593428,49.4621282 33.1484346,49.6605493 33.035803,49.9878702 C32.9649571,50.2022741 33.1599841,50.5589243 32.90022,50.6668056 C32.7511003,50.7792362 32.1851225,50.7036674 32.2087248,50.1094677 C32.2087248,49.9202329 32.0228306,49.7227553 31.9104421,49.6028116 C31.7976153,49.5475772 31.7214762,49.5318798 31.5172512,49.5318798 C31.2684205,49.5394026 31.2740608,49.5884469 31.1376187,49.7446753 C31.0768775,49.9035627 30.9987817,50.0592074 30.9987817,50.2407929 C30.9677169,50.4522558 30.8544215,50.5238718 30.6462657,50.5549197 C30.4136139,50.5549197 30.4686758,50.5738565 30.2801915,50.4839879 C30.1682412,50.3924752 30.036142,50.3564889 30.036142,50.2002605 C30.036142,50.0384807 29.9792753,49.7802142 29.9141173,49.6733381 C29.8152914,49.5759434 29.6591127,49.5252584 29.4802516,49.4909419 C28.5054854,49.493536 28.434505,50.3307102 28.490517,50.6461178 C28.4174888,50.7056 28.3813434,52.1893355 29.7107644,52.601794 C31.4954278,53.2377974 34.8420946,52.9689211 34.7002205,50.8183647 C34.7002248,50.6281473 34.6442344,49.9893943 34.6188706,49.8151694 C34.4367295,49.4981405 34.1004445,49.3782616 33.7782558,49.4199615 C33.7782558,49.4199615 34.1004445,49.3782616 33.7782558,49.4199615 L33.7815315,49.4204154 L33.7815315,49.4204154 L33.7815315,49.4204154 L33.7815315,49.4204154 L33.7815315,49.4204154 Z M57.725714,49.4406817 C57.1089305,49.4641905 56.564429,49.5962972 56.0987175,49.7750585 C54.9157825,50.6215713 54.6384555,51.9786314 55.5699219,52.8251118 C56.4764844,53.1450818 57.3809643,53.8270425 56.7765893,54.2032164 C54.2130068,56.2496529 47.5408893,59.6692653 47.2046433,60.2931413 C47.2020401,60.2982322 47.1925385,60.3087382 47.1911067,60.3134076 C47.190239,60.3178824 47.1911718,60.3296206 47.1911067,60.3336738 C47.1913106,60.3356194 47.1906728,60.3419749 47.1911067,60.3437907 C47.193276,60.3489465 47.2003914,60.359874 47.2046433,60.364057 C47.2063788,60.365354 47.2162709,60.3730065 47.2181799,60.3741739 C47.2203493,60.3751467 47.2293303,60.3732011 47.2317165,60.3741739 C47.2343197,60.3751467 47.2423462,60.3835774 47.2452531,60.3842908 C47.2482902,60.3849393 47.2553622,60.3836423 47.2587898,60.3842908 C47.2596575,60.3849393 47.2711983,60.3936943 47.2723264,60.3944077 C47.6113794,60.5643718 51.7862655,60.5603509 52.2483326,60.4045246 C52.2518035,60.4032276 52.2590924,60.3957372 52.2618692,60.3944077 C52.2631708,60.3937592 52.2742777,60.3950562 52.2754058,60.3944077 C52.2762735,60.3937592 52.2745381,60.3849717 52.2754058,60.3842908 C53.7101998,59.9891477 60.5188549,54.1727684 60.5188549,54.1727684 C60.1659398,53.9469311 59.8408963,53.7804787 59.4884237,53.5546642 C59.1105874,53.3101949 59.1486331,53.0698632 59.4884237,52.8250794 C61.1746863,52.0916684 60.6403373,50.4780215 59.7595898,49.7446105 C59.0294806,49.4999726 58.3426277,49.417108 57.7258442,49.4406168 C57.7258442,49.4406168 58.3426277,49.417108 57.7258442,49.4406168 L57.725714,49.4406817 L57.725714,49.4406817 L57.725714,49.4406817 L57.725714,49.4406817 L57.725714,49.4406817 Z M120.310847,49.4609479 C120.131609,49.4742426 119.913322,49.6805918 119.578699,50.2107989 C118.774051,51.195868 118.22725,52.9113001 118.290638,54.5172945 C120.033737,63.536259 120.56813,71.4287447 121.707331,80.4480336 C121.800044,81.3203575 121.628944,82.5875003 120.853136,83.0927621 C117.983505,85.3322306 113.84577,88.0941466 109.342244,89.3652454 C108.857703,89.7718348 110.547002,91.5049715 112.73182,91.5033502 C116.385534,91.1863213 119.596878,89.6537069 122.575366,85.6160877 C123.371727,84.6744694 124.771378,82.6589672 124.812465,81.0965533 C125.091028,71.9371842 124.194683,64.8157886 122.358433,58.1956987 C122.240795,57.5508755 122.320817,56.7881513 122.4669,56.5946655 C122.703482,56.3835334 123.505704,56.5994969 123.931197,56.0778601 C124.55566,55.6013277 122.263373,51.6500913 120.961906,50.1296367 C120.701899,49.7477882 120.541555,49.4437621 120.311108,49.4608506 C120.311108,49.4608506 120.541555,49.4437621 120.311108,49.4608506 L120.310847,49.4609479 L120.310847,49.4609479 L120.310847,49.4609479 L120.310847,49.4609479 L120.310847,49.4609479 Z M23.3548699,49.7365688 C22.8505878,49.7806357 22.376199,50.0874829 22.1482025,50.4965691 C22.0637983,51.9431249 22.0524484,53.3889349 22.2702273,54.7219998 C23.1505409,57.060173 23.4292996,59.116694 23.8565272,61.5113533 C23.9750333,64.7185754 21.3784163,62.8987317 21.4973822,61.3086909 C22.0969413,59.2434148 21.9351094,55.9921257 21.4024741,55.1678571 C20.9800321,54.3439127 20.4908788,54.1405045 19.4636149,54.2761424 C18.6480341,54.2388849 16.5410519,55.9546737 15.9519923,58.7956767 C15.9519967,58.7956735 15.4612468,60.2537113 15.2469605,61.5518858 C14.9587739,63.0190321 13.6583177,64.0580256 12.7522325,61.3492234 C11.9690181,59.3803822 11.487644,54.5293894 10.1761547,55.6646233 C9.80050502,59.452303 9.35445633,66.1171408 13.6606172,66.8010049 C18.8691754,67.1752332 15.9919948,60.2204747 17.8772716,58.9578067 C18.2336793,58.3338658 18.8941661,58.3227761 18.9483993,59.1098035 L18.9483993,65.0174944 C18.9007348,66.937956 20.5917526,67.5086535 21.9041097,67.9054179 C23.2698323,67.8266486 24.1753968,67.8545512 24.7107004,68.8477819 C24.9241103,72.2531593 25.1480804,75.6669674 25.361499,79.0720205 C25.361499,79.0720205 28.5188702,79.7501128 28.6697253,73.3264595 C28.8210403,69.5546685 27.6647621,66.3895677 28.344326,65.6557676 C28.3683621,64.9347757 29.6049229,64.8991071 30.4594215,65.2504427 C31.820762,65.9681596 32.4247465,66.8514435 34.5404494,66.4968329 C37.7599068,65.8340133 39.6991131,64.666094 39.7468383,62.8184287 C39.5587922,61.0626911 39.2870274,59.3050728 38.2690048,57.5492055 C38.4111349,57.2298906 37.6527853,56.3992178 37.7944425,56.0799191 C38.3730024,56.7571035 39.2482832,56.7009092 39.4485556,56.0799191 C38.9005832,54.7304143 38.0475164,53.4373956 36.6691249,52.8778527 C35.5299236,52.1277747 33.8629247,52.2864027 33.2524322,53.8506324 C32.969491,55.6531282 34.1264981,57.7894172 35.8827432,59.5352325 C36.255768,60.2173456 36.7775479,61.3518012 36.5470785,62.3725065 C35.6125317,62.7709246 34.685968,62.605163 33.9031874,61.9874479 C33.9031917,61.9874447 31.3406896,60.5537328 31.3406896,60.2344341 C32.0206873,56.9804861 31.4871583,56.6079115 31.1101984,55.7048477 C30.8469417,54.4582954 30.056512,54.063509 29.415432,53.2120998 C28.774352,52.7042115 27.9047115,52.7042115 27.4901528,53.2120998 C26.3575029,54.6795704 26.8889017,57.8302091 27.7070857,59.2413882 C28.2983145,60.5392384 29.2050071,61.3490775 28.7782134,61.3490775 C28.4266173,62.0824885 27.6934623,61.9118629 27.1647535,61.06535 C26.4099573,59.3158058 26.2563254,56.7082699 26.2563254,55.5328278 C26.0297954,54.0754742 25.7772508,50.9623847 24.4937458,50.1724876 C24.1512782,49.8238758 23.7470629,49.7025053 23.3548483,49.7367472 C23.3548483,49.7367472 23.7470629,49.7025053 23.3548483,49.7367472 L23.3548699,49.7365688 L23.3548699,49.7365688 L23.3548699,49.7365688 L23.3548699,49.7365688 L23.3548699,49.7365688 Z M41.6449142,49.7568351 C41.386443,49.7812518 41.1007164,49.8912246 40.7636461,49.9493644 C39.6563773,50.2127931 38.6197419,50.9282077 38.9468333,52.3205148 C40.2557194,58.2648471 41.108873,62.8015672 42.4177592,68.7462237 C42.6189341,69.4423773 41.8381146,70.3600004 40.8314593,70.266192 C39.1198155,69.4007423 38.6950176,67.6479231 35.7743202,67.7227623 C33.6599189,67.7417315 31.2486666,69.4612816 30.9475638,71.117439 C30.5950956,72.4336099 30.4695739,73.8607101 30.9475638,75.0085577 C32.433554,76.3439896 34.213575,76.2016071 35.7743202,75.9002724 C37.0578252,75.5054536 38.1138544,74.5601063 38.5673309,74.785629 C38.5686325,74.7866018 38.5797395,74.784332 38.5808675,74.785629 C38.5821691,74.7869261 38.5795659,74.794384 38.5808675,74.7957459 C38.86075,75.1613814 38.5544885,78.2533291 32.5336468,80.642476 C28.8335964,81.884132 25.8885591,82.1807973 24.3036476,79.9230082 C23.3218961,78.5120561 24.3750705,73.1381942 21.9580826,74.3801096 C14.8101445,88.1504543 38.7044325,90.0726669 41.3735745,74.9475644 C41.546444,74.5208708 42.0730095,74.0927505 42.4447023,74.1977134 C42.6077924,74.2496209 42.7570769,74.4151362 42.8107765,74.7246357 C42.2566865,88.4197522 24.3254927,89.3584845 21.280189,85.0503676 C20.5253928,84.034883 20.2983075,81.77437 20.2226413,80.4196122 C20.0845982,79.6000453 19.8094406,79.1273068 19.4904929,78.9401764 C18.7639847,78.5321926 17.7877,79.5961542 17.5787936,81.4430737 C17.2766192,82.9291892 17.3618608,83.3371729 17.3618608,84.7667375 C18.3182744,95.5837232 41.3928165,90.9361062 45.1427181,82.0004116 C46.9990994,77.3810052 45.1049284,73.8961842 45.7257469,73.4684854 C45.7311268,73.4651131 45.7471364,73.4612868 45.7528635,73.4583684 C45.758764,73.4557744 45.773689,73.4505214 45.7799801,73.4482515 C45.7864447,73.446306 45.8002416,73.4397559 45.8070967,73.4381346 C45.8282259,73.4339193 45.8636988,73.4282447 45.8884465,73.4280177 C48.1790841,75.2720189 51.393335,73.6623052 52.097933,73.0226929 C52.4001118,72.7027229 53.1560014,72.4974567 53.6842329,72.9112285 C55.4710656,73.8711351 58.6029688,73.4186628 59.2568045,71.7256695 C59.6346365,70.0702579 59.9539834,68.3660128 60.0296062,66.5984722 C58.8656745,66.8685547 57.926442,67.0707891 57.5484148,67.3685894 C57.458392,67.4420634 57.3918023,67.5235662 57.3721568,67.6117843 C57.2711399,68.1010601 57.1748911,68.5918274 57.0738741,69.0810707 C57.0630709,69.1215157 57.0456728,69.1588801 57.0196409,69.1925351 C56.9700327,69.2525912 56.8880234,69.3079748 56.802708,69.3445319 C56.3912211,69.5124434 55.6737026,69.4164235 55.6366938,68.9696226 C55.0830812,67.088364 52.8045918,66.8436775 51.4200395,69.7600061 C50.4885731,70.324121 48.7901189,70.4342397 48.6134488,69.587743 C48.8399831,67.631321 47.7852424,67.3687029 45.6713184,68.2907035 C44.9917111,64.4154735 44.3175705,60.7156682 43.6375727,56.8404383 C44.5187541,56.821469 45.3267856,57.2989417 46.1323007,56.5465777 C45.2605777,54.520375 43.4159975,50.3976375 42.3766721,50.0107954 C42.3685154,50.0078771 42.3576254,50.0030132 42.3495555,50.0006785 C42.3023683,49.9583626 42.2465341,49.9193833 42.2004142,49.8892142 C42.1812373,49.8770544 42.151691,49.8589607 42.1326226,49.8486817 C42.1135759,49.8387917 42.0838084,49.826405 42.0648311,49.8182985 C42.0230932,49.8011776 41.9709252,49.7872344 41.9292481,49.777766 C41.8344918,49.7576943 41.7424298,49.7482584 41.6445237,49.7574998 C41.6445237,49.7574998 41.7424298,49.7482584 41.6445237,49.7574998 L41.6449142,49.7568351 L41.6449142,49.7568351 L41.6449142,49.7568351 L41.6449142,49.7568351 L41.6449142,49.7568351 Z M112.94641,49.7872182 C112.031995,49.766952 111.020176,50.197634 111.414343,51.0538422 C111.184759,51.5208737 113.379018,53.1051102 113.732835,53.9721812 C114.369577,55.3043705 113.246558,56.5751126 113.909093,56.7588058 C114.518718,56.9643834 115.366882,55.3834575 115.685253,53.9215318 C116.053028,52.7397018 114.924903,50.3177074 113.326108,49.8176986 C113.203554,49.7961354 113.077108,49.7902014 112.946475,49.7873155 C112.946475,49.7873155 113.077108,49.7902014 112.946475,49.7873155 L112.94641,49.7872182 L112.94641,49.7872182 L112.94641,49.7872182 L112.94641,49.7872182 L112.94641,49.7872182 Z M57.3985792,51.2463877 C57.8149992,51.2146751 58.3181577,51.5006302 58.5645934,51.9050244 C58.827464,52.3363873 58.6956165,52.7485541 58.2663107,52.8271547 C57.8370092,52.9057423 57.281826,52.6201407 57.0189467,52.1887518 C56.7560848,51.7573889 56.8879236,51.3351052 57.3172294,51.2565046 C57.3440423,51.2515759 57.3708162,51.2484954 57.3985792,51.2463877 C57.3985792,51.2463877 57.3708162,51.2484954 57.3985792,51.2463877 L57.3985792,51.2463877 L57.3985792,51.2463877 L57.3985792,51.2463877 L57.3985792,51.2463877 L57.3985792,51.2463877 Z M160.441693,53.2425964 C159.60802,53.2207737 158.699462,53.6938365 159.058746,54.620701 C158.849709,55.1263194 160.837986,56.8435674 161.160305,57.7822349 C161.45024,58.4502751 160.719063,60.6031986 161.323004,60.8019051 C161.87883,61.0244771 162.660092,59.3144277 162.950001,57.7315531 C163.11093,56.8651306 162.251781,53.8245457 160.794209,53.2830316 C160.682475,53.2597174 160.560789,53.2456185 160.441693,53.2424992 C160.441693,53.2424992 160.560789,53.2456185 160.441693,53.2424992 L160.441693,53.2425964 L160.441693,53.2425964 L160.441693,53.2425964 L160.441693,53.2425964 L160.441693,53.2425964 Z M103.470782,54.2964411 C103.547034,54.5505182 103.623243,54.8063073 103.674157,55.0665583 C103.845022,55.6280792 103.992315,56.1858386 104.148719,56.7385072 C103.490588,56.0612255 102.945826,55.5140045 102.711539,55.3198701 C101.222382,53.9972141 102.745077,54.4513076 103.470804,54.2964411 C103.470804,54.2964411 102.745077,54.4513076 103.470804,54.2964411 L103.470782,54.2964411 L103.470782,54.2964411 L103.470782,54.2964411 L103.470782,54.2964411 L103.470782,54.2964411 Z M116.595221,59.1198069 C116.273032,59.1615197 115.962124,59.3700707 115.849493,59.6973786 C115.778647,59.9117793 115.987228,60.2583158 115.727468,60.3661647 C115.578348,60.4785953 114.998834,60.4131564 115.022436,59.8189761 C115.022432,59.629738 114.836542,59.4221468 114.724153,59.3021707 C114.611335,59.246933 114.535187,59.2312388 114.330963,59.2312388 C114.082127,59.2387617 114.087768,59.2878092 113.95133,59.4440344 C113.893608,59.6032038 113.815747,59.7601456 113.815747,59.9405411 C113.784682,60.152004 113.684949,60.2236168 113.476789,60.2546679 C113.244142,60.2546679 113.285637,60.2736047 113.097157,60.183736 C112.985202,60.0922267 112.853107,60.0562338 112.853107,59.9000086 C112.853112,59.7382257 112.796241,59.4799624 112.731083,59.3730863 C112.632248,59.2756884 112.476074,59.2351429 112.297217,59.2008233 C111.322451,59.2034173 111.26505,60.0304746 111.321019,60.3458498 C111.247982,60.405332 111.198287,61.8992168 112.527686,62.3116754 C114.31235,62.9476787 117.672466,62.6686855 117.530592,60.5181291 C117.530597,60.3279117 117.461048,59.6891587 117.435684,59.5149338 C117.253543,59.1979049 116.917258,59.078026 116.595069,59.1197259 C116.595069,59.1197259 116.917258,59.078026 116.595069,59.1197259 L116.595221,59.1198069 L116.595221,59.1198069 L116.595221,59.1198069 L116.595221,59.1198069 L116.595221,59.1198069 Z M56.6696848,59.5656643 C56.4496281,59.5489 56.1611508,59.6092805 55.8290699,59.7581936 C54.2508399,60.3961749 53.63974,62.2886853 54.6224025,63.3960653 C55.5403323,64.3713417 56.9916132,64.0141695 57.1849004,64.0141695 C58.7311979,64.1586273 59.6525118,61.8456815 59.6525118,61.8456815 C59.6525074,61.8456815 59.6990742,61.1953458 57.8628156,62.4232532 C57.0901007,62.531436 56.9850184,62.3228623 56.7916878,61.9976621 C56.630754,61.3959654 56.6653375,60.7858704 57.0357373,60.1838171 C57.2068366,59.8228834 57.036605,59.5936317 56.6696631,59.5657129 C56.6696631,59.5657129 57.036605,59.5936317 56.6696631,59.5657129 L56.6696848,59.5656643 L56.6696848,59.5656643 L56.6696848,59.5656643 L56.6696848,59.5656643 L56.6696848,59.5656643 Z M141.381971,59.8595248 C140.505822,59.8276825 139.573271,60.2517171 139.334645,61.1464474 C139.338116,61.6742777 139.653484,61.9643606 139.592253,62.443487 C139.500859,62.7173731 139.123287,62.8974833 138.222886,62.5752176 C138.363697,62.4784746 137.639857,61.7139185 137.639857,61.7139185 C136.937515,61.394276 135.999671,61.7312664 135.389179,62.0280452 C135.053323,62.4843113 134.804892,63.2663613 135.185804,64.0647864 C136.193804,65.4567693 139.651584,67.8320378 141.300708,67.854736 C141.331339,66.5996881 141.494472,64.9307225 141.585432,63.8926044 C141.62435,63.5007364 141.747329,63.0688546 142.249767,62.9704742 C142.751793,62.8724245 143.623083,63.3479775 143.632714,62.940091 C143.541316,62.1416335 143.327798,60.9634027 142.724286,60.4068106 C142.415161,60.0644895 141.907708,59.878721 141.381993,59.8596221 C141.381993,59.8596221 141.907708,59.878721 141.381993,59.8596221 L141.381971,59.8595248 L141.381971,59.8595248 L141.381971,59.8595248 L141.381971,59.8595248 L141.381971,59.8595248 Z M71.2605897,64.2269812 C71.2372911,64.2333692 71.2142181,64.2482527 71.1927982,64.2573644 C71.1822986,64.262131 71.1627313,64.2719237 71.1521449,64.2776306 C70.9776485,64.3755344 70.7717358,64.601482 70.3115301,64.8450854 C69.5353009,65.5049543 69.3961601,65.964463 69.4437986,67.2871515 C69.4879618,67.4270599 70.9174236,70.3974199 72.1283429,72.4853618 C72.9447914,74.655536 73.7001517,77.1404368 73.1452374,79.4874298 C71.2337551,82.5900782 67.3908761,85.3727468 63.6817578,86.8844464 C61.7919688,87.336789 60.1598961,87.1827461 59.7227329,86.8743295 C59.719262,86.8717354 59.7123202,86.866677 59.7091963,86.8642126 C58.6239246,86.3188723 58.5990207,85.3481031 58.6652286,85.1821144 C58.6652069,85.1811417 58.6653023,85.1731324 58.6652286,85.1719975 C58.6678318,85.170052 58.6762922,85.1636316 58.6787652,85.1618806 C61.8085859,83.5326044 65.3837264,82.2139043 68.1830281,77.8154486 C69.0095424,76.1345502 69.2618787,75.1252588 68.4406359,72.5261213 C68.120482,71.5576218 67.7250178,70.7606559 66.840756,70.0739059 C66.8429253,70.0719603 66.8519931,70.0655724 66.8542926,70.0637889 C67.3870797,69.873283 68.7694194,70.6343891 68.9829247,70.154987 C68.6558203,68.914012 67.5311665,67.2479971 66.2577272,66.3955179 C65.1426055,65.6385656 63.9295169,65.5509506 62.9088043,66.2435211 C61.7591035,66.7216747 61.5145768,68.4389875 62.0681894,69.9420294 C62.683064,71.0735342 64.3430777,71.2720461 65.5255788,73.5494206 C65.5255571,73.5516904 65.5254746,73.5587917 65.5255788,73.5595375 C65.5502223,73.7023286 65.9313994,75.2594376 65.3357625,75.8901555 C64.8523927,77.0166992 58.6438173,80.6759072 58.2038774,80.8960797 C58.1990181,80.8997114 58.16791,80.9129087 58.1632242,80.9163459 C58.160621,80.9182915 58.1519871,80.9247767 58.1496876,80.9264628 C58.148386,80.9271113 58.1390145,80.9344072 58.136151,80.9365797 C58.1348494,80.9375525 58.1238292,80.945659 58.1226144,80.9466966 C58.1213128,80.9466966 58.1105529,80.9467517 58.1090778,80.9466966 C58.10821,80.9466739 58.0986216,80.946661 58.0955412,80.9466966 C58.092938,80.9450753 58.0843908,80.9384604 58.0820046,80.9365797 C58.0821087,80.9356069 58.0819742,80.9273707 58.0820046,80.9264628 C58.0794014,80.9229608 58.0708976,80.9098607 58.0684679,80.9061966 C58.0497683,80.8148363 58.082612,80.582235 58.0684679,80.2070274 C58.0276846,79.5214123 58.4073778,77.9703151 58.3803089,77.7041302 C58.380322,77.7031574 58.3802699,77.6950185 58.3803089,77.6940132 C58.3777057,77.6920677 58.3692888,77.6856798 58.3667723,77.6838963 C58.3667897,77.6829236 58.3667029,77.6748819 58.3667723,77.6737794 C58.3637353,77.6738248 58.3536696,77.6738086 58.3532357,77.6737794 C56.300964,78.6641016 55.6231789,81.6997902 55.2484057,82.5986386 C50.0528634,85.2815974 44.1527232,87.2777088 40.7546867,89.9956552 C38.984905,92.0612556 52.9480495,87.6237914 54.5707074,87.0874331 C54.5846345,87.0952478 54.5985182,87.1078615 54.6113606,87.1178163 C54.9197914,87.3715075 54.9461358,88.2560658 55.8722612,89.0532587 C57.3236723,90.5227072 60.4087614,91.4276193 63.4106785,90.8671037 C68.4448227,89.5071577 71.3452152,86.9429105 74.2981054,84.0981785 C74.7201093,83.6393183 75.381555,83.2777685 75.9928718,83.6320549 C78.0219751,87.0270559 83.8723075,89.4427921 91.435889,89.6918237 C93.1860166,88.1011344 92.3490028,87.3189871 91.6392636,86.986264 C91.4206343,86.8776791 87.8777344,85.845388 87.3277228,84.817776 C86.9813721,83.8614688 87.8234578,83.0133346 89.5105881,82.37571 C94.3668473,81.9367593 99.1406721,81.4492022 103.760475,80.3389687 C103.807263,79.1790263 104.721444,77.444398 105.333238,76.691045 C105.758031,76.168338 106.031154,76.1165862 106.133199,76.0425252 C106.13667,76.0399311 106.143873,76.0350672 106.146736,76.0324083 C106.148038,76.0311113 106.159058,76.0236857 106.160273,76.0222914 C106.162876,76.0206701 106.17138,76.0139579 106.173809,76.0121745 C106.173818,76.0087049 106.173992,75.9955075 106.173809,75.9919082 C106.176412,75.9689506 106.173597,75.9294169 106.160273,75.890577 L105.373891,75.5460509 L89.8766406,75.4953853 C89.6852017,75.4403033 89.5428634,75.3850169 89.4563332,75.3332553 C89.4497384,75.3291372 89.4351171,75.3170748 89.4292166,75.3129891 C89.4266134,75.3110435 89.4182398,75.3048826 89.41568,75.3028722 C89.4130768,75.3009266 89.4043561,75.2947333 89.4021433,75.2927553 C89.399974,75.2892208 89.3907327,75.2760235 89.3886067,75.272489 C89.3873051,75.2715163 89.3765886,75.2634422 89.3750701,75.2623721 C89.3750961,75.2613993 89.3749443,75.2533253 89.3750701,75.2522552 C89.3737685,75.2512824 89.3630954,75.2432084 89.3615335,75.2421383 C89.3615422,75.2411655 89.3614554,75.2330915 89.3615335,75.2320214 C89.3615378,75.2310486 89.3614771,75.2229746 89.3615335,75.2219045 C89.3615335,75.2209317 89.3614988,75.2128576 89.3615335,75.2117876 C89.3613903,75.2101663 89.3615856,75.2031947 89.3615335,75.2016707 C89.3615899,75.2010222 89.3615726,75.1936939 89.3615335,75.1915538 C89.3615118,75.190581 89.3615769,75.1825069 89.3615335,75.1814369 C89.3615075,75.1804641 89.3615942,75.17239 89.3615335,75.17132 C89.3615031,75.1703472 89.3616159,75.1622731 89.3615335,75.161203 C89.3641367,75.1592575 89.3725537,75.152902 89.3750701,75.1510861 C89.378541,75.1457358 89.383921,75.1361053 89.3886067,75.1308199 C89.4642686,75.0546156 89.6476333,74.9827888 89.8767057,74.9180243 C93.5772334,74.5412019 100.151514,73.7357728 100.587983,69.0103334 C100.519762,66.5489415 99.1787004,64.937305 95.1377617,64.4907991 C92.1684279,64.6623909 90.0506859,66.8089655 90.3921382,69.1724634 C90.2500168,69.808791 90.6802511,71.0575807 89.8091094,71.1990877 C84.1133199,71.588005 77.8964577,74.2552696 77.6877683,76.1641551 C77.6864667,76.1639865 77.6754031,76.1642005 77.6742317,76.1641551 C77.6720624,76.1661007 77.663038,76.1724561 77.6606951,76.174272 C77.656313,76.1758933 77.6407373,76.1817624 77.6335785,76.1843889 C77.6288493,76.1843403 77.6112344,76.1845186 77.6064619,76.1843889 C77.5973073,76.1866587 77.5751368,76.1927224 77.5658087,76.1945058 C77.5632055,76.1946809 77.555743,76.1944701 77.552272,76.1945058 C77.5445492,76.194415 77.530275,76.1945058 77.5251554,76.1945058 C77.5225522,76.1944442 77.5150897,76.194441 77.5116188,76.1945058 C77.5058918,76.1946128 77.4892314,76.1946777 77.4845022,76.1945058 C77.4697942,76.192236 77.4430246,76.1867884 77.430269,76.1843889 C77.0598171,76.1074939 76.5825821,75.6505923 76.6574673,75.0089468 C76.4405605,71.7089539 75.0034844,67.974777 72.7526757,65.0989161 C71.94946,64.4987759 71.5995039,64.255581 71.3697286,64.2274676 C71.3623095,64.2268191 71.3498142,64.227727 71.342612,64.2274676 C71.3331537,64.2274385 71.3141504,64.2275487 71.3019588,64.2274676 C71.2997895,64.227513 71.2905047,64.2273379 71.2884222,64.2274676 C71.2871206,64.2274385 71.2761438,64.2275487 71.2748856,64.2274676 C71.2731501,64.2277919 71.2629976,64.2271434 71.2613489,64.2274676 C71.2613489,64.2274676 71.2629976,64.2271434 71.2613489,64.2274676 L71.2605897,64.2269812 L71.2605897,64.2269812 L71.2605897,64.2269812 L71.2605897,64.2269812 L71.2605897,64.2269812 Z M86.0935917,65.9698781 C85.771403,66.0115909 85.4604948,66.2100088 85.3478632,66.537333 C85.277026,66.7517368 85.4855982,67.108387 85.2258385,67.2162683 C85.0767145,67.3286989 84.4972044,67.2632633 84.5208067,66.6690797 C84.5208067,66.4798449 84.3349125,66.2722505 84.222524,66.1522743 C84.1097015,66.0970399 84.0471164,66.0813425 83.8428914,66.0813425 C83.5940608,66.0888653 83.5861384,66.1379096 83.4497006,66.294138 C83.3919704,66.453301 83.3141176,66.6102493 83.3141176,66.7906448 C83.2830528,67.0021076 83.1833201,67.0737237 82.9751599,67.1047715 C82.7425081,67.1047715 82.7975657,67.1237083 82.6090857,67.0338397 C82.4971354,66.9423271 82.3514779,66.9063407 82.3514779,66.7501123 C82.3514736,66.5883293 82.3081781,66.330066 82.2430115,66.22319 C82.1441812,66.1257953 81.9744443,66.0852433 81.7956092,66.0509269 C80.820843,66.053521 80.7634426,66.8805783 80.8194112,67.1959534 C80.7463786,67.2554389 80.6966793,68.7493204 82.0260786,69.161779 C83.810742,69.7977823 88.0637543,69.4233432 87.0289845,67.3682327 C87.0289802,67.1780154 86.9594402,66.5392623 86.9340764,66.3650375 C86.7519395,66.0480086 86.4156502,65.9281297 86.0934615,65.9698295 C86.0934615,65.9698295 86.4156502,65.9281297 86.0934615,65.9698295 L86.0935917,65.9698781 L86.0935917,65.9698781 L86.0935917,65.9698781 L86.0935917,65.9698781 L86.0935917,65.9698781 Z M145.954048,67.8039569 C145.909186,67.7979257 145.857574,67.8002604 145.804907,67.8140738 C145.804907,67.8140738 137.53586,72.2107137 137.331075,72.3637643 C136.511112,72.9085858 136.921323,74.8244429 137.331075,74.603168 C137.923649,74.7734466 146.248751,70.5570531 146.089956,70.0635295 C146.452785,70.0794507 146.627299,67.8944903 145.954373,67.8038272 C145.954373,67.8038272 146.627299,67.8944903 145.954373,67.8038272 L145.954048,67.8039569 L145.954048,67.8039569 L145.954048,67.8039569 L145.954048,67.8039569 L145.954048,67.8039569 Z M93.9075137,68.4557193 C94.2450048,68.4289679 94.687691,68.5145498 95.1141811,68.6989142 C95.7314852,68.9657574 96.1119855,69.3687379 96.0632624,69.661577 C96.0615269,69.6695214 96.0654317,69.6842103 96.0632624,69.6919601 C96.0606592,69.6996775 96.0392262,69.7148205 96.0361458,69.7223433 C96.0326748,69.7298013 96.0265573,69.745463 96.0226092,69.7527264 C96.020006,69.7575255 96.012153,69.7682909 96.0090725,69.7729927 C96.0060355,69.777662 95.9990502,69.7886869 95.9955359,69.7932589 C95.9753178,69.818 95.9419188,69.8439667 95.9141861,69.8641908 C95.6174436,70.0713183 94.9325215,70.0418333 94.2871896,69.7628596 C93.6755257,69.4984451 93.2975418,69.0922901 93.3381083,68.8001968 C93.3394099,68.79222 93.3496925,68.7776283 93.3516449,68.7698136 C93.3618841,68.7335679 93.3811044,68.7005063 93.4058781,68.6684824 C93.414729,68.6570361 93.4225385,68.638456 93.4329947,68.6279499 C93.435164,68.6260044 93.4443186,68.6198435 93.4465313,68.617833 C93.4647537,68.6019443 93.4922911,68.5806761 93.5143228,68.5671674 C93.6126845,68.5093551 93.7520899,68.468025 93.9075137,68.4557031 C93.9075137,68.4557031 93.7520899,68.468025 93.9075137,68.4557031 L93.9075137,68.4557193 L93.9075137,68.4557193 L93.9075137,68.4557193 L93.9075137,68.4557193 L93.9075137,68.4557193 Z M21.4909827,69.5703627 C17.2062114,69.6288689 10.9315583,73.7679069 10.7662555,76.0656125 C15.2875703,74.4428863 19.7286201,72.8809913 24.3245599,71.2017142 C23.5828664,70.3741705 24.2795984,69.62847 21.4908959,69.5702978 C21.4908959,69.5702978 24.2795984,69.62847 21.4908959,69.5702978 L21.4909827,69.5703627 L21.4909827,69.5703627 L21.4909827,69.5703627 L21.4909827,69.5703627 L21.4909827,69.5703627 Z M35.3746865,71.0092659 C35.7947075,71.0128004 36.2376888,71.1678063 36.4728874,71.6071363 C36.6845445,72.0101265 36.4829097,72.4315347 36.2288379,72.6407147 C36.2275363,72.642336 36.2301395,72.6492427 36.2288379,72.6508316 C36.2249331,72.655501 36.2195098,72.6667204 36.2153013,72.6710979 C36.035464,72.8442656 35.4041026,72.7724291 34.9544007,72.7724291 C34.4103765,72.7544651 34.1421607,72.6877259 33.8155031,72.3569873 C33.6593896,71.989309 34.1348023,71.6280187 34.3442987,71.3537921 C34.346468,71.351198 34.3557094,71.3462044 34.3578353,71.3436752 C34.3805699,71.3181235 34.4177131,71.2874939 34.4527434,71.2626102 C34.6154431,71.1512366 34.896805,71.0471298 35.1984719,71.0194153 C35.2571262,71.0140326 35.3147262,71.0087795 35.3747298,71.0092984 C35.3747298,71.0092984 35.3147262,71.0087795 35.3747298,71.0092984 L35.3746865,71.0092659 L35.3746865,71.0092659 L35.3746865,71.0092659 L35.3746865,71.0092659 L35.3746865,71.0092659 Z M144.344406,72.2836073 C143.582538,72.3538225 142.858329,72.8922431 143.191972,73.7528937 C142.982935,74.2585122 144.225527,76.0264419 144.547802,76.965077 C144.837742,77.6331172 144.17437,79.5225796 144.778294,79.7212861 C145.334119,79.9438613 146.795856,78.5995738 146.744226,76.9144276 C146.905156,76.0480052 146.330735,72.8556666 144.87318,72.3138283 C144.705582,72.2788374 144.520217,72.2672257 144.344384,72.2834452 C144.344384,72.2834452 144.520217,72.2672257 144.344384,72.2834452 L144.344406,72.2836073 L144.344406,72.2836073 L144.344406,72.2836073 L144.344406,72.2836073 L144.344406,72.2836073 Z M51.7965048,75.4046087 C51.1231451,75.4397844 50.5222845,75.7087742 50.7931903,76.4179209 C50.752537,76.9323592 52.6957349,77.5578889 52.8133559,78.7485388 C53.0910473,79.2394359 52.3979295,80.8114802 52.9760556,80.9575593 C53.5069337,81.1209733 54.2435943,79.8708672 54.5217023,78.7080063 C54.6756335,78.0709978 53.8549808,75.8429108 52.46084,75.4453033 C52.2468878,75.4109026 52.0209435,75.3930456 51.7965048,75.4047709 C51.7965048,75.4047709 52.0209435,75.3930456 51.7965048,75.4047709 L51.7965048,75.4046087 L51.7965048,75.4046087 L51.7965048,75.4046087 L51.7965048,75.4046087 L51.7965048,75.4046087 Z M79.4962292,78.2317658 C79.5473256,78.2291718 79.5923782,78.2319993 79.6453705,78.2317658 C79.6542648,78.2317237 79.6635495,78.2317367 79.6724871,78.2317658 C81.3989691,78.5824529 83.9440689,78.6188025 86.1535736,78.7891037 C87.9531185,78.8744068 88.842283,79.9273532 87.1568881,80.3698707 C85.4942278,80.7954294 83.8967776,81.1277958 83.8893585,82.9234173 C84.1079227,83.8128946 84.0616248,84.2796667 83.8758218,84.4940674 C83.8612873,84.5101507 83.8377284,84.5315259 83.8215886,84.544733 C83.8194193,84.5466785 83.8103949,84.5530989 83.808052,84.5548499 C83.8054488,84.5564712 83.796945,84.5633131 83.7945154,84.5649668 C83.7919122,84.5665881 83.7834518,84.5735597 83.7809788,84.5750837 L83.7674422,84.5852006 C83.7626697,84.5868219 83.7451415,84.593599 83.7403256,84.5953175 C83.7161592,84.6065369 83.6853071,84.6185021 83.6589757,84.6257007 C83.6357205,84.6316022 83.6023563,84.6327371 83.5776259,84.6358176 C83.1823959,84.6791387 82.6083699,84.3974509 82.1810989,84.2304927 C81.1560477,83.6804183 78.2793009,82.3479695 77.8695581,79.4881919 C77.8112552,78.8428498 78.4576197,78.286355 79.4965546,78.2316848 C79.4965546,78.2316848 78.4576197,78.286355 79.4965546,78.2316848 L79.4962292,78.2317658 L79.4962292,78.2317658 L79.4962292,78.2317658 L79.4962292,78.2317658 L79.4962292,78.2317658 Z M11.8392054,80.430637 C11.7313551,80.4332311 11.5155199,80.6740297 11.2291034,80.9474424 C8.68001203,83.9824177 8.45331718,88.5127499 9.85973637,89.8645894 C10.6071135,90.5032192 11.839379,90.7840607 12.7476335,90.5840572 C14.3490754,90.0650468 15.0529358,87.6407502 14.6729127,86.7538994 C14.1385203,86.1286615 13.715024,86.0296001 13.1814993,86.5613701 C12.0545764,88.2713546 11.5855675,87.1015871 11.4867329,86.1459283 C11.3139936,84.3336398 11.5488712,82.6646742 11.8121322,81.3429908 C11.9522882,80.6656119 11.9470992,80.4284807 11.8392488,80.4310099 C11.8392488,80.4310099 11.9470992,80.4284807 11.8392488,80.4310099 L11.8392054,80.430637 L11.8392054,80.430637 L11.8392054,80.430637 L11.8392054,80.430637 L11.8392054,80.430637 Z M98.6817723,84.415791 C98.4922207,84.4082034 98.290087,84.4303503 98.0852069,84.5069891 C98.0449875,84.5069891 96.2604544,85.408918 95.6854087,86.0371067 C95.3346847,86.2364779 95.3744528,86.4097786 95.4820341,86.7565745 C95.7553522,87.2262326 96.2370039,87.0788435 96.7836314,86.8579058 C97.5091417,86.7840394 97.8599655,87.1391039 97.8005259,87.7901529 C97.4655468,88.6020024 97.9496629,88.904472 97.9496672,88.9554781 C97.9496672,89.0064648 98.6482345,89.454579 99.4681973,89.0973418 C101.199061,88.603494 102.277695,88.1232003 104.701486,87.7293542 C105.337793,87.7198858 105.301002,86.4473603 104.294737,86.4018991 C102.981946,86.4512514 101.770549,86.501369 100.457715,87.2733475 C99.6499871,87.4129057 99.5116707,87.0454739 99.332354,86.7160096 C99.127257,85.8986153 99.7942041,85.3224703 99.6577533,84.7096516 C99.6941546,84.7365976 99.2502145,84.4385573 98.6815554,84.415791 C98.6815554,84.415791 99.2502145,84.4385573 98.6815554,84.415791 L98.6817723,84.415791 L98.6817723,84.415791 L98.6817723,84.415791 L98.6817723,84.415791 L98.6817723,84.415791 Z M154.286006,85.9661424 C153.963982,85.9736653 153.624881,86.0070057 153.133572,86.0370743 C152.60226,86.1214013 152.416739,86.2953667 152.320073,86.7767759 C152.358123,87.5069119 152.955643,87.4707569 153.567437,87.7596725 C153.921667,88.0966434 154.152115,88.4017071 153.540321,88.9553809 C152.960459,89.3524695 152.547419,89.5716043 151.967557,89.968693 C151.693788,90.3177588 151.523279,90.8538901 152.360748,91.0225376 C153.907046,91.3474136 157.48557,89.6097697 157.48557,89.5734851 C158.065432,89.2486091 157.873069,88.631121 157.824528,88.631121 C157.486494,88.3421989 156.723637,88.5157298 156.211068,88.468991 C155.967045,88.468991 155.165799,88.3803416 155.546733,87.8508868 C155.864661,87.5214388 155.981944,87.3245482 156.197531,86.9186396 C156.438926,86.521551 156.226731,86.2537447 155.356917,86.0370419 C154.91394,85.9769046 154.607847,85.9585937 154.285789,85.96611 C154.285789,85.96611 154.607847,85.9585937 154.285789,85.96611 L154.286006,85.9661424 L154.286006,85.9661424 L154.286006,85.9661424 L154.286006,85.9661424 L154.286006,85.9661424 Z M131.056834,121.115914 C131.053363,121.117211 131.046681,121.12428 131.043297,121.126031 C128.471471,121.619231 128.551476,123.614694 130.202682,124.490228 C103.04529,124.490228 61.3698825,124.145702 52.4322482,124.145702 C47.4319456,124.145702 31.6123329,123.699844 31.308193,123.699844 C34.7008496,127.408405 39.6154204,128.163606 46.0461784,128.239483 C58.1085137,128.239483 113.998231,128.128018 129.903749,128.128018 C128.773008,129.628531 130.006337,132.043132 130.893483,132.485423 C130.912313,132.49447 130.94281,132.508607 130.961275,132.515806 C130.994379,132.528128 131.038039,132.540093 131.069741,132.546189 C131.080241,132.548135 131.100112,132.545216 131.110395,132.546189 C132.16343,132.731828 132.626799,132.162071 132.981441,131.745656 C134.689657,131.858184 144.304035,131.962122 145.183915,131.735539 C145.186952,131.734566 145.194544,131.72633 145.197451,131.725422 C145.792628,132.380071 146.383293,132.998596 147.515943,132.890748 C149.498276,132.573064 151.059498,132.411816 151.108872,129.404954 C151.108872,129.404954 150.906239,124.280999 146.404032,124.602016 C145.338761,124.722291 142.350077,124.946542 142.350077,124.946542 C138.891386,124.638992 136.354486,124.607561 132.466182,124.500685 C132.825088,124.160147 133.45878,122.781005 132.683115,122.281515 C132.480838,122.155809 132.179093,122.085818 131.76115,122.109252 C131.758113,122.109414 131.750564,122.109226 131.747613,122.109252 C131.741713,122.109032 131.726267,122.109901 131.720497,122.109252 C131.71746,122.108604 131.709737,122.099751 131.70696,122.099135 C131.69581,122.096217 131.676937,122.093915 131.666307,122.089018 C131.645221,122.078318 131.617831,122.055639 131.598515,122.038353 C131.593743,122.033845 131.576084,122.02295 131.571399,122.018086 C131.374762,121.804117 131.267398,121.27952 131.137533,121.146638 C131.135798,121.145341 131.125515,121.137851 131.123996,121.136521 C131.122261,121.135548 131.112022,121.127377 131.11046,121.126404 C131.105731,121.124134 131.088159,121.117422 131.083343,121.116287 C131.081608,121.116171 131.071412,121.116268 131.069807,121.116287 C131.068071,121.116582 131.057919,121.115963 131.05627,121.116287 C131.05627,121.116287 131.057919,121.115963 131.05627,121.116287 L131.056834,121.115914 L131.056834,121.115914 L131.056834,121.115914 L131.056834,121.115914 L131.056834,121.115914 Z M132.900763,128.442242 C132.905492,128.440621 132.909527,128.443864 132.9143,128.442242 C136.876319,128.586703 140.59893,128.470031 144.560992,128.614505 C145.188926,129.013442 144.874872,129.927239 144.466084,130.093941 C144.447775,130.100783 144.416888,130.110478 144.398292,130.114207 C144.383367,130.116801 144.359027,130.113883 144.344059,130.114207 C144.329091,130.11398 144.304794,130.116801 144.289826,130.114207 C143.001505,130.090018 142.25634,130.067459 140.968063,130.043276 C140.965894,129.995376 140.958735,129.943705 140.940946,129.901412 C140.635631,129.225135 138.424178,129.27037 137.903886,129.800081 C137.896684,129.807701 137.883278,129.822649 137.87677,129.830464 C137.868439,129.841002 137.856682,129.860134 137.849653,129.870996 C137.841279,129.88468 137.828741,129.907437 137.822536,129.921662 C137.814423,129.941734 137.812601,129.971507 137.809,129.992594 C137.805529,130.016848 137.792556,130.048084 137.795463,130.073659 C136.056269,130.229887 134.490968,130.030503 132.751774,129.982461 C132.241504,129.507712 132.301074,128.64865 132.900915,128.442226 C132.900915,128.442226 132.301074,128.64865 132.900915,128.442226 L132.900763,128.442242 L132.900763,128.442242 L132.900763,128.442242 L132.900763,128.442242 L132.900763,128.442242 Z" id="shape" fill="#FFFFFF"></path>
            </g>
        </g>
    </g>
</svg>