<?xml version="1.0" encoding="UTF-8" standalone="no"?>
<svg width="180px" height="180px" viewBox="0 0 180 180" version="1.1" xmlns="http://www.w3.org/2000/svg" xmlns:xlink="http://www.w3.org/1999/xlink">
    <!-- Generator: Sketch 3.8.3 (29802) - http://www.bohemiancoding.com/sketch -->
    <title>senegal</title>
    <desc>Created with Sketch.</desc>
    <defs></defs>
    <g id="Page-1" stroke="none" stroke-width="1" fill="none" fill-rule="evenodd">
        <g id="flags" transform="translate(-1800.000000, -5040.000000)">
            <g id="senegal" transform="translate(1800.000000, 5040.000000)">
                <path d="M120,174.877528 C154.952776,162.521396 179.994476,129.185191 179.994476,90 C179.994476,50.8148092 154.952776,17.4786037 120,5.12247245 L120,174.877531 L120,174.877528 L120,174.877528 Z" id="red" fill="#E94B35"></path>
                <path d="M60,5.12051622 L60,174.879484 C69.3825591,178.19561 79.479186,180 89.9972382,180 C100.517354,180 110.61588,178.194901 120,174.877528 L120,5.12246865 C110.61588,1.80509864 100.517354,0 89.9972382,0 C79.479186,0 69.3825591,1.80439039 59.9999996,5.12052001 L60,5.12051622 L60,5.12051622 Z" id="yello" fill="#F2C500"></path>
                <path d="M0.00276191524,89.2874328 L0.00276191524,90.7125672 C0.304247676,129.592015 25.2577277,162.60161 60.0027615,174.880456 L60.0027619,5.11954011 C25.2577277,17.3983904 0.304247676,50.4079855 0.00276191524,89.2874328 L0.00276191524,89.2874328 L0.00276191524,89.2874328 Z" id="green" fill="#1AAF5D"></path>
                <polygon id="star" fill="#1AAF5D" points="67.3217735 84.5920861 84.767891 84.5920861 90.1570088 68 95.5461177 84.5920861 112.992235 84.5920861 98.8800631 94.8450912 104.269181 111.437175 90.1570088 101.184161 76.0448367 111.437175 81.4339456 94.8450912 67.3217735 84.5920861 67.3217735 84.5920861 67.3217735 84.5920861"></polygon>
            </g>
        </g>
    </g>
</svg>