<?xml version="1.0" encoding="UTF-8" standalone="no"?>
<svg width="180px" height="180px" viewBox="0 0 180 180" version="1.1" xmlns="http://www.w3.org/2000/svg" xmlns:xlink="http://www.w3.org/1999/xlink">
    <!-- Generator: Sketch 3.8.3 (29802) - http://www.bohemiancoding.com/sketch -->
    <title>serbia</title>
    <desc>Created with Sketch.</desc>
    <defs></defs>
    <g id="Page-1" stroke="none" stroke-width="1" fill="none" fill-rule="evenodd">
        <g id="flags" transform="translate(-2070.000000, -5040.000000)">
            <g id="serbia" transform="translate(2070.000000, 5040.000000)">
                <path d="M174.873467,120 L5.12100983,120 C17.475726,154.955772 50.8118738,180 89.9972382,180 C129.182603,180 162.51875,154.955772 174.873463,120 L174.873467,120 L174.873467,120 Z" id="white" fill="#FFFFFF"></path>
                <path d="M5.12100983,120 L174.873467,120 C178.189905,110.616633 179.994476,100.519063 179.994476,90 C179.994476,79.480937 178.189905,69.3833673 174.873463,59.9999996 L5.12100983,60 C1.80457108,69.3833673 0,79.480937 0,90 C0,100.519063 1.80457108,110.616633 5.12101363,120 L5.12100983,120 L5.12100983,120 Z" id="ble" fill="#227FBB"></path>
                <path d="M5.12100983,60 L174.873467,60 C162.51875,25.0442275 129.182603,0 89.9972382,0 C50.8118738,0 17.475726,25.0442275 5.12101363,59.9999996 L5.12100983,60 L5.12100983,60 Z" id="red" fill="#E94B35"></path>
                <g id="emblem" transform="translate(30.000000, 25.500000)">
                    <path d="M0.00086704064,80.6692492 C0.00103837202,89.0218034 3.25789395,96.604104 8.51101802,102.09874 C13.7641421,107.593375 21.0144016,111 28.9998287,111 C36.9868115,110.99983 44.2365518,107.593375 49.4896759,102.099084 C54.7431462,96.60462 57.9998269,89.0219754 58,80.6702813 L58,34.0026922 C38.6672435,34.0008862 19.3327565,34.0053069 0,34.002522 L0.00086704064,80.6692492 L0.00086704064,80.6692492 Z" id="Shape" fill="#FFFFFF"></path>
                    <path d="M1.00083714,80.4570839 C1.00100257,88.5926823 4.14555278,95.9780343 9.21753464,101.329948 C14.2895165,106.681861 21.2897671,110 28.9998346,110 C36.7114042,109.999834 43.7111535,106.681861 48.7831354,101.330283 C53.8554515,95.9785369 56.9998329,88.5928498 57,80.4580892 L57,35.0026806 C38.3338903,35.0009215 19.6661097,35.0052273 1,35.0025148 L1.00083714,80.4570839 L1.00083714,80.4570839 Z" id="Shape" fill="#E94B35"></path>
                    <path d="M20.7522069,95.2087132 C20.2208594,95.8349397 19.8254085,97.2010865 20.0783119,97.5969102 C20.2681009,97.8947473 20.6502844,97.9327059 20.8521238,98.0222591 L21.0223057,98.062831 C20.3267871,100.193392 19.5723255,101.986673 18.5890416,103.460068 C18.1419593,104.130128 17.8144982,105.472299 18.1177677,105.900791 C18.3457561,106.223185 18.7492902,106.287946 18.9691598,106.394548 L19.4514569,106.536102 C19.6929602,106.565623 20.1005538,106.79503 20.461695,106.645779 C20.9416077,106.44755 21.0170186,105.010649 21.3620423,104.260281 C21.1818503,104.845471 20.6945126,106.391196 21.1616767,106.930204 C21.4196654,107.228115 21.827655,107.251808 22.0567985,107.335708 L22.5503333,107.428103 C22.793543,107.433231 23.1833312,107.558781 23.5282181,107.373794 C23.7498219,107.254902 23.8599791,106.879126 23.9377272,106.431339 C23.9205883,106.878151 23.9787963,107.294966 24.2024439,107.510254 C24.4859772,107.782892 24.8941649,107.76908 25.1298926,107.83127 L25.6296156,107.877666 C25.8723764,107.859566 26.2714716,107.948406 26.5985531,107.732423 C26.8460036,107.569048 26.9642381,107.062488 27.0271018,106.502531 C27.0172344,107.064362 27.0636299,107.578536 27.2977164,107.765859 C27.6040882,108.011258 28.009553,107.959537 28.2497362,108 L28.7515879,108 C28.9918041,107.959723 29.397269,108.011242 29.7036408,107.765859 C29.9382144,107.578046 29.9842647,107.061717 29.974081,106.498204 C30.0368557,107.059878 30.1550768,107.568627 30.4030516,107.732423 C30.7301331,107.948406 31.1292118,107.859566 31.3721013,107.877334 L31.8719117,107.83127 C32.1074414,107.76908 32.5158271,107.782892 32.7991625,107.510254 C33.0205097,107.297265 33.0798912,106.887029 33.0645462,106.445641 C33.1421852,106.887112 33.2523927,107.25617 33.47172,107.373794 C33.8166069,107.558781 34.2062136,107.433231 34.4496806,107.428677 L34.9432666,107.335708 C35.1724101,107.251808 35.5802017,107.228115 35.8383883,106.930204 C36.3054782,106.391054 35.8179567,104.844654 35.6378798,104.259817 C35.9828882,105.010057 36.0582313,106.447509 36.5382431,106.645779 C36.8993842,106.79503 37.3069778,106.565623 37.5487122,106.536406 L38.0308113,106.394548 C38.2506808,106.287946 38.654215,106.223185 38.8822034,105.900791 C39.1854728,105.472299 38.8581933,104.130128 38.4109294,103.460068 C37.4467249,102.015262 36.7025488,100.262864 36.0182201,98.1864727 C36.281886,98.2207007 36.5230601,98.140338 36.697311,98.1301489 L37.1478542,98.0222591 C37.3496936,97.9327059 37.731877,97.8947473 37.921666,97.5969102 C38.1745695,97.2010865 37.7793243,95.8349397 37.2477711,95.2087132 C36.3432229,94.1427642 35.5760722,92.8324338 34.86745,91.287871 C34.7681651,90.8815812 34.6214888,90.4763405 34.4566768,90.2074814 C34.389197,90.0973793 34.322776,89.9846698 34.2573508,89.869364 C33.3162865,87.5466719 32.4428208,84.7824787 31.4289066,81.6035565 C31.0019508,79.8715102 25.847789,80.7347493 24.9602391,83.9611419 C24.7894424,84.5342981 24.6255103,85.0966667 24.4675875,85.6483354 C23.8984683,87.4729852 23.2848106,88.9976473 22.5433232,90.2074814 C22.1594563,90.8336863 21.8739724,92.1997333 22.0565153,92.5956985 C22.1244393,92.7429939 22.2263509,92.8267368 22.3296207,92.8845858 C21.8457681,93.7561378 21.3266985,94.5317136 20.7522069,95.2087132 Z" id="Combined-Shape" fill="#FFFFFF"></path>
                    <g id="left" transform="translate(2.000000, 36.000000)">
                        <path d="M4.09587411,57.7690403 C4.55465931,58.2628724 5.32921201,58.1418081 5.35736498,57.5498336 C5.38939722,56.8817646 7.62573224,56.0124732 7.96104321,55.499906 C7.55098652,56.5139173 6.60543588,57.4599274 6.13575372,58.452989 C5.66330134,58.9456223 5.3643219,59.068863 5.86493469,59.9545606 L5.86493469,59.9545606 C5.75910316,60.5725587 6.00912099,61.2685746 6.72207079,61.9036623 C6.99242555,62.1445834 7.11572391,61.8906285 7.00650927,61.6136255 C6.8686305,61.2640121 6.95617057,60.8431964 7.1843071,60.2918211 C7.18566376,60.2931482 7.18702415,60.2944813 7.18838833,60.2958203 C8.17753927,60.1835759 8.33751123,59.8787038 8.17734183,59.0657273 C8.00790942,58.2070472 8.70008473,56.6536164 8.93031077,56.2148336 C9.14276762,55.809949 9.19467665,55.3894375 9.40116109,55.135875 C9.75988461,54.695318 11.4694606,53.8135898 11.9072734,54.0557222 C12.7129082,54.5012948 13.3279027,54.231713 13.4294009,53.4215344 C13.4054491,53.4022784 13.3853658,53.3749995 13.368203,53.3413043 C13.9233463,53.0520244 14.4182972,53.0278345 14.7133804,53.2559058 C14.9111777,53.4086404 15.1066551,53.2990028 14.9325994,53.0450444 C14.3503385,52.1948687 13.6878186,51.9912454 13.1168818,52.2516133 L13.1168818,52.2516133 C13.0522985,52.1191277 12.9568261,52.0265372 12.8070848,52.0134546 C12.3512889,51.9735683 12.0811316,52.1192862 11.6624042,52.4744665 C11.0024438,53.0338974 10.6637928,53.3317306 10.4465153,53.2695982 C9.93206465,53.1226759 11.378558,52.3858569 12.6939873,50.5940811 C14.5171379,48.1113418 14.6421803,46.849756 14.5576121,46.0001689 L14.557775,46 L14.5577355,46.0000734 C14.0309288,46.023524 13.3846736,46.3362062 11.4963364,48.0363529 C10.6721756,49.7832951 9.84149943,51.5399616 8.69621007,53.0547175 C8.30525524,53.3226957 7.99881917,53.5095025 7.68891154,53.615752 C7.36569347,53.7263929 4.98487036,53.6448154 4.92679147,53.5413893 C4.46599203,53.1073934 3.85376276,53.1357551 3.5477222,53.3962853 L3.5477222,53.3962853 C2.99084306,53.1085076 2.41275871,53.3327488 2.03155063,54.2681036 C1.92638342,54.5258629 2.1062289,54.6108472 2.2469032,54.4466875 C2.48118469,54.1734557 2.81867185,54.1369374 3.37995722,54.4400077 C3.48227774,54.8320725 3.92654133,55.3025875 4.3038995,54.984152 C4.78072224,54.5816729 6.44031415,54.9617045 6.99329756,54.7534499 C6.78411484,55.2705721 5.28482396,55.6073191 4.23660696,55.6862897 C3.59845994,55.7144645 3.41370627,56.1642192 3.47826097,56.6863227 C3.2585265,57.0148934 3.27044964,57.5743537 3.64874331,58.4861298 C3.74059186,58.7845856 3.9030729,58.6889644 3.89014089,58.4322117 C3.87735861,58.1807098 3.93666153,57.9615541 4.09587411,57.7690403 L4.09587411,57.7690403 L4.09587411,57.7690403 Z" id="Shape" fill="#EDB92E"></path>
                        <path d="M15.1875703,49.217693 C14.680215,49.7563876 14.1053516,50.0597977 13.5839644,50.1981107 C13.3794998,49.209675 13.500251,48.0651839 13.942172,46.8499067 C13.9437278,46.845628 13.9452986,46.8413243 13.9468845,46.8369957 C13.9274561,46.8642578 13.9078778,46.8917 13.8881481,46.9193217 C13.0011813,48.1611926 11.6245489,48.496277 10,48.1801215 C11.1208379,47.1697472 12.0049266,46.0237993 12.9395064,43.8710764 C13.6891439,42.1440818 15.4642946,41.7520154 16.1847557,42.1338152 L16.1327391,43.6764359 L17.1188561,44.1092496 L17.9998849,44.2495168 L18,44.2496025 L17.9998355,44.2496025 C17.7774277,45.6809233 17.7388439,47.1456661 17.4228877,48.4743213 C17.1081979,49.797406 16.3634286,50.5968444 15.6489541,51 C15.4016934,50.4780353 15.2469067,49.8786372 15.1875703,49.217693 L15.1875703,49.217693 L15.1875703,49.217693 Z" id="Shape" fill="#FFFFFF"></path>
                        <path d="M52.8690112,28.9989618 C53.2879662,32.3406149 52.6439903,36.5381318 51.758621,42.0730702 C50.9983301,46.8258492 51.3980348,50.5874193 51.979252,53 C50.5696693,52.8037748 49.4870781,51.9441055 48.8103913,50.4248339 C48.6412627,51.2180979 48.3893831,52.0175961 48.016381,52.8212734 C46.7744774,52.0661639 46.1165962,50.4013718 45.808398,48.4531475 C45.6132665,48.9520735 45.431988,49.3441698 45.2792883,49.5720664 C44.7346379,49.1424082 44.3637489,48.3603679 44.1186295,47.4059426 C44.091474,47.4601322 44.0649252,47.5090934 44.0390559,47.5524658 C42.6090462,46.930959 41.9768454,44.3928854 41.8638952,41.3364333 C41.7120305,41.7312686 41.5229695,42.087884 41.2984838,42.4015837 C40.6732217,41.8757373 40.0864619,40.9584642 40.0078981,39.6125486 C39.9872282,39.2578103 39.9547634,38.337312 39.918653,37.1465325 C39.8285771,38.252372 39.529269,39.1983217 39.0399995,39.9281886 C39.5109315,41.9613367 40.1793652,43.0901654 41,44.2435684 C40.7195733,44.2373317 40.4500744,44.2132556 40.1929832,44.1702836 C41.0793541,46.1320506 41.9322505,47.2176035 43,48.1801215 C41.3754511,48.496277 39.9988187,48.1611926 39.1118519,46.9193217 C39.499749,48.0651839 39.6205002,49.209675 39.4160356,50.1981107 C38.8946484,50.0597977 38.319785,49.7563876 37.8124297,49.217693 C37.7530933,49.8786372 37.5983066,50.4780353 37.3510459,51 C36.732898,50.6511985 36.0920735,50.0057661 35.7267176,48.9812201 C35.5031075,49.3341372 35.2238871,49.6740879 34.8961326,50 C34.7927994,48.4518348 34.4503149,47.0211974 33.3843538,44.9440715 C32.5291598,43.2776903 20.4708402,43.2776903 19.6156462,44.9440715 C18.5496851,47.0211974 18.2072006,48.4518348 18.1038674,50 C16.9217906,48.824568 16.3710219,47.4665293 16.7835218,45.9761816 C16.9354918,45.4269727 17.0863267,44.8553819 17.2240269,44.3050545 C16.6326947,45.6874557 15.6770508,46.2179652 14.9227552,46.4747193 C14.6708214,45.4959527 14.7271894,44.3416172 15.091843,43.0970452 C15.1335945,42.9545827 15.1894055,42.7848217 15.2585809,42.5875077 C14.5957831,43.7074008 13.4424604,44.211488 12,44.2435684 C12.8206349,43.0901654 13.4890685,41.9613367 13.9668902,39.9227386 C13.4707293,39.1983193 13.1714209,38.2523655 13.0813461,37.1465213 C13.0452368,38.3373069 13.0127719,39.2578095 12.9921019,39.6125486 C12.9135381,40.9584642 12.3267783,41.8757373 11.7015162,42.4015837 C11.4770305,42.087884 11.2879695,41.7312686 11.1361048,41.3364333 C11.0231546,44.3928854 10.3909538,46.930959 8.96094413,47.5524658 C8.93507484,47.5090934 8.90852597,47.4601322 8.88137047,47.4059426 C8.63625108,48.3603679 8.26536213,49.1424082 7.72071171,49.5720664 C7.56801197,49.3441698 7.38673347,48.9520735 7.19160204,48.4531475 C6.88340384,50.4013718 6.22552258,52.0661639 4.98361904,52.8212734 C4.61061693,52.0175961 4.35873729,51.2180979 4.1896087,50.4248339 C3.51292192,51.9441055 2.43033075,52.8037748 1.02074798,53 C1.60196516,50.5874193 2.00166986,46.8258492 1.24137898,42.0730702 C0.356009676,36.5381318 -0.287966221,32.3406149 0.130988811,28.9989618 C0.130988811,28.9989618 0.233015113,28.9542998 0.420714002,28.8736536 C0.173933803,27.9074279 0.0544187243,26.7099191 0.026755931,25.2805865 C-0.0148634198,23.1255604 -0.0347075136,20.7268455 0.1759046,18.0815088 C0.118267053,18.1033115 0.0596391906,18.1251107 2.27373675e-13,18.146911 C0.2399155,16.6038436 0.44541763,14.7183249 0.79984541,12.4657485 C1.75549581,6.3954677 4.73069329,1.3499953 8.32005985,0.8928279 C11.9095342,0.4359999 9.2000125,3.0812582 8.4400176,5.4378597 C7.90674312,7.6261203 9.4155601,10.3395975 12.4399906,13.8543904 C13.5075341,15.0947159 14.7311811,17.2318634 15.9867549,18.14182 C16.1790453,18.2811933 17.8192995,17.7572156 18.0106119,17.4898558 C17.7473563,17.434025 17.4786636,17.356069 17.2053127,17.2577763 C18.4702855,16.4454301 19.519462,15.4632159 20.7666646,13.5037087 C22.0442689,11.4966859 20.2065357,7.9119773 19.453155,6.0105069 C17.8788598,4.8154909 16.3950405,3.061149 15.9239621,0.7478206 C15.7373077,-0.4969 19.088632,-0.0469108 21.3937967,1.0678209 C24.2113823,2.4305786 24.5947862,2.0529539 25.5991558,2.2834383 C25.9565176,4.0516801 25.208773,4.2014135 24.4896067,4.1144838 C26.0420869,6.6647111 26.6902715,9.2028898 26.9999917,12.8534414 C27.3096457,9.2030595 27.9574324,6.6647111 29.5098794,4.1144838 C28.7909121,4.2015391 28.043184,4.0516954 28.4003304,2.2834383 C29.4047165,2.0527503 29.7883028,2.4303801 32.6056895,1.0678209 C34.9110199,-0.0469108 38.2621618,-0.4969 38.075524,0.7478206 C37.6045782,3.0613187 36.12056,4.8156266 34.5463311,6.0105069 C33.7929504,7.9119773 31.9552836,11.4965162 33.2328216,13.5037087 C34.480223,15.4632159 35.5292669,16.4453114 36.7941734,17.2577763 C36.5210049,17.3560724 36.2521298,17.4340284 35.9895539,17.4898558 C36.180684,17.7572156 37.821137,18.2811865 38.0134109,18.14182 C39.268935,17.2318973 40.4926482,15.0947328 41.5600094,13.8543904 C44.5845725,10.3395975 46.0932735,7.62629 45.5599824,5.4378597 C44.7999958,3.0812582 42.0907394,0.4360508 45.6799402,0.8928279 C49.2693067,1.3499953 52.2447694,6.3954677 53.2001546,12.4657485 C53.5545824,14.7183249 53.7600845,16.6039115 54,18.146911 C53.5382433,17.9781171 53.1371063,17.8093911 52.7868428,17.6385505 C53.0368442,20.4596989 53.0171745,23.0058946 52.9732441,25.2805865 C52.9495088,26.5069831 52.858152,27.5627113 52.6768043,28.4481125 C52.8020241,28.7956537 52.8690112,28.9989618 52.8690112,28.9989618 Z" id="Combined-Shape" fill="#FFFFFF"></path>
                    </g>
                    <g id="right" transform="translate(46.500000, 90.000000) scale(-1, 1) translate(-46.500000, -90.000000) translate(40.000000, 82.000000)" fill="#EDB92E">
                        <path d="M2.09587411,11.7690403 C2.55465931,12.2628724 3.32921201,12.1418081 3.35736498,11.5498336 C3.38939722,10.8817646 5.62573224,10.0124732 5.96104321,9.499906 C5.55098652,10.5139173 4.60543588,11.4599274 4.13575372,12.452989 C3.66330134,12.9456223 3.3643219,13.068863 3.86493469,13.9545606 L3.86493469,13.9545606 C3.75910316,14.5725587 4.00912099,15.2685746 4.72207079,15.9036623 C4.99242555,16.1445834 5.11572391,15.8906285 5.00650927,15.6136255 C4.8686305,15.2640121 4.95617057,14.8431964 5.1843071,14.2918211 C5.18566376,14.2931482 5.18702415,14.2944813 5.18838833,14.2958203 C6.17753927,14.1835759 6.33751123,13.8787038 6.17734183,13.0657273 C6.00790942,12.2070472 6.70008473,10.6536164 6.93031077,10.2148336 C7.14276762,9.809949 7.19467665,9.3894375 7.40116109,9.135875 C7.75988461,8.695318 9.4694606,7.8135898 9.9072734,8.0557222 C10.7129082,8.5012948 11.3279027,8.231713 11.4294009,7.4215344 C11.4054491,7.4022784 11.3853658,7.3749995 11.368203,7.3413043 C11.9233463,7.0520244 12.4182972,7.0278345 12.7133804,7.2559058 C12.9111777,7.4086404 13.1066551,7.2990028 12.9325994,7.0450444 C12.3503385,6.1948687 11.6878186,5.9912454 11.1168818,6.2516133 L11.1168818,6.2516133 C11.0522985,6.1191277 10.9568261,6.0265372 10.8070848,6.0134546 C10.3512889,5.9735683 10.0811316,6.1192862 9.6624042,6.4744665 C9.0024438,7.0338974 8.6637928,7.3317306 8.4465153,7.2695982 C7.93206465,7.1226759 9.378558,6.3858569 10.6939873,4.5940811 C12.5171379,2.1113418 12.6421803,0.849756 12.5576121,0.0001689 L12.557775,0 L12.5577355,7.34e-05 C12.0309288,0.023524 11.3846736,0.3362062 9.4963364,2.0363529 C8.6721756,3.7832951 7.84149943,5.5399616 6.69621007,7.0547175 C6.30525524,7.3226957 5.99881917,7.5095025 5.68891154,7.615752 C5.36569347,7.7263929 2.98487036,7.6448154 2.92679147,7.5413893 C2.46599203,7.1073934 1.85376276,7.1357551 1.5477222,7.3962853 L1.5477222,7.3962853 C0.99084306,7.1085076 0.41275871,7.3327488 0.03155063,8.2681036 C-0.07361658,8.5258629 0.1062289,8.6108472 0.2469032,8.4466875 C0.48118469,8.1734557 0.81867185,8.1369374 1.37995722,8.4400077 C1.48227774,8.8320725 1.92654133,9.3025875 2.3038995,8.984152 C2.78072224,8.5816729 4.44031415,8.9617045 4.99329756,8.7534499 C4.78411484,9.2705721 3.28482396,9.6073191 2.23660696,9.6862897 C1.59845994,9.7144645 1.41370627,10.1642192 1.47826097,10.6863227 C1.2585265,11.0148934 1.27044964,11.5743537 1.64874331,12.4861298 C1.74059186,12.7845856 1.9030729,12.6889644 1.89014089,12.4322117 C1.87735861,12.1807098 1.93666153,11.9615541 2.09587411,11.7690403 L2.09587411,11.7690403 L2.09587411,11.7690403 Z" id="Shape"></path>
                    </g>
                    <path d="M31.4223575,8.79359756 C31.2839912,8.63474353 31.0443815,8.46718872 30.6926429,8.41381282 C30.082648,8.32124685 28.6331978,6 28.6331978,6 L26.5234339,8.27987803 C23.9249273,8.31586507 14.8412601,8.68522473 12.1283478,10.9314618 C9.07552552,11.5247856 6.20925697,12.6065736 4.54061178,13.8159021 C3.33315096,14.6909682 4.80144236,16.4589547 6.59988887,19.1479028 C7.71186497,19.8173343 8.23352614,20.1288084 8.65916597,19.4595588 L8.65933366,19.4595588 L8.65918945,19.4595307 C8.34110828,18.8798056 8.59773646,18.0705325 8.70162598,17.887468 C8.7542717,17.7947435 8.59833513,17.5911197 8.53067915,17.5113622 C6.36625819,14.9533844 6.32919791,14.7264253 7.82125149,13.7679357 C8.59907201,13.2683319 9.94236131,12.7767045 11.357593,12.3414494 C11.3581214,12.5386117 11.3968397,12.7452444 11.4774913,12.961797 C11.9871288,14.3291488 12.5808479,15.7975269 13.1723702,17.3855413 C13.1964007,17.4499966 13.4376128,17.5487769 13.5042694,17.5871458 C13.8321606,17.7749539 14.2377107,17.9721789 14.4244711,18.3864842 C15.550198,18.7989426 16.8405666,18.6777811 17.9249068,18.178653 C17.6798897,17.7286666 18.0059698,17.2164273 18.30864,16.9138524 C18.5178545,16.7046778 18.5248641,16.7262124 18.3084723,16.4724435 C16.5189471,14.3745407 15.3329175,12.5370811 16.0305227,11.42743 C16.8439938,10.1332423 20.5216369,9.43431685 25.7162227,9.47086066 C25.8116942,11.1823869 26.137255,12.8528766 25.5857865,14.9595691 C25.3483827,15.8669439 24.9658401,16.3772941 25.3385726,16.552201 C26.2893952,16.9981435 26.7251805,17.4060544 26.5742563,17.6254995 C26.8553107,18.0758217 27.5563201,17.988816 28.633198,17.8444268 C29.7101429,17.988816 30.4114206,18.0758077 30.6926428,17.6254995 C30.5415089,17.4060544 30.9774871,16.9981435 31.9281252,16.552201 C32.3010421,16.3773501 31.9185163,15.8669579 31.6809113,14.9595691 C31.1840159,13.0605724 31.3995084,11.5161616 31.5166506,9.97660795 C36.8188487,9.92012678 40.5823078,10.6203031 41.4063894,11.9313716 C42.1039946,13.0410227 40.9179651,14.8784823 39.1284398,16.9763851 C38.9120481,17.2301539 38.9190577,17.2086194 39.1282722,17.4177941 C39.4309423,17.7203688 39.7570224,18.2326082 39.5120054,18.6825946 C40.5963456,19.1817227 41.8867141,19.3028842 43.012441,18.8904258 C43.1992014,18.4761205 43.6047515,18.2788955 43.9326428,18.0910874 C43.9992993,18.0527185 44.2405114,17.9539382 44.2645419,17.8894829 C44.8560642,16.3014685 45.4497833,14.8330904 45.9594208,13.4657386 C46.0776973,13.1481619 46.1057897,12.8519193 46.0555047,12.5755933 C47.3914168,12.9942088 48.6400399,13.4614658 49.3786997,13.9359162 C50.8707533,14.8944058 50.833693,15.1213649 48.669272,17.6793428 C48.6016161,17.7591003 48.4456795,17.9627241 48.4983252,18.0554485 C48.6022147,18.238513 48.8588429,19.0477861 48.5407852,19.6275393 C48.9664251,20.2967889 49.4880862,19.9853148 50.6000623,19.3158834 C52.3985088,16.6269352 53.8668002,14.8589487 52.6593394,13.9838827 C50.9278821,12.729032 47.9069416,11.6115045 44.7261166,11.0345354 C41.6803504,9.25986443 34.3263635,8.8633937 31.4223575,8.79359756 L31.4223575,8.79359756 L31.4223575,8.79359756 Z" id="Shape" fill="#F2C500"></path>
                    <path d="M34.317151,12.5677484 C34.3386188,12.5587424 34.3602362,12.5496614 34.3819949,12.5405093 C34.5661787,12.7022224 34.8217538,12.8023846 35.1042557,12.8023846 C35.6655142,12.8023846 36.1202903,12.4070297 36.1202903,11.9191088 C36.1202903,11.8796269 36.1173133,11.8407517 36.111544,11.8026436 L36.111544,11.8026436 C36.1869591,11.7704672 36.2617795,11.7385977 36.3357434,11.7071677 L36.3357434,11.7071677 C36.5215156,11.8835334 36.7885648,11.9941099 37.0852849,11.9941099 C37.646742,11.9941099 38.1015182,11.598755 38.1015182,11.1108341 C38.1015182,11.0772596 38.0993653,11.0441239 38.0951732,11.0115255 C38.165325,10.9928036 38.2080711,10.9879977 38.2180442,10.9998244 C38.4029596,11.2191091 38.7014402,11.3614849 39.0381792,11.3614849 C39.4705111,11.3614849 39.8397798,11.1268007 39.9866164,10.7959782 L39.9866164,10.7959782 L40.0046565,10.7959782 C40.0017039,10.8239324 40.0001948,10.8522504 40.0001948,10.8808756 C40.0001948,11.204012 40.1926268,11.4880576 40.483305,11.6511397 C40.0823049,11.7806947 39.7966304,12.1163834 39.7966304,12.5101062 C39.7966304,13.0160633 40.2684034,13.4261842 40.850399,13.4261842 C40.862758,13.4261842 40.8871556,13.4533423 40.9215254,13.5031861 L40.9215254,13.5031861 C40.6319659,13.6664619 40.4404236,13.9499844 40.4404236,14.2724879 C40.4404236,14.7724924 40.9011608,15.1789024 41.4736965,15.1883962 C41.3095838,15.3499163 41.2099963,15.5621502 41.2099963,15.794615 C41.2099963,16.3005721 41.6817693,16.710693 42.2637649,16.710693 L42.2639054,16.710693 C42.1131714,16.8691618 42.022599,17.0724463 42.022599,17.2940647 C42.022599,17.8001932 42.4943719,18.210314 43.0763675,18.210314 C43.6583631,18.210314 44.130136,17.8001932 44.130136,17.2940647 C44.130136,16.7881075 43.6583631,16.3779866 43.0763675,16.3779866 C43.226961,16.2195178 43.3175334,16.0162333 43.3175334,15.794615 C43.3175334,15.2946105 42.8567961,14.8882005 42.2842605,14.8787067 L42.2842605,14.8787067 C42.4483731,14.7171866 42.5479606,14.5049527 42.5479606,14.2724879 C42.5479606,13.7958116 42.1294961,13.4042944 41.594602,13.3603429 C41.56777,13.2537741 41.5570144,13.1898908 41.5670407,13.1818027 C41.7744296,13.0145047 41.9041675,12.7754885 41.9041675,12.5101062 C41.9041675,12.186958 41.7118024,11.9029033 41.4211131,11.7398241 L41.4211131,11.7398241 C41.8220839,11.610256 42.1077319,11.2745802 42.1077319,10.8808756 C42.1077319,10.7285341 42.0649905,10.5848905 41.9893672,10.4585107 C42.0904991,10.4865704 42.1982669,10.5017148 42.3101047,10.5017148 C42.8921169,10.5017148 43.3638733,10.0915939 43.3638733,9.58546533 C43.3638733,9.57500505 43.3636717,9.56458574 43.3632715,9.55421014 L43.3632715,9.55421014 C43.5401521,9.68390785 43.7686432,9.76207194 44.0180598,9.76207194 C44.4989254,9.76207194 44.9017741,9.47173867 45.0073138,9.08171184 C45.2979213,9.17932466 45.655914,9.21741472 45.9328892,9.21741472 C46.322926,9.21741472 46.7752986,8.88801594 47.0128621,8.52382448 L47.0128621,8.52382448 C47.1956638,8.75146185 47.4991843,8.90038821 47.8427536,8.90038821 C48.1992964,8.90038821 48.5127894,8.74000243 48.692972,8.49770445 C49.0439902,8.67588519 49.5694858,8.75901154 49.9148076,8.75901154 C50.2748364,8.75901154 50.5909696,8.59547404 50.7702728,8.34919707 L50.7702728,8.34919707 C51.100349,8.59547402 51.6284878,8.75901154 51.9885166,8.75901154 C52.5471933,8.75901154 53,8.36519892 53,7.87950576 C53,7.3938126 52.5472099,7 51.9885166,7 C51.6284974,7 51.1003538,7.16353836 50.7702743,7.40981639 C50.5909713,7.16353836 50.2748374,7 49.9148076,7 C49.5623756,7 49.0222498,7.22684629 48.6714878,7.51626318 L48.6714878,7.51626318 C48.4884924,7.2895399 48.1855162,7.14137669 47.8427536,7.14137669 C47.4365971,7.14137669 47.0863955,7.34942607 46.9254547,7.64970902 C46.6748661,7.50132006 46.2793,7.45840318 45.9328892,7.45840318 C45.5191139,7.45840318 44.9244981,7.80533967 44.6438871,8.18262761 L44.6438871,8.18262761 C44.4713735,8.06528417 44.254117,7.99534896 44.0180598,7.99534896 C43.4568012,7.99534896 43.0018265,8.39070386 43.0018265,8.87862477 C43.0018265,8.88391986 43.0018801,8.88920407 43.0019869,8.89447701 C42.816877,8.75428382 42.5748992,8.66938728 42.3101047,8.66938728 C41.9349051,8.66938728 41.6055263,8.83982771 41.4188182,9.09650813 C41.2988146,9.05317484 41.1671917,9.0292552 41.0291384,9.0292552 C40.4678799,9.0292552 40.0131038,9.42478146 40.0131038,9.912531 C40.0131038,9.96243409 39.991688,10.0280482 39.9574791,10.1010254 C39.7947535,9.80175132 39.4442891,9.59476194 39.0381792,9.59476194 C38.7158299,9.59476194 38.4285389,9.72517318 38.2423659,9.9286327 C38.2128873,9.96084855 37.9550301,10.1124785 37.5677223,10.3330538 C37.424193,10.2656458 37.2598816,10.2273869 37.0852849,10.2273869 C36.5240264,10.2273869 36.0692503,10.6227418 36.0692503,11.1108341 C36.0692503,11.1327967 36.0701721,11.1545718 36.071984,11.1761317 C35.9944473,11.219778 35.9163549,11.2637657 35.8379855,11.3079528 C35.6530312,11.1401261 35.3926588,11.0356616 35.1042557,11.0356616 C34.5429972,11.0356616 34.0880224,11.4311879 34.0880224,11.9191088 C34.0880224,12.0410131 34.116423,12.1571391 34.1677857,12.2627648 C34.1533563,12.2712127 34.139009,12.2796214 34.1247466,12.2879895 C33.9385532,12.1049614 33.6663836,11.9895972 33.3632007,11.9895972 C32.8019422,11.9895972 32.3469675,12.3849521 32.3469675,12.8730444 C32.3469675,12.9087152 32.2607215,13.1479577 32.1664865,13.4358235 C32.1173932,13.4294926 32.0671548,13.4262128 32.0160346,13.4262128 C31.4547761,13.4262128 31,13.8215677 31,14.30966 C31,14.590498 31.1507302,14.8406696 31.3856622,15.0024369 C31.4157614,15.0231624 31.5020214,15.1684305 31.6252665,15.3943367 C31.4298575,15.5498469 31.3072995,15.7734252 31.3072995,16.0219315 C31.3072995,16.4916448 31.745476,16.8725765 32.2857989,16.8725765 C32.3230473,16.8725765 32.3598088,16.8707675 32.3959735,16.8672451 C32.4187794,16.9112793 32.4416865,16.9554887 32.464663,16.9997995 C32.292307,17.1531804 32.186102,17.3629966 32.186102,17.594383 C32.186102,18.0640964 32.6240799,18.445028 33.1646013,18.445028 C33.1860618,18.445028 33.2073611,18.4444269 33.2284782,18.4432435 C33.262958,18.5059574 33.296588,18.5665621 33.3292124,18.6247009 L33.3292124,18.6247009 C33.1987607,18.7692223 33.1209756,18.951378 33.1209756,19.149355 C33.1209756,19.6190684 33.5591522,20 34.0996736,20 C34.6399964,20 35.0781729,19.6192541 35.0781729,19.149355 C35.0781729,18.6794704 34.6399964,18.2987102 34.0996736,18.2987102 C33.9181501,18.2987102 33.7481693,18.3416531 33.602451,18.416493 C33.5967156,18.3987175 33.5909105,18.3807807 33.5850388,18.3626907 C33.9150139,18.2259484 34.1431007,17.9332727 34.1431007,17.594383 C34.1431007,17.1244983 33.7049241,16.7435667 33.1646013,16.7435667 C33.1232102,16.7435667 33.0824204,16.7458004 33.0423824,16.7501368 C33.0262856,16.7025551 33.0103233,16.6552878 32.9945381,16.6084335 C33.1617014,16.455812 33.2642982,16.2492704 33.2642982,16.0219315 C33.2642982,15.6354819 32.9680503,15.3093161 32.5621548,15.2056692 C32.5444647,15.1184652 32.5417179,15.0658983 32.557839,15.0570504 C32.8429194,14.9005883 33.0322679,14.6243146 33.0322679,14.30966 C33.0322679,14.0860386 32.9367664,13.8818833 32.7792967,13.7262964 C32.8306114,13.6740425 32.8665784,13.6439157 32.878431,13.6495181 C33.0225297,13.7176296 33.187684,13.7563202 33.3632007,13.7563202 C33.9244592,13.7563202 34.379434,13.3609653 34.379434,12.8730444 C34.379434,12.7657232 34.3574374,12.6628855 34.317151,12.5677484 L34.317151,12.5677484 L34.317151,12.5677484 Z" id="Shape" fill="#FFFFFF" transform="translate(42.000000, 13.500000) scale(-1, 1) translate(-42.000000, -13.500000) "></path>
                    <path d="M7.381995,12.5405093 C7.56617864,12.7022224 7.82175378,12.8023846 8.10425567,12.8023846 C8.66551419,12.8023846 9.12029032,12.4070297 9.12029032,11.9191088 C9.12029032,11.8796269 9.11731331,11.8407517 9.11154395,11.8026435 C9.1869591,11.7704672 9.26177951,11.7385977 9.33574333,11.7071677 C9.52151558,11.8835334 9.78856481,11.9941099 10.0852849,11.9941099 C10.646742,11.9941099 11.1015182,11.598755 11.1015182,11.110834 C11.1015182,11.0772595 11.0993654,11.0441239 11.0951733,11.0115255 C11.165325,10.9928036 11.208071,10.9879977 11.2180442,10.9998244 C11.4029597,11.2191091 11.7014402,11.3614849 12.0381792,11.3614849 C12.4705111,11.3614849 12.8397798,11.1268007 12.9866165,10.7959782 C13.0017038,10.8239324 13.0001948,10.8522504 13.0001948,10.8808756 C13.0001948,11.2040119 13.1926268,11.4880575 13.483305,11.6511396 C13.082305,11.7806946 12.7966304,12.1163833 12.7966304,12.5101062 C12.7966304,13.0160633 13.2684034,13.4261842 13.850399,13.4261842 C13.862758,13.4261842 13.8871555,13.4533423 13.9215254,13.5031861 C13.631966,13.6664619 13.4404236,13.9499844 13.4404236,14.2724879 C13.4404236,14.7724924 13.9011608,15.1789024 14.4736965,15.1883962 C14.3095838,15.3499163 14.2099963,15.5621501 14.2099963,15.7946149 C14.2099963,16.3005721 14.6817693,16.710693 15.2637649,16.710693 C15.1131713,16.8691618 15.022599,17.0724463 15.022599,17.2940646 C15.022599,17.8001932 15.4943719,18.210314 16.0763675,18.210314 C16.6583631,18.210314 17.130136,17.8001932 17.130136,17.2940646 C17.130136,16.7881074 16.6583631,16.3779865 16.0763675,16.3779865 C16.226961,16.2195178 16.3175334,16.0162332 16.3175334,15.7946149 C16.3175334,15.2946105 15.8567962,14.8882005 15.2842604,14.8787067 C15.4483732,14.7171865 15.5479606,14.5049527 15.5479606,14.2724879 C15.5479606,13.7958116 15.1294962,13.4042943 14.594602,13.3603428 C14.5677701,13.2537741 14.5570143,13.1898908 14.5670407,13.1818026 C14.7744297,13.0145047 14.9041675,12.7754885 14.9041675,12.5101062 C14.9041675,12.1869579 14.7118024,11.9029033 14.4211131,11.7398241 C14.8220838,11.610256 15.1077319,11.2745802 15.1077319,10.8808756 C15.1077319,10.7285341 15.0649906,10.5848905 14.9893671,10.4585107 C15.0904992,10.4865704 15.1982669,10.5017147 15.3101047,10.5017147 C15.8921169,10.5017147 16.3638733,10.0915939 16.3638733,9.58546533 C16.540152,9.68390785 16.7686432,9.76207194 17.0180598,9.76207194 C17.4989254,9.76207194 17.9017741,9.47173865 18.0073138,9.08171184 C18.2979213,9.17932464 18.655914,9.2174147 18.9328892,9.2174147 C19.322926,9.2174147 19.7752986,8.88801592 20.0128621,8.52382447 C20.1956638,8.75146184 20.4991843,8.90038821 20.8427536,8.90038821 C21.1992964,8.90038821 21.5127894,8.74000241 21.692972,8.49770444 C22.0439902,8.67588519 22.5694858,8.75901152 22.9148076,8.75901152 C23.2748364,8.75901152 23.5909696,8.59547402 23.7702728,8.34919707 C24.100349,8.59547402 24.6284878,8.75901152 24.9885166,8.75901152 C25.5471933,8.75901152 26,8.36519892 26,7.87950576 C26,7.3938126 25.5472099,7 24.9885166,7 C24.6284974,7 24.1003538,7.16353836 23.7702743,7.40981639 C23.5909713,7.16353836 23.2748374,7 22.9148076,7 C22.5623756,7 22.0222498,7.22684629 21.6714878,7.51626318 C21.4884924,7.28953988 21.1855162,7.14137667 20.8427536,7.14137667 C20.4365971,7.14137667 20.0863955,7.34942605 19.9254547,7.64970902 C19.6748661,7.50132004 19.2793,7.45840318 18.9328892,7.45840318 C18.5191139,7.45840318 17.9244981,7.80533967 17.6438871,8.18262759 C17.4713735,8.06528417 17.254117,7.99534895 17.0180598,7.99534895 C16.4568012,7.99534895 16.0018265,8.39070385 16.0018265,8.87862477 C15.816877,8.75428382 15.5748991,8.66938728 15.3101047,8.66938728 C14.9349051,8.66938728 14.6055262,8.83982769 14.4188181,9.09650813 C14.2988147,9.05317484 14.1671917,9.0292552 14.0291384,9.0292552 C13.4678799,9.0292552 13.0131038,9.42478145 13.0131038,9.912531 C13.0131038,9.96243408 12.9916881,10.0280482 12.9574791,10.1010254 C12.7947535,9.80175132 12.444289,9.59476192 12.0381792,9.59476192 C11.7158298,9.59476192 11.428539,9.72517316 11.2423659,9.9286327 C11.2128872,9.96084853 10.9550301,10.1124785 10.5677223,10.3330538 C10.424193,10.2656458 10.2598815,10.2273869 10.0852849,10.2273869 C9.52402639,10.2273869 9.06925026,10.6227418 9.06925026,11.110834 C9.06925026,11.1327967 9.07017211,11.1545718 9.07198399,11.1761317 C8.99444736,11.219778 8.91635489,11.2637657 8.83798549,11.3079528 C8.65303114,11.1401261 8.39265884,11.0356616 8.10425567,11.0356616 C7.54299715,11.0356616 7.08802242,11.4311879 7.08802242,11.9191088 C7.08802242,12.041013 7.11642292,12.1571391 7.16778579,12.2627647 C6.93855314,12.1049614 6.66638369,11.9895972 6.36320073,11.9895972 C5.80194221,11.9895972 5.34696748,12.3849521 5.34696748,12.8730444 C5.34696748,12.9087152 5.26072151,13.1479577 5.16648644,13.4358235 C5.11739319,13.4294926 5.06715477,13.4262128 5.01603465,13.4262128 C4.45477613,13.4262128 4,13.8215677 4,14.30966 C4,14.590498 4.15073021,14.8406695 4.38566217,15.0024368 C4.4157615,15.0231624 4.50202146,15.1684304 4.6252665,15.3943366 C4.42985749,15.5498469 4.30729951,15.7734251 4.30729951,16.0219315 C4.30729951,16.4916448 4.74547603,16.8725764 5.28579886,16.8725764 C5.32304733,16.8725764 5.35980882,16.8707674 5.39597358,16.8672451 C5.41877936,16.9112793 5.44168658,16.9554886 5.46466303,16.9997994 C5.29230702,17.1531804 5.18610195,17.3629966 5.18610195,17.594383 C5.18610195,18.0640962 5.62407988,18.4450278 6.16460131,18.4450278 C6.26295805,18.5059574 6.29658807,18.5665621 6.32921244,18.6247009 C6.19876071,18.7692223 6.12097563,18.951378 6.12097563,19.149355 C6.12097563,19.6190684 6.55915216,20 7.09967359,20 C7.63999642,20 8.07817295,19.6192541 8.07817295,19.149355 C8.07817295,18.6794704 7.63999642,18.2987102 7.09967359,18.2987102 C6.91815009,18.2987102 6.74816926,18.3416531 6.60245092,18.416493 C6.59671565,18.3987175 6.59091046,18.3807807 6.58503878,18.3626907 C6.91501378,18.2259484 7.14310066,17.9332727 7.14310066,17.594383 C7.14310066,17.1244983 6.70492414,16.7435666 6.16460131,16.7435666 C6.12321016,16.7435666 6.0824203,16.7458004 6.0423824,16.7501368 C6.02628555,16.7025551 6.01032325,16.6552877 5.99453817,16.6084335 C6.16170143,16.455812 6.26429822,16.2492703 6.26429822,16.0219315 C6.26429822,15.6354819 5.96805029,15.309316 5.56215469,15.2056692 C5.54446476,15.1184652 5.54171782,15.0658983 5.55783911,15.0570504 C5.84291948,14.9005883 6.03226789,14.6243146 6.03226789,14.30966 C6.03226789,14.0860386 5.93676644,13.8818833 5.77929671,13.7262963 C5.83061141,13.6740425 5.86657838,13.6439157 5.87843099,13.6495181 C6.0225297,13.7176296 6.18768402,13.7563202 6.36320073,13.7563202 C6.92445925,13.7563202 7.37943398,13.3609653 7.37943398,12.8730444 C7.37943398,12.7657232 7.35743742,12.6628855 7.31715106,12.5677483 C7.33861885,12.5587424 7.36023623,12.5496614 7.381995,12.5405093 Z" id="Shape" fill="#FFFFFF"></path>
                    <g id="Group" transform="translate(11.000000, 18.000000)" fill="#FFFFFF">
                        <path d="M10.9033775,0.00224365271 C12.3964997,-0.078547529 12.0272163,2.04642193 11.7322618,2.52037008 C11.3476591,3.13848117 10.9901441,3.15766056 10.5052401,2.58660324 C10.1335212,2.14890251 9.4104784,0.0830938935 10.9036006,0.00233076469 L10.9034147,0.00233076469 L10.9033775,0.00224365271 L10.9033775,0.00224365271 L10.9033775,0.00224365271 Z" id="Shape"></path>
                        <path d="M0.576413198,1.0425363 C1.85339571,0.66896515 2.09905188,2.8643678 1.96906424,3.39554545 C1.79933271,4.08879531 1.49365278,4.1781401 0.91945604,3.70261687 C0.479426131,3.33817462 -0.700569316,1.41583404 0.576413198,1.04247554 L0.576413198,1.0425363 L0.576413198,1.0425363 L0.576413198,1.0425363 Z" id="Shape"></path>
                        <path d="M23.9033775,0.00224365271 C25.3964997,-0.078547529 25.0272163,2.04642193 24.7322618,2.52037008 C24.3476591,3.13848117 23.9901441,3.15766056 23.5052401,2.58660324 C23.1335212,2.14890251 22.4104784,0.0830938935 23.9036006,0.00233076469 L23.9034147,0.00233076469 L23.9033775,0.00224365271 L23.9033775,0.00224365271 L23.9033775,0.00224365271 Z" id="Shape" transform="translate(24.000000, 1.500000) scale(-1, 1) translate(-24.000000, -1.500000) "></path>
                        <path d="M33.5764132,1.0425363 C34.8533957,0.66896515 35.0990519,2.8643678 34.9690642,3.39554545 C34.7993327,4.08879531 34.4936528,4.1781401 33.919456,3.70261687 C33.4794261,3.33817462 32.2994307,1.41583404 33.5764132,1.04247554 L33.5764132,1.0425363 L33.5764132,1.0425363 L33.5764132,1.0425363 Z" id="Shape" transform="translate(34.000000, 2.500000) scale(-1, 1) translate(-34.000000, -2.500000) "></path>
                    </g>
                    <path d="M46.0938183,25.9999988 C46.6458972,25.1697045 47.2257835,24.3551853 48,23.649834 C46.0178882,24.7495758 44.9749468,24.58361 44.8298361,23.1517858 C44.7124111,23.1206192 44.5535013,23.1206192 44.3947737,23.1206192 C42.8823315,24.8792801 41.4110602,24.635483 39.9813818,22.3891269 C38.0336916,24.6976525 36.3623869,24.6562648 35.0501469,22.2490253 C32.8037985,24.3531285 30.911453,24.3589152 29.3729414,22.2935064 L29.3727727,22.0311665 C29.4583745,22.0596096 29.4001632,22.0686872 29.198336,22.0478084 L29.1657081,22 C29.1056845,22.0089317 29.0504969,22.0167928 28.9999409,22.023752 C28.9493867,22.0167953 28.8939949,22.0089267 28.8341755,22 L28.8015458,22.0478084 C28.5995213,22.0686872 28.5413251,22.0595957 28.6269236,22.0311665 L28.6269236,22.2936574 C27.0885133,24.3588888 25.1960665,24.3532279 22.9497181,22.2490267 C21.637495,24.656178 19.9660047,24.6976915 18.0183145,22.3891283 C16.5888554,24.6355094 15.1174491,24.8791807 13.6050913,23.1206205 C13.4463738,23.1204947 13.2874506,23.1206205 13.1698265,23.151787 C13.0250076,24.5836237 11.982078,24.7495518 10,23.6498352 C10.7740478,24.3551614 11.3541196,25.1697309 11.9061817,26 C17.6174713,25.8222344 23.3090191,25.5998354 29.0005669,25.3765307 C34.6916085,25.5998354 40.3828189,25.8222344 46.0949522,26 L46.0951209,26 L46.0938183,25.9999988 L46.0938183,25.9999988 L46.0938183,25.9999988 Z" id="Shape" fill="#F2C500"></path>
                    <path d="M47.8559647,23.7137997 C47.7542464,24.0890197 47.5615888,24.4490318 47.2970567,24.7423218 C45.5129597,26.7197068 44.1861851,26.2710903 44.1378093,24.0564564 C41.8021724,26.4479838 40.0358323,26.1454046 39.7191004,23.6230855 C37.7542396,26.8048784 34.6017099,25.2820622 34.5364752,23.3523545 C33.6709947,26.1571781 28.875759,26.1373369 28.5692508,22.9137168 C28.2625408,26.1375703 23.4670024,26.1572657 22.6016901,23.3523545 C22.536447,25.2821643 19.3839257,26.8048346 17.4190649,23.6230855 C17.1022657,26.1454777 15.3359929,26.4479109 13.000356,24.0564564 C12.9517599,26.2711195 11.6248693,26.7197361 9.8411086,24.7423218 C9.63294335,24.5115217 9.46934189,24.2395442 9.35950765,23.9513919 L9.35950765,23.9513919 C9.34730848,23.9559638 9.33491471,23.9601349 9.32233057,23.9638934 C8.89981252,24.090085 8.42271522,23.7032464 8.2566268,23.0999481 C8.17016697,22.785892 8.18502102,22.4750634 8.27874229,22.2314058 C8.23073142,22.1629556 8.16728299,22.0796588 8.07250634,21.9966397 C7.87418017,21.8227831 7.53815817,21.6502573 7.35447271,21.4338881 C6.98695937,21.0011772 6.7919992,20.5771682 7.34276101,20.5378854 C7.47923934,20.5279699 7.61327258,20.4868444 7.66972432,20.3710538 C7.7136794,20.2808976 7.67615981,20.2453778 7.71198138,19.9951998 C7.7353565,19.8330782 7.78121138,19.7029292 7.84352163,19.6065518 C7.90576314,19.5103877 8.00489191,19.5231299 8.09336757,19.4967052 C8.18172251,19.4703166 8.25930857,19.4047957 8.36113541,19.4519581 C8.46289083,19.4993241 8.56811434,19.5843466 8.67041987,19.7089469 L8.67032091,19.7089765 L8.67034071,19.7089706 C8.82800287,19.9013616 8.81425702,19.9521972 8.89728082,20.0044246 C9.00418595,20.071426 9.13865521,20.032359 9.25944009,19.9654387 C9.74661643,19.6947216 9.79683905,20.1617797 9.70536629,20.7317564 C9.65966418,21.0166358 9.46259584,21.3483775 9.38274963,21.6053146 C9.34445171,21.728706 9.33313856,21.834858 9.32727929,21.9196437 C9.36241153,21.9464814 9.39656407,21.9763163 9.42947076,22.0089329 C9.4216535,21.9717596 9.41367897,21.933631 9.40560218,21.8947826 C9.41801899,21.8080681 9.51421444,21.7667444 9.59023441,21.5365225 C9.66621656,21.3061302 9.72193653,20.8864865 9.82545749,20.6865599 C10.0325404,20.2868916 10.2588597,20.1220892 10.3605686,20.8888602 C10.3857791,21.0788982 10.4294859,21.2729436 10.5069023,21.3789366 C10.5670494,21.4613481 10.5830648,21.4182425 10.7379721,21.5286957 C10.8384701,21.6001465 10.9229825,21.6950662 10.9894608,21.8042285 C11.055901,21.9132158 11.0624277,22.0463456 11.09081,22.1743937 C11.1191551,22.3022739 11.1693184,22.4249032 11.155511,22.5533715 C11.1416704,22.6816785 11.1056595,22.805583 11.0454046,22.9156907 C10.9526537,23.085651 10.920118,23.0542173 10.9007408,23.155756 C10.8757682,23.2863656 10.9182495,23.4807103 10.9754777,23.6630491 C11.2067815,24.398672 10.9340501,24.3540538 10.5796661,24.0892044 C10.4457924,23.9892643 10.2836339,23.7639916 10.1410736,23.5854906 C11.1966512,25.4830536 12.0948303,25.3345859 12.2771325,23.1405257 C12.0111658,23.0575427 12.1163452,22.653992 11.8148647,22.8154064 C11.6571075,22.89979 11.4565841,22.6594191 11.5872536,22.5269497 C11.9244664,22.3109688 12.2243494,22.344305 12.5192047,22.5850262 C12.6578968,22.1997207 12.9983213,22.0198713 13.4230575,22.1823508 C13.60631,22.2523641 13.5432865,22.5409874 13.3592268,22.5244957 C13.0621604,22.4976516 13.1813889,22.7675073 13.0888546,22.947873 C15.1957871,25.3489087 16.27421,25.0670022 16.0158846,21.9227178 C15.9909086,21.9032339 15.9667701,21.8827249 15.9435398,21.8612425 C15.885116,21.92498 15.7640238,21.9855067 15.6393698,22.1747387 C15.4870671,22.4057491 15.3293393,22.8285608 15.142737,23.0279229 C14.7695908,23.4269919 14.4117181,23.58781 14.4053551,22.8102008 C14.4036323,22.617501 14.376156,22.4202471 14.2835713,22.3111958 C14.2116452,22.2264008 14.1805481,22.2695801 13.9766268,22.1541444 C13.8442866,22.0794334 13.7393934,21.9813931 13.6632471,21.8695673 C13.5870752,21.7575787 13.602085,21.622852 13.5845484,21.4928852 C13.5669888,21.3627479 13.516906,21.2375424 13.5605148,21.1082012 C13.6040986,20.9786822 13.6789814,20.8543287 13.786424,20.744519 C13.9518936,20.574965 13.9932148,20.6075406 14.0399107,20.5053855 C14.1000493,20.3739736 14.074403,20.1764565 14.0249221,19.9907477 C13.8252595,19.2414489 14.21186,19.2934653 14.676122,19.5697602 C14.9082656,19.7080015 15.1717862,20.0691496 15.3793227,20.2474855 C15.5493291,20.3934462 15.6817847,20.4169505 15.7547417,20.4614958 C15.783973,20.4135301 15.81669,20.367645 15.8525981,20.3242201 C15.8012163,20.2513773 15.7314781,20.162334 15.6166988,20.071071 C15.3765498,19.8799625 14.9384048,19.6792087 14.7301626,19.4464068 C14.3134667,18.9808192 14.1422327,18.5377736 14.9428861,18.5421147 C15.1413337,18.5430076 15.3442669,18.5122394 15.4549632,18.4000028 C15.5411544,18.3126137 15.4963963,18.2738085 15.6119061,18.0244351 C15.6869916,17.862848 15.7861551,17.7352894 15.9002879,17.6430927 C16.0142673,17.5511057 16.1532972,17.5718623 16.2870688,17.5522802 C16.4206579,17.532725 16.5488136,17.472857 16.6828988,17.5285316 C16.8168294,17.5844055 16.9460915,17.6785219 17.0610262,17.8123081 L17.0608765,17.81233 L17.0609065,17.8123256 C17.2379361,18.0188761 17.2051817,18.0690323 17.3109787,18.1283128 C17.4472712,18.2043945 17.650303,18.1757363 17.8408267,18.1179043 C18.6094946,17.8838378 18.5619371,18.358737 18.2846179,18.9260938 C18.1460355,19.2096649 17.7781696,19.5284053 17.5977333,19.7810804 C17.5111486,19.9024289 17.4677155,20.0085495 17.4375847,20.0935637 C17.491176,20.1303055 17.5414759,20.171504 17.5878756,20.2167145 C17.6045435,20.1002245 17.625739,19.9595195 17.6499028,19.8083659 C17.7175979,19.7358909 17.9090959,19.7460231 18.1647639,19.5749096 C18.4204553,19.4036227 18.7403505,19.050727 19.0285274,18.920688 C19.6048559,18.6607978 20.0910826,18.623365 19.865552,19.368877 C19.809661,19.5536476 19.7842784,19.7512034 19.8648552,19.885607 C19.9274247,19.9900856 19.9784374,19.9589288 20.1933414,20.1357191 C20.3328726,20.2502261 20.4318133,20.3781014 20.4914228,20.5099662 C20.5510581,20.6416535 20.4922644,20.7655838 20.4747048,20.8957211 C20.4571682,21.0256879 20.4808888,21.1616896 20.3886906,21.2713323 C20.2965191,21.3808123 20.1675674,21.4753308 20.0031385,21.5453446 C19.7497836,21.653544 19.7089956,21.608946 19.6211945,21.6914174 C19.5081717,21.7974769 19.4804696,21.9946975 19.4851191,22.1883301 C19.5046247,22.9697261 19.0471284,22.7943248 18.5619123,22.3788507 C18.3192735,22.1712858 18.1051744,21.7402222 17.9047167,21.5021628 C17.8825933,21.4758686 17.8606344,21.4519293 17.8390115,21.4300252 C17.8019929,21.521103 17.7533259,21.6071061 17.6945858,21.6860048 L17.6945858,21.6860048 C19.5999013,24.9744257 20.9619346,25.0812399 22.0672177,22.06129 C21.8275669,21.9054778 21.8958031,21.5140375 21.5457435,21.6398384 C21.3482316,21.7107271 21.1824502,21.406479 21.3590775,21.2766414 C21.7677551,20.9759006 22.2115597,21.0774993 22.5090213,21.4640244 C22.74768,21.0476704 23.1728029,20.8974839 23.6220221,21.1504889 C23.8159153,21.2596305 23.6954845,21.5798376 23.4895483,21.5314119 C23.0939159,21.4387706 23.2715555,21.8923183 22.9724796,22.0479555 C23.8029647,24.8310482 27.8940326,25.0997986 27.505727,21.2492417 C27.405452,21.2960786 27.2449588,21.3472853 27.062311,21.4946734 C26.8059795,21.701358 26.5059115,22.0971909 26.2076259,22.2675632 C25.6110717,22.6086576 25.0807694,22.7160339 25.2184694,21.9450699 C25.2523891,21.7539956 25.2511868,21.5546785 25.1423939,21.4332676 C25.0578906,21.3388714 25.0063048,21.3771228 24.7431665,21.2332503 C24.5723573,21.1400826 24.4442924,21.0277912 24.3589887,20.9060156 C24.2736799,20.784075 24.3200479,20.6528353 24.3200479,20.5215913 C24.3200479,20.390175 24.2736799,20.2589281 24.3589887,20.137167 C24.4442957,20.0152265 24.5723573,19.9029381 24.7431665,19.8097717 C25.0063082,19.6658541 25.0578973,19.7041025 25.1423939,19.6097106 C25.2511868,19.4882953 25.2525909,19.2889827 25.2184694,19.0979085 C25.0807728,18.3269591 25.6110885,18.4345103 26.2076259,18.7754151 C26.5058947,18.9459623 26.8059795,19.3417954 27.062311,19.5484798 C27.2735408,19.718654 27.4550482,19.7606331 27.5480997,19.8157889 L27.5480997,19.8157889 C27.5876879,19.7721689 27.6308637,19.7311501 27.6772374,19.6930732 C27.6314408,19.6134911 27.5678223,19.5152052 27.454893,19.408192 C27.2186389,19.1841318 26.7656027,18.9218187 26.5707141,18.6610959 C26.1807014,18.1396357 26.057866,17.6760798 26.9396404,17.7964403 C27.1582217,17.8260913 27.386455,17.8250394 27.5251471,17.7299416 C27.6331363,17.6558972 27.5895781,17.6109816 27.7539689,17.3807792 C27.8607524,17.2316489 27.9890123,17.1197063 28.1285116,17.0449515 C28.2678107,16.9703819 28.4179523,17.01109 28.5682974,17.01109 C28.7184373,17.01109 28.8685839,16.9703819 29.0080832,17.0449515 C29.1473823,17.1196961 29.2758491,17.2316344 29.3826258,17.3807792 L29.3824577,17.3807792 L29.3824913,17.3807792 C29.5468838,17.6109816 29.5033256,17.6559016 29.6111113,17.7299416 C29.7500086,17.8250394 29.9780367,17.8260913 30.196618,17.7964403 C31.0785942,17.676077 30.955557,18.1394607 30.5655444,18.6610959 C30.3706389,18.9218187 29.9178045,19.1841318 29.6813654,19.408192 C29.5678923,19.5158084 29.5042424,19.6146001 29.4583918,19.6944193 C29.4958882,19.7253067 29.5312852,19.7581202 29.5643752,19.792679 C29.6647523,19.7461217 29.8241012,19.6944831 30.0053288,19.5484798 C30.2616603,19.3417954 30.5617451,18.9459623 30.8600139,18.7754151 C31.4565513,18.4345103 31.986867,18.3269591 31.8491704,19.0979085 C31.8150489,19.2889827 31.816453,19.4882953 31.9252459,19.6097106 C32.0097425,19.7041025 32.0613316,19.6658541 32.3244733,19.8097717 C32.4952825,19.9029381 32.623344,20.0152265 32.7086511,20.137167 C32.7939599,20.2589281 32.7475919,20.390175 32.7475919,20.5215913 C32.7475919,20.6528353 32.7939599,20.784075 32.7086511,20.9060156 C32.6233474,21.0277912 32.4952825,21.1400826 32.3244733,21.2332503 C32.061335,21.3771228 32.0097492,21.3388714 31.9252459,21.4332676 C31.816453,21.5546785 31.8152507,21.7539956 31.8491704,21.9450699 C31.9868704,22.7160339 31.4565681,22.6086576 30.8600139,22.2675632 C30.5617283,22.0971909 30.2616603,21.701358 30.0053288,21.4946734 C29.8590102,21.3766012 29.7269095,21.3202541 29.6285953,21.2784309 C29.2638993,25.0984353 33.3362147,24.8240112 34.1648718,22.0479555 C33.8655942,21.8923183 34.0432304,21.4385942 33.6476014,21.5314119 C33.4416584,21.5798332 33.3214277,21.2596217 33.5153243,21.1504889 C33.9643248,20.8974692 34.3896663,21.0476646 34.628325,21.4640244 C34.9256017,21.0774993 35.3693895,20.9759151 35.7782689,21.2766414 C35.9546944,21.4064849 35.7888961,21.7107227 35.5915861,21.6398384 C35.2413246,21.5140361 35.3095777,21.9054778 35.0699101,22.06129 C36.1759789,25.0832029 37.5391244,24.9743324 39.446507,21.679731 C39.4250358,21.6509559 39.404906,21.6212328 39.3861936,21.5906607 C39.3051825,21.6331196 39.1596384,21.6555473 38.9751711,21.7976305 C38.7473117,21.9729914 38.4600122,22.3306585 38.2042309,22.465263 C37.6926346,22.7348204 37.2640223,22.78051 37.4746067,22.0327955 C37.5266352,21.8474597 37.5523284,21.6499448 37.4835636,21.5172747 C37.430164,21.414134 37.3847548,21.446114 37.1984187,21.2735512 C37.0774339,21.1617576 36.9923955,21.0359145 36.942029,20.9055693 C36.8916805,20.7750601 36.9454384,20.6503999 36.9629751,20.5204331 C36.9805347,20.3902959 36.9618496,20.255024 37.0447612,20.1442031 C37.1276955,20.0332044 37.2427391,19.9366529 37.3886216,19.8639257 C37.6134143,19.7514996 37.6486042,19.7952752 37.7272244,19.7114644 C37.8284351,19.6036714 37.8561638,19.406459 37.8550395,19.2133425 C37.850486,18.4341498 38.2503904,18.6012974 38.6708459,19.0071003 C38.8810611,19.2100955 39.0625926,19.6363919 39.2352183,19.8703771 C39.3750878,20.0597968 39.5090717,20.1232344 39.5756237,20.1873325 C39.6159204,20.1502303 39.6589338,20.1160487 39.7042963,20.0850566 C39.6741819,20.0002842 39.6307093,19.8946687 39.5445276,19.7739883 C39.3642558,19.5213373 38.9962104,19.2025707 38.8576429,18.9190015 C38.5803004,18.3518184 38.5329456,17.8767749 39.3014341,18.1108122 C39.491958,18.1686442 39.6951722,18.1973291 39.8312823,18.1212208 C39.9372608,18.0619623 39.9045058,18.0118105 40.0815341,17.8052598 C40.1964726,17.6714889 40.3255513,17.5773412 40.4596613,17.5214831 C40.5935686,17.4657826 40.7217197,17.52565 40.8554913,17.545232 C40.9890804,17.5647872 41.1281148,17.5440314 41.2422723,17.6360444 C41.3562284,17.7282049 41.4555765,17.8557861 41.530654,18.0173869 L41.5305045,18.017365 L41.5305343,18.0173693 C41.6460456,18.2667429 41.6012869,18.3055525 41.6872977,18.3929105 C41.7981766,18.5051739 42.0009272,18.5359155 42.1993749,18.5350226 C43.0002082,18.5307049 42.8288177,18.9735538 42.4120983,19.4393147 C42.2038412,19.6721144 41.7658757,19.8728946 41.5255622,20.0639789 C41.4102184,20.1557684 41.3403845,20.2453086 41.2889232,20.3183789 C41.3327546,20.3715577 41.3718085,20.4284092 41.4055454,20.4882387 C41.4823105,20.4571172 41.5907411,20.418976 41.7221815,20.3100829 C41.9326745,20.1355468 42.2022063,19.7792442 42.4366311,19.6452436 C42.9054518,19.3774303 43.292865,19.3324494 43.0806777,20.0780045 C43.0280925,20.2627856 42.9991406,20.4598065 43.0570682,20.5922916 C43.1020453,20.6952797 43.143906,20.6634603 43.3065094,20.8359965 C43.4120956,20.9477425 43.4848834,21.0734383 43.5262903,21.2037297 C43.5677254,21.3338441 43.5155522,21.4581202 43.4958147,21.5879184 C43.476103,21.7175466 43.4888532,21.8525255 43.4108163,21.9631124 C43.3328079,22.0735372 43.2262881,22.1696557 43.092716,22.2419496 C42.8868916,22.3536609 42.8565228,22.3099229 42.7831868,22.3933975 C42.6887889,22.5007492 42.6580116,22.6974734 42.6530604,22.8901127 C42.6336689,23.6674877 42.2785453,23.5001888 41.9121427,23.0943977 C41.7289092,22.8916739 41.5782901,22.4660594 41.4298813,22.2323155 C41.3072306,22.0389761 41.1860121,21.9769149 41.1293481,21.9114387 C41.1268478,21.9134113 41.124339,21.9153734 41.1218216,21.9173252 L41.1218216,21.9173252 C40.8617532,25.0667519 41.9404056,25.3502078 44.0484077,22.947873 C43.9558734,22.7675073 44.0753121,22.4976502 43.7780355,22.5244957 C43.5939742,22.5409814 43.5311541,22.2525335 43.7144066,22.1823508 C44.1389241,22.020061 44.4795606,22.1997265 44.6182594,22.5850262 C44.9131146,22.3442934 45.2127958,22.3107821 45.5500087,22.5269497 C45.6806967,22.6594191 45.480365,22.8998017 45.3223976,22.8154064 C45.0211072,22.6539774 45.1260797,23.0575354 44.8601298,23.1405257 C45.0562638,25.4980907 46.0784976,25.4938215 47.2347291,23.1271748 L47.2347291,23.1271748 C47.1759432,23.1565968 47.0905339,23.1864096 46.9728013,23.2970656 C46.7991076,23.460203 46.5550544,23.7990974 46.3714937,23.9215122 C46.0042874,24.1666806 45.7296878,24.1963705 45.9976376,23.4743646 C46.0639494,23.2953952 46.1161376,23.1036326 46.0977619,22.9718408 C46.0835134,22.8693849 46.0494428,22.8990019 45.9653591,22.7242186 C45.9107193,22.6109771 45.8809836,22.4852795 45.8736091,22.3563939 C45.8662758,22.2273488 45.922532,22.1076222 45.9572639,21.9814623 C45.9920413,21.8551369 46.0052485,21.7225452 46.077074,21.617329 C46.1489462,21.5119402 46.2381122,21.4217576 46.3420627,21.355883 C46.5023077,21.2540254 46.5161352,21.2979449 46.5803408,21.2189252 C46.662977,21.1172976 46.7163741,20.9259004 46.7510988,20.7374972 C46.8911963,19.9773214 47.1089247,20.1542349 47.2956417,20.5646441 C47.388975,20.7699398 47.4235327,21.1920457 47.4878341,21.4262644 C47.5394865,21.6141378 47.6102367,21.6811728 47.640303,21.7454495 C47.6732445,21.7115622 47.707434,21.6805904 47.7425898,21.6527715 C47.7377118,21.5685253 47.7276896,21.4632852 47.6920484,21.3413147 C47.6175331,21.0859698 47.4303602,20.7571834 47.3889758,20.4735936 C47.3060779,19.90636 47.3591799,19.4399829 47.8267472,19.7048403 C47.9427005,19.7703175 48.0722455,19.807914 48.1759642,19.7399609 C48.2567218,19.6870521 48.2439377,19.6365082 48.3979651,19.4430316 C48.4979103,19.3177416 48.6001781,19.2318316 48.6989705,19.1835702 C48.7976005,19.135453 48.8718648,19.1999817 48.9570172,19.2254139 C49.0420534,19.2508113 49.1378661,19.2370787 49.1971418,19.332357 C49.2562578,19.4277697 49.299396,19.5571028 49.3204031,19.7185323 L49.3203078,19.7185039 L49.3203269,19.7185095 C49.3525157,19.9676025 49.3159577,20.0034143 49.3574116,20.092819 C49.4109138,20.2077286 49.539786,20.2473124 49.6714327,20.255785 C50.2028185,20.2892777 50.0105048,20.713898 49.6515662,21.1493522 C49.472179,21.3670051 49.1462853,21.542556 48.9530767,21.7179409 C48.8603287,21.8021933 48.7981349,21.8863913 48.7510431,21.9553624 C48.838692,22.1971314 48.8498582,22.5062683 48.7635854,22.8196452 C48.614919,23.3596597 48.2272911,23.7292973 47.8559647,23.7137997 L47.8559647,23.7137997 L47.8559647,23.7137997 Z" id="Shape" fill="#F2C500"></path>
                    <path d="M27.6161188,26.0440961 L27.6151127,26.067877 C24.6826153,26.1737511 19.4861856,26.4094413 12,26.7946423 L13.0957124,31 C18.0677778,30.8866364 23.8707287,30.7104017 28.9999162,30.5851389 C34.1291036,30.7103935 39.9322222,30.8866283 44.9042876,31 L46,26.7946423 C38.5144851,26.4073015 33.3178878,26.1716464 30.385055,26.066008 L30.3840489,26.0420646 C30.6803002,25.9949946 30.2205145,25.9868496 29.0001006,26.0208923 C27.77968,25.9866857 27.3202196,25.9949946 27.6165548,26.0420646 L27.6163871,26.0420646 L27.6161188,26.0440961 L27.6161188,26.0440961 L27.6161188,26.0440961 Z" id="Shape" fill="#F2C500"></path>
                    <path d="M28.4998116,26.063862 C28.3008784,26.063862 28.1023255,26.064219 27.9037726,26.0649331 L27.7052196,26.0660041 L27.6035788,26.0663612 L27.4192449,26.0674323 L27.3085238,26.0683246 L27.2368817,26.0686816 L27.1103743,26.0697527 L26.9122182,26.0718949 L26.7379532,26.0735015 L26.7008483,26.0738585 L26.5549965,26.0754651 C26.410135,26.0770718 26.2656571,26.0793389 26.1212024,26.081481 L26.0732448,26.0823734 L26.0458121,26.0827304 L25.8612797,26.0859616 L25.804637,26.0866755 L25.7264823,26.0881036 L25.5364277,26.0915489 L25.5291198,26.0917274 L25.3319557,26.0957975 L25.2682052,26.097047 L25.1351851,26.0998319 L25.0915676,26.1009028 L24.9382178,26.1043481 L24.7416489,26.1088645 L24.7327868,26.1092215 L24.5448981,26.113952 L24.4653628,26.1158799 L24.4594603,26.1160584 C24.2259717,26.1222706 23.9926981,26.1289289 23.7596063,26.136023 L23.6644798,26.1390219 L23.3980396,26.1478227 L23.3678425,26.1487152 L23.1318077,26.1568908 L22.9764853,26.1622462 L22.865961,26.16612 L22.8351737,26.1673696 L22.6001144,26.1761701 L22.5859119,26.1765271 L22.3907153,26.1842387 L22.3820352,26.1845958 L22.1955353,26.1923252 L22.0694197,26.1974663 L21.805939,26.2088374 L21.804451,26.2088374 C21.4578886,26.2240822 21.1119048,26.2403963 20.7665328,26.257785 L20.7171914,26.2601415 C20.2089792,26.2861183 19.7023543,26.3144567 19.1973165,26.3451569 L19.1683049,26.3467635 L19.0931114,26.351494 C18.0816306,26.4139675 17.0758374,26.486316 16.0762113,26.5681165 L16.0387129,26.5711155 L16.0262796,26.5723651 C14.5616603,26.6928044 13.1102349,26.8342758 11.6732929,26.9952923 C10.8554215,27.0783745 10.6991121,26.029854 11.6732929,25.9321729 C13.1102845,25.7709442 14.5617264,25.6299012 16.0262796,25.5094602 L16.0387129,25.5083891 C18.0483814,25.3432955 20.0826851,25.2170599 22.1391439,25.1318391 L22.3088786,25.1249665 L22.3347323,25.1237169 L22.3907831,25.1215747 L22.5859797,25.1138453 L22.6003806,25.1131312 C23.4417298,25.0809279 24.2868157,25.0553812 25.135324,25.0369161 L25.2685424,25.0339349 L25.2750567,25.0337564 L25.5008406,25.0292402 L25.5294571,25.0285261 L25.5365666,25.0283476 L25.7266212,25.0249023 L25.804971,25.0234742 L25.9239804,25.0215463 L26.0733853,25.0191721 L26.1213429,25.0182795 L26.1916028,25.0172084 C26.3656693,25.0146201 26.5401492,25.0122639 26.7144142,25.0103358 L26.8801974,25.0084079 L26.9123653,25.0080509 L27.1105214,25.0064443 C27.3031553,25.0048376 27.4961695,25.0032132 27.6891836,25.0021422 L27.7053701,25.0021422 L27.903923,25.0012496 C28.1024594,25.0005355 28.3012107,25 28.4999621,25 C28.6988953,25 28.8976466,25.000357 29.0960012,25.0012496 L29.294736,25.0021422 L29.310724,25.0021422 C29.5037382,25.0032132 29.6967689,25.0047307 29.8895846,25.0064443 L30.0877407,25.0080509 L30.1197152,25.0084079 L30.2854984,25.0103358 C30.4599618,25.0124779 30.6342433,25.0146201 30.8083098,25.0172084 L30.8787697,25.0182795 L30.9265322,25.0191721 L31.0759338,25.0215463 L31.19514,25.0234742 L31.2732947,25.0249023 L31.4633493,25.0283476 L31.4706572,25.0285261 L31.4990786,25.0292402 L31.7248625,25.0337564 L31.7315752,25.0339349 L31.8645969,25.0369161 C32.713254,25.0553812 33.5581415,25.0809279 34.3997056,25.1131312 L34.4139081,25.1138453 L34.6091047,25.1215747 L34.6651538,25.1237169 L34.6910108,25.1249665 L34.860944,25.1318391 C36.9172375,25.2170689 38.9517065,25.3433025 40.961375,25.5083891 L40.9738083,25.5094602 C42.4382292,25.6298993 43.8896877,25.7709422 45.3266296,25.9321729 C46.3010088,26.0298557 46.144501,27.078603 45.3266296,26.9952923 C43.8896381,26.8342794 42.4381961,26.6928061 40.9738083,26.5723651 L40.961375,26.5711155 L40.9238749,26.5681165 C39.9242323,26.4863214 38.9185052,26.4137586 37.9069748,26.351494 L37.8317813,26.3467635 L37.802768,26.3451569 C37.2975319,26.3144567 36.7908904,26.28612 36.2828932,26.2601415 L36.233355,26.257785 C35.8881648,26.240398 35.5419992,26.2240805 35.1954368,26.2088374 L35.1939488,26.2088374 L34.9306665,26.1974663 L34.8043558,26.1923252 L34.6178559,26.1845958 L34.6093742,26.1842387 L34.4141776,26.1765271 L34.3997767,26.1761701 L34.1647174,26.1673696 L34.1339301,26.16612 L34.0234058,26.1622462 L33.8680801,26.1568908 L33.6320453,26.1487152 L33.602045,26.1478227 L33.3354064,26.1390219 L33.2402782,26.136023 C33.0073848,26.1289362 32.7741112,26.1222777 32.5406391,26.1160584 L32.53472,26.1158799 L32.4551815,26.113952 L32.2672928,26.1092215 L32.2584307,26.1088645 L32.0616634,26.1043481 L31.9083119,26.1009028 L31.8648928,26.0998319 L31.7316727,26.097047 L31.6679255,26.0957975 L31.4707614,26.0917274 L31.4636684,26.0915489 L31.2736138,26.0881036 L31.1952607,26.0866755 L31.1388147,26.0859616 L30.9542823,26.0827304 L30.9266513,26.0823734 L30.8788904,26.081481 C30.7342241,26.0793209 30.5897495,26.0771789 30.4450963,26.0754651 L30.2990494,26.0738585 L30.2621413,26.0735015 L30.0878763,26.0718949 L29.8895218,26.0697527 L29.7632094,26.0686816 L29.6913706,26.0683246 L29.5808496,26.0674323 L29.3965156,26.0663612 L29.2948732,26.0660041 L29.0961384,26.0649331 C28.8975855,26.064219 28.6990491,26.063862 28.5000993,26.063862 L28.4998116,26.063862 L28.4998116,26.063862 L28.4998116,26.063862 Z" id="Shape" fill="#98730E"></path>
                    <path d="M28.9999126,4 C30.6569065,4 32,5.11919009 32,6.5 C32,7.88060758 30.656924,9 28.9999126,9 C27.3431284,9 26,7.88080991 26,6.5 C26,5.11923344 27.343076,4 28.9999126,4 L28.9999126,4 L28.9999126,4 L28.9999126,4 Z" id="Shape" fill="#227FBB"></path>
                    <path d="M30.0281178,0.906739653 C30.0281178,0.659552508 29.8021098,0.458431928 29.5207591,0.452151442 C29.5192525,0.202179416 29.2867661,0 29.0000084,0 C28.7134515,0 28.4808647,0.202353471 28.4792576,0.452325496 C28.1981078,0.458605982 27.971899,0.659552508 27.971899,0.906739653 C27.971899,1.15356418 28.197706,1.35452522 28.478655,1.36115381 L28.478655,2.29301541 L27.5594566,2.29301541 C27.55795,2.04321743 27.3252627,1.84103802 27.0387059,1.84103802 C26.7557481,1.84103802 26.5251534,2.03850345 26.5179551,2.28410958 C26.2318,2.28532797 26,2.48837767 26,2.73852374 C26,2.98884388 26.2318,3.19189358 26.518156,3.19311196 C26.5253375,3.4387181 26.7555472,3.63618353 27.0387059,3.63618353 C27.3176627,3.63618353 27.5456628,3.44430237 27.558854,3.20356977 L28.4784541,3.20356977 L28.4784541,6.30566593 L26.3022423,6.30566593 L26.3022423,6.9999999 L31.6789351,7 L31.6789351,6.30566593 L29.5215459,6.3056661 L29.5215459,3.20356977 L30.441146,3.20356977 C30.4543205,3.44430237 30.6823373,3.63618353 30.9612941,3.63618353 C31.2444528,3.63618353 31.4748466,3.4387181 31.481844,3.19311196 C31.7682,3.19193709 32,2.98884388 32,2.73852374 C32,2.48837767 31.7682,2.28532797 31.4820449,2.28410958 C31.4748634,2.03850345 31.2442519,1.84103802 30.9612941,1.84103802 C30.6747373,1.84103802 30.4423513,2.04321743 30.4405434,2.29301541 L29.5215459,2.29301541 L29.5215459,1.36109579 C29.8025116,1.35452522 30.0281178,1.15356418 30.0281178,0.906739653 L30.0281178,0.906739653 L30.0281178,0.906739653 Z" id="Path" fill="#F2C500"></path>
                    <g id="Group" transform="translate(12.000000, 27.000000)">
                        <path d="M8.43881106,0.00424539011 C9.2665962,-0.0462020163 9.9649913,0.358772058 9.99874012,0.908617869 C10.0323686,1.45865237 9.38867888,1.94530284 8.56105515,1.99575461 C7.73344609,2.04620201 7.03502164,1.64122795 7.00127282,1.09138213 C6.96746824,0.541347632 7.61115798,0.0546826362 8.43878171,0.00424539011 L8.43881106,0.00424539011 L8.43881106,0.00424539011 L8.43881106,0.00424539011 Z" id="Shape" fill="#E94B35"></path>
                        <path d="M0.943882895,1.01166108 C2.00461961,0.92791164 2.92341148,1.30425531 2.99549726,1.85195551 C3.06757928,2.39998939 2.26565696,2.91191324 1.20492025,2.99566703 C0.515180033,3.05010337 0.0862884638,2.58284628 0.0117306238,2.08750489 C-0.0630555508,1.59233761 0.216495778,1.06906863 0.943845154,1.01166108 L0.943882895,1.01166108 L0.943882895,1.01166108 L0.943882895,1.01166108 Z" id="Shape" fill="#227FBB"></path>
                        <path d="M25.4388111,0.00424539011 C26.2665962,-0.0462020163 26.9649913,0.358772058 26.9987401,0.908617869 C27.0323686,1.45865237 26.3886789,1.94530284 25.5610551,1.99575461 C24.7334461,2.04620201 24.0350216,1.64122795 24.0012728,1.09138213 C23.9674682,0.541347632 24.611158,0.0546826362 25.4387817,0.00424539011 L25.4388111,0.00424539011 L25.4388111,0.00424539011 L25.4388111,0.00424539011 Z" id="Shape" fill="#E94B35" transform="translate(25.500000, 1.000000) scale(-1, 1) translate(-25.500000, -1.000000) "></path>
                        <path d="M31.9438829,1.01166108 C33.0046196,0.92791164 33.9234115,1.30425531 33.9954973,1.85195551 C34.0675793,2.39998939 33.265657,2.91191324 32.2049203,2.99566703 C31.51518,3.05010337 31.0862885,2.58284628 31.0117306,2.08750489 C30.9369444,1.59233761 31.2164958,1.06906863 31.9438452,1.01166108 L31.9438829,1.01166108 L31.9438829,1.01166108 L31.9438829,1.01166108 Z" id="Shape" fill="#227FBB" transform="translate(32.500000, 2.000000) scale(-1, 1) translate(-32.500000, -2.000000) "></path>
                        <path d="M17.4998534,0 C18.3282029,0 19,0.447771403 19,0.999992729 C19,1.5524032 18.3282615,2 17.4998534,2 C16.671504,2 16,1.5524032 16,0.999992729 C16,0.447756853 16.6715626,0 17.4998534,0 L17.4998534,0 L17.4998534,0 L17.4998534,0 Z" id="Shape" fill="#227FBB"></path>
                    </g>
                    <path d="M29.353754,11.8356868 C29.6228129,11.6587965 29.8000488,11.3566404 29.8000488,11.0135944 C29.8000488,10.6906566 29.6428826,10.403918 29.3998739,10.2238723 C29.6428826,10.0438137 29.8000488,9.75703857 29.8000488,9.43399864 C29.8000488,9.14817151 29.6769224,8.89074686 29.4801261,8.71055778 L29.4801261,8.71055778 C29.6769224,8.53030151 29.8000488,8.2727829 29.8000488,7.98685788 C29.8000488,7.44188994 29.3524528,7 28.8000488,7 L28.8000488,7 C28.2478207,7 27.8000488,7.44187558 27.8000488,7.98685788 C27.8000488,8.27278156 27.9232225,8.53029907 28.1200378,8.71055523 C27.9232225,8.89074213 27.8000488,9.14816532 27.8000488,9.43399864 C27.8000488,9.75703133 27.9572781,10.043809 28.200302,10.2238701 L28.200302,10.2238701 C27.9572781,10.4039157 27.8000488,10.6906553 27.8000488,11.0135944 C27.8000488,11.3566404 27.9773544,11.6587965 28.246421,11.8356868 C27.9773544,12.0125622 27.8000488,12.314678 27.8000488,12.6576157 C27.8000488,13.0010646 27.9778928,13.3035735 28.2476464,13.4803352 C27.9778928,13.6570939 27.8000488,13.9596004 27.8000488,14.3030584 C27.8000488,14.668554 28.00132,14.9875551 28.3004005,15.1581172 C28.00132,15.3287136 27.8000488,15.6477477 27.8000488,16.0131277 C27.8000488,16.5582823 28.2478207,17 28.8000488,17 C29.3524528,17 29.8000488,16.5582823 29.8000488,16.0131277 C29.8000488,15.6476541 29.5988703,15.3286653 29.2998056,15.1581 L29.2998056,15.1581 C29.5988703,14.9875336 29.8000488,14.6685417 29.8000488,14.3030584 C29.8000488,13.9596095 29.6222747,13.6571006 29.3525287,13.4803389 C29.6222747,13.3035802 29.8000488,13.0010737 29.8000488,12.6576157 C29.8000488,12.314678 29.6228129,12.0125622 29.353754,11.8356868 L29.353754,11.8356868 L29.353754,11.8356868 Z" id="Shape" fill="#FFFFFF"></path>
                    <path d="M45.5994198,30.999883 C45.6110966,31.183301 45.4320337,31.3626365 45.093838,31.4055994 C45.0170963,31.4231559 44.9312881,31.436283 44.8358161,31.4432723 C34.5783881,32.1854908 23.6216975,32.185661 13.363932,31.4432723 C13.2686592,31.4362843 13.182856,31.4231559 13.1059101,31.4055994 C12.7677194,31.3626408 12.5886515,31.183301 12.6005308,30.999883 C12.588854,30.8166211 12.7675119,30.6372997 13.1051002,30.5943369 C13.1820461,30.5766074 13.2682542,30.5636535 13.363932,30.556664 C23.6215287,29.8142753 34.5780507,29.8146154 44.8358161,30.556664 C44.9316947,30.5636519 45.017702,30.5766074 45.0946479,30.5943369 C45.4324337,30.637297 45.6112991,30.8166354 45.5994198,30.999883 Z" id="Shape" fill="#98730F"></path>
                    <g id="Group" transform="translate(14.000000, 37.000000)">
                        <g id="g3535">
                            <g id="Group">
                                <path d="M5.90007915,2 L5.5752407,1.71117256 C5.41690847,1.5332675 5.50842903,1.29625387 5.85014508,1 C6.09999342,1.0962249 6.2999077,1.17033379 6.5,1.24442689 C6.36672381,1.64433472 6.16663152,1.89634604 5.90007915,2 L5.90007915,2 L5.90007915,2 L5.90007915,2 Z" id="Shape" fill="#21231E"></path>
                                <path d="M7.34721139,5.81436872 C7.06310839,5.55694101 6.71145854,5.26459078 6.34174625,4.94751283 C5.2283345,5.10655099 5.30312415,4.85004252 4.96892026,4.40181173 C4.47789067,3.74324432 3.5426324,4.25380306 3.36727938,5.11795244 C3.26687423,5.61254753 3.1054444,5.62774947 2.63503063,5.15215519 C0.17690664,2.66582952 0.051439761,0.90767674 2.6808648,0.616963911 L2.68091385,0.616949356 C3.27044996,-0.555265703 4.87001818,0.648873429 4.68427024,1.32055656 C4.61148996,1.58416465 10.4927697,8.25838197 8.23262546,7.83199992 C7.20104406,7.63723721 6.12348451,8.29104997 5.10101647,8.08394781 C4.93253011,8.03169518 4.87666334,7.95987411 4.56454668,7.34063767 C4.75786331,7.34837067 4.93670593,7.33847518 5.10487069,7.31734502 C2.89567011,7.34915017 1.61392372,6.62361256 1.32224679,5.13724435 C2.20201801,6.20927216 3.2510825,6.73959343 4.44309695,6.43765704 C6.05122476,6.03047148 6.97110425,5.73823846 7.33785359,5.81081963 C7.3409551,5.811945 7.34407455,5.81312819 7.34721139,5.81436872 L7.34721139,5.81436872 L7.34721139,5.81436872 Z" id="Shape" fill="#F2C500"></path>
                            </g>
                            <g id="Group" transform="translate(25.000000, 4.000000) scale(-1, 1) translate(-25.000000, -4.000000) translate(21.000000, 0.000000)">
                                <g id="Shape">
                                    <path d="M5.40007915,2 L5.0752407,1.71117256 C4.91690847,1.5332675 5.00842903,1.29625387 5.35014508,1 C5.59999342,1.0962249 5.7999077,1.17033379 6,1.24442689 C5.86672381,1.64433472 5.66663152,1.89634604 5.40007915,2 L5.40007915,2 L5.40007915,2 L5.40007915,2 Z" fill="#21231E"></path>
                                    <path d="M6.59721139,5.68936872 C6.31310839,5.43194101 5.96145854,5.13959078 5.59174625,4.82251283 C4.4783345,4.98155099 4.55312415,4.72504252 4.21892026,4.27681173 C3.72789067,3.61824432 2.7926324,4.12880306 2.61727938,4.99295244 C2.51687423,5.48754753 2.3554444,5.50274947 1.88503063,5.02715519 C-0.57309336,2.54082952 -0.698560239,0.78267674 1.9308648,0.491963911 L1.93091385,0.491949356 C2.52044996,-0.680265703 4.12001818,0.523873429 3.93427024,1.19555656 C3.86148996,1.45916465 9.74276967,8.13338197 7.48262546,7.70699992 C6.45104406,7.51223721 5.37348451,8.16604997 4.35101647,7.95894781 C4.18253011,7.90669518 4.12666334,7.83487411 3.81454668,7.21563767 C4.00786331,7.22337067 4.18670593,7.21347518 4.35487069,7.19234502 C2.14567011,7.22415017 0.863923722,6.49861256 0.572246785,5.01224435 C1.45201801,6.08427216 2.5010825,6.61459343 3.69309695,6.31265704 C5.30122476,5.90547148 6.22110425,5.61323846 6.58785359,5.68581963 C6.5909551,5.686945 6.59407455,5.68812819 6.59721139,5.68936872 L6.59721139,5.68936872 L6.59721139,5.68936872 Z" fill="#F2C500"></path>
                                </g>
                            </g>
                        </g>
                        <g transform="translate(2.500000, 17.000000)">
                            <path d="M23.4994853,0.5 L23.4994853,19.2941742 L23.4994853,19.2948666 C23.4993154,22.655693 22.2078584,25.7069763 20.1249739,27.9179232 C18.0416605,30.1290433 15.1669178,31.5 12.0001716,31.5 L11.9991422,31.5 C8.8325675,31.4998286 5.95765329,30.1290779 3.87485455,27.9180963 C1.7915411,25.7071494 0.500171565,22.655693 0.5,19.2946935 L0.5,0.500519367 L23.5,0.500519367 L23.4994853,0.5 L23.4994853,0.5 L23.4994853,0.5 Z" id="Shape" fill="#A4A4A4"></path>
                            <path d="M22.9995077,1 L22.9995077,19.1879105 L22.9995077,19.1885806 C22.9993452,22.4409932 21.7640385,25.393848 19.7717142,27.5334741 C17.7789796,29.6732677 15.0292257,31 12.0001641,31 L11.9991795,31 C8.97028196,30.9998341 6.22036402,29.6733012 4.22812174,27.5336416 C2.23538714,25.3940155 1.00016411,22.4409932 1,19.1884131 L1,1.00050261 L23,1.00050261 L22.9995077,1 L22.9995077,1 L22.9995077,1 Z" id="Shape" fill="#C6363C"></path>
                            <g id="path1563" transform="translate(18.500000, 7.000000) scale(-1, 1) translate(-18.500000, -7.000000) translate(16.000000, 3.000000)" fill="#FFFFFF">
                                <path d="M5,7.33866061 L5,0.661461369 C3.59692876,0.270516454 0.180431044,-1.14131961 0.00274201783,1.95398352 C-0.0795424262,3.3847319 1.71406437,4.32854775 2.19762768,3.06458081 C2.4266072,2.46660214 2.17724918,2.04294267 1.83984001,1.90631228 C1.47551194,1.75870969 1.11428195,2.06408745 1.21078152,2.5192646 C-0.241498433,1.73199309 2.50830482,0.0604947619 3.74989869,2.23602138 C4.11152209,2.8695158 3.13969097,3.52993564 3.13834683,3.99958564 C3.13719939,4.46952424 4.09326142,5.17303155 3.74989869,5.76416851 C2.49274883,7.9294071 -0.241711529,6.26821378 1.21078152,5.48092529 C1.11427211,5.93609395 1.47570864,6.2414751 1.83984001,6.09387761 C2.17705575,5.95724722 2.4264105,5.53358774 2.19762768,4.93540536 C1.71391685,3.67160818 -0.0795457046,4.61547497 0.00274201783,6.04620637 C0.180381868,9.14127182 3.5968468,7.72946971 5,7.3385248 L5,7.33866061 L5,7.33866061 L5,7.33866061 Z" id="Shape"></path>
                            </g>
                            <path d="M23,12.1563103 L23,16.8438103 L14.2918034,16.8438103 L14.2918034,30.740946 C13.552305,30.9102308 12.7856627,31 12.0001641,31 L11.9993436,31 C11.2140419,31 10.4475965,30.9104352 9.70836069,30.740946 L9.70836069,16.8438103 L1,16.8438103 L1,12.1563103 L9.70836069,12.1563103 L9.70836069,1 L14.2918034,1 L14.2918034,12.1563103 L23,12.1563103 L23,12.1563103 L23,12.1563103 Z" id="Shape" fill="#FFFFFF"></path>
                            <g id="path1563" transform="translate(3.000000, 3.000000)" fill="#FFFFFF">
                                <path d="M5,7.33866061 L5,0.661461369 C3.59692876,0.270516454 0.180431044,-1.14131961 0.00274201783,1.95398352 C-0.0795424262,3.3847319 1.71406437,4.32854775 2.19762768,3.06458081 C2.4266072,2.46660214 2.17724918,2.04294267 1.83984001,1.90631228 C1.47551194,1.75870969 1.11428195,2.06408745 1.21078152,2.5192646 C-0.241498433,1.73199309 2.50830482,0.0604947619 3.74989869,2.23602138 C4.11152209,2.8695158 3.13969097,3.52993564 3.13834683,3.99958564 C3.13719939,4.46952424 4.09326142,5.17303155 3.74989869,5.76416851 C2.49274883,7.9294071 -0.241711529,6.26821378 1.21078152,5.48092529 C1.11427211,5.93609395 1.47570864,6.2414751 1.83984001,6.09387761 C2.17705575,5.95724722 2.4264105,5.53358774 2.19762768,4.93540536 C1.71391685,3.67160818 -0.0795457046,4.61547497 0.00274201783,6.04620637 C0.180381868,9.14127182 3.5968468,7.72946971 5,7.3385248 L5,7.33866061 L5,7.33866061 L5,7.33866061 Z" id="Shape"></path>
                            </g>
                            <path d="M8,25.3386606 L8,18.6614614 C6.59692876,18.2705165 3.18043104,16.8586804 3.00274202,19.9539835 C2.92045757,21.3847319 4.71406437,22.3285478 5.19762768,21.0645808 C5.4266072,20.4666021 5.17724918,20.0429427 4.83984001,19.9063123 C4.47551194,19.7587097 4.11428195,20.0640874 4.21078152,20.5192646 C2.75850157,19.7319931 5.50830482,18.0604948 6.74989869,20.2360214 C7.11152209,20.8695158 6.13969097,21.5299356 6.13834683,21.9995856 C6.13719939,22.4695242 7.09326142,23.1730315 6.74989869,23.7641685 C5.49274883,25.9294071 2.75828847,24.2682138 4.21078152,23.4809253 C4.11427211,23.936094 4.47570864,24.2414751 4.83984001,24.0938776 C5.17705575,23.9572472 5.4264105,23.5335877 5.19762768,22.9354054 C4.71391685,21.6716082 2.9204543,22.615475 3.00274202,24.0462064 C3.18038187,27.1412718 6.5968468,25.7294697 8,25.3385248 L8,25.3386606 L8,25.3386606 L8,25.3386606 Z" id="path1563" fill="#FFFFFF"></path>
                            <g id="path1563" transform="translate(18.500000, 22.000000) scale(-1, 1) translate(-18.500000, -22.000000) translate(16.000000, 18.000000)" fill="#FFFFFF">
                                <path d="M5,7.33866061 L5,0.661461369 C3.59692876,0.270516454 0.180431044,-1.14131961 0.00274201783,1.95398352 C-0.0795424262,3.3847319 1.71406437,4.32854775 2.19762768,3.06458081 C2.4266072,2.46660214 2.17724918,2.04294267 1.83984001,1.90631228 C1.47551194,1.75870969 1.11428195,2.06408745 1.21078152,2.5192646 C-0.241498433,1.73199309 2.50830482,0.0604947619 3.74989869,2.23602138 C4.11152209,2.8695158 3.13969097,3.52993564 3.13834683,3.99958564 C3.13719939,4.46952424 4.09326142,5.17303155 3.74989869,5.76416851 C2.49274883,7.9294071 -0.241711529,6.26821378 1.21078152,5.48092529 C1.11427211,5.93609395 1.47570864,6.2414751 1.83984001,6.09387761 C2.17705575,5.95724722 2.4264105,5.53358774 2.19762768,4.93540536 C1.71391685,3.67160818 -0.0795457046,4.61547497 0.00274201783,6.04620637 C0.180381868,9.14127182 3.5968468,7.72946971 5,7.3385248 L5,7.33866061 L5,7.33866061 L5,7.33866061 Z" id="Shape"></path>
                            </g>
                        </g>
                    </g>
                </g>
            </g>
        </g>
    </g>
</svg>