<?xml version="1.0" encoding="UTF-8" standalone="no"?>
<svg width="180px" height="180px" viewBox="0 0 180 180" version="1.1" xmlns="http://www.w3.org/2000/svg" xmlns:xlink="http://www.w3.org/1999/xlink">
    <!-- Generator: Sketch 3.8.3 (29802) - http://www.bohemiancoding.com/sketch -->
    <title>seychelles</title>
    <desc>Created with Sketch.</desc>
    <defs></defs>
    <g id="Page-1" stroke="none" stroke-width="1" fill="none" fill-rule="evenodd">
        <g id="flags" transform="translate(-2340.000000, -5040.000000)">
            <g id="seychelles" transform="translate(2340.000000, 5040.000000)">
                <ellipse id="white" fill="#FFFFFF" cx="89.9972382" cy="90" rx="89.9972382" ry="90"></ellipse>
                <path d="M99.6097456,0.507330671 L5.95410085,122.259669 C2.10787015,112.245127 0,101.368731 0,90 C0,40.2943701 40.2931336,0 89.9972382,0 C93.2444448,0 96.4514843,0.171980692 99.6097456,0.507330671 L99.6097456,0.507330671 Z" id="blue" fill="#227FBB"></path>
                <path d="M15.2513117,140.143553 L160.582461,34.1603076 C145.96914,15.711913 124.277263,3.12657283 99.6097456,0.507330671 L5.95410085,122.259669 C8.38818036,128.597352 11.518469,134.589867 15.2513117,140.143553 L15.2513117,140.143553 Z" id="yellow" fill="#F2C500"></path>
                <path d="M15.2513117,140.143553 L160.582461,34.1603076 C172.736889,49.5045049 179.994476,68.9046757 179.994476,90 C179.994476,95.251471 179.544715,100.397891 178.681613,105.402841 L25.0820572,152.336038 C21.4657591,148.570837 18.1738596,144.491691 15.2513117,140.143553 L15.2513117,140.143553 Z" id="red" fill="#E94B35"></path>
                <path d="M37.0624984,162.793403 L166.358575,137.652499 C150.455703,163.084035 122.201879,180 89.9972382,180 C70.211806,180 51.9175914,173.615146 37.0624984,162.793403 L37.0624984,162.793403 Z" id="green" fill="#00A185"></path>
            </g>
        </g>
    </g>
</svg>