<?xml version="1.0" encoding="UTF-8" standalone="no"?>
<svg width="180px" height="180px" viewBox="0 0 180 180" version="1.1" xmlns="http://www.w3.org/2000/svg" xmlns:xlink="http://www.w3.org/1999/xlink">
    <!-- Generator: Sketch 3.8.3 (29802) - http://www.bohemiancoding.com/sketch -->
    <title>singapore</title>
    <desc>Created with Sketch.</desc>
    <defs></defs>
    <g id="Page-1" stroke="none" stroke-width="1" fill="none" fill-rule="evenodd">
        <g id="flags" transform="translate(-180.000000, -5310.000000)">
            <g id="singapore" transform="translate(180.000000, 5310.000000)">
                <path d="M180,90 C180,139.70563 139.70563,180 90,180 C40.2943701,180 0,139.70563 0,90 L180,90 L180,90 L180,90 L180,90 L180,90 Z" id="white" fill="#FFFFFF"></path>
                <path d="M180,90 C180,40.2943701 139.70563,0 90,0 C40.2943701,0 0,40.2943701 0,90 L180,90 L180,90 L180,90 L180,90 L180,90 Z" id="red" fill="#E94B35"></path>
                <path d="M98.965545,30.3882158 L94.8797947,32.597594 L95.6601034,27.9180564 L92.3546614,24.6039895 L96.9226704,23.9212535 L98.9655452,19.6636701 L101.008421,23.9212546 L105.57643,24.6039929 L102.270987,27.9180572 L103.051295,32.5975941 L98.965545,30.3882158 L98.965545,30.3882158 L98.965545,30.3882158 L98.965545,30.3882158 L98.965545,30.3882158 Z M113.367682,40.8519796 L110.003872,37.6489356 L114.695505,36.9449966 L116.825932,32.7772315 L118.886845,36.9106892 L123.567331,37.537913 L120.149411,40.7964695 L120.91168,45.3518816 L116.73838,43.2323205 L112.529004,45.4204947 L113.367682,40.8519796 L113.367682,40.8519796 L113.367682,40.8519796 L113.367682,40.8519796 L113.367682,40.8519796 Z M107.866556,57.7827064 L109.873357,53.5937382 L111.992638,57.8382176 L116.614756,58.576464 L113.320461,61.8138173 L114.170286,66.4590463 L110.015019,64.2153605 L105.918119,66.3480217 L106.64432,61.7239966 L103.262474,58.3968258 L107.866556,57.7827064 L107.866556,57.7827064 L107.866556,57.7827064 L107.866556,57.7827064 L107.866556,57.7827064 Z M90.0645365,57.7827073 L94.6686179,58.3968266 L91.2867717,61.7239981 L92.0129707,66.3480245 L87.9160717,64.2153612 L83.7608066,66.4590468 L84.6106305,61.8138162 L81.3163374,58.5764612 L85.9384553,57.8382177 L88.0577349,53.5937388 L90.0645365,57.7827073 L90.0645365,57.7827073 L90.0645365,57.7827073 L90.0645365,57.7827073 L90.0645365,57.7827073 Z M84.5634092,40.8519809 L85.4020865,45.4204958 L81.1927103,43.2323215 L77.0194077,45.3518806 L77.7816796,40.7964689 L74.3637603,37.5379138 L79.0442471,36.9106892 L81.1051621,32.7772326 L83.2355865,36.9449981 L87.9272192,37.6489368 L84.5634092,40.8519809 L84.5634092,40.8519809 Z M92.432669,75.0671443 C90.7422662,75.3517692 89.0049485,75.5 87.232669,75.5 C70.2222979,75.5 56.432669,61.8446857 56.432669,45 C56.432669,28.1553143 70.2222979,14.5 87.232669,14.5 C89.0049485,14.5 90.7422662,14.6482308 92.432669,14.9328557 C77.8985543,17.3800656 66.832669,29.9103313 66.832669,45 C66.832669,60.0896687 77.8985543,72.6199344 92.432669,75.0671443 C92.432669,75.0671443 77.8985543,72.6199344 92.432669,75.0671443 L92.432669,75.0671443 Z" id="stars" fill="#FFFFFF"></path>
            </g>
        </g>
    </g>
</svg>