<?xml version="1.0" encoding="UTF-8" standalone="no"?>
<svg width="180px" height="180px" viewBox="0 0 180 180" version="1.1" xmlns="http://www.w3.org/2000/svg" xmlns:xlink="http://www.w3.org/1999/xlink">
    <!-- Generator: Sketch 3.8.3 (29802) - http://www.bohemiancoding.com/sketch -->
    <title>sint_maarten</title>
    <desc>Created with Sketch.</desc>
    <defs></defs>
    <g id="Page-1" stroke="none" stroke-width="1" fill="none" fill-rule="evenodd">
        <g id="flags" transform="translate(-450.000000, -5310.000000)">
            <g id="sint_maarten" transform="translate(450.000000, 5310.000000)">
                <circle id="white" fill="#FFFFFF" cx="90" cy="90" r="90"></circle>
                <path d="M31.7193952,22.1257907 L129.023438,90 L180,90 C180,40.2943701 139.928251,0 90.4972376,0 C68.0012059,0 47.4436238,8.34559249 31.7193952,22.1257907 C31.7193952,22.1257907 47.4436238,8.34559249 31.7193952,22.1257907 L31.7193952,22.1257907 L31.7193952,22.1257907 L31.7193952,22.1257907 Z" id="blue" fill="#227FBB"></path>
                <path d="M31.7193952,111.673207 L129.023438,179.547416 L180,179.547416 C180,133.250259 145.235516,95.1178957 100.524229,90.1058838 L81.4651388,90 C62.5179739,91.9092486 45.3126476,99.760526 31.7193952,111.673207 C31.7193952,111.673207 45.3126476,99.760526 31.7193952,111.673207 L31.7193952,111.673207 L31.7193952,111.673207 L31.7193952,111.673207 Z" id="red" fill="#E94B35" transform="translate(105.859698, 134.773708) scale(1, -1) translate(-105.859698, -134.773708) "></path>
                <g id="emblem" transform="translate(23.000000, 64.000000)">
                    <g id="sun" transform="translate(13.768479, 0.265549)">
                        <path d="M24.0106718,10.2125632 L24.0372351,9.20659071 C24.0372351,9.20659071 23.4970528,8.34617532 24.1240186,7.42165581 C24.1240186,7.42165581 22.79216,6.71706897 23.1020992,5.61370253 C23.1020992,5.61370253 21.8977594,5.30576595 21.9863118,3.98105309 C21.9863118,3.98105309 20.6863322,3.89092276 20.5517288,2.7841936 C20.5517288,2.7841936 19.2517492,2.99827932 18.679685,1.91988024 C18.679685,1.91988024 17.4115843,2.1677881 17.0538253,1.27886228 C17.0538253,1.27886228 15.8211444,1.70579451 15.0896853,0.6608656 C15.0896853,0.6608656 13.7879339,1.18678296 13.2424388,0.200466104 C12.7040254,1.18341733 11.402274,0.6608656 11.402274,0.6608656 C10.6796684,1.7020769 9.43813403,1.27000749 9.43813403,1.27000749 C9.09277217,2.1624764 7.82821235,1.90925682 7.82821235,1.90925682 C7.25792289,2.98783044 5.95971515,2.77338982 5.95971515,2.77338982 C5.83219634,3.87675626 4.53398569,3.96688951 4.53398569,3.96688951 C4.63671006,5.29496508 3.43413924,5.5961704 3.43413924,5.5961704 C3.75116294,6.69935939 2.42107331,7.4021776 2.42107331,7.4021776 C3.06398003,8.33200882 2.52911036,9.18551841 2.52911036,9.18551841 L2.49900325,10.1132232 L24.0142126,10.2125632 L24.010663,10.2125632" id="Shape" fill="#F9D90F"></path>
                        <path d="M11.5758437,4.03949062 C11.5758437,4.03949062 13.0139704,4.91779012 13.8587793,4.8046385 C14.3405163,4.74248336 13.5754064,4.83456559 12.9466688,4.3121884 C12.3055339,3.78998866 12.1691587,2.71867282 13.6338517,2.74700582 C15.0914601,2.7841936 20.5481909,3.09230471 20.6509124,3.58263129 C20.7465522,4.07844703 17.7658055,4.28562695 16.6571027,4.25729395 C15.5430871,4.22736687 15.6723778,4.79047201 16.7810807,4.74797252 C20.2453334,4.62402004 24.0266127,3.40378437 28.0204224,6.22833648 C28.4968439,6.57168639 26.8160797,6.62658083 25.5161001,6.07410202 C25.5161001,6.07410202 21.9933992,6.25666656 20.470261,6.00699006 C20.470261,6.00699006 19.299572,6.95948477 17.7746619,6.86581136 C17.9730232,7.35967811 17.2114541,9.20322508 12.4171118,7.81653744 C11.6254355,8.05931104 8.74032867,8.54255147 9.05558342,7.68567625 C8.29578325,7.68567625 6.96392467,7.93004394 6.76556337,7.4978 C6.57428662,7.07299128 9.11048497,6.43002724 9.55503039,5.96980228 C9.55503039,5.96980228 4.19039569,6.02115656 3.17379185,5.6508874 C3.17379185,5.6508874 0.00885295265,6.3609663 0.194817033,5.7449157 C0.474649084,5.07361867 3.06752667,3.23378932 11.5758437,4.03949062 L11.5758437,4.03949062 Z" id="path330-0" fill="#BC715F"></path>
                    </g>
                    <g id="shield" transform="translate(8.570618, 7.773571)">
                        <path d="M11.2266496,1.11793496 C9.93021086,1.34990479 6.8378863,1.60117538 6.8378863,1.60117538 C4.37961207,1.76426463 2.14980915,1.03807315 0.0138742099,0.0836294623 C0.692203627,3.93327739 1.44491635,7.87872517 1.81507265,11.9089945 C2.62092087,17.8780753 -1.00981707,22.8895243 0.479670341,28.7861815 C1.36875827,31.6156905 4.48056458,33.2607348 7.32847978,33.586733 C10.0860678,33.7494673 12.9392928,34.2011895 15.491435,34.7552624 C15.9625609,34.8532524 17.7532038,35.1388299 18.4933865,36.3069513 C19.2991475,35.1388299 21.0897904,34.8532524 21.5609163,34.7552624 C24.1130585,34.2011895 26.9662835,33.7494673 29.7238715,33.586733 C32.5717867,33.2607348 35.683593,31.6156905 36.572681,28.7861815 C38.0621684,22.8895243 34.4314304,17.8780753 35.2372787,11.9089945 C35.607435,7.87872517 36.3601477,3.93327739 37.0384771,0.0836294623 C34.9025421,1.03807315 32.6727392,1.76426463 30.214465,1.60117538 C30.214465,1.60117538 27.1221404,1.34990479 25.8257017,1.11793496 C23.4505025,0.886976861 20.5388868,1.15501195 18.5261756,2.32621612 C16.5134645,1.15501195 13.6018488,0.886976861 11.2266496,1.11793496 L11.2266496,1.11793496 Z" id="path186-1" fill="#DC171D"></path>
                        <path d="M18.4604378,33.0767941 C18.2500418,32.909132 17.7909721,32.5570352 17.4662003,32.4074027 C14.3951294,30.7747533 10.4030944,31.3217429 6.93706986,30.4399003 C5.19608565,29.8893705 3.38071813,28.5329619 2.93971644,26.7513927 C1.80621915,22.0767427 4.52129996,18.092513 4.20073253,13.4548734 C3.99351483,9.91333657 3.39842803,6.51346471 2.5801855,3.19327431 C5.28995362,4.45565458 8.42655727,4.66637467 11.4728309,4.0609504 C13.7103705,3.74820751 16.3119171,3.73880662 18.5181529,4.66941931 C20.7243886,3.73880662 23.3259352,3.74820751 25.5634749,4.0609504 C28.6097485,4.66637467 31.7463521,4.45565458 34.4561202,3.19327431 C33.6378777,6.51346471 33.0427909,9.91333657 32.8355732,13.4548734 C32.5150058,18.092513 35.2300866,22.0767427 34.0965893,26.7513927 C33.6555876,28.5329619 31.8402201,29.8893705 30.0992359,30.4399003 C26.6332113,31.3217429 22.6411764,30.7747533 19.5701054,32.4074027 C19.2453337,32.5570352 18.7862639,32.909132 18.5758679,33.0767941 C18.482647,33.1519 18.4604378,33.0767941 18.4604378,33.0767941 L18.4604378,33.0767941 Z" id="path188-6" fill="#62AFE1"></path>
                        <g id="house" transform="translate(5.775401, 4.620321)">
                            <polygon id="Rectangle-3" fill="#000000" points="1.53633373 17.926964 0.958793621 17.926964 0.958793621 16.4831137 2.11387384 16.4831137 2.11387384 11.5740228 0.958793621 11.5740228 9.33312517 6.08739182 9.33312517 3.77723139 8.17804496 3.77723139 12.6539808 0.6007608 17.1299166 3.77723139 15.9748364 3.77723139 15.9748364 6.08739182 24.349168 11.5740228 23.1940877 11.5740228 23.1940877 16.4831137 23.1940877 16.4831137 24.349168 16.4831137 24.349168 17.926964 23.7716278 17.926964 23.7716278 23.124825 25.7930182 23.124825 25.7930182 25.1462153 0.092483461 25.1462153 0.092483461 23.124825 1.53633373 23.124825 1.53633373 17.926964"></polygon>
                            <polygon id="Rectangle-3" fill="#FFFFFF" points="2.40264389 11.2852528 1.96948881 11.2852528 9.62189523 6.28952997 9.62189523 3.48846133 9.18874015 3.48846133 12.6539808 0.976162751 16.1192214 3.48846133 15.6860663 3.48846133 15.6860663 6.28952997 23.3384728 11.2852528 22.9053177 11.2852528 22.9053177 16.4831137 2.40264389 16.4831137"></polygon>
                            <rect id="Rectangle-3" fill="#FFFFFF" x="0.381253514" y="23.413595" width="25.1229947" height="1.44385027"></rect>
                            <rect id="Rectangle-3" fill="#FFFFFF" x="1.82510378" y="17.926964" width="0.86631016" height="5.19786096"></rect>
                            <rect id="Rectangle-3" fill="#FFFFFF" x="22.6165476" y="17.926964" width="0.86631016" height="5.19786096"></rect>
                            <polygon id="Rectangle-3" fill="#FFFFFF" points="1.24756367 17.638194 1.24756367 16.7718838 24.0603979 16.7718838 24.0603979 17.638194 22.3277776 17.638194 22.3277776 23.124825 2.980184 23.124825 2.980184 17.638194"></polygon>
                            <rect id="Rectangle-9" fill="#000000" x="2.69141394" y="17.638194" width="0.288770053" height="5.77540107"></rect>
                            <rect id="Rectangle-15" fill="#000000" x="8.17804496" y="14.1729533" width="9.24064171" height="9.24064171"></rect>
                            <rect id="Rectangle-15" fill="#FFFFFF" x="8.46681501" y="14.4617234" width="8.6631016" height="2.31016043"></rect>
                            <rect id="Rectangle-15" fill="#FFFFFF" x="8.46681501" y="17.0606538" width="0.86631016" height="6.06417112"></rect>
                            <rect id="Rectangle-15" fill="#FFFFFF" x="9.62189523" y="17.0606538" width="6.35294118" height="6.06417112"></rect>
                            <rect id="Rectangle-15" fill="#FFFFFF" x="16.2636065" y="17.0606538" width="0.86631016" height="6.06417112"></rect>
                            <g id="window" transform="translate(3.557724, 11.574023)">
                                <g id="bottom-left" transform="translate(0.000000, 6.352941)">
                                    <rect id="Rectangle-11" fill="#000000" x="0" y="0" width="3.17647059" height="4.04278075"></rect>
                                    <rect id="Rectangle-12" fill="#FFFFFF" x="0.288770053" y="0.288770053" width="2.59893048" height="3.46524064"></rect>
                                    <rect id="Rectangle-13" fill="#000000" x="0.86631016" y="0.86631016" width="1.44385027" height="2.31016043"></rect>
                                    <rect id="Rectangle-14" fill="#FFFFFF" x="1.15508021" y="1.15508021" width="0.86631016" height="1.73262032"></rect>
                                </g>
                                <g id="bottom-right" transform="translate(15.016043, 6.352941)">
                                    <rect id="Rectangle-11" fill="#000000" x="0" y="0" width="3.17647059" height="4.04278075"></rect>
                                    <rect id="Rectangle-12" fill="#FFFFFF" x="0.288770053" y="0.288770053" width="2.59893048" height="3.46524064"></rect>
                                    <rect id="Rectangle-13" fill="#000000" x="0.86631016" y="0.86631016" width="1.44385027" height="2.31016043"></rect>
                                    <rect id="Rectangle-14" fill="#FFFFFF" x="1.15508021" y="1.15508021" width="0.86631016" height="1.73262032"></rect>
                                </g>
                                <g id="top-left">
                                    <rect id="Rectangle-11" fill="#000000" x="0" y="0" width="3.17647059" height="4.04278075"></rect>
                                    <rect id="Rectangle-12" fill="#FFFFFF" x="0.288770053" y="0.288770053" width="2.59893048" height="3.46524064"></rect>
                                    <rect id="Rectangle-13" fill="#000000" x="0.86631016" y="0.86631016" width="1.44385027" height="2.31016043"></rect>
                                    <rect id="Rectangle-14" fill="#FFFFFF" x="1.15508021" y="1.15508021" width="0.86631016" height="1.73262032"></rect>
                                </g>
                                <g id="top-right" transform="translate(15.016043, 0.000000)">
                                    <rect id="Rectangle-11" fill="#000000" x="0" y="0" width="3.17647059" height="4.04278075"></rect>
                                    <rect id="Rectangle-12" fill="#FFFFFF" x="0.288770053" y="0.288770053" width="2.59893048" height="3.46524064"></rect>
                                    <rect id="Rectangle-13" fill="#000000" x="0.86631016" y="0.86631016" width="1.44385027" height="2.31016043"></rect>
                                    <rect id="Rectangle-14" fill="#FFFFFF" x="1.15508021" y="1.15508021" width="0.86631016" height="1.73262032"></rect>
                                </g>
                                <polygon id="center-left" fill="#000000" points="7.79679144 2.59893048 7.79679144 2.88770053 7.50802139 2.88770053 7.50802139 2.88770053 7.50802139 1.15508021 6.64171123 1.15508021 6.64171123 2.88770053 6.35294118 2.88770053 6.35294118 0.86631016 7.79679144 0.86631016 7.79679144 2.59893048 7.50802139 2.59893048 7.50802139 2.88770053 8.6631016 2.88770053 8.6631016 2.59893048 8.37433155 2.59893048 8.37433155 0.288770053 5.77540107 0.288770053 5.77540107 2.88770053 5.48663102 2.88770053 5.48663102 0 8.6631016 0 8.6631016 2.88770053 8.37433155 2.88770053 8.37433155 2.88770053 8.37433155 2.59893048"></polygon>
                                <polygon id="center-right" fill="#000000" points="12.1283422 2.59893048 12.1283422 2.88770053 11.8395722 2.88770053 11.8395722 2.88770053 11.8395722 1.15508021 10.973262 1.15508021 10.973262 2.88770053 10.684492 2.88770053 10.684492 0.86631016 12.1283422 0.86631016 12.1283422 2.59893048 11.8395722 2.59893048 11.8395722 2.88770053 12.9946524 2.88770053 12.9946524 2.59893048 12.7058824 2.59893048 12.7058824 0.288770053 10.1069519 0.288770053 10.1069519 2.88770053 9.81818182 2.88770053 9.81818182 0 12.9946524 0 12.9946524 2.88770053 12.7058824 2.88770053 12.7058824 2.88770053 12.7058824 2.59893048"></polygon>
                            </g>
                            <path d="M23.1938983,0.211036616 C22.1119505,0.192963343 22.1444768,4.82699844 22.1444768,4.82699844 C21.384902,5.08700121 20.0775559,5.99084526 19.5183626,6.71043249 L19.3376516,6.94297708 L19.6321567,6.94341324 L26.8015336,6.95403084 L27.0973203,6.95446889 L26.9157141,6.72099698 C26.3529724,5.99753951 25.0466765,5.09932739 24.275846,4.83383973 C24.275846,4.83383973 24.275846,0.229109889 23.1938983,0.211036616 L23.1938983,0.211036616 Z" id="Shape" fill="#000000"></path>
                            <path d="M26.4650002,6.66493192 L19.9522641,6.65071075 C20.5801084,5.99191667 21.7175858,5.24459648 22.3229563,5.07353065 L22.4280785,5.04382519 L22.4280785,4.93458655 C22.4280785,2.60142071 22.7214988,0.48874632 23.1870901,0.499726402 C23.6635102,0.510961862 23.9785954,2.66063897 23.9812452,4.93811436 L23.9813724,5.04743925 L24.0866346,5.07696574 C24.6966962,5.24809052 25.8285327,5.98425886 26.4650002,6.66493192 L26.4650002,6.66493192 Z" id="Path" fill="#FFFFFF"></path>
                            <path d="M9.55230154,14.4617234 L8.53478862,14.4617234 L8.76555215,14.9872409 C8.70487434,15.0870664 8.66816015,15.1991143 8.65274303,15.3201739 C8.62966731,15.5013709 8.65459768,15.6900687 8.70958198,15.8743149 C8.73396698,15.9560264 8.74439028,15.9653665 8.76197213,16.0031287 L8.54404467,16.4831137 L9.5350018,16.4831137 L9.32274007,15.9783122 C9.46787676,15.6696855 9.46112873,15.3637334 9.36088569,15.0897198 C9.3481107,15.0547994 9.33516081,15.0240952 9.32286175,14.9979147 C9.30885702,14.9681034 9.55230154,14.4617234 9.55230154,14.4617234 L9.55230154,14.4617234 Z M9.08969327,15.1889307 C9.17022919,15.4090751 9.17083522,15.6531467 9.0382302,15.9016361 C9.0382302,15.9016361 9.00632125,15.8588492 8.98629294,15.7917366 C8.94185116,15.6428171 8.92194461,15.4921447 8.93919949,15.3566546 C8.95224221,15.2542394 8.98612939,15.1657262 9.04340637,15.0921687 C9.04340637,15.0921687 9.06985892,15.1347137 9.08969327,15.1889307 L9.08969327,15.1889307 Z M8.95513673,14.7529962 L9.13267462,14.7529962 L9.04390567,14.9307456 L8.95513673,14.7529962 L8.95513673,14.7529962 Z M8.95513673,16.1988293 L9.13267462,16.1988293 L9.04390567,16.0210799 L8.95513673,16.1988293 L8.95513673,16.1988293 Z" id="Shape" fill="#000000"></path>
                            <path d="M10.9961518,14.4617234 L9.97863888,14.4617234 L10.2094024,14.9872409 C10.1487246,15.0870664 10.1120104,15.1991143 10.0965933,15.3201739 C10.0735176,15.5013709 10.0984479,15.6900687 10.1534322,15.8743149 C10.1778172,15.9560264 10.1882405,15.9653665 10.2058224,16.0031287 L9.98789494,16.4831137 L10.9788521,16.4831137 L10.7665903,15.9783122 C10.911727,15.6696855 10.904979,15.3637334 10.804736,15.0897198 C10.791961,15.0547994 10.7790111,15.0240952 10.766712,14.9979147 C10.7527073,14.9681034 10.9961518,14.4617234 10.9961518,14.4617234 L10.9961518,14.4617234 Z M10.5335435,15.1889307 C10.6140795,15.4090751 10.6146855,15.6531467 10.4820805,15.9016361 C10.4820805,15.9016361 10.4501715,15.8588492 10.4301432,15.7917366 C10.3857014,15.6428171 10.3657949,15.4921447 10.3830498,15.3566546 C10.3960925,15.2542394 10.4299797,15.1657262 10.4872566,15.0921687 C10.4872566,15.0921687 10.5137092,15.1347137 10.5335435,15.1889307 L10.5335435,15.1889307 Z M10.398987,14.7529962 L10.5765249,14.7529962 L10.4877559,14.9307456 L10.398987,14.7529962 L10.398987,14.7529962 Z M10.398987,16.1988293 L10.5765249,16.1988293 L10.4877559,16.0210799 L10.398987,16.1988293 L10.398987,16.1988293 Z" id="Shape" fill="#000000"></path>
                            <path d="M12.4400021,14.4617234 L11.4224892,14.4617234 L11.6532527,14.9872409 C11.5925749,15.0870664 11.5558607,15.1991143 11.5404436,15.3201739 C11.5173678,15.5013709 11.5422982,15.6900687 11.5972825,15.8743149 C11.6216675,15.9560264 11.6320908,15.9653665 11.6496727,16.0031287 L11.4317452,16.4831137 L12.4227023,16.4831137 L12.2104406,15.9783122 C12.3555773,15.6696855 12.3488293,15.3637334 12.2485862,15.0897198 C12.2358112,15.0547994 12.2228613,15.0240952 12.2105623,14.9979147 C12.1965576,14.9681034 12.4400021,14.4617234 12.4400021,14.4617234 L12.4400021,14.4617234 Z M11.9773938,15.1889307 C12.0579297,15.4090751 12.0585358,15.6531467 11.9259307,15.9016361 C11.9259307,15.9016361 11.8940218,15.8588492 11.8739935,15.7917366 C11.8295517,15.6428171 11.8096451,15.4921447 11.8269,15.3566546 C11.8399427,15.2542394 11.8738299,15.1657262 11.9311069,15.0921687 C11.9311069,15.0921687 11.9575595,15.1347137 11.9773938,15.1889307 L11.9773938,15.1889307 Z M11.8428373,14.7529962 L12.0203752,14.7529962 L11.9316062,14.9307456 L11.8428373,14.7529962 L11.8428373,14.7529962 Z M11.8428373,16.1988293 L12.0203752,16.1988293 L11.9316062,16.0210799 L11.8428373,16.1988293 L11.8428373,16.1988293 Z" id="Shape" fill="#000000"></path>
                            <path d="M13.8838523,14.4617234 L12.8663394,14.4617234 L13.097103,14.9872409 C13.0364251,15.0870664 12.999711,15.1991143 12.9842938,15.3201739 C12.9612181,15.5013709 12.9861485,15.6900687 13.0411328,15.8743149 C13.0655178,15.9560264 13.0759411,15.9653665 13.0935229,16.0031287 L12.8755955,16.4831137 L13.8665526,16.4831137 L13.6542909,15.9783122 C13.7994276,15.6696855 13.7926795,15.3637334 13.6924365,15.0897198 C13.6796615,15.0547994 13.6667116,15.0240952 13.6544125,14.9979147 C13.6404078,14.9681034 13.8838523,14.4617234 13.8838523,14.4617234 L13.8838523,14.4617234 Z M13.4212441,15.1889307 C13.50178,15.4090751 13.502386,15.6531467 13.369781,15.9016361 C13.369781,15.9016361 13.3378721,15.8588492 13.3178437,15.7917366 C13.273402,15.6428171 13.2534954,15.4921447 13.2707503,15.3566546 C13.283793,15.2542394 13.3176802,15.1657262 13.3749572,15.0921687 C13.3749572,15.0921687 13.4014097,15.1347137 13.4212441,15.1889307 L13.4212441,15.1889307 Z M13.2866875,14.7529962 L13.4642254,14.7529962 L13.3754565,14.9307456 L13.2866875,14.7529962 L13.2866875,14.7529962 Z M13.2866875,16.1988293 L13.4642254,16.1988293 L13.3754565,16.0210799 L13.2866875,16.1988293 L13.2866875,16.1988293 Z" id="Shape" fill="#000000"></path>
                            <path d="M15.3277026,14.4617234 L14.3101897,14.4617234 L14.5409532,14.9872409 C14.4802754,15.0870664 14.4435612,15.1991143 14.4281441,15.3201739 C14.4050684,15.5013709 14.4299988,15.6900687 14.484983,15.8743149 C14.509368,15.9560264 14.5197913,15.9653665 14.5373732,16.0031287 L14.3194457,16.4831137 L15.3104029,16.4831137 L15.0981411,15.9783122 C15.2432778,15.6696855 15.2365298,15.3637334 15.1362868,15.0897198 C15.1235118,15.0547994 15.1105619,15.0240952 15.0982628,14.9979147 C15.0842581,14.9681034 15.3277026,14.4617234 15.3277026,14.4617234 L15.3277026,14.4617234 Z M14.8650943,15.1889307 C14.9456303,15.4090751 14.9462363,15.6531467 14.8136313,15.9016361 C14.8136313,15.9016361 14.7817223,15.8588492 14.761694,15.7917366 C14.7172522,15.6428171 14.6973457,15.4921447 14.7146006,15.3566546 C14.7276433,15.2542394 14.7615305,15.1657262 14.8188074,15.0921687 C14.8188074,15.0921687 14.84526,15.1347137 14.8650943,15.1889307 L14.8650943,15.1889307 Z M14.7305378,14.7529962 L14.9080757,14.7529962 L14.8193067,14.9307456 L14.7305378,14.7529962 L14.7305378,14.7529962 Z M14.7305378,16.1988293 L14.9080757,16.1988293 L14.8193067,16.0210799 L14.7305378,16.1988293 L14.7305378,16.1988293 Z" id="Shape" fill="#000000"></path>
                            <path d="M16.7715529,14.4617234 L15.75404,14.4617234 L15.9848035,14.9872409 C15.9241257,15.0870664 15.8874115,15.1991143 15.8719944,15.3201739 C15.8489186,15.5013709 15.873849,15.6900687 15.9288333,15.8743149 C15.9532183,15.9560264 15.9636416,15.9653665 15.9812235,16.0031287 L15.763296,16.4831137 L16.7542531,16.4831137 L16.5419914,15.9783122 C16.6871281,15.6696855 16.6803801,15.3637334 16.580137,15.0897198 C16.567362,15.0547994 16.5544121,15.0240952 16.5421131,14.9979147 C16.5281084,14.9681034 16.7715529,14.4617234 16.7715529,14.4617234 L16.7715529,14.4617234 Z M16.3089446,15.1889307 C16.3894805,15.4090751 16.3900866,15.6531467 16.2574815,15.9016361 C16.2574815,15.9016361 16.2255726,15.8588492 16.2055443,15.7917366 C16.1611025,15.6428171 16.141196,15.4921447 16.1584508,15.3566546 C16.1714936,15.2542394 16.2053807,15.1657262 16.2626577,15.0921687 C16.2626577,15.0921687 16.2891103,15.1347137 16.3089446,15.1889307 L16.3089446,15.1889307 Z M16.1743881,14.7529962 L16.351926,14.7529962 L16.263157,14.9307456 L16.1743881,14.7529962 L16.1743881,14.7529962 Z M16.1743881,16.1988293 L16.351926,16.1988293 L16.263157,16.0210799 L16.1743881,16.1988293 L16.1743881,16.1988293 Z" id="Shape" fill="#000000"></path>
                            <g id="root" transform="translate(4.424034, 1.467071)">
                                <polygon id="Rectangle-42" fill="#000000" points="5.19786096 5.48663102 11.2620321 5.48663102 16.459893 9.52941176 0 9.52941176"></polygon>
                                <polygon id="Rectangle-42" fill="#FFFFFF" points="5.30099312 5.77540107 11.1588999 5.77540107 15.6802148 9.24064171 0.779678263 9.24064171"></polygon>
                                <rect id="Rectangle-44" fill="#000000" x="5.77540107" y="2.59893048" width="4.90909091" height="2.31016043"></rect>
                                <rect id="Rectangle-44" fill="#FFFFFF" x="6.06417112" y="2.88770053" width="4.3315508" height="1.73262032"></rect>
                                <polygon id="Rectangle-46" fill="#000000" points="8.22994652 0 11.2620321 2.31016043 5.19786096 2.31016043"></polygon>
                                <polygon id="Rectangle-46" fill="#FFFFFF" points="8.22994652 0.288770053 10.5112304 2.02139037 5.94866266 2.02139037"></polygon>
                            </g>
                        </g>
                        <g id="flower" transform="translate(3.176471, 4.620321)">
                            <path d="M3.93593509,1.13153614 C4.05105668,0.975885038 4.09710474,0.695926563 4.341517,0.703187256 C4.87284294,0.844671866 5.23414574,1.81682222 5.88767782,1.18643059 C6.11968995,1.13507631 6.20824524,1.45045103 6.399522,1.4876359 C6.52172813,2.02771976 6.95564529,1.37784992 7.27975644,1.41485734 C7.97225203,1.10674332 8.82946099,1.03414221 9.64947247,1.18643059 C9.67426109,1.71588812 9.25983442,2.300243 8.73913383,2.60127378 C8.74975337,3.13445183 9.23326812,3.47620765 9.22441172,4.01257389 C9.14117201,4.212848 9.21024264,4.52786783 8.90738802,4.59338569 C8.52305973,4.52432766 8.14404703,4.48359971 7.82525146,4.26933654 C7.78628795,4.23038013 7.75440897,4.15423594 7.67293822,4.17902586 C7.63397471,4.35787569 7.91380676,4.53512852 8.02361276,4.71734108 C7.83056414,5.04670194 7.50999671,4.74567407 7.24079002,4.74921424 C7.16109113,4.9386875 7.23724047,5.17774058 7.04242872,5.29992152 C6.70237954,5.28930392 6.633306,4.91938383 6.42431935,4.73504775 C6.21001711,4.96701758 6.57486073,5.10513946 6.62622146,5.2892981 C6.49516184,5.98698204 6.51287173,6.66872505 5.81506347,7.12558437 L5.34749547,7.35773165 C5.21997666,7.00712105 5.29967556,6.47571162 5.21466399,6.10916298 C4.93837275,6.55893906 4.72230156,6.9522266 4.31671965,7.33276429 C3.84206712,7.17693574 3.56577879,6.61737368 3.46128256,6.15343401 C3.26292126,5.61335016 3.37627099,4.96701758 3.8031036,4.57567903 C3.6578749,4.29235492 3.16019689,4.35787569 3.0893544,3.95431672 C2.34372622,3.46894986 1.93105977,4.80428613 1.44932561,4.10996782 C1.29346864,3.46204406 1.47943272,2.65616532 1.94877257,2.17274744 C1.84427634,1.90730745 1.49714261,1.97636839 1.29169678,1.82408292 C0.822359829,1.42548367 0.145802274,1.00421803 0.179453111,0.285109805 C1.46349178,-0.199905069 2.99903015,0.156020152 3.93239427,1.13153614 L3.93593509,1.13153614 L3.93593509,1.13153614 Z" id="path332-6" fill="#008830"></path>
                            <path d="M4.60186729,1.05910957 C4.57175727,1.64683009 4.99858988,1.21830375 5.3156165,1.57422606 C5.06766342,1.47683504 4.88701202,2.0027524 4.64437162,1.70172162 L4.49205838,1.84710129 C4.58061367,2.04879206 4.75240867,2.07535351 4.57352913,2.29669992 C4.30786616,2.39763403 4.25473357,2.06490754 4.13075557,1.93369436 C4.10948741,1.87543428 4.17149095,1.76547086 4.07408216,1.72651445 C3.92353787,1.85401 3.76591195,1.90004966 3.55869425,1.87897736 C3.50201793,1.76547086 3.39221193,1.616903 3.5037898,1.53013539 C3.70746377,1.25548862 4.02271852,1.62912051 4.17680363,1.43628453 C4.20159224,1.26628949 4.05282854,1.05910957 4.24587716,0.942062892 C4.37870865,0.96507254 4.5487347,0.8926576 4.60363624,1.05910957 L4.60186729,1.05910957 L4.60186729,1.05910957 Z" id="path334-5" fill="#F9D90F"></path>
                            <path d="M6.19053535,1.54058136 C6.2064792,1.65408787 6.13208717,1.81328205 6.2808596,1.89314386 C6.47390822,1.78848923 6.67935405,1.86818523 6.79093483,2.05959583 C6.78918915,2.16212112 6.82104194,2.29669992 6.68643859,2.34628266 L6.38535583,2.28979412 C6.4065949,2.23118206 6.31096962,2.19417463 6.27377506,2.13750865 C6.14094357,2.0967807 6.06301654,2.20462061 5.96383589,2.27013847 C6.0382192,2.38346753 6.21001711,2.44544523 6.16928173,2.5908249 C5.99217114,2.76772575 5.90538771,2.43853942 5.71057014,2.52158942 C5.57773574,2.47041259 5.75838715,2.19417463 5.54940049,2.1109472 C5.30144742,2.1109472 5.46615788,2.51804634 5.14913417,2.35885506 C5.03578445,2.23118206 4.92420367,2.05959583 5.0464098,1.91616223 C5.17924129,1.82744855 5.40416888,1.85046693 5.51751861,1.96556753 C5.71057014,1.7514818 5.7300519,0.924533671 6.1923043,1.54058136 L6.19053535,1.54058136 L6.19053535,1.54058136 Z" id="path336-8" fill="#F9D90F"></path>
                            <path d="M4.21222633,2.39409386 C4.341517,2.58020148 4.18388817,2.83324361 4.34859863,3.04042353 C4.60717997,2.55718019 4.856902,3.1448978 5.16507221,3.09885814 C5.25894018,3.21395875 5.19695118,3.37350491 5.21466399,3.50436319 C4.83387942,3.6052973 4.37516783,3.72570961 4.03865946,3.42113866 L3.94479149,3.52915602 C4.14492465,3.71526364 4.33443246,3.92580628 4.17503176,4.23746338 C3.88988704,4.29943817 3.44888534,4.30652141 3.3054285,4.01257389 C3.23104228,3.77015517 3.47899536,3.59485133 3.21687321,3.39988892 C3.0273654,3.63540183 3.0362218,3.95077364 2.64126816,3.73633594 C2.39685881,3.60175713 2.32424446,3.32392217 2.44644768,3.09000336 C2.7014853,2.68804139 3.14779967,3.10256994 3.4240909,2.90584472 C3.46305442,2.56054583 3.33553561,2.25951505 3.65256222,2.06844771 C3.92353787,2.02046197 4.04928482,2.22409881 4.21399819,2.39409386 L4.21222633,2.39409386 L4.21222633,2.39409386 Z" id="path338-1" fill="#F9D90F"></path>
                            <path id="path340-2" fill="#FFFFFF"></path>
                            <path id="path342-5" fill="#FFFFFF"></path>
                            <path d="M6.30034135,3.64248508 C6.37827129,3.57714175 6.47390822,3.48665653 6.51464359,3.44947166 C6.72540502,3.51162389 6.96981437,3.54881167 7.11681493,3.75758277 C7.27444085,4.18982963 6.83698288,4.17902586 6.58902981,4.29943817 L6.34284859,4.28882057 C6.40129386,4.16840826 6.2365834,4.11705689 6.19584803,4.03400689 C6.0824983,4.0056739 5.98863033,4.04090106 5.92486947,4.13653509 C5.97977393,4.41117895 6.31451043,4.62526758 5.96914857,4.86963237 C5.6769193,4.85034616 5.22351748,4.96348323 5.25008669,4.55974681 C5.14027777,4.33132005 5.54762863,3.978935 5.11193961,3.96494595 C4.96848277,4.27305997 4.81085394,4.57037314 4.43715392,4.27837168 L4.48320197,3.83922193 C4.84096396,3.849665 5.26425286,3.9116456 5.4254225,3.5116297 C5.52814687,3.22122526 5.24654296,2.95383918 5.49803685,2.72363798 C5.86288338,2.64041345 6.06832922,2.88477824 6.2542933,3.12719695 C6.34284859,3.33082798 6.05416014,3.49391722 6.30034135,3.64248508 L6.30034135,3.64248508 Z" id="path344-8" fill="#F9D90F"></path>
                        </g>
                    </g>
                    <g id="ribbon" transform="translate(0.196287, 25.099774)" stroke="#000000" stroke-width="0.1">
                        <path d="M36.2439212,20.1756985 L40.4254668,19.8054293 L40.5087065,24.907189 C36.9665239,26.86017 28.7876277,27.2798415 26.9882011,27.265675 C25.1869998,27.2798415 16.907154,26.8532641 13.3490304,24.8930225 L13.3950785,19.7877226 L17.5854805,20.1648947 C19.4894033,21.1443087 23.6780306,21.8241056 26.9793447,21.8241056 C30.2753432,21.8347232 34.3399983,21.1600663 36.2439212,20.1756985 L36.2439212,20.1756985 Z" id="path266-9" fill="#F9D90F"></path>
                        <path d="M6.26821176,1.23538667 L5.15419332,7.19951072 L1.66691513,7.74118867 C1.66691513,7.74118867 1.07891287,4.60515981 2.58434122,0.0595965628 L6.26821176,1.23538667 L6.26821176,1.23538667 Z" id="path270-6" fill="#F9D90F"></path>
                        <polygon id="path274-9" fill="#F9B60F" points="5.15242437 7.13381541 1.66691513 7.74118867 3.87192361 4.60515981 5.15242437 7.13381541"></polygon>
                        <polygon id="Rectangle-1" fill="#F9D90F" points="13.3120325 22.3025071 17.6581769 23.9235957 13.3120325 24.9053151"></polygon>
                        <polygon id="Rectangle-1" fill="#F9D90F" transform="translate(38.357547, 23.672543) scale(-1, 1) translate(-38.357547, -23.672543) " points="36.1954376 22.4105844 40.5196563 23.9447458 36.1954376 24.9345023"></polygon>
                        <path d="M3.93214074,4.61578323 C4.01184255,7.62449397 4.37668617,19.1061542 18.0884712,19.7294626 L17.6616386,23.9067056 C0.970875817,24.0800634 -0.297224815,9.82378871 0.381104603,4.35919802 L3.93214074,4.61578323 L3.93214074,4.61578323 Z" id="path276-6" fill="#F9D90F"></path>
                        <path d="M47.3964795,1.26726274 L48.5600839,7.222532 L52.0544466,7.78368816 C52.0544466,7.78368816 52.6158825,4.64960537 51.066178,0.102273497 L47.3964795,1.26726274 L47.3964795,1.26726274 Z" id="path284-6" fill="#F9D90F"></path>
                        <polygon id="path288-8" fill="#F9B60F" points="52.0544466 7.78722833 49.7645282 4.62767894 48.5741272 7.23718449"></polygon>
                        <path d="M49.7538012,4.64960537 C49.7024375,7.65442106 49.4403183,19.141393 35.7285332,19.7505349 L36.1943294,23.9244123 C52.8815455,24.1172483 54.0292148,9.86787939 53.31015,4.40523767 L49.7538012,4.64960537 L49.7538012,4.64960537 Z" id="path292-6" fill="#F9D90F"></path>
                    </g>
                    <g id="text" transform="translate(1.351367, 32.319025)" fill="#012A87">
                        <path d="M23.5962334,17.1193434 C23.5023655,17.1795495 23.3748467,17.195665 23.2278461,17.1884043 L22.5654576,17.1547596 L22.622131,16.3279889 L23.2792068,16.3632248 C23.4084975,16.3720679 23.511219,16.3970469 23.5749798,16.4358288 C23.7078113,16.5048868 23.7662566,16.6325599 23.7538594,16.8094607 C23.7450146,16.9617462 23.6918704,17.0610862 23.5944616,17.1193434 L23.5962334,17.1193434 L23.5962334,17.1193434 Z M22.482215,18.4210349 L22.5477477,17.4132909 L23.3199422,17.4665912 C23.5696672,17.4860811 23.7556312,17.4205516 23.8813782,17.2928786 C24.0124378,17.1689261 24.0797395,17.0061917 24.0885959,16.8220331 C24.1045397,16.6075925 24.0496324,16.4322857 23.9221136,16.3030186 C23.7999074,16.1790662 23.6263406,16.1135483 23.4084975,16.092476 L22.3051073,16.0234151 L22.1527941,18.3960676 L22.4804461,18.4175064 L22.482215,18.4210349 L22.482215,18.4210349 Z" id="path296-9"></path>
                        <path d="M24.8838158,16.4358288 L25.691433,16.444672 C25.8083236,16.4552896 25.9004226,16.4694561 25.9677213,16.501338 C26.0916993,16.5597726 26.1501446,16.6766447 26.1501446,16.8466368 C26.1501446,17.006183 26.1040966,17.1124288 26.0137723,17.1761781 C25.9269889,17.2344352 25.801239,17.2609967 25.6506976,17.2609967 L24.8749594,17.2521535 L24.8820294,16.4358317 L24.8838158,16.4358288 L24.8838158,16.4358288 Z M24.8696351,18.5377325 L24.8767051,17.5248513 L25.6347305,17.5356434 C25.7693339,17.5356434 25.8685145,17.5460865 25.937588,17.5797341 C26.0491659,17.6310884 26.1040704,17.7392803 26.109383,17.8878481 L26.1288764,18.2862699 C26.1342008,18.3818923 26.1359755,18.4405044 26.1412707,18.4792863 C26.1518903,18.5076193 26.1572146,18.5377209 26.1713808,18.5591452 L26.5787316,18.5591452 L26.5716616,18.5076164 C26.5256136,18.4828323 26.488419,18.4351927 26.472481,18.3624141 C26.4583119,18.3163745 26.4512128,18.2473135 26.4476924,18.1605459 L26.4406224,17.84358 C26.4352981,17.7001464 26.4105124,17.6011613 26.3556079,17.5460894 C26.3077909,17.4823431 26.2422582,17.4274487 26.1413057,17.393804 C26.2546583,17.3337752 26.3396699,17.2647143 26.401656,17.1795408 C26.4601041,17.0856899 26.4902113,16.9670492 26.4902113,16.8220244 C26.4902113,16.5493237 26.3786334,16.3632161 26.1519339,16.2624594 C26.0297278,16.2075679 25.8738737,16.1790574 25.6896786,16.1756918 L24.5508687,16.1648997 L24.5420239,18.5448129 L24.8696759,18.5448129 L24.8696351,18.5377325 L24.8696351,18.5377325 Z" id="path298-0"></path>
                        <path d="M27.3969916,18.0401423 C27.2517629,17.8632444 27.1738359,17.641898 27.156126,17.3798236 C27.1401821,17.0502853 27.203943,16.7990118 27.3544873,16.6288422 C27.5068005,16.4446807 27.7033929,16.356319 27.9601994,16.3421554 C28.2187779,16.3279889 28.4313112,16.4112134 28.5889371,16.5739478 C28.7501067,16.733494 28.8422028,16.9548404 28.8581438,17.2310783 C28.8669885,17.4965183 28.8209492,17.7320283 28.698746,17.9392082 C28.5783117,18.1501087 28.3781786,18.2687495 28.0824056,18.2756553 C27.7742354,18.2917707 27.5439922,18.2191667 27.3969916,18.0401423 L27.3969916,18.0401423 L27.3969916,18.0401423 Z M27.0073536,16.5420746 C26.8550403,16.7775846 26.7930513,17.0502853 26.8089894,17.3798236 C26.8320032,17.7355714 26.9418238,18.0296964 27.1490415,18.2510428 C27.3792817,18.4723863 27.6839082,18.5837693 28.0593801,18.5625195 C28.4614183,18.5448041 28.7642758,18.3925274 28.9697216,18.1129209 C29.136204,17.8597013 29.2159029,17.5655764 29.198193,17.2025708 C29.1751791,16.8785187 29.0812995,16.6146757 28.9059608,16.4181192 C28.6845769,16.1542762 28.3604658,16.0375815 27.9212359,16.0552882 C27.5068005,16.0816722 27.202174,16.2339606 27.0055817,16.5420746 L27.0073536,16.5420746 L27.0073536,16.5420746 Z" id="path300-1"></path>
                        <path d="M38.1917908,13.1191786 C38.4202622,13.0802222 38.6186235,13.0910201 38.7992749,13.1528233 C39.0649378,13.2360507 39.2438203,13.4327818 39.3553981,13.7336351 L39.0277462,13.7796747 C38.9569008,13.6169433 38.8559512,13.5053829 38.719576,13.4432306 C38.5867445,13.3849706 38.4202622,13.3706295 38.2289825,13.3991371 C38.0058268,13.4327818 37.8269472,13.5441647 37.7012003,13.7231891 C37.5772223,13.9142536 37.5400306,14.1694221 37.5949322,14.4950654 C37.6409831,14.7644004 37.7401638,14.9926526 37.9031024,15.1449381 C38.0536467,15.3007667 38.2750335,15.3556582 38.563719,15.3149302 C38.7797931,15.2795169 38.95336,15.1929267 39.0755661,15.044004 C39.2030849,14.9025194 39.2402766,14.6880788 39.1977693,14.4118408 L38.4344312,14.5288875 L38.3954677,14.2668131 L39.4581196,14.1037268 L39.6653373,15.3627414 L39.4545788,15.3946175 L39.3235192,15.1042102 C39.2349639,15.2354233 39.1464086,15.3363574 39.0684816,15.3946175 C38.937419,15.4974977 38.7603113,15.5630156 38.5389246,15.5948887 C38.252008,15.6389823 37.9898858,15.5876164 37.752561,15.4353426 C37.4922107,15.2423291 37.3239565,14.9554649 37.2601986,14.5572205 C37.191125,14.165879 37.2530995,13.831029 37.4337654,13.5671831 C37.6055604,13.3123694 37.8552825,13.1636271 38.1917908,13.1156384 L38.1917908,13.1191786 L38.1917908,13.1191786 Z" id="path302-0"></path>
                        <path d="M40.5951606,12.9350199 L41.3567297,12.6587791 C41.4612231,12.6200001 41.5515502,12.6074277 41.6294773,12.61646 C41.7693933,12.626903 41.8721177,12.7101334 41.9305629,12.8765853 C41.9854674,13.0182445 41.9854674,13.1421999 41.9234929,13.2291449 C41.8579631,13.3192753 41.7552388,13.3849706 41.6064692,13.4396876 L40.8909482,13.6964502 L40.5951752,12.9350199 L40.5951606,12.9350199 L40.5951606,12.9350199 Z M41.3567443,14.9025194 L40.9848161,13.9480757 L41.6932527,13.6929071 C41.8260841,13.6504106 41.9181803,13.6273893 41.9872538,13.63465 C42.1130007,13.6504164 42.2086406,13.7267293 42.2723985,13.871757 L42.4335682,14.23494 C42.4689909,14.3250732 42.4973261,14.3799648 42.5203516,14.404935 C42.5309711,14.4368082 42.5540024,14.4562864 42.5717123,14.4773587 L42.9560406,14.3358741 L42.9347725,14.2845227 C42.8780961,14.2845227 42.8231946,14.2526466 42.7824592,14.1904944 C42.7523492,14.1464008 42.724011,14.0826545 42.6832786,14.0082819 L42.5575287,13.7106167 C42.5008553,13.5813496 42.44241,13.5018427 42.3751083,13.4538541 C42.3078067,13.4166692 42.2227922,13.3918764 42.1218426,13.3849706 C42.1997696,13.2944853 42.256443,13.2041776 42.2776967,13.0979288 C42.3007105,12.9900918 42.290091,12.8696795 42.2387331,12.7351007 C42.1413244,12.4818811 41.9624419,12.3437593 41.710948,12.3260526 C41.5781165,12.315435 41.4258033,12.343768 41.2504646,12.4055595 L40.1807252,12.7864521 L41.0450187,15.0245258 L41.3585016,14.9094252 L41.3567443,14.9025194 L41.3567443,14.9025194 Z" id="path304-6"></path>
                        <polygon id="path306-1" points="44.1426559 13.7231891 42.7842282 11.7415232 44.2754874 10.7906197 44.4401979 11.0298502 43.2181453 11.8105812 43.6361244 12.4161858 44.764309 11.6901689 44.9183942 11.9221416 43.7902095 12.6483331 44.250693 13.3159125 45.4939992 12.5206601 45.6587097 12.7545789 44.1408841 13.7231891"></polygon>
                        <path d="M45.3310577,10.2204313 L45.7206987,9.79190784 C45.9013501,9.60066305 46.0926268,9.51389544 46.3016164,9.53868826 C46.510603,9.55640366 46.7231363,9.66618091 46.9498358,9.86450895 C47.0118219,9.91232015 47.0667263,9.97429494 47.1234026,10.0433559 C47.2225833,10.172623 47.2810286,10.2861295 47.3182202,10.3992811 C47.3501021,10.5411177 47.3430088,10.6703848 47.2934316,10.7943373 C47.2633245,10.8561375 47.2101919,10.9287386 47.130493,11.0156837 L46.7390802,11.4406698 L45.3310635,10.2170685 L45.3310577,10.2204313 L45.3310577,10.2204313 Z M47.3890714,11.150085 C47.6653627,10.8456915 47.7255769,10.5180993 47.5644101,10.1480076 C47.4705422,9.94773348 47.3270824,9.75294852 47.1287211,9.58295638 C46.8789962,9.36160997 46.6186459,9.24828091 46.3441265,9.22720861 C46.0395,9.20402442 45.7809216,9.31397622 45.5559911,9.5599351 L44.8918337,10.2717855 L46.7231421,11.8691933 L47.3872996,11.1538056 L47.3890714,11.150085 L47.3890714,11.150085 Z" id="path308-3"></path>
                        <polygon id="path310-1" points="48.8077076 9.30317535 46.7001108 8.06540755 46.8719058 7.79288721 48.9830463 9.02357177 48.8094795 9.30671552"></polygon>
                        <polygon id="path312-1" points="49.6348095 7.86548833 47.3589556 6.95513531 48.0302005 5.35436195 48.3064888 5.46060776 47.7592219 6.77983146 48.4446359 7.04916361 48.95648 5.83423965 49.2186022 5.94243445 48.7120707 7.15540942 49.4789525 7.46688908 50.0403885 6.1319077 50.3166768 6.23620453 49.6330376 7.86548833"></polygon>
                        <polygon id="path314-3" points="50.6797515 5.07121819 48.2852381 4.54175775 48.364937 4.17166604 50.57703 3.42440226 48.6341408 2.99587593 48.7049862 2.70547148 51.0994995 3.22058798 51.0233444 3.58005337 48.8077076 4.34343262 50.7505969 4.76310417 50.6815233 5.07121819"></polygon>
                        <path d="M50.4902466,2.03063138 L50.5203537,1.7296006 C50.6584978,1.73332403 50.7753913,1.71188521 50.8639466,1.66426018 C51.0375134,1.57023188 51.138463,1.3915624 51.1650293,1.12753905 C51.1756489,1.00376402 51.1703537,0.895569218 51.1420155,0.792863574 C51.0906548,0.594715888 50.979074,0.48475246 50.8001944,0.467042885 C50.667363,0.452876389 50.5717231,0.484758278 50.5026525,0.557531017 C50.4406635,0.640755547 50.3751337,0.760990412 50.3255419,0.931162904 L50.2157359,1.24458864 C50.1448905,1.44981957 50.0793607,1.59148162 50.0085182,1.67116598 C49.8951685,1.82008582 49.7357678,1.8714401 49.5320938,1.8572736 C49.3142508,1.83426396 49.1371402,1.74748471 49.0113932,1.58103274 C48.8821026,1.42874727 48.82897,1.21094393 48.8608489,0.941608877 C48.882088,0.695649993 48.9635733,0.488470074 49.108802,0.322018106 C49.2434054,0.169732634 49.4523949,0.0969540768 49.7198298,0.125284161 L49.6950411,0.426314935 C49.5639786,0.426314935 49.4594853,0.449324583 49.3833272,0.502459126 C49.245183,0.578600408 49.169025,0.739740667 49.1460024,0.975253578 C49.126509,1.17021598 49.1530724,1.30107427 49.2274732,1.40041428 C49.3018565,1.48364172 49.3957244,1.53658718 49.5055333,1.54544197 C49.6224239,1.55605957 49.7145229,1.51888342 49.7782808,1.42874727 C49.8243289,1.36659213 49.8792334,1.23201623 49.9536196,1.01420999 L50.0616566,0.68484913 C50.1147892,0.532560749 50.1785472,0.415691518 50.2529334,0.332464079 C50.3857649,0.194345103 50.5593317,0.135910487 50.7771777,0.152023059 C51.0428407,0.180181516 51.2323456,0.290144944 51.3297573,0.492010244 C51.4253942,0.695649993 51.4625887,0.920536577 51.4395633,1.17552769 C51.4094561,1.46398607 51.3155882,1.69082163 51.1420213,1.84310711 C50.9684545,1.99875821 50.7523804,2.05188112 50.4902611,2.03063138 L50.4902466,2.03063138 L50.4902466,2.03063138 Z" id="path316-9"></path>
                        <path d="M0.85188701,1.8856066 L0.906788558,2.18291685 C0.773957072,2.20947539 0.667691883,2.26277865 0.589764854,2.3318396 C0.449845919,2.46269788 0.402028912,2.65943182 0.449845919,2.9268179 C0.471084992,3.03996951 0.511834916,3.15152704 0.563195648,3.24024363 C0.669463746,3.42086209 0.807607909,3.49328576 0.982946634,3.46495277 C1.1122373,3.44194312 1.19724887,3.3925291 1.23798425,3.30044978 C1.27694776,3.20996165 1.30528592,3.07184268 1.31414233,2.89494183 L1.33008618,2.56009181 C1.34070571,2.35291189 1.36373701,2.19017754 1.40978507,2.09969232 C1.48239942,1.93678052 1.61877463,1.83584641 1.82244861,1.80237916 C2.04029457,1.7632453 2.23157133,1.81282222 2.39628179,1.93678052 C2.56276702,2.05188112 2.67257302,2.25197779 2.7133084,2.51759232 C2.76466913,2.76036593 2.74164656,2.97816926 2.64600673,3.17454832 C2.55391062,3.36596765 2.37680003,3.48266234 2.10582438,3.53224217 L2.05269179,3.23138884 C2.17843873,3.18534918 2.2723067,3.14090362 2.3342957,3.07910337 C2.44056089,2.96028515 2.47243986,2.78869601 2.43170449,2.55318601 C2.39982551,2.36176377 2.3342957,2.23781129 2.23511505,2.17601104 C2.13770336,2.10323249 2.04029457,2.07489949 1.93402938,2.09278651 C1.81536407,2.11050191 1.73743704,2.17601104 1.70024538,2.28225686 C1.67723154,2.35291189 1.65951001,2.49988566 1.64356907,2.72494969 L1.62762521,3.07184268 C1.61878045,3.23475447 1.59397438,3.36950782 1.53906992,3.46159004 C1.45228649,3.63140474 1.30528592,3.73588192 1.09098368,3.76952662 C0.820005126,3.81556628 0.611015564,3.75358568 0.462246046,3.58005337 C0.309929894,3.41005832 0.216064832,3.20642148 0.168244915,2.95320191 C0.115112321,2.65217113 0.154075836,2.41842976 0.274510104,2.23090549 C0.396713325,2.03789207 0.589764854,1.92633455 0.85188701,1.88914677 L0.85188701,1.8856066 L0.85188701,1.8856066 Z" id="path318-6"></path>
                        <polygon id="path320-7" points="0.70134272 5.02517562 3.04272641 4.32041134 3.58822143 5.96881845 3.30307671 6.05912914 2.85676233 4.70449211 2.14478208 4.91892981 2.55744561 6.17068666 2.2846981 6.25745427 1.87557538 5.00215725 1.08212728 5.23926135 1.5355262 6.62400291 1.25569414 6.70386472 0.70134272 5.02517562"></polygon>
                        <path d="M1.73920308,7.88302046 L3.89284792,6.74104959 L4.1230911,7.14283702 L2.64246009,8.70819705 L4.80496133,8.33810533 L5.02811707,8.73670749 L2.8797849,9.87176965 L2.72747166,9.6077463 L3.99557229,8.94034433 C4.04162035,8.91361125 4.11246284,8.87464902 4.21518721,8.81993202 C4.31613972,8.77389236 4.42948945,8.71173722 4.54283918,8.65330261 L2.38919434,9.01985124 L2.23156551,8.74007021 L3.70157116,7.1800248 L3.63072867,7.21561558 C3.58468062,7.24199959 3.50497882,7.28113635 3.39694468,7.34293369 C3.29067949,7.408629 3.21097769,7.44917951 3.15961696,7.47042925 L1.89506005,8.14863499 L1.73920308,7.87965482 L1.73920308,7.88302046 L1.73920308,7.88302046 Z" id="path322-7"></path>
                        <path d="M5.75249454,11.0544656 C5.64445749,11.029856 5.5381923,10.9676979 5.43369897,10.8596806 L4.9785282,10.3904263 L5.59132489,9.82909271 L6.05003648,10.2967529 C6.13859178,10.3835205 6.1952681,10.4683391 6.22537521,10.5411177 C6.26788245,10.6808308 6.22537521,10.8085038 6.09608454,10.9287386 C5.97919399,11.036756 5.86230054,11.081027 5.75249454,11.0544656 L5.75249454,11.0544656 L5.75249454,11.0544656 Z M4.02213859,11.2722689 L4.77308236,10.5834397 L5.30618016,11.1235236 C5.47797516,11.2988303 5.65331389,11.3785147 5.83750611,11.3751491 C6.02524205,11.3643569 6.18641169,11.2952873 6.32809958,11.1607114 C6.48749736,11.0190493 6.56365253,10.8525973 6.56365253,10.673925 C6.56190685,10.5002152 6.48218469,10.3374809 6.33518412,10.1851954 L5.57007127,9.40410946 L3.78835459,11.0402991 L4.01859777,11.2722689 L4.02213859,11.2722689 L4.02213859,11.2722689 Z" id="path324-8"></path>
                        <polygon id="path326-3" points="6.17047075 13.1846994 7.46159687 11.1607114 8.98827593 12.0885936 8.82887815 12.3295928 7.57494659 11.5787888 7.18707749 12.1914738 8.34005653 12.8907518 8.19128702 13.1228991 7.03653611 12.4269867 6.59730337 13.1120953 7.86717586 13.8754746 7.71486262 14.1145277 6.17047075 13.1846994"></polygon>
                        <path d="M9.99248545,12.7933579 L10.7682237,13.0396717 C10.8780297,13.0731389 10.9577286,13.1156384 11.0108641,13.1636271 C11.1100447,13.2574779 11.136611,13.3918764 11.0781628,13.5547882 C11.0303458,13.6964502 10.9577286,13.7885295 10.8443788,13.8276634 C10.7434292,13.8452042 10.6159104,13.8452042 10.467138,13.7991559 L9.73567597,13.5655919 L9.99248545,12.7933608 L9.99248545,12.7933579 L9.99248545,12.7933579 Z M9.32301244,14.7819325 L9.64535173,13.8168654 L10.3679573,14.0523783 C10.4972451,14.0861976 10.5911131,14.1322372 10.6371611,14.179871 C10.7257164,14.2595583 10.7522827,14.378199 10.7080065,14.5253502 L10.5999695,14.9094281 C10.5751809,15.003279 10.5627778,15.0652567 10.5521496,15.0935896 C10.5521496,15.1238687 10.5521496,15.1557419 10.5574739,15.1768142 L10.9382584,15.3007696 L10.9612723,15.2458751 C10.9205369,15.214002 10.8975143,15.1557419 10.8992833,15.0831408 C10.908128,15.0386952 10.9205224,14.9680402 10.9453313,14.8864097 L11.0374304,14.5782957 C11.074622,14.4437169 11.0887911,14.3427828 11.055149,14.2703591 C11.0268108,14.1940375 10.9789909,14.1249795 10.899292,14.0596361 C11.0197263,14.0381973 11.1242225,14.0010241 11.2127749,13.9355062 C11.2960175,13.8629051 11.36686,13.761971 11.4093672,13.6204864 C11.4961507,13.3635492 11.4483308,13.149286 11.257054,12.9863742 C11.1614142,12.9015556 11.025039,12.828777 10.8461594,12.7614876 L9.762251,12.4269896 L9.0042256,14.6845415 L9.32125221,14.7819325 L9.32301244,14.7819325 L9.32301244,14.7819325 Z" id="path328-1"></path>
                    </g>
                </g>
            </g>
        </g>
    </g>
</svg>