<?xml version="1.0" encoding="UTF-8" standalone="no"?>
<svg width="180px" height="180px" viewBox="0 0 180 180" version="1.1" xmlns="http://www.w3.org/2000/svg" xmlns:xlink="http://www.w3.org/1999/xlink">
    <!-- Generator: Sketch 3.8.3 (29802) - http://www.bohemiancoding.com/sketch -->
    <title>solomon_islands</title>
    <desc>Created with Sketch.</desc>
    <defs></defs>
    <g id="Page-1" stroke="none" stroke-width="1" fill="none" fill-rule="evenodd">
        <g id="flags" transform="translate(-1260.000000, -5310.000000)">
            <g id="solomon_islands" transform="translate(1260.000000, 5310.000000)">
                <path d="M158.444094,31.5559061 C155.376979,27.9674138 152.032586,24.6230214 148.444094,21.5559061 L21.5559061,148.444094 C24.6230214,152.032586 27.9674138,155.376979 31.5559061,158.444094 L158.444094,31.5559061 L158.444094,31.5559061 L158.444094,31.5559061 Z" id="yellow" fill="#F2C500"></path>
                <path d="M158.444094,31.5559061 C171.884162,47.2806422 180,67.6925433 180,90 C180,139.705627 139.705627,180 90,180 C67.6925433,180 47.2806422,171.884162 31.5559061,158.444094 L158.444094,31.5559061 L158.444094,31.5559061 L158.444094,31.5559061 Z" id="green" fill="#1AAF5D"></path>
                <path d="M148.444094,21.5559061 C132.719358,8.11583844 112.307457,0 90,0 C40.2943725,0 0,40.2943725 0,90 C0,112.307457 8.11583844,132.719358 21.5559061,148.444094 L148.444094,21.5559061 L148.444094,21.5559061 L148.444094,21.5559061 Z" id="blue" fill="#227FBB"></path>
                <path d="M36.1073415,48.5343506 L30.7213839,51.3225805 L31.75001,45.4170154 L27.392678,41.2346711 L33.4143634,40.3730599 L36.1073418,35 L38.8003219,40.3730613 L44.8220068,41.2346754 L40.4646731,45.4170165 L41.4932994,51.3225806 L36.1073415,48.5343506 L36.1073415,48.5343506 Z M36.1073415,76.21177 L30.7213839,78.9999999 L31.75001,73.0944348 L27.392678,68.9120904 L33.4143634,68.0504793 L36.1073418,62.6774194 L38.8003219,68.0504806 L44.8220068,68.9120947 L40.4646731,73.0944359 L41.4932994,79 L36.1073415,76.21177 L36.1073415,76.21177 Z M67.333148,48.5343506 L61.9471903,51.3225805 L62.9758164,45.4170154 L58.6184845,41.2346711 L64.6401699,40.3730599 L67.3331483,35 L70.0261283,40.3730613 L76.0478133,41.2346754 L71.6904796,45.4170165 L72.7191059,51.3225806 L67.333148,48.5343506 L67.333148,48.5343506 Z M67.333148,76.21177 L61.9471903,78.9999999 L62.9758164,73.0944348 L58.6184845,68.9120904 L64.6401699,68.0504793 L67.3331483,62.6774194 L70.0261283,68.0504806 L76.0478133,68.9120947 L71.6904796,73.0944359 L72.7191059,79 L67.333148,76.21177 L67.333148,76.21177 Z M52.0328515,63.4375764 L46.6468938,66.2258063 L47.6755199,60.3202412 L43.318188,56.1378969 L49.3398734,55.2762857 L52.0328518,49.9032258 L54.7258318,55.2762871 L60.7475168,56.1379012 L56.3901831,60.3202423 L57.4188094,66.2258065 L52.0328515,63.4375764 L52.0328515,63.4375764 Z" id="stars" fill="#FFFFFF"></path>
            </g>
        </g>
    </g>
</svg>