<?xml version="1.0" encoding="UTF-8" standalone="no"?>
<svg width="180px" height="180px" viewBox="0 0 180 180" version="1.1" xmlns="http://www.w3.org/2000/svg" xmlns:xlink="http://www.w3.org/1999/xlink">
    <!-- Generator: Sketch 3.8.3 (29802) - http://www.bohemiancoding.com/sketch -->
    <title>south_korea</title>
    <desc>Created with Sketch.</desc>
    <defs></defs>
    <g id="Page-1" stroke="none" stroke-width="1" fill="none" fill-rule="evenodd">
        <g id="flags" transform="translate(-2070.000000, -5310.000000)">
            <g id="south_korea" transform="translate(2070.000000, 5310.000000)">
                <circle id="white" fill="#FFFFFF" transform="translate(90.000000, 90.000000) scale(1, -1) translate(-90.000000, -90.000000) " cx="90" cy="90" r="90"></circle>
                <g id="emblem" transform="translate(27.000000, 41.000000)">
                    <path d="M2,9 L2,14 L32,14 L32,9 L2,9 L2,9 Z M2,16 L2,21 L32,21 L32,16 L2,16 L2,16 Z M2,23 L2,28 L32,28 L32,23 L2,23 L2,23 Z" id="line" fill="#000000" transform="translate(17.000000, 18.500000) rotate(-56.000000) translate(-17.000000, -18.500000) "></path>
                    <path d="M2,70 L2,75 L32,75 L32,70 L2,70 L2,70 Z M2,77 L2,82 L16,82 L16,77 L2,77 L2,77 Z M18,77 L18,82 L32,82 L32,77 L18,77 L18,77 Z M2,84 L2,89 L32,89 L32,84 L2,84 L2,84 Z" id="line" fill="#000000" transform="translate(17.000000, 79.500000) rotate(236.000000) translate(-17.000000, -79.500000) "></path>
                    <path d="M94,9 L94,14 L108,14 L108,9 L94,9 L94,9 Z M110,9 L110,14 L124,14 L124,9 L110,9 L110,9 Z M94,16 L94,21 L124,21 L124,16 L94,16 L94,16 Z M94,23 L94,28 L108,28 L108,23 L94,23 L94,23 Z M110,23 L110,28 L124,28 L124,23 L110,23 L110,23 Z" id="line" fill="#000000" transform="translate(109.000000, 18.500000) rotate(236.000000) translate(-109.000000, -18.500000) "></path>
                    <path d="M94,70 L94,75 L108,75 L108,70 L94,70 L94,70 Z M110,70 L110,75 L124,75 L124,70 L110,70 L110,70 Z M94,77 L94,82 L108,82 L108,77 L94,77 L94,77 Z M110,77 L110,82 L124,82 L124,77 L110,77 L110,77 Z M94,84 L94,89 L108,89 L108,84 L94,84 L94,84 Z M110,84 L110,89 L124,89 L124,84 L110,84 L110,84 Z" id="line" fill="#000000" transform="translate(109.000000, 79.500000) rotate(124.000000) translate(-109.000000, -79.500000) "></path>
                    <circle id="Oval-2" fill="#E94B35" cx="63" cy="49" r="30"></circle>
                    <path d="M88.9236984,48.0875498 C88.9236984,64.5144817 75.4922418,77.8311395 58.9236984,77.8311395 C42.3551551,77.8311395 28.9236984,64.5144817 28.9236984,48.0875498 C28.9236984,56.3010156 35.6394268,62.9593446 43.9236984,62.9593446 C52.20797,62.9593446 58.9236984,56.3010156 58.9236984,48.0875498 C58.9236984,39.8740839 65.6394268,33.2157549 73.9236984,33.2157549 C82.2079696,33.2157549 88.9236984,39.8740839 88.9236984,48.0875498 C88.9236984,48.0875498 88.9236984,39.8740839 88.9236984,48.0875498 L88.9236984,48.0875498 L88.9236984,48.0875498 L88.9236984,48.0875498 Z" id="Oval-2" fill="#227FBB" transform="translate(58.923698, 55.523447) rotate(32.000000) translate(-58.923698, -55.523447) "></path>
                </g>
            </g>
        </g>
    </g>
</svg>