<?xml version="1.0" encoding="UTF-8" standalone="no"?>
<svg width="180px" height="180px" viewBox="0 0 180 180" version="1.1" xmlns="http://www.w3.org/2000/svg" xmlns:xlink="http://www.w3.org/1999/xlink">
    <!-- Generator: Sketch 3.8.3 (29802) - http://www.bohemiancoding.com/sketch -->
    <title>south_sudan</title>
    <desc>Created with Sketch.</desc>
    <defs></defs>
    <g id="Page-1" stroke="none" stroke-width="1" fill="none" fill-rule="evenodd">
        <g id="flags" transform="translate(-2340.000000, -5310.000000)">
            <g id="south_sudan" transform="translate(2340.000000, 5310.000000)">
                <ellipse id="white" fill="#FFFFFF" cx="89.9972382" cy="90" rx="89.9972382" ry="90"></ellipse>
                <path d="M174.873467,120 L37.5,120 L14.241174,138.607061 C30.2493932,163.506449 58.1972361,180 89.9972382,180 C129.182603,180 162.51875,154.955772 174.873463,120 L174.873467,120 Z" id="green" fill="#479951"></path>
                <path d="M176.476918,115 L43.75,115 L75,90 L43.75,65 L176.476918,65 C178.767239,72.9372476 179.994476,81.3253009 179.994476,90 C179.994476,98.6746991 178.767239,107.062752 176.476918,115 L176.476918,115 Z" id="red" fill="#E94B35"></path>
                <path d="M174.873463,60 L37.5,60 L14.241174,41.3929392 C30.2493933,16.4935506 58.1972361,0 89.9972382,0 C129.182603,0 162.518751,25.0442277 174.873463,60 L174.873463,60 Z" id="black" fill="#000000"></path>
                <path d="M24.0045575,28.805469 L75,90 L24.0045575,151.194531 C9.10778356,135.136254 0,113.631779 0,90 C0,66.3682213 9.10778356,44.8637459 24.0045575,28.805469 L24.0045575,28.805469 Z" id="blue" fill="#227FBB"></path>
                <polygon id="star" fill="#F2C500" transform="translate(27.000000, 90.000000) rotate(-45.000000) translate(-27.000000, -90.000000) " points="39.209831 107.513979 27.2801537 99.2439308 15.7245395 108 19.9876317 94.2189044 8 86.0511523 22.5644137 85.8040169 26.7112648 72 31.4494741 85.6283569 46 85.2647559 34.3639628 93.9346813 39.209831 107.513979"></polygon>
            </g>
        </g>
    </g>
</svg>