<?xml version="1.0" encoding="UTF-8" standalone="no"?>
<svg width="180px" height="180px" viewBox="0 0 180 180" version="1.1" xmlns="http://www.w3.org/2000/svg" xmlns:xlink="http://www.w3.org/1999/xlink">
    <!-- Generator: Sketch 3.8.3 (29802) - http://www.bohemiancoding.com/sketch -->
    <title>south_africa</title>
    <desc>Created with Sketch.</desc>
    <defs></defs>
    <g id="Page-1" stroke="none" stroke-width="1" fill="none" fill-rule="evenodd">
        <g id="flags" transform="translate(-1800.000000, -5310.000000)">
            <g id="south_africa" transform="translate(1800.000000, 5310.000000)">
                <ellipse id="white" fill="#FFFFFF" cx="89.9972382" cy="90" rx="89.9972382" ry="90"></ellipse>
                <path d="M10.3168744,48.1200964 L71,90 L10.3168744,131.879904 C16.7850017,144.161498 26.0092911,154.76559 37.1670151,162.869428 L104.177734,119 L175.220249,119 C178.315508,109.900614 179.994476,100.146385 179.994476,90 C179.994476,79.8536146 178.315508,70.0993857 175.220249,61 L104.177734,61 L37.1670151,17.1305723 C26.0092911,25.2344098 16.7850017,35.838502 10.3168744,48.1200964 L10.3168744,48.1200964 Z" id="green" fill="#1AAF5D"></path>
                <path d="M10.3168744,48.1200964 L71,90 L10.3168744,131.879904 C3.72874894,119.370458 0,105.120691 0,90 C0,74.8793092 3.72874894,60.6295417 10.3168744,48.1200964 L10.3168744,48.1200964 Z" id="yellow" fill="#F2C500"></path>
                <path d="M7.15611168,54.7707411 L60,90 L7.15611168,125.229259 C2.54918071,114.409215 0,102.502313 0,90 C0,77.4976868 2.54918071,65.5907854 7.15611168,54.7707411 L7.15611168,54.7707411 Z" id="black" fill="#000000"></path>
                <path d="M172.935601,55 L104.640015,55 L41.6560034,14.0723059 C55.6196625,5.16291308 72.205537,0 89.9972382,0 C127.287649,0 159.280886,22.6805824 172.935601,55 L172.935601,55 Z" id="red" fill="#E94B35"></path>
                <path d="M172.935601,125 L104.640015,125 L41.6560034,165.927694 C55.6196625,174.837087 72.205537,180 89.9972382,180 C127.287649,180 159.280886,157.319418 172.935601,125 L172.935601,125 Z" id="blue" fill="#227FBB"></path>
            </g>
        </g>
    </g>
</svg>