<?xml version="1.0" encoding="UTF-8" standalone="no"?>
<svg width="180px" height="180px" viewBox="0 0 180 180" version="1.1" xmlns="http://www.w3.org/2000/svg" xmlns:xlink="http://www.w3.org/1999/xlink">
    <!-- Generator: Sketch 3.8.3 (29802) - http://www.bohemiancoding.com/sketch -->
    <title>spain</title>
    <desc>Created with Sketch.</desc>
    <defs></defs>
    <g id="Page-1" stroke="none" stroke-width="1" fill="none" fill-rule="evenodd">
        <g id="flags" transform="translate(-2610.000000, -5310.000000)">
            <g id="spain" transform="translate(2610.000000, 5310.000000)">
                <path d="M167.959589,135.000025 C175.617252,121.762218 180,106.392932 180,90 C180,73.6070678 175.617252,58.2377819 167.959589,44.9999749 L12.0403964,45 C4.38274789,58.2377819 0,73.6070678 0,90 C0,106.392932 4.38274789,121.762218 12.0404109,135.000025 L167.959604,135 L167.959589,135.000025 L167.959589,135.000025 Z" id="yellow" fill="#F2C500"></path>
                <path d="M167.959589,135.000025 C152.398162,161.901074 123.312698,180 90,180 C56.6873022,180 27.6018377,161.901074 12.0404109,135.000025 L167.959604,135 L167.959589,135.000025 L167.959589,135.000025 Z M167.959589,44.9999749 C152.398162,18.0989265 123.312698,0 90,0 C56.6873022,0 27.6018377,18.0989265 12.0404109,44.9999749 L167.959604,45 L167.959589,44.9999749 L167.959589,44.9999749 Z" id="red" fill="#E94B35"></path>
                <g id="emblem" transform="translate(13.000000, 46.000000)">
                    <g id="Group" transform="translate(19.000000, 31.000000)">
                        <path d="M6.9515274,49.0647365 C3.3728079,47.3068816 1,43.7627187 1,39.7071645 L1,3.33066907e-16 L45.7272728,3.33066907e-16 L45.7272728,39.7071645 C45.7272728,43.7627187 43.3544621,47.3068816 39.775297,49.0647365 C34.9207037,51.4202446 29.2360116,52.8365801 23.4078093,52.8365801 C17.5814019,52.8365801 11.8065682,51.4202446 6.9515274,49.0647365 Z" id="path961" fill="#FFFFFF"></path>
                        <path d="M37.1268243,6.5102276 C37.156794,6.8068782 37.0320135,7.0668999 37.0803292,7.2310529 C37.1268243,7.3970147 37.1500952,7.5277044 37.2136011,7.6470879 C37.2735266,7.7669237 37.3066193,8.0699061 37.3066193,8.0699061 C37.3066193,8.0699061 37.1353344,7.9469039 36.9765686,7.8275203 C36.8204925,7.706328 36.7082367,7.6312607 36.7082367,7.6312607 C36.7082367,7.6312607 36.7404472,7.9550436 36.755194,8.093873 C36.7721862,8.2327015 36.8522455,8.4940808 36.981937,8.6487374 C37.1102896,8.8002277 37.3669976,9.0489443 37.446156,9.2483694 C37.5284421,9.4496033 37.5118934,9.8927717 37.5118934,9.8927717 C37.5118934,9.8927717 37.3034917,9.556326 37.1246022,9.4957294 C36.9488442,9.4333239 36.5624447,9.2167149 36.5624447,9.2167149 C36.5624447,9.2167149 36.9166431,9.5721533 36.9166431,9.9104078 C36.9166431,10.24821 36.7721908,10.6325896 36.7721908,10.6325896 C36.7721908,10.6325896 36.6120862,10.3264428 36.404128,10.1256601 C36.1943818,9.926235 35.9045811,9.7254533 35.9045811,9.7254533 C35.9045811,9.7254533 36.1308759,10.24821 36.1308759,10.6009352 C36.1308759,10.9563735 36.0678181,11.7106621 36.0678181,11.7106621 C36.0678181,11.7106621 35.8911647,11.4189859 35.7145113,11.276992 C35.5365182,11.1399714 35.32856,11.0169702 35.2632661,10.9260757 C35.2002083,10.8338245 35.4734604,11.2163953 35.5029773,11.4474749 C35.5343008,11.6790076 35.6429574,12.5033911 36.3558263,13.5561371 C36.7721908,14.171601 37.4166391,15.2478637 38.7972075,14.893782 C40.1795694,14.5415091 39.6666108,12.6630182 39.37681,11.7857275 C39.0870083,10.9102484 38.9421079,9.9388968 38.9591047,9.5992866 C38.9738562,9.26284 39.2153599,8.2630003 39.183607,8.0762369 C39.1518633,7.8930913 39.0767243,7.178596 39.2484574,6.602931 C39.425107,6.0032981 39.5717953,5.7704087 39.6666108,5.5230488 C39.7609734,5.2774985 39.8410234,5.1386692 39.8732245,4.9234159 C39.9049682,4.7081635 39.9049682,4.3061478 39.9049682,4.3061478 C39.9049682,4.3061478 40.1612281,4.7845874 40.2260738,4.9537147 C40.2895798,5.1241985 40.2895798,5.6297715 40.2895798,5.6297715 C40.2895798,5.6297715 40.3374333,5.1241985 40.7242763,4.8786474 C41.1106758,4.6299308 41.560134,4.369909 41.6728333,4.2310806 C41.7850891,4.0908946 41.8181818,4 41.8181818,4 C41.8181818,4 41.7850844,4.8628201 41.5449298,5.2024313 C41.3852723,5.4226579 40.7560293,6.1403187 40.7560293,6.1403187 C40.7560293,6.1403187 41.0789228,6.0159599 41.3034297,6.0032981 C41.528381,5.985663 41.6884857,6.0032981 41.6884857,6.0032981 C41.6884857,6.0032981 41.4152327,6.2185514 41.0619306,6.7413072 C40.709072,7.2631605 40.852628,7.3092856 40.5959246,7.7397913 C40.3374333,8.1702969 40.1294751,8.1861242 39.8079213,8.4479548 C39.3249231,8.8400228 39.585207,10.3997003 39.6482648,10.631233 C39.7131105,10.8609569 40.5476229,12.7710994 40.5641716,13.2323561 C40.5789231,13.6945181 40.6607703,14.725106 39.856223,15.3866931 C39.3383395,15.8158412 38.4908533,15.8190085 38.2976559,15.9415575 C38.1040057,16.0627471 37.7211867,16.4471276 37.7211867,17.2479963 C37.7211867,18.0502207 38.0078551,18.1714103 38.2328055,18.3721939 C38.4591003,18.5729775 38.7475567,18.4648963 38.8119589,18.6195529 C38.8772528,18.7724017 38.9085576,18.8651041 39.0056045,18.9573581 C39.1022032,19.0482526 39.1670536,19.1567822 39.1339562,19.3240988 C39.1022125,19.4950358 38.7323524,19.8794173 38.6040007,20.1584308 C38.4743046,20.4324691 38.2176012,21.1582705 38.2176012,21.2649923 C38.2176012,21.3735219 38.1876315,21.7117755 38.2976559,21.8822603 C38.2976559,21.8822603 38.6992597,22.3561806 38.4255594,22.4484299 C38.2493542,22.5090294 38.0762813,22.3367329 37.9930943,22.3561806 C37.7529396,22.4199427 37.6277156,22.5696241 37.5583978,22.5569642 C37.3982931,22.5266598 37.3982931,22.4470751 37.3817444,22.218706 C37.366993,21.988982 37.3750222,21.8949249 37.3034823,21.8949249 C37.2068836,21.8949249 37.1581338,21.9749674 37.1420332,22.096157 C37.1245742,22.218706 37.1245742,22.4945569 37.0136806,22.4945569 C36.9005332,22.4945569 36.7404285,22.2951327 36.6438298,22.2508136 C36.5472311,22.204224 36.2744225,22.1581112 36.2587701,22.0355622 C36.2426649,21.91256 36.4193229,21.6511807 36.5955281,21.6046053 C36.7721815,21.5584877 36.9336259,21.4675838 36.8204832,21.3753345 C36.7073358,21.2826274 36.5955281,21.2826274 36.4841686,21.3753345 C36.3710259,21.4675838 36.1308665,21.3893539 36.1460708,21.2509729 C36.1625962,21.1121435 36.1943725,20.9443738 36.1773943,20.8665924 C36.1626429,20.7915251 35.9694361,20.6368685 36.2243562,20.4962312 C36.4823994,20.3592144 36.5937589,20.6210412 36.8504623,20.5744658 C37.108511,20.530142 37.2368627,20.4342817 37.3334614,20.2827877 C37.4300648,20.1294905 37.4130679,19.8057047 37.2368627,19.6067337 C37.0602093,19.405496 36.8840032,19.3738415 36.8187093,19.2508394 C36.7538636,19.1282904 36.6590528,18.8361638 36.6590528,18.8361638 C36.6590528,18.8361638 36.7055479,19.3738415 36.6738042,19.4520761 C36.6424807,19.5284981 36.6590528,19.850477 36.6590528,19.850477 C36.6590528,19.850477 36.4823994,19.6510481 36.337499,19.4982031 C36.1943912,19.3435465 36.0494908,18.8827392 36.0494908,18.8827392 C36.0494908,18.8827392 36.0342725,19.3132467 36.0342725,19.4837306 C36.0342725,19.6510481 36.225682,19.8057047 36.1626242,19.8681121 C36.0977785,19.9287069 35.7932169,19.5443254 35.7131669,19.4837306 C35.6313243,19.4217764 35.3750691,19.2223522 35.2619217,19.0052882 C35.150114,18.7900368 35.0682714,18.4838909 35.0369666,18.3740018 C35.0047561,18.2668269 34.9519963,17.7870345 35.0047561,17.6658402 C35.0848108,17.4822433 35.2136106,17.1584566 35.2136106,17.1584566 L34.5870509,17.1584566 C34.250741,17.1584566 34.0092419,17.0517348 33.8808902,17.2814587 C33.7529867,17.5125383 33.8160445,17.9751535 33.9761491,18.5747854 C34.1375936,19.1726095 34.2324044,19.4660955 34.1858953,19.5746251 C34.138938,19.6813478 33.9296354,19.9287069 33.8495854,19.9734744 C33.7677428,20.0214093 33.5427924,20.0051478 33.446189,19.9608239 C33.3513782,19.9142344 33.1917217,19.8360139 32.8849287,19.8360139 C32.5803709,19.8360139 32.3871688,19.8505053 32.275814,19.8233634 C32.1626665,19.7916901 31.8894145,19.6528796 31.7592702,19.6831793 C31.6309185,19.7148527 31.4090958,19.8296981 31.4694741,20.0069651 C31.5678607,20.2841707 31.3746633,20.3465734 31.2449672,20.3307461 C31.1166155,20.314461 31.0066004,20.2683435 30.8433634,20.2235712 C30.6837069,20.1760895 30.4417596,20.2235712 30.4739561,20.0372601 C30.5052796,19.8523085 30.5705594,19.8378359 30.6501613,19.7008144 C30.7315557,19.5601762 30.7615208,19.4710896 30.6711681,19.461597 C30.5584689,19.4503154 30.4453214,19.4376178 30.3572179,19.5108866 C30.2722476,19.5827866 30.1340554,19.7374441 30.0204598,19.6800167 C29.9068643,19.6194172 29.8192098,19.4869215 29.8192098,19.1965981 C29.8192098,18.9080873 29.5173371,18.6562062 29.7941417,18.6688709 C30.0705261,18.6815213 30.4220412,18.8859301 30.485099,18.7294656 C30.5468171,18.5716417 30.5088134,18.5015496 30.3589825,18.3785475 C30.2082702,18.2591658 30.0204365,18.1872611 30.2216865,18.0307966 C30.4220412,17.87614 30.4721308,17.87614 30.548605,17.7902207 C30.6237394,17.7070156 30.7315184,17.4361399 30.8719467,17.5030693 C31.147883,17.635564 30.8849242,17.8282051 31.1612993,18.139331 C31.4381319,18.4518068 31.6129927,18.5621444 32.0776543,18.5124016 C32.5418724,18.4649199 32.6688852,18.4043251 32.6688852,18.2718257 C32.6688852,18.139331 32.6299993,17.9001098 32.6165596,17.8028853 C32.6054026,17.7070156 32.680509,17.3579053 32.680509,17.3579053 C32.680509,17.3579053 32.4671861,17.4917642 32.4041283,17.622451 C32.3437547,17.7549504 32.2171909,17.981507 32.2171909,17.981507 C32.2171909,17.981507 32.1657569,17.7119908 32.180499,17.4917642 C32.1889951,17.3628805 32.2341644,17.1376777 32.2292442,17.0933633 C32.2171536,16.9735285 32.1290696,16.6723531 32.1290696,16.6723531 C32.1290696,16.6723531 32.0534871,16.9974936 32.0042938,17.0933633 C31.9542042,17.1887799 31.9291594,17.5749693 31.9291594,17.5749693 C31.9291594,17.5749693 31.634443,17.3149447 31.7162809,16.8781119 C31.7775508,16.5412131 31.6657478,16.0966862 31.7659223,15.9515269 C31.8643136,15.8063675 32.1022322,15.2175876 32.6804903,15.1922631 C33.258304,15.1701247 33.7095492,15.2176112 33.9112474,15.2067544 C34.1120493,15.1922631 34.8271551,15.0615942 34.8271551,15.0615942 C34.8271551,15.0615942 33.5091955,14.3773976 33.2082144,14.1716435 C32.9067852,13.969052 32.4421226,13.4395121 32.2905141,13.1989362 C32.1402499,12.9579071 32.0025059,12.490769 32.0025059,12.490769 C32.0025059,12.490769 31.7659223,12.5016257 31.551256,12.6214605 C31.337934,12.7394874 31.1250555,12.9230853 30.9998362,13.0646289 C30.8728243,13.2097882 30.6733622,13.5353819 30.6733622,13.5353819 C30.6733622,13.5353819 30.7100541,13.1143716 30.7100541,12.9818722 C30.7100541,12.8525401 30.6849859,12.596136 30.6849859,12.596136 C30.6849859,12.596136 30.5351653,13.1731585 30.2337398,13.3884099 C29.9323106,13.6068287 29.5807964,13.9066447 29.5807964,13.9066447 C29.5807964,13.9066447 29.6192622,13.5846715 29.6192622,13.5114121 C29.6192622,13.4395121 29.6943966,13.0664368 29.6943966,13.0664368 C29.6943966,13.0664368 29.48107,13.3884099 29.1546006,13.452172 C28.8281266,13.5114121 28.3500487,13.4987616 28.3120356,13.7045063 C28.2753437,13.9066447 28.4001383,14.1843034 28.3254333,14.3276549 C28.2498508,14.4728142 28.087061,14.568684 28.087061,14.568684 C28.087061,14.568684 27.8992273,14.41086 27.7355468,14.3995548 C27.5723098,14.3869044 27.4211494,14.4728142 27.4211494,14.4728142 C27.4211494,14.4728142 27.2829572,14.2910252 27.3325986,14.1716435 C27.384028,14.051804 27.6340278,13.8718276 27.5723098,13.7985682 C27.509252,13.7266635 27.308002,13.8238691 27.1827779,13.8831327 C27.0580068,13.9437275 26.7932508,14.0025144 26.8182956,13.7985682 C26.8433637,13.5941688 26.9063982,13.4747824 26.8433637,13.329623 C26.7807494,13.187631 26.8182956,13.0904018 26.9198379,13.0537769 C27.0195689,13.0203098 27.4211727,13.0646336 27.4591857,12.9723749 C27.4958776,12.8751504 27.3594547,12.7553147 27.0946987,12.6947199 C26.8312871,12.6359283 26.7051715,12.4781091 26.8433637,12.3456096 C26.9815559,12.2131102 27.0195689,12.1782931 27.0821786,12.0570988 C27.1447883,11.9359045 27.1693849,11.7202 27.4090961,11.8287344 C27.6456796,11.9359045 27.59559,12.2004503 27.849161,12.2850148 C28.097373,12.3709341 28.6885993,12.249754 28.812927,12.1782931 C28.9399389,12.1045805 29.3410945,11.8047646 29.4792868,11.7315052 C29.6179224,11.661414 30.1939435,11.227743 30.1939435,11.227743 C30.1939435,11.227743 29.8558457,10.9898793 29.7292819,10.8673303 C29.6045061,10.7474946 29.3795557,10.4603394 29.2681962,10.3997428 C29.1546053,10.3377904 28.6018364,10.1238938 28.4135593,10.111232 C28.2252775,10.0985721 27.6474675,9.8959796 27.6474675,9.8959796 C27.6474675,9.8959796 27.9108791,9.8100594 27.9989817,9.7381575 C28.0870843,9.6662557 28.2852029,9.4844667 28.3885145,9.4971285 C28.4869011,9.5102415 28.5114978,9.5102415 28.5114978,9.5102415 C28.5114978,9.5102415 27.9739369,9.4844638 27.860346,9.4510015 C27.7476421,9.4125639 27.4211727,9.2086158 27.2963968,9.2086158 C27.1693849,9.2086158 26.9198379,9.2579073 26.9198379,9.2579073 C26.9198379,9.2579073 27.2579357,9.0412973 27.5343201,8.9933634 C27.8106999,8.9472364 28.0240265,8.9567337 28.0240265,8.9567337 C28.0240265,8.9567337 27.5978261,8.836898 27.495859,8.6935465 C27.3961279,8.5483862 27.2963968,8.3344905 27.2194745,8.2372641 C27.1447883,8.1418475 27.0946987,7.9840264 26.9565111,7.9727212 C26.8183189,7.9600566 26.579504,8.1418475 26.4417599,8.1287335 C26.3053556,8.1178815 26.2033885,8.0315081 26.1899722,7.8289176 C26.1805891,7.6236138 26.1899722,7.6950634 26.1421186,7.5883407 C26.092029,7.4784535 25.8907827,7.2261192 26.0786127,7.1673314 C26.2686824,7.1067347 26.6698427,7.2026016 26.7065113,7.1307017 C26.7449771,7.0587999 26.4936375,6.8421909 26.3304004,6.7576273 C26.1671634,6.6744203 25.9037509,6.5292609 26.0419441,6.4098764 C26.1805798,6.2900407 26.3178757,6.242558 26.3934583,6.1340274 C26.4685927,6.0254968 26.5566953,5.7256799 26.7199276,5.8210965 C26.8831646,5.9169653 27.1090113,6.3872661 27.2346835,6.3506373 C27.3612426,6.3140076 27.370635,5.977562 27.3478262,5.8342105 C27.3228048,5.6890512 27.3478262,5.4371691 27.4712623,5.4606839 C27.5978261,5.4846537 27.6975571,5.6524215 27.8992506,5.6664408 C28.0987128,5.677746 28.4001429,5.6189581 28.3750981,5.7605008 C28.35003,5.9043035 28.2364578,6.0829271 28.0987128,6.2407492 C27.964101,6.3985713 27.9005951,6.7096933 27.9873533,6.9136405 C28.0750077,7.1193965 28.3021998,7.4449892 28.5021054,7.5756789 C28.7015675,7.7077242 29.0781265,7.8054019 29.3178376,7.9600585 C29.5557609,8.1178806 30.1089733,8.561048 30.2972551,8.6089829 C30.485085,8.6582734 30.6733668,8.7541422 30.6733668,8.7541422 C30.6733668,8.7541422 30.8862453,8.6582734 31.1764896,8.6582734 C31.4645025,8.6582734 32.1290743,8.7062083 32.3804093,8.5976768 C32.6317498,8.4877896 32.9582239,8.309166 32.8580447,8.079442 C32.7587617,7.8528845 32.2055485,7.6471276 32.2556381,7.468504 C32.305723,7.2885247 32.506973,7.275862 32.8446283,7.2632002 C33.1831743,7.251895 33.6478358,7.3237968 33.7345987,6.8421909 C33.8227013,6.3619425 33.8477461,6.0842837 33.373244,5.977562 C32.8951614,5.8690314 32.5431981,5.8581784 32.4573316,5.5086187 C32.3683373,5.1608679 32.2806782,5.0767565 32.3804093,4.9790788 C32.4823764,4.8850179 32.6567946,4.8357274 33.0083088,4.8135693 C33.3598276,4.7877916 33.7609832,4.7877916 33.8745788,4.7018723 C33.9877262,4.620475 34.0109784,4.3907511 34.1491707,4.2935257 C34.2869147,4.1994657 34.8284996,4.1130933 34.8284996,4.1130933 C34.8284996,4.1130933 35.473395,4.4323542 36.072673,4.8818525 C36.6088885,5.2870345 37.0936802,5.8853108 37.0936802,5.8853108 C37.0937269,5.8771305 37.0955941,6.2009144 37.1268243,6.5102276 Z" id="path989" fill="#9C56B8"></path>
                        <path d="M36.2309768,3.9366926 L36.0942226,3.9451575 C36.0880054,3.9592642 36.0265593,4.0418901 35.9684257,4.0874347 C35.8473937,4.1853774 35.6648956,4.1966628 35.5619731,4.1144407 C35.5119418,4.0717175 35.4871624,4.0120653 35.4962147,3.950801 C35.4161616,3.9850602 35.3327761,3.9850602 35.254633,3.9479822 C35.1321685,3.8883309 35.1016743,3.7460519 35.1907796,3.6279576 C35.2050543,3.605386 35.2193788,3.5755604 35.2408109,3.5586323 L35.2317586,3.4292518 L35.0664151,3.4618996 L35.0187663,3.5384798 C34.9158388,3.6368247 34.7633625,3.6622177 34.6871193,3.6041777 C34.6499652,3.5771717 34.6227934,3.5018024 34.6251758,3.498981 C34.626668,3.5017998 34.5856342,3.5328363 34.5432178,3.5413012 C34.2897239,3.5941015 34.1887014,3.1221257 34.1829865,3 L34.0996011,3.0995549 C34.0996011,3.0995549 34.1744068,3.382095 34.1367552,3.6211058 C34.0996011,3.8597144 34,4.0987251 34,4.0987251 C34.3535625,4.1753054 34.8824746,4.4183466 35.4070994,4.7609419 C35.9326791,5.1007167 36.3458016,5.4703163 36.5163885,5.7290765 C36.5163885,5.7290765 36.7879919,5.600906 37.0734174,5.5243258 C37.3559781,5.4461334 37.7157368,5.4445212 37.7157368,5.4445212 L37.8181819,5.3594769 C37.6676105,5.378018 37.07008,5.399378 37.0819922,5.1873732 C37.0844791,5.1535179 37.1144213,5.1164356 37.1196438,5.1164356 C37.1161621,5.1192545 37.0205312,5.1120013 36.9776472,5.0894297 C36.8909243,5.0410629 36.8928293,4.9173259 36.9885895,4.8149497 L37.071975,4.7637616 L37.0771975,4.6275301 L36.9170964,4.6460712 C36.9028216,4.6630009 36.8661101,4.6827495 36.8446681,4.7000806 C36.7188712,4.7923798 36.5378006,4.7992316 36.4382155,4.712576 C36.378176,4.6630001 36.3595889,4.5960931 36.3853233,4.5263647 C36.3124176,4.5449058 36.2361794,4.539264 36.1718485,4.5078236 C36.0498664,4.4453501 36.0265195,4.2990423 36.1208672,4.1853808 C36.1646862,4.1297591 36.2519015,4.0644651 36.2671512,4.0576133 L36.2342745,3.9379059 L36.2307928,3.9366859 L36.2309768,3.9366926 L36.2309768,3.9366926 Z" id="path1169" fill="#F2C500"></path>
                        <path d="M23.582633,51.1182659 C23.582633,51.1182659 21.6634545,50.1824111 21.239734,50.1017153 C20.1900461,49.9010496 19.010464,50.0634955 18.5,50.0391717 C18.514379,50.052637 19.1120785,50.4387676 19.3742603,50.6776532 C19.6369224,50.9152376 20.511662,51.3899757 21.0058308,51.5020375 C22.0639734,51.7425027 23.582633,51.5048157 23.582633,51.5048157 L23.4035978,52.7610881 L23.9454679,52.5102336 L23.9454679,51.2604778 C24.8418913,50.6776532 26.8111296,51.9208171 29.4858732,50.2252605 C25.5417814,49.5176189 24.4147954,51.0391636 23.8771557,51.1254542 L23.8493576,50.5619507 L23.4948654,50.5619507 L23.582633,51.1182659 Z" id="path1032" fill="#058E6E"></path>
                        <path d="M24.7647669,47.0192707 C25.7233387,47.2917698 26.2090787,47.9666915 26.2090787,48.7567149 C26.2090787,49.7856679 25.153176,50.5665346 23.7822123,50.5665346 C22.4117069,50.5665346 21.2999878,49.7856679 21.2999878,48.7567149 C21.2999878,47.9788974 21.7571311,47.1099596 22.7101646,47.0471778 C22.7101646,47.0471778 22.6811008,46.9656456 22.5989922,46.8317945 C22.5002754,46.7319488 22.3051483,46.5457788 22.3051483,46.5457788 C22.3051483,46.5457788 22.6691093,46.4812539 22.8789975,46.5566558 C23.0902705,46.632085 23.2291199,46.7580901 23.2291199,46.7580901 C23.2291199,46.7580901 23.3287593,46.5736631 23.46807,46.4306552 C23.6087636,46.2889581 23.7909757,46.2000122 23.7909757,46.2000122 C23.7909757,46.2000122 24.0017893,46.3674365 24.070982,46.4794881 C24.1397124,46.5950257 24.1844589,46.7319261 24.1844589,46.7319261 C24.1844589,46.7319261 24.3782031,46.5810722 24.5465766,46.5195965 C24.7144879,46.4568147 24.9312963,46.4075495 24.9312963,46.4075495 C24.9312963,46.4075495 24.8694804,46.6059255 24.8284271,46.7070773 C24.7869211,46.8073553 24.7647669,47.0192479 24.7647669,47.0192479" id="path1030" fill="#F6CB7E"></path>
                        <polygon id="path965" stroke="#262626" stroke-width="0.1" fill="#CA4638" points="1 25.1075036 23.3636364 25.1075036 23.3636364 0 1 0"></polygon>
                        <path d="M12.2078329,50.6533189 C6.0174417,50.6533189 1,45.8674336 1,39.9630056 L1,2.22044605e-16 L23.3636364,2.22044605e-16 L23.3636364,24.7998047 L45.7543945,24.7998047 L45.7543945,39.9630051 C45.7543945,39.9630051 45.7543945,50.6533203 34.6694336,50.6533203 C23.5844727,50.6533222 23.3636364,39.9630056 23.3636364,39.9630056 C23.3636364,45.8674336 18.3959814,50.6533189 12.2078329,50.6533189 Z" id="path977" fill="#E94B35"></path>
                        <path d="M6.8613525,8.27305848 L6.8613525,14.8433124 L5,14.8490929 L5,18.3704906 L18.0909091,18.3507885 L18.0909091,14.8293909 L16.2905959,14.822406 L16.2905959,8.25358457 L17.4545454,8.2511807 L17.4545454,5.0059008 L15.8746084,5.001209 L15.4796243,5.3447402 L15.5004156,6.8401119 L14.3570393,6.8341953 L14.3081121,5.3210667 L13.9339165,5.0059028 L12.7025583,5.0071375 L12.3821172,5.3447501 L12.3638509,6.8901328 L11.1103355,6.8853422 L11.1140107,5.3245495 L10.6908878,5 L9.4509182,5.0012347 L9.0828119,5.2533245 L9.0926825,6.8805535 L7.8815724,6.8770964 L7.8631963,5.3008938 L7.4365071,5.0130828 L6,5.0214491 L6,8.2748918 L6,8.2748374 L6.8613525,8.27305848 Z M8,10.7290764 L8,8.9096918 C8,8.413499 8.2975211,8 8.8181818,8 C9.3388425,8 9.6363636,8.413499 9.6363636,8.9096918 L9.6363636,10.7290764 L8,10.7290764 Z M13.53125,10.737133 L13.53125,8.91774844 C13.53125,8.42155604 13.8287717,8.00805664 14.3494314,8.00805664 C14.8700928,8.00805664 15.1676137,8.42155604 15.1676137,8.91774844 L15.1676137,10.737133 L13.53125,10.737133 Z M13.4766291,16.8288858 L13.4766291,14.6603727 C13.4766291,14.2473256 13.2903768,13.0081787 11.5209747,13.0081787 C9.84469967,13.0081787 9.65844727,14.2473256 9.65844727,14.6603727 L9.65844727,16.8288858 L13.4766291,16.8288858 Z" id="path6420" fill="#F2C500"></path>
                        <g transform="translate(25.500000, 25.700012)" id="Shape">
                            <path d="M2.1242,10.1593 C2.1622,10.24005 2.183575,10.321275 2.183575,10.40725 C2.183575,10.6989 1.9361,10.93165 1.62735,10.93165 C1.320975,10.93165 1.072075,10.6989 1.072075,10.40725 C1.072075,10.321275 1.09345,10.24005 1.1324,10.169275 L0.35625,10.1593 C0.3401,10.238625 0.3306,10.321275 0.3306,10.40725 C0.3306,10.956825 0.7106,11.4228 1.235,11.57955 L1.23405,13.485725 L2.0482,13.490475 L2.049625,11.571 C2.427725,11.447975 2.725075,11.1644 2.855225,10.8034 L5.04165,10.8034 L5.04165,10.1593 L2.1242,10.1593 L2.1242,10.1593 Z M12.8497,10.1593 L12.8497,10.8034 L10.883675,10.808625 C10.853275,10.8946 10.80435,10.973925 10.757325,11.04945 L13.04065,13.6439 L12.4279,14.1398 L10.1555,11.5425 C10.1137,11.5558 10.0928,11.572425 10.048625,11.5843 L10.042925,15.876875 L9.238275,15.876875 L9.236375,11.565775 C9.202175,11.5577 9.173675,11.5406 9.14185,11.5254 L6.77635,14.1398 L6.1636,13.6439 L8.527675,11.019525 C8.48635,10.9535 8.456425,10.8813 8.42935,10.8034 L6.3973,10.8034 L6.3973,10.1593 L12.8516,10.1593 L12.8497,10.1593 L12.8497,10.1593 Z M14.159275,10.1593 L14.159275,10.8034 L16.3476,10.8034 C16.47775,11.1644 16.771775,11.447975 17.152725,11.571 L17.15415,13.490475 L17.966875,13.485725 L17.964975,11.57955 C18.490325,11.4228 18.87175,10.956825 18.87175,10.40725 C18.87175,10.321275 18.862725,10.238625 18.842775,10.1593 L18.06995,10.1593 C18.107475,10.24005 18.12695,10.321275 18.12695,10.40725 C18.12695,10.6989 17.881375,10.93165 17.5731,10.93165 C17.2672,10.93165 17.01735,10.6989 17.01735,10.40725 C17.01735,10.321275 17.038725,10.24005 17.07815,10.169275 L14.159275,10.1593 L14.159275,10.1593 Z M10.8547,21.103775 C11.492625,21.003075 12.080675,20.827325 12.661125,20.583175 L13.060125,21.2629 C12.392275,21.549325 11.67265,21.755475 10.922625,21.86805 C10.7977,22.42285 10.27995,22.839425 9.65675,22.839425 C9.034975,22.839425 8.516275,22.428075 8.388025,21.877075 C7.595725,21.768775 6.844275,21.564525 6.1408,21.2629 L6.5417,20.583175 C7.15255,20.8411 7.80425,21.01305 8.48065,21.1071 C8.623625,20.7974 8.88535,20.558 9.22925,20.446375 L9.236375,17.118525 L10.039125,17.118525 L10.046725,20.4345 C10.402975,20.5409 10.70365,20.783625 10.853275,21.103775 L10.8547,21.103775 L10.8547,21.103775 Z M5.395525,19.987525 L4.999375,20.670575 C4.320125,20.248775 3.714975,19.728175 3.195325,19.143925 C2.782075,19.265525 2.31515,19.193325 1.9627,18.906425 C1.4174,18.4642 1.351375,17.688525 1.8183,17.1741 L1.886225,17.1019 C1.557525,16.359475 1.335225,15.561475 1.259225,14.725 L2.071475,14.728325 C2.135125,15.44225 2.31325,16.121975 2.59065,16.759425 C2.819125,16.727125 3.063275,16.7542 3.28225,16.835425 L5.3143,14.586775 L5.926575,15.08125 L3.90735,17.3261 C4.18,17.740775 4.169075,18.275625 3.857475,18.68365 C4.305875,19.180025 4.820775,19.621775 5.395525,19.987525 L5.395525,19.987525 Z M2.3826,17.629625 C2.582575,17.40685 2.933125,17.381675 3.16635,17.57025 C3.40005,17.7593 3.42855,18.093225 3.22905,18.312675 C3.0286,18.53355 2.678525,18.560625 2.4453,18.371575 C2.212075,18.1811 2.183575,17.8505 2.3826,17.629625 L2.3826,17.629625 Z M1.3585,15.40615 L0.52345,15.219475 L0.40565,13.1043 L1.23405,12.8307 L1.235,14.04385 C1.235,14.5141 1.2768,14.95965 1.3585,15.40615 L1.3585,15.40615 Z M2.051525,12.783675 L2.88325,12.979375 C2.88325,12.979375 2.926,14.338825 2.908425,14.0334 C2.886575,13.677625 2.99915,15.09645 2.99915,15.09645 L2.1603,15.3729 C2.0767,14.941125 2.0482,14.4989 2.0482,14.04385 L2.049625,12.783675 L2.051525,12.783675 L2.051525,12.783675 Z M4.7937,19.550525 C5.494325,20.09725 6.308475,20.5409 7.188175,20.8221 L7.373425,20.017925 C6.650475,19.789925 5.98025,19.456475 5.390775,19.0228 L4.7937,19.550525 L4.7937,19.550525 Z M4.391375,20.24545 C5.101975,20.7803 5.9147,21.20875 6.785375,21.505625 L6.1636,22.0875 C5.46535,21.829575 4.8089,21.489 4.2066,21.083825 L4.391375,20.24545 L4.391375,20.24545 Z M5.47675,15.5838 L6.27095,15.92105 L7.723975,14.308425 L7.2466,13.62205 L5.47675,15.5838 L5.47675,15.5838 Z M4.860675,15.086 L4.38425,14.3963 L5.838225,12.783675 L6.63005,13.12235 L4.860675,15.086 L4.860675,15.086 Z M13.80635,19.987525 L14.20345,20.670575 C14.88175,20.248775 15.48785,19.728175 16.0075,19.143925 C16.41885,19.265525 16.887675,19.193325 17.23965,18.906425 C17.78495,18.4642 17.84765,17.688525 17.383575,17.1741 L17.3147,17.1019 C17.64435,16.359475 17.867125,15.561475 17.9398,14.725 L17.131825,14.728325 C17.0677,15.44225 16.887675,16.121975 16.611225,16.759425 C16.3818,16.727125 16.13955,16.7542 15.918675,16.835425 L13.888525,14.586775 L13.275775,15.08125 L15.293575,17.3261 C15.022825,17.740775 15.033275,18.275625 15.34345,18.68365 C14.896,19.180025 14.381575,19.621775 13.80635,19.987525 L13.80635,19.987525 Z M16.81785,17.629625 C16.61835,17.40685 16.269225,17.381675 16.036475,17.57025 C15.8023,17.7593 15.774275,18.093225 15.973775,18.312675 C16.173275,18.53355 16.5243,18.560625 16.757525,18.371575 C16.991225,18.1811 17.01735,17.8505 16.81785,17.629625 L16.81785,17.629625 Z M17.842425,15.40615 L18.677475,15.219475 L18.795275,13.1043 L17.968775,12.8307 L17.966875,14.04385 C17.966875,14.5141 17.92555,14.95965 17.842425,15.40615 L17.842425,15.40615 Z M17.1513,12.783675 L16.319575,12.979375 C16.319575,12.979375 16.27445,14.338825 16.292975,14.0334 C16.315775,13.677625 16.201775,15.09645 16.201775,15.09645 L17.040625,15.3729 C17.1247,14.941125 17.152725,14.4989 17.152725,14.04385 L17.1513,12.783675 L17.1513,12.783675 Z M14.408175,19.550525 C13.7066,20.09725 12.89245,20.5409 12.01465,20.8221 L11.8294,20.017925 C12.550925,19.789925 13.2221,19.456475 13.81015,19.0228 L14.408175,19.550525 L14.408175,19.550525 Z M14.810975,20.24545 C14.098,20.7803 13.288125,21.20875 12.416975,21.505625 L13.03875,22.0875 C13.737,21.829575 14.393925,21.489 14.996225,21.083825 L14.810975,20.24545 L14.810975,20.24545 Z M13.726075,15.5838 L12.931875,15.92105 L11.478375,14.308425 L11.95575,13.62205 L13.726075,15.5838 L13.726075,15.5838 Z M14.341675,15.086 L14.8181,14.3963 L13.3646,12.783675 L12.5723,13.12235 L14.341675,15.086 L14.341675,15.086 Z M4.39375,10.8053 L4.6379,11.5976 L6.876575,11.5976 L7.117875,10.8053 L4.39375,10.8053 L4.39375,10.8053 Z M14.85135,10.8053 L14.605775,11.5976 L12.368525,11.5976 L12.127225,10.8053 L14.85135,10.8053 L14.85135,10.8053 Z M9.101,21.610125 C9.101,21.318 9.3499,21.0824 9.65675,21.0824 C9.96265,21.0824 10.210125,21.318 10.210125,21.610125 C10.210125,21.90035 9.96265,22.134525 9.65675,22.134525 C9.3499,22.134525 9.101,21.90035 9.101,21.610125 L9.101,21.610125 Z M10.042925,17.7745 L10.87845,17.540325 L10.87845,15.42325 L10.042925,15.193825 L10.042925,17.7745 L10.042925,17.7745 Z M9.23305,17.7745 L8.399425,17.540325 L8.399425,15.42325 L9.23305,15.193825 L9.23305,17.7745 L9.23305,17.7745 Z" fill="#F2C500"></path>
                            <path d="M0.35625,10.177825 C0.4522,9.73655 0.79705,9.3784 1.24165,9.24445 L1.235,6.631 L2.041075,6.631 L2.0425,9.2587 C2.440075,9.383625 2.745975,9.67765 2.869,10.056225 L5.04165,10.05955 L5.04165,10.177825 L2.1242,10.177825 C2.03395,10.017275 1.844425,9.897575 1.62735,9.897575 C1.412175,9.897575 1.223125,10.017275 1.1324,10.1878 L0.35625,10.177825 L0.35625,10.177825 Z M6.3954,10.177825 L6.3954,10.05955 L8.413675,10.05955 C8.436475,9.993525 8.4664,9.9294 8.5006,9.8686 L6.01065,7.09365 L6.622925,6.5968 L9.081525,9.326625 C9.1238,9.305725 9.168925,9.2872 9.212625,9.272 L9.215,5.6354 L10.01965,5.6354 L10.01965,9.249675 C10.05575,9.260125 10.110375,9.2701 10.146475,9.28055 L12.5476,6.54645 L13.164625,7.036175 L10.754,9.758875 C10.816225,9.850075 10.8585,9.951725 10.8927,10.05955 L12.848275,10.05955 L12.848275,10.177825 L6.3935,10.177825 L6.3954,10.177825 L6.3954,10.177825 Z M17.07815,10.177825 C17.1684,10.017275 17.356025,9.897575 17.5731,9.897575 C17.79065,9.897575 17.9778,10.017275 18.06995,10.1878 L18.842775,10.177825 C18.74635,9.73655 18.404825,9.3784 17.95975,9.24445 L17.964975,6.632425 L17.161275,6.632425 L17.15795,9.260125 C16.76275,9.38505 16.456375,9.67765 16.33335,10.056225 L14.159275,10.05955 L14.159275,10.177825 L17.07815,10.177825 L17.07815,10.177825 Z M2.171225,2.796325 L5.1661,6.1541 L5.779325,5.65725 L2.767825,2.312775 C2.827675,2.223 2.870425,2.125625 2.906525,2.020175 L5.097225,2.020175 L5.097225,1.256375 L2.9051,1.256375 C2.73695,0.761425 2.2458,0.4066 1.66725,0.4066 C0.95095,0.4066 0.3686,0.9576 0.3686,1.637325 C0.3686,2.175975 0.732925,2.635775 1.2426,2.80155 L1.23785,5.3922 L2.0425,5.3922 L2.0425,2.81865 C2.0767,2.808675 2.13845,2.808675 2.171225,2.796325 L2.171225,2.796325 Z M17.974,2.813425 L17.966875,5.3922 L17.161275,5.3922 L17.161275,2.80345 C17.099525,2.783975 17.038725,2.7588 16.98125,2.729825 L14.002525,6.091875 L13.38645,5.601675 L16.422175,2.174075 C16.397475,2.125625 16.370875,2.0748 16.352825,2.020175 L14.15025,2.020175 L14.15025,1.256375 L16.346175,1.256375 C16.515275,0.761425 17.001675,0.4066 17.578325,0.4066 C18.29415,0.4066 18.876975,0.9576 18.876975,1.637325 C18.876975,2.18975 18.500775,2.655725 17.974,2.813425 L17.974,2.813425 Z M10.028675,2.80345 L10.02155,4.391375 L9.2169,4.391375 L9.2188,2.81675 C8.8179,2.698 8.502025,2.401125 8.37045,2.020175 L6.40585,2.020175 L6.40585,1.256375 L8.37045,1.256375 C8.540025,0.761425 9.02405,0.4066 9.601175,0.4066 C10.1783,0.4066 10.666125,0.761425 10.8357,1.256375 L12.83925,1.256375 L12.83925,2.020175 L10.830475,2.020175 C10.70365,2.38735 10.412,2.67995 10.028675,2.80345 L10.028675,2.80345 Z M1.244975,4.731 L0.409925,4.966125 L0.409925,7.0889 L1.244975,7.3188 L1.244975,4.731 L1.244975,4.731 Z M2.055325,4.731 L2.888475,4.966125 L2.888475,7.0889 L2.055325,7.3188 L2.055325,4.731 L2.055325,4.731 Z M17.15415,4.731 L16.321,4.966125 L16.321,7.0889 L17.15415,7.3188 L17.15415,4.731 L17.15415,4.731 Z M17.964975,4.731 L18.8005,4.966125 L18.8005,7.0889 L17.964975,7.3188 L17.964975,4.731 L17.964975,4.731 Z M5.324275,5.14995 L6.119425,4.8127 L7.572925,6.428175 L7.09555,7.1174 L5.324275,5.14995 L5.324275,5.14995 Z M4.70915,5.6506 L4.233675,6.3422 L5.6867,7.955775 L6.479,7.61615 L4.70915,5.6506 L4.70915,5.6506 Z M13.83485,5.087725 L13.03875,4.75665 L11.5995,6.384 L12.0821,7.068475 L13.83485,5.087725 L13.83485,5.087725 Z M14.454725,5.58315 L14.93685,6.26905 L13.498075,7.8964 L12.703875,7.563425 L14.454725,5.58315 L14.454725,5.58315 Z M4.39375,10.058125 L4.6379,9.26535 L6.876575,9.26535 L7.117875,10.058125 L4.39375,10.058125 L4.39375,10.058125 Z M1.1115,1.63875 C1.1115,1.348525 1.3604,1.1115 1.66725,1.1115 C1.97315,1.1115 2.2211,1.348525 2.2211,1.63875 C2.2211,1.92945 1.97315,2.1641 1.66725,2.1641 C1.3604,2.1641 1.1115,1.92945 1.1115,1.63875 L1.1115,1.63875 Z M7.098875,2.022075 L6.8533,2.81675 L4.61605,2.81675 L4.374275,2.022075 L7.098875,2.022075 L7.098875,2.022075 Z M7.098875,1.25305 L6.8533,0.46075 L4.61605,0.46075 L4.374275,1.25305 L7.098875,1.25305 L7.098875,1.25305 Z M14.85135,10.058125 L14.605775,9.26535 L12.368525,9.26535 L12.127225,10.058125 L14.85135,10.058125 L14.85135,10.058125 Z M17.02305,1.63875 C17.02305,1.348525 17.270525,1.1115 17.578325,1.1115 C17.885175,1.1115 18.13265,1.348525 18.13265,1.63875 C18.13265,1.92945 17.885175,2.1641 17.578325,2.1641 C17.270525,2.1641 17.02305,1.92945 17.02305,1.63875 L17.02305,1.63875 Z M9.0459,1.63875 C9.0459,1.348525 9.295275,1.1115 9.601175,1.1115 C9.908025,1.1115 10.1555,1.348525 10.1555,1.63875 C10.1555,1.92945 9.908025,2.1641 9.601175,2.1641 C9.295275,2.1641 9.0459,1.92945 9.0459,1.63875 L9.0459,1.63875 Z M12.146225,2.022075 L12.392275,2.81675 L14.62905,2.81675 L14.8713,2.022075 L12.146225,2.022075 L12.146225,2.022075 Z M12.146225,1.25305 L12.392275,0.46075 L14.62905,0.46075 L14.8713,1.25305 L12.146225,1.25305 L12.146225,1.25305 Z M9.224025,3.73255 L8.3904,3.9672 L8.3904,6.089975 L9.224025,6.319875 L9.224025,3.73255 L9.224025,3.73255 Z M10.02535,3.73255 L10.8585,3.9672 L10.8585,6.089975 L10.02535,6.319875 L10.02535,3.73255 L10.02535,3.73255 Z" fill="#F2C500"></path>
                            <path d="M8.3562,10.42055 C8.3562,9.7394 8.939025,9.187925 9.65675,9.187925 C10.372575,9.187925 10.954925,9.7394 10.954925,10.42055 C10.954925,11.09885 10.372575,11.648425 9.65675,11.648425 C8.939025,11.648425 8.3562,11.09885 8.3562,10.42055" fill="#058E6E"></path>
                        </g>
                        <path d="M5.69999695,48.6848066 C6.41007245,49.051833 7.38540075,49.6629554 8.42726975,49.9074914 L8.36118485,24.7999878 L5.69999695,24.7999878 L5.69999695,48.6848066 Z M13.4272697,50.5822754 L13.4272696,24.7999878 L10.6999969,24.7999878 L10.699997,50.5822754 C11.7672718,50.6862234 12.5631737,50.6654328 13.4272697,50.5822754 Z M15.6999969,49.9074914 C16.7416917,49.703787 17.9159909,49.0722488 18.4272696,48.7460495 L18.4272696,24.7999878 L15.7665264,24.7999878 L15.6999969,49.9074914 Z M20.7681908,46.6325996 C21.9036584,45.6683008 22.9713992,43.4724837 23.3595398,40.9692347 L23.4272696,24.7999878 L20.6999969,24.7999878 L20.7681908,46.6325996 Z M3.63180305,46.6325996 C2.49633545,45.6683008 1.42859465,43.4724837 1.04045405,40.9692347 L0.972724248,24.7999878 L3.69999695,24.7999878 L3.63180305,46.6325996 Z" id="path968" fill="#C8A200"></path>
                        <path d="M23.0902498,17 C27.0071749,17 30.1818182,20.6654564 30.1818182,25.187229 C30.1818182,29.7089969 27.0071749,33.3744589 23.0902498,33.3744589 C19.1746479,33.3744589 16,29.7089969 16,25.187229 C16,20.6654611 19.1746479,17 23.0902498,17 Z" id="path1153" fill="#E94B35"></path>
                        <path d="M23.1825029,19 C26.0444898,19 28.3636364,21.6871096 28.3636364,25.0023944 C28.3636364,28.3190301 26.0444898,31.0079365 23.1825029,31.0079365 C20.3186923,31.0079365 18,28.3190301 18,25.0023944 C18,21.6857587 20.3186923,19 23.1825029,19 Z" id="path1155" fill="#346DA6"></path>
                        <path d="M20.9305734,21 C20.9305734,21 20.3308848,21.7079451 20.3308848,22.363201 C20.3308848,23.0222869 20.5842739,23.5692918 20.5842739,23.5692918 C20.493587,23.3092014 20.2486441,23.1219182 19.9605795,23.1219182 C19.5964986,23.1219182 19.2999878,23.4227222 19.2999878,23.7958545 C19.2999878,23.9041056 19.3613344,24.0727094 19.4075669,24.165631 L19.6227261,24.6336038 C19.6938534,24.4611652 19.8614465,24.3648887 20.0566007,24.3648887 C20.3175478,24.3648887 20.5300398,24.5794758 20.5300398,24.846751 C20.5300398,24.8869995 20.525149,24.9277031 20.5153674,24.9645817 L19.9770254,24.9665816 L19.9770254,25.4599385 L20.4571325,25.4599385 L20.0997186,26.2234456 L20.5731587,26.0241879 L20.9305715,26.458153 L21.3013205,26.0241879 L21.7734259,26.2234456 L21.4173467,25.4599385 L21.8974538,25.4599385 L21.8974538,24.9665816 L21.3577782,24.9645817 C21.3479965,24.9276831 21.3462193,24.8869845 21.3462193,24.846751 C21.3462193,24.5794758 21.5547105,24.3648887 21.8161021,24.3648887 C22.0112564,24.3648887 22.1788494,24.4611652 22.2513094,24.6336038 L22.4646914,24.165631 C22.5113684,24.0727094 22.5727151,23.9041056 22.5727151,23.7958545 C22.5727151,23.4227222 22.2779824,23.1219182 21.9121234,23.1219182 C21.6240587,23.1219182 21.3808939,23.3092014 21.2897626,23.5692918 C21.2897626,23.5692918 21.5413735,23.0222869 21.5413735,22.363201 C21.5413735,21.7079451 20.929237,21 20.929237,21 L20.9305827,21 L20.9305734,21 Z M25.9307894,21 C25.9307894,21 25.3314666,21.7079451 25.3314666,22.363201 C25.3314666,23.0222869 25.5831116,23.5692918 25.5831116,23.5692918 C25.4937476,23.3092014 25.2487715,23.1219182 24.9606681,23.1219182 C24.5947601,23.1219182 24.2999878,23.4227222 24.2999878,23.7958545 C24.2999878,23.9041056 24.3613444,24.0727094 24.4075857,24.165631 L24.6209901,24.6336038 C24.6943526,24.4611652 24.8615203,24.3648887 25.056701,24.3648887 C25.3181289,24.3648887 25.5284239,24.5794758 25.5284239,24.846751 C25.5284239,24.8869995 25.5251753,24.9277031 25.5155224,24.9645817 L24.9771106,24.9665816 L24.9771106,25.4599385 L25.4572798,25.4599385 L25.0998191,26.2234456 L25.571542,26.0241879 L25.9307802,26.458153 L26.3002468,26.0241879 L26.7737471,26.2234456 L26.4158408,25.4599385 L26.89601,25.4599385 L26.89601,24.9665816 L26.3580438,24.9645817 C26.3478339,24.9276831 26.3447246,24.8869845 26.3447246,24.846751 C26.3447246,24.5794758 26.5550196,24.3648887 26.816893,24.3648887 C27.0120728,24.3648887 27.1792414,24.4611652 27.2503809,24.6336038 L27.4655674,24.165631 C27.5122496,24.0727094 27.5727151,23.9041056 27.5727151,23.7958545 C27.5727151,23.4227222 27.2770564,23.1219182 26.9124804,23.1219182 C26.6248225,23.1219182 26.37896,23.3092014 26.288705,23.5692918 C26.288705,23.5692918 26.5416818,23.0222869 26.5416818,22.363201 C26.5416818,21.7079451 25.9294668,21 25.9294668,21 L25.930859,21 L25.9307894,21 Z M22.9296801,25 C22.9296801,25 22.3307622,25.7079473 22.3307622,26.3651222 C22.3307622,27.0222961 22.5840131,27.5693036 22.5840131,27.5693036 C22.4929318,27.3092119 22.2494562,27.1219279 21.9602168,27.1219279 C21.5963348,27.1219279 21.2999878,27.4227333 21.2999878,27.7958663 C21.2999878,27.9055528 21.3613007,28.0727224 21.4075078,28.1656445 L21.6225489,28.6336204 C21.6954143,28.461181 21.860693,28.3634691 22.055741,28.3634691 C22.3174335,28.3634691 22.5293645,28.5794922 22.5293645,28.8467686 C22.5293645,28.8889173 22.5244764,28.929156 22.5142596,28.9665148 L21.9766565,28.9680147 L21.9766565,29.4613739 L22.4582771,29.4613739 L22.1006162,30.2248844 L22.5724625,30.0241858 L22.9296801,30.4581529 L23.3002218,30.0241858 L23.7734046,30.2248844 L23.4144108,29.4613739 L23.8955844,29.4613739 L23.8955844,28.9680147 L23.3579841,28.9665148 C23.3481986,28.929166 23.344674,28.8889223 23.344674,28.8467686 C23.344674,28.5794922 23.5552712,28.3634691 23.8165166,28.3634691 C24.0111231,28.3634691 24.176846,28.461181 24.2501548,28.6336204 L24.465195,28.1656445 C24.5109689,28.0727224 24.572715,27.9055528 24.572715,27.7958663 C24.572715,27.4227333 24.276367,27.1219279 23.9124888,27.1219279 C23.6245814,27.1219279 23.3815482,27.3092119 23.2886925,27.5693036 C23.2886925,27.5693036 23.5419425,27.0222961 23.5419425,26.3651222 C23.5419425,25.7079473 22.9279178,25 22.9279178,25 L22.9297728,25 L22.9296801,25 Z" id="path1157" fill="#F2C500"></path>
                    </g>
                    <g id="right" transform="translate(64.000000, 24.000000)">
                        <path d="M5.22393244,9.7290764 C5.22393244,9.7290764 5.59307296,10.3098149 5.59307301,10.8442998 C5.59307301,11.3787847 5.22393239,11.9118047 5.22393239,11.9118047 L12.992487,11.9118047 C12.992487,11.9118047 12.3158512,11.4543462 12.3158512,10.8442998 C12.3158512,10.2342534 12.9924871,9.7290764 12.9924871,9.7290764 L13.8181818,9.7290764 L13.8181818,7 L4,7 L4,9.7290764 L5.22393244,9.7290764 Z" id="path648" fill="#C8A200"></path>
                        <path d="M5.22393244,55.8172717 C5.22393244,55.8172717 5.59307296,56.3980103 5.59307301,56.9324951 C5.59307301,57.46698 5.22393239,58 5.22393239,58 L12.992487,58 C12.992487,58 12.3158512,57.5425415 12.3158512,56.9324951 C12.3158512,56.3224487 12.9924871,55.8172717 12.9924871,55.8172717 L13.8181818,55.8172717 L13.8181818,53.0881953 L4,53.0881953 L4,55.8172717 L5.22393244,55.8172717 Z" id="path648" fill="#C8A200" transform="translate(8.909091, 55.544098) scale(1, -1) translate(-8.909091, -55.544098) "></path>
                        <rect id="Rectangle-1" fill="#FFFFFF" x="5" y="12" width="8" height="41"></rect>
                        <path d="M13.9179904,57.3288545 C13.4781505,57.1246303 12.8827356,57 12.2260608,57 C11.5663001,57 10.955901,57.1262375 10.5160611,57.3316704 C10.0744584,57.5431335 9.46405932,57.6733912 8.79768774,57.6733912 C8.12294374,57.6733912 7.522681,57.5302714 7.07931516,57.3147839 C6.64300082,57.1189986 6.05860389,57 5.41867633,57 C4.75715341,57 4.16967206,57.1149784 3.72983201,57.3232271 C3.28646627,57.5375061 2.67298189,57.6733912 2,57.6733912 L2,62.6374459 C2.67298189,62.6374459 3.28646627,62.4971377 3.72983201,62.2844651 C4.16967206,62.0774251 4.75715341,61.9600337 5.41867633,61.9600337 C6.05684105,61.9600337 6.64123797,62.0802367 7.07931516,62.2776333 C7.52091815,62.4915103 8.12294374,62.6374459 8.79768774,62.6374459 C9.46405932,62.6374459 10.0744584,62.5043766 10.5160611,62.2945156 C10.955901,62.086267 11.5663001,61.9600337 12.2260608,61.9600337 C12.8827356,61.9600337 13.4781505,62.086267 13.9179904,62.291704 C14.361356,62.5071882 14.951923,62.6374459 15.6284308,62.6374459 L15.6363618,57.6733912 C14.9620594,57.6733912 14.361356,57.5443421 13.9179904,57.3288545 Z" id="path656" fill="#227FBB"></path>
                        <path d="M15.6363636,60.6769143 C14.9620594,60.6769143 14.361356,60.5467524 13.9179904,60.3314266 C13.4781505,60.1261405 12.8827356,60 12.2260608,60 C11.5663001,60 10.955901,60.1261405 10.5160611,60.3342361 C10.0744584,60.5439428 9.46405932,60.6769143 8.79768774,60.6769143 C8.12294374,60.6769143 7.522681,60.531086 7.07931516,60.3173662 C6.64300082,60.1201147 6.05860389,60 5.41867633,60 C4.75715341,60 4.16967206,60.1173051 3.72983201,60.324193 C3.28646627,60.5367093 2.67298189,60.6769143 2,60.6769143 L2,61.6374459 C2.67298189,61.6374459 3.28646627,61.5000546 3.72983201,61.2875392 C4.16967206,61.0778375 4.75715341,60.9617401 5.41867633,60.9617401 C6.05684105,60.9617401 6.64123797,61.0822573 7.07931516,61.2791021 C7.52091815,61.4932236 8.12294374,61.6374459 8.79768774,61.6374459 C9.46405932,61.6374459 10.0744584,61.5044744 10.5160611,61.2947727 C10.955901,61.0878806 11.5663001,60.9617401 12.2260608,60.9617401 C12.8827356,60.9617401 13.4781505,61.0878806 13.9179904,61.2931625 C14.361356,61.5072839 14.951923,61.6374459 15.6284308,61.6374459 L15.6363618,60.6769143" id="path657" fill="#FFFFFF"></path>
                        <path d="M8.27856,26.0165113 C9.3300337,26.0243407 10.5027743,26.1211707 11.714164,26.3195874 C13.2861717,26.5771648 14.7210159,26.966286 15.8951521,27.4233332 L12.921061,28.3126626 L13.1137691,31.6923828 C13.1137691,31.6923828 15.087595,31.6648357 16.6549478,31.2107744 C18.0316948,30.8119316 19.0762353,30.1587987 19.0571294,30.2594404 C19.051797,30.2886642 20.5967909,26.6300833 20.6203322,26.4948937 C20.9081885,24.9755757 17.2851254,23.108257 12.524854,22.3285365 C11.0309404,22.0838897 9.5721241,21.9888259 8.3083147,22.0010344 C5.2614055,22.0010344 2.38756583,22.293095 0.793254935,22.8743988 L0.773270135,27.1297202 C2.33915243,26.4947802 5.2263231,26.1150665 8.27856,26.0165113 Z" id="path819" fill="#E94B35"></path>
                        <path d="M15.2614396,35.8014151 C14.0197145,35.3585636 12.9942587,34.8972765 11.7234612,34.3385523 C7.94893505,32.67599 5.03115025,30.0711033 5.03115025,30.0711033 L5.03115025,33.5906613 C4.68669125,34.228388 7.23886685,36.1090843 10.7107738,37.768576 C11.823442,38.2978932 14.1734306,39.1629708 15.282576,39.5500805 C16.1784014,39.8597766 18.0466613,40.7691358 18.0466613,40.7691358 C18.0466613,40.7691358 15.5483398,42.148926 17.8621416,44.7903645 C18.0466614,43.208008 19.7696877,42.5677328 19.7147541,42.7150881 L19.7147454,38.4791607 C19.9015212,37.9169272 17.9787993,36.7950888 15.2614396,35.8014151 Z" id="path825" fill="#E94B35"></path>
                        <path d="M15.6363636,58.6769143 C14.9620594,58.6769143 14.361356,58.5467524 13.9179904,58.3314266 C13.4781505,58.1261405 12.8827356,58 12.2260608,58 C11.5663001,58 10.955901,58.1261405 10.5160611,58.3342361 C10.0744584,58.5439428 9.46405932,58.6769143 8.79768774,58.6769143 C8.12294374,58.6769143 7.522681,58.531086 7.07931516,58.3173662 C6.64300082,58.1201147 6.05860389,58 5.41867633,58 C4.75715341,58 4.16967206,58.1173051 3.72983201,58.324193 C3.28646627,58.5367093 2.67298189,58.6769143 2,58.6769143 L2,59.6374459 C2.67298189,59.6374459 3.28646627,59.5000546 3.72983201,59.2875392 C4.16967206,59.0778375 4.75715341,58.9617401 5.41867633,58.9617401 C6.05684105,58.9617401 6.64123797,59.0822573 7.07931516,59.2791021 C7.52091815,59.4932236 8.12294374,59.6374459 8.79768774,59.6374459 C9.46405932,59.6374459 10.0744584,59.5044744 10.5160611,59.2947727 C10.955901,59.0878806 11.5663001,58.9617401 12.2260608,58.9617401 C12.8827356,58.9617401 13.4781505,59.0878806 13.9179904,59.2931625 C14.361356,59.5072839 14.951923,59.6374459 15.6284308,59.6374459 L15.6363618,58.6769143" id="path657" fill="#FFFFFF"></path>
                        <g id="crown" transform="translate(4.000000, 0.000000)">
                            <path d="M2.00140029,4.98111241 C1.8881643,4.90031239 1.54642767,4.50279183 1.54642767,4.50279183 L1.27287617,4.26338117 L1.02367644,3.83942498 C1.02367644,3.83942498 0.727396335,3.25935507 0.863360506,2.80696927 C0.999324329,2.3565785 1.22741963,2.19647264 1.4331921,2.06479743 C1.63855872,1.93262346 2.06958509,1.77301625 2.06958509,1.77301625 C2.06958509,1.77301625 2.41253937,1.58797207 2.52577536,1.56004122 C2.63901084,1.53360862 3.05014992,1.40143152 3.05014992,1.40143152 C3.05014992,1.40143152 3.16379176,1.32262548 3.27702767,1.26975631 C3.39188664,1.2168861 3.55057916,1.2168861 3.64271022,1.18895524 C3.73321751,1.16252275 3.96171841,1.07274178 4.09768216,1.06376397 C4.3091365,1.05328884 4.64478566,1.10965254 4.75964499,1.10965254 C4.87288088,1.10965254 5.26007355,1.13758444 5.41876598,1.13758444 C5.57745926,1.13758444 6.14688492,1.08321796 6.30720078,1.08321796 C6.46589321,1.08321796 6.58075257,1.05877944 6.76379624,1.08321796 C6.94521731,1.10965568 7.26381975,1.2413288 7.35595044,1.29619299 C7.44686351,1.3490632 7.99396703,1.58797521 8.19811594,1.66728001 C8.40348245,1.74458874 8.90512948,1.85182439 9.13363055,1.9839994 C9.36010149,2.11766974 9.4993129,2.34111885 9.61254883,2.52716064 C9.72740817,2.71220587 9.74851259,2.91420806 9.7939699,3.0478784 C9.83780307,3.18005237 9.83942649,3.46485075 9.79557975,3.59702482 C9.74971745,3.72870108 9.58858982,4.00152912 9.58858982,4.00152912 L9.33736009,4.5042902 L9.01875764,4.82100969 C9.01875764,4.82100969 8.79025657,5.08835131 8.60924213,5.06042035 C8.42619764,5.03747612 8.19811599,5.64117453 5.41876618,5.64117453 C2.63941638,5.64117474 2.19433598,5.06042025 2.19433598,5.06042025 C2.19597295,5.06041721 2.11463585,5.06041731 2.00140029,4.98111241 Z" id="path556" fill="#CA4638"></path>
                            <path d="M2.95903987,3.21841603 L2.84946207,2.54547023 C2.24402284,1.77840933 1.68692651,1.27513603 1.5,1.38294943 C1.54466077,1.24111353 1.59760691,1.13506753 1.71455102,1.06967363 C2.25277045,0.762583829 3.36374058,1.49959893 4.19892462,2.71028233 C4.27397181,2.82118773 4.34625564,2.93165223 4.40979282,3.04255763 L5.01763916,3.04255763 C5.01763916,3.04255763 4.54398496,1.92073539 4.79408578,1.36895428 C4.8756532,1.18899746 5.17181396,1.21817422 5.17181396,1.21817422 L5.17181396,0.604332685 L4.82277226,0.604332671 L4.82277226,0.398132324 L5.17181396,0.398132324 L5.17181396,0.0240104198 L5.42700195,0.0240104198 L5.42700195,0.398132324 L5.75791836,0.398132324 L5.75791836,0.604332671 L5.41822694,0.604332673 C5.41822694,0.604332673 5.41265033,1.12266651 5.42700195,1.21817422 C5.4637898,1.21817422 5.75791836,1.21817422 5.83880977,1.37979405 C6.03961182,1.71173096 5.64025879,3.04255763 5.64025879,3.04255763 L6.22519025,3.04255763 C6.22519025,3.04255763 6.36239255,2.82251333 6.43789915,2.71028233 C7.27124215,1.49959893 8.38359355,0.762583829 8.92043205,1.06967363 C9.03691525,1.13506753 9.09032265,1.24111353 9.13636365,1.38294943 C8.94805605,1.27690343 8.39234115,1.77840933 7.78367935,2.54547023 L7.7025812,3.04987109 L7.78816214,3.2084216 C7.75273874,3.2569931 7.74093564,3.3131757 7.74093564,3.3733462 C7.74093564,3.574156 7.95573444,3.7365434 8.21912394,3.7365434 C8.38669434,3.7365434 8.53201244,3.6712983 8.61829524,3.574156 L8.72001774,3.4719384 L8.71821654,3.5984414 C8.71821654,3.7234945 8.78588084,3.8362237 8.93982794,3.856522 C8.93982794,3.856522 9.11375584,3.8666696 9.35080604,3.71842 C9.58422334,3.5716188 9.71273934,3.4487404 9.71273934,3.4487404 L9.72727274,3.5995288 C9.72727274,3.5995288 9.49794244,3.9011056 9.28813884,3.9971612 C9.17460944,4.0508066 8.85626872,5.02153094 8.71821642,5.00231934 C8.70642527,5.00087828 7.13485081,4.62361436 5.37318945,4.62182617 C3.68941483,4.62011704 2.0959803,5.0790993 2.02496374,5.08777905 C1.88645686,5.10699215 1.57173659,4.0508058 1.45684438,3.9971612 C1.2470407,3.9011056 1,3.5995288 1,3.5995288 L1.03224276,3.4487404 C1.03224276,3.4487404 1.16257519,3.5716188 1.39417615,3.71842 C1.62940999,3.8666711 1.80515446,3.856522 1.80515446,3.856522 C1.95910118,3.836223 2.026765,3.7234945 2.026765,3.5984414 L2.02496372,3.4719384 L2.12623226,3.574156 C2.21251506,3.6712983 2.35828732,3.7365434 2.52540361,3.7365434 C2.76539512,3.7365434 2.96480881,3.60218892 2.99890195,3.42677291 L2.95903987,3.21841603 Z" id="Combined-Shape" fill="#C8A200"></path>
                        </g>
                        <g id="group" transform="translate(2.000000, 58.000000)"></g>
                    </g>
                    <g id="left" transform="translate(0.000000, 24.000000)">
                        <path d="M8.22393244,9.7290764 C8.22393244,9.7290764 8.59307296,10.3098149 8.59307301,10.8442998 C8.59307301,11.3787847 8.22393239,11.9118047 8.22393239,11.9118047 L15.992487,11.9118047 C15.992487,11.9118047 15.3158512,11.4543462 15.3158512,10.8442998 C15.3158512,10.2342534 15.9924871,9.7290764 15.9924871,9.7290764 L16.8181818,9.7290764 L16.8181818,7 L7,7 L7,9.7290764 L8.22393244,9.7290764 Z" id="path648" fill="#C8A200"></path>
                        <path d="M8.22393244,55.8172717 C8.22393244,55.8172717 8.59307296,56.3980103 8.59307301,56.9324951 C8.59307301,57.46698 8.22393239,58 8.22393239,58 L15.992487,58 C15.992487,58 15.3158512,57.5425415 15.3158512,56.9324951 C15.3158512,56.3224487 15.9924871,55.8172717 15.9924871,55.8172717 L16.8181818,55.8172717 L16.8181818,53.0881953 L7,53.0881953 L7,55.8172717 L8.22393244,55.8172717 Z" id="path648" fill="#C8A200" transform="translate(11.909091, 55.544098) scale(1, -1) translate(-11.909091, -55.544098) "></path>
                        <rect id="Rectangle-1" fill="#FFFFFF" x="8" y="12" width="8" height="41"></rect>
                        <path d="M16.9179904,57.3288545 C16.4781505,57.1246303 15.8827356,57 15.2260608,57 C14.5663001,57 13.955901,57.1262375 13.5160611,57.3316704 C13.0744584,57.5431335 12.4640593,57.6733912 11.7976877,57.6733912 C11.1229437,57.6733912 10.522681,57.5302714 10.0793152,57.3147839 C9.64300082,57.1189986 9.05860389,57 8.41867633,57 C7.75715341,57 7.16967206,57.1149784 6.72983201,57.3232271 C6.28646627,57.5375061 5.67298189,57.6733912 5,57.6733912 L5,62.6374459 C5.67298189,62.6374459 6.28646627,62.4971377 6.72983201,62.2844651 C7.16967206,62.0774251 7.75715341,61.9600337 8.41867633,61.9600337 C9.05684105,61.9600337 9.64123797,62.0802367 10.0793152,62.2776333 C10.5209181,62.4915103 11.1229437,62.6374459 11.7976877,62.6374459 C12.4640593,62.6374459 13.0744584,62.5043766 13.5160611,62.2945156 C13.955901,62.086267 14.5663001,61.9600337 15.2260608,61.9600337 C15.8827356,61.9600337 16.4781505,62.086267 16.9179904,62.291704 C17.361356,62.5071882 17.951923,62.6374459 18.6284308,62.6374459 L18.6363618,57.6733912 C17.9620594,57.6733912 17.361356,57.5443421 16.9179904,57.3288545 Z" id="path656" fill="#227FBB"></path>
                        <path d="M18.6363636,60.6769143 C17.9620594,60.6769143 17.361356,60.5467524 16.9179904,60.3314266 C16.4781505,60.1261405 15.8827356,60 15.2260608,60 C14.5663001,60 13.955901,60.1261405 13.5160611,60.3342361 C13.0744584,60.5439428 12.4640593,60.6769143 11.7976877,60.6769143 C11.1229437,60.6769143 10.522681,60.531086 10.0793152,60.3173662 C9.64300082,60.1201147 9.05860389,60 8.41867633,60 C7.75715341,60 7.16967206,60.1173051 6.72983201,60.324193 C6.28646627,60.5367093 5.67298189,60.6769143 5,60.6769143 L5,61.6374459 C5.67298189,61.6374459 6.28646627,61.5000546 6.72983201,61.2875392 C7.16967206,61.0778375 7.75715341,60.9617401 8.41867633,60.9617401 C9.05684105,60.9617401 9.64123797,61.0822573 10.0793152,61.2791021 C10.5209181,61.4932236 11.1229437,61.6374459 11.7976877,61.6374459 C12.4640593,61.6374459 13.0744584,61.5044744 13.5160611,61.2947727 C13.955901,61.0878806 14.5663001,60.9617401 15.2260608,60.9617401 C15.8827356,60.9617401 16.4781505,61.0878806 16.9179904,61.2931625 C17.361356,61.5072839 17.951923,61.6374459 18.6284308,61.6374459 L18.6363618,60.6769143" id="path657" fill="#FFFFFF"></path>
                        <path d="M7.86892627,26.0165113 C8.92039997,26.0243407 10.0931406,26.1211707 11.3045303,26.3195874 C12.876538,26.5771648 14.3113822,26.966286 15.4855184,27.4233332 L12.5114273,28.3126626 L12.7041353,31.6923828 C12.7041353,31.6923828 14.6779613,31.6648357 16.245314,31.2107744 C17.622061,30.8119316 18.6666016,30.1587987 18.6474957,30.2594404 C18.6421633,30.2886642 20.1871572,26.6300833 20.2106985,26.4948937 C20.4985548,24.9755757 16.8754917,23.108257 12.1152203,22.3285365 C10.6213067,22.0838897 9.16249037,21.9888259 7.89868097,22.0010344 C4.85177177,22.0010344 1.97793211,22.293095 0.383621207,22.8743988 L0.363636407,27.1297202 C1.92951871,26.4947802 4.81668937,26.1150665 7.86892627,26.0165113 Z" id="path819" fill="#E94B35" transform="translate(10.295183, 26.846191) scale(-1, 1) translate(-10.295183, -26.846191) "></path>
                        <path d="M11.5341748,35.8014151 C10.2924497,35.3585636 9.26699389,34.8972765 7.99619639,34.3385523 C4.22167029,32.67599 1.30388548,30.0711033 1.30388548,30.0711033 L1.30388549,33.5906613 C0.959426485,34.228388 3.51160209,36.1090843 6.98350899,37.768576 C8.09617719,38.2978932 10.4461658,39.1629708 11.5553112,39.5500805 C12.4511367,39.8597766 14.3193965,40.7691358 14.3193965,40.7691358 C14.3193965,40.7691358 11.8210751,42.148926 14.1348768,44.7903645 C14.3193966,43.208008 16.0424229,42.5677328 15.9874893,42.7150881 L15.9874806,38.4791607 C16.1742564,37.9169272 14.2515345,36.7950888 11.5341748,35.8014151 Z" id="path825" fill="#E94B35" transform="translate(8.636368, 37.430734) scale(-1, 1) translate(-8.636368, -37.430734) "></path>
                        <path d="M18.6363636,58.6769143 C17.9620594,58.6769143 17.361356,58.5467524 16.9179904,58.3314266 C16.4781505,58.1261405 15.8827356,58 15.2260608,58 C14.5663001,58 13.955901,58.1261405 13.5160611,58.3342361 C13.0744584,58.5439428 12.4640593,58.6769143 11.7976877,58.6769143 C11.1229437,58.6769143 10.522681,58.531086 10.0793152,58.3173662 C9.64300082,58.1201147 9.05860389,58 8.41867633,58 C7.75715341,58 7.16967206,58.1173051 6.72983201,58.324193 C6.28646627,58.5367093 5.67298189,58.6769143 5,58.6769143 L5,59.6374459 C5.67298189,59.6374459 6.28646627,59.5000546 6.72983201,59.2875392 C7.16967206,59.0778375 7.75715341,58.9617401 8.41867633,58.9617401 C9.05684105,58.9617401 9.64123797,59.0822573 10.0793152,59.2791021 C10.5209181,59.4932236 11.1229437,59.6374459 11.7976877,59.6374459 C12.4640593,59.6374459 13.0744584,59.5044744 13.5160611,59.2947727 C13.955901,59.0878806 14.5663001,58.9617401 15.2260608,58.9617401 C15.8827356,58.9617401 16.4781505,59.0878806 16.9179904,59.2931625 C17.361356,59.5072839 17.951923,59.6374459 18.6284308,59.6374459 L18.6363618,58.6769143" id="path657" fill="#FFFFFF"></path>
                        <g id="crown" transform="translate(6.500000, 0.000000)">
                            <path d="M2.00140029,4.98111241 C1.8881643,4.90031239 1.54642767,4.50279183 1.54642767,4.50279183 L1.27287617,4.26338117 L1.02367644,3.83942498 C1.02367644,3.83942498 0.727396335,3.25935507 0.863360506,2.80696927 C0.999324329,2.3565785 1.22741963,2.19647264 1.4331921,2.06479743 C1.63855872,1.93262346 2.06958509,1.77301625 2.06958509,1.77301625 C2.06958509,1.77301625 2.41253937,1.58797207 2.52577536,1.56004122 C2.63901084,1.53360862 3.05014992,1.40143152 3.05014992,1.40143152 C3.05014992,1.40143152 3.16379176,1.32262548 3.27702767,1.26975631 C3.39188664,1.2168861 3.55057916,1.2168861 3.64271022,1.18895524 C3.73321751,1.16252275 3.96171841,1.07274178 4.09768216,1.06376397 C4.3091365,1.05328884 4.64478566,1.10965254 4.75964499,1.10965254 C4.87288088,1.10965254 5.26007355,1.13758444 5.41876598,1.13758444 C5.57745926,1.13758444 6.14688492,1.08321796 6.30720078,1.08321796 C6.46589321,1.08321796 6.58075257,1.05877944 6.76379624,1.08321796 C6.94521731,1.10965568 7.26381975,1.2413288 7.35595044,1.29619299 C7.44686351,1.3490632 7.99396703,1.58797521 8.19811594,1.66728001 C8.40348245,1.74458874 8.90512948,1.85182439 9.13363055,1.9839994 C9.36010149,2.11766974 9.4993129,2.34111885 9.61254883,2.52716064 C9.72740817,2.71220587 9.74851259,2.91420806 9.7939699,3.0478784 C9.83780307,3.18005237 9.83942649,3.46485075 9.79557975,3.59702482 C9.74971745,3.72870108 9.58858982,4.00152912 9.58858982,4.00152912 L9.33736009,4.5042902 L9.01875764,4.82100969 C9.01875764,4.82100969 8.79025657,5.08835131 8.60924213,5.06042035 C8.42619764,5.03747612 8.19811599,5.64117453 5.41876618,5.64117453 C2.63941638,5.64117474 2.19433598,5.06042025 2.19433598,5.06042025 C2.19597295,5.06041721 2.11463585,5.06041731 2.00140029,4.98111241 Z" id="path556" fill="#CA4638"></path>
                            <path d="M2.95903987,3.21841603 L2.84946207,2.54547023 C2.24402284,1.77840933 1.68692651,1.27513603 1.5,1.38294943 C1.54466077,1.24111353 1.59760691,1.13506753 1.71455102,1.06967363 C2.25277045,0.762583829 3.36374058,1.49959893 4.19892462,2.71028233 C4.27397181,2.82118773 4.34625564,2.93165223 4.40979282,3.04255763 L5.01763916,3.04255763 C5.01763916,3.04255763 4.54398496,1.92073539 4.79408578,1.36895428 C4.8756532,1.18899746 5.17181396,1.21817422 5.17181396,1.21817422 L5.17181396,0.604332685 L4.82277226,0.604332671 L4.82277226,0.398132324 L5.17181396,0.398132324 L5.17181396,0.0240104198 L5.42700195,0.0240104198 L5.42700195,0.398132324 L5.75791836,0.398132324 L5.75791836,0.604332671 L5.41822694,0.604332673 C5.41822694,0.604332673 5.41265033,1.12266651 5.42700195,1.21817422 C5.4637898,1.21817422 5.75791836,1.21817422 5.83880977,1.37979405 C6.03961182,1.71173096 5.64025879,3.04255763 5.64025879,3.04255763 L6.22519025,3.04255763 C6.22519025,3.04255763 6.36239255,2.82251333 6.43789915,2.71028233 C7.27124215,1.49959893 8.38359355,0.762583829 8.92043205,1.06967363 C9.03691525,1.13506753 9.09032265,1.24111353 9.13636365,1.38294943 C8.94805605,1.27690343 8.39234115,1.77840933 7.78367935,2.54547023 L7.7025812,3.04987109 L7.78816214,3.2084216 C7.75273874,3.2569931 7.74093564,3.3131757 7.74093564,3.3733462 C7.74093564,3.574156 7.95573444,3.7365434 8.21912394,3.7365434 C8.38669434,3.7365434 8.53201244,3.6712983 8.61829524,3.574156 L8.72001774,3.4719384 L8.71821654,3.5984414 C8.71821654,3.7234945 8.78588084,3.8362237 8.93982794,3.856522 C8.93982794,3.856522 9.11375584,3.8666696 9.35080604,3.71842 C9.58422334,3.5716188 9.71273934,3.4487404 9.71273934,3.4487404 L9.72727274,3.5995288 C9.72727274,3.5995288 9.49794244,3.9011056 9.28813884,3.9971612 C9.17460944,4.0508066 8.85626872,5.02153094 8.71821642,5.00231934 C8.70642527,5.00087828 7.13485081,4.62361436 5.37318945,4.62182617 C3.68941483,4.62011704 2.0959803,5.0790993 2.02496374,5.08777905 C1.88645686,5.10699215 1.57173659,4.0508058 1.45684438,3.9971612 C1.2470407,3.9011056 1,3.5995288 1,3.5995288 L1.03224276,3.4487404 C1.03224276,3.4487404 1.16257519,3.5716188 1.39417615,3.71842 C1.62940999,3.8666711 1.80515446,3.856522 1.80515446,3.856522 C1.95910118,3.836223 2.026765,3.7234945 2.026765,3.5984414 L2.02496372,3.4719384 L2.12623226,3.574156 C2.21251506,3.6712983 2.35828732,3.7365434 2.52540361,3.7365434 C2.76539512,3.7365434 2.96480881,3.60218892 2.99890195,3.42677291 L2.95903987,3.21841603 Z" id="Combined-Shape" fill="#C8A200"></path>
                        </g>
                    </g>
                    <g id="crown" transform="translate(21.000000, 0.000000)">
                        <path d="M29.2801524,12.1068144 C30.2556541,12.5454554 31.5653821,12.8695529 32.9989975,13.0604593 C34.0908089,13.2060813 35.1282528,13.2358278 36.0306677,13.1670125 C37.2374548,13.1434842 38.9830134,13.4955496 40.7290195,14.2613958 C42.1742221,14.9002665 43.3805617,15.676768 44.1818182,16.4284074 L43.4884055,17.043748 L43.287873,18.7907659 L41.3854469,20.9608852 L40.4349005,21.7644684 L38.1830975,23.5603223 L37.0329079,23.6539996 L36.6830799,24.6453824 C36.6830799,24.6453824 40.7290192,29.8449707 22.5419922,29.5300293 C4.35496519,29.2150881 7.5009674,24.6453824 7.5009674,24.6453824 L7.1506965,23.6539996 L5.9987235,23.5603223 L3.7473643,21.7644684 L2.7963741,20.9608852 L0.8948393,18.7907659 L0.6969768,17.043748 L0,16.4284074 C0.8048206,15.676768 2.0116068,14.9002665 3.4532435,14.2613958 C5.1992505,13.4955496 6.9452575,13.1434824 8.1511524,13.1670125 C9.0535673,13.2358278 10.0914568,13.2060841 11.1832682,13.0604593 C12.6173293,12.8695529 13.9283942,12.5454554 14.9021114,12.1068144 C16.6084566,11.4337575 19.0790703,11 22.018048,11 C24.9588074,11 27.5755926,11.4337575 29.2801524,12.1068144 Z" id="path833" fill="#E94B35"></path>
                        <circle id="Oval-1" fill="#346DA6" cx="21.5" cy="3.5" r="2.5"></circle>
                        <path d="M11.0068928,15.6268897 C10.9226412,15.9253579 10.8899624,16.2427484 10.9225697,16.5531572 C10.9225697,16.5531572 10.8263529,16.4555887 10.5197513,16.3953958 C10.2131487,16.3356893 10,16.4196673 10,16.4196673 C10,16.4196673 10.2315629,16.8337264 10.3259384,16.9774089 C10.4221543,17.1196362 10.5934089,17.5885478 10.8452283,17.9773656 C10.9033667,18.0676286 10.9641846,18.1517701 11.0233048,18.2277679 C10.9340978,18.197563 10.8398035,18.1686511 10.7441718,18.1439291 C10.4025796,18.0558487 9.8015694,18.0525516 9.6200251,18.0492546 C9.4384798,18.0440724 9.075867,18.0360633 9.075867,18.0360633 C9.075867,18.0360633 9.1059676,18.1175494 9.2091595,18.2951231 C9.3333749,18.5094358 9.4437349,18.6436754 9.4437349,18.6436754 C8.842247,18.780271 8.3300985,19.1702734 8.0061836,19.6224504 C8.47629,19.9427429 9.1007095,20.1372731 9.7141419,20.0755704 C9.7141419,20.0755704 9.660634,20.2371287 9.621936,20.4811162 C9.5899254,20.6822405 9.5918354,20.7651397 9.5918354,20.7651397 C9.5918354,20.7651397 9.9296047,20.6422045 10.0987278,20.5809718 C10.2678518,20.5192682 10.8315973,20.3266221 11.1215916,20.133976 C11.2535438,20.0448961 11.3952951,19.974091 11.5240128,19.9196367 L11.5240128,19.9196367 C11.670211,20.1832017 11.7288206,20.4787221 11.7288206,20.7954281 C11.7288206,21.856361 10.789535,22.7144248 9.6304081,22.7144248 C8.9024055,22.7144248 8.2595477,22.3752918 7.8838342,21.8607153 L7.4427983,21.3187115 L7.4459489,21.9834819 C7.4459489,22.6512997 7.1544773,23.250333 6.4800846,23.3561222 C6.4800846,23.3561222 5.7065819,23.4035742 4.6799009,22.6238733 C4.3603968,22.3812099 4.0855069,22.1515357 3.858466,21.9503357 C3.9348554,21.9372996 3.9923111,21.942047 4.0075068,21.9937222 C4.1925901,22.029448 4.4979779,22.0744379 4.7703148,22.0916383 C5.1396009,22.1163377 5.7561051,22.0184225 5.9438324,21.9937222 C6.1289157,21.9672587 6.5030491,21.9143306 6.5030491,21.9143306 C6.5030491,21.9143306 6.455897,21.8459655 6.3109152,21.6995329 C6.1372883,21.5270768 5.9469171,21.3700569 5.9469171,21.3700569 C6.4766092,21.1693731 6.8789452,20.7772676 7.0909091,20.3604619 C6.5951501,20.1677153 5.9583744,20.0790624 5.4154632,20.1505149 C5.4154632,20.1505149 5.4335268,20.0120214 5.4220686,19.7866373 C5.4101687,19.5983031 5.3987105,19.5219989 5.3987105,19.5219989 C5.3987105,19.5219989 5.0937634,19.7306218 4.7976287,19.8691163 C4.5010552,20.008934 3.9317022,20.3154739 3.7087208,20.5951083 C3.4852987,20.876948 3.3376729,21.2999285 3.3376729,21.2999285 C3.3376729,21.2999285 3.6342473,20.3154739 3.3623511,19.6340289 C3.0900142,18.9543491 2.4959839,18.8361442 2.4959839,18.8361442 L2.397272,19.305878 C2.245069,19.115868 2.0294913,18.9742022 1.7833222,18.8944541 L1.7833222,18.8944541 L3.0069961,16.693974 C2.2659854,16.0491415 1.7927201,15.1045137 1.7927201,14.0506621 C1.7927201,13.5333342 1.9070919,13.0402264 2.1112974,12.5983034 C2.8781628,10.8644294 5.5249427,9.58116238 8.6888098,9.58116238 C9.2965051,9.58116238 9.8846569,9.62815407 10.4447186,9.7165685 C10.1960996,10.1745486 10.0485693,10.6657971 10.0203001,11.1740808 C10.0067667,11.3114974 10,11.450289 10,11.5890807 C10,12.8478209 10.56661,13.9815119 11.4616368,14.769828 L11.4208804,14.837631 C11.4125472,14.8319267 11.4041944,14.8262855 11.3958233,14.8207081 C11.2685143,14.9940673 11.1617814,15.191577 11.0810913,15.4029106 L10.9663045,15.5938721 L11.0068928,15.6268897 L11.0068928,15.6268897 Z M12.0117855,15.3965505 C12.2154739,15.6585325 12.3729603,15.961646 12.4514373,16.2827795 C12.4514373,16.2827795 12.5085232,16.1594843 12.7755343,15.9968697 C13.0448472,15.8376531 13.2727273,15.8425072 13.2727273,15.8425072 C13.2727273,15.8425072 13.1958462,16.3099625 13.1580962,16.4779165 C13.1189661,16.6419873 13.1152804,17.1439067 13.0126215,17.5958289 C12.9896206,17.696629 12.9624512,17.7929132 12.9341173,17.8816811 C13.2384027,17.7130798 13.6962487,17.5555617 13.845619,17.5028083 C14.0149962,17.4415757 14.3537527,17.3167564 14.3537527,17.3167564 C14.3537527,17.3167564 14.3552011,17.4015396 14.3231324,17.602664 C14.2843763,17.8452384 14.2303095,18.0063267 14.2303095,18.0063267 C14.84562,17.94321 15.471935,18.1457474 15.942749,18.4679239 C15.6188257,18.9182169 15.1020796,19.3016251 14.5016014,19.4382207 C14.5016014,19.4382207 14.6102134,19.5724603 14.7365294,19.786773 C14.8398784,19.9662307 14.8705008,20.0458328 14.8705008,20.0458328 C14.8705008,20.0458328 14.5068644,20.0378187 14.3250462,20.0345295 C14.1432281,20.0312354 13.5413154,20.0293474 13.1992097,19.939855 C12.9645528,19.8783035 12.7366402,19.7930051 12.5720542,19.7253703 L12.5720542,19.7253703 L12.5829613,19.7358004 C12.5725973,19.8159038 12.5662914,19.8986191 12.5662914,19.9813345 C12.5662914,21.0932039 13.5483742,21.991318 14.762011,21.991318 C15.8441037,21.991318 16.8018583,21.3047806 16.9428635,20.2899937 C16.973048,20.3039264 16.9649364,19.5333658 17.0415229,19.5255297 C17.1325231,19.5163867 17.3118206,20.2656147 17.3420032,20.2442822 C17.6289698,21.0501044 18.4578834,21.6334654 19.4359108,21.6334654 C20.649998,21.6334654 21.6334323,20.7305617 21.6334323,19.6208699 C21.6334323,19.3718531 21.6181167,19.1354611 21.5275651,18.9190957 L21.6005843,18.9065781 C21.557339,18.7522483 21.5149046,18.5997217 21.4740554,18.4567553 C21.117384,18.556225 20.7439542,18.6473827 20.8181818,18.7275349 C20.8181818,18.7275349 20.4334164,18.9947865 20.0072288,19.1800585 C19.6843849,19.3231118 19.0848184,19.4198476 18.9050341,19.4546882 C18.7239677,19.4862497 18.364399,19.5497835 18.364399,19.5497835 C18.364399,19.5497835 18.3789182,19.4661651 18.4485263,19.2796635 C18.5330805,19.048483 18.6172078,18.9025604 18.6172078,18.9025604 C17.9924455,18.863211 17.4069711,18.5725947 17,18.1897541 C17.4069711,17.8036335 17.9941536,17.5060482 18.6172078,17.4699796 C18.6172078,17.4699796 18.5330805,17.3224175 18.4485263,17.0924667 C18.3789173,16.9030958 18.364399,16.8207071 18.364399,16.8207071 C18.364399,16.8207071 18.7239677,16.8858796 18.9050341,16.9190815 C19.0848184,16.9510529 19.6843849,17.0490175 20.0072288,17.1908411 C20.4334164,17.3757032 20.8117754,17.6474637 20.8117754,17.6474637 C20.7500431,17.7122724 20.9992495,17.7876206 21.291063,17.8695409 C21.2267963,17.6948256 21.1728823,17.6007993 21.134706,17.6414142 C21.134706,17.6414142 20.8510297,17.3143853 20.6458662,16.8797986 C20.438367,16.44826 20.3360193,15.9474835 20.259375,15.7876704 C20.1813286,15.6282928 20,15.1719325 20,15.1719325 C20,15.1719325 20.259375,15.1275145 20.593524,15.2411705 C20.9290751,15.3548255 21.0183374,15.4684797 21.0183374,15.4684797 C21.0236331,15.3972765 21.0328473,15.3262969 21.0457251,15.2558102 L21.0457251,15.2558102 L19,13.3667051 C19.3273945,12.5235941 19.5540534,11.146558 19.5847317,9.58678075 C19.586548,9.49697415 19.6039648,9.40225275 19.6039648,9.31423325 C19.6039648,9.23827715 19.5984683,9.16276795 19.6002845,9.08547155 C19.6044658,8.82437093 19.6155932,8.56889114 19.632933,8.32073519 C18.7139265,7.85184017 17.5605122,7.57329509 16.3098495,7.57329509 C13.3044715,7.57329509 10.9378825,9.20306116 10.8404402,11.175455 C10.8232951,11.3114974 10.815177,11.4484568 10.815177,11.5890807 C10.815177,12.8331632 11.5085525,13.9251706 12.5199692,14.5536246 L12.0117855,15.3965505 L12.0117855,15.3965505 Z M19.7132778,7.51888867 C19.7354109,7.35114526 19.7604207,7.18832354 19.7880213,7.03108704 C19.9501164,6.33765418 20.6676368,5.8207071 21.4675794,5.8207071 C22.270296,5.8207071 22.9594285,6.33765418 23.1233542,7.03108704 C23.1622146,7.25341072 23.1957746,7.48690058 23.2234881,7.72968097 C24.2820871,7.15929906 25.6115176,6.8207071 27.0564129,6.8207071 C29.3778763,6.8207071 31.3598378,7.72111931 32.4501558,9.02828737 C33.1536863,8.89269471 33.9001688,8.8207071 34.6744984,8.8207071 C38.1312353,8.8207071 41.0393113,10.2680398 41.9679181,12.2569212 C42.2220892,12.80167 42.3636363,13.4122275 42.3636363,14.0506621 C42.3636363,15.1095416 41.9709829,16.0779334 41.3298572,16.8292477 L42.4935431,19.057401 C42.5192146,19.0561266 42.5449988,19.0554834 42.5708648,19.0554834 C43.3094378,19.0554834 43.8823137,19.6213681 43.8823137,20.3213367 C43.8823137,20.3213367 42.918997,20.2437103 42.3492021,20.5502502 C41.7798497,20.8532607 41.2990723,21.7662637 41.2990723,21.7662637 C41.291272,21.7502688 41.2318101,21.7852405 41.1645145,21.8276342 L41.1645145,21.8276342 L41.1818182,21.9804345 C41.1818182,21.9804345 40.329928,23.2533803 39.4023579,23.7723103 C38.8955499,24.0578965 38.1256502,24.3569783 37.5134255,24.2603311 C36.8656123,24.1588961 36.4043054,23.6569444 36.1664409,23.0783721 C35.7046826,23.3408854 35.1595842,23.4941257 34.575742,23.4941257 C33.3211082,23.4941257 32.1935173,22.8293553 31.747526,21.8284993 C31.1704374,22.4301455 30.3667511,22.8001876 29.4243159,22.8001876 C28.4224107,22.8001876 27.5047476,22.3644084 26.9294647,21.6948492 C26.3640944,22.1924475 25.5955433,22.4993645 24.7486141,22.4993645 C23.6394903,22.4993645 22.6502006,21.9743398 22.0893324,21.182014 C21.5293661,21.9743398 20.5409765,22.4993645 19.4336565,22.4993645 C18.587174,22.4993645 17.8168247,22.1924475 17.251002,21.6948492 C16.6779707,22.3644084 15.7585074,22.8001876 14.7570537,22.8001876 C13.8141652,22.8001876 13.0104799,22.4301455 12.4329436,21.8284993 C11.9874019,22.8293553 10.8602605,23.4941257 9.605178,23.4941257 C9.0208844,23.4941257 8.4780357,23.3408854 8.0167278,23.0783721 C7.7766127,23.6569444 7.3153049,24.1588961 6.6692928,24.2603311 C6.0570681,24.3569783 5.2871702,24.0578965 4.7790099,23.7723103 C3.8509874,23.2533803 3,21.9804345 3,21.9804345 L3.0064513,21.9240424 C2.8081124,21.7281234 2.5926644,21.5112525 2.5827969,21.5314874 C2.5827969,21.5314874 2.1002578,20.6184844 1.5309049,20.3154739 C0.9633155,20.008934 0,20.0865604 0,20.0865604 C0,19.526317 0.3669933,19.0519696 0.8919759,18.8849184 L2.0346107,16.8292477 C1.3930731,16.0779334 1,15.1095416 1,14.0506621 C1,13.4122275 1.1415412,12.80167 1.3978942,12.2569212 C2.3247051,10.2680398 5.2326583,8.8207071 8.6888098,8.8207071 C9.4634673,8.8207071 10.2105477,8.89276139 10.9144401,9.02847578 C12.0046557,7.72120582 13.98736,6.8207071 16.3098495,6.8207071 C17.564196,6.8207071 18.7335596,7.07685996 19.7132778,7.51888867 L19.7132778,7.51888867 L19.7132778,7.51888867 Z M22.5526121,14.6327234 C22.6904594,14.8957407 22.7805338,15.1802782 22.8021829,15.4684797 C22.8021829,15.4684797 22.8891076,15.3548255 23.2251231,15.2411705 C23.5606761,15.1275163 23.8181818,15.1719325 23.8181818,15.1719325 C23.8181818,15.1719325 23.6391908,15.6282928 23.5606761,15.7876704 C23.4826297,15.9474835 23.3816851,16.44826 23.1723165,16.8797986 C22.9690223,17.3143853 22.6853451,17.6414142 22.6853451,17.6414142 C22.6506734,17.604528 22.622388,17.678696 22.5972353,17.823503 L22.5972353,17.823503 C22.8627449,17.759318 23.056148,17.6999363 23.005981,17.6474637 C23.005981,17.6474637 23.3849771,17.3757032 23.8114066,17.1908411 C24.1357138,17.0490175 24.7356156,16.9510529 24.9154978,16.9190815 C25.0936763,16.8858796 25.453017,16.8207071 25.453017,16.8207071 C25.453017,16.8207071 25.4406181,16.9030958 25.3688428,17.0924667 C25.2842403,17.3224175 25.2017787,17.4699796 25.2017787,17.4699796 C25.825605,17.5060482 26.4122649,17.8036335 26.8181819,18.1897541 C26.4122649,18.5725947 25.8268895,18.863211 25.2017787,18.9025604 C25.2017787,18.9025604 25.2842403,19.048483 25.3688428,19.2796635 C25.4389189,19.4661651 25.453017,19.5497835 25.453017,19.5497835 C25.453017,19.5497835 25.0953845,19.4862497 24.9154978,19.4546882 C24.7356156,19.4198476 24.1357138,19.3231118 23.8114066,19.1800585 C23.3849771,18.9947865 23,18.7275349 23,18.7275349 C23.0545832,18.6686265 22.8200897,18.6037733 22.5186268,18.5340447 C22.5085629,18.6486887 22.4983811,18.7683664 22.48778,18.8893319 L22.6552698,18.9190957 C22.5660706,19.1354611 22.5475997,19.3718531 22.5475997,19.6208699 C22.5475997,20.7305617 23.5341855,21.6334654 24.7487269,21.6334654 C25.7235982,21.6334654 26.5538631,21.0501044 26.8390288,20.2442822 C26.8710049,20.2656129 27.0489612,19.5163876 27.1408596,19.5255297 C27.2178938,19.533364 27.2097869,20.3039246 27.2381704,20.2899937 C27.3791756,21.3047806 28.3387321,21.991318 29.419021,21.991318 C30.6317577,21.991318 31.6151919,21.0932039 31.6151919,19.9813345 C31.6151919,19.8986191 31.6102545,19.8159038 31.5985456,19.7358004 L31.9309601,19.417506 C31.9286305,19.3268759 31.9268472,19.2348175 31.9252521,19.1435146 L31.9252521,19.1435146 C31.7127401,19.102508 31.5706482,19.0441957 31.6172005,19.1197461 C31.6172005,19.1197461 31.191365,19.3255806 30.7420862,19.4438057 C30.4023777,19.5332981 29.7961564,19.5351861 29.6162561,19.5384802 C29.434438,19.5417694 29.073199,19.5497835 29.073199,19.5497835 C29.073199,19.5497835 29.1014268,19.4701814 29.2062126,19.2907237 C29.33157,19.076411 29.4401814,18.9421714 29.4401814,18.9421714 C28.8397046,18.8055758 28.3248754,18.4221676 28,17.9718746 C28.4688965,17.6496981 29.0961628,17.4471607 29.7109933,17.5102774 C29.7109933,17.5102774 29.6574093,17.3491891 29.6196023,17.1066147 C29.5879882,16.9054903 29.5894865,16.8207071 29.5894865,16.8207071 C29.5894865,16.8207071 29.9263283,16.9455264 30.0957006,17.006759 C30.2646044,17.0665786 30.8315843,17.2611088 31.1201011,17.4537549 C31.43888,17.6670554 31.7147654,17.9345506 31.794813,18.0146107 C31.7421642,17.9037298 31.6090376,17.6037902 31.5277246,17.2473979 C31.4250963,16.7954757 31.4237029,16.2935563 31.3841123,16.1294855 C31.3445264,15.9615315 31.2671949,15.4940762 31.2671949,15.4940762 C31.2671949,15.4940762 31.3277274,15.4927995 31.4227777,15.5130318 L31.4227777,15.5130318 L30.8444451,14.5536246 C31.8552767,13.9251706 32.5490093,12.8331632 32.5490093,11.5890807 C32.5490093,11.4484568 32.540911,11.3114974 32.5241966,11.175455 C32.4281241,9.20306116 30.0582371,7.57329509 27.0564129,7.57329509 C25.5952763,7.57329509 24.2703066,7.95204447 23.2934056,8.56970389 C23.3025134,8.73877328 23.3089155,8.91086559 23.3124637,9.08547155 C23.3138975,9.16276795 23.3069671,9.23827715 23.3069671,9.31423325 C23.3093569,9.40225275 23.3261811,9.49697415 23.3275672,9.58678075 C23.3550498,11.146558 23.5835288,12.5235941 23.9090909,13.3667051 L22.5526121,14.6327234 L22.5526121,14.6327234 Z M32.2909894,15.4159725 C32.4964844,15.0307834 32.8055837,14.6988417 33.1442981,14.4722771 C33.4886024,14.9411886 33.6842255,15.5867916 33.6156433,16.2047262 C33.6156433,16.2047262 33.7118477,16.1071577 34.0188676,16.0469648 C34.3254262,15.9872583 34.5399221,16.0712363 34.5399221,16.0712363 C34.5399221,16.0712363 34.3065534,16.4852954 34.2121892,16.6289779 C34.1196701,16.7712052 33.9466002,17.2401168 33.6966553,17.6289346 C33.4444137,18.0177524 33.1461383,18.2929831 33.1461383,18.2929831 C33.1308739,18.2662924 33.1076044,18.2784943 33.0780248,18.320415 C33.1785978,18.3112218 33.2342968,18.2921658 33.21033,18.2540455 C33.21033,18.2540455 33.6285701,18.044914 34.0783578,17.9285729 C34.4205955,17.8404925 35.0238159,17.8371954 35.2030624,17.8338984 C35.3851728,17.8287162 35.7479666,17.8207071 35.7479666,17.8207071 C35.7479666,17.8207071 35.7192779,17.9021932 35.6150859,18.0797669 C35.4898538,18.2940796 35.379919,18.4283192 35.379919,18.4283192 C35.9812275,18.5649148 36.4936262,18.9549172 36.8181818,19.4070942 C36.349754,19.7273867 35.7250256,19.9219169 35.1093778,19.8602142 C35.1093778,19.8602142 35.1643452,20.0217725 35.2021045,20.26576 C35.231741,20.4668843 35.2302941,20.5497835 35.2302941,20.5497835 C35.2302941,20.5497835 34.8918772,20.4268483 34.7250591,20.3656156 C34.5558511,20.303912 33.9913489,20.1112659 33.7012097,19.9186198 C33.3240766,19.662857 33,19.3336152 33,19.3336152 C33.0629966,19.2835112 32.8756197,19.3653512 32.6352012,19.389086 L32.6352012,19.389086 C32.6025917,19.474375 32.5697283,19.5593475 32.5370103,19.6418436 L32.6581121,19.9169034 C32.510801,20.181158 32.4522377,20.4776268 32.4522377,20.7954281 C32.4522377,21.856361 33.3915214,22.7144248 34.5510969,22.7144248 C35.2804538,22.7144248 35.9210573,22.3752918 36.2972231,21.8607153 L36.7382581,21.3187115 L36.7349665,21.9834819 C36.7349665,22.6512997 37.0268904,23.250333 37.701285,23.3561222 C37.701285,23.3561222 38.475685,23.4022682 39.5014696,22.6238733 C39.7002211,22.4731859 39.8816849,22.3275072 40.0451058,22.1905452 C39.9588112,22.1716131 39.8918371,22.1705997 39.8748164,22.2284985 C39.691052,22.2642243 39.3856672,22.3092142 39.1133279,22.3264146 C38.7440418,22.351114 38.125332,22.2531988 37.9402474,22.2284985 C37.7529595,22.202035 37.3805916,22.1491069 37.3805916,22.1491069 C37.3805916,22.1491069 37.42642,22.0807418 37.5705198,21.9343092 C37.7445877,21.7618531 37.9349622,21.6048332 37.9349622,21.6048332 C37.40659,21.4041494 37.0029292,21.0120439 36.7914046,20.5952382 C37.2867268,20.4024916 37.9221792,20.3138387 38.4668588,20.3852912 C38.4668588,20.3852912 38.4487814,20.2467977 38.460235,20.0214136 C38.4717347,19.8330794 38.4849363,19.7567752 38.4849363,19.7567752 C38.4849363,19.7567752 38.7885639,19.9653981 39.0855815,20.1038926 C39.3825945,20.2437103 39.9519469,20.5502502 40.1736096,20.8298846 C40.2989646,20.9883307 40.4429354,21.4106595 40.5449722,21.750092 C40.5531536,21.7424988 40.561247,21.7349663 40.5692522,21.7274957 C40.4637154,21.1769433 40.3435294,20.312029 40.5195155,19.8688052 C40.7922964,19.1891254 41.386327,19.0709205 41.386327,19.0709205 L41.4859186,19.5406543 C41.55654,19.4515266 41.6415949,19.3730358 41.7374356,19.3065828 L41.7374356,19.3065828 L40.3552384,16.693974 C41.0962842,16.0491415 41.5695697,15.1045137 41.5695697,14.0506621 C41.5695697,13.5333342 41.4565058,13.0402264 41.2509779,12.5983034 C40.4858301,10.8644294 37.8376247,9.58116238 34.6727465,9.58116238 C34.068483,9.58116238 33.4791319,9.62809911 32.9200487,9.71641339 C33.1688236,10.1744377 33.3165725,10.6657397 33.3451328,11.1740808 C33.3568565,11.3114974 33.3636364,11.450289 33.3636364,11.5890807 C33.3636364,12.8478209 32.7980021,13.9815119 31.902642,14.769828 L32.2909894,15.4159725 L32.2909894,15.4159725 Z M32.1224647,15.8179672 C32.1105888,15.8564664 32.0998175,15.8952741 32.09021,15.9343485 C32.09021,15.9343485 32.0801702,15.9133377 32.0496311,15.8772235 L32.1224647,15.8179672 L32.1224647,15.8179672 Z M31.874416,18.1173674 C31.8604481,18.0618819 31.8419845,18.0393196 31.8172554,18.0604695 C31.8172554,18.0604695 31.8147925,18.0556983 31.8102763,18.0465663 C31.7972916,18.0665272 31.8231512,18.0900439 31.874416,18.1173674 L31.874416,18.1173674 L31.874416,18.1173674 Z M8.2148245,27.1872295 C8.3507021,27.122825 7.694758,26.6760597 7.3830566,26.1075723 C7.0277001,25.4594659 7,24.684313 7,24.684313 C10.8691923,23.5426242 16.255232,22.8283392 22.249807,22.8207071 C28.2466292,22.8283458 33.6758129,23.5426242 37.5454546,24.684313 C37.5454546,24.684313 37.3691433,25.4254669 37.0031738,26.1075723 C36.7218948,26.6318287 36.2036183,27.1273322 36.3301825,27.1872295 C32.8308727,26.1106391 27.7657328,25.4170058 22.2264359,25.4062311 C16.6866896,25.4170049 11.7145819,26.1106391 8.2148245,27.1872295 L8.2148245,27.1872295 Z M20.9081291,0.813527825 L19.8655722,0.813527825 L19.8655722,1.63835547 L20.9081291,1.63835547 L20.9081291,2.76825577 L20.9081291,4.01114602 L19.5947784,4.01114602 C19.5793203,4.08853511 19.5,4.14495649 19.5,4.22582686 C19.5,4.43363873 19.5524463,4.6333656 19.648937,4.81337553 C19.6515601,4.81823664 19.6598047,4.81983688 19.6624775,4.82467535 L23.1557224,4.82467535 C23.1584359,4.81988217 23.166667,4.8181989 23.1692449,4.81337553 C23.2657066,4.6333656 23.3181818,4.43363873 23.3181818,4.22582686 C23.3181818,4.14524484 23.2386481,4.08832074 23.2234071,4.01114602 L21.9506716,4.01114602 L21.9506716,2.77955484 L21.9506716,1.63835547 L22.9932313,1.63835547 L22.9932313,0.813527825 L21.9506716,0.813527825 L21.9506716,0 L20.9081165,0 L20.9081291,0.813527825 L20.9081291,0.813527825 Z" id="path-35" fill="#C8A200"></path>
                    </g>
                </g>
            </g>
        </g>
    </g>
</svg>