<?xml version="1.0" encoding="UTF-8" standalone="no"?>
<svg width="180px" height="180px" viewBox="0 0 180 180" version="1.1" xmlns="http://www.w3.org/2000/svg" xmlns:xlink="http://www.w3.org/1999/xlink">
    <!-- Generator: Sketch 3.8.3 (29802) - http://www.bohemiancoding.com/sketch -->
    <title>sri_lanka</title>
    <desc>Created with Sketch.</desc>
    <defs></defs>
    <g id="Page-1" stroke="none" stroke-width="1" fill="none" fill-rule="evenodd">
        <g id="flags" transform="translate(-180.000000, -5580.000000)">
            <g id="sri_lanka" transform="translate(180.000000, 5580.000000)">
                <circle id="yellow" fill="#F2C500" cx="90" cy="90" r="90"></circle>
                <path d="M90,10 C134.182782,10 170,45.8172178 170,90 C170,134.182782 134.182782,170 90,170 C79.3909949,170 69.2643134,167.934929 59.9999988,164.18483 L60,15.8151621 C69.2643134,12.0650713 79.3909949,10 90,10 L90,10 Z" id="brown" fill="#A03529"></path>
                <path d="M49.9999777,20.7025875 C42.4718828,25.0573582 35.7192697,30.6036196 30,37.0835104 L30,142.91649 C35.7192697,149.39638 42.4718828,154.942642 49.9999777,159.297413 L50,20.7025746 L49.9999777,20.7025875 L49.9999777,20.7025875 Z" id="orange" fill="#E87E04"></path>
                <path d="M30,37.0835104 C17.5527316,51.1861743 10,69.7110691 10,90 C10,110.288931 17.5527316,128.813826 30,142.91649 L30,37.0835103 L30,37.0835104 L30,37.0835104 Z" id="green" fill="#1FCE6D"></path>
                <g id="emblem" transform="translate(67.000000, 35.000000)" fill="#F2C500">
                    <path d="M81,95 C81,95 79.918767,97.1327895 78.7242412,98.0018091 C76.9544163,99.2893558 73.325356,99.1963443 71.7852181,100.698475 C69.9396801,102.469811 71.9284326,104.810103 71.9118057,105.013188 L71.8106117,106.249122 C71.8106117,106.249122 73.0550784,106.263653 73.5790036,106.3428 C74.3668971,106.461823 74.6742042,107.082942 76.1411007,106.990694 C79.8293011,106.758753 79.6806393,103.539479 79.8891874,100.788362 C80.0744206,99.7407852 80.5030238,98.3749291 80.7465798,97.3276406 C80.9554189,96.4296296 81,95 81,95 L81,95 L81,95 L81,95 Z" id="path2389" transform="translate(76.000000, 101.000000) scale(-1, 1) translate(-76.000000, -101.000000) "></path>
                    <path d="M7.72424125,3.00180914 C5.95441626,4.28935584 2.32535605,4.19634434 0.78521813,5.69847548 C-1.0603199,7.46981144 0.92843259,9.81010319 0.91180575,10.0131875 L0.81061168,11.2491218 C0.81061168,11.2491218 2.05507843,11.2636529 2.57900365,11.3428005 C3.36689708,11.4618232 3.67420418,12.0829415 5.14110066,11.9906943 C8.82930114,11.7587527 8.68063931,8.53947916 8.88918736,5.78836195 C9.0744206,4.74078523 9.5030238,3.37492919 9.7465798,2.32764063 C9.9554189,1.42962967 10,3.84708052e-08 10,3.84708052e-08 C10,3.84708052e-08 8.91876704,2.13278954 7.72424125,3.00180914 L7.72424125,3.00180914 L7.72424125,3.00180914 Z" id="path2389" transform="translate(5.000000, 6.000000) scale(1, -1) translate(-5.000000, -6.000000) "></path>
                    <path d="M81,3.8470807e-08 C81,3.8470807e-08 79.918767,2.13278954 78.7242412,3.00180914 C76.9544163,4.28935584 73.325356,4.19634434 71.7852181,5.69847548 C69.9396801,7.46981144 71.9284326,9.81010319 71.9118057,10.0131875 L71.8106117,11.2491218 C71.8106117,11.2491218 73.0550784,11.2636529 73.5790036,11.3428005 C74.3668971,11.4618232 74.6742042,12.0829415 76.1411007,11.9906943 C79.8293011,11.7587527 79.6806393,8.53947916 79.8891874,5.78836195 C80.0744206,4.74078523 80.5030238,3.37492919 80.7465798,2.32764063 C80.9554189,1.42962967 81,3.8470807e-08 81,3.8470807e-08 L81,3.8470807e-08 L81,3.8470807e-08 L81,3.8470807e-08 Z" id="path2389" transform="translate(76.000000, 6.000000) scale(-1, -1) translate(-76.000000, -6.000000) "></path>
                    <path d="M10,95 C10,95 8.918767,97.13279 7.7242413,98.001809 C5.9544163,99.289356 2.3253561,99.196344 0.7852181,100.698475 C-1.0603199,102.469811 0.9284326,104.810103 0.9118057,105.013188 L0.8106117,106.249122 C0.8106117,106.249122 2.0550784,106.263653 2.5790037,106.3428 C3.3668971,106.461823 3.6742042,107.082942 5.1411007,106.990694 C8.8293011,106.758753 8.6806393,103.539479 8.8891874,100.788362 C9.0744206,99.740785 9.5030238,98.374929 9.7465798,97.327641 C9.9554189,96.42963 10,95 10,95 L10,95 L10,95 L10,95 Z" id="path2389"></path>
                    <path d="M16.0386314,53.4422802 C16.3512216,52.9971647 16.8589546,52.8920267 17.6388775,53.1088015 C19.5853483,53.6498016 19.4067837,55.7103268 17.3426141,56.5274591 C15.6659415,57.1912094 17.3426141,56.5274591 17.3426141,56.5274591 C15.6659415,57.1912094 12.1248898,57.1484499 10.5095347,56.4449608 C8.5395505,55.58703 8.4852342,53.5652734 10.420081,53.1153555 C11.1514455,52.9452885 11.6890822,53.0517219 11.9534047,53.4103243 C11.7750151,52.7728266 11.75,51.4055219 11.75,46.8308701 C11.75,36.8433519 12.3896611,32.1643666 14.2305073,28.6865304 C15.2055151,26.8444496 16.3059772,25.5575888 17.7512584,24.5693479 C18.8732468,23.8022043 18.9341413,23.8054009 18.4999497,24.6087012 C17.4093181,26.626414 16.5818712,35.0371851 16.3739513,46.2189405 C16.2779343,51.3817436 16.2305868,52.8438175 16.0386314,53.4422802 L16.0386314,53.4422802 L16.0386314,53.4422802 Z M15.9187722,53.6995967 C15.8260535,54.0721278 15.9810555,54.5424605 16.2509745,54.5424605 C16.3604361,54.5424605 16.4500052,54.6679073 16.4500052,54.8212307 C16.4500052,55.0069299 16.2376973,55.1662698 15.900691,55.2902385 C15.8723395,55.2562715 15.8370171,55.2222931 15.7949497,55.1890664 C15.3693242,54.8528891 15.3920302,54.3528831 15.8588877,53.7805011 C15.8799263,53.7547071 15.8998602,53.7281446 15.9187722,53.6995966 L15.9187722,53.6995967 L15.9187722,53.6995967 Z M12.111742,55.3224705 C12.0752313,55.308382 12.0399176,55.2936746 12.0058923,55.2783387 C11.5518303,55.0736808 11.3541379,54.5424605 11.732043,54.5424605 C11.9793096,54.5424605 12.1597629,54.1274322 12.1039526,53.767151 C12.1059191,53.770465 12.1078964,53.7737699 12.1098845,53.7770668 C12.4152363,54.2834258 12.4314637,54.4704385 12.2169774,55.0112483 C12.1742527,55.1189747 12.1386996,55.2252361 12.111742,55.3224705 L12.111742,55.3224705 L12.111742,55.3224705 Z M48.8495796,38.7463225 C48.8820235,36.4238158 48.6932417,35.7099747 48.001037,34.8196461 L47.58859,34.2891326 L48.236966,33.587942 C49.082797,32.6732269 49.471156,31.9400094 49.639614,30.9397072 L49.776651,30.1259648 L49.044937,30.8207415 C48.44579,31.3896429 48.159657,31.5155197 47.465696,31.5155197 C46.778529,31.5155197 46.510105,31.4000657 46.047043,30.9053457 C45.491449,30.3117775 44.506944,29.7406472 43.560217,29.4626939 C43.210481,29.3600198 43.094234,29.4047432 43.094234,29.6419466 C43.094234,29.8157763 42.90105,30.3175501 42.664933,30.7569973 L42.23565,31.5559906 L41.336203,30.6646482 C40.78448,30.1179217 40.129726,29.6923624 39.642682,29.5639457 C38.398265,29.2358443 38.330872,29.2684227 38.330872,30.1979767 C38.330872,31.6079715 37.730422,31.8706674 36.649778,30.9334728 C35.825987,30.2190436 35.142631,30.0637216 33.580537,30.2358723 L32.3740624,30.3688286 L32.5911469,30.9148929 C32.7724635,31.3710182 32.7316018,31.5631102 32.3431213,32.0811516 C31.7130096,32.9213774 30.89373,33.2853508 29.6325581,33.2853508 C29.0516967,33.2853508 28.3248083,33.4058639 28.0172198,33.5531587 C27.7096313,33.7004504 26.9453997,33.8701462 26.3189153,33.9302552 C25.6924293,33.9903722 25.0246896,34.0976596 24.8350659,34.1686853 C24.5383306,34.2798179 24.5057519,34.1882304 24.6013306,33.5115622 C24.7476263,32.4760053 24.0261213,31.7121673 22.901721,31.7121673 C21.4428471,31.7121673 20.7699512,33.0204998 21.3412628,34.7462521 C21.4512165,35.0783991 21.5950892,35.6022163 21.660968,35.9102915 C21.7293338,36.2299055 22.3864697,37.078051 23.1913552,37.8855012 C23.9671821,38.6637932 24.7004071,39.4736358 24.8207742,39.6851463 C24.9411444,39.8966583 25.3390706,40.2360901 25.7050625,40.439437 L26.3705263,40.8091654 L26.282754,40.0953054 C26.1862844,39.3107485 26.3567959,39.187665 26.773153,39.7412946 C26.9219772,39.9392106 27.3000651,40.25911 27.6133073,40.4521785 C28.1067482,40.7563219 28.1828389,40.7625002 28.1828389,40.4984268 C28.1828389,40.3307947 28.28343,39.9445246 28.4063656,39.6400557 L28.629913,39.086471 L29.0177729,39.8396745 C29.231091,40.2539371 29.9248216,41.1954403 30.5593844,41.9319097 C31.7906532,43.3609221 32.5408601,44.9578231 32.1536624,45.3254845 C31.9966159,45.4745913 31.5720973,45.4630509 30.6922407,45.2857593 C30.0101885,45.1483244 29.1665556,45.0756791 28.8174864,45.1243247 C28.1046371,45.2236667 28.0484919,45.1313962 28.4869072,44.5810441 C28.949615,44.0001581 28.876013,43.9043518 27.966997,43.9043518 C26.9153095,43.9043518 24.3043234,43.3988947 23.3020926,43.0012798 C22.3275513,42.6146408 22.1026972,42.7109121 21.815841,43.6376439 C21.6867335,44.0547238 21.4503449,44.8104737 21.2905442,45.3170886 L21,46.2382016 L22.0544,46.1363951 C22.6343305,46.0804006 23.3802096,45.9530999 23.7119275,45.8534997 C24.0436438,45.7539028 24.3451228,45.7009711 24.3818838,45.735873 C24.4186449,45.7707797 24.270793,46.1307042 24.0533359,46.5357065 L23.6579575,47.2720701 L24.3153413,47.1377123 C24.6769207,47.0638147 25.2208962,46.882997 25.5242001,46.7358914 C26.0519583,46.4799237 26.094333,46.4985116 26.5106101,47.1684114 C27.0225043,47.9922334 27.4320098,47.958385 27.5228657,47.0847389 C27.6168083,46.1815594 27.9131293,46.3151539 28.4705666,47.5119994 C29.0065887,48.6628692 29.5642755,49.0692024 29.6714335,48.3869492 C29.7069902,48.1604299 29.9957544,47.7916974 30.3130973,47.5675465 C30.9550139,47.1141456 31.4387435,47.2501742 31.7160963,47.9620538 C32.0031796,48.6989449 31.3629024,49.4584904 29.500447,50.5903859 C25.769721,52.8577335 23.6010654,55.9586926 22.9819524,59.9111934 C22.4235411,63.476207 24.1676142,67.160135 27.6664505,69.806075 C29.3408127,71.072292 32.0006958,72.408674 31.8316797,71.898763 C31.1138629,69.733177 31.1374901,65.601189 31.8717115,64.904052 C31.9818922,64.7994328 31.9439925,65.230585 31.7874849,65.86218 C31.20453,68.214857 31.4577758,70.089464 32.9521265,74.483133 C34.303678,78.456899 34.116602,80.15529 32.2037188,81.277835 C31.5893479,81.63837 31.1938016,81.697779 29.5419309,81.677682 C27.7495591,81.655853 27.5542625,81.692033 26.9788069,82.151742 C26.420933,82.597482 25.697608,84.060901 25.697608,84.743859 C25.697608,85.113814 26.1073597,85.064848 26.9125747,84.598732 C26.9125747,84.598732 26.1073597,85.064848 26.9125747,84.598732 L26.9126754,84.598462 L27.6098863,84.194862 L27.9081554,84.599189 C28.3055234,85.137887 29.405073,85.131792 30.1346755,84.586794 L30.6925686,84.170119 L31.1597098,84.586794 C31.7738952,85.134677 32.920912,85.135403 33.653309,84.588751 C34.166055,84.2058 34.237546,84.198108 34.576573,84.489423 C34.778684,84.663102 35.371475,84.860832 35.893892,84.928813 C36.83476,85.051267 36.849007,85.044542 37.399487,84.216535 C37.860518,83.523094 37.932631,83.242438 37.822618,82.569882 C37.749699,82.124002 37.671143,81.406354 37.648052,80.975125 C37.606279,80.194314 37.610773,80.189457 38.745177,79.793428 C39.371663,79.574716 40.096853,79.281374 40.356706,79.141558 C40.809765,78.897793 42.058823,77.425922 42.058823,77.135827 C42.058823,77.058958 41.570847,76.941203 40.974451,76.874127 C38.602193,76.607355 38.200435,75.330145 39.742606,72.957841 C42.257641,69.088926 43.77531,65.321151 43.785457,62.920961 C43.790015,61.8481258 43.850942,61.4879062 43.98844,61.7212099 C44.550371,62.6746385 43.543686,66.67228 42.018748,69.543046 L41.404729,70.699003 L41.990646,70.563769 C42.312894,70.489395 44.207512,69.687955 46.200876,68.782804 C51.657057,66.305195 53.531111,65.819673 57.062192,65.968789 C60.020488,66.09372 61.280315,66.673163 63.369008,68.869604 C64.475518,70.033191 65.541435,70.865739 67.491326,72.089461 C71.645578,74.696604 71.818819,74.922434 72.016395,77.988453 C72.21656,81.094923 72.116944,81.26345 69.77339,81.782561 C67.770438,82.226238 66.51465,83.16244 66.177861,84.463073 C65.998014,85.157673 66.376492,85.177673 67.386345,84.526964 L68.126447,84.050072 L68.455534,84.526964 C68.888171,85.153937 69.807789,85.156435 70.571418,84.532673 L71.148262,84.061544 L71.737924,84.532673 C72.654128,85.264676 73.872533,85.087162 74.216385,84.171568 C74.282494,83.995588 74.458904,84.051967 74.816135,84.36324 C75.485491,84.946499 77.201337,85.196677 77.386673,84.738074 C77.457398,84.563095 77.323051,84.130961 77.088134,83.777781 C76.089837,82.276963 75.777547,81.561221 75.764541,80.744267 C75.746523,79.607974 76.084638,79.05972 77.373709,78.135613 C78.939605,77.013027 79.423504,75.564714 78.23266,75.564714 C77.497411,75.564714 76.756189,74.913139 76.2835,73.851259 C75.322625,71.692731 75.510943,69.272879 76.953082,65.247295 C78.417897,61.1583698 78.580391,60.4044221 78.586245,57.6697343 C78.591043,55.4586072 78.535465,55.0762336 78.033701,53.8640233 C77.726921,53.1228412 77.104454,52.0192235 76.650443,51.4115461 L75.824953,50.3066776 L76.884801,49.4263481 C80.120949,46.7383656 79.458946,42.3391473 75.563258,40.6441374 C74.371485,40.1255925 74.073712,40.0798027 71.985164,40.0938783 C70.732194,40.1023288 68.82167,40.267639 67.73956,40.4612527 C66.636241,40.6586539 64.768693,40.817308 63.487617,40.8224649 C61.452499,40.8306748 61.107032,40.7803745 60.322733,40.3618242 C59.504947,39.9253996 59.364739,39.7181961 59.204626,38.7094867 C59.171719,38.5021358 59.027121,38.2952884 58.883328,38.2498225 C58.605167,38.1618847 57.320595,39.2796421 57.130804,39.774755 C57.037173,40.0190555 56.960751,40.0021642 56.686052,39.6764296 C56.503616,39.4601199 56.2489,38.9630748 56.119997,38.5718915 C55.795862,37.5880862 56.193894,36.850605 57.347309,36.2979166 L58.242179,35.8691247 L57.714504,35.5408213 C56.625617,34.8633769 54.774121,35.3268014 54.104516,36.4444032 C53.9151,36.760536 53.708495,37.0197556 53.645412,37.0204387 C53.582327,37.0209197 53.222301,36.7195376 52.845331,36.3502486 C51.439435,34.9729445 51.923042,32.9352734 53.803474,32.313158 C54.806202,31.9814135 55.693572,32.2344772 55.878206,32.9048485 C56.160072,33.9283069 57.036284,32.5830056 56.879135,31.3680469 C56.774649,30.560292 56.790349,30.5322948 57.347826,30.5322948 C58.123075,30.5322948 59.773166,31.5524244 60.28353,32.3472245 C60.876321,33.2704093 60.83318,34.7241702 60.180847,35.8076206 L59.668621,36.658367 L60.338659,36.5238393 C61.321196,36.3265728 62.275753,35.7148177 62.758657,34.9729156 C63.269162,34.1885848 63.324066,32.6613786 62.871362,31.837191 C62.432675,31.0384928 62.482982,30.9117003 63.131523,31.1816008 C64.234574,31.6406573 64.824301,32.1469338 65.266649,33.0145684 C65.665011,33.7959391 65.687254,33.9901109 65.471597,34.8033593 C65.338535,35.3051091 65.042481,35.9652516 64.813675,36.2703363 C64.457435,36.7453861 64.445279,36.8250322 64.729115,36.8250322 C65.257724,36.8250322 66.361479,36.3234348 66.7535,35.9050544 C66.951554,35.6936803 67.240296,35.173216 67.395167,34.7484601 L67.676766,33.9761812 L68.000321,34.5648555 C68.457872,35.3972738 69.34738,36.1463388 70.431894,36.6124763 C71.598298,37.113814 72.084055,37.1420614 71.474097,36.673076 C71.06277,36.3568117 70.304835,34.1270471 70.534534,33.908943 C70.669691,33.7806128 72.253382,35.0023031 74.061534,36.62973 C75.771996,38.1692448 76.846818,38.6735105 78.417801,38.6735217 C80.424617,38.6735345 81.593102,36.922054 80.691149,35.265913 C80.165282,34.3003492 78.993791,34.1662127 78.308757,34.9931358 C77.99375,35.3733832 77.907273,35.6758653 77.999539,36.0747005 C78.112549,36.5632808 78.068455,36.6283863 77.624469,36.6283863 C77.041142,36.6283863 75.891265,35.8801199 73.84909,34.1716005 C70.734966,31.5662931 66.951037,29.3579529 64.218812,28.551282 C62.465377,28.0335966 58.71978,27.8315741 56.93735,28.158553 C55.008209,28.5124483 52.726414,29.6193243 51.483341,30.804227 C49.280678,32.9038431 49.245742,35.6978638 51.390353,38.2421209 L52.004684,38.97094 L51.588776,39.6186585 C50.983726,40.5609523 51.035542,41.8290144 51.717266,42.7630693 C52.017522,43.174468 52.32041,43.5108948 52.390349,43.5106767 C52.460286,43.5105163 52.536976,43.2459731 52.560752,42.9229196 C52.620958,42.1056801 52.970795,41.5581261 53.571267,41.3413497 C54.112097,41.1461069 54.461726,41.2383213 56.938053,42.2293136 C59.543157,43.2718329 63.827511,43.3434936 68.383172,42.4207417 C70.616527,41.9683718 73.250004,41.9949804 74.408596,42.481614 C76.532437,43.3736651 77.024574,45.6944528 75.463454,47.45609 C74.787637,48.2187029 74.135864,48.5292667 71.947552,49.131404 C70.282343,49.589601 69.887917,49.6200195 66.103033,49.5821351 C62.869456,49.5497699 61.70736,49.6120277 60.387412,49.888347 C58.954427,50.1883212 58.073059,50.2185698 53.863676,50.1122189 L48.996763,49.989254 L49.536471,50.4373152 C49.833312,50.6837468 50.252695,50.9869505 50.468433,51.1111004 C50.835522,51.3223462 50.823284,51.3507283 50.277672,51.5535573 C49.957014,51.672762 49.245328,51.7702904 48.696132,51.7702904 L47.697627,51.7702904 L47.563258,52.6210641 C47.489344,53.0889928 47.494958,53.6353056 47.575669,53.8350928 C47.694755,54.1297643 47.650371,54.1720808 47.340627,54.0592196 C47.130626,53.9827019 46.54575,53.8322033 46.040914,53.724778 C45.536081,53.6173511 44.856536,53.3986009 44.530805,53.2386656 C43.98306,52.9697112 43.922192,52.9769398 43.720432,53.3349016 C43.540273,53.6545621 41.848886,54.9166591 41.600654,54.9166591 C41.560597,54.9166591 41.508887,54.6733062 41.485752,54.3758784 C41.462619,54.0784473 41.218609,53.3041464 40.943515,52.6552076 C40.668401,52.0062687 40.381148,51.2983321 40.30516,51.0820224 C40.190532,50.755717 40.138631,50.7389684 40.00039,50.983697 C39.908747,51.1459317 39.774937,51.5883887 39.703051,51.9669395 C39.631165,52.3454856 39.376306,52.9604429 39.136688,53.3335114 L38.701028,54.011812 L38.423157,53.4318319 C38.124866,52.8092275 37.629645,52.1635887 37.450355,52.1635887 C37.38984,52.1635887 37.286765,52.3626944 37.221321,52.6060457 C37.084652,53.1142319 35.910339,54.5233656 35.623523,54.5233656 C35.517901,54.5233656 35.431496,54.1251526 35.431496,53.6384485 C35.431496,53.1517444 35.338302,52.7535313 35.224394,52.7535313 C35.110489,52.7535313 35.017291,52.8794787 35.017291,53.0334152 C35.017291,53.4075965 34.014398,54.5233656 33.678063,54.5233656 C33.531289,54.5233656 33.295171,54.6561022 33.153369,54.8183353 C32.7836286,55.2413418 32.4811756,55.1819832 32.636626,54.7169264 C32.7095051,54.4989154 32.662118,53.9900877 32.5313152,53.5861982 C32.4005076,53.1823088 32.2614186,52.7524425 32.2222345,52.6309417 C32.172861,52.4779207 31.8134759,52.5185103 31.0528509,52.7630096 C29.8237139,53.1581023 29.4117247,53.0882038 30.0438644,52.5918274 C30.2749512,52.4103714 30.6264243,51.7818308 30.8249516,51.1950664 C31.0234612,50.6083035 31.3163677,50.0876756 31.4758564,50.0381144 C31.6991736,49.9687115 31.6872889,50.0544766 31.4240807,50.4112791 C31.2361139,50.6660858 31.0817607,51.0097299 31.081057,51.1749391 C31.081057,51.3401484 30.9389004,51.7318367 30.7666936,52.0453574 C30.5945093,52.3588813 30.4862573,52.6463931 30.5261643,52.6842791 C30.5660536,52.7221635 31.0337147,52.5440493 31.5653864,52.2884697 L32.5320589,51.8237834 L32.5359933,52.2394955 C32.5382644,52.4681361 32.6546842,53.0713173 32.794872,53.5798981 L33.049754,54.5045838 L33.707781,54.201364 C34.380285,53.8914705 35.017231,52.7867255 35.017231,51.9301856 C35.017231,51.5067638 35.259145,51.5717603 35.358204,52.0217907 C35.387282,52.1538554 35.53913,52.6495215 35.695656,53.1232693 L35.980258,53.9846261 L36.430789,53.4407779 C36.678585,53.1416599 36.98924,52.5549419 37.121122,52.1369593 C37.350075,51.411352 37.709566,51.0993964 37.709566,51.6263196 C37.709566,52.006033 38.743091,53.3678488 38.942468,53.2508442 C39.038834,53.1943014 39.230712,52.6831855 39.368872,52.1150313 C39.656227,50.9334768 40.119805,50.1298911 40.414367,50.3027506 C40.525125,50.3677487 40.568264,50.4938933 40.510214,50.5830723 C40.452163,50.6722481 40.690207,51.4404348 41.039196,52.2901534 C41.388184,53.1398736 41.738624,53.9953953 41.817967,54.1913164 C41.945435,54.5061151 42.060648,54.4603863 42.808723,53.7980198 C43.27429,53.3857857 43.696864,52.9243175 43.747749,52.7725361 C43.824668,52.5430808 43.928528,52.5514752 44.363878,52.8223346 C44.972697,53.2011131 47.019596,53.8114235 47.17768,53.6613113 C47.23689,53.6050939 47.297592,53.066122 47.312586,52.4635918 L47.339842,51.3680894 L47.928468,51.4904738 C48.25221,51.5577858 48.932936,51.5536487 49.441189,51.4812537 L50.365278,51.3496748 L49.541737,50.7832075 C49.088761,50.4716527 48.630773,50.0684688 48.52397,49.887247 C48.410189,49.6941897 48.007063,49.5302569 47.550402,49.4913494 C46.4947531,49.4014098 44.741553,48.4882792 44.2571412,47.8576906 L44.2571412,47.8576906 C44.1512411,47.7891744 44.0324912,47.707681 43.9092421,47.6181047 L43.111759,47.2863818 L43.108946,48.2150019 C43.106952,48.7257432 43.051902,49.3367421 42.985513,49.5727736 C42.855711,50.034278 42.511203,50.1641061 42.511203,49.7515058 C42.511291,49.4716839 41.694593,48.7133259 40.867028,48.2246975 C40.217122,47.8409522 40.109759,47.8292923 40.1083,48.1422742 C40.106089,48.6174479 39.68615,49.8111894 39.521242,49.8111894 C39.428249,49.8111894 39.290742,49.5779091 39.215646,49.2927931 C39.140545,49.0076755 38.8255,48.4457658 38.515518,48.0441037 L37.951921,47.3138121 L37.513079,47.9904436 C37.103979,48.6212132 36.395307,49.2389915 36.080803,49.2389915 C36.005683,49.2389915 35.990993,48.9067989 36.048136,48.5007852 C36.110225,48.0596533 36.062357,47.7097228 35.929004,47.6312281 C35.806348,47.5589856 35.705992,47.5841888 35.705992,47.6872335 C35.705992,47.9249215 34.721843,49.0482573 34.513601,49.0482573 C34.427795,49.0482573 34.307683,48.7263948 34.246655,48.3330068 C34.185648,47.9396204 34.081947,47.3173535 34.016214,46.9501921 C33.950482,46.5830307 34.09063,46.8320177 34.327676,47.5034934 L34.758672,48.724359 L35.231302,47.980325 C35.491244,47.5711059 35.704389,47.123938 35.70495,46.9866182 C35.70495,46.8492968 35.793438,46.7884544 35.900342,46.8514088 C36.007226,46.9143617 36.156,47.4062608 36.23092,47.9445164 L36.367166,48.9231666 L36.88723,48.3494336 C37.173272,48.0338809 37.508456,47.6114186 37.63207,47.4106295 C37.852644,47.0523503 37.865133,47.0526536 38.303873,47.4270439 C38.549745,47.6368504 38.927759,48.1386924 39.143886,48.5422457 C39.360036,48.9457943 39.565795,49.2462002 39.601164,49.2098099 C39.636511,49.173418 39.715713,48.7574086 39.777181,48.2853439 C39.838629,47.8132792 39.893492,47.4095393 39.899075,47.3881418 C39.929658,47.2711696 41.465656,48.2757681 42.033958,48.7844299 C42.399223,49.1113766 42.746133,49.3331058 42.80484,49.2771564 C42.863566,49.2211992 42.911603,48.7388432 42.911603,48.2052441 C42.911603,47.3783514 42.824495,47.1567248 42.32184,46.704636 C41.743893,46.1848322 41.72772,46.1819767 41.514174,46.5622056 C41.237018,47.0556895 40.910043,47.0628157 40.910043,46.5753632 C40.910043,46.219591 39.817872,44.8521253 39.53373,44.8521253 C39.460072,44.8521253 39.230056,45.1525297 39.022553,45.5196926 C38.815052,45.8868525 38.591918,46.1869132 38.526687,46.1864963 C38.246527,46.18477 36.70683,44.4574371 36.70751,44.1457228 C36.70751,43.8977342 36.811271,43.9611475 37.081202,44.3752922 C37.286301,44.6900019 37.696041,45.1598177 37.99169,45.4193277 C38.590355,45.944802 38.807987,45.8170331 39.039006,44.8044421 C39.104817,44.5159574 39.219207,44.2799274 39.293184,44.2799274 C39.549123,44.2799274 40.889467,45.7122947 41.077972,46.1872584 L41.267221,46.6640916 L41.410571,46.1395753 C41.585849,45.4981801 41.779259,45.4743237 42.059116,46.0595953 C42.176011,46.3040906 42.753419,46.8124072 43.342217,47.189188 L44.1498014,47.5376165 C44.1835849,47.5284614 44.2582183,47.5615489 44.359618,47.628141 L44.4965821,47.6872335 L44.627621,47.1852127 C44.745791,46.8062483 44.902332,46.5884772 44.97549,46.7012766 C45.0707598,46.8481557 44.9345625,47.594754 44.7586976,47.9452901 C44.7732911,47.9584158 44.7880076,47.971795 44.802832,47.9854185 C45.624077,48.7401358 46.765007,49.2138499 47.761481,49.2138499 L48.507113,49.2138499 L48.045854,48.5987819 C47.780885,48.2454655 47.543258,47.5752321 47.487463,47.0238554 C47.398533,46.144969 47.306001,46.0052235 46.390668,45.367227 C45.840874,44.9840035 45.159858,44.4096053 44.877328,44.0907834 L44.363628,43.5111096 L44.101543,44.1993504 C43.957379,44.5778836 43.781194,44.8875927 43.710035,44.8875927 C43.638873,44.8875927 43.361751,44.6663618 43.094234,44.3959723 C42.826701,44.1255811 42.554173,43.9053668 42.488607,43.9066063 C42.423017,43.9077288 42.186029,44.2720565 41.961963,44.7159583 L41.554551,45.5230541 L41.239734,45.0578369 C41.066574,44.8019655 40.657567,44.3492686 40.330844,44.0518375 C40.004118,43.754408 39.832263,43.5110551 39.948964,43.5110551 C40.065646,43.5110551 40.468918,43.8208973 40.845121,44.1995925 L41.529078,44.8881299 L41.807445,44.383675 C41.972629,44.0843181 42.034532,43.6244791 41.959705,43.2526774 C41.850624,42.7107437 41.865951,42.6792461 42.073199,43.0194347 C42.204999,43.235746 42.605121,43.6504591 42.962395,43.9410144 L43.611994,44.4692974 L44.060267,43.6460414 C44.506407,42.8267398 44.509533,42.8251475 44.712517,43.314406 C44.983966,43.9687165 46.948438,45.5832208 48.620917,46.5265104 C48.878697,46.6719003 48.770009,46.1719416 48.293942,45.022276 C48.167858,44.7178071 48.0647,44.168903 48.0647,43.8024923 C48.0647,43.2589006 47.908295,43.016962 47.214873,42.4879206 C46.213804,41.7241387 45.890058,41.1809928 45.70141,39.9487787 C45.624989,39.4496394 45.449801,38.8944928 45.312077,38.7151215 C45.107793,38.4490116 45.074033,38.5979357 45.12869,39.5243259 C45.165532,40.1487567 45.084535,40.9251325 44.948675,41.249602 L44.701683,41.8395446 L44.510755,41.3479241 C44.405753,41.077533 43.941305,40.6073097 43.478618,40.3029835 C43.015949,39.9986573 42.691214,39.698558 42.757011,39.6360966 C42.822786,39.5736353 43.29877,39.8509921 43.814726,40.2524426 C44.600762,40.8640213 44.7739,40.9302381 44.882774,40.66087 C45.010682,40.3443556 44.882614,38.9672776 44.635495,38.0049063 C44.512164,37.5243676 44.522955,37.5269541 45.114212,38.1196515 C45.550288,38.5567881 45.791417,39.0781648 45.978224,39.987808 C46.215542,41.1434242 46.335268,41.3358032 47.401041,42.2740241 C48.04107,42.8374576 48.598052,43.2668091 48.638789,43.228139 C48.679505,43.1894688 48.760277,41.7319606 48.818264,39.9892287 C48.8309939,39.6066968 48.8406197,39.2575331 48.8464814,38.937562 C48.666232,38.8240188 48.3303968,38.5553328 47.85565,38.1291799 C47.85565,38.1291799 49.177435,39.3156701 47.85565,38.1291799 C47.304833,37.6347478 46.925397,37.1630143 47.01243,37.0808819 C47.099463,36.9987513 47.197471,36.9752266 47.230204,37.028601 C47.262938,37.0819755 47.713173,37.5537108 48.230733,38.0768972 C48.5198854,38.3691898 48.724454,38.5925705 48.8495796,38.7463225 L48.8495796,38.7463225 L48.8495796,38.7463225 Z M34.002545,40.8154952 L34.033031,40.2343659 L34.117422,40.7956534 C34.16671,41.1234006 34.511217,41.6145538 34.945407,41.9760992 L35.689019,42.5952609 L36.14596,42.0315228 C36.397301,41.7214667 36.606216,41.3521485 36.610246,41.2108221 C36.620822,40.8422951 36.682813,40.8732487 37.558623,41.6837913 C38.336766,42.4039555 38.348895,42.4073968 38.464626,41.9407572 C38.529136,41.6806232 38.506242,41.1908764 38.413752,40.8524314 C38.159499,39.9221274 38.209315,39.781728 38.594582,40.3428043 C38.786525,40.6223526 39.095173,41.0175387 39.280461,41.2209953 C39.602989,41.5751669 39.622669,41.5707869 39.742673,41.1182076 C39.811619,40.8582245 39.869271,40.3823604 39.870797,40.0607416 L39.873657,39.4759749 L40.575267,40.32428 C41.230623,41.1166722 41.291002,41.1459445 41.491023,40.7683825 C41.60881,40.5460714 41.706569,40.0112 41.70828,39.5797817 C41.710512,39.022467 41.765545,38.8818463 41.898431,39.0940546 C42.120349,39.4484207 41.966277,40.4132722 41.556489,41.2355217 L41.262428,41.8255401 L40.876286,41.1841312 C40.382551,40.3639837 40.218184,40.3771473 39.901376,41.2622143 C39.601964,42.0986264 39.407276,42.1622921 39.115537,41.5191751 C38.926748,41.1029755 38.890812,41.1539738 38.756806,42.0283245 L38.607862,43 L37.715471,42.2613149 L36.82306,41.5226299 L36.421877,42.0091281 C36.201223,42.2767046 36.017642,42.6112641 36.01392,42.7525904 C36.005795,43.0589018 35.791147,43.0684715 35.463958,42.7771006 C34.170273,41.6251024 33.973892,41.3614953 34.002545,40.8154952 L34.002545,40.8154952 Z M32.4003869,35.6434645 C32.7597809,35.1142703 32.9239466,35.0424581 33.551493,35.1399524 C33.954055,35.2024913 34.820292,35.6374895 35.476489,36.1066144 C36.234349,36.6484187 37.018237,37.0113756 37.625402,37.1015968 C38.151116,37.1797159 38.581261,37.2091675 38.581261,37.1670471 C38.581261,37.1249286 38.362879,36.6897801 38.095965,36.2000423 C37.462109,35.0370624 37.483813,34.912245 38.19873,35.6090095 C38.932597,36.3242455 39.810402,36.5334247 41.772011,36.4605088 L42.730373,36.4248841 L42.1744,35.7527072 C41.396838,34.8126661 41.636146,34.7283868 42.49483,35.6398545 C43.30017,36.4947016 43.249738,36.5548974 41.554676,36.7618123 C40.834396,36.8497381 40.059805,36.785958 39.415991,36.5857185 C38.452736,36.2861128 38.415347,36.2906742 38.59782,36.6855853 C38.702992,36.9131882 38.873315,37.0994059 38.976313,37.0994059 C39.079332,37.0994059 39.163617,37.214741 39.163617,37.3557033 C39.163617,37.7891889 37.083094,37.407999 36.088896,36.7923584 C33.817629,35.3859186 33.531809,35.26413 32.9912074,35.4724768 C32.690381,35.5884114 32.3892862,35.9277614 32.2855289,36.2678192 C31.9393763,37.4021871 33.254803,38.2839135 33.797365,37.2811978 C33.954618,36.9905537 33.917891,36.7917607 33.641505,36.4380479 C33.263013,35.9536031 33.298519,35.8845795 33.809477,36.1116801 C34.172246,36.2729178 34.221047,37.3380825 33.88359,37.7289601 C33.497468,38.1761797 32.6163249,38.049582 32.2834137,37.4990581 C31.8748334,36.8234198 31.9030566,36.3757913 32.4003869,35.6434645 L32.4003869,35.6434645 Z M42.366109,34.530287 C43.994581,34.4976869 44.98356,34.2063255 46.150459,33.4153981 C47.085439,32.7816628 47.33893,32.9063697 46.45147,33.5634756 C45.641871,34.1629169 44.379152,34.6237431 43.160116,34.7646343 C42.569794,34.8328628 41.897035,34.9273771 41.665074,34.9746642 C41.433136,35.021953 41.1848,35.0010981 41.113223,34.9283222 C40.819616,34.6297663 41.04979,34.5566393 42.366109,34.530287 L42.366109,34.530287 Z M14.4441099,76.591776 C14.6316995,76.367163 14.7852158,76.004459 14.7852158,75.785762 C14.7852158,75.455344 14.9519664,75.36718 15.7719845,75.264061 L16.7587516,75.139976 L16.1006649,74.675604 C15.3188203,74.123935 15.2464888,73.692951 15.9356013,73.691995 C16.6219335,73.691995 17.7842826,73.060929 17.9610018,72.594041 C18.0431326,72.377032 17.9914827,72.087095 17.8441682,71.938239 C17.459413,71.549481 16.7360309,71.608098 16.6016648,72.038933 C16.4572422,72.502072 16.2154391,72.503286 15.6672651,72.043517 C14.8426494,71.351996 14.8241321,69.920611 15.6290307,69.087051 C16.0083727,68.694214 16.0049968,68.668453 15.5213754,68.2629 C15.0011187,67.826626 14.6295758,66.963134 14.8739595,66.758199 C14.9517262,66.692986 15.3627556,66.744954 15.7873646,66.873741 C16.3907183,67.056698 16.6289019,67.059475 16.8774736,66.886417 C17.6304144,66.362402 16.8146707,65.688595 15.6072069,65.837209 C15.1212587,65.897022 14.9205007,65.837209 14.8507126,65.61401 C14.7979256,65.444723 14.3728749,65.223689 13.8939865,65.116511 C13.0382756,64.9249709 13.0322397,64.9273022 13.0322397,65.449335 C13.0322397,66.021383 12.6634534,66.129299 11.9626887,65.762315 C11.3932747,65.464107 10.8410276,65.695613 10.8410276,66.232529 C10.8410276,66.733483 11.4099797,66.980533 12.4296593,66.922359 C13.2117594,66.877725 13.2408578,67.392699 12.4980683,68.132951 L11.9638969,68.665289 L12.3870642,69.203601 C13.0137918,70.000852 12.9610352,71.324966 12.276341,71.982585 L11.7395688,72.498148 L11.3874367,72.084715 C10.8980738,71.510166 10.2287106,71.548679 10.0451584,72.161944 C9.9249676,72.563526 10.0243194,72.747038 10.5922444,73.172562 C10.9739114,73.458532 11.5311402,73.692516 11.8305326,73.692516 C12.5714286,73.692516 12.5424605,74.20843 11.7722935,74.729616 L11.1697114,75.137393 L12.1009772,75.265298 C12.6131725,75.335657 13.0322397,75.468011 13.0322397,75.559388 C13.0322397,75.909854 13.6776487,77 13.8851128,77 C14.0049483,77 14.2564999,76.816232 14.4441099,76.59162 C14.4441099,76.59162 14.2564999,76.816232 14.4441099,76.59162 L14.4441099,76.591776 L14.4441099,76.591776 Z M27.1467283,70.1873443 C27.1467283,70.0716953 26.6836891,69.5381423 26.1177674,69.0016403 C24.926808,67.8726493 23.6313383,65.9712923 23.2956711,64.8596113 C23.1206614,64.2799622 22.1282137,63.6418987 19.7460485,61.2212317 L18.1405499,57.4815956 L15.5995343,57.1319111 C15.5995343,57.1319111 14.455489,57.2895895 14.2086529,57.2935348 C13.7832539,57.3003079 13.7909633,57.3259027 14.3565208,57.7844806 L14.9531965,58.2682765 L16.1603064,59.0072115 C16.1603064,59.0072115 17.7358775,57.630634 18.1405499,58.149414 C18.5452223,58.6681941 16.7910674,59.9861557 16.7910674,59.9861557 C16.7910674,59.9861557 17.8155799,59.1882512 18.1405499,59.6110277 C18.4655199,60.0338042 17.1391802,61.1788344 17.1391802,61.1788344 C17.1391802,61.1788344 17.9637921,60.8369362 18.2545073,61.1788347 C18.5452225,61.5207331 17.5177283,62.8020584 17.5177283,62.8020584 C17.5177283,62.8020584 18.496845,62.5369589 18.1405499,63.478215 C17.7842548,64.419471 16.319937,65.11854 16.319937,65.11854 C16.319937,65.11854 16.3011175,65.055476 16.6901197,65.363266 C17.2530107,65.808676 17.2639322,65.855448 17.2639322,67.820782 C17.2639322,69.463187 17.3272244,69.887087 17.6152337,70.172986 C17.9384353,70.493843 17.9665399,70.494997 17.9665399,70.187344 C17.9665399,69.85129 18.5295689,69.440499 18.9901385,69.440499 C19.1260027,69.440499 19.974835,70.194179 20.8764038,71.115335 C21.7834481,72.04209 22.7325942,72.830705 23.0013292,72.880922 C23.2684643,72.93084 23.5576766,72.983884 23.6440366,72.998801 C23.7303779,73.013744 24.1368871,72.887235 24.5473897,72.717702 C25.3224516,72.397529 27.1467283,70.5549523 27.1467283,70.1873443 L27.1467283,70.1873443 Z M16,64.486536 C16,63.8826688 14.7411663,63.2380938 13.2355202,63.0709814 C12.0198931,62.9360574 12,62.9436914 12,63.5445576 C12,64.0419453 12.1911581,64.2376133 13.0303007,64.5991249 C14.3786665,65.179999 16,65.118546 16,64.486536 C16,64.486536 16,65.118546 16,64.486536 L16,64.486536 Z M17.1854254,64.3496938 C17.9011401,63.7332144 18.2402486,63 17.8096458,63 C17.3144173,63 16,64.1196873 16,64.5415475 C16,65.199995 16.2441381,65.160469 17.1854254,64.3496938 C17.1854254,64.3496938 16.2441381,65.160469 17.1854254,64.3496938 L17.1854254,64.3496938 Z M15.2470661,61.876188 C14.0420714,61.2893155 12.6014116,61.0175101 12.2544748,61.3115849 C11.6154236,61.8532455 12.0412279,62.580506 13.0740163,62.7113387 C13.4898196,62.7640038 14.0536352,62.9007527 14.3269172,63.0152304 C15.1206988,63.3476947 15.8755757,63.1961084 15.9465144,62.689979 C15.9920355,62.3650738 15.8056822,62.1482319 15.2470661,61.876188 L15.2470661,61.876188 Z M13.5937875,59.7219476 C12.109719,59.1693319 11.4527856,59.429916 11.9270716,60.3831078 C12.0922894,60.7151551 12.3696015,60.8668401 12.9915043,60.9653638 C13.4540603,61.0386542 14.0862332,61.1819383 14.3963377,61.2837971 C15.2248023,61.5558885 15.7034134,61.4600765 15.7677284,61.0092398 C15.8252001,60.6063681 15.5817211,60.4621964 13.5937875,59.7219476 L13.5937875,59.7219476 Z M18.0934531,58.3029128 C18.0934531,57.7057111 16.3866248,58.7622423 16.169053,59.4941016 C15.9080982,60.3719467 16.3311349,60.3348915 17.3077674,59.3943058 C17.7398785,58.9781524 18.0934531,58.4870045 18.0934531,58.3029128 L18.0934531,58.3029128 Z M18.0120228,59.7900674 C18.0120228,59.1928657 16.3051945,60.2493969 16.0876227,60.9812562 C15.8266679,61.8591013 16.2497046,61.8220461 17.2263371,60.8814604 C17.6584482,60.465307 18.0120228,59.9741591 18.0120228,59.7900674 L18.0120228,59.7900674 Z M18.1296606,61.3815842 C18.1296606,60.7381369 16.4228327,61.8764828 16.205261,62.6650151 C15.9443062,63.6108379 16.3673428,63.5709132 17.3439751,62.5574914 C17.7760861,62.1091123 18.1296606,61.5799314 18.1296606,61.3815842 L18.1296606,61.3815842 Z M15.9953469,59.5205823 C16.0698808,58.9851713 15.2475796,58.501656 13.6305103,58.1300079 C12.4440949,57.8573392 11.9208044,58.0119852 12.0096524,58.6089783 C12.0581521,58.9348594 12.4532687,59.1729508 13.5741868,59.5517594 C15.368024,60.1579338 15.9075974,60.1509918 15.9953469,59.5205823 C15.9953469,59.5205823 15.9075974,60.1509918 15.9953469,59.5205823 L15.9953469,59.5205823 Z M30.4185625,42.8302471 C28.7486356,42.8302471 27.2534617,42.0211337 24.4858876,40.7722536 C22.8877168,40.0510661 22.335734,39.8853304 22.1440391,40.0691113 C21.6550576,40.5379688 22.0066283,41.7497185 23.2651883,42.3347067 C24.3816958,42.8536545 27.5029438,43.4913088 28.9266978,43.4913088 C29.75268,43.4913088 29.7722031,43.5290461 29.3021627,44.2169013 L28.9564305,44.7228065 L30.1463342,44.7228065 C30.6740606,44.7228063 31.7168953,45.0263377 31.7950726,44.9050479 C31.859869,44.8044285 31.7165554,44.2964379 31.476547,43.7761746 C31.1023647,42.9649853 30.9516437,42.8302471 30.4185625,42.8302471 L30.4185625,42.8302471 Z" id="path3018"></path>
                </g>
            </g>
        </g>
    </g>
</svg>