<?xml version="1.0" encoding="UTF-8" standalone="no"?>
<svg width="180px" height="180px" viewBox="0 0 180 180" version="1.1" xmlns="http://www.w3.org/2000/svg" xmlns:xlink="http://www.w3.org/1999/xlink">
    <!-- Generator: Sketch 3.8.3 (29802) - http://www.bohemiancoding.com/sketch -->
    <title>sudan</title>
    <desc>Created with Sketch.</desc>
    <defs></defs>
    <g id="Page-1" stroke="none" stroke-width="1" fill="none" fill-rule="evenodd">
        <g id="flags" transform="translate(-450.000000, -5580.000000)">
            <g id="sudan" transform="translate(450.000000, 5580.000000)">
                <circle id="white" fill="#FFFFFF" cx="90" cy="90" r="90"></circle>
                <path d="M25.6055537,27.1242279 L56.640625,60 L174.878833,60 C162.523738,25.0442275 129.186567,0 90,0 C64.7609412,0 41.948397,10.3891381 25.6055537,27.1242279 L25.6055537,27.1242279 Z" id="red" fill="#E94B35"></path>
                <path d="M25.934514,153.210885 L58.0859375,120 L174.878833,120 C162.523738,154.955772 129.186567,180 90,180 C64.9298376,180 42.2538226,169.749442 25.934514,153.210885 L25.934514,153.210885 Z" id="black" fill="#000000"></path>
                <path d="M26.3603888,153.639611 L90,90 L26.3603888,26.3603888 C10.0735925,42.647185 0,65.147185 0,90 C0,114.852815 10.0735925,137.352815 26.3603888,153.639611 L26.3603888,153.639611 Z" id="green" fill="#1AAF5D"></path>
            </g>
        </g>
    </g>
</svg>