<?xml version="1.0" encoding="UTF-8" standalone="no"?>
<svg width="180px" height="180px" viewBox="0 0 180 180" version="1.1" xmlns="http://www.w3.org/2000/svg" xmlns:xlink="http://www.w3.org/1999/xlink">
    <!-- Generator: Sketch 3.8.3 (29802) - http://www.bohemiancoding.com/sketch -->
    <title>suriname</title>
    <desc>Created with Sketch.</desc>
    <defs></defs>
    <g id="Page-1" stroke="none" stroke-width="1" fill="none" fill-rule="evenodd">
        <g id="flags" transform="translate(-720.000000, -5580.000000)">
            <g id="suriname" transform="translate(720.000000, 5580.000000)">
                <circle id="white" fill="#FFFFFF" cx="90" cy="90" r="90"></circle>
                <path d="M167.919178,135.000025 C152.357751,161.901074 123.272287,180 89.9595891,180 C56.6468913,180 27.5614268,161.901074 12,135.000025 L167.919193,135 L167.919193,135 L167.919178,135.000025 L167.919178,135.000025 Z M167.919178,44.9999749 C152.357751,18.0989265 123.272287,0 89.9595891,0 C56.6468913,0 27.5614268,18.0989265 12,44.9999749 L167.919193,45 L167.919193,45 L167.919178,44.9999749 L167.919178,44.9999749 Z" id="green" fill="#1AAF5D"></path>
                <path d="M7.05909179,126 L172.940908,126 C177.486598,115.241112 180,103.414075 180,91 C180,78.5859255 177.486598,66.7588877 172.940908,56 L7.05909179,56 C2.51340169,66.7588877 0,78.5859255 0,91 C0,103.414075 2.51340169,115.241112 7.05909179,126 C7.05909179,126 2.51340169,115.241112 7.05909179,126 L7.05909179,126 L7.05909179,126 Z" id="red" fill="#E94B35"></path>
                <polygon id="star" fill="#F2C500" points="90.4999993 106.75 72.5725512 116.175019 75.9963883 96.2125098 61.492776 82.0749823 81.5362778 79.1624887 90.5000004 61 99.4637284 79.1624932 119.507229 82.0749969 105.00361 96.2125136 108.427448 116.17502"></polygon>
            </g>
        </g>
    </g>
</svg>