<?xml version="1.0" encoding="UTF-8" standalone="no"?>
<svg width="180px" height="180px" viewBox="0 0 180 180" version="1.1" xmlns="http://www.w3.org/2000/svg" xmlns:xlink="http://www.w3.org/1999/xlink">
    <!-- Generator: Sketch 3.8.3 (29802) - http://www.bohemiancoding.com/sketch -->
    <title>swaziland</title>
    <desc>Created with Sketch.</desc>
    <defs></defs>
    <g id="Page-1" stroke="none" stroke-width="1" fill="none" fill-rule="evenodd">
        <g id="flags" transform="translate(-990.000000, -5580.000000)">
            <g id="swaziland" transform="translate(990.000000, 5580.000000)">
                <path d="M157.078377,150 L22.9160998,150 C39.3952103,168.412481 63.34306,180 89.9972382,180 C116.651416,180 140.599266,168.412481 157.078377,150 Z M22.9160998,30 L157.078377,30 C140.599266,11.5875189 116.651416,0 89.9972382,0 C63.34306,0 39.3952103,11.5875189 22.9160998,30 Z" id="blue" fill="#227FBB"></path>
                <path d="M22.9160998,150 L157.078377,150 C158.52399,148.384783 159.912129,146.717045 161.239576,145 L18.7549005,145 C20.0823479,146.717045 21.470486,148.384783 22.9160998,150 Z M18.7549005,35 L161.239576,35 C159.912129,33.2829552 158.52399,31.6152168 157.078377,30 L22.9160998,30 C21.470486,31.6152168 20.0823479,33.2829552 18.7549005,35 Z" id="yellow" fill="#F2C500"></path>
                <path d="M18.7549005,145 L161.239576,145 C172.998012,129.790538 179.994476,110.71235 179.994476,90 C179.994476,69.2876496 172.998012,50.2094623 161.239576,35 L18.7549005,35 C6.99646469,50.2094623 0,69.2876496 0,90 C0,110.71235 6.99646469,129.790538 18.7549005,145 Z" id="red" fill="#E94B35"></path>
                <g id="emblem" transform="translate(2.000000, 56.000000)">
                    <rect id="Rectangle" fill="#F2C500" x="0" y="30" width="176" height="5" rx="2.5"></rect>
                    <g id="Group" transform="translate(18.000000, 23.000000)">
                        <polygon id="Shape" fill="#FFFFFF" points="133.000056 0 123 3.5 133.000056 7 143 3.5 133.000056 0 133.000056 0"></polygon>
                        <rect id="Rectangle" fill="#F2C500" transform="translate(63.000000, 3.000000) scale(1, -1) translate(-63.000000, -3.000000) " x="0" y="2" width="126" height="2" rx="1"></rect>
                    </g>
                    <g id="Group-copy" transform="translate(29.000000, 16.000000)">
                        <polygon id="Shape" fill="#FFFFFF" points="133.000056 0 123 3.5 133.000056 7 143 3.5 133.000056 0 133.000056 0"></polygon>
                        <rect id="Rectangle" fill="#F2C500" transform="translate(63.000000, 4.000000) scale(1, -1) translate(-63.000000, -4.000000) " x="0" y="3" width="126" height="2" rx="1"></rect>
                    </g>
                    <g id="Group" transform="translate(30.000000, 0.000000)">
                        <path d="M55,67 C29.3326435,67 11,44.6666667 0,33.5009454 C11,22.3333333 29.3326435,0 55,0 C84.3326435,0 99,22.3333333 110,33.5009454 C99,44.6666667 84.3326435,67 55,67 Z" id="Shape" fill="#FFFFFF"></path>
                        <path d="M50.885031,11.6545642 C53.7957937,14.9958657 51.3652863,16.3428994 54.4462895,16.5622367 C57.6954747,16.8057768 55.8537071,20.0928112 58.5868185,20.2070179 C60.4975469,20.2921056 58.3959927,28.0827404 60.2354959,30.6533359 C62.1091708,33.3334111 63.6783889,31.4386014 63.7113254,33.3748205 C63.7438501,35.3772189 58.6117268,35.1752773 58.521769,41.3439504 C58.3712904,44.8987276 54.1908258,45.1263847 53.9913542,47.4137326 C53.7433012,49.5651291 62.2271246,50.7729971 62.1141112,52.6990056 C61.9978042,54.6191526 52.9534429,54.3185092 52.5596459,56.5082898 C52.3577041,58.4751405 64.9847326,60.0872698 66,65.7758589 C64.1158267,66.4047519 58.7552064,66.9967736 54.7034,66.999988 C29.1776169,67.0188964 10.9410917,44.6653981 0,33.499994 C10.9410917,22.3326991 29.1755584,0 54.7054585,0 C54.7054585,0 47.1273888,7.06682156 50.8870896,11.6526733 C50.8870896,11.6526733 47.1273888,7.06682156 50.8870896,11.6526733 L50.885031,11.6545642 L50.885031,11.6545642 L50.885031,11.6545642 L50.885031,11.6545642 Z" id="Shape" fill="#000000"></path>
                        <path d="M19,23 L19,30 L21,30 L21,23 L19,23 L19,23 L19,23 L19,23 Z M19,37 L19,44 L21,44 L21,37 L19,37 L19,37 L19,37 L19,37 Z M25,23 L25,30 L27,30 L27,23 L25,23 L25,23 L25,23 L25,23 Z M25,37 L25,44 L27,44 L27,37 L25,37 L25,37 L25,37 L25,37 Z M31,23 L31,30 L33,30 L33,23 L31,23 L31,23 L31,23 L31,23 Z M31,37 L31,44 L33,44 L33,37 L31,37 L31,37 L31,37 L31,37 Z M37,23 L37,30 L39,30 L39,23 L37,23 L37,23 L37,23 L37,23 Z M37,37 L37,44 L39,44 L39,37 L37,37 L37,37 L37,37 L37,37 Z M43,23 L43,30 L45,30 L45,23 L43,23 L43,23 L43,23 L43,23 Z M43,37 L43,44 L45,44 L45,37 L43,37 L43,37 L43,37 L43,37 Z M50,23 L50,30 L52,30 L52,23 L50,23 L50,23 L50,23 L50,23 Z M50,37 L50,44 L52,44 L52,37 L50,37 L50,37 L50,37 L50,37 Z" id="Rectangle" fill="#FFFFFF"></path>
                        <path d="M62,23 L62,30 L64,30 L64,23 L62,23 L62,23 L62,23 L62,23 Z M62,37 L62,44 L64,44 L64,37 L62,37 L62,37 L62,37 L62,37 Z M68,23 L68,30 L70,30 L70,23 L68,23 L68,23 L68,23 L68,23 Z M68,37 L68,44 L70,44 L70,37 L68,37 L68,37 L68,37 L68,37 Z M73,23 L73,30 L75,30 L75,23 L73,23 L73,23 L73,23 L73,23 Z M73,37 L73,44 L75,44 L75,37 L73,37 L73,37 L73,37 L73,37 Z M79,23 L79,30 L81,30 L81,23 L79,23 L79,23 L79,23 L79,23 Z M79,37 L79,44 L81,44 L81,37 L79,37 L79,37 L79,37 L79,37 Z M84,23 L84,30 L86,30 L86,23 L84,23 L84,23 L84,23 L84,23 Z M84,37 L84,44 L86,44 L86,37 L84,37 L84,37 L84,37 L84,37 Z M90,23 L90,30 L92,30 L92,23 L90,23 L90,23 L90,23 L90,23 Z M90,37 L90,44 L92,44 L92,37 L90,37 L90,37 L90,37 L90,37 Z" id="Rectangle" fill="#000000"></path>
                    </g>
                    <g id="leaf" transform="translate(58.000000, 5.000000)">
                        <path d="M8.84870087,7.57572431e-05 C7.20637303,3.14198115 11.7241749,-1.04476814 18.8064373,4.21495624 C20.1188846,5.19212366 22,9.0530663 22,10.8424524 C20.4921007,10.525181 17.8218071,9.05291479 17.8218071,9.05291479 C17.8218071,9.05291479 20.9555255,12.1576991 20.9555255,15.7367238 C19.8482587,15.0521814 19.2943305,15.1548324 18.9264207,14.3138765 C18.9264207,15.4726846 19.911051,16.2109894 19.911051,18.0004765 C19.1118496,17.3697469 18.4352848,16.9492437 17.7590148,16.5800787 C18.8034894,18.3696163 15.8554947,21.8411667 17.330966,23 C14.750881,22.630835 12.1109518,21.0002108 11.0664773,19.2106227 C10.5128439,19.5797877 10.4527048,20.1592044 10.4311844,20.7769795 C10.5125491,20.8437216 6.50386589,17.833558 6.87207043,16.67725 C6.3343562,17.4235598 6.25859273,17.8335833 6.13595616,18.6745645 C4.66313801,17.2379041 3.31354604,15.8013447 2.82241012,13.9440297 C2.1679553,14.7849856 2.12697817,14.7849856 1.47252335,15.6259667 C0.981682233,12.6825453 0.981682233,12.7875954 1.96336447,10.2648792 C1.26793252,10.7204075 0.695137149,11.1759105 0,11.7365646 C0.658582015,7.47395708 4.01752717,2.47549418 8.84870087,0 C8.84870087,0 4.01752717,2.47549418 8.84870087,0 L8.84870087,7.57572431e-05 L8.84870087,7.57572431e-05 L8.84870087,7.57572431e-05 L8.84870087,7.57572431e-05 Z" id="Shape" stroke="#000000" stroke-width="0.1" fill="#3D5DA7"></path>
                        <path d="M6.9098945,16.3712927 C7.18185105,14.3778911 7.55504522,13.6505834 7.73126621,12.367004 C8.04366276,10.109646 7.93768001,8.43064126 8.43741845,8.51653074 C8.93716724,8.60242201 9.03095234,9.45336726 8.64494216,11.6993246 C8.25894939,13.9451807 8.01614575,14.4777976 6.9098945,16.3712927 C6.9098945,16.3712927 8.01614575,14.4777976 6.9098945,16.3712927 L6.9098945,16.3712927 L6.9098945,16.3712927 L6.9098945,16.3712927 L6.9098945,16.3712927 Z M4.63747044,9.75479508 C5.58250342,7.97869738 6.18434439,7.42549066 6.79390055,6.28221845 C7.86822527,4.27247146 8.34986672,2.66054376 8.7889984,2.91407656 C9.22813919,3.1676146 9.02163111,3.9984322 7.88218734,5.9720067 C6.74279496,7.94549219 6.33066602,8.36116527 4.63747044,9.75479508 C4.63747044,9.75479508 6.33066602,8.36116527 4.63747044,9.75479508 L4.63747044,9.75479508 L4.63747044,9.75479508 L4.63747044,9.75479508 L4.63747044,9.75479508 Z M15.552765,21.2100078 C14.5265657,19.4795381 14.3667452,18.6778476 13.706826,17.5628872 C12.5482116,15.6005241 11.4214255,14.3512672 11.8662581,14.1078756 C12.3110999,13.864479 12.9135597,14.4727106 14.0074263,16.4719065 C15.1012436,18.4710122 15.2421656,19.0391454 15.552765,21.2100078 C15.552765,21.2100078 15.2421656,19.0391454 15.552765,21.2100078 C15.552765,21.2100078 15.2421656,19.0391454 15.552765,21.2100078 L15.552765,21.2100078 L15.552765,21.2100078 Z M17.1771466,10.2580808 C15.8591557,8.39900673 15.1790775,6.8602465 14.7752257,7.1668721 C14.3713656,7.47350406 14.6804815,8.27184661 16.0585384,10.0868638 C17.4365332,11.9017992 17.8975585,12.2624792 19.7522279,13.4326573 C18.5918221,11.7891644 17.9253281,11.31584 17.1771466,10.2580808 C17.1771466,10.2580808 17.9253281,11.31584 17.1771466,10.2580808 L17.1771466,10.2580808 L17.1771466,10.2580808 Z M16.1046215,4.21900156 C14.3304297,2.7887918 13.2572461,1.49319685 12.9520864,1.89815743 C12.6469204,2.30312641 13.1616383,2.98720891 14.9816388,4.35867766 C16.8015573,5.73008457 17.3433404,5.95168204 19.4464697,6.57294083 C17.8825856,5.30728807 17.112433,5.03321661 16.1046215,4.21900156 C16.1046215,4.21900156 17.112433,5.03321661 16.1046215,4.21900156 L16.1046215,4.21900156 L16.1046215,4.21900156 Z" id="Shape" fill="#E94B35"></path>
                    </g>
                    <g id="leaf" transform="translate(6.000000, 33.000000)">
                        <path d="M8.84870087,7.57572431e-05 C7.20637303,3.14198115 11.7241749,-1.04476814 18.8064373,4.21495624 C20.1188846,5.19212366 22,9.0530663 22,10.8424524 C20.4921007,10.525181 17.8218071,9.05291479 17.8218071,9.05291479 C17.8218071,9.05291479 20.9555255,12.1576991 20.9555255,15.7367238 C19.8482587,15.0521814 19.2943305,15.1548324 18.9264207,14.3138765 C18.9264207,15.4726846 19.911051,16.2109894 19.911051,18.0004765 C19.1118496,17.3697469 18.4352848,16.9492437 17.7590148,16.5800787 C18.8034894,18.3696163 15.8554947,21.8411667 17.330966,23 C14.750881,22.630835 12.1109518,21.0002108 11.0664773,19.2106227 C10.5128439,19.5797877 10.4527048,20.1592044 10.4311844,20.7769795 C10.5125491,20.8437216 6.50386589,17.833558 6.87207043,16.67725 C6.3343562,17.4235598 6.25859273,17.8335833 6.13595616,18.6745645 C4.66313801,17.2379041 3.31354604,15.8013447 2.82241012,13.9440297 C2.1679553,14.7849856 2.12697817,14.7849856 1.47252335,15.6259667 C0.981682233,12.6825453 0.981682233,12.7875954 1.96336447,10.2648792 C1.26793252,10.7204075 0.695137149,11.1759105 0,11.7365646 C0.658582015,7.47395708 4.01752717,2.47549418 8.84870087,0 C8.84870087,0 4.01752717,2.47549418 8.84870087,0 L8.84870087,7.57572431e-05 L8.84870087,7.57572431e-05 L8.84870087,7.57572431e-05 L8.84870087,7.57572431e-05 Z" id="Shape" stroke="#000000" stroke-width="0.1" fill="#3D5DA7"></path>
                        <path d="M6.9098945,16.3712927 C7.18185105,14.3778911 7.55504522,13.6505834 7.73126621,12.367004 C8.04366276,10.109646 7.93768001,8.43064126 8.43741845,8.51653074 C8.93716724,8.60242201 9.03095234,9.45336726 8.64494216,11.6993246 C8.25894939,13.9451807 8.01614575,14.4777976 6.9098945,16.3712927 C6.9098945,16.3712927 8.01614575,14.4777976 6.9098945,16.3712927 L6.9098945,16.3712927 L6.9098945,16.3712927 L6.9098945,16.3712927 L6.9098945,16.3712927 Z M4.63747044,9.75479508 C5.58250342,7.97869738 6.18434439,7.42549066 6.79390055,6.28221845 C7.86822527,4.27247146 8.34986672,2.66054376 8.7889984,2.91407656 C9.22813919,3.1676146 9.02163111,3.9984322 7.88218734,5.9720067 C6.74279496,7.94549219 6.33066602,8.36116527 4.63747044,9.75479508 C4.63747044,9.75479508 6.33066602,8.36116527 4.63747044,9.75479508 L4.63747044,9.75479508 L4.63747044,9.75479508 L4.63747044,9.75479508 L4.63747044,9.75479508 Z M15.552765,21.2100078 C14.5265657,19.4795381 14.3667452,18.6778476 13.706826,17.5628872 C12.5482116,15.6005241 11.4214255,14.3512672 11.8662581,14.1078756 C12.3110999,13.864479 12.9135597,14.4727106 14.0074263,16.4719065 C15.1012436,18.4710122 15.2421656,19.0391454 15.552765,21.2100078 C15.552765,21.2100078 15.2421656,19.0391454 15.552765,21.2100078 C15.552765,21.2100078 15.2421656,19.0391454 15.552765,21.2100078 L15.552765,21.2100078 L15.552765,21.2100078 Z M17.1771466,10.2580808 C15.8591557,8.39900673 15.1790775,6.8602465 14.7752257,7.1668721 C14.3713656,7.47350406 14.6804815,8.27184661 16.0585384,10.0868638 C17.4365332,11.9017992 17.8975585,12.2624792 19.7522279,13.4326573 C18.5918221,11.7891644 17.9253281,11.31584 17.1771466,10.2580808 C17.1771466,10.2580808 17.9253281,11.31584 17.1771466,10.2580808 L17.1771466,10.2580808 L17.1771466,10.2580808 Z M16.1046215,4.21900156 C14.3304297,2.7887918 13.2572461,1.49319685 12.9520864,1.89815743 C12.6469204,2.30312641 13.1616383,2.98720891 14.9816388,4.35867766 C16.8015573,5.73008457 17.3433404,5.95168204 19.4464697,6.57294083 C17.8825856,5.30728807 17.112433,5.03321661 16.1046215,4.21900156 C16.1046215,4.21900156 17.112433,5.03321661 16.1046215,4.21900156 L16.1046215,4.21900156 L16.1046215,4.21900156 Z" id="Shape" fill="#E94B35"></path>
                    </g>
                    <g id="leaf" transform="translate(151.000000, 34.000000)">
                        <path d="M8.84870087,7.57572431e-05 C7.20637303,3.14198115 11.7241749,-1.04476814 18.8064373,4.21495624 C20.1188846,5.19212366 22,9.0530663 22,10.8424524 C20.4921007,10.525181 17.8218071,9.05291479 17.8218071,9.05291479 C17.8218071,9.05291479 20.9555255,12.1576991 20.9555255,15.7367238 C19.8482587,15.0521814 19.2943305,15.1548324 18.9264207,14.3138765 C18.9264207,15.4726846 19.911051,16.2109894 19.911051,18.0004765 C19.1118496,17.3697469 18.4352848,16.9492437 17.7590148,16.5800787 C18.8034894,18.3696163 15.8554947,21.8411667 17.330966,23 C14.750881,22.630835 12.1109518,21.0002108 11.0664773,19.2106227 C10.5128439,19.5797877 10.4527048,20.1592044 10.4311844,20.7769795 C10.5125491,20.8437216 6.50386589,17.833558 6.87207043,16.67725 C6.3343562,17.4235598 6.25859273,17.8335833 6.13595616,18.6745645 C4.66313801,17.2379041 3.31354604,15.8013447 2.82241012,13.9440297 C2.1679553,14.7849856 2.12697817,14.7849856 1.47252335,15.6259667 C0.981682233,12.6825453 0.981682233,12.7875954 1.96336447,10.2648792 C1.26793252,10.7204075 0.695137149,11.1759105 0,11.7365646 C0.658582015,7.47395708 4.01752717,2.47549418 8.84870087,0 C8.84870087,0 4.01752717,2.47549418 8.84870087,0 L8.84870087,7.57572431e-05 L8.84870087,7.57572431e-05 L8.84870087,7.57572431e-05 L8.84870087,7.57572431e-05 Z" id="Shape" stroke="#000000" stroke-width="0.1" fill="#3D5DA7"></path>
                        <path d="M6.9098945,16.3712927 C7.18185105,14.3778911 7.55504522,13.6505834 7.73126621,12.367004 C8.04366276,10.109646 7.93768001,8.43064126 8.43741845,8.51653074 C8.93716724,8.60242201 9.03095234,9.45336726 8.64494216,11.6993246 C8.25894939,13.9451807 8.01614575,14.4777976 6.9098945,16.3712927 C6.9098945,16.3712927 8.01614575,14.4777976 6.9098945,16.3712927 L6.9098945,16.3712927 L6.9098945,16.3712927 L6.9098945,16.3712927 L6.9098945,16.3712927 Z M4.63747044,9.75479508 C5.58250342,7.97869738 6.18434439,7.42549066 6.79390055,6.28221845 C7.86822527,4.27247146 8.34986672,2.66054376 8.7889984,2.91407656 C9.22813919,3.1676146 9.02163111,3.9984322 7.88218734,5.9720067 C6.74279496,7.94549219 6.33066602,8.36116527 4.63747044,9.75479508 C4.63747044,9.75479508 6.33066602,8.36116527 4.63747044,9.75479508 L4.63747044,9.75479508 L4.63747044,9.75479508 L4.63747044,9.75479508 L4.63747044,9.75479508 Z M15.552765,21.2100078 C14.5265657,19.4795381 14.3667452,18.6778476 13.706826,17.5628872 C12.5482116,15.6005241 11.4214255,14.3512672 11.8662581,14.1078756 C12.3110999,13.864479 12.9135597,14.4727106 14.0074263,16.4719065 C15.1012436,18.4710122 15.2421656,19.0391454 15.552765,21.2100078 C15.552765,21.2100078 15.2421656,19.0391454 15.552765,21.2100078 C15.552765,21.2100078 15.2421656,19.0391454 15.552765,21.2100078 L15.552765,21.2100078 L15.552765,21.2100078 Z M17.1771466,10.2580808 C15.8591557,8.39900673 15.1790775,6.8602465 14.7752257,7.1668721 C14.3713656,7.47350406 14.6804815,8.27184661 16.0585384,10.0868638 C17.4365332,11.9017992 17.8975585,12.2624792 19.7522279,13.4326573 C18.5918221,11.7891644 17.9253281,11.31584 17.1771466,10.2580808 C17.1771466,10.2580808 17.9253281,11.31584 17.1771466,10.2580808 L17.1771466,10.2580808 L17.1771466,10.2580808 Z M16.1046215,4.21900156 C14.3304297,2.7887918 13.2572461,1.49319685 12.9520864,1.89815743 C12.6469204,2.30312641 13.1616383,2.98720891 14.9816388,4.35867766 C16.8015573,5.73008457 17.3433404,5.95168204 19.4464697,6.57294083 C17.8825856,5.30728807 17.112433,5.03321661 16.1046215,4.21900156 C16.1046215,4.21900156 17.112433,5.03321661 16.1046215,4.21900156 L16.1046215,4.21900156 L16.1046215,4.21900156 Z" id="Shape" fill="#E94B35"></path>
                    </g>
                </g>
            </g>
        </g>
    </g>
</svg>