<?xml version="1.0" encoding="UTF-8" standalone="no"?>
<svg width="180px" height="180px" viewBox="0 0 180 180" version="1.1" xmlns="http://www.w3.org/2000/svg" xmlns:xlink="http://www.w3.org/1999/xlink">
    <!-- Generator: Sketch 3.8.3 (29802) - http://www.bohemiancoding.com/sketch -->
    <title>taiwan</title>
    <desc>Created with Sketch.</desc>
    <defs></defs>
    <g id="Page-1" stroke="none" stroke-width="1" fill="none" fill-rule="evenodd">
        <g id="flags" transform="translate(-2070.000000, -5580.000000)">
            <g id="taiwan" transform="translate(2070.000000, 5580.000000)">
                <path d="M90,0 C139.70563,0 180,40.2943701 180,90 C180,139.70563 139.70563,180 90,180 C40.2943701,180 0,139.70563 0,90 L90,90 L90,0 L90,0 L90,0 L90,0 L90,0 Z" id="red" fill="#E94B35"></path>
                <path d="M90,0 C40.2943701,0 2.68414424e-14,40.2943701 0,90 L90,90 L90,0 L90,0 L90,0 L90,0 L90,0 Z" id="blue" fill="#227FBB"></path>
                <path d="M57.80464,68.1991099 L54,84 L50.19536,68.1991099 L39,79.9807621 L43.6055301,64.3944699 L28.0192379,69 L39.8008901,57.80464 L24,54 L39.8008901,50.19536 L28.0192379,39 L43.6055301,43.6055301 L39,28.0192379 L50.19536,39.8008901 L54,24 L57.80464,39.8008901 L69,28.0192379 L64.3944699,43.6055301 L79.9807621,39 L68.1991099,50.19536 L84,54 L68.1991099,57.80464 L79.9807621,69 L64.3944699,64.3944699 L69,79.9807621 L57.80464,68.1991099 L57.80464,68.1991099 Z M54.1031188,68.2796396 C62.0082701,68.2796396 68.4166607,61.8712489 68.4166607,53.9660976 C68.4166607,46.0609463 62.0082701,39.6525557 54.1031188,39.6525557 C46.1979675,39.6525557 39.7895769,46.0609463 39.7895769,53.9660976 C39.7895769,61.8712489 46.1979675,68.2796396 54.1031188,68.2796396 L54.1031188,68.2796396 Z M54.1031188,66.3711673 C60.9542499,66.3711673 66.5081885,60.8172288 66.5081885,53.9660976 C66.5081885,47.1149665 60.9542499,41.5610279 54.1031188,41.5610279 C47.2519877,41.5610279 41.6980491,47.1149665 41.6980491,53.9660976 C41.6980491,60.8172288 47.2519877,66.3711673 54.1031188,66.3711673 L54.1031188,66.3711673 Z" id="star" fill="#FFFFFF"></path>
            </g>
        </g>
    </g>
</svg>