<?xml version="1.0" encoding="UTF-8" standalone="no"?>
<svg width="180px" height="180px" viewBox="0 0 180 180" version="1.1" xmlns="http://www.w3.org/2000/svg" xmlns:xlink="http://www.w3.org/1999/xlink">
    <!-- Generator: Sketch 3.8.3 (29802) - http://www.bohemiancoding.com/sketch -->
    <title>tajikistan</title>
    <desc>Created with Sketch.</desc>
    <defs></defs>
    <g id="Page-1" stroke="none" stroke-width="1" fill="none" fill-rule="evenodd">
        <g id="flags" transform="translate(-2340.000000, -5580.000000)">
            <g id="tajikistan" transform="translate(2340.000000, 5580.000000)">
                <path d="M174.878829,120 C162.523738,154.955772 129.186567,180 90,180 C50.8134331,180 17.4762623,154.955772 5.12117078,120 L174.878833,120 L174.878833,120 L174.878829,120 L174.878829,120 L174.878829,120 Z" id="green" fill="#1AAF5D"></path>
                <path d="M174.878829,0 C178.195374,9.3833677 180,19.4809374 180,30.0000004 C180,79.7056304 139.70563,120 90,120 C40.2943701,120 0,79.7056304 0,30.0000004 C0,19.4809374 1.80462645,9.3833677 5.12117078,0 L174.878833,3.99999998e-07 L174.878833,3.99999998e-07 L174.878829,0 L174.878829,0 L174.878829,0 Z" id="white" fill="#FFFFFF" transform="translate(90.000000, 60.000000) scale(1, -1) translate(-90.000000, -60.000000) "></path>
                <path d="M174.878829,59.9999996 C162.523738,25.0442275 129.186567,0 90,0 C50.8134331,0 17.4762623,25.0442275 5.12117078,59.9999996 L174.878833,60 L174.878833,60 L174.878829,59.9999996 L174.878829,59.9999996 L174.878829,59.9999996 Z" id="red" fill="#E94B35"></path>
                <path d="M91.4558683,97.3644714 L91.4558683,91.4950081 C91.4906834,90.4349065 92.2728789,89.5247217 93.3728325,89.2643746 C94.4727861,89.0040274 95.6241459,89.4565605 96.1945252,90.3734191 C97.0156231,88.0594592 96.1432769,85.5147232 94.0363394,84.0777385 C91.9294018,82.6407538 89.070602,82.6407538 86.9636644,84.0777385 C84.8567269,85.5147232 83.9843807,88.0594592 84.8054786,90.3734191 C85.3758579,89.4565605 86.5272177,89.0040274 87.6271713,89.2643746 C88.7271249,89.5247217 89.5093204,90.4349065 89.5441355,91.4950081 L89.5441355,97.3644714 L89.5441355,97.3644714 C88.7372981,98.7017877 87.5345839,99.7620329 86.0771777,100.348321 C83.535296,101.370875 80.6638674,100.772586 78.6800378,98.8070571 C77.8381645,101.039211 76.0702753,102.737713 73.8869021,103.412071 C71.7035288,104.086428 69.3477992,103.661548 67.5000019,102.260128 C68.1830745,109.461224 78.4026612,107.990995 79.1640431,100.989211 C81.8624635,105.992927 87.2797986,105.586708 90.165995,101 L90.8340088,101 C93.7202052,105.586708 99.1375402,105.992927 101.835961,100.989211 C102.597343,107.990995 112.816929,109.461224 113.500002,102.260128 C111.652205,103.661548 109.296475,104.086428 107.113102,103.412071 C104.929728,102.737713 103.161839,101.039211 102.319966,98.8070571 C100.336136,100.772586 97.4647078,101.370875 94.9228261,100.348321 C93.4654199,99.7620329 92.2627057,98.7017877 91.4558683,97.3644714 L91.4558683,97.3644714 L91.4558683,97.3644714 Z M77.5000019,113.097412 L77.5000019,116 L102.500002,116 L102.500002,113.097412 L77.5000019,113.097412 L77.5000019,113.097412 Z M96.5000461,108.343317 C98.1852708,112.52313 101.553663,113.241115 104.500002,109.867045 C104.500002,109.867045 103.315648,108.905556 102.047632,108.640499 C102.285392,107.477898 101.79786,105.869714 101.110705,105 C100.390103,105.565848 99.3844456,106.699933 99.1286789,108.017822 C97.3525356,107.753655 96.5000019,108.34352 96.5000019,108.34352 L96.5000461,108.343317 L96.5000461,108.343317 Z M86.5607795,108.211845 C87.6478861,103.838171 90.8835729,102.658384 94.2708182,105.589566 C94.2708182,105.589566 93.2318041,106.706529 92.0130168,107.14548 C92.4102657,108.263677 92.1512943,109.924061 91.5918678,110.880945 C90.7995277,110.420892 89.645823,109.437804 89.2091307,108.168337 C87.4870377,108.677125 86.5607074,108.211649 86.5607074,108.211649 L86.5607795,108.211845 L86.5607795,108.211845 Z M84.4999577,108.343317 C82.814733,112.52313 79.4463411,113.241115 76.5000019,109.867045 C76.5000019,109.867045 77.6843555,108.905556 78.9523719,108.640499 C78.7146119,107.477898 79.2021438,105.869714 79.8892985,105 C80.6099006,105.565848 81.6155582,106.699933 81.8713249,108.017822 C83.6474682,107.753655 84.5000019,108.34352 84.5000019,108.34352 L84.4999577,108.343317 L84.4999577,108.343317 Z M63.0000014,100.462616 L60.218849,102 L60.7500018,98.7437694 L58.5000019,96.4376941 L61.6094256,95.962616 L63.0000016,93 L64.3905784,95.9626168 L67.5000019,96.4376965 L65.2500011,98.74377 L65.7811539,102 L63.0000014,100.462616 L63.0000014,100.462616 Z M67.0000014,86.4626163 L64.218849,87.9999999 L64.7500018,84.7437694 L62.5000019,82.4376941 L65.6094256,81.962616 L67.0000016,79 L68.3905784,81.9626168 L71.5000019,82.4376965 L69.2500011,84.74377 L69.7811539,88 L67.0000014,86.4626163 L67.0000014,86.4626163 Z M78.0000014,77.4626163 L75.2188491,78.9999999 L75.7500018,75.7437694 L73.5000019,73.4376941 L76.6094256,72.962616 L78.0000016,70 L79.3905784,72.9626168 L82.5000019,73.4376965 L80.2500011,75.74377 L80.7811539,79 L78.0000014,77.4626163 L78.0000014,77.4626163 Z M90.0000014,73.4626163 L87.2188491,74.9999999 L87.7500018,71.7437693 L85.5000019,69.4376941 L88.6094256,68.962616 L90.0000016,66 L91.3905784,68.9626168 L94.5000019,69.4376965 L92.2500011,71.74377 L92.7811539,75 L90.0000014,73.4626163 L90.0000014,73.4626163 Z M103.000001,77.4626163 L100.218849,78.9999999 L100.750002,75.7437694 L98.5000019,73.4376941 L101.609426,72.962616 L103.000002,70 L104.390578,72.9626168 L107.500002,73.4376965 L105.250001,75.74377 L105.781154,79 L103.000001,77.4626163 L103.000001,77.4626163 Z M113.000001,86.4626163 L110.218849,87.9999999 L110.750002,84.7437694 L108.500002,82.4376941 L111.609426,81.962616 L113.000002,79 L114.390578,81.9626168 L117.500002,82.4376965 L115.250001,84.74377 L115.781154,88 L113.000001,86.4626163 L113.000001,86.4626163 Z M117.000001,100.462616 L114.218849,102 L114.750002,98.7437694 L112.500002,96.4376941 L115.609426,95.962616 L117.000002,93 L118.390578,95.9626168 L121.500002,96.4376965 L119.250001,98.74377 L119.781154,102 L117.000001,100.462616 L117.000001,100.462616 Z" id="shape" fill="#F2C500"></path>
            </g>
        </g>
    </g>
</svg>