<?xml version="1.0" encoding="UTF-8" standalone="no"?>
<svg width="180px" height="180px" viewBox="0 0 180 180" version="1.1" xmlns="http://www.w3.org/2000/svg" xmlns:xlink="http://www.w3.org/1999/xlink">
    <!-- Generator: Sketch 3.8.3 (29802) - http://www.bohemiancoding.com/sketch -->
    <title>tanzania</title>
    <desc>Created with Sketch.</desc>
    <defs></defs>
    <g id="Page-1" stroke="none" stroke-width="1" fill="none" fill-rule="evenodd">
        <g id="flags" transform="translate(-2610.000000, -5580.000000)">
            <g id="tanzania" transform="translate(2610.000000, 5580.000000)">
                <path d="M129.090431,8.90956858 C117.268585,3.20027277 104.008025,0 90,0 C40.29437,0 0,40.2943701 0,90 C0,104.008025 3.200273,117.268585 8.909569,129.090431 L129.090431,8.90956858 Z" id="green" fill="#1AAF5D"></path>
                <path d="M171.090431,50.9095686 C176.799727,62.731415 180,75.9919754 180,90 C180,139.70563 139.70563,180 90,180 C75.991975,180 62.731415,176.799727 50.909569,171.090431 L171.090431,50.9095686 Z" id="blue" fill="#227FBB"></path>
                <path d="M50.909569,171.090431 C32.604997,162.250339 17.749661,147.395003 8.909569,129.090431 L129.090431,8.90956858 C147.395003,17.7496611 162.250339,32.6049966 171.090431,50.9095686 L50.909569,171.090431 Z" id="yellow" fill="#F2C500"></path>
                <path d="M138.088986,13.9110142 C149.570549,21.182692 159.293098,30.9814812 166.474624,42.5253755 L42.525376,166.474624 C30.981481,159.293098 21.182692,149.570549 13.911014,138.088986 L138.088986,13.9110142 Z" id="black" fill="#000000"></path>
            </g>
        </g>
    </g>
</svg>