<?xml version="1.0" encoding="UTF-8" standalone="no"?>
<svg width="180px" height="180px" viewBox="0 0 180 180" version="1.1" xmlns="http://www.w3.org/2000/svg" xmlns:xlink="http://www.w3.org/1999/xlink">
    <!-- Generator: Sketch 3.8.3 (29802) - http://www.bohemiancoding.com/sketch -->
    <title>thailand</title>
    <desc>Created with Sketch.</desc>
    <defs></defs>
    <g id="Page-1" stroke="none" stroke-width="1" fill="none" fill-rule="evenodd">
        <g id="flags" transform="translate(-180.000000, -5850.000000)">
            <g id="thailand" transform="translate(180.000000, 5850.000000)">
                <circle id="white" fill="#FFFFFF" cx="90" cy="90" r="90"></circle>
                <path d="M157.083197,150 C140.603581,168.412481 116.654996,180 90,180 C63.3450038,180 39.3964193,168.412481 22.916803,150 L157.083197,150 L157.083197,150 L157.083197,150 L157.083197,150 L157.083197,150 Z M157.083197,30 C140.603581,11.5875189 116.654996,0 90,0 C63.3450038,0 39.3964193,11.5875189 22.916803,30 L157.083197,30 L157.083197,30 L157.083197,30 L157.083197,30 L157.083197,30 Z" id="red" fill="#E94B35"></path>
                <path d="M157.083197,150 C171.334394,134.077306 180,113.050634 180,90 C180,66.9493662 171.334394,45.9226944 157.083197,30 L22.916803,30 C8.66560617,45.9226944 0,66.9493662 0,90 C0,113.050634 8.66560617,134.077306 22.916803,150 L157.083197,150 L157.083197,150 L157.083197,150 L157.083197,150 L157.083197,150 Z" id="white" fill="#FFFFFF" transform="translate(90.000000, 90.000000) scale(1, -1) translate(-90.000000, -90.000000) "></path>
                <path d="M174.878829,120.000001 C178.195374,110.616633 180,100.519063 180,90 C180,79.480937 178.195374,69.3833673 174.878829,59.9999996 L5.12116698,60 C1.80462645,69.3833673 0,79.480937 0,90 C0,100.519063 1.80462645,110.616633 5.12117078,120 L174.878833,120 L174.878833,120 L174.878829,120.000001 L174.878829,120.000001 L174.878829,120.000001 Z" id="blue" fill="#346DA6"></path>
            </g>
        </g>
    </g>
</svg>