<?xml version="1.0" encoding="UTF-8" standalone="no"?>
<svg width="180px" height="180px" viewBox="0 0 180 180" version="1.1" xmlns="http://www.w3.org/2000/svg" xmlns:xlink="http://www.w3.org/1999/xlink">
    <!-- Generator: Sketch 3.8.3 (29802) - http://www.bohemiancoding.com/sketch -->
    <title>tokelau</title>
    <desc>Created with Sketch.</desc>
    <defs></defs>
    <g id="Page-1" stroke="none" stroke-width="1" fill="none" fill-rule="evenodd">
        <g id="flags" transform="translate(-1530.000000, -5850.000000)">
            <g id="tokelau" transform="translate(1530.000000, 5850.000000)">
                <circle id="blue" fill="#227FBB" cx="90" cy="90" r="90"></circle>
                <path d="M64.114572,99.0890297 C84.1100663,82.8042724 127.175437,56.7313437 139.836068,52.494598 C141.159368,52.0517669 137.122098,54.7490416 136.597998,55.6227862 C123.080812,71.6216719 133.869479,101.812074 150.763101,116.988649 C155.842983,120.873865 155.582823,121.077844 165,121.458467 L165,122.337846 L32.3817596,121.229828 C30.6294143,121.215187 48.8577575,111.514506 64.114572,99.0890297 Z M30.0000082,124.597392 C30.0042097,125.356834 31.4427348,126.360724 31.4427348,126.360724 L162.249946,127.803453 L164.654492,126.200423 L161.28813,124.116489 L31.2824317,122.994371 C31.2824317,122.994371 29.9962484,123.913118 30.0000082,124.597392 Z" id="yellow" fill="#F2C500"></path>
                <path d="M17.0098615,72.1103877 L13.0088276,75.0224742 L14.541999,70.3173806 L10.5360527,67.4120555 L15.4846386,67.4162343 L17.0098615,62.7085581 L18.5350843,67.4162343 L23.4836703,67.4120555 L19.4777239,70.3173806 L21.0108953,75.0224742 L17.0098615,72.1103877 Z M37.1991161,104.500301 L32.9155359,107.618034 L34.5569773,102.580675 L30.2681377,99.4701803 L35.5661845,99.4746541 L37.1991161,94.4345297 L38.8320477,99.4746541 L44.1300945,99.4701803 L39.8412549,102.580675 L41.4826963,107.618034 L37.1991161,104.500301 Z M37.1991161,52.4018296 L33.1980822,55.3139161 L34.7312536,50.6088225 L30.7253073,47.7034974 L35.6738932,47.7076762 L37.1991161,43 L38.724339,47.7076762 L43.6729249,47.7034974 L39.6669786,50.6088225 L41.20015,55.3139161 L37.1991161,52.4018296 Z M54.023495,66.9369323 L50.5875538,69.4377255 L51.9041852,65.3971636 L48.4640253,62.9021769 L52.7136895,62.9057655 L54.023495,58.8629858 L55.3333005,62.9057655 L59.5829646,62.9021769 L56.1428048,65.3971636 L57.4594362,69.4377255 L54.023495,66.9369323 Z" id="stars" fill="#FFFFFF"></path>
            </g>
        </g>
    </g>
</svg>