<?xml version="1.0" encoding="UTF-8" standalone="no"?>
<svg width="180px" height="180px" viewBox="0 0 180 180" version="1.1" xmlns="http://www.w3.org/2000/svg" xmlns:xlink="http://www.w3.org/1999/xlink">
    <!-- Generator: Sketch 3.8.3 (29802) - http://www.bohemiancoding.com/sketch -->
    <title>tonga</title>
    <desc>Created with Sketch.</desc>
    <defs></defs>
    <g id="Page-1" stroke="none" stroke-width="1" fill="none" fill-rule="evenodd">
        <g id="flags" transform="translate(-1800.000000, -5850.000000)">
            <g id="tonga" transform="translate(1800.000000, 5850.000000)">
                <path d="M90,0 C139.70563,0 180,40.2943701 180,90 C180,139.70563 139.70563,180 90,180 C40.2943701,180 0,139.70563 0,90 L90,90 L90,0 L90,0 Z" id="red" fill="#E94B35"></path>
                <path d="M90,0 C40.2943701,0 0,40.2943701 0,90 L90,90 L90,0 L90,0 Z" id="white" fill="#FFFFFF"></path>
                <polygon id="cross" fill="#E94B35" points="44 26 61 26 61 43 78 43 78 60 61 60 61 77 44 77 44 60 27 60 27 43 44 43"></polygon>
            </g>
        </g>
    </g>
</svg>