<?xml version="1.0" encoding="UTF-8" standalone="no"?>
<svg width="180px" height="180px" viewBox="0 0 180 180" version="1.1" xmlns="http://www.w3.org/2000/svg" xmlns:xlink="http://www.w3.org/1999/xlink">
    <!-- Generator: Sketch 3.8.3 (29802) - http://www.bohemiancoding.com/sketch -->
    <title>trinidad_and_tobago</title>
    <desc>Created with Sketch.</desc>
    <defs></defs>
    <g id="Page-1" stroke="none" stroke-width="1" fill="none" fill-rule="evenodd">
        <g id="flags" transform="translate(-2340.000000, -5850.000000)">
            <g id="trinidad_and_tobago" transform="translate(2340.000000, 5850.000000)">
                <circle id="white" fill="#FFFFFF" cx="90" cy="90" r="90"></circle>
                <path d="M171.090431,129.090431 L50.9095686,8.90956858 C62.731415,3.20027277 75.9919754,0 90,0 C139.70563,0 180,40.2943701 180,90 C180,104.008025 176.799727,117.268585 171.090431,129.090431 L171.090431,129.090431 Z M129.090431,171.090431 L8.90956858,50.9095686 C3.20027277,62.731415 0,75.9919754 0,90 C0,139.70563 40.2943701,180 90,180 C104.008025,180 117.268585,176.799727 129.090431,171.090431 L129.090431,171.090431 Z" id="red" fill="#E94B35"></path>
                <path d="M166.088986,138.088986 L41.9110142,13.9110142 C30.4294505,21.182692 20.7069022,30.9814812 13.5253755,42.5253755 L137.474624,166.474624 C149.018519,159.293098 158.817308,149.570549 166.088986,138.088986 L166.088986,138.088986 Z" id="black" fill="#000000"></path>
            </g>
        </g>
    </g>
</svg>