<?xml version="1.0" encoding="UTF-8" standalone="no"?>
<svg width="180px" height="180px" viewBox="0 0 180 180" version="1.1" xmlns="http://www.w3.org/2000/svg" xmlns:xlink="http://www.w3.org/1999/xlink">
    <!-- Generator: Sketch 3.8.3 (29802) - http://www.bohemiancoding.com/sketch -->
    <title>tunisia</title>
    <desc>Created with Sketch.</desc>
    <defs></defs>
    <g id="Page-1" stroke="none" stroke-width="1" fill="none" fill-rule="evenodd">
        <g id="flags" transform="translate(-2610.000000, -5850.000000)">
            <g id="tunisia" transform="translate(2610.000000, 5850.000000)">
                <ellipse id="red" fill="#E94B35" cx="89.9972382" cy="90" rx="89.9972382" ry="90"></ellipse>
                <path d="M89.5,134 C114.628957,134 135,114.524388 135,90.5 C135,66.4756122 114.628957,47 89.5,47 C64.3710426,47 44,66.4756122 44,90.5 C44,114.524388 64.3710426,134 89.5,134 L89.5,134 Z M119.509354,112.323749 C112.753534,121.240234 102.0494,127 90,127 C69.5654632,127 53,110.434537 53,90 C53,69.5654632 69.5654632,53 90,53 C102.0494,53 112.753534,58.7597663 119.509354,67.676251 C113.934897,62.3039121 106.353284,59 98,59 C80.8791719,59 67,72.8791719 67,90 C67,107.120828 80.8791719,121 98,121 C106.353284,121 113.934897,117.696088 119.509354,112.323749 C119.509354,112.323749 113.934897,117.696088 119.509354,112.323749 L119.509354,112.323749 Z M107.438423,99.9869579 L99.4387455,112.207463 L94.6232471,98.8866359 L80.5507468,95.6085667 L92.1577141,86.5581663 L91.46011,72.3117055 L103.44911,80.0390798 L117.090473,74.5123578 L112.893106,88.3385311 L122.02153,99.1692861 L107.438423,99.9869579 L107.438423,99.9869579 Z" id="white" fill="#FFFFFF"></path>
            </g>
        </g>
    </g>
</svg>