<?xml version="1.0" encoding="UTF-8" standalone="no"?>
<svg width="180px" height="180px" viewBox="0 0 180 180" version="1.1" xmlns="http://www.w3.org/2000/svg" xmlns:xlink="http://www.w3.org/1999/xlink">
    <!-- Generator: Sketch 3.8.3 (29802) - http://www.bohemiancoding.com/sketch -->
    <title>turkey</title>
    <desc>Created with Sketch.</desc>
    <defs></defs>
    <g id="Page-1" stroke="none" stroke-width="1" fill="none" fill-rule="evenodd">
        <g id="flags" transform="translate(-180.000000, -6120.000000)">
            <g id="turkey" transform="translate(180.000000, 6120.000000)">
                <circle id="red" fill="#E94B35" cx="90" cy="90" r="90"></circle>
                <path d="M134.760255,98.4951911 L127.807374,105.628116 L126.375,95.7706569 L117.442627,91.3622676 L126.375001,86.9538764 L127.807372,77.0964195 L134.760257,84.229344 L144.577887,82.5454948 L139.942627,91.3622695 L144.577882,100.179047 L134.760255,98.4951911 L134.760255,98.4951911 Z M115.360298,111.829016 C107.67957,125.648709 92.9318412,135 76,135 C51.147185,135 31,114.852815 31,90 C31,65.147185 51.147185,45 76,45 C92.9318412,45 107.67957,54.351291 115.360298,68.1709843 C108.946951,60.1430878 99.0740922,55 88,55 C68.6700328,55 53,70.6700328 53,90 C53,109.329967 68.6700328,125 88,125 C99.0740922,125 108.946951,119.856912 115.360298,111.829016 C115.360298,111.829016 108.946951,119.856912 115.360298,111.829016 L115.360298,111.829016 Z" id="white" fill="#FFFFFF"></path>
            </g>
        </g>
    </g>
</svg>