<?xml version="1.0" encoding="UTF-8" standalone="no"?>
<svg width="180px" height="180px" viewBox="0 0 180 180" version="1.1" xmlns="http://www.w3.org/2000/svg" xmlns:xlink="http://www.w3.org/1999/xlink">
    <!-- Generator: Sketch 3.8.3 (29802) - http://www.bohemiancoding.com/sketch -->
    <title>turkmenistan</title>
    <desc>Created with Sketch.</desc>
    <defs></defs>
    <g id="Page-1" stroke="none" stroke-width="1" fill="none" fill-rule="evenodd">
        <g id="flags" transform="translate(-450.000000, -6120.000000)">
            <g id="turkmenistan" transform="translate(450.000000, 6120.000000)">
                <path d="M44.9999749,12.0404109 C32.9583658,19.0061104 22.6804294,28.6816085 15,40.2330711 L15,139.766929 C22.6804294,151.318391 32.9583658,160.99389 44.9999749,167.959589 L45,12.0403964 L44.9999749,12.0404109 L44.9999749,12.0404109 Z" id="red" fill="#E94B35"></path>
                <path d="M44.9999749,12.0404109 C58.2377819,4.38274789 73.6070678,0 90,0 C139.70563,0 180,40.2943701 180,90 C180,139.70563 139.70563,180 90,180 C73.6070678,180 58.2377819,175.617252 44.9999749,167.959589 L45,12.0403964 L44.9999749,12.0404109 L44.9999749,12.0404109 Z M15,40.2330711 C5.52229045,54.4876657 0,71.5989325 0,90 C0,108.401068 5.52229049,125.512334 15.0000001,139.766929 L15,40.2330711 L15,40.2330711 L15,40.2330711 Z" id="green" fill="#1AAF5D"></path>
                <g id="pattern" transform="translate(14.000000, 16.000000)">
                    <path d="M25.0290729,11.4601032 L23.4014143,9.86783877 L20.0029894,13.1264875 L23.4014143,16.3851363 L25.0290729,14.7928719 L23.6712802,14.7928719 L23.8561277,13.6830934 L25.6994098,13.6830934 L29.648338,17.5456071 L29.648338,18.8632039 L28.1474375,18.8632039 L28.1474375,17.3911065 L26.8885123,18.6224658 L28.9687684,20.6574298 L27.9824019,21.6224019 L31.1121151,24.6835323 L31.1121151,26.2529751 L26.3782099,21.6224019 L27.3645764,20.6574298 L25.2843203,18.6224658 L27.0700899,16.8759027 L25.6820983,15.5183175 L23.4081466,17.7427215 L18.625,13.1264875 L23.4081466,8.51005162 L25.6820983,10.7346575 L27.0700899,9.37707233 L25.2843203,7.6305093 L27.3645764,5.59554525 L26.3782099,4.63057322 L31.1121151,0 L31.1121151,1.5694428 L27.9824019,4.63057322 L28.9687684,5.59554525 L26.8885123,7.6305093 L28.1474375,8.86186855 L28.1474375,7.3897712 L29.648338,7.3897712 L29.648338,8.70736801 L25.6994098,12.5698816 L23.8561277,12.5698816 L23.6712802,11.4601032 L25.0290729,11.4601032 L25.0290729,11.4601032 Z M22.4247716,12.3752406 L22.5469133,13.1067451 L22.4247716,13.8382497 L21.6767257,13.1067451 L22.4247716,12.3752406 L22.4247716,12.3752406 Z M28.6326685,12.3058253 L27.7801771,13.2053618 L28.6326685,14.1022728 L29.9279478,14.1022728 L29.9279478,15.6480861 L30.9520147,16.7231271 L30.9520147,9.68497091 L29.9279478,10.7602139 L29.9279478,12.3058253 L28.6326685,12.3058253 L28.6326685,12.3058253 Z" fill="#FAAE29"></path>
                    <path d="M25.0290729,48.4601032 L23.4014143,46.8678388 L20.0029894,50.1264875 L23.4014143,53.3851363 L25.0290729,51.7928719 L23.6712802,51.7928719 L23.8561277,50.6830934 L25.6994098,50.6830934 L29.648338,54.5456071 L29.648338,55.8632039 L28.1474375,55.8632039 L28.1474375,54.3911065 L26.8885123,55.6224658 L28.9687684,57.6574298 L27.9824019,58.6224019 L31.1121151,61.6835323 L31.1121151,63.2529751 L26.3782099,58.6224019 L27.3645764,57.6574298 L25.2843203,55.6224658 L27.0700899,53.8759027 L25.6820983,52.5183175 L23.4081466,54.7427215 L18.625,50.1264875 L23.4081466,45.5100516 L25.6820983,47.7346575 L27.0700899,46.3770723 L25.2843203,44.6305093 L27.3645764,42.5955453 L26.3782099,41.6305732 L31.1121151,37 L31.1121151,38.5694428 L27.9824019,41.6305732 L28.9687684,42.5955453 L26.8885123,44.6305093 L28.1474375,45.8618685 L28.1474375,44.3897712 L29.648338,44.3897712 L29.648338,45.707368 L25.6994098,49.5698816 L23.8561277,49.5698816 L23.6712802,48.4601032 L25.0290729,48.4601032 L25.0290729,48.4601032 Z M22.4247716,49.3752406 L22.5469133,50.1067451 L22.4247716,50.8382497 L21.6767257,50.1067451 L22.4247716,49.3752406 L22.4247716,49.3752406 Z M28.6326685,49.3058253 L27.7801771,50.2053618 L28.6326685,51.1022728 L29.9279478,51.1022728 L29.9279478,52.6480861 L30.9520147,53.7231271 L30.9520147,46.6849709 L29.9279478,47.7602139 L29.9279478,49.3058253 L28.6326685,49.3058253 L28.6326685,49.3058253 Z" fill="#FAAE29"></path>
                    <path d="M25.0290729,92.4601032 L23.4014143,90.8678388 L20.0029894,94.1264875 L23.4014143,97.3851363 L25.0290729,95.7928719 L23.6712802,95.7928719 L23.8561277,94.6830934 L25.6994098,94.6830934 L29.648338,98.5456071 L29.648338,99.8632039 L28.1474375,99.8632039 L28.1474375,98.3911065 L26.8885123,99.6224658 L28.9687684,101.65743 L27.9824019,102.622402 L31.1121151,105.683532 L31.1121151,107.252975 L26.3782099,102.622402 L27.3645764,101.65743 L25.2843203,99.6224658 L27.0700899,97.8759027 L25.6820983,96.5183175 L23.4081466,98.7427215 L18.625,94.1264875 L23.4081466,89.5100516 L25.6820983,91.7346575 L27.0700899,90.3770723 L25.2843203,88.6305093 L27.3645764,86.5955453 L26.3782099,85.6305732 L31.1121151,81 L31.1121151,82.5694428 L27.9824019,85.6305732 L28.9687684,86.5955453 L26.8885123,88.6305093 L28.1474375,89.8618685 L28.1474375,88.3897712 L29.648338,88.3897712 L29.648338,89.707368 L25.6994098,93.5698816 L23.8561277,93.5698816 L23.6712802,92.4601032 L25.0290729,92.4601032 L25.0290729,92.4601032 Z M22.4247716,93.3752406 L21.6767257,94.1067451 L22.4247716,94.8382497 L22.5469133,94.1067451 L22.4247716,93.3752406 L22.4247716,93.3752406 Z M28.6326685,93.3058253 L27.7801771,94.2053618 L28.6326685,95.1022728 L29.9279478,95.1022728 L29.9279478,96.6480861 L30.9520147,97.7231271 L30.9520147,90.6849709 L29.9279478,91.7602139 L29.9279478,93.3058253 L28.6326685,93.3058253 L28.6326685,93.3058253 Z" fill="#FAAE29"></path>
                    <path d="M7.29195693,48.4601032 L5.66429834,46.8678388 L2.26587338,50.1264875 L5.66429834,53.3851363 L7.29195693,51.7928719 L5.93416421,51.7928719 L6.11901175,50.6830934 L7.96229375,50.6830934 L11.911222,54.5456071 L11.911222,55.8632039 L10.4103215,55.8632039 L10.4103215,54.3911065 L9.15139626,55.6224658 L11.2316524,57.6574298 L10.2452859,58.6224019 L13.3749991,61.6835323 L13.3749991,63.2529751 L8.64109394,58.6224019 L9.62746043,57.6574298 L7.54720426,55.6224658 L9.33297386,53.8759027 L7.94498233,52.5183175 L5.67103056,54.7427215 L0.887884,50.1264875 L5.67103056,45.5100516 L7.94498233,47.7346575 L9.33297386,46.3770723 L7.54720426,44.6305093 L9.62746043,42.5955453 L8.64109394,41.6305732 L13.3749991,37 L13.3749991,38.5694428 L10.2452859,41.6305732 L11.2316524,42.5955453 L9.15139626,44.6305093 L10.4103215,45.8618685 L10.4103215,44.3897712 L11.911222,44.3897712 L11.911222,45.707368 L7.96229375,49.5698816 L6.11901175,49.5698816 L5.93416421,48.4601032 L7.29195693,48.4601032 L7.29195693,48.4601032 Z M4.68765557,49.3752406 L4.80979729,50.1067451 L4.68765557,50.8382497 L3.93960969,50.1067451 L4.68765557,49.3752406 L4.68765557,49.3752406 Z M10.8955525,49.3058253 L10.0430611,50.2053618 L10.8955525,51.1022728 L12.1908318,51.1022728 L12.1908318,52.6480861 L13.2148987,53.7231271 L13.2148987,46.6849709 L12.1908318,47.7602139 L12.1908318,49.3058253 L10.8955525,49.3058253 L10.8955525,49.3058253 Z" fill="#FAAE29" transform="translate(7.131442, 50.126488) scale(-1, 1) translate(-7.131442, -50.126488) "></path>
                    <path d="M7.29195693,92.4601032 L5.66429834,90.8678388 L2.26587338,94.1264875 L5.66429834,97.3851363 L7.29195693,95.7928719 L5.93416421,95.7928719 L6.11901175,94.6830934 L7.96229375,94.6830934 L11.911222,98.5456071 L11.911222,99.8632039 L10.4103215,99.8632039 L10.4103215,98.3911065 L9.15139626,99.6224658 L11.2316524,101.65743 L10.2452859,102.622402 L13.3749991,105.683532 L13.3749991,107.252975 L8.64109394,102.622402 L9.62746043,101.65743 L7.54720426,99.6224658 L9.33297386,97.8759027 L7.94498233,96.5183175 L5.67103056,98.7427215 L0.887884,94.1264875 L5.67103056,89.5100516 L7.94498233,91.7346575 L9.33297386,90.3770723 L7.54720426,88.6305093 L9.62746043,86.5955453 L8.64109394,85.6305732 L13.3749991,81 L13.3749991,82.5694428 L10.2452859,85.6305732 L11.2316524,86.5955453 L9.15139626,88.6305093 L10.4103215,89.8618685 L10.4103215,88.3897712 L11.911222,88.3897712 L11.911222,89.707368 L7.96229375,93.5698816 L6.11901175,93.5698816 L5.93416421,92.4601032 L7.29195693,92.4601032 L7.29195693,92.4601032 Z M4.80979729,94.1067451 L4.68765557,94.8382497 L3.93960969,94.1067451 L4.68765557,93.3752406 L4.80979729,94.1067451 L4.80979729,94.1067451 Z M10.8955525,93.3058253 L10.0430611,94.2053618 L10.8955525,95.1022728 L12.1908318,95.1022728 L12.1908318,96.6480861 L13.2148987,97.7231271 L13.2148987,90.6849709 L12.1908318,91.7602139 L12.1908318,93.3058253 L10.8955525,93.3058253 L10.8955525,93.3058253 Z" fill="#FAAE29" transform="translate(7.131442, 94.126487) scale(-1, 1) translate(-7.131442, -94.126487) "></path>
                    <path d="M25.0290729,131.460103 L23.4014143,129.867839 L20.0029894,133.126487 L23.4014143,136.385136 L25.0290729,134.792872 L23.6712802,134.792872 L23.8561277,133.683093 L25.6994098,133.683093 L29.648338,137.545607 L29.648338,138.863204 L28.1474375,138.863204 L28.1474375,137.391107 L26.8885123,138.622466 L28.9687684,140.65743 L27.9824019,141.622402 L31.1121151,144.683532 L31.1121151,146.252975 L26.3782099,141.622402 L27.3645764,140.65743 L25.2843203,138.622466 L27.0700899,136.875903 L25.6820983,135.518317 L23.4081466,137.742721 L18.625,133.126487 L23.4081466,128.510052 L25.6820983,130.734657 L27.0700899,129.377072 L25.2843203,127.630509 L27.3645764,125.595545 L26.3782099,124.630573 L31.1121151,120 L31.1121151,121.569443 L27.9824019,124.630573 L28.9687684,125.595545 L26.8885123,127.630509 L28.1474375,128.861869 L28.1474375,127.389771 L29.648338,127.389771 L29.648338,128.707368 L25.6994098,132.569882 L23.8561277,132.569882 L23.6712802,131.460103 L25.0290729,131.460103 L25.0290729,131.460103 Z M22.4247716,132.375241 L22.5469133,133.106745 L22.4247716,133.83825 L21.6767257,133.106745 L22.4247716,132.375241 L22.4247716,132.375241 Z M28.6326685,132.305825 L27.7801771,133.205362 L28.6326685,134.102273 L29.9279478,134.102273 L29.9279478,135.648086 L30.9520147,136.723127 L30.9520147,129.684971 L29.9279478,130.760214 L29.9279478,132.305825 L28.6326685,132.305825 L28.6326685,132.305825 Z" fill="#FAAE29"></path>
                    <g id="Group" transform="translate(3.000000, 64.000000)">
                        <polygon id="_155856200" fill="#383739" points="2.91550228 7.97848657 2.91550228 7.23367396 1.50631861 8.13055891 0.941126214 7.69308902 0.357552687 7.76090954 0.0773229243 8.15801795 0.579667243 8.54288558 0.0772128576 8.9278635 0.35744262 9.32497191 0.941126214 9.3929027 1.50631861 8.95532253 2.91550228 9.85220749 2.91550228 9.10739488 2.02858499 8.54288558 2.91550228 7.97848657"></polygon>
                        <polygon id="_155856128" fill="#28AE66" points="1.50180587 8.22672068 2.83691468 7.37703439 2.83691468 7.93514761 1.88186611 8.54299586 2.83691468 9.15073384 2.83691468 9.70884705 1.50180587 8.85916076 0.918342411 9.3109667 0.401359224 9.25086559 0.185188269 8.94440509 0.709105656 8.54299586 0.185188269 8.14158664 0.401469291 7.83512613 0.918342411 7.77502502 1.50180587 8.22672068"></polygon>
                        <polygon id="_155856056" fill="#383739" points="2.91550228 5.39094095 2.91550228 4.64612834 1.50631861 5.54301329 0.941126214 5.1055434 0.357552687 5.17336391 0.0773229243 5.5705826 0.579667243 5.95545024 0.0772128576 6.34031788 0.35744262 6.73753657 0.941126214 6.80535708 1.50631861 6.36777691 2.91550228 7.26477214 2.91550228 6.51984926 2.02858499 5.95545024 2.91550228 5.39094095"></polygon>
                        <polygon id="_155855984" fill="#28AE66" points="1.50180587 5.63917506 2.83691468 4.78959905 2.83691468 5.34771226 1.88186611 5.95545024 2.83691468 6.56318822 2.83691468 7.12141171 1.50180587 6.27172542 0.918342411 6.72342108 0.401359224 6.66331997 0.185188269 6.35685947 0.709105656 5.95545024 0.185188269 5.55415129 0.401469291 5.24769079 0.918342411 5.1874794 1.50180587 5.63917506"></polygon>
                        <polygon id="_155855912" fill="#383739" points="2.91550228 11.6949405 2.91550228 12.4397531 1.50631861 11.5428682 0.941126214 11.9804483 0.357552687 11.9125175 0.0773229243 11.5154091 0.579667243 11.1305415 0.0772128576 10.7455636 0.35744262 10.3484552 0.941126214 10.2806346 1.50631861 10.7181045 2.91550228 9.82121958 2.91550228 10.5660322 2.02858499 11.1305415 2.91550228 11.6949405"></polygon>
                        <polygon id="_155855840" fill="#28AE66" points="1.50180587 11.4467064 2.83691468 12.2963927 2.83691468 11.7382795 1.88186611 11.1304312 2.83691468 10.5226932 2.83691468 9.96458002 1.50180587 10.8142663 0.918342411 10.3624604 0.401359224 10.4225615 0.185188269 10.729022 0.709105656 11.1304312 0.185188269 11.5318404 0.401469291 11.8383009 0.918342411 11.898402 1.50180587 11.4467064"></polygon>
                        <polygon id="_155855696" fill="#28AE66" points="24.3394308 8.22672068 23.004322 7.37703439 23.004322 7.93514761 23.9592605 8.54299586 23.004322 9.15073384 23.004322 9.70884705 24.3394308 8.85916076 24.9227842 9.3109667 25.4397674 9.25086559 25.6559384 8.94440509 25.132021 8.54299586 25.6559384 8.14158664 25.4397674 7.83512613 24.9227842 7.77502502 24.3394308 8.22672068"></polygon>
                        <polygon id="_155855552" fill="#28AE66" points="24.3394308 5.63917506 23.004322 4.78959905 23.004322 5.34771226 23.9592605 5.95545024 23.004322 6.56318822 23.004322 7.12141171 24.3394308 6.27172542 24.9227842 6.72342108 25.4397674 6.66331997 25.6559384 6.35685947 25.132021 5.95545024 25.6559384 5.55415129 25.4397674 5.24769079 24.9227842 5.1874794 24.3394308 5.63917506"></polygon>
                        <polygon id="_155855408" fill="#28AE66" points="24.3394308 11.4467064 23.004322 12.2963927 23.004322 11.7382795 23.9592605 11.1304312 23.004322 10.5226932 23.004322 9.96458002 24.3394308 10.8142663 24.9227842 10.3624604 25.4397674 10.4225615 25.6559384 10.729022 25.132021 11.1304312 25.6559384 11.5318404 25.4397674 11.8383009 24.9227842 11.898402 24.3394308 11.4467064"></polygon>
                        <path d="M20.6276522,0.778043176 L20.6276522,1.46396773 L21.3121569,1.46396773 L21.3121569,2.17249912 L20.7019473,2.17249912 L20.7019473,1.6968733 L19.9204738,1.6968733 L19.9204738,0.778043176 L20.6276522,0.778043176 C20.6276522,0.778043176 20.5604015,0.778043176 20.6276522,0.778043176 L20.6276522,0.778043176 L20.6276522,0.778043176 L20.6276522,0.778043176 Z" id="_155855264" fill="#28AE66"></path>
                        <path d="M22.9309076,2.47532048 L22.9309076,3.16113476 L23.6154122,3.16113476 L23.6154122,3.86977643 L23.0050925,3.86977643 L23.0050925,3.39415061 L22.2237291,3.39415061 L22.2237291,2.47532048 L22.9309076,2.47532048 C22.9309076,2.47532048 22.8636568,2.47532048 22.9309076,2.47532048 L22.9309076,2.47532048 L22.9309076,2.47532048 L22.9309076,2.47532048 Z" id="_155855120" fill="#28AE66"></path>
                        <polygon id="_155854976" fill="#28AE66" points="5.21358446 0.778043176 5.21358446 1.46396773 4.52907978 1.46396773 4.52907978 2.17249912 5.13939951 2.17249912 5.13939951 1.6968733 5.92076286 1.6968733 5.92076286 0.778043176 5.21358446 0.778043176"></polygon>
                        <path d="M20.6276522,16.3078383 L20.6276522,15.622024 L21.3121569,15.622024 L21.3121569,14.9134926 L20.7019473,14.9134926 L20.7019473,15.3891184 L19.9204738,15.3891184 L19.9204738,16.3078383 L20.6276522,16.3078383 C20.6276522,16.3078383 20.5604015,16.3078383 20.6276522,16.3078383 L20.6276522,16.3078383 L20.6276522,16.3078383 L20.6276522,16.3078383 Z" id="_155786880" fill="#28AE66"></path>
                        <polygon id="_155786736" fill="#28AE66" points="5.21369452 16.3078383 5.21369452 15.622024 4.52907978 15.622024 4.52907978 14.9134926 5.13939951 14.9134926 5.13939951 15.3891184 5.92087293 15.3891184 5.92087293 16.3078383 5.21369452 16.3078383"></polygon>
                        <path d="M22.9309076,14.610561 L22.9309076,13.9247467 L23.6154122,13.9247467 L23.6154122,13.2162153 L23.0050925,13.2162153 L23.0050925,13.6918411 L22.2237291,13.6918411 L22.2237291,14.610561 L22.9309076,14.610561 C22.9309076,14.610561 22.8636568,14.610561 22.9309076,14.610561 L22.9309076,14.610561 L22.9309076,14.610561 L22.9309076,14.610561 Z" id="_155786592" fill="#28AE66"></path>
                        <polygon id="_155786448" fill="#28AE66" points="2.91043922 2.47532048 2.91043922 3.16113476 2.22593455 3.16113476 2.22593455 3.86977643 2.83625428 3.86977643 2.83625428 3.39415061 3.61761762 3.39415061 3.61761762 2.47532048 2.91043922 2.47532048"></polygon>
                        <polygon id="_155786304" fill="#28AE66" points="2.91054928 14.610561 2.91054928 13.9247467 2.22593455 13.9247467 2.22593455 13.2162153 2.83625428 13.2162153 2.83625428 13.6918411 3.61772769 13.6918411 3.61772769 14.610561 2.91054928 14.610561"></polygon>
                        <path d="M15.2132522,0.20283699 C15.2620118,0.250256212 15.8108042,0.783998148 15.8108042,0.783998148 C15.8108042,0.783998148 16.3594866,0.250256212 16.4082461,0.20283699 C16.4544742,0.245624567 16.8274901,0.591895162 16.8785611,0.639314384 C16.8257291,0.69059331 16.3692825,1.13456956 16.3692825,1.13456956 L16.9473527,1.6968733 L16.1948269,1.6968733 L15.8108042,1.32325395 L15.4266715,1.6968733 L14.6741456,1.6968733 L15.2522158,1.13456956 C15.2522158,1.13456956 14.7957693,0.69059331 14.7429373,0.639314384 C14.7940082,0.591895162 15.1670242,0.245624567 15.2132522,0.20283699 C15.2132522,0.20283699 15.1670242,0.245624567 15.2132522,0.20283699 L15.2132522,0.20283699 L15.2132522,0.20283699 L15.2132522,0.20283699 Z" id="_155786160" fill="#28AE66"></path>
                        <path d="M12.3232315,0.20283699 C12.371991,0.250256212 12.9206734,0.783998148 12.9206734,0.783998148 C12.9206734,0.783998148 13.4693558,0.250256212 13.5182254,0.20283699 C13.5644534,0.245624567 13.9373593,0.591895162 13.9884302,0.639314384 C13.9357083,0.69059331 13.4792618,1.13456956 13.4792618,1.13456956 L14.057332,1.6968733 L13.304696,1.6968733 L12.9206734,1.32325395 L12.5366507,1.6968733 L11.7840148,1.6968733 L12.362085,1.13456956 C12.362085,1.13456956 11.9056385,0.69059331 11.8529165,0.639314384 C11.9039875,0.591895162 12.2770035,0.245624567 12.3232315,0.20283699 C12.3232315,0.20283699 12.2770035,0.245624567 12.3232315,0.20283699 L12.3232315,0.20283699 L12.3232315,0.20283699 L12.3232315,0.20283699 Z" id="_155786016" fill="#28AE66"></path>
                        <path d="M10.6282046,0.20283699 C10.579335,0.250256212 10.0306526,0.783998148 10.0306526,0.783998148 C10.0306526,0.783998148 9.48197023,0.250256212 9.43321069,0.20283699 C9.38698269,0.245624567 9.01396672,0.591895162 8.96289578,0.639314384 C9.01572778,0.69059331 9.4721743,1.13456956 9.4721743,1.13456956 L8.8941041,1.6968733 L9.64662998,1.6968733 L10.0306526,1.32325395 L10.4147853,1.6968733 L11.1673112,1.6968733 L10.589241,1.13456956 C10.589241,1.13456956 11.0456875,0.69059331 11.0985195,0.639314384 C11.0474486,0.591895162 10.6744326,0.245624567 10.6282046,0.20283699 C10.6282046,0.20283699 10.6744326,0.245624567 10.6282046,0.20283699 L10.6282046,0.20283699 L10.6282046,0.20283699 L10.6282046,0.20283699 Z" id="_155785872" fill="#28AE66"></path>
                        <path d="M15.2132522,16.8831547 C15.2620118,16.8356252 15.8108042,16.3018833 15.8108042,16.3018833 C15.8108042,16.3018833 16.3594866,16.8356252 16.4082461,16.8831547 C16.4544742,16.8402569 16.8274901,16.4939863 16.8785611,16.4466773 C16.8257291,16.3952881 16.3692825,15.9514222 16.3692825,15.9514222 L16.9473527,15.3891184 L16.1948269,15.3891184 L15.8108042,15.7626275 L15.4266715,15.3891184 L14.6741456,15.3891184 L15.2522158,15.9514222 C15.2522158,15.9514222 14.7957693,16.3952881 14.7429373,16.4466773 C14.7940082,16.4939863 15.1670242,16.8402569 15.2132522,16.8831547 C15.2132522,16.8831547 15.1670242,16.8402569 15.2132522,16.8831547 L15.2132522,16.8831547 L15.2132522,16.8831547 L15.2132522,16.8831547 Z" id="_155785728" fill="#28AE66"></path>
                        <path d="M12.3232315,16.8831547 C12.371991,16.8356252 12.9206734,16.3018833 12.9206734,16.3018833 C12.9206734,16.3018833 13.4693558,16.8356252 13.5182254,16.8831547 C13.5644534,16.8402569 13.9373593,16.4939863 13.9884302,16.4466773 C13.9357083,16.3952881 13.4792618,15.9514222 13.4792618,15.9514222 L14.057332,15.3891184 L13.304696,15.3891184 L12.9206734,15.7626275 L12.5366507,15.3891184 L11.7840148,15.3891184 L12.362085,15.9514222 C12.362085,15.9514222 11.9056385,16.3952881 11.8529165,16.4466773 C11.9039875,16.4939863 12.2770035,16.8402569 12.3232315,16.8831547 C12.3232315,16.8831547 12.2770035,16.8402569 12.3232315,16.8831547 L12.3232315,16.8831547 L12.3232315,16.8831547 L12.3232315,16.8831547 Z" id="_155785584" fill="#28AE66"></path>
                        <path d="M10.6282046,16.8831547 C10.579335,16.8356252 10.0306526,16.3018833 10.0306526,16.3018833 C10.0306526,16.3018833 9.48197023,16.8356252 9.43321069,16.8831547 C9.38698269,16.8402569 9.01396672,16.4939863 8.96289578,16.4466773 C9.01572778,16.3952881 9.4721743,15.9514222 9.4721743,15.9514222 L8.8941041,15.3891184 L9.64662998,15.3891184 L10.0306526,15.7626275 L10.4147853,15.3891184 L11.1673112,15.3891184 L10.589241,15.9514222 C10.589241,15.9514222 11.0456875,16.3952881 11.0985195,16.4466773 C11.0474486,16.4939863 10.6744326,16.8402569 10.6282046,16.8831547 C10.6282046,16.8831547 10.6744326,16.8402569 10.6282046,16.8831547 L10.6282046,16.8831547 L10.6282046,16.8831547 L10.6282046,16.8831547 Z" id="_155785440" fill="#28AE66"></path>
                        <polygon id="_155785296" stroke="#000000" stroke-width="0.1" fill="#CA3745" points="20.6232496 1.77561127 20.6232496 3.47277829 22.9256244 3.47277829 22.9256244 13.6132134 20.6232496 13.6132134 20.6232496 15.3103805 5.21787706 15.3103805 5.21787706 13.6132134 2.91550228 13.6132134 2.91550228 3.47277829 5.21787706 3.47277829 5.21787706 1.77561127 20.6232496 1.77561127"></polygon>
                        <polygon id="_155785152" stroke="#000000" stroke-width="0.1" fill="#CA3745" points="19.5485585 2.50586728 19.5485585 4.54952546 22.1968729 4.54952546 22.1968729 12.5364663 19.5485585 12.5364663 19.5485585 14.5801244 6.2925681 14.5801244 6.2925681 12.5364663 3.64436383 12.5364663 3.64436383 4.54952546 6.2925681 4.54952546 6.2925681 2.50586728 19.5485585 2.50586728"></polygon>
                        <path d="M17.3929026,2.50586728 C17.4135952,2.52108554 22.1652837,6.03738624 22.1968729,6.06076502 L22.1968729,11.0251164 C22.1652837,11.0486055 17.4135952,14.5647959 17.3929026,14.5801244 L8.44822399,14.5801244 C8.42764152,14.5647959 3.67595296,11.0486055 3.64436383,11.0251164 L3.64436383,6.06076502 C3.67595296,6.03738624 8.42764152,2.52108554 8.44822399,2.50586728 L17.3929026,2.50586728 C17.3929026,2.50586728 17.367147,2.50586728 17.3929026,2.50586728 L17.3929026,2.50586728 L17.3929026,2.50586728 L17.3929026,2.50586728 Z" id="_155785008" stroke="#000000" stroke-width="0.1" fill="#28AE66"></path>
                        <polygon id="_155819672" stroke="#000000" stroke-width="0.1" fill="#CA3745" points="18.3173527 3.60114102 18.3173527 4.46935389 19.7117874 4.46935389 19.7117874 12.6166378 18.3173527 12.6166378 18.3173527 13.4847404 7.52399409 13.4847404 7.52399409 12.6166378 6.12955935 12.6166378 6.12955935 4.46935389 7.52399409 4.46935389 7.52399409 3.60114102 18.3173527 3.60114102"></polygon>
                        <path d="M17.0476235,3.60114102 C17.0693066,3.61933677 19.3436144,5.53352944 19.3712411,5.55668767 L19.3712411,11.5291938 C19.3436144,11.552352 17.0693066,13.4665447 17.0476235,13.4847404 L8.79350316,13.4847404 C8.77193009,13.4665447 6.49762232,11.5524623 6.46999559,11.5291938 L6.46999559,5.55668767 C6.49762232,5.53352944 8.77193009,3.61933677 8.79350316,3.60114102 L17.0476235,3.60114102 C17.0476235,3.60114102 17.0192263,3.60114102 17.0476235,3.60114102 L17.0476235,3.60114102 L17.0476235,3.60114102 L17.0476235,3.60114102 Z" id="_155819528" stroke="#000000" stroke-width="0.1" fill="#28AE66"></path>
                        <path d="M16.896612,4.01677602 C16.9181851,4.03486149 18.9287731,5.72728659 18.9563998,5.75044481 L18.9563998,11.3355469 C18.9287731,11.3587051 16.9181851,13.05102 16.896612,13.0692157 L8.94462471,13.0692157 C8.92305164,13.05102 6.9122435,11.3587051 6.88472683,11.3355469 L6.88472683,5.75044481 C6.9122435,5.72728659 8.92305164,4.03486149 8.94462471,4.01677602 L16.896612,4.01677602 C16.896612,4.01677602 16.8681047,4.01677602 16.896612,4.01677602 L16.896612,4.01677602 L16.896612,4.01677602 L16.896612,4.01677602 Z" id="_155819384" stroke="#000000" stroke-width="0.1" fill="#CA3745"></path>
                        <polygon id="_155819240" fill="#CA3745" points="15.8898321 3.52240306 14.7650607 3.52240306 14.7650607 3.31861068 15.3275014 2.83305991 15.8898321 3.31861068 15.8898321 3.52240306"></polygon>
                        <polygon id="_155819168" fill="#FAAE29" points="14.686363 3.52240306 13.5615917 3.52240306 13.5615917 3.31861068 14.1240324 2.83305991 14.686363 3.31861068 14.686363 3.52240306"></polygon>
                        <polygon id="_155819096" fill="#CA3745" points="13.483004 3.52240306 12.3581226 3.52240306 12.3581226 3.31861068 12.9205633 2.83305991 13.483004 3.31861068 13.483004 3.52240306"></polygon>
                        <polygon id="_155819024" fill="#FAAE29" points="12.279535 3.52240306 11.1547636 3.52240306 11.1547636 3.31861068 11.7170943 2.83305991 12.279535 3.31861068 12.279535 3.52240306"></polygon>
                        <polygon id="_155818952" fill="#CA3745" points="11.076176 3.52240306 9.95129455 3.52240306 9.95129455 3.31861068 10.5137353 2.83305991 11.076176 3.31861068 11.076176 3.52240306"></polygon>
                        <polygon id="_155818808" fill="#FAAE29" points="4.82438868 11.5179455 4.33987517 10.9544287 4.82438868 10.3909119 6.05086168 10.3909119 6.05086168 11.5179455 4.82438868 11.5179455"></polygon>
                        <polygon id="_155818736" fill="#CA3745" points="4.82449875 10.3121739 4.33987517 9.74865714 4.82449875 9.18514034 6.05086168 9.18514034 6.05086168 10.3121739 4.82449875 10.3121739"></polygon>
                        <polygon id="_155818664" fill="#FAAE29" points="4.82449875 9.10640238 4.33987517 8.54299586 4.82449875 7.97947906 6.05086168 7.97947906 6.05086168 9.10640238 4.82449875 9.10640238"></polygon>
                        <polygon id="_155818592" fill="#CA3745" points="4.82449875 7.9007411 4.33987517 7.3372243 4.82449875 6.77370751 6.05086168 6.77370751 6.05086168 7.9007411 4.82449875 7.9007411"></polygon>
                        <polygon id="_155818520" fill="#FAAE29" points="4.82438868 6.69496954 4.33987517 6.13145275 4.82438868 5.56804623 6.05086168 5.56804623 6.05086168 6.69496954 4.82438868 6.69496954"></polygon>
                        <polygon id="_155818376" fill="#CA3745" points="15.8898321 13.5634784 14.7650607 13.5634784 14.7650607 13.767381 15.3275014 14.2528215 15.8898321 13.767381 15.8898321 13.5634784"></polygon>
                        <polygon id="_155818304" fill="#FAAE29" points="14.686363 13.5634784 13.5615917 13.5634784 13.5615917 13.767381 14.1240324 14.2528215 14.686363 13.767381 14.686363 13.5634784"></polygon>
                        <polygon id="_155818232" fill="#CA3745" points="13.483004 13.5634784 12.3581226 13.5634784 12.3581226 13.767381 12.9205633 14.2528215 13.483004 13.767381 13.483004 13.5634784"></polygon>
                        <polygon id="_155818160" fill="#FAAE29" points="12.279535 13.5634784 11.1547636 13.5634784 11.1547636 13.767381 11.7170943 14.2528215 12.279535 13.767381 12.279535 13.5634784"></polygon>
                        <polygon id="_155818088" fill="#CA3745" points="11.076176 13.5634784 9.95129455 13.5634784 9.95129455 13.767381 10.5137353 14.2528215 11.076176 13.767381 11.076176 13.5634784"></polygon>
                        <polygon id="_155817944" fill="#FAAE29" points="21.016848 11.5179455 21.5013615 10.9544287 21.016848 10.3909119 19.790375 10.3909119 19.790375 11.5179455 21.016848 11.5179455"></polygon>
                        <polygon id="_155817872" fill="#CA3745" points="21.016738 10.3121739 21.5013615 9.74865714 21.016738 9.18514034 19.790375 9.18514034 19.790375 10.3121739 21.016738 10.3121739"></polygon>
                        <polygon id="_155817800" fill="#FAAE29" points="21.016738 9.10640238 21.5013615 8.54299586 21.016738 7.97947906 19.790375 7.97947906 19.790375 9.10640238 21.016738 9.10640238"></polygon>
                        <polygon id="_155802624" fill="#CA3745" points="21.016738 7.9007411 21.5013615 7.3372243 21.016738 6.77370751 19.790375 6.77370751 19.790375 7.9007411 21.016738 7.9007411"></polygon>
                        <polygon id="_155802552" fill="#FAAE29" points="21.016848 6.69496954 21.5013615 6.13145275 21.016848 5.56804623 19.790375 5.56804623 19.790375 6.69496954 21.016848 6.69496954"></polygon>
                        <polygon id="_155802480" fill="#FFFFFF" points="10.1312536 13.0692157 10.5821967 12.6343925 11.0330299 13.0692157 10.1312536 13.0692157"></polygon>
                        <polygon id="_155802336" fill="#28AE66" points="9.77089526 11.6173053 10.1291623 11.4621452 10.5821967 11.8250677 10.6067416 11.8054383 11.0351211 11.4621452 11.3934982 11.6173053 11.4594282 12.0366897 11.0082649 12.4343495 11.6636019 13.0692157 11.0330299 13.0692157 10.5821967 12.6343925 10.1312536 13.0692157 9.50068157 13.0692157 10.1561286 12.4343495 9.70485525 12.0366897 9.77089526 11.6173053"></polygon>
                        <polygon id="_155802264" fill="#FFFFFF" points="12.4698403 13.0692157 12.9206734 12.6343925 13.3716166 13.0692157 12.4698403 13.0692157"></polygon>
                        <polygon id="_155802120" fill="#28AE66" points="12.109482 11.6173053 12.467749 11.4621452 12.9206734 11.8250677 12.9452183 11.8054383 13.3737078 11.4621452 13.7319749 11.6173053 13.7980149 12.0366897 13.3468516 12.4343495 14.0021886 13.0692157 13.3716166 13.0692157 12.9206734 12.6343925 12.4698403 13.0692157 11.8391582 13.0692157 12.4946053 12.4343495 12.043442 12.0366897 12.109482 11.6173053"></polygon>
                        <polygon id="_155802048" fill="#FFFFFF" points="15.7102033 13.0692157 15.2593702 12.6343925 14.808427 13.0692157 15.7102033 13.0692157"></polygon>
                        <polygon id="_155801904" fill="#28AE66" points="16.0705616 11.6173053 15.7122945 11.4621452 15.2593702 11.8250677 15.2347152 11.8054383 14.8063357 11.4621452 14.4480687 11.6173053 14.3820287 12.0366897 14.833192 12.4343495 14.177855 13.0692157 14.808427 13.0692157 15.2593702 12.6343925 15.7102033 13.0692157 16.3407753 13.0692157 15.6854383 12.4343495 16.1366016 12.0366897 16.0705616 11.6173053"></polygon>
                        <polygon id="_155801832" fill="#FFFFFF" points="10.1312536 4.01677602 10.5821967 4.45148897 11.0330299 4.01677602 10.1312536 4.01677602"></polygon>
                        <polygon id="_155801688" fill="#28AE66" points="9.77089526 5.46857614 10.1291623 5.62373624 10.5821967 5.26092406 10.6067416 5.28055341 11.0351211 5.62373624 11.3934982 5.46857614 11.4594282 5.049302 11.0082649 4.6516422 11.6636019 4.01677602 11.0330299 4.01677602 10.5821967 4.45148897 10.1312536 4.01677602 9.50068157 4.01677602 10.1561286 4.6516422 9.70485525 5.04919172 9.77089526 5.46857614"></polygon>
                        <polygon id="_155801616" fill="#FFFFFF" points="12.4698403 4.01677602 12.9206734 4.45148897 13.3716166 4.01677602 12.4698403 4.01677602"></polygon>
                        <polygon id="_155801472" fill="#28AE66" points="12.109482 5.46857614 12.467749 5.62373624 12.9206734 5.26092406 12.9452183 5.28055341 13.3737078 5.62373624 13.7319749 5.46857614 13.7980149 5.049302 13.3468516 4.6516422 14.0021886 4.01677602 13.3716166 4.01677602 12.9206734 4.45148897 12.4698403 4.01677602 11.8391582 4.01677602 12.4946053 4.6516422 12.043442 5.04919172 12.109482 5.46857614"></polygon>
                        <polygon id="_155801400" fill="#FFFFFF" points="15.7102033 4.01677602 15.2593702 4.45148897 14.808427 4.01677602 15.7102033 4.01677602"></polygon>
                        <polygon id="_155801256" fill="#28AE66" points="16.0705616 5.46857614 15.7122945 5.62373624 15.2593702 5.26092406 15.2347152 5.28055341 14.8063357 5.62373624 14.4480687 5.46857614 14.3820287 5.049302 14.833192 4.6516422 14.177855 4.01677602 14.808427 4.01677602 15.2593702 4.45148897 15.7102033 4.01677602 16.3407753 4.01677602 15.6854383 4.6516422 16.1366016 5.04919172 16.0705616 5.46857614"></polygon>
                        <polygon id="_155801184" fill="#FFFFFF" points="18.9563998 6.29345004 18.9563998 6.88630059 18.9556293 6.88630059 18.5986831 6.59020615 18.9563998 6.29345004"></polygon>
                        <path d="M18.9563998,6.29345004 L18.5986831,6.59020615 L18.9563998,6.88685198 L18.9563998,7.37879883 L18.4062866,6.9245668 C18.4062866,6.9245668 18.0363524,7.26036105 18.0114774,7.28296789 C17.9797782,7.27899791 17.6233823,7.23411507 17.5881609,7.22970398 C17.5724214,7.20070106 17.461144,6.99514424 17.4390206,6.95401083 C17.4758929,6.91717822 17.8033413,6.59020615 17.8033413,6.59020615 C17.8033413,6.59020615 17.4758929,6.26312379 17.4390206,6.22629119 C17.461144,6.18515777 17.5724214,5.97949068 17.5881609,5.95059804 C17.6233823,5.94618695 17.9797782,5.90119383 18.0114774,5.89722385 C18.0363524,5.91983069 18.4062866,6.25573522 18.4062866,6.25573522 L18.9563998,5.80161346 L18.9563998,6.29345004 L18.9563998,6.29345004 L18.9563998,6.29345004 Z" id="_155801040" fill="#28AE66"></path>
                        <polygon id="_155800968" fill="#FFFFFF" points="18.9563998 8.24635003 18.9563998 8.83920058 18.9556293 8.83920058 18.5986831 8.54310614 18.9563998 8.24635003"></polygon>
                        <path d="M18.4088181,8.1044232 C18.3647914,8.06461311 18.0374531,7.76752617 18.0374531,7.76752617 L17.5383007,7.83038421 L17.3418317,8.19330667 C17.3418317,8.19330667 17.6445151,8.49568692 17.6919538,8.54310614 C17.6445151,8.59041508 17.3418317,8.89268505 17.3418317,8.89268505 L17.5383007,9.25571779 L18.0374531,9.31846555 C18.0374531,9.31846555 18.3647914,9.02148889 18.4088181,8.98156852 L19.0041687,9.47329482 L19.0041687,8.77700421 L18.7220679,8.54310614 L19.0041687,8.30898752 L19.0041687,7.61258662 C18.8056085,7.77667918 18.6073784,7.94055119 18.4088181,8.1044232 C18.4088181,8.1044232 18.6073784,7.94055119 18.4088181,8.1044232 L18.4088181,8.1044232 L18.4088181,8.1044232 L18.4088181,8.1044232 Z" id="_155800896" fill="#383739"></path>
                        <path d="M18.9563998,8.24635003 L18.5986831,8.54310614 L18.9563998,8.83964169 L18.9563998,9.33169882 L18.4062866,8.87746679 C18.4062866,8.87746679 18.0363524,9.21326105 18.0114774,9.23586788 C17.9797782,9.2318979 17.6233823,9.18690478 17.5881609,9.18260397 C17.5724214,9.15360105 17.461144,8.94793396 17.4390206,8.90691082 C17.4758929,8.87007821 17.8033413,8.54310614 17.8033413,8.54310614 C17.8033413,8.54310614 17.4758929,8.21591351 17.4390206,8.1790809 C17.461144,8.13805776 17.5724214,7.93239067 17.5881609,7.90338775 C17.6233823,7.89908694 17.9797782,7.85409382 18.0114774,7.85012384 C18.0363524,7.87273068 18.4062866,8.20852493 18.4062866,8.20852493 L18.9563998,7.75451345 L18.9563998,8.24635003 L18.9563998,8.24635003 L18.9563998,8.24635003 Z" id="_155800824" fill="#28AE66"></path>
                        <polygon id="_155800752" fill="#FFFFFF" points="18.9563998 10.7925417 18.9563998 10.1996911 18.9556293 10.1996911 18.5986831 10.4957856 18.9563998 10.7925417"></polygon>
                        <path d="M18.4088181,10.9343582 C18.3647914,10.9742786 18.0374531,11.2713655 18.0374531,11.2713655 L17.5383007,11.2085075 L17.3418317,10.845585 C17.3418317,10.845585 17.6445151,10.5432048 17.6919538,10.4957856 C17.6445151,10.4483664 17.3418317,10.1460964 17.3418317,10.1460964 L17.5383007,9.78317392 L18.0374531,9.72031589 C18.0374531,9.72031589 18.3647914,10.0174028 18.4088181,10.0572129 L19.0041687,9.56559689 L19.0041687,10.2617772 L18.7220679,10.4957856 L19.0041687,10.7299042 L19.0041687,11.3456924 L18.9558495,11.3862744 C18.773469,11.2356357 18.5911986,11.084997 18.4088181,10.9343582 C18.4088181,10.9343582 18.5911986,11.084997 18.4088181,10.9343582 L18.4088181,10.9343582 L18.4088181,10.9343582 L18.4088181,10.9343582 Z" id="_155800680" fill="#383739"></path>
                        <path d="M18.9563998,10.7925417 L18.5986831,10.4957856 L18.9563998,10.1991397 L18.9563998,9.70719289 L18.4062866,10.1614249 C18.4062866,10.1614249 18.0363524,9.82552039 18.0114774,9.80291355 C17.9797782,9.80688353 17.6233823,9.85187666 17.5881609,9.85617747 C17.5724214,9.88518039 17.461144,10.0908475 17.4390206,10.1318706 C17.4758929,10.1688135 17.8033413,10.4957856 17.8033413,10.4957856 C17.8033413,10.4957856 17.4758929,10.8228679 17.4390206,10.8597005 C17.461144,10.9007237 17.5724214,11.1063908 17.5881609,11.1353937 C17.6233823,11.1398048 17.9797782,11.1846876 18.0114774,11.1886576 C18.0363524,11.1660508 18.4062866,10.8302565 18.4062866,10.8302565 L18.9563998,11.2843783 L18.9563998,10.7925417 L18.9563998,10.7925417 L18.9563998,10.7925417 Z" id="_155768192" fill="#28AE66"></path>
                        <polygon id="_155768120" fill="#FFFFFF" points="6.8851671 6.29345004 6.8851671 6.88630059 6.88593756 6.88630059 7.24277373 6.59020615 6.8851671 6.29345004"></polygon>
                        <path d="M6.8851671,6.29345004 L7.24277373,6.59020615 L6.8851671,6.88685198 L6.8851671,7.37879883 L7.43528035,6.9245668 C7.43528035,6.9245668 7.80521446,7.26036105 7.83008953,7.28296789 C7.86167866,7.27899791 8.21818463,7.23411507 8.25340597,7.22970398 C8.2691455,7.20070106 8.38031285,6.99514424 8.40254632,6.95401083 C8.36567398,6.91717822 8.03822561,6.59020615 8.03822561,6.59020615 C8.03822561,6.59020615 8.36567398,6.26312379 8.40254632,6.22629119 C8.38031285,6.18515777 8.2691455,5.97949068 8.25340597,5.95059804 C8.21818463,5.94618695 7.86167866,5.90119383 7.83008953,5.89722385 C7.80521446,5.91983069 7.43528035,6.25573522 7.43528035,6.25573522 L6.8851671,5.80161346 L6.8851671,6.29345004 L6.8851671,6.29345004 L6.8851671,6.29345004 Z" id="_155767976" fill="#28AE66"></path>
                        <polygon id="_155767904" fill="#FFFFFF" points="6.8851671 8.24635003 6.8851671 8.83920058 6.88593756 8.83920058 7.24277373 8.54310614 6.8851671 8.24635003"></polygon>
                        <path d="M6.8851671,8.24635003 L7.24277373,8.54310614 L6.8851671,8.83964169 L6.8851671,9.33169882 L7.43528035,8.87746679 C7.43528035,8.87746679 7.80521446,9.21326105 7.83008953,9.23586788 C7.86167866,9.2318979 8.21818463,9.18690478 8.25340597,9.18260397 C8.2691455,9.15360105 8.38031285,8.94793396 8.40254632,8.90691082 C8.36567398,8.87007821 8.03822561,8.54310614 8.03822561,8.54310614 C8.03822561,8.54310614 8.36567398,8.21591351 8.40254632,8.1790809 C8.38031285,8.13805776 8.2691455,7.93239067 8.25340597,7.90338775 C8.21818463,7.89908694 7.86167866,7.85409382 7.83008953,7.85012384 C7.80521446,7.87273068 7.43528035,8.20852493 7.43528035,8.20852493 L6.8851671,7.75451345 L6.8851671,8.24635003 L6.8851671,8.24635003 L6.8851671,8.24635003 Z" id="_155767760" fill="#28AE66"></path>
                        <polygon id="_155767688" fill="#FFFFFF" points="6.8851671 10.7925417 6.8851671 10.1996911 6.88593756 10.1996911 7.24277373 10.4957856 6.8851671 10.7925417"></polygon>
                        <path d="M6.8851671,10.7925417 L7.24277373,10.4957856 L6.8851671,10.1991397 L6.8851671,9.70719289 L7.43528035,10.1614249 C7.43528035,10.1614249 7.80521446,9.82552039 7.83008953,9.80291355 C7.86167866,9.80688353 8.21818463,9.85187666 8.25340597,9.85617747 C8.2691455,9.88518039 8.38031285,10.0908475 8.40254632,10.1318706 C8.36567398,10.1688135 8.03822561,10.4957856 8.03822561,10.4957856 C8.03822561,10.4957856 8.36567398,10.8228679 8.40254632,10.8597005 C8.38031285,10.9007237 8.2691455,11.1063908 8.25340597,11.1353937 C8.21818463,11.1398048 7.86167866,11.1846876 7.83008953,11.1886576 C7.80521446,11.1660508 7.43528035,10.8302565 7.43528035,10.8302565 L6.8851671,11.2843783 L6.8851671,10.7925417 L6.8851671,10.7925417 L6.8851671,10.7925417 Z" id="_155767544" fill="#28AE66"></path>
                        <polygon id="_155767400" fill="#FAAE29" points="10.9991293 7.96944383 10.9991293 7.27271211 11.7030057 7.27271211 11.7030057 6.50871125 12.8812695 6.50871125 12.8812695 7.29620116 11.7669545 7.93084679 11.7669545 8.50362688 10.0271305 8.50362688 10.0271305 7.96944383 10.9991293 7.96944383"></polygon>
                        <polygon id="_155767328" fill="#FAAE29" points="14.8421074 9.11643761 14.8421074 9.81327961 14.138231 9.81327961 14.138231 10.5772805 12.9599672 10.5772805 12.9599672 9.78979056 14.0741722 9.15503465 14.0741722 8.58236484 15.8141062 8.58236484 15.8141062 9.11643761 14.8421074 9.11643761"></polygon>
                        <polygon id="_155767256" fill="#FFFFFF" points="14.8421074 7.27271211 14.8421074 7.96944383 15.8141062 7.96944383 15.8141062 8.50362688 14.0741722 8.50362688 14.0741722 7.93084679 12.9599672 7.29620116 12.9599672 6.50871125 14.138231 6.50871125 14.138231 7.27271211 14.8421074 7.27271211"></polygon>
                        <polygon id="_155767184" fill="#FFFFFF" points="11.7030057 9.81327961 10.9991293 9.81327961 10.9991293 9.11643761 10.0271305 9.11643761 10.0271305 8.58236484 11.7669545 8.58236484 11.7669545 9.15503465 12.8812695 9.78979056 12.8812695 10.5772805 11.7030057 10.5772805 11.7030057 9.81327961"></polygon>
                        <polygon id="_155767112" fill="#CA3745" points="11.8456521 8.58236484 11.8456521 9.11323957 12.8812695 9.70322291 12.8812695 8.58236484 11.8456521 8.58236484"></polygon>
                        <polygon id="_155767040" fill="#28AE66" points="12.8812695 7.38276881 11.8456521 7.97264187 11.8456521 8.5035166 12.8812695 8.5035166 12.8812695 7.38276881"></polygon>
                        <polygon id="_155766968" fill="#CA3745" points="13.9955846 8.5035166 13.9955846 7.97264187 12.9599672 7.38276881 12.9599672 8.5035166 13.9955846 8.5035166"></polygon>
                        <polygon id="_155766896" fill="#28AE66" points="12.9599672 9.70322291 13.9955846 9.11323957 13.9955846 8.58236484 12.9599672 8.58236484 12.9599672 9.70322291"></polygon>
                    </g>
                    <g id="Group" transform="translate(3.000000, 23.000000)">
                        <polygon id="_155914328" stroke="#000000" stroke-width="0.1" fill="#CA3745" points="16.469655 16.7911664 16.469655 18 9.53034499 18 9.53034499 16.7911664 6.35360307 16.7911664 6.35360307 15.5822084 3.17686114 15.5822084 3.17686114 14.3732504 0 14.3732504 0 3.62687403 3.17686114 3.62687403 3.17686114 2.41791602 6.35360307 2.41791602 6.35360307 1.20895801 9.53034499 1.20895801 9.53034499 0 16.469655 0 16.469655 1.20895801 19.6463969 1.20895801 19.6463969 2.41791602 22.8232581 2.41791602 22.8232581 3.62687403 26 3.62687403 26 14.3732504 22.8232581 14.3732504 22.8232581 15.5822084 19.6463969 15.5822084 19.6463969 16.7911664 16.469655 16.7911664"></polygon>
                        <polygon id="_155914184" stroke="#000000" stroke-width="0.1" fill="#CA3745" points="15.527825 15.7961652 15.527825 17 10.472175 17 10.472175 15.7961652 7.31482286 15.7961652 7.31482286 14.5920826 4.15747067 14.5920826 4.15747067 13.3882479 1 13.3882479 1 4.61175213 4.15747067 4.61175213 4.15747067 3.40779345 7.31482286 3.40779345 7.31482286 2.20383478 10.472175 2.20383478 10.472175 1 15.527825 1 15.527825 2.20383478 18.6852956 2.20383478 18.6852956 3.40779345 21.8425293 3.40779345 21.8425293 4.61175213 25 4.61175213 25 13.3882479 21.8425293 13.3882479 21.8425293 14.5920826 18.6852956 14.5920826 18.6852956 15.7961652 15.527825 15.7961652"></polygon>
                        <polygon id="_155914040" fill="#28AE66" points="0 9.66856656 0 8.33143344 0.922145739 8.33143344 0.922145739 5.1054147 1.70899596 5.66938919 1.71089485 5 2.46107287 5.53812028 2.48635177 5.51990481 3.21125089 5 3.21314977 5.66938919 4 5.1054147 4 12.8945853 3.21314977 12.3306108 3.21125089 13 2.46107287 12.4618797 1.71089485 13 1.70899596 12.3306108 0.922145739 12.8945853 0.922145739 9.66856656 0 9.66856656"></polygon>
                        <polygon id="_155913968" fill="#FAAE29" points="4.84694586 14.2420753 4 14.8325737 4 4.16742635 4.84694586 4.75805167 4.84879685 4 5.5 4.64190678 6.15120315 4 6.15305414 4.75805167 7 4.16742635 7 14.8325737 6.15305414 14.2420753 6.15120315 15 5.5 14.3582202 4.84879685 15 4.84694586 14.2420753"></polygon>
                        <polygon id="_155913896" fill="#28AE66" points="7.79797941 15.1624718 7 15.801306 7 3.19869397 7.79797941 3.83752815 7.79959897 3 8.49994216 3.66321156 9.20028535 3 9.20202059 3.83752815 10 3.19869397 10 15.801306 9.20202059 15.1624718 9.20028535 16 8.49994216 15.3367884 7.79959897 16 7.79797941 15.1624718"></polygon>
                        <polygon id="_155913824" fill="#FAAE29" points="13.0001406 1.92189181 13 1.92189181 12.9998594 1.92189181 11.3010219 1 11.3010219 2.21292809 10 1.21198645 10 15.7880135 11.3010219 14.7870719 11.3010219 16 12.9998594 15.0781082 13 15.0781082 13.0001406 15.0781082 14.6989781 16 14.6989781 14.7870719 16 15.7880135 16 1.21198645 14.6989781 2.21292809 14.6989781 1 13.0001406 1.92189181"></polygon>
                        <polygon id="_155913752" fill="#28AE66" points="26 9.66856656 26 8.33143344 25.0778269 8.33143344 25.0778269 5.1054147 24.291072 5.66938919 24.2891731 5 23.5389728 5.53812028 23.5135745 5.51990481 22.7886538 5 22.7867549 5.66938919 22 5.1054147 22 12.8945853 22.7867549 12.3306108 22.7886538 13 23.5389728 12.4618797 24.2891731 13 24.291072 12.3306108 25.0778269 12.8945853 25.0778269 9.66856656 26 9.66856656"></polygon>
                        <polygon id="_155913680" fill="#FAAE29" points="21.1530868 14.2420753 22 14.8325737 22 4.16742635 21.1530868 4.75805167 21.1512359 4 20.5000578 4.64190678 19.8487641 4 19.8470289 4.75805167 19 4.16742635 19 14.8325737 19.8470289 14.2420753 19.8487641 15 20.5000578 14.3582202 21.1512359 15 21.1530868 14.2420753"></polygon>
                        <polygon id="_155913608" fill="#28AE66" points="18.2020206 15.1624718 19 15.801306 19 3.19869397 18.2020206 3.83752815 18.2002854 3 17.4999422 3.66321156 16.799599 3 16.7978637 3.83752815 16 3.19869397 16 15.801306 16.7978637 15.1624718 16.799599 16 17.4999422 15.3367884 18.2002854 16 18.2020206 15.1624718"></polygon>
                        <polygon id="_155913464" fill="#CA3745" points="13.7526681 6 14.5 5.11937131 13.9535625 4.5463062 13.9535625 4.93373245 13.489188 5.44109934 13.489188 4.17820296 14.1363931 3.56925227 12.9999459 2.5 11.8634988 3.56925227 12.510812 4.17820296 12.510812 5.44109934 12.0463293 4.93373245 12.0463293 4.5463062 11.5 5.11937131 12.2473319 6 10.4183709 6 7.50192825 8.01124652 3.37080753 8.01124652 3.37080753 8.58481924 2 8.58481924 2 9.41505807 3.37080753 9.41505807 3.37080753 9.98863079 7.50192825 9.98863079 10.4183709 12 12.2473318 12 11.5 12.8806287 12.0463293 13.4538318 12.0463293 13.0664056 12.510812 12.5589007 12.510812 13.821797 11.8634988 14.4307477 12.9999459 15.5 14.1363931 14.4307477 13.489188 13.821797 13.489188 12.5589007 13.9535625 13.0664056 13.9535625 13.4538318 14.5 12.8806287 13.7526682 12 15.5816291 12 18.4980718 9.98863079 22.6291925 9.98863079 22.6291925 9.41505807 24 9.41505807 24 8.58481924 22.6291925 8.58481924 22.6291925 8.01124652 18.4980718 8.01124652 15.5816291 6 13.7526681 6"></polygon>
                        <path d="M12.9999398,3 C13.0425955,3.04251145 13.4245692,3.42462394 13.5,3.5 C13.4245692,3.57537606 13.0425955,3.95748855 12.9999398,4 C12.9574045,3.95748855 12.5753103,3.57537606 12.5,3.5 C12.5753103,3.42462394 12.9574045,3.04251145 12.9999398,3 C12.9999398,3 12.9574045,3.04251145 12.9999398,3 L12.9999398,3 L12.9999398,3 L12.9999398,3 Z" id="_155913320" fill="#28AE66"></path>
                        <path d="M14.1777895,7 L13.3205048,7.54992336 L15.2603181,8.79428509 L16.3587342,8.08966499 L15.9155496,7.80523319 L15.5747369,8.02386687 L15.25404,7.81826144 L15.9155496,7.39391285 L17,8.08966499 L15.5810151,9 L17,9.91033501 L15.9155496,10.6060871 L15.25404,10.1817386 L15.5747369,9.97602365 L15.9155496,10.1946573 L16.3587342,9.91033501 L15.2603181,9.20571491 L13.3206329,10.4500766 L14.1777895,11 L13.5366518,11 L12.9999359,10.6557915 L12.4633482,11 L11.8220824,11 L12.6793671,10.4500766 L10.7395538,9.20571491 L9.64126587,9.91033501 L10.0845785,10.1946573 L10.4252631,9.97602365 L10.7458319,10.1817386 L10.0845785,10.6060871 L9,9.91033501 L10.4189849,9 L9,8.08966499 L10.0845785,7.39391285 L10.7458319,7.81826144 L10.4252631,8.02386687 L10.0845785,7.80523319 L9.64126587,8.08966499 L10.7395538,8.79428509 L12.6793671,7.54992336 L11.8220824,7 L12.4633482,7 L12.9999359,7.34420845 L13.5366518,7 L14.1777895,7 L14.1777895,7 L14.1777895,7 Z M12.9756558,8.01416443 L11.2857143,9.00004399 L12.9998867,10 L14.7142857,9.00004399 L12.9998867,8 L12.9756558,8.01416443 L12.9756558,8.01416443 L12.9756558,8.01416443 Z" id="_155882632" fill="#FAAE29"></path>
                        <polygon id="_155882488" fill="#28AE66" points="9 8.5 9.5 9 9 9.5 8.5 9 9 8.5"></polygon>
                        <polygon id="_155882344" fill="#28AE66" points="12.9999519 8.5 13.5 9 12.9999519 9.5 12.5 9 12.9999519 8.5"></polygon>
                        <polygon id="_155882200" fill="#28AE66" points="17.0000481 8.5 16.5 9 17.0000481 9.5 17.5 9 17.0000481 8.5"></polygon>
                        <path d="M2.5,7 C2.54629237,7.08027254 2.69830508,7.34419248 2.69830508,7.34419248 C2.69830508,7.34419248 2.9125,7.11657617 3,7.02384755 C2.98951271,7.42286809 2.90233051,7.73810284 2.75074153,7.89151496 C2.67966102,7.96348345 2.59533898,8 2.5,8 C2.40455508,8 2.32023305,7.96348345 2.24925847,7.89162142 C2.09766949,7.73810284 2.01048729,7.42286809 2,7.02384755 C2.08739407,7.11668264 2.30158898,7.34419248 2.30158898,7.34419248 C2.36769068,7.22942617 2.43389831,7.11465985 2.5,7 C2.5,7 2.43389831,7.11465985 2.5,7 L2.5,7 L2.5,7 L2.5,7 Z" id="_155882056" fill="#FFFFFF"></path>
                        <polygon id="_155881912" fill="#CA3745" points="5.36914859 5.65476598 4.9297831 5.36983421 5.49993525 5 6.0702169 5.36983421 5.63085141 5.65476598 5.63085141 6.59104025 6.09184202 6.24282291 6.09184202 5.95886927 6.5 6.24458356 5.49993525 7 4.5 6.24458356 4.90815798 5.95886927 4.90815798 6.24282291 5.36914859 6.59104025 5.36914859 5.65476598"></polygon>
                        <polygon id="_155881768" fill="#FFFFFF" points="8.36914859 4.65476598 7.9297831 4.36983421 8.50006475 4 9.0702169 4.36983421 8.63085141 4.65476598 8.63085141 5.59104025 9.09184202 5.24292072 9.09184202 4.95886927 9.5 5.24468137 8.50006475 6 7.5 5.24468137 7.90815798 4.95886927 7.90815798 5.24292072 8.36914859 5.59104025 8.36914859 4.65476598"></polygon>
                        <polygon id="_155881624" fill="#CA3745" points="5.36914859 12.3451682 4.9297831 12.6300861 5.49993525 13 6.0702169 12.6300861 5.63085141 12.3451682 5.63085141 11.4089397 6.09184202 11.7571401 6.09184202 12.0410798 6.5 11.7553795 5.49993525 11 4.5 11.7553795 4.90815798 12.0410798 4.90815798 11.7571401 5.36914859 11.4089397 5.36914859 12.3451682"></polygon>
                        <polygon id="_155881480" fill="#CA3745" points="20.6308514 5.65476598 21.0702169 5.36983421 20.4999353 5 19.9297831 5.36983421 20.3691486 5.65476598 20.3691486 6.59104025 19.908158 6.24282291 19.908158 5.95886927 19.5 6.24458356 20.4999353 7 21.5 6.24458356 21.091842 5.95886927 21.091842 6.24282291 20.6308514 6.59104025 20.6308514 5.65476598"></polygon>
                        <polygon id="_155881336" fill="#CA3745" points="20.6308514 12.3451682 21.0702169 12.6300861 20.4999353 13 19.9297831 12.6300861 20.3691486 12.3451682 20.3691486 11.4089397 19.908158 11.7571401 19.908158 12.0410798 19.5 11.7553795 20.4999353 11 21.5 11.7553795 21.091842 12.0410798 21.091842 11.7571401 20.6308514 11.4089397 20.6308514 12.3451682"></polygon>
                        <polygon id="_155881192" fill="#FFFFFF" points="8.36914859 13.345234 7.9297831 13.6301658 8.50006475 14 9.0702169 13.6301658 8.63085141 13.345234 8.63085141 12.4089597 9.09184202 12.7570793 9.09184202 13.0411307 9.5 12.7553186 8.50006475 12 7.5 12.7553186 7.90815798 13.0411307 7.90815798 12.7570793 8.36914859 12.4089597 8.36914859 13.345234"></polygon>
                        <polygon id="_155881048" fill="#FFFFFF" points="17.6308514 4.65476598 18.0702169 4.36983421 17.5000647 4 16.9297831 4.36983421 17.3691486 4.65476598 17.3691486 5.59104025 16.908158 5.24292072 16.908158 4.95886927 16.5 5.24468137 17.5000647 6 18.5 5.24468137 18.091842 4.95886927 18.091842 5.24292072 17.6308514 5.59104025 17.6308514 4.65476598"></polygon>
                        <polygon id="_155880904" fill="#FFFFFF" points="17.6308514 13.345234 18.0702169 13.6301658 17.5000647 14 16.9297831 13.6301658 17.3691486 13.345234 17.3691486 12.4089597 16.908158 12.7570793 16.908158 13.0411307 16.5 12.7553186 17.5000647 12 18.5 12.7553186 18.091842 13.0411307 18.091842 12.7570793 17.6308514 12.4089597 17.6308514 13.345234"></polygon>
                        <path d="M2.23725948,10.1050295 C2.31123081,10.0353514 2.39964895,10 2.50004514,10 C2.6003499,10 2.68876804,10.0353514 2.7628308,10.1050295 C2.99425408,10.3227735 3.0020261,10.7165058 2.99974021,11 C2.99974021,11 2.7321999,10.7359747 2.68392195,10.6883272 C2.65027369,10.7426351 2.50004514,10.984886 2.50004514,10.984886 C2.50004514,10.984886 2.34981659,10.7426351 2.31607689,10.6883272 C2.26779894,10.7359747 2.00025863,11 2.00025863,11 C1.99797274,10.7165912 2.00583619,10.3226881 2.23725948,10.1050295 C2.23725948,10.1050295 2.00583619,10.3226881 2.23725948,10.1050295 L2.23725948,10.1050295 L2.23725948,10.1050295 L2.23725948,10.1050295 Z" id="_155856944" fill="#383739"></path>
                        <path d="M2.5,11 C2.54629237,10.919621 2.69830508,10.6558075 2.69830508,10.6558075 C2.69830508,10.6558075 2.9125,10.8833174 3,10.976046 C2.98951271,10.5770254 2.90233051,10.2617907 2.75074153,10.1083786 C2.67966102,10.0364101 2.59533898,10 2.5,10 C2.40455508,10 2.32023305,10.0364101 2.24925847,10.1083786 C2.09766949,10.2617907 2.01048729,10.5770254 2,10.976046 C2.08739407,10.8832109 2.30158898,10.6558075 2.30158898,10.6558075 C2.36769068,10.7704674 2.43389831,10.8852337 2.5,11 C2.5,11 2.43389831,10.8852337 2.5,11 L2.5,11 L2.5,11 L2.5,11 Z" id="_155856872" fill="#FFFFFF"></path>
                        <path d="M23.5,7 C23.4537076,7.08027254 23.301589,7.34419248 23.301589,7.34419248 C23.301589,7.34419248 23.0873941,7.11657617 23,7.02384755 C23.0104873,7.42286809 23.0976695,7.73810284 23.2492585,7.89151496 C23.3202331,7.96348345 23.404661,8 23.5,8 C23.595339,8 23.6797669,7.96348345 23.7507415,7.89162142 C23.9022246,7.73810284 23.9895127,7.42286809 24,7.02384755 C23.9126059,7.11668264 23.698411,7.34419248 23.698411,7.34419248 C23.6322034,7.22942617 23.5661017,7.11465985 23.5,7 C23.5,7 23.5661017,7.11465985 23.5,7 L23.5,7 L23.5,7 L23.5,7 Z" id="_155856728" fill="#FFFFFF"></path>
                        <path d="M23.5,11 C23.4537076,10.919621 23.301589,10.6558075 23.301589,10.6558075 C23.301589,10.6558075 23.0873941,10.8833174 23,10.976046 C23.0104873,10.5770254 23.0976695,10.2617907 23.2492585,10.1083786 C23.3202331,10.0364101 23.404661,10 23.5,10 C23.595339,10 23.6797669,10.0364101 23.7507415,10.1083786 C23.9022246,10.2617907 23.9895127,10.5770254 24,10.976046 C23.9126059,10.8832109 23.698411,10.6558075 23.698411,10.6558075 C23.6322034,10.7704674 23.5661017,10.8852337 23.5,11 C23.5,11 23.5661017,10.8852337 23.5,11 L23.5,11 L23.5,11 L23.5,11 Z" id="_155856584" fill="#FFFFFF"></path>
                        <path d="M12.9999398,15 C13.0425955,14.9574886 13.4245692,14.5753761 13.5,14.5 C13.4245692,14.4246239 13.0425955,14.042675 12.9999398,14 C12.9574045,14.042675 12.5753103,14.4246239 12.5,14.5 C12.5753103,14.5753761 12.9574045,14.9574886 12.9999398,15 C12.9999398,15 12.9574045,14.9574886 12.9999398,15 L12.9999398,15 L12.9999398,15 L12.9999398,15 Z" id="_155856296" fill="#28AE66"></path>
                    </g>
                    <g id="Group" transform="translate(3.000000, 106.000000)">
                        <polygon id="_155766728" stroke="#000000" stroke-width="0.1" fill="#CA3745" points="23.8176934 5.90419686 25.7902603 5.90419686 25.7902603 11.0571933 23.8176934 11.0571933 23.8176934 12.9197297 21.8715863 12.9197297 21.8715863 14.9732308 14.848951 14.9732308 13.4802546 15.8001835 14.2025146 16.2364788 16.7802071 16.2364788 17.1303558 15.8395121 14.857004 15.8395121 15.3529434 15.3373886 18.4174763 15.3373886 17.0791094 16.7386023 14.0639403 16.7386023 12.9954012 16.093045 11.926862 16.7386023 8.9119021 16.7386023 7.57343057 15.3373886 10.6380681 15.3373886 11.1339029 15.8395121 8.86044656 15.8395121 9.21069982 16.2364788 11.7883923 16.2364788 12.5106523 15.8001835 11.1418513 14.9732308 4.11932061 14.9732308 4.11932061 12.9197297 2.17310896 12.9197297 2.17310896 11.0571933 0.200646614 11.0571933 0.200646614 5.90419686 2.17310896 5.90419686 2.17310896 4.04166045 4.11932061 4.04166045 4.11932061 1.98815936 11.1418513 1.98815936 12.5106523 1.16131181 11.7883923 0.724911281 9.21069982 0.724911281 8.86044656 1.12198318 11.1339029 1.12198318 10.6380681 1.62400152 7.57343057 1.62400152 8.9119021 0.22289294 11.926862 0.22289294 12.9954012 0.86845025 14.0639403 0.22289294 17.0791094 0.22289294 18.4174763 1.62400152 15.3529434 1.62400152 14.857004 1.12198318 17.1303558 1.12198318 16.7802071 0.724911281 14.2025146 0.724911281 13.4802546 1.16131181 14.848951 1.98815936 21.8715863 1.98815936 21.8715863 4.04166045 23.8176934 4.04166045 23.8176934 5.90419686"></polygon>
                        <polygon id="yellow" stroke="#000000" stroke-width="0.1" fill="#FAAE29" points="21.0629395 12.1067628 21.0629395 14.1601587 15.0800826 14.1601587 12.9954012 15.4196212 10.9108243 14.1601587 4.92786284 14.1601587 4.92786284 12.1067628 2.98165118 12.1067628 2.98165118 10.2441212 1.00918884 10.2441212 1.00918884 6.71726888 2.98165118 6.71726888 2.98165118 4.85462731 4.92786284 4.85462731 4.92786284 2.80123138 10.9004704 2.80123138 10.9108243 2.80123138 12.9954012 1.5418741 15.0800826 2.80123138 21.0629395 2.80123138 21.0629395 4.85462731 23.0091511 4.85462731 23.0091511 6.71726888 24.9816135 6.71726888 24.9816135 10.2441212 23.0091511 10.2441212 23.0091511 12.1067628 21.0629395 12.1067628"></polygon>
                        <polygon id="green" stroke="#000000" stroke-width="0.1" fill="#28AE66" points="20.5506849 11.591705 20.5506849 13.6452061 14.9379524 13.6452061 12.9954012 14.8187555 11.05285 13.6452061 5.44022196 13.6452061 5.44022196 11.591705 3.49390572 11.591705 3.49390572 9.72906346 1.52144338 9.72906346 1.52144338 7.23232666 3.49390572 7.23232666 3.49390572 5.36968509 5.44022196 5.36968509 5.44022196 3.31628916 11.0424961 3.31628916 11.05285 3.31628916 12.9954012 2.14273979 14.9379524 3.31628916 20.5506849 3.31628916 20.5506849 5.36968509 22.4968966 5.36968509 22.4968966 7.23232666 24.4693589 7.23232666 24.4693589 9.72906346 22.4968966 9.72906346 22.4968966 11.591705 20.5506849 11.591705"></polygon>
                        <polygon id="_155766296" fill="#CA3745" points="6.24970544 10.9421518 9.01240774 12.7846033 6.24970544 12.7846033 6.24970544 10.9421518"></polygon>
                        <path d="M12.9954012,8.75646865 L14.5062278,9.7063496 L11.4846791,9.7063496 L12.9954012,8.75646865 L12.9954012,8.75646865 L12.9954012,8.75646865 Z M14.5061232,12.8261402 L12.9954012,13.7760211 L11.4847837,12.8261402 L14.5061232,12.8261402 L14.5061232,12.8261402 L14.5061232,12.8261402 Z" id="_155749296" fill="#FAAE29"></path>
                        <polygon id="_155749224" fill="#CA3745" points="14.9168263 11.8112723 14.9168263 12.7510582 13.0327378 12.7510582 13.0327378 11.8112723 14.9168263 11.8112723"></polygon>
                        <polygon id="_155749152" fill="#CA3745" points="12.9581691 11.8112723 12.9581691 12.7510582 11.0740806 12.7510582 11.0740806 11.8112723 12.9581691 11.8112723"></polygon>
                        <polygon id="_155749080" fill="#CA3745" points="15.8961549 10.7962994 15.8961549 11.7361904 14.0120664 11.7361904 14.0120664 10.7962994 15.8961549 10.7962994"></polygon>
                        <polygon id="_155749008" fill="#CA3745" points="13.9374977 10.7962994 13.9374977 11.7361904 12.0534092 11.7361904 12.0534092 10.7962994 13.9374977 10.7962994"></polygon>
                        <polygon id="_155748936" fill="#CA3745" points="11.9787359 10.7962994 11.9787359 11.7361904 10.094752 11.7361904 10.094752 10.7962994 11.9787359 10.7962994"></polygon>
                        <polygon id="_155748864" fill="#CA3745" points="14.9168263 9.78143152 14.9168263 10.7213226 13.0327378 10.7213226 13.0327378 9.78143152 14.9168263 9.78143152"></polygon>
                        <polygon id="_155748792" fill="#CA3745" points="12.9581691 9.78143152 12.9581691 10.7213226 11.0740806 10.7213226 11.0740806 9.78143152 12.9581691 9.78143152"></polygon>
                        <path d="M8.11413207,5.9709714 L9.62506333,6.9207472 L6.60340999,6.9207472 L8.11413207,5.9709714 L8.11413207,5.9709714 L8.11413207,5.9709714 Z M9.62485416,10.0406429 L8.11413207,10.9904187 L6.60351457,10.0406429 L9.62485416,10.0406429 L9.62485416,10.0406429 L9.62485416,10.0406429 Z" id="_155748648" fill="#CA3745"></path>
                        <polygon id="_155748576" fill="#FAAE29" points="10.0355572 9.02566994 10.0355572 9.965561 8.15146871 9.965561 8.15146871 9.02566994 10.0355572 9.02566994"></polygon>
                        <polygon id="_155748504" fill="#FAAE29" points="8.07690002 9.02566994 8.07690002 9.965561 6.19281152 9.965561 6.19281152 9.02566994 8.07690002 9.02566994"></polygon>
                        <polygon id="_155748432" fill="#FAAE29" points="11.217675 8.01080211 11.217675 8.95069317 9.33358652 8.95069317 9.33358652 8.01080211 11.217675 8.01080211"></polygon>
                        <polygon id="_155748360" fill="#CA3745" points="9.25901783 8.01080211 9.25901783 8.95069317 7.37492932 8.95069317 7.37492932 8.01080211 9.25901783 8.01080211"></polygon>
                        <polygon id="_155748288" fill="#FAAE29" points="7.30036063 8.01080211 7.30036063 8.95069317 5.41627212 8.95069317 5.41627212 8.01080211 7.30036063 8.01080211"></polygon>
                        <polygon id="_155748216" fill="#FAAE29" points="10.0355572 6.99593428 10.0355572 7.93572019 8.15146871 7.93572019 8.15146871 6.99593428 10.0355572 6.99593428"></polygon>
                        <polygon id="_155748144" fill="#FAAE29" points="8.07690002 6.99593428 8.07690002 7.93572019 6.19281152 7.93572019 6.19281152 6.99593428 8.07690002 6.99593428"></polygon>
                        <path d="M17.8767748,5.9709714 L16.3658436,6.9207472 L19.3874969,6.9207472 L17.8767748,5.9709714 L17.8767748,5.9709714 L17.8767748,5.9709714 Z M16.3660527,10.0406429 L17.8767748,10.9904187 L19.3872878,10.0406429 L16.3660527,10.0406429 L16.3660527,10.0406429 L16.3660527,10.0406429 Z" id="_155748000" fill="#CA3745"></path>
                        <polygon id="_155747928" fill="#FAAE29" points="15.9553497 9.02566994 15.9553497 9.965561 17.8393336 9.965561 17.8393336 9.02566994 15.9553497 9.02566994"></polygon>
                        <polygon id="_155747856" fill="#FAAE29" points="17.9139023 9.02566994 17.9139023 9.965561 19.7979908 9.965561 19.7979908 9.02566994 17.9139023 9.02566994"></polygon>
                        <polygon id="_155747784" fill="#FAAE29" points="14.7731273 8.01080211 14.7731273 8.95069317 16.6572158 8.95069317 16.6572158 8.01080211 14.7731273 8.01080211"></polygon>
                        <polygon id="_155747712" fill="#CA3745" points="16.7318891 8.01080211 16.7318891 8.95069317 18.615873 8.95069317 18.615873 8.01080211 16.7318891 8.01080211"></polygon>
                        <polygon id="_155747640" fill="#FAAE29" points="18.6905463 8.01080211 18.6905463 8.95069317 20.5745302 8.95069317 20.5745302 8.01080211 18.6905463 8.01080211"></polygon>
                        <polygon id="_155747568" fill="#FAAE29" points="15.9553497 6.99593428 15.9553497 7.93572019 17.8393336 7.93572019 17.8393336 6.99593428 15.9553497 6.99593428"></polygon>
                        <polygon id="_155747496" fill="#FAAE29" points="17.9139023 6.99593428 17.9139023 7.93572019 19.7979908 7.93572019 19.7979908 6.99593428 17.9139023 6.99593428"></polygon>
                        <path d="M12.9954012,8.20492148 L14.5062278,7.25504052 L11.4846791,7.25504052 L12.9954012,8.20492148 L12.9954012,8.20492148 L12.9954012,8.20492148 Z M14.5061232,4.13524996 L12.9954012,3.185369 L11.4847837,4.13524996 L14.5061232,4.13524996 L14.5061232,4.13524996 L14.5061232,4.13524996 Z" id="_155734872" fill="#FAAE29"></path>
                        <polygon id="_155734800" fill="#CA3745" points="14.9168263 5.15011778 14.9168263 4.21033188 13.0327378 4.21033188 13.0327378 5.15011778 14.9168263 5.15011778"></polygon>
                        <polygon id="_155734728" fill="#CA3745" points="12.9581691 5.15011778 12.9581691 4.21033188 11.0740806 4.21033188 11.0740806 5.15011778 12.9581691 5.15011778"></polygon>
                        <polygon id="_155734656" fill="#CA3745" points="15.8961549 6.16509077 15.8961549 5.22519971 14.0120664 5.22519971 14.0120664 6.16509077 15.8961549 6.16509077"></polygon>
                        <polygon id="_155734584" fill="#CA3745" points="13.9374977 6.16509077 13.9374977 5.22519971 12.0534092 5.22519971 12.0534092 6.16509077 13.9374977 6.16509077"></polygon>
                        <polygon id="_155734512" fill="#CA3745" points="11.9787359 6.16509077 11.9787359 5.22519971 10.094752 5.22519971 10.094752 6.16509077 11.9787359 6.16509077"></polygon>
                        <polygon id="_155734440" fill="#CA3745" points="14.9168263 7.1799586 14.9168263 6.24006754 13.0327378 6.24006754 13.0327378 7.1799586 14.9168263 7.1799586"></polygon>
                        <polygon id="_155734368" fill="#CA3745" points="12.9581691 7.1799586 12.9581691 6.24006754 11.0740806 6.24006754 11.0740806 7.1799586 12.9581691 7.1799586"></polygon>
                        <path d="M6.24970544,6.01923835 C6.35711365,5.94752145 8.82415577,4.30223888 9.01240774,4.17678687 L6.24970544,4.17678687 L6.24970544,6.01923835 C6.24970544,6.01923835 6.24970544,5.89168321 6.24970544,6.01923835 L6.24970544,6.01923835 L6.24970544,6.01923835 L6.24970544,6.01923835 Z" id="_155734224" fill="#CA3745"></path>
                        <path d="M19.7412015,10.9421518 C19.6336887,11.0138687 17.1666466,12.6590461 16.9784992,12.7846033 L19.7412015,12.7846033 L19.7412015,10.9421518 C19.7412015,10.9421518 19.7412015,11.0696018 19.7412015,10.9421518 L19.7412015,10.9421518 L19.7412015,10.9421518 L19.7412015,10.9421518 Z" id="_155734080" fill="#CA3745"></path>
                        <path d="M19.7412015,6.0191332 C19.6336887,5.94752145 17.1666466,4.30223888 16.9784992,4.17668172 L19.7412015,4.17668172 L19.7412015,6.0191332 C19.7412015,6.0191332 19.7412015,5.89168321 19.7412015,6.0191332 L19.7412015,6.0191332 L19.7412015,6.0191332 L19.7412015,6.0191332 Z" id="_155733936" fill="#CA3745"></path>
                        <polygon id="_155733792" fill="#FFFFFF" points="6.70182393 8.29977287 6.0149134 8.29977287 6.0149134 8.66172241 6.70182393 8.66172241 6.70182393 8.29977287"></polygon>
                        <polygon id="_155733648" fill="#FFFFFF" points="7.47836333 7.28479988 6.79145279 7.28479988 6.79145279 7.64674943 7.47836333 7.64674943 7.47836333 7.28479988"></polygon>
                        <polygon id="_155733504" fill="#FFFFFF" points="9.43702052 7.28479988 8.75010999 7.28479988 8.75010999 7.64674943 9.43702052 7.64674943 9.43702052 7.28479988"></polygon>
                        <polygon id="_155733360" fill="#FFFFFF" points="8.66048113 8.29977287 7.9735706 8.29977287 7.9735706 8.66172241 8.66048113 8.66172241 8.66048113 8.29977287"></polygon>
                        <polygon id="_155733216" fill="#FFFFFF" points="10.6191383 8.29977287 9.9322278 8.29977287 9.9322278 8.66172241 10.6191383 8.66172241 10.6191383 8.29977287"></polygon>
                        <polygon id="_155733072" fill="#FFFFFF" points="9.43702052 9.3146407 8.75010999 9.3146407 8.75010999 9.67659024 9.43702052 9.67659024 9.43702052 9.3146407"></polygon>
                        <polygon id="_155732928" fill="#FFFFFF" points="7.47836333 9.3146407 6.79145279 9.3146407 6.79145279 9.67659024 7.47836333 9.67659024 7.47836333 9.3146407"></polygon>
                        <polygon id="_155727624" fill="#FFFFFF" points="12.3596324 4.49919748 11.6727219 4.49919748 11.6727219 4.86114703 12.3596324 4.86114703 12.3596324 4.49919748"></polygon>
                        <polygon id="_155727480" fill="#FFFFFF" points="14.3182896 4.49919748 13.6313791 4.49919748 13.6313791 4.86114703 14.3182896 4.86114703 14.3182896 4.49919748"></polygon>
                        <polygon id="_155727336" fill="#FFFFFF" points="11.3801992 5.51417047 10.6932887 5.51417047 10.6932887 5.87612001 11.3801992 5.87612001 11.3801992 5.51417047"></polygon>
                        <polygon id="_155727192" fill="#FFFFFF" points="13.338961 5.51417047 12.6520505 5.51417047 12.6520505 5.87612001 13.338961 5.87612001 13.338961 5.51417047"></polygon>
                        <polygon id="_155727048" fill="#FFFFFF" points="15.2976182 5.51417047 14.6107077 5.51417047 14.6107077 5.87612001 15.2976182 5.87612001 15.2976182 5.51417047"></polygon>
                        <polygon id="_155726904" fill="#FFFFFF" points="12.3596324 6.52903829 11.6727219 6.52903829 11.6727219 6.89098784 12.3596324 6.89098784 12.3596324 6.52903829"></polygon>
                        <polygon id="_155726760" fill="#FFFFFF" points="14.3182896 6.52903829 13.6313791 6.52903829 13.6313791 6.89098784 14.3182896 6.89098784 14.3182896 6.52903829"></polygon>
                        <polygon id="_155714288" fill="#FFFFFF" points="17.2407969 7.28479988 16.5538864 7.28479988 16.5538864 7.64674943 17.2407969 7.64674943 17.2407969 7.28479988"></polygon>
                        <polygon id="_155714144" fill="#FFFFFF" points="19.1994541 7.28479988 18.5125436 7.28479988 18.5125436 7.64674943 19.1994541 7.64674943 19.1994541 7.28479988"></polygon>
                        <polygon id="_155714000" fill="#FFFFFF" points="16.0586791 8.29977287 15.3717686 8.29977287 15.3717686 8.66172241 16.0586791 8.66172241 16.0586791 8.29977287"></polygon>
                        <polygon id="_155713856" fill="#FFFFFF" points="18.0173363 8.29977287 17.3304258 8.29977287 17.3304258 8.66172241 18.0173363 8.66172241 18.0173363 8.29977287"></polygon>
                        <polygon id="_155713712" fill="#FFFFFF" points="19.9759935 8.29977287 19.289083 8.29977287 19.289083 8.66172241 19.9759935 8.66172241 19.9759935 8.29977287"></polygon>
                        <polygon id="_155713568" fill="#FFFFFF" points="17.2407969 9.3146407 16.5538864 9.3146407 16.5538864 9.67659024 17.2407969 9.67659024 17.2407969 9.3146407"></polygon>
                        <polygon id="_155713424" fill="#FFFFFF" points="19.1994541 9.3146407 18.5125436 9.3146407 18.5125436 9.67659024 19.1994541 9.67659024 19.1994541 9.3146407"></polygon>
                        <polygon id="_155708120" fill="#FFFFFF" points="12.3596324 10.0704023 11.6727219 10.0704023 11.6727219 10.4323518 12.3596324 10.4323518 12.3596324 10.0704023"></polygon>
                        <polygon id="_155707976" fill="#FFFFFF" points="14.3182896 10.0704023 13.6313791 10.0704023 13.6313791 10.4323518 14.3182896 10.4323518 14.3182896 10.0704023"></polygon>
                        <polygon id="_155707832" fill="#FFFFFF" points="11.3801992 11.0852701 10.6932887 11.0852701 10.6932887 11.4472197 11.3801992 11.4472197 11.3801992 11.0852701"></polygon>
                        <polygon id="_155707688" fill="#FFFFFF" points="13.338961 11.0852701 12.6520505 11.0852701 12.6520505 11.4472197 13.338961 11.4472197 13.338961 11.0852701"></polygon>
                        <polygon id="_155707544" fill="#FFFFFF" points="15.2976182 11.0852701 14.6107077 11.0852701 14.6107077 11.4472197 15.2976182 11.4472197 15.2976182 11.0852701"></polygon>
                        <polygon id="_155707400" fill="#FFFFFF" points="12.3596324 12.1001379 11.6727219 12.1001379 11.6727219 12.4620875 12.3596324 12.4620875 12.3596324 12.1001379"></polygon>
                        <polygon id="_155698752" fill="#FFFFFF" points="14.3182896 12.1001379 13.6313791 12.1001379 13.6313791 12.4620875 14.3182896 12.4620875 14.3182896 12.1001379"></polygon>
                    </g>
                </g>
                <path d="M114.838237,35.3333454 C120.472314,41.0200705 123.952035,48.8448951 123.952035,57.4824527 C123.952035,74.8635099 109.861906,88.953639 92.4808488,88.953639 C81.0190329,88.953639 70.9883264,82.8263342 65.4856022,73.6685986 C71.1887801,79.4250715 79.0994888,82.9906774 87.8429898,82.9906774 C105.224047,82.9906774 119.314176,68.9005482 119.314176,51.519491 C119.314176,45.6002499 117.680016,40.0626875 114.838237,35.3333454 L114.838237,35.3333454 Z M81.4765719,66.8555866 L80.0231736,71.9817304 L77.8704983,67.1077479 L72.5461211,67.3095495 L76.5163407,63.7560902 L74.6790929,58.7546667 L79.2854988,61.4324906 L83.4743945,58.1396393 L82.3510903,63.3480847 L86.7772179,66.3144142 L81.4765719,66.8555866 L81.4765719,66.8555866 Z M105.476572,47.8555866 L104.023174,52.9817304 L101.870498,48.1077479 L96.5461211,48.3095495 L100.516341,44.7560902 L98.6790929,39.7546667 L103.285499,42.4324906 L107.474394,39.1396393 L106.35109,44.3480847 L110.777218,47.3144142 L105.476572,47.8555866 L105.476572,47.8555866 Z M86.4765719,50.8555866 L85.0231736,55.9817304 L82.8704983,51.1077479 L77.5461211,51.3095495 L81.5163407,47.7560902 L79.6790929,42.7546667 L84.2854988,45.4324906 L88.4743945,42.1396393 L87.3510903,47.3480847 L91.7772179,50.3144142 L86.4765719,50.8555866 L86.4765719,50.8555866 Z M91.4765719,34.8555866 L90.0231736,39.9817304 L87.8704983,35.1077479 L82.5461211,35.3095495 L86.5163407,31.7560902 L84.6790929,26.7546667 L89.2854988,29.4324906 L93.4743945,26.1396393 L92.3510903,31.3480847 L96.7772179,34.3144142 L91.4765719,34.8555866 L91.4765719,34.8555866 Z M67.4765719,53.8555866 L66.0231736,58.9817304 L63.8704983,54.1077479 L58.5461211,54.3095495 L62.5163407,50.7560902 L60.6790929,45.7546667 L65.2854988,48.4324906 L69.4743945,45.1396393 L68.3510903,50.3480847 L72.7772179,53.3144142 L67.4765719,53.8555866 L67.4765719,53.8555866 Z" id="shape" fill="#FFFFFF"></path>
            </g>
        </g>
    </g>
</svg>