<?xml version="1.0" encoding="UTF-8" standalone="no"?>
<svg width="180px" height="180px" viewBox="0 0 180 180" version="1.1" xmlns="http://www.w3.org/2000/svg" xmlns:xlink="http://www.w3.org/1999/xlink">
    <!-- Generator: Sketch 3.8.3 (29802) - http://www.bohemiancoding.com/sketch -->
    <title>tuvalu</title>
    <desc>Created with Sketch.</desc>
    <defs></defs>
    <g id="Page-1" stroke="none" stroke-width="1" fill="none" fill-rule="evenodd">
        <g id="flags" transform="translate(-720.000000, -6120.000000)">
            <g id="tuvalu" transform="translate(720.000000, 6120.000000)">
                <path d="M90,180 C139.70563,180 180,139.70563 180,90 C180,40.2943701 139.70563,0 90,0 C40.2943701,0 0,40.2943701 0,90 C0,139.70563 40.2943701,180 90,180 L90,180 Z" id="aqua" fill="#4BB7C0"></path>
                <path d="M158.456804,35.9230769 L160.140486,41.7294764 L165.956804,41.7294764 L161.364762,45.2781449 L163.048645,50.9230769 L158.456804,47.3746094 L153.864963,50.7616094 L155.548645,45.2781449 L150.956804,41.7294764 L156.619987,41.7294764 L158.456804,35.9230769 L158.456804,35.9230769 L158.456804,35.9230769 Z M145.44979,66.0349777 L149.562548,61.9222197 L148.824772,67.6785708 L154.007026,70.4794559 L148.250959,71.2172323 L147.399008,76.8591249 L144.712156,71.7911871 L138.955947,72.5288214 L142.960422,68.5243462 L140.153503,63.1197761 L145.44979,66.0349777 L145.44979,66.0349777 Z M118.153503,77.1197761 L123.44979,80.0349777 L127.562548,75.9222197 L126.824772,81.6785708 L132.007026,84.4794559 L126.250959,85.2172323 L125.399008,90.8591249 L122.712156,85.7911871 L116.955947,86.5288214 L120.960422,82.5243462 L118.153503,77.1197761 L118.153503,77.1197761 L118.153503,77.1197761 Z M153.153503,89.1197761 L158.44979,92.0349777 L162.562548,87.9222197 L161.824772,93.6785708 L167.007026,96.4794559 L161.250959,97.2172323 L160.399008,102.859125 L157.712156,97.7911871 L151.955947,98.5288214 L155.960422,94.5243462 L153.153503,89.1197761 L153.153503,89.1197761 L153.153503,89.1197761 Z M138.44979,105.034978 L142.562548,100.92222 L141.824772,106.678571 L147.007026,109.479456 L141.250959,110.217232 L140.399008,115.859125 L137.712156,110.791187 L131.955947,111.528821 L135.960422,107.524346 L133.153503,102.119776 L138.44979,105.034978 L138.44979,105.034978 Z M118.153503,128.119776 L123.44979,131.034978 L127.562548,126.92222 L126.824772,132.678571 L132.007026,135.479456 L126.250959,136.217232 L125.399008,141.859125 L122.712156,136.791187 L116.955947,137.528821 L120.960422,133.524346 L118.153503,128.119776 L118.153503,128.119776 L118.153503,128.119776 Z M96.1535029,106.119776 L101.44979,109.034978 L105.562548,104.92222 L104.824772,110.678571 L110.007026,113.479456 L104.250959,114.217232 L103.399008,119.859125 L100.712156,114.791187 L94.9559465,115.528821 L98.9604217,111.524346 L96.1535029,106.119776 L96.1535029,106.119776 L96.1535029,106.119776 Z M85.1535029,137.119776 L90.4497902,140.034978 L94.5625482,135.92222 L93.8247722,141.678571 L99.0070265,144.479456 L93.2509592,145.217232 L92.399008,150.859125 L89.7121559,145.791187 L83.9559465,146.528821 L87.9604217,142.524346 L85.1535029,137.119776 L85.1535029,137.119776 L85.1535029,137.119776 Z M67.4568038,145.923077 L69.1404856,151.729476 L74.9568038,151.729476 L70.3647624,155.278145 L72.0486447,160.923077 L67.4568038,157.374609 L62.8649629,160.761609 L64.5486447,155.278145 L59.9568038,151.729476 L65.6199869,151.729476 L67.4568038,145.923077 L67.4568038,145.923077 L67.4568038,145.923077 Z" id="stars" fill="#F2C500"></path>
                <g id="UK-corner">
                    <path d="M90,90 L90,0 C40.2943725,0 0,40.2943725 0,90 L90,90 Z" id="blue" fill="#227FBB"></path>
                    <path d="M58.6665316,5.60442783 L41.3956444,14.2398718 C16.4947453,30.2482972 0,58.1978704 0,90 L18,90 L18,64.0623044 L69.8753928,90 L90,90 L90,79.937694 L47.124612,58.5 L90,58.5 L90,31.5 L47.1246106,31.5 L90,10.062306 L90,0 C78.9808284,0 68.424181,1.98030051 58.6665316,5.60442783 L58.6665316,5.60442783 Z" id="white" fill="#FFFFFF"></path>
                    <path d="M17.9934072,35.9999997 L90,36 L90,54 L12,53.9999997 L12,89.9999997 L0,89.9999998 C4.3896494e-08,69.7390927 6.69500614,51.041889 17.9934072,35.9999997 L17.9934072,35.9999997 L17.9934072,35.9999997 Z M75.9120161,1.09619155 L24.8567236,27.9002201 C23.7407294,29.0705605 22.6559518,30.2709324 21.6037269,31.5 L30,31.5 L90,0 L89.9925529,0 C85.2024043,0.000387862029 80.4996778,0.374999182 75.9120161,1.09619155 L75.9120161,1.09619155 L75.9120161,1.09619155 Z M28,58.5 L40,58.5 L90,84 L90,90 L28,58.5 L28,58.5 Z" id="red" fill="#E94B35"></path>
                </g>
            </g>
        </g>
    </g>
</svg>