<?xml version="1.0" encoding="UTF-8" standalone="no"?>
<svg width="180px" height="180px" viewBox="0 0 180 180" version="1.1" xmlns="http://www.w3.org/2000/svg" xmlns:xlink="http://www.w3.org/1999/xlink">
    <!-- Generator: Sketch 3.8.3 (29802) - http://www.bohemiancoding.com/sketch -->
    <title>uganda</title>
    <desc>Created with Sketch.</desc>
    <defs></defs>
    <g id="Page-1" stroke="none" stroke-width="1" fill="none" fill-rule="evenodd">
        <g id="flags" transform="translate(-990.000000, -6120.000000)">
            <g id="uganda" transform="translate(990.000000, 6120.000000)">
                <path d="M22.916803,150 L157.083197,150 C164.830918,141.343562 170.927763,131.178595 174.878829,120 L5.12116698,120 C9.07223656,131.178595 15.1690819,141.343562 22.916803,150 L22.916803,150 Z M5.12116698,60 L174.878833,60 C170.927763,48.8214053 164.830918,38.6564375 157.083197,30 L22.916803,30 C15.1690819,38.6564375 9.07223656,48.8214053 5.12117078,59.9999996 L5.12116698,60 Z" id="yellow" fill="#F2C500"></path>
                <path d="M157.083197,150 L22.916803,150 C39.3964193,168.412481 63.3450038,180 90,180 C116.654996,180 140.603581,168.412481 157.083197,150 L157.083197,150 Z M0,90 L180,90 C180,79.480937 178.195374,69.3833673 174.878829,59.9999996 L5.12116698,60 C1.80462645,69.3833673 0,79.480937 0,90 L0,90 Z" id="red" fill="#E94B35"></path>
                <path d="M5.12116698,120 L174.878833,120 C178.195374,110.616633 180,100.519063 180,90 L0,90 C0,100.519063 1.80462645,110.616633 5.12117078,120 L5.12116698,120 Z M22.916803,30 L157.083197,30 C140.603581,11.5875189 116.654996,0 90,0 C63.3450038,0 39.3964193,11.5875189 22.916803,30 L22.916803,30 Z" id="black" fill="#000000"></path>
                <circle id="Oval" fill="#FFFFFF" cx="91.5" cy="89.5" r="27.5"></circle>
                <g id="emblem" transform="translate(80.000000, 64.000000)">
                    <path d="M6.368255,4.54722864 L4.57369357,1.24691568 C5.26618398,0.555513636 6.43122939,0.02106 8.28852551,0.02106 C8.28852551,0.146814318 8.09959939,3.63575432 8.09959939,3.63575432 L8.09959939,3.63575432 L6.368255,4.54722864 L6.368255,4.54722864 L6.368255,4.54722864 L6.368255,4.54722864 L6.368255,4.54722864 Z" id="Shape" fill="#E94B35"></path>
                    <path d="M8.09959939,3.66719364 L8.3514999,0.02106 C8.3514999,0.02106 12.0663318,-0.19877 14.0810684,2.22126568 C14.1125541,2.18982932 12.0978205,5.05000068 12.0978205,5.05000068 L12.0978205,5.05000068 L8.09959939,3.66719364 L8.09959939,3.66719364 L8.09959939,3.66719364 L8.09959939,3.66719364 L8.09959939,3.66719364 Z" id="Shape" fill="#FCDC04"></path>
                    <path d="M12.1607949,5.01856432 L13.9866053,2.18982932 C15.2143854,3.47856364 15.7179497,4.390035 15.9068758,5.77308432 C15.9383645,5.80452364 13.0107257,6.49592864 13.0107257,6.46448932 C13.0107257,6.43305 12.1922836,5.05000068 12.1607949,5.01856432 C12.1607949,5.01856432 12.1922836,5.05000068 12.1607949,5.01856432 L12.1607949,5.01856432 L12.1607949,5.01856432 L12.1607949,5.01856432 L12.1607949,5.01856432 L12.1607949,5.01856432 Z" id="Shape" fill="#E94B35"></path>
                    <path d="M7.28115724,51.7261668 C7.28115724,51.7261668 10.7126,47.7970882 17.3865594,48.6459232 C16.3791911,47.0113682 13.1366745,47.1999982 13.1366745,47.1999982 C13.1366745,47.1999982 12.1293092,39.5621495 12.9162627,39.1848895 C13.7032132,38.8076295 17.0401929,39.2163289 17.0401929,39.2163289 C17.4807828,39.2163289 18.2364872,38.0219095 17.6384599,37.2676289 C17.0401929,36.5131059 15.2773598,33.6214952 16.0013389,33.0556052 C16.7255577,32.4899545 20.6605617,33.3699866 20.6605617,33.3699866 L9.54779429,19.1629573 C9.54779429,19.1629573 8.41447724,13.8196323 10.6811113,11.2421636 C13.4200666,8.97907932 13.1366745,6.527365 13.0422114,6.55880432 C12.6643592,4.07565068 8.88679255,2.283905 6.33676633,4.578665 C4.82559408,6.40161364 5.83296235,7.78466 5.83296235,7.78466 C5.83296235,7.78466 1.86646959,8.853325 1.70902918,9.54473 C1.55159173,10.2363743 6.17932592,9.41921795 6.17932592,9.41921795 L5.73849929,12.5937736 C5.73849929,12.5937736 -3.26507153,20.7658336 3.62929969,27.8380316 C3.69227704,27.8065923 3.84971449,27.5236473 3.84971449,27.5236473 C3.84971449,27.5236473 6.27378898,30.5098152 8.82357551,31.1697809 C11.2161643,33.6214952 10.9959892,33.2442352 10.9959892,33.2442352 C10.9959892,33.2442352 11.4680648,37.1104352 11.0274779,37.8647159 C10.4292108,37.6760859 4.3220298,37.4562589 3.40888786,37.8018402 C2.59044571,38.0533489 -0.557607857,37.8961552 0.229345612,43.0196532 C0.827372959,41.6366039 1.36266561,40.4107452 1.36266561,40.4107452 C1.36266561,40.4107452 1.26820255,42.2651302 2.02390704,42.9253382 C1.89795531,40.9763989 2.74788316,39.6564645 2.74788316,39.6564645 C2.74788316,39.6564645 2.90532357,41.7937945 3.37739918,42.1079395 C3.84971449,42.4223239 3.84971449,38.6504359 6.46271806,38.9648202 C9.07547898,39.2792045 10.9645035,39.1848895 10.9645035,39.1848895 C10.9645035,39.1848895 11.84592,46.5712295 11.5625279,47.2628739 C9.67350337,46.8227382 5.17196061,47.4515039 4.88857143,48.5830475 C7.53281806,48.4258539 8.76084082,48.7399989 8.76084082,48.7399989 C8.76084082,48.7399989 6.62015551,50.6260625 7.28115724,51.7261668 C7.28115724,51.7261668 6.62015551,50.6260625 7.28115724,51.7261668 L7.28115724,51.7261668 L7.28115724,51.7261668 L7.28115724,51.7261668 L7.28115724,51.7261668 L7.28115724,51.7261668 Z" id="Shape" fill="#000000"></path>
                    <path d="M8.34236786,11.4223939 C8.34236786,11.4223939 1.79099265,18.6321052 4.61743918,24.1491811 C4.76790776,23.379782 4.70228786,22.896445 4.79675092,22.9278843 C4.63931347,22.8335693 5.60918296,23.5916909 5.5353898,23.4440966 C5.55606265,23.0452389 5.23998337,22.1904032 5.23998337,22.1904032 C5.5353898,22.2640777 5.83103888,22.3379945 6.12644827,22.4116691 C5.95410541,22.092008 5.78152286,21.7725832 5.60918296,21.4529191 C6.02789857,21.5021182 6.44637153,21.551075 6.86508714,21.6002711 C6.86508714,21.6002711 6.42185469,20.4202523 6.56967776,20.4202523 C6.71726408,20.4202523 7.60372602,20.4939298 7.60372602,20.4939298 C5.74066245,17.1557011 7.49820745,14.3833625 8.34236786,11.4223939 C8.34236786,11.4223939 7.49820745,14.3833625 8.34236786,11.4223939 L8.34236786,11.4223939 L8.34236786,11.4223939 L8.34236786,11.4223939 L8.34236786,11.4223939 L8.34236786,11.4223939 Z" id="Shape" fill="#9CA69C"></path>
                    <path d="M10.6181369,5.23863068 C10.6181369,5.23863068 10.9645035,7.72178432 9.61076867,8.44462864 C9.39035684,8.60181932 8.54042602,8.88476432 8.66637776,9.38777864 C8.8238152,10.0791836 9.20142776,9.95342932 9.73672041,9.827675 C11.1531869,9.57616932 12.7903109,6.55880432 10.6181369,5.23863068 C10.6181369,5.23863068 12.7903109,6.55880432 10.6181369,5.23863068 L10.6181369,5.23863068 L10.6181369,5.23863068 L10.6181369,5.23863068 L10.6181369,5.23863068 L10.6181369,5.23863068 Z" id="Shape" fill="#9CA69C"></path>
                    <ellipse id="Oval" fill="#FFFFFF" cx="7.69387755" cy="7.38636364" rx="0.532653061" ry="0.531818182"></ellipse>
                    <path d="M6.08486286,9.450415 C5.73849929,9.73336 3.91269184,11.6194236 5.70701061,12.3108286 C7.56454643,11.8078143 7.06074245,11.462233 7.47008337,11.0535336 C7.48065949,10.204938 6.546605,9.98486864 6.08486286,9.450415 C6.08486286,9.450415 6.546605,9.98486864 6.08486286,9.450415 L6.08486286,9.450415 L6.08486286,9.450415 L6.08486286,9.450415 L6.08486286,9.450415 L6.08486286,9.450415 Z" id="Shape" fill="#E94B35"></path>
                    <path d="M10.0513586,27.2723809 C9.95689551,27.6810802 9.54779429,29.1896416 10.114333,30.3526216 C11.6884796,29.6926559 12.4124587,29.8810466 12.9477484,30.2268702 C11.6572336,29.1896416 11.1534296,28.7495059 10.0513586,27.2723809 C10.0513586,27.2723809 11.1534296,28.7495059 10.0513586,27.2723809 L10.0513586,27.2723809 L10.0513586,27.2723809 L10.0513586,27.2723809 L10.0513586,27.2723809 L10.0513586,27.2723809 Z" id="Shape" fill="#9CA69C"></path>
                    <path d="M12.7588222,34.4072152 L12.8532853,37.9275945 C12.8532853,37.9275945 14.0810684,38.1476639 14.647607,37.9275945 C15.2143854,37.7075252 14.6161184,35.4758802 12.7588222,34.4072152 C12.7588222,34.4072152 14.6161184,35.4758802 12.7588222,34.4072152 L12.7588222,34.4072152 L12.7588222,34.4072152 L12.7588222,34.4072152 L12.7588222,34.4072152 L12.7588222,34.4072152 Z" id="Shape" fill="#FFFFFF"></path>
                    <path d="M21.66793,34.8473509 C21.66793,34.8473509 19.401293,29.3782716 13.6087501,27.9952252 C7.8162102,26.6121759 8.571675,20.4516916 9.04399031,20.0744316 C9.29589378,19.539978 9.4848199,18.7228186 11.1531869,19.508778 C12.8217966,20.294498 20.5031243,24.1604616 21.6049556,24.3490916 C22.706784,24.5377216 21.7623931,34.9731052 21.66793,34.8473509 C21.66793,34.8473509 21.7623931,34.9731052 21.66793,34.8473509 L21.66793,34.8473509 L21.66793,34.8473509 L21.66793,34.8473509 L21.66793,34.8473509 L21.66793,34.8473509 Z" id="Shape" fill="#9CA69C"></path>
                    <path d="M16.1587763,27.9637859 C16.0643133,28.0266616 23.9030784,32.5840273 21.5419783,36.5131059 C23.7773693,35.0357416 23.0531505,32.4585152 23.0531505,32.4585152 C23.0531505,32.4585152 24.878958,37.2047502 20.4401499,39.5307132 C20.9124652,39.9394095 21.2273431,39.8448552 21.2273431,39.8448552 L20.4716356,40.5993782 C20.4716356,40.5993782 20.125272,41.1650289 23.1161249,39.7191009 C22.297446,40.3793089 22.2347084,40.8506445 22.2347084,40.8506445 C22.2347084,40.8506445 22.4548835,41.4794102 24.4068823,39.7819795 C22.8327357,41.4794102 22.4863721,42.3594452 22.4863721,42.3280089 C26.7362541,41.9507489 35.9917284,28.1524159 19.5587334,24.0661466 C20.4403896,24.9778573 20.3141982,24.8521059 20.3141982,24.8521059 L20.3141982,24.8521059 L16.1587763,27.9637859 L16.1587763,27.9637859 L16.1587763,27.9637859 L16.1587763,27.9637859 L16.1587763,27.9637859 Z" id="Shape" fill="#E94B35"></path>
                    <path d="M16.5051429,26.6121759 C17.5754855,27.3664566 17.9530981,27.6179623 18.0790498,27.9952252 C17.1031702,27.7753952 16.2217537,27.8380316 16.2217537,27.8380316 C16.2217537,27.8380316 14.1125541,25.8264559 13.7347018,25.6692623 C13.4513127,25.6692623 11.8144313,24.6320366 11.8144313,24.6320366 C10.9959892,24.2233373 10.2405244,21.3946023 13.2626262,22.2117616 C16.3789514,23.6888836 16.819781,23.8148773 16.819781,23.8148773 C18.0581372,24.2024575 19.2962538,24.59028 20.534613,24.9778573 C21.2482527,25.7741368 21.9616556,26.5704164 22.6752983,27.3666959 C22.6752983,27.3666959 18.866243,25.4806323 18.3939277,25.4491959 C19.4327816,26.2977916 20.0310487,27.4607716 20.0310487,27.4607716 C18.8241782,27.114948 17.7749878,26.8008059 16.5051429,26.6121759 C16.5051429,26.6121759 17.7749878,26.8008059 16.5051429,26.6121759 L16.5051429,26.6121759 L16.5051429,26.6121759 L16.5051429,26.6121759 L16.5051429,26.6121759 L16.5051429,26.6121759 Z" id="Shape" fill="#FFFFFF"></path>
                    <path d="M1.67754051,9.73336 C1.67754051,9.73336 5.32939806,8.853325 5.76998796,8.97907932" id="Shape" fill="#000000"></path>
                </g>
            </g>
        </g>
    </g>
</svg>