<?xml version="1.0" encoding="UTF-8" standalone="no"?>
<svg width="180px" height="180px" viewBox="0 0 180 180" version="1.1" xmlns="http://www.w3.org/2000/svg" xmlns:xlink="http://www.w3.org/1999/xlink">
    <!-- Generator: Sketch 3.8.3 (29802) - http://www.bohemiancoding.com/sketch -->
    <title>united_arab_emirates_uae</title>
    <desc>Created with Sketch.</desc>
    <defs></defs>
    <g id="Page-1" stroke="none" stroke-width="1" fill="none" fill-rule="evenodd">
        <g id="flags" transform="translate(-1530.000000, -6120.000000)">
            <g id="united_arab_emirates_uae" transform="translate(1530.000000, 6120.000000)">
                <ellipse id="white" fill="#FFFFFF" cx="89.9972382" cy="90" rx="89.9972382" ry="90"></ellipse>
                <path d="M45,167.960402 L45,120 L174.873467,120 C162.51875,154.955772 129.182603,180 89.9972382,180 C73.6053894,180 58.237083,175.617562 45,167.960402 L45,167.960402 Z" id="black" fill="#000000"></path>
                <path d="M45,12.0395976 L45,60 L174.873467,60 C162.51875,25.0442275 129.182603,0 89.9972382,0 C73.6053894,0 58.237083,4.38243757 45,12.0395976 L45,12.0395976 Z" id="green" fill="#1AAF5D"></path>
                <path d="M0.00276191524,89.2874328 L0.00276191524,90.7125672 C0.258782647,123.728868 18.2922227,152.512212 45.0027619,167.962 L45.0027619,12.038 C18.2922227,27.487788 0.258782647,56.2711321 0.00276191524,89.2874328 L0.00276191524,89.2874328 Z" id="red" fill="#E94B35"></path>
            </g>
        </g>
    </g>
</svg>