<?xml version="1.0" encoding="UTF-8" standalone="no"?>
<svg width="180px" height="180px" viewBox="0 0 180 180" version="1.1" xmlns="http://www.w3.org/2000/svg" xmlns:xlink="http://www.w3.org/1999/xlink">
    <!-- Generator: Sketch 3.8.3 (29802) - http://www.bohemiancoding.com/sketch -->
    <title>united_kingdom</title>
    <desc>Created with Sketch.</desc>
    <defs></defs>
    <g id="Page-1" stroke="none" stroke-width="1" fill="none" fill-rule="evenodd">
        <g id="flags" transform="translate(-1800.000000, -6120.000000)">
            <g id="united_kingdom" transform="translate(1800.000000, 6120.000000)">
                <circle id="blue" fill="#227FBB" cx="90" cy="90" r="90"></circle>
                <path d="M37.2185851,17.0939732 L90,69.8753881 L142.781415,17.0939732 C150.505391,22.6955754 157.304424,29.4946083 162.906027,37.2185848 L110.124611,89.999999 L162.906027,142.781415 C157.304425,150.505391 150.505393,157.304423 142.781417,162.906025 L90,110.124609 L37.2185826,162.906025 C29.494607,157.304423 22.6955749,150.505391 17.0939732,142.781415 L69.8753891,89.999999 L17.0939734,37.2185848 C22.6955757,29.4946083 29.4946085,22.6955754 37.2185851,17.0939732 L37.2185851,17.0939732 Z" id="white" fill="#FFFFFF"></path>
                <path d="M161.13618,145.139855 L114.920635,98 L99.301587,98 L153.85015,153.428378 C156.443011,150.818384 158.876931,148.050299 161.13618,145.139855 L161.13618,145.139855 Z M34.7305086,161.03536 L96,99.0000003 L80,99.0000003 L26.1968677,153.475672 C28.8776481,156.170195 31.7279777,158.695874 34.7305086,161.03536 L34.7305086,161.03536 Z M153.745389,26.4663419 L102.5,78.1250003 L88,78.1250003 L146.065035,19.5916991 C148.755095,21.7365837 151.319486,24.0324048 153.745389,26.4663419 L153.745389,26.4663419 Z M18.9481537,34.7516738 L59.0421815,75.0000006 L74.7727805,75.0000006 L26.3204097,26.4003928 C23.6959839,29.0280985 21.2331711,31.8172529 18.9481537,34.7516738 L18.9481537,34.7516738 Z" id="red" fill="#E94B35"></path>
                <path d="M70,2.23016395 L70,70 L2.23016395,70 C0.770614294,76.4322273 0,83.1261203 0,90 C0,96.8738797 0.770614294,103.567773 2.23016395,110 L70,110 L70,177.769836 C76.4322273,179.229386 83.1261203,180 90,180 C96.8738797,180 103.567773,179.229386 110,177.769836 L110,110 L177.769836,110 C179.229386,103.567773 180,96.8738797 180,90 C180,83.1261203 179.229386,76.4322273 177.769836,70 L110,70 L110,2.23016395 C103.567773,0.770614294 96.8738797,0 90,0 C83.1261203,0 76.4322273,0.770614294 70,2.23016395 L70,2.23016395 Z" id="white" fill="#FFFFFF"></path>
                <path d="M75,1.24437643 L75,75 L1.24437643,75 C0.425981881,79.8781271 0,84.8893168 0,90 C0,95.1106832 0.425981881,100.121873 1.24437643,105 L75,105 L75,178.755624 C79.8781271,179.574018 84.8893168,180 90,180 C95.1106832,180 100.121873,179.574018 105,178.755624 L105,105 L178.755624,105 C179.574018,100.121873 180,95.1106832 180,90 C180,84.8893168 179.574018,79.8781271 178.755624,75 L105,75 L105,1.24437643 C100.121873,0.425981881 95.1106832,0 90,0 C84.8893168,0 79.8781271,0.425981881 75,1.24437643 L75,1.24437643 Z" id="red" fill="#E94B35"></path>
            </g>
        </g>
    </g>
</svg>