<?xml version="1.0" encoding="UTF-8" standalone="no"?>
<svg width="180px" height="180px" viewBox="0 0 180 180" version="1.1" xmlns="http://www.w3.org/2000/svg" xmlns:xlink="http://www.w3.org/1999/xlink">
    <!-- Generator: Sketch 3.8.3 (29802) - http://www.bohemiancoding.com/sketch -->
    <title>uruguay</title>
    <desc>Created with Sketch.</desc>
    <defs></defs>
    <g id="Page-1" stroke="none" stroke-width="1" fill="none" fill-rule="evenodd">
        <g id="flags" transform="translate(-2610.000000, -6120.000000)">
            <g id="uruguay" transform="translate(2610.000000, 6120.000000)">
                <circle id="white" fill="#FFFFFF" cx="90" cy="90" r="90"></circle>
                <path d="M164.844511,40 L90,40 L90,20 L146.573345,20 C153.620242,25.7023413 159.788834,32.4472114 164.844511,40 Z M179.450712,80 L90,80 L90,60 L174.878833,60 C177.129668,66.3682094 178.684129,73.0653755 179.450712,80 Z M5.12116698,120 L174.878833,120 C177.129668,113.631791 178.684129,106.934625 179.450712,100 L0.549287698,100 C1.31587144,106.934625 2.87033179,113.631791 5.12117078,120 Z M33.4266546,160 L146.573345,160 C153.620242,154.297659 159.788834,147.552789 164.844511,140 L15.155489,140 C20.2111656,147.552789 26.3797576,154.297659 33.4266546,160 Z" id="blue" fill="#227FBB"></path>
                <g id="emblem" transform="translate(15.000000, 23.000000)">
                    <path d="M30.5516192,30.6042527 L34.4211559,31.6552977 C33.8145417,16.6548514 23.7610705,12.3878901 22.8762876,5.21933503 C22.8762876,5.21933503 23.1657389,7.04791017 25.1100519,10.2364519 C27.127227,13.5444826 29.6721788,16.6407642 31.0572531,18.9250912 C33.6643522,23.2248369 34.6090838,31.5716268 34.6090838,31.5716268 L37.4503695,30.3066049 C37.3555135,29.6306551 37.2526092,28.9788346 37.1422435,28.349966 L39.1775825,31.9033032 C49.3555588,20.8674449 45.2638784,10.74137 49.7071763,5.0468001 C49.7071763,5.0468001 48.6188514,6.54447098 47.7390488,10.1739473 C46.8262761,13.9394365 46.4364271,17.9283909 45.8005593,20.5230494 C44.6036775,25.4069263 39.3696318,31.9770241 39.3696318,31.9770241 L42.2732298,33.0916109 C55.0864285,16.0952376 45.7741321,10.1561949 52.171814,2.61468158 C42.3254956,7.2806005 50.1516562,13.1811781 36.6387629,25.8505438 C32.8953224,9.52214646 23.6459981,10.8565906 22.8992821,1.75680545 C19.2383773,12.0123698 28.9308512,10.6585386 28.3470512,29.1373718 C14.1686793,20.2577874 8.57397786,27.7319565 1.61468158,21.828186 C6.34888218,31.8185967 12.3541422,23.615501 25.4111254,37.9683175 L30.9033032,34.8224175 C19.8674449,24.6444412 9.74137002,28.7361216 4.0468001,24.2928237 C4.0468001,24.2928237 5.54447098,25.3811486 9.17394734,26.2609512 C12.9394365,27.1737239 16.9283909,27.5635729 19.5230494,28.1994407 C24.4069263,29.3963225 30.9770241,34.6303682 30.9770241,34.6303682 L32.0916109,31.7267702 C31.5679057,31.3319601 31.0546986,30.9581566 30.5516192,30.6042527 Z M29.6042527,44.4483808 C29.9581566,43.9453014 30.3319601,43.4320943 30.7267702,42.9083891 L33.6303682,44.0229759 C33.6303682,44.0229759 28.3963225,50.5930737 27.1994407,55.4769506 C26.5635729,58.0716091 26.1737239,62.0605635 25.2609512,65.8260527 C24.3811486,69.455529 23.2928237,70.9531999 23.2928237,70.9531999 C27.7361216,65.25863 23.6444412,55.1325551 33.8224175,44.0966968 L36.9683175,49.5888746 C22.615501,62.6458578 30.8185967,68.6511178 20.828186,73.3853184 C26.7319565,66.4260221 19.2577874,60.8313207 28.1373718,46.6529488 C9.65853856,46.0691488 11.0123698,55.7616227 0.756805455,52.1007179 C10.613305,51.291907 8.22805442,40.5075816 29.3066049,37.5496305 L30.5716268,40.3909162 C30.5716268,40.3909162 22.2248369,41.3356478 17.9250912,43.9427469 C15.6407642,45.3278212 12.5444826,47.872773 9.23645187,49.8899481 C6.04791017,51.8342611 4.21933503,52.1237124 4.21933503,52.1237124 C11.3878901,51.2389295 15.6548514,41.1854583 30.6552977,40.5788441 L29.6042527,44.4483808 Z M46.650034,38.1422435 C46.0211654,38.2526092 45.3693449,38.3555135 44.6933951,38.4503695 L43.4283732,35.6090838 C43.4283732,35.6090838 51.7751631,34.6643522 56.0749088,32.0572531 C58.3592358,30.6721788 61.4555174,28.127227 64.7635481,26.1100519 C67.9520898,24.1657389 69.780665,23.8762876 69.780665,23.8762876 C62.6121099,24.7610705 58.3451486,34.8145417 43.3447023,35.4211559 L45.0037713,29.3131124 C64.3854266,30.229405 62.831322,20.1825803 73.2431945,23.8992821 C64.1434094,24.6459981 65.4778535,33.8953224 49.1494562,37.6387629 C61.8188219,51.1516562 67.7193995,43.3254956 72.3853184,53.171814 C64.8438051,46.7741321 58.9047624,56.0864285 41.9083891,43.2732298 L43.0229759,40.3696318 C43.0229759,40.3696318 49.5930737,45.6036775 54.4769506,46.8005593 C57.0716091,47.4364271 61.0605635,47.8262761 64.8260527,48.7390488 C68.455529,49.6188514 69.9531999,50.7071763 69.9531999,50.7071763 C64.25863,46.2638784 54.1325551,50.3555588 43.0966968,40.1775825 L46.650034,38.1422435 Z M36.5496305,45.6933951 C39.5075816,66.7719456 50.291907,64.386695 51.1007179,74.2431945 C54.8174197,63.831322 44.770595,65.3854266 45.6868876,46.0037713 L39.5788441,44.3447023 C40.1854583,59.3451486 50.2389295,63.6121099 51.1237124,70.780665 C51.1237124,70.780665 50.8342611,68.9520898 48.8899481,65.7635481 C46.872773,62.4555174 44.3278212,59.3592358 42.9427469,57.0749088 C40.3356478,52.7751631 39.3909162,44.4283732 39.3909162,44.4283732 L36.5496305,45.6933951 Z" id="Shape" stroke="#000000" stroke-width="0.1" fill="#F2C500"></path>
                    <path d="M38.5,48 L43,48 L38.5,75 L34,48 L38.5,48 L38.5,75 M29.9277633,44.0722367 L33,47.1444734 L11,63 L26.8555266,41 L29.9277633,44.0722367 L11,63 M27,38.5 L27,43 L0,38.5 L27,34 L27,38.5 L0,38.5 M29.9277633,29.9277635 L26.8555266,33 L11,11 L33,26.8555268 L29.9277633,29.9277635 L11,11 M38.5,27 L34,27 L38.5,0 L43,27 L38.5,27 L38.5,0 M44.0722365,29.9277635 L41,26.8555268 L63,11 L47.1444732,33 L44.0722365,29.9277635 L63,11 M48,38.5 L48,34 L75,38.5 L48,43 L48,38.5 L75,38.5 M44.0722365,44.0722367 L47.1444732,41 L63,63 L41,47.1444734 L44.0722365,44.0722367 L63,63" id="Shape" stroke="#000000" stroke-width="0.1" fill="#F2C500"></path>
                    <path d="M37.5,50 C44.4035597,50 50,44.4035597 50,37.5 C50,30.5964403 44.4035597,25 37.5,25 C30.5964403,25 25,30.5964403 25,37.5 C25,44.4035597 30.5964403,50 37.5,50 Z" id="Oval" stroke="#000000" stroke-width="0.1" fill="#F2C500"></path>
                    <path d="M37.5,40.7474314 C37.4646136,40.7500853 37.4280604,40.7514795 37.3902015,40.7514795 L37.3902015,40.7347435 C36.77414,40.6378719 36.5120215,40.1533318 35.705433,40.1533318 C34.809261,40.1533318 33.5770245,40.5122204 33.016917,40.9907386 C32.9048955,41.1103682 33.3529815,40.0337023 34.2491535,39.9140727 C35.1453255,39.7944432 34.809261,38.2392591 35.8174545,38 C35.8174545,38.4785182 35.48139,38.3588886 35.3693685,39.0766659 C35.3693685,39.6748136 36.377562,39.6748136 36.601605,39.0766659 C36.3920508,39.9718112 36.9665064,40.0296998 37.5000001,40.0334434 C38.0334937,40.0296998 38.6079492,39.9718111 38.398395,39.0766659 C38.622438,39.6748136 39.6306315,39.6748136 39.6306315,39.0766659 C39.51861,38.3588886 39.1825455,38.4785182 39.1825455,38 C40.190739,38.2392591 39.8546745,39.7944432 40.7508465,39.9140727 C41.6470185,40.0337023 42.0951046,41.1103682 41.983083,40.9907386 C41.4229755,40.5122204 40.190739,40.1533318 39.294567,40.1533318 C38.4879785,40.1533318 38.22586,40.6378719 37.6097985,40.7347435 L37.6097985,40.7514795 C37.5719396,40.7514795 37.5353864,40.7500853 37.5,40.7474314 L37.5,40.7474314 L37.5,40.7474314 Z M34,43.2295859 C34.594138,43.1759806 35.4318845,43 37.4921873,43 L37.5,43 L37.5078127,43 C39.5681155,43 40.405862,43.1759806 41,43.2295859 C39.9931701,43.6125732 39.1624551,44 37.5078127,44 L37.5,44 L37.4921873,44 C35.8375449,44 35.0068299,43.6125732 34,43.2295859 L34,43.2295859 Z M37.4637956,44.9864357 L37.4720651,45 C40.2455096,45 39.8478601,44.4394928 43.3926716,42.8764981 C43.6510931,43.2327038 43.7035065,43.3142254 44,43.8461539 C43.8874493,43.0384615 43.6623481,42.6923077 42.7619433,42 C43.0460949,42.4005464 43.2293643,42.6517048 43.3612749,42.8332577 C43.1995856,42.8564121 43.0457504,42.8816564 42.8987161,42.9086309 L42.8987161,42.9086309 C41.6622746,42.8972988 40.0299447,42 39.2728747,42 C38.3724699,42 38.1473687,42.2307692 37.4720651,42.2307692 L37.4637956,42.2443336 L37.4555261,42.2307692 C36.7802225,42.2307692 36.5551213,42 35.6547165,42 C34.8976465,42 33.2653167,42.8972988 32.0288752,42.9086309 C31.901817,42.8853212 31.7696803,42.8633034 31.6317855,42.8428098 C31.7641954,42.6605274 31.9488879,42.4076187 32.2380566,42 C31.3376518,42.6923077 31.1125506,43.0384615 31,43.8461539 C31.2896492,43.3265044 31.3463569,43.2367075 31.5897559,42.9007358 C35.0756918,44.4452916 34.6964656,45 37.4555261,45 L37.4637956,44.9864357 L37.4637956,44.9864357 Z M31.9478609,34.523747 C31.419981,34.1480396 31.116554,33.1241006 31.689449,32.5786177 L31.6894481,32.5786178 C30.2819361,32.7377591 29.6857547,33.6666667 29,33.6666667 C29.6428571,33.3333333 30.3928571,32 32.1071429,32 C33.8214286,32 34.8928571,32.2222222 35,33.5555556 L35,33.6666667 C34.5547198,33.2468739 34.2776724,32.9856845 34.0128455,32.8231759 C34.1082251,33.4725704 33.4624692,34.2127352 32.8638023,34.5205227 C33.8186225,34.3142441 34.2925883,33.2873171 34.679313,33.8888889 C35.0007416,34.3333333 33.3935987,35 32.2150273,35 C31.0364558,35 29.2150273,33.1111111 29.9650273,33.6666667 C30.5799059,34.1221323 31.1227701,34.4282347 31.9478609,34.523747 L31.9478609,34.523747 L31.9478609,34.523747 Z M43.3651482,34.4751622 C43.8391772,34.0780123 44.0954609,33.1574675 43.6065382,32.6251885 L43.6065382,32.6251885 C44.8056961,32.8685898 45.3643693,33.6666667 46,33.6666667 C45.3571429,33.3333333 44.6071429,32 42.8928571,32 C41.1785714,32 40.1071429,32.2222222 40,33.5555556 L40,33.6666667 C40.6022459,33.0988927 40.8967463,32.8212493 41.2694953,32.6854807 C41.0411703,33.3900318 41.7984969,34.2529952 42.4584217,34.5555445 C41.283936,34.5511343 40.7492886,33.2233289 40.3214286,33.8888889 C40,34.3333333 41.6071429,35 42.7857143,35 C43.9642857,35 45.7857143,33.1111111 45.0357143,33.6666667 C44.501856,34.0621173 44.0222842,34.3449735 43.3651482,34.4751622 L43.3651482,34.4751622 L43.3651482,34.4751622 Z M46,31.4309359 C45.294256,32.1426336 44.8909737,30.8971625 42.3704594,30.8971625 C39.8499452,30.8971625 39.4466629,32.2315959 39.0433806,31.9647092 C38.6400983,31.6978225 41.1606126,30.0965025 41.9671772,30.0075403 C42.7737418,29.9185781 45.0926149,30.6302759 46,31.4309359 L46,31.4309359 Z M32.6295405,30.8971625 C35.1500548,30.8971625 35.5533371,32.2315959 35.9566194,31.9647092 C36.3599017,31.6978225 33.8393874,30.0965025 33.0328228,30.0075403 C32.2262583,29.9185781 29.9073851,30.6302759 29,31.4309359 C29.705744,32.1426336 30.1090263,30.8971625 32.6295405,30.8971625 Z M38,46 C37.4583496,46 36.0500585,46.3489426 38,46.3489426 C39.9499415,46.3489426 38.5416504,46 38,46 L38,46 Z" id="face" fill="#000000"></path>
                </g>
            </g>
        </g>
    </g>
</svg>