<?xml version="1.0" encoding="UTF-8" standalone="no"?>
<svg width="180px" height="180px" viewBox="0 0 180 180" version="1.1" xmlns="http://www.w3.org/2000/svg" xmlns:xlink="http://www.w3.org/1999/xlink">
    <!-- Generator: Sketch 3.8.3 (29802) - http://www.bohemiancoding.com/sketch -->
    <title>uzbekistan</title>
    <desc>Created with Sketch.</desc>
    <defs></defs>
    <g id="Page-1" stroke="none" stroke-width="1" fill="none" fill-rule="evenodd">
        <g id="flags" transform="translate(-180.000000, -6390.000000)">
            <g id="uzbekistan" transform="translate(180.000000, 6390.000000)">
                <circle id="white" fill="#FFFFFF" cx="90" cy="90" r="90"></circle>
                <path d="M174.878829,59.9999996 C162.523738,25.0442275 129.186567,0 90,0 C50.8134331,0 17.4762623,25.0442275 5.12117078,59.9999996 L174.878833,60 L174.878833,60 L174.878829,59.9999996 L174.878829,59.9999996 L174.878829,59.9999996 Z" id="aqua" fill="#4BB7C0"></path>
                <path d="M174.878829,120 C162.523738,154.955772 129.186567,180 90,180 C50.8134331,180 17.4762623,154.955772 5.12117078,120 L174.878833,120 L174.878833,120 L174.878829,120 L174.878829,120 L174.878829,120 Z" id="green" fill="#1FCE6D"></path>
                <path d="M176.482334,115 C175.995364,116.687571 175.460337,118.354764 174.878829,120.000001 L174.878833,120 L5.12117078,120 C4.53966321,118.354764 4.00463577,116.687571 3.51766623,115 L176.482334,115 L176.482334,115 L176.482334,115 L176.482334,115 L176.482334,115 Z M176.482334,65.0000004 C175.995364,63.3124291 175.460337,61.6452364 174.878829,60 L5.12116698,60.0000004 C4.5396601,61.6452366 4.00463324,63.3124292 3.51766417,65.0000004 L176.482334,65.0000004 L176.482334,65.0000004 L176.482334,65.0000004 L176.482334,65.0000004 L176.482334,65.0000004 Z" id="red" fill="#E94B35" transform="translate(89.999999, 90.000000) scale(1, -1) translate(-89.999999, -90.000000) "></path>
                <path d="M59.5,56.729414 C58.3601851,56.9074876 57.1911475,57 56,57 C43.8497349,57 34,47.3741227 34,35.5 C34,23.6258773 43.8497349,14 56,14 C57.1911475,14 58.3601851,14.0925124 59.5,14.270586 C49.0131672,15.9089473 41,24.7899533 41,35.5 C41,46.2100467 49.0131672,55.0910527 59.5,56.729414 C59.5,56.729414 49.0131672,55.0910527 59.5,56.729414 L59.5,56.729414 Z M82.6581306,55.3544369 L79.2541218,56.9999999 L79.9042294,53.5146419 L77.150328,51.0462977 L80.9561266,50.5377903 L82.6581308,47.3667073 L84.360136,50.5377911 L88.1659343,51.0463002 L85.4120318,53.5146425 L86.0621396,57 L82.6581306,55.3544369 L82.6581306,55.3544369 Z M67.8189108,55.3544369 L64.4149019,56.9999999 L65.0650096,53.5146419 L62.3111082,51.0462977 L66.1169068,50.5377903 L67.818911,47.3667073 L69.5209161,50.5377911 L73.3267145,51.0463002 L70.5728119,53.5146425 L71.2229197,57 L67.8189108,55.3544369 L67.8189108,55.3544369 Z M112.33657,55.3544369 L108.932561,56.9999999 L109.582669,53.5146419 L106.828768,51.0462977 L110.634566,50.5377903 L112.33657,47.3667073 L114.038576,50.5377911 L117.844374,51.0463002 L115.090471,53.5146425 L115.740579,57 L112.33657,55.3544369 L112.33657,55.3544369 Z M127.17579,55.3544369 L123.771781,56.9999999 L124.421889,53.5146419 L121.667987,51.0462977 L125.473786,50.5377903 L127.17579,47.3667073 L128.877795,50.5377911 L132.683594,51.0463002 L129.929691,53.5146425 L130.579799,57 L127.17579,55.3544369 L127.17579,55.3544369 Z M97.4973504,55.3544369 L94.0933416,56.9999999 L94.7434493,53.5146419 L91.9895479,51.0462977 L95.7953465,50.5377903 L97.4973506,47.3667073 L99.1993558,50.5377911 L103.005154,51.0463002 L100.251252,53.5146425 L100.901359,57 L97.4973504,55.3544369 L97.4973504,55.3544369 Z M82.6581306,39.1823138 L79.2541218,40.8278768 L79.9042294,37.3425187 L77.150328,34.8741745 L80.9561266,34.3656672 L82.6581308,31.1945841 L84.360136,34.3656679 L88.1659343,34.8741771 L85.4120318,37.3425194 L86.0621396,40.8278768 L82.6581306,39.1823138 L82.6581306,39.1823138 Z M112.33657,39.1823138 L108.932561,40.8278768 L109.582669,37.3425187 L106.828768,34.8741745 L110.634566,34.3656672 L112.33657,31.1945841 L114.038576,34.3656679 L117.844374,34.8741771 L115.090471,37.3425194 L115.740579,40.8278768 L112.33657,39.1823138 L112.33657,39.1823138 Z M127.17579,39.1823138 L123.771781,40.8278768 L124.421889,37.3425187 L121.667987,34.8741745 L125.473786,34.3656672 L127.17579,31.1945841 L128.877795,34.3656679 L132.683594,34.8741771 L129.929691,37.3425194 L130.579799,40.8278768 L127.17579,39.1823138 L127.17579,39.1823138 Z M97.4973504,39.1823138 L94.0933416,40.8278768 L94.7434493,37.3425187 L91.9895479,34.8741745 L95.7953465,34.3656672 L97.4973506,31.1945841 L99.1993558,34.3656679 L103.005154,34.8741771 L100.251252,37.3425194 L100.901359,40.8278768 L97.4973504,39.1823138 L97.4973504,39.1823138 Z M112.33657,23.0101906 L108.932561,24.6557536 L109.582669,21.1703956 L106.828768,18.7020514 L110.634566,18.193544 L112.33657,15.0224609 L114.038576,18.1935448 L117.844374,18.7020539 L115.090471,21.1703962 L115.740579,24.6557537 L112.33657,23.0101906 L112.33657,23.0101906 Z M127.17579,23.0101906 L123.771781,24.6557536 L124.421889,21.1703956 L121.667987,18.7020514 L125.473786,18.193544 L127.17579,15.0224609 L128.877795,18.1935448 L132.683594,18.7020539 L129.929691,21.1703962 L130.579799,24.6557537 L127.17579,23.0101906 L127.17579,23.0101906 Z M97.4973504,23.0101906 L94.0933416,24.6557536 L94.7434493,21.1703956 L91.9895479,18.7020514 L95.7953465,18.193544 L97.4973506,15.0224609 L99.1993558,18.1935448 L103.005154,18.7020539 L100.251252,21.1703962 L100.901359,24.6557537 L97.4973504,23.0101906 L97.4973504,23.0101906 Z" id="symbol" fill="#FFFFFF"></path>
            </g>
        </g>
    </g>
</svg>