<?xml version="1.0" encoding="UTF-8" standalone="no"?>
<svg width="180px" height="180px" viewBox="0 0 180 180" version="1.1" xmlns="http://www.w3.org/2000/svg" xmlns:xlink="http://www.w3.org/1999/xlink">
    <!-- Generator: Sketch 3.8.3 (29802) - http://www.bohemiancoding.com/sketch -->
    <title>venezuela</title>
    <desc>Created with Sketch.</desc>
    <defs></defs>
    <g id="Page-1" stroke="none" stroke-width="1" fill="none" fill-rule="evenodd">
        <g id="flags" transform="translate(-990.000000, -6390.000000)">
            <g id="venezuela" transform="translate(990.000000, 6390.000000)">
                <path d="M174.878833,120 L5.12116698,120 C17.4762623,154.955772 50.8134331,180 90,180 C129.186567,180 162.523738,154.955772 174.878829,120 L174.878833,120 Z" id="red" fill="#E94B35"></path>
                <path d="M5.12116698,120 L174.878833,120 C178.195374,110.616633 180,100.519063 180,90 C180,79.480937 178.195374,69.3833673 174.878829,59.9999996 L5.12116698,60 C1.80462645,69.3833673 0,79.480937 0,90 C0,100.519063 1.80462645,110.616633 5.12117078,120 L5.12116698,120 Z" id="blue" fill="#227FBB"></path>
                <path d="M5.12116698,60 L174.878833,60 C162.523738,25.0442275 129.186567,0 90,0 C50.8134331,0 17.4762623,25.0442275 5.12117078,59.9999996 L5.12116698,60 Z" id="yellow" fill="#F2C500"></path>
                <path d="M80.3960153,72.9601091 L75.0844787,75.4240273 L76.0988917,70.2053652 L71.8017677,66.5094883 L77.7402477,65.748095 L80.3960156,61 L83.0517851,65.7480962 L88.9902647,66.509492 L84.6931389,70.2053662 L85.7075521,75.4240274 L80.3960153,72.9601091 L80.3960153,72.9601091 L80.3960153,72.9601091 L80.3960153,72.9601091 L80.3960153,72.9601091 Z M98.0976026,72.8067771 L92.2498316,73.1015456 L95.1453242,68.6428922 L92.5456001,63.6064038 L98.3368856,65.125046 L102.577939,61.7175572 L103.261657,67.114784 L108.482496,70.0453316 L103.113771,71.8623548 L102.099374,77.0810191 L98.0976026,72.8067771 L98.0976026,72.8067771 L98.0976026,72.8067771 L98.0976026,72.8067771 L98.0976026,72.8067771 Z M115.246629,79.7367262 L109.748552,77.723156 L114.156002,74.7503029 L113.730856,69.0983978 L118.468382,72.7591509 L123.703703,71.2796522 L122.224205,76.5149758 L125.884956,81.2525032 L120.233051,80.8273541 L117.260199,85.2348033 L115.246629,79.7367262 L115.246629,79.7367262 L115.246629,79.7367262 L115.246629,79.7367262 L115.246629,79.7367262 Z M127.871963,92.1452165 L123.528532,88.2186509 L128.728698,87.1133292 L130.451751,81.7137116 L133.472966,86.8826112 L138.881302,87.4720299 L135.548348,91.7719076 L137.167828,97.5358079 L132.086737,95.0243759 L127.679297,97.9972415 L127.871963,92.1452165 L127.871963,92.1452165 L127.871963,92.1452165 L127.871963,92.1452165 L127.871963,92.1452165 Z M135.097942,109.171623 L132.634023,103.860087 L137.852686,104.8745 L141.548562,100.577376 L142.309956,106.515856 L147.058051,109.171624 L142.309955,111.827393 L141.548559,117.765873 L137.852685,113.468747 L132.634023,114.48316 L135.097942,109.171623 L135.097942,109.171623 L135.097942,109.171623 L135.097942,109.171623 L135.097942,109.171623 Z M44.0311693,109.960448 L44.3259379,115.808219 L39.8672844,112.912727 L34.830796,115.512451 L36.3494383,109.721165 L32.9419494,105.480112 L38.3391763,104.796394 L41.2697239,99.5755546 L43.086747,104.94428 L48.3054113,105.958677 L44.0311693,109.960448 L44.0311693,109.960448 L44.0311693,109.960448 L44.0311693,109.960448 L44.0311693,109.960448 Z M50.9611185,92.811422 L48.9475482,98.3094988 L45.9746952,93.9020491 L40.32279,94.327195 L43.9835432,89.5896692 L42.5040445,84.3543475 L47.7393681,85.8338459 L52.4768955,82.1730949 L52.0517464,87.8249993 L56.4591956,90.7978516 L50.9611185,92.811422 L50.9611185,92.811422 L50.9611185,92.811422 L50.9611185,92.811422 L50.9611185,92.811422 Z M63.3696088,80.1860875 L59.4430432,84.5295188 L58.3377215,79.3293523 L52.9381038,77.6062998 L58.1070035,74.5850846 L58.6964222,69.1767489 L62.9962998,72.5097027 L68.7602002,70.8902224 L66.2487682,75.9713133 L69.2216338,80.3787535 L63.3696088,80.1860875 L63.3696088,80.1860875 L63.3696088,80.1860875 L63.3696088,80.1860875 L63.3696088,80.1860875 Z" id="stars" fill="#FFFFFF"></path>
            </g>
        </g>
    </g>
</svg>