<?xml version="1.0" encoding="UTF-8" standalone="no"?>
<svg width="180px" height="180px" viewBox="0 0 180 180" version="1.1" xmlns="http://www.w3.org/2000/svg" xmlns:xlink="http://www.w3.org/1999/xlink">
    <!-- Generator: Sketch 3.8.3 (29802) - http://www.bohemiancoding.com/sketch -->
    <title>wallis_and_futuna</title>
    <desc>Created with Sketch.</desc>
    <defs></defs>
    <g id="Page-1" stroke="none" stroke-width="1" fill="none" fill-rule="evenodd">
        <g id="flags" transform="translate(-1800.000000, -6390.000000)">
            <g id="wallis_and_futuna" transform="translate(1800.000000, 6390.000000)">
                <circle id="red" fill="#E94B35" cx="90" cy="90" r="90"></circle>
                <path d="M92,0.0217833347 C91.3350852,0.00728614264 90.6683935,0 90,0 C40.2943725,0 0,40.2943725 0,90 C0,90.6683935 0.00728614264,91.3350852 0.0217833347,92 L92,92 L92,0.0217833347 L92,0.0217833347 Z" id="white" fill="#FFFFFF"></path>
                <path d="M134.8,84.6 L113.2,63 L156.4,63 L134.8,84.6 Z M127.6,91.8 L106,70.2 L106,113.4 L127.6,91.8 Z M134.8,99 L113.2,120.6 L156.4,120.6 L134.8,99 Z M142,91.8 L163.6,70.2 L163.6,113.4 L142,91.8 Z" id="Shape" fill="#FFFFFF"></path>
                <path d="M30,22.9168048 C11.5875192,39.3964214 0,63.3450056 0,90 L30,90 L30,22.9168048 L30,22.9168048 Z" id="blue" fill="#227FBB"></path>
                <path d="M60,5.12117123 C69.3833678,1.80462663 79.4809373,0 90,0 L90,90 L60,90 L60,5.12117123 L60,5.12117123 Z" id="red" fill="#E94B35"></path>
                <path d="M60,5.12117123 C48.8214057,9.07223735 38.6564378,15.1690832 30,22.9168048 L30,90 L60,90 L60,5.12117123 L60,5.12117123 Z" id="white" fill="#FFFFFF"></path>
            </g>
        </g>
    </g>
</svg>