<?xml version="1.0" encoding="UTF-8" standalone="no"?>
<svg width="180px" height="180px" viewBox="0 0 180 180" version="1.1" xmlns="http://www.w3.org/2000/svg" xmlns:xlink="http://www.w3.org/1999/xlink">
    <!-- Generator: Sketch 3.8.3 (29802) - http://www.bohemiancoding.com/sketch -->
    <title>zambia</title>
    <desc>Created with Sketch.</desc>
    <defs></defs>
    <g id="Page-1" stroke="none" stroke-width="1" fill="none" fill-rule="evenodd">
        <g id="flags" transform="translate(-2340.000000, -6390.000000)">
            <g id="zambia" transform="translate(2340.000000, 6390.000000)">
                <circle id="green" fill="#1AAF5D" cx="90" cy="90" r="90"></circle>
                <path d="M150,157.083197 L150,80 L179.450712,80 C179.813667,83.2833385 180,86.619909 180,90 C180,116.654996 168.412481,140.603581 150,157.083197 L150,157.083197 Z" id="yellow" fill="#F2C500"></path>
                <path d="M120,174.878833 L120,80 L150,80 L150,157.083197 C141.343562,164.830918 131.178595,170.927763 120,174.878829 L120,174.878833 Z" id="black" fill="#000000"></path>
                <path d="M90,180 L90,80 L120,80 L120,174.878833 C110.616633,178.195374 100.519063,180 90,180 L90,180 Z" id="red" fill="#E94B35"></path>
                <g id="bird" transform="translate(75.360000, 39.000000)">
                    <path d="M70.2521373,6.6341587 C70.2521373,6.6341587 81.8171086,2.1016157 82.9376476,1.16702638 C83.4472475,1.72775308 78.3014929,7.42854617 68.3161389,9.53129279 C77.3844389,7.56872112 85.1284594,1.40064682 86.7077942,1.58756468 C87.1663347,1.68102361 87.0642023,7.61543714 66.2782636,12.7554861 C80.6449857,9.29761319 89.0002141,2.94266539 88.8983371,3.64358049 C89.0002141,3.78375543 87.4719387,8.64343428 74.8882786,12.4283745 C78.4036254,11.680625 87.9304791,6.35378191 87.8286022,7.3818167 C88.1342062,7.802355 78.6073658,19.0169172 61.3875779,15.3723159 C75.1430786,18.6431863 84.0584555,10.7461822 85.3321864,10.8863706 C85.5869864,10.9330933 82.7847246,17.8020505 65.4633152,18.2226184 C73.7677396,17.4283197 71.3729453,18.1757935 71.3729453,18.1757935 C71.3729453,18.1757935 66.4819906,21.6803555 60.572374,19.2974566 C65.2085151,20.4657282 65.7178462,20.5123232 65.8197366,20.8860554 C65.5141191,21.3532196 61.6931684,22.0543257 58.0251541,20.2317851 C60.9798415,21.3532196 63.6291668,21.5403257 63.6799842,21.9608936 C63.6291668,22.100922 61.7442279,23.0823281 60.0630295,22.3814615 C58.3818177,21.6803555 42.8940456,12.9423986 42.8940456,12.9423986 L69.2842659,6.3070659 L70.2521373,6.6341587 L70.2521373,6.6341587 L70.2521373,6.6341587 L70.2521373,6.6341587 L70.2521373,6.6341587 Z" id="Shape" fill="#F2C500"></path>
                    <path d="M39.2275508,30.2706419 C36.9069454,30.2706419 36.8429093,32.1647021 36.8429093,32.1647021 C36.8429093,32.1647021 36.6513789,32.3014721 36.779142,33.2195011 C37.1622429,32.594363 37.3540422,32.3991012 37.3540422,32.3991012 C37.6095952,32.4382517 38.674005,32.7311317 40.35597,31.5204514 C38.8228669,32.9848735 39.7386569,33.5317225 39.7386569,33.5317225 C39.7386569,33.5317225 39.3766817,34.6839125 40.5475271,34.9183115 C40.1857671,34.4495121 40.3986517,34.0394317 40.3986517,34.0394317 C40.3986517,34.0394317 42.0379349,33.8833217 41.9315127,32.0477426 C41.995522,33.7074024 42.9748236,34.1174814 42.9748236,34.1174814 C42.9748236,34.1174814 42.9748236,35.0352709 44.0392335,35.1135613 C43.4646157,34.6447619 43.5921233,33.9222329 43.5921233,33.9222329 C43.5921233,33.9222329 44.9761089,33.004442 43.8050214,31.4421731 C44.5076712,31.0709918 45.0825579,30.0362428 45.0825579,30.0362428 C45.0825579,30.0362428 44.1245971,29.6650723 43.6774869,29.3528509 C43.4643468,28.9425313 43.6561595,26.6968718 43.6561595,26.6968718 L43.0812593,23.7871524 L41.4417206,28.3178626 C41.5054744,27.6733711 41.5481698,30.2706419 39.2275508,30.2706419 L39.2275508,30.2706419 L39.2275508,30.2706419 L39.2275508,30.2706419 L39.2275508,30.2706419 L39.2275508,30.2706419 Z" id="Shape" fill="#F2C500"></path>
                    <path d="M50.68887,23.7363578 C50.7396741,23.7831948 52.421128,25.5122914 54.0512939,25.4186293 C54.6624883,24.9514544 52.7775494,23.9234639 52.7775494,23.6897615 C53.439817,24.2505876 56.2418367,26.4466305 58.0251541,25.652321 C58.7382256,24.717764 56.7514232,24.8580209 54.5606248,22.3346244 C56.0889002,23.2691936 59.9101065,25.3251972 61.6931684,24.5308973 C62.4575549,23.7831948 57.7192947,21.4466516 56.1399597,19.6243504 L52.064478,17.7086172 L46.5112558,21.8674602 L50.68887,23.7363578 L50.68887,23.7363578 L50.68887,23.7363578 L50.68887,23.7363578 L50.68887,23.7363578 Z" id="Shape" fill="#F2C500"></path>
                    <path d="M44.4225631,9.53126858 C44.4225631,9.53126858 46.3075154,8.5032674 53.8475399,9.01726866 C54.6627439,9.1107007 58.993039,7.66218006 60.3686335,7.24162831 C62.5591764,6.86780604 69.5388104,5.46596241 71.4239914,4.15757771 C72.7485397,4.01741621 71.0670723,6.40052483 69.3861428,6.96123807 C67.6027985,7.70890011 61.1327779,9.76491456 58.8400891,9.48454718 C61.5913049,9.53129279 60.0630295,11.587283 55.4776923,10.6060046 C57.6684906,11.727462 56.8532868,11.9143732 56.8532868,11.9143732 C56.8532868,11.9143732 52.981532,12.1012843 51.962601,11.306917 C54.5608803,12.1947513 53.4908764,12.5218307 53.4908764,12.5218307 C53.4908764,12.5218307 50.8418066,12.7554632 49.6188661,12.241462 C51.5038186,12.7554632 50.5359336,13.0825748 50.5359336,13.0825748 C50.5359336,13.0825748 49.0076582,13.3162088 47.7339273,12.8956637 C46.4604384,12.4751187 44.52444,9.53126858 44.4225631,9.53126858 L44.4225631,9.53126858 L44.4225631,9.53126858 L44.4225631,9.53126858 L44.4225631,9.53126858 L44.4225631,9.53126858 Z" id="Shape" fill="#F2C500"></path>
                    <path d="M47.4458586,24.7049419 L47.7227526,29.274562 C47.7227526,29.274562 47.5736351,29.5089623 47.4458586,29.6457324 C47.3180686,29.7822726 43.911457,29.1573631 44.3798946,31.5397913 C44.3798946,32.5163027 44.4012356,32.7700416 45.1252398,33.3168921 C44.9334405,32.6724113 44.9974632,32.2234212 44.9974632,32.2234212 C44.9974632,32.2234212 45.955424,32.7507017 46.8923128,31.3056316 C46.2536588,32.7311317 46.7005001,33.2388424 46.8496309,33.2779809 C46.9987484,33.5319511 46.59432,34.6839125 47.8716145,34.6643426 C47.3820914,34.2346816 47.6163035,33.6097708 47.6163035,33.6097708 C47.6163035,33.6097708 48.9576207,33.4147509 48.4891695,31.1884328 C48.9789482,30.7392019 49.1704919,31.1688615 49.1704919,31.1688615 C49.1704919,31.1688615 49.3193673,32.4967314 50.4904682,32.2234212 C51.0229286,32.4967314 50.4053735,33.2192604 50.4053735,33.2192604 C50.4053735,33.2192604 51.2568852,33.2388424 51.5124517,32.5747824 C51.7680181,31.9109618 52.0659975,30.719632 50.660671,30.2314913 C50.4904682,29.7629326 51.2144724,29.7237807 51.2144724,29.7237807 C51.2144724,29.7237807 52.1086659,29.9970909 52.3639768,30.4071833 C52.6195433,30.8172623 52.5344352,29.3332703 51.4273435,29.1769316 C50.0646989,29.1377932 49.9796042,28.8840529 49.9796042,28.8255611 C49.9796042,28.7668527 49.7453786,25.5057721 49.638943,24.5684004 C49.638943,24.5684004 49.7453786,25.5057721 49.638943,24.5684004 L47.4458586,24.7049419 L47.4458586,24.7049419 L47.4458586,24.7049419 L47.4458586,24.7049419 L47.4458586,24.7049419 Z" id="Shape" fill="#F2C500"></path>
                    <path d="M50.454389,25.1245834 C51.0480616,25.236648 52.0217827,26.5517079 52.8105626,26.1248494 C52.5715094,25.6122561 51.8668291,25.900938 51.066619,24.5886804 C50.2666644,23.1051577 53.2769832,22.5263861 53.4512606,21.7768186 C53.6255245,21.027251 54.5908545,22.0384847 57.4004854,21.7796209 C57.5930511,21.177779 55.0996879,19.9631411 54.4579948,18.8288965 C52.6632337,17.7230623 47.8601708,13.9257358 47.7639013,13.0450608 C46.0161387,10.7070317 44.9250628,9.99973718 44.4169824,9.73045306 C44.220611,9.51831074 44.1713401,9.31550082 44.1329748,9.18656515 C43.0479906,6.8405483 44.4850662,6.0787437 45.3261831,5.96609544 C46.0184247,5.8955373 46.2193682,5.99058302 46.7175378,5.76933413 C46.1276574,5.55768663 45.5380458,5.35975541 44.9484208,5.1481079 C45.7173928,5.66545352 47.6816037,5.20997907 47.2558344,6.70011785 C48.1170148,6.39959696 49.9493746,4.40008683 45.1790828,3.94883484 C43.6266829,2.31536098 37.2440296,1.37660299 35.6464198,8.50585198 C35.7739407,8.60580463 35.8407471,8.68793687 36.2467085,8.96600476 C34.2311826,8.06995818 28.7940647,7.37897932 26.8346814,7.08859771 C21.5413424,5.68781643 16.0439939,2.31212017 15.5155542,2.72726609 C14.8087626,3.01499857 18.7137861,6.34720617 18.5108122,6.42096476 C15.1248421,4.61018789 12.0316338,3.32728588 9.15343497,2.15986952 C7.12861696,1.4656512 5.10055815,-0.150650418 4.87692909,0.156822742 C4.13173194,1.57271883 8.12319481,5.13180974 8.8656487,5.55047887 C9.60833117,5.95096719 15.4477394,8.43538664 15.3616361,8.46640425 C6.56638417,4.80486486 5.0917636,4.14106439 4.65040884,3.71889897 C3.87521071,3.55875473 1.98684275,1.22021056 1.46058156,1.37059204 C1.17247255,1.63020615 1.7503177,5.3252899 5.94725573,6.98396406 C6.63133476,7.4412539 14.9435586,10.1762401 14.862162,10.3906712 C14.8418296,10.4442561 5.34169565,6.79434328 4.97267407,6.66385041 C3.14102693,6.00507924 0.89353462,3.69594438 0.473359402,3.95561229 C0.0723331787,4.19123637 1.5094357,6.6905837 3.36027217,7.47448225 C4.33040277,7.86714827 8.05161468,9.55762131 11.4042622,10.6335447 C11.6182361,10.7045157 5.3779093,8.46305317 2.37763555,7.3131143 C1.01727693,6.62061725 0.376659664,5.7574467 0.169449783,5.94316774 C-0.13705517,6.1288619 0.664634198,9.82098048 10.3060727,11.9043079 C10.5600927,12.0034712 13.6998826,11.2220845 13.5447004,11.3257204 C13.5058779,11.3516374 10.4268432,11.9664479 10.1270484,11.9454378 C9.86023997,11.9080596 8.17342058,12.1285972 8.14290859,12.2087742 C8.0409913,12.4585234 8.75406276,13.7805248 13.7321696,13.5048371 C14.3685778,13.4697463 17.8222148,12.3512742 17.5320618,12.5918724 C17.3869786,12.7122408 12.8291546,14.0706374 12.4820387,14.0974353 C12.1805496,14.1365065 10.5793897,14.2900777 10.5201946,14.4462792 C10.4479017,14.6593144 11.7053479,15.6001957 14.3787171,15.7509417 C16.7457158,15.866278 21.2434303,14.424399 21.1532122,14.5178781 C21.0629671,14.6113452 16.8172825,15.9457342 16.7061806,16.0270543 C16.5525584,16.1067404 14.997859,16.1840909 14.9432897,16.2936059 C14.8166025,16.5659895 17.1859545,18.5982252 24.1932228,16.4294481 C23.489282,17.3015692 20.0927424,17.8980564 20.0976237,18.055093 C20.0818769,18.1690334 20.8459272,18.8461333 22.033407,19.0884596 C22.6271065,19.2096173 23.440011,19.1849119 24.1825455,19.0772727 C25.5162516,18.8323848 26.9218201,18.3484424 28.7076791,16.8346335 C28.9210882,17.3097236 24.2465682,19.4794259 24.4660555,19.6863319 C25.4796613,20.548444 28.8466572,19.5751937 29.067153,19.4621904 C29.2879044,19.3489477 35.5508899,16.1097702 35.5292936,15.734872 C35.6265984,16.2153156 27.4547915,20.2879425 27.5429388,20.4550107 C28.067519,21.2227402 30.8591172,20.4146929 30.9924743,20.3441011 C31.1256028,20.2737259 34.5550749,18.5744583 34.6490583,18.5243616 C34.7428131,18.4742663 30.6185444,20.7383405 30.9858851,21.0829391 C30.8083131,22.5531839 37.4269536,20.0682292 37.9456843,19.7587995 C38.2050564,19.604084 34.7661711,21.145617 34.7570269,21.8779371 C35.8643875,23.5951622 39.4102059,23.0504055 39.9571356,22.6727051 C40.230735,22.4837473 39.6352739,23.9483859 39.8270731,23.8153448 C39.8938929,23.7878503 40.5983312,23.0238363 40.8691334,22.4709252 C40.7827478,22.9506815 40.3940796,23.706529 40.1672233,24.5737646 C39.9401247,25.4409909 39.87508,26.4195933 39.5633979,27.4592493 C39.4919926,27.9159259 41.7483467,26.5663937 41.4206353,23.3402547 C41.613712,25.0183292 40.7080748,28.1561584 40.9450705,28.3192571 C41.4191157,28.6454556 42.7296789,26.7565188 42.8620275,25.4792028 C43.25122,26.1243801 44.0679436,27.4711327 44.7706068,27.7810196 C44.6941452,26.804979 44.7840676,26.8497236 44.4677998,25.890449 C44.650186,24.6168728 44.6756014,22.8542185 44.7197893,20.8639237 C46.6291352,24.2186651 47.3907246,25.6353129 46.8572556,28.2043913 C47.4250153,28.4215428 48.3319165,26.4112102 48.258763,25.3764477 C48.9878503,28.2516842 52.1348344,28.682741 52.1848854,28.5990865 C52.2016407,28.3896215 49.8604609,25.4983141 50.454389,25.1245834 Z" id="Shape" fill="#F2C500"></path>
                    <path d="M43.0614514,4.09231783 C43.0614514,3.96762075 42.5038445,2.8701843 40.4235563,4.24197314 C41.5385146,4.3043015 42.6397566,4.89044365 43.0614514,4.09231783 C43.0614514,4.09231783 42.6397566,4.89044365 43.0614514,4.09231783 L43.0614514,4.09231783 L43.0614514,4.09231783 L43.0614514,4.09231783 L43.0614514,4.09231783 L43.0614514,4.09231783 Z" id="eye" fill="#000000"></path>
                </g>
            </g>
        </g>
    </g>
</svg>