<?xml version="1.0" encoding="UTF-8" standalone="no"?>
<svg width="180px" height="180px" viewBox="0 0 180 180" version="1.1" xmlns="http://www.w3.org/2000/svg" xmlns:xlink="http://www.w3.org/1999/xlink">
    <!-- Generator: Sketch 3.8.3 (29802) - http://www.bohemiancoding.com/sketch -->
    <title>zimbabwe</title>
    <desc>Created with Sketch.</desc>
    <defs></defs>
    <g id="Page-1" stroke="none" stroke-width="1" fill="none" fill-rule="evenodd">
        <g id="flags" transform="translate(-2610.000000, -6390.000000)">
            <g id="zimbabwe" transform="translate(2610.000000, 6390.000000)">
                <ellipse id="white" fill="#FFFFFF" cx="89.9972382" cy="90" rx="89.9972382" ry="90"></ellipse>
                <path d="M152.245017,155 L27.7494592,155 C43.914287,170.485497 65.8446804,180 89.9972382,180 C114.149796,180 136.080189,170.485497 152.245017,155 L152.245017,155 Z M27.7494592,25 L152.245017,25 C136.080189,9.51450332 114.149796,0 89.9972382,0 C65.8446804,0 43.914287,9.51450332 27.7494592,25 L27.7494592,25 Z" id="green" fill="#1AAF5D"></path>
                <path d="M152.245017,155 L27.7777778,155 L56.6666667,129 L171.128791,129 C166.419807,138.778829 159.995051,147.575663 152.245017,155 L152.245017,155 Z M171.128816,51 L56.6666667,51 L27.7777778,25 L152.245017,25 C159.995051,32.4243368 166.419807,41.2211713 171.128788,50.9999943 L171.128816,51 Z" id="yellow" fill="#F2C500"></path>
                <path d="M171.128816,129 L56.6666667,129 L85.5555556,103 L179.062526,103 C177.733094,112.189228 175.015332,120.929081 171.128788,129.000006 L171.128816,129 Z M179.062526,77 L85.5555556,77 L56.6666667,51 L171.128791,51 C175.015332,59.0709189 177.733094,67.8107721 179.062526,77 L179.062526,77 Z" id="red" fill="#E94B35"></path>
                <path d="M179.062526,103 L85.5555556,103 L100,90 L85.5555556,77 L179.062526,77 C179.676613,81.2446642 179.994476,85.5852105 179.994476,90 C179.994476,94.4147895 179.676613,98.7553358 179.062526,103 L179.062526,103 Z" id="black" fill="#000000"></path>
                <path d="M27.7631782,24.9868603 L100,90 L27.7631782,155.01314 C26.7162322,154.010613 25.6934573,152.983045 24.6958157,151.931399 L94,90 L24.6958157,28.0686013 C25.6934573,27.0169548 26.7162322,25.9893871 27.7631782,24.9868603 L27.7631782,24.9868603 Z" id="black" fill="#000000"></path>
                <polygon id="star" fill="#E94B35" points="39.9999992 105.25 19.4275178 115.60207 23.3565112 93.6760353 6.71302168 78.1479314 29.7137614 74.9489631 40.0000004 55 50.2862457 74.948968 73.2869837 78.1479474 56.6434874 93.6760395 60.5724815 115.602071"></polygon>
                <g id="bird" transform="translate(24.000000, 63.000000)">
                    <path d="M40.320131,28.849251 C39.420245,27.949371 23.698712,16.303801 20.46971,13.974681 C17.240707,11.645571 16.340822,10.586881 16.340822,10.586881 C16.340822,10.586881 13.429427,5.346381 12.423672,3.811281 C11.417918,2.276181 9.565211,0.105871 7.130227,0.105871 C4.695242,0.105871 3.21318,1.535101 2.507353,4.075951 C2.119132,4.181821 0.037009,5.452451 0.107623,6.758031 C0.707582,6.687311 4.483608,5.628621 5.78929,9.898731 C7.095075,14.168841 7.165585,21.155981 5.824545,24.614501 C4.483504,28.073021 2.401485,30.684171 2.401485,33.719221 C2.401485,34.142691 2.683733,34.989641 3.38956,34.989641 C3.636553,36.330791 5.612807,45.894131 5.612807,45.894131 L33.774042,45.894131 L38.247003,28.602161" id="Shape" fill="#F2C500"></path>
                    <g id="border" stroke="#000000" stroke-width="0.2">
                        <path d="M12.63541,19.109321 C14.611561,23.414581 15.105753,23.697041 20.046234,25.390941 C24.986715,27.084631 38.943835,28.690451 40.320131,28.849251 C39.420245,27.949371 23.698712,16.303801 20.46971,13.974681 C17.240707,11.645571 16.340822,10.586881 16.340822,10.586881 C16.340822,10.586881 13.429427,5.346381 12.423672,3.811281 C11.417918,2.276181 9.565211,0.105871 7.130227,0.105871 C4.695242,0.105871 3.21318,1.535101 2.507353,4.075951 C2.119132,4.181821 0.037009,5.452451 0.107623,6.758031 C0.707582,6.687311 4.483608,5.628621 5.78929,9.898731 C7.095075,14.168841 7.165585,21.155981 5.824545,24.614501 C4.483504,28.073021 2.401485,30.684171 2.401485,33.719221 C2.401485,34.142691 2.683733,34.989641 3.38956,34.989641 C3.636553,36.330791 5.612807,45.894131 5.612807,45.894131 L33.774042,45.894131 L38.247003,28.602161" id="Shape"></path>
                        <path d="M3.38956,34.989641 C3.38956,34.989641 9.388832,34.636881 11.012225,34.636881 C12.63541,34.636881 27.74613,34.655501 36.176976,36.604761" id="Shape"></path>
                        <path d="M5.508178,34.870751 C5.508178,34.870751 4.907083,34.142691 5.2952,32.695891 C5.683318,31.249081 9.918177,27.508111 9.918177,22.214871" id="Shape"></path>
                        <path d="M9.141736,34.636881 C9.141736,34.636881 8.64775,32.272411 14.047065,30.260901 C15.564587,29.802071 19.905007,27.367091 20.046234,25.390941" id="Shape"></path>
                        <path d="M13.473056,30.485261 C13.473056,30.485261 26.71639,30.543151 37.197205,32.660531" id="Shape"></path>
                        <path d="M16.792626,28.905291 C16.792626,28.905291 21.343128,29.060991 22.084211,28.849251 C22.825293,28.637511 24.137077,28.087081 24.658976,26.536061" id="Shape"></path>
                        <path d="M19.490423,28.959261 C19.490423,28.959261 21.924582,27.693791 22.401404,26.048281" id="Shape"></path>
                        <path d="M12.141424,45.4425827 C12.141424,45.4425827 11.100311,38.2261327 10.888574,34.1853327 L13.606013,36.7791227 L16.480809,34.2649427 L18.952392,36.9027727 L21.810027,34.4779227 L24.28099,37.2555327 L27.110918,34.8488827 L29.362698,37.4672727 L32.184976,35.4264027 L35.540109,38.6150827" id="Shape"></path>
                        <path d="M34.9508,41.345081 C24.870302,39.901381 11.380491,39.995051 11.380491,39.995051" id="Shape"></path>
                        <path d="M6.693931,15.052191 C6.693931,15.052191 14.89381,11.133801 16.340822,10.586881" id="Shape"></path>
                    </g>
                </g>
            </g>
        </g>
    </g>
</svg>